<svg width="658" height="400" viewBox="0 0 658 400" fill="none" xmlns="http://www.w3.org/2000/svg">
<path d="M146.352 351.816L138.954 398.7H53.4824L44.2854 322.025C42.486 308.93 53.0825 297.533 65.7783 297.533H115.262C115.262 297.533 115.262 297.933 115.662 297.933C116.062 298.333 116.562 299.233 116.961 299.733C116.961 299.733 116.961 300.133 117.361 300.133C117.361 300.533 117.761 300.532 117.761 301.032C118.161 301.432 118.161 301.932 118.661 301.932C119.061 302.332 119.061 302.832 119.561 303.232C119.96 303.632 119.96 303.632 120.46 304.131C120.46 304.131 120.46 304.131 120.86 304.531C120.86 304.931 121.26 304.931 121.76 305.431C122.16 305.831 122.16 306.331 122.66 306.331C123.059 306.73 123.959 307.23 124.459 308.13L124.859 308.53C125.259 308.93 125.259 308.93 125.759 309.43C126.658 309.83 127.058 310.329 127.958 311.229C128.358 311.629 128.858 311.629 129.257 312.129C129.657 312.129 129.657 312.529 130.157 312.529C131.057 312.928 131.957 313.428 132.756 313.828C133.156 314.228 133.656 314.228 134.056 314.228C134.456 314.228 134.456 314.628 134.956 314.628C135.355 315.028 136.255 315.028 136.755 315.528C137.155 315.528 137.155 315.528 137.655 315.928C138.055 315.928 138.554 316.327 138.954 316.327C139.854 316.727 140.254 316.727 141.154 317.227C141.553 317.227 141.553 317.227 142.053 317.627L146.352 351.816Z" fill="#DD2641"/>
<path d="M146.352 351.816L138.954 398.701H80.6733L67.5776 298.034H115.262C115.262 298.034 115.262 298.434 115.662 298.434C116.062 298.834 116.562 299.733 116.961 300.233C116.961 300.233 116.961 300.633 117.361 300.633C117.361 301.033 117.761 301.033 117.761 301.533C118.161 301.932 118.161 302.432 118.661 302.432C119.061 302.832 119.061 303.332 119.561 303.732C119.96 304.132 119.96 304.132 120.46 304.632C120.46 304.632 120.46 304.632 120.86 305.031C120.86 305.431 121.26 305.431 121.76 305.931C122.16 306.331 122.16 306.831 122.66 306.831C123.059 307.231 123.959 307.731 124.459 308.63L124.859 309.03C125.259 309.43 125.259 309.43 125.758 309.93C126.658 310.33 127.058 310.83 127.958 311.729C128.358 312.129 128.857 312.129 129.257 312.629C129.657 312.629 129.657 313.029 130.157 313.029C131.057 313.429 131.956 313.929 132.756 314.328C133.156 314.728 133.656 314.728 134.056 314.728C134.456 314.728 134.456 315.128 134.955 315.128C135.355 315.528 136.255 315.528 136.755 316.028C137.155 316.028 137.155 316.028 137.655 316.428C138.054 316.428 138.554 316.828 138.954 316.828C139.854 317.227 140.254 317.228 141.153 317.727C141.553 317.727 141.553 317.727 142.053 318.127L146.352 351.816Z" fill="#C61436"/>
<path d="M384.074 215.661L380.975 223.558L372.677 244.151L356.483 284.038C356.483 284.038 349.485 290.636 347.686 306.331C347.286 312.429 347.286 319.926 348.585 328.624C349.485 333.022 349.485 337.421 349.485 341.719C349.485 350.017 347.686 357.914 345.586 364.912C344.287 368.81 342.987 372.309 341.688 375.408C341.288 376.308 340.788 377.208 340.788 377.607C340.388 378.507 339.888 378.907 339.888 379.807C337.289 385.105 335.09 388.104 335.09 388.104L332.891 397.701V398.101V398.501H139.754V398.101L147.152 351.216L150.651 328.924L164.646 323.225L165.945 322.825L170.344 321.026C169.944 321.026 169.044 321.026 168.545 321.026C167.645 321.026 166.745 321.026 165.945 321.026C165.546 321.026 164.646 321.026 164.146 321.026C163.746 321.026 163.746 321.026 163.246 321.026C162.347 321.026 161.447 321.026 160.647 321.026C160.247 321.026 160.247 321.026 159.748 321.026C159.348 321.026 158.848 321.026 158.448 321.026C158.048 321.026 157.548 321.026 156.649 321.026C156.249 321.026 155.749 321.026 155.349 321.026C154.449 321.026 154.049 320.626 153.15 320.626C151.35 320.226 150.051 320.226 148.351 319.727C147.951 319.727 147.951 319.727 147.452 319.727C147.052 319.727 147.052 319.727 146.552 319.327C146.152 319.327 145.652 318.927 145.252 318.927C144.852 318.927 144.353 318.527 143.953 318.527H143.553C143.153 318.527 142.653 318.127 142.253 318.127H141.853C141.454 318.127 141.454 318.127 140.954 317.727C140.054 317.327 139.654 317.327 138.754 316.827C138.355 316.827 137.855 316.428 137.455 316.428C137.055 316.428 137.055 316.428 136.555 316.028C136.155 315.628 135.256 315.628 134.756 315.128C134.356 315.128 134.356 314.728 133.856 314.728C133.456 314.728 132.956 314.328 132.556 314.328C131.657 313.928 130.757 313.429 129.957 313.029C129.557 313.029 129.557 312.629 129.058 312.629C128.658 312.229 128.158 312.229 127.758 311.729C126.858 311.329 126.458 310.83 125.559 309.93C125.159 309.53 125.159 309.53 124.659 309.03L124.259 308.63C123.859 308.23 122.96 307.73 122.46 306.831C122.06 306.431 121.56 306.431 121.56 305.931C121.16 305.531 121.16 305.531 120.66 305.031C120.66 305.031 120.66 305.031 120.261 304.632C119.861 304.232 119.861 304.232 119.361 303.732C118.961 303.332 118.961 302.832 118.461 302.432C118.061 302.032 118.061 301.532 117.561 301.532C117.561 301.133 117.162 301.133 117.162 300.633C117.162 300.633 117.162 300.233 116.762 300.233C116.362 299.833 115.862 298.933 115.462 298.434C115.462 298.434 115.462 298.034 115.062 298.034C114.662 297.134 114.163 296.234 113.263 295.435C113.263 295.435 113.263 295.035 112.863 295.035C112.863 294.635 112.463 294.635 112.463 294.135C112.063 293.235 111.563 292.335 111.163 291.536V291.136C110.764 289.836 110.264 288.537 110.264 287.637V287.237C110.264 286.837 110.264 286.837 110.264 286.337C110.264 286.337 110.264 286.338 110.264 285.938V285.538C110.264 285.538 110.264 285.538 110.264 285.138V284.738C110.264 284.738 110.264 284.738 110.264 284.338L131.257 221.259C134.356 211.662 141.354 203.265 150.051 198.066L188.538 175.274L198.635 183.571L196.036 184.871C196.036 184.871 209.131 197.567 225.826 210.263C243.82 224.258 266.113 238.253 279.208 236.554C304.2 233.055 305.899 183.571 305.899 183.571C305.899 183.571 306.299 183.571 307.199 183.571L346.186 189.27C357.183 190.569 366.779 196.267 373.777 204.564L384.074 215.661Z" fill="#4C9CA3"/>
<path d="M349.485 342.219C349.085 355.815 345.586 367.211 341.588 375.508C313.597 382.506 260.614 362.413 260.614 362.413C317.996 370.61 340.788 355.315 349.485 342.219Z" fill="#28878D"/>
<path d="M208.032 258.546C208.032 258.546 210.231 365.411 258.415 373.709L284.206 368.91C284.206 368.91 227.325 364.911 208.032 258.546Z" fill="#28878D"/>
<path d="M369.678 147.283C367.479 165.677 353.884 171.375 340.788 173.575C334.19 174.874 328.092 175.374 323.694 175.774C332.491 169.176 342.487 155.681 349.485 127.19C352.984 113.594 354.783 101.798 355.183 91.7017C359.182 101.798 371.878 128.89 369.678 147.283Z" fill="#231F20"/>
<path d="M356.083 160.479C356.083 160.079 359.182 153.081 354.284 144.284C354.284 144.284 356.083 164.378 340.688 174.074C334.09 175.374 327.992 175.874 323.594 176.274C332.391 169.676 342.387 156.18 349.385 127.69C352.884 114.094 354.683 102.298 355.083 92.2014C356.083 94.3007 372.278 144.284 356.083 160.479Z" fill="#111010"/>
<path d="M288.605 237.954C287.705 238.353 254.016 255.948 203.233 205.964L182.64 190.169L167.345 199.766C157.248 205.864 151.15 216.86 151.15 228.657V264.145V271.542C151.15 271.542 145.852 279.84 138.055 291.236C137.155 292.536 136.255 293.435 135.855 294.735C132.756 299.533 128.858 304.332 125.359 309.23L124.959 308.83C124.559 308.43 123.659 307.93 123.159 307.031C122.76 306.631 122.26 306.631 122.26 306.131C121.86 305.731 121.86 305.731 121.36 305.231C121.36 305.231 121.36 305.231 120.96 304.831C120.56 304.432 120.56 304.432 120.061 303.932C119.661 303.532 119.661 303.032 119.161 302.632C118.761 302.232 118.761 301.733 118.261 301.733C118.261 301.333 117.861 301.333 117.861 300.833C117.861 300.833 117.861 300.433 117.461 300.433C117.061 300.033 116.562 299.133 116.162 298.634C116.162 298.634 116.162 298.234 115.762 298.234C115.362 297.334 114.862 296.434 113.963 295.635C113.963 295.635 113.963 295.235 113.563 295.235C113.563 294.835 113.163 294.835 113.163 294.335C112.763 293.435 112.263 292.536 111.863 291.736V291.336C111.463 290.036 110.964 288.737 110.964 287.837V287.437C110.964 287.037 110.964 287.037 110.964 286.537C110.964 286.537 110.964 286.538 110.964 286.138V285.738C110.964 285.738 110.964 285.738 110.964 285.338V284.938C110.964 284.938 110.964 284.938 110.964 284.538L131.957 221.459C135.056 211.862 142.053 203.465 150.75 198.267L189.238 175.474L199.334 183.771L196.735 185.071C196.735 185.071 209.831 197.767 226.525 210.463C237.822 222.659 263.713 245.851 288.605 237.954Z" fill="#28878D"/>
<path d="M296.502 397.801C296.103 397.801 295.603 398.201 295.603 398.201C295.203 398.201 294.703 398.6 294.303 398.6H138.854V398.201L146.252 351.316L149.751 329.023L163.746 323.325L165.046 322.925L169.444 321.126C169.044 321.126 168.145 321.126 167.645 321.126C166.745 321.126 165.845 321.126 165.046 321.126C164.646 321.126 163.746 321.126 163.246 321.126C162.846 321.126 162.846 321.126 162.347 321.126C161.447 321.126 160.547 321.126 159.747 321.126C159.347 321.126 159.348 321.126 158.848 321.126C158.448 321.126 157.948 321.126 157.548 321.126C157.148 321.126 156.648 321.126 155.749 321.126C155.349 321.126 154.849 321.126 154.449 321.126C153.549 321.126 153.15 320.726 152.25 320.726C150.45 320.326 149.151 320.326 147.451 319.826C147.052 319.826 147.052 319.826 146.552 319.826C146.152 319.826 146.152 319.826 145.652 319.427C145.252 319.427 144.752 319.026 144.352 319.026C143.953 319.026 143.453 318.627 143.053 318.627H142.653C142.253 318.627 141.753 318.227 141.353 318.227H141.054C140.654 318.227 140.654 318.227 140.154 317.827C139.254 317.427 138.854 317.427 137.955 316.927C137.555 316.927 137.055 316.527 136.655 316.527C136.255 316.527 136.255 316.527 135.755 316.128C135.355 315.728 134.456 315.728 133.956 315.228C133.556 315.228 133.556 314.828 133.056 314.828C135.255 313.928 137.855 313.029 140.054 312.629C147.052 310.429 154.049 308.73 160.647 307.33C162.446 306.931 163.746 306.931 165.445 306.431C181.64 303.332 193.036 302.932 193.036 302.932C193.036 302.932 193.036 301.632 193.036 299.033C193.436 284.538 193.036 233.355 168.045 208.863C168.045 208.863 196.935 221.159 204.433 284.138C208.331 317.827 215.829 342.419 232.423 357.714C246.919 371.309 267.912 377.807 299.901 377.807C303.8 377.807 307.299 378.207 309.998 378.707C313.097 379.107 314.796 380.007 315.696 380.906C320.594 383.805 311.797 390.303 296.502 397.801Z" fill="#28878D"/>
<path d="M469.945 361.413L447.153 389.504L440.555 381.606L356.483 284.338L381.075 223.558L385.873 230.556L469.945 361.413Z" fill="#FF8F6A"/>
<path d="M440.555 381.606L356.483 284.438L380.975 223.558L385.773 230.556L373.077 273.942L448.352 368.51C448.053 368.41 465.947 379.007 440.555 381.606Z" fill="#F05E2B"/>
<path d="M355.183 88.6026C355.183 89.9021 355.183 90.8018 355.183 92.1014C354.783 102.198 352.984 113.594 349.485 127.59C349.485 127.99 349.085 128.889 349.085 129.389C349.085 129.789 348.685 130.689 348.685 131.189C348.685 131.589 348.285 132.088 348.285 132.988C348.285 133.388 347.886 133.888 347.886 134.288C347.886 134.688 347.486 135.187 347.486 135.587C347.486 135.987 347.086 136.487 347.086 136.887V137.287C347.086 137.687 346.686 138.186 346.686 138.586C346.286 139.886 345.786 141.185 345.386 142.085C345.386 142.485 345.386 142.485 344.987 142.985C344.987 143.385 344.587 143.884 344.587 143.884C343.287 146.983 341.988 149.982 340.688 153.081C340.688 153.481 340.288 153.481 340.288 153.981C340.288 153.981 340.288 154.381 339.888 154.381C339.888 154.781 339.488 154.781 339.488 155.281C339.089 155.681 339.089 156.18 338.589 156.58C338.189 157.48 337.689 158.38 337.289 159.179C336.889 159.579 336.889 160.079 336.389 160.479C335.09 162.678 333.79 164.877 332.491 166.577L332.091 166.977C331.691 167.877 330.791 168.276 330.291 169.176C329.892 169.576 329.892 169.576 329.392 170.076C328.092 171.375 327.192 172.675 325.893 173.575L325.493 173.975C325.093 174.374 324.593 174.874 324.193 174.874C324.193 174.874 323.794 174.874 323.794 175.274L323.394 175.674C320.795 177.473 318.595 178.773 316.396 179.573C311.598 181.772 307.599 181.772 305.899 181.372C305 181.372 304.6 181.372 304.6 181.372C304.6 181.372 304.6 181.772 304.6 182.272C304.2 188.87 300.701 230.856 277.909 234.355C252.917 237.854 195.136 183.172 195.136 183.172L197.735 181.872L205.632 177.473C207.432 178.773 209.131 180.073 210.931 181.372C211.83 181.772 212.23 182.272 212.73 182.672C235.922 196.667 249.118 187.07 253.417 182.272C254.716 180.972 255.216 180.072 255.216 180.072C255.216 180.072 253.917 181.372 252.117 182.272C247.319 184.871 238.522 188.87 230.224 183.172C230.224 183.172 233.323 183.572 237.222 182.272C241.121 180.972 246.419 177.473 249.518 168.676C249.518 168.676 258.315 184.471 273.21 176.974C273.21 176.974 254.816 177.873 254.816 152.881C254.816 152.881 254.816 151.982 254.816 150.682C255.716 141.085 260.914 99.8989 273.21 85.4037C279.308 78.406 292.904 70.1086 306.499 63.1109C325.293 53.5141 344.187 45.6167 344.187 45.6167C344.187 45.6167 356.083 57.1129 355.183 88.6026Z" fill="#FF8F6A"/>
<path d="M355.183 88.6027C355.583 57.1131 344.187 45.7169 344.187 45.7169C343.787 46.1168 320.495 55.3138 300.001 66.71C288.605 72.808 278.108 79.8058 273.31 85.5039C262.314 98.1997 257.515 131.089 255.316 145.484C254.916 147.683 254.916 149.383 254.916 150.782C254.916 151.682 254.916 152.082 254.916 152.982C254.916 177.973 273.31 177.074 273.31 177.074C258.815 184.471 249.618 168.777 249.618 168.777C245.719 180.573 238.222 182.772 233.823 183.272C231.624 183.272 230.324 183.272 230.324 183.272C242.12 191.169 254.816 180.673 255.716 180.173C255.316 181.072 242.12 201.166 211.53 181.472C209.731 180.173 208.032 178.873 206.232 177.573C181.24 156.98 187.838 123.691 188.238 122.792C182.94 135.887 186.938 149.983 186.938 150.382C178.641 135.487 179.041 116.194 200.034 90.4022C221.027 65.0105 233.323 16.4266 267.012 4.53053C281.008 0.131981 292.804 -0.267985 302.5 1.43146C326.992 5.83001 338.888 22.9244 338.888 22.9244C368.379 45.317 358.682 79.4058 355.183 88.6027Z" fill="#231F20"/>
<path d="M357.782 151.682C358.182 150.382 358.182 149.083 357.382 146.883C356.483 143.784 350.785 134.188 348.585 130.689C348.185 132.888 347.286 134.588 346.786 136.787C348.985 139.386 351.184 142.885 352.484 145.084C353.784 146.883 354.283 148.583 354.283 149.483C352.984 149.083 351.684 149.083 350.785 149.483L347.286 153.381L353.884 159.079L357.382 155.181C359.182 154.781 358.682 152.981 357.782 151.682Z" fill="#F9D8AD"/>
<path d="M354.491 159.722C355.416 158.624 354.66 156.465 352.803 154.9C350.946 153.334 348.69 152.955 347.765 154.052C346.84 155.15 347.595 157.309 349.453 158.874C351.31 160.44 353.566 160.82 354.491 159.722Z" fill="#EDAA15"/>
<path d="M193.636 302.332L169.944 321.626C169.544 321.626 168.645 321.626 168.145 321.626C167.245 321.626 166.345 321.626 165.546 321.626C165.146 321.626 164.246 321.626 163.746 321.626C163.346 321.626 163.346 321.626 162.846 321.626C161.947 321.626 161.047 321.626 160.247 321.626C159.847 321.626 159.847 321.626 159.348 321.626C158.948 321.626 158.448 321.626 158.048 321.626C157.648 321.626 157.148 321.626 156.249 321.626C155.849 321.626 155.349 321.626 154.949 321.626C154.049 321.626 153.649 321.226 152.75 321.226C150.95 320.826 149.651 320.826 147.951 320.326C147.551 320.326 147.551 320.326 147.052 320.326C146.652 320.326 146.652 320.326 146.152 319.927C145.752 319.927 145.252 319.527 144.852 319.527C144.453 319.527 143.953 319.127 143.553 319.127H143.153C142.753 319.127 142.253 318.727 141.853 318.727H141.453C141.054 318.727 141.054 318.727 140.554 318.327C139.654 317.927 139.254 317.927 138.355 317.427C137.955 317.427 137.455 317.027 137.055 317.027C136.655 317.027 136.655 317.027 136.155 316.628C135.755 316.228 134.856 316.228 134.356 315.728C133.956 315.728 133.956 315.328 133.456 315.328C133.056 315.328 132.556 314.928 132.157 314.928C131.257 314.528 130.357 314.028 129.557 313.629C129.158 313.629 129.158 313.229 128.658 313.229C128.258 312.829 127.758 312.829 127.358 312.329C126.458 311.929 126.059 311.429 125.159 310.53C124.759 310.13 124.759 310.13 124.259 309.63L123.859 309.23C123.459 308.83 122.56 308.33 122.06 307.431C121.66 307.031 121.16 307.031 121.16 306.531C120.76 306.131 120.76 306.131 120.26 305.631C120.26 305.631 120.26 305.631 119.861 305.231C119.461 304.832 119.461 304.831 118.961 304.332C118.561 303.932 118.561 303.432 118.061 303.032C117.661 302.632 117.661 302.132 117.161 302.132C117.161 301.732 116.762 301.733 116.762 301.233C116.762 301.233 116.762 300.833 116.362 300.833C115.962 300.433 115.462 299.533 115.062 299.033C115.062 299.033 115.062 298.634 114.662 298.634C114.262 297.734 113.763 296.834 112.863 296.034C112.863 296.034 112.863 295.635 112.463 295.635C112.463 295.235 112.063 295.235 112.063 294.735C111.663 293.835 111.163 292.935 110.764 292.136V291.736C110.364 290.436 109.864 289.137 109.864 288.237V287.837C109.864 287.437 109.864 287.437 109.864 286.937C109.864 286.937 109.864 286.937 109.864 286.537V286.138C109.864 286.138 109.864 286.138 109.864 285.738V285.338C109.864 285.338 109.864 285.338 109.864 284.938C110.764 282.339 115.962 271.343 133.556 266.944C138.355 265.644 143.653 265.145 150.151 265.145H150.551C181.64 266.044 192.637 287.937 193.037 300.133C193.636 299.733 193.636 301.033 193.636 302.332Z" fill="#231F20"/>
<path d="M438.356 352.716L431.758 384.705H420.362V383.406C420.362 381.606 419.062 380.307 417.263 380.307H244.32C242.52 380.307 241.221 381.606 241.221 383.406V384.705H220.627C217.129 384.705 213.63 386.005 211.43 388.604C209.231 390.803 207.532 394.302 207.532 397.801H404.967L403.667 398.201H153.749L147.152 351.316L142.353 317.127L141.453 311.429L138.854 292.635L138.454 290.036L134.956 264.645C139.754 263.345 145.052 262.845 151.55 262.845H151.95C183.04 263.745 194.036 285.638 194.436 297.834C194.436 299.133 194.436 300.933 194.436 301.733L205.432 353.815C205.432 353.815 217.228 354.715 234.723 356.015C266.712 358.614 316.996 362.612 346.786 364.312C359.482 365.212 368.279 365.612 370.478 365.212C376.576 364.812 405.966 357.314 423.861 352.916C427.359 352.016 430.858 351.616 434.357 351.616C434.857 352.216 436.656 352.716 438.356 352.716Z" fill="#FF8F6A"/>
<path d="M419.962 383.306V386.405C419.962 388.204 418.662 389.503 416.863 389.503H244.02C242.22 389.503 240.921 388.204 240.921 386.405V383.306C240.921 381.506 242.22 380.207 244.02 380.207H416.963C418.662 379.807 419.962 381.106 419.962 383.306Z" fill="#231F20"/>
<path d="M639.39 166.177L589.906 397.801H207.232C207.232 394.302 208.532 390.803 211.131 388.604C213.33 386.405 216.829 384.705 220.328 384.705H431.858L477.843 164.877L639.39 166.177Z" fill="#FCBD4B"/>
<path d="M414.764 393.002H423.961C424.86 393.002 425.26 392.103 425.26 391.703C425.26 390.803 424.361 390.403 423.961 390.403H414.764C413.864 390.403 413.464 391.303 413.464 391.703C412.964 392.103 413.864 393.002 414.764 393.002Z" fill="#DDCAE6"/>
<path d="M398.969 393.002H408.166C409.066 393.002 409.466 392.103 409.466 391.703C409.466 390.803 408.566 390.403 408.166 390.403H398.969C398.069 390.403 397.669 391.303 397.669 391.703C397.27 392.103 398.069 393.002 398.969 393.002Z" fill="#DDCAE6"/>
<path d="M218.128 393.002H227.325C228.225 393.002 228.625 392.103 228.625 391.703C228.625 390.803 227.725 390.403 227.325 390.403H218.128C217.229 390.403 216.829 391.303 216.829 391.703C216.829 392.103 217.229 393.002 218.128 393.002Z" fill="#231F20"/>
<path d="M384.074 395.601V397.801H379.275V395.601C379.275 394.302 380.575 393.002 381.875 393.002C382.774 393.002 384.074 394.302 384.074 395.601Z" fill="#231F20"/>
<path d="M376.176 395.601V397.801H371.378V395.601C371.378 394.302 372.678 393.002 373.977 393.002C374.877 393.002 376.176 394.302 376.176 395.601Z" fill="#231F20"/>
<path d="M368.379 395.601V397.801H363.581V395.601C363.581 394.302 364.88 393.002 366.18 393.002C367.079 393.002 367.479 393.402 367.979 393.902C367.879 394.302 368.379 394.702 368.379 395.601Z" fill="#231F20"/>
<path d="M359.982 395.601V397.801H355.183V395.601C355.183 394.302 356.483 393.002 357.782 393.002C359.182 393.002 359.982 394.302 359.982 395.601Z" fill="#231F20"/>
<path d="M352.084 395.601V397.801H347.286V395.601C347.286 394.302 348.585 393.002 349.885 393.002C351.285 393.002 352.084 394.302 352.084 395.601Z" fill="#231F20"/>
<path d="M344.287 395.601V397.801H339.489V395.601C339.489 394.302 340.788 393.002 342.088 393.002C342.887 393.002 344.287 394.302 344.287 395.601Z" fill="#231F20"/>
<path d="M273.31 176.674C258.815 184.071 249.618 168.376 249.618 168.376C237.822 151.782 235.623 133.388 235.623 133.388L239.121 100.999C239.121 100.999 243.02 38.4191 266.312 21.7246C289.505 5.13006 317.096 9.4286 317.096 9.4286C274.61 11.228 261.014 65.5103 261.014 65.5103C289.505 42.3179 324.093 40.1185 324.093 40.1185C268.512 51.5147 254.516 85.7036 254.516 85.7036C266.812 111.995 254.516 129.489 254.516 129.489C254.516 135.587 254.916 140.886 255.816 145.284C255.416 147.483 255.416 149.183 255.416 150.582C255.416 151.482 255.416 151.882 255.416 152.782C254.916 177.973 273.31 176.674 273.31 176.674Z" fill="#111010"/>
<path d="M298.702 14.2273L283.407 21.6248C283.407 21.6248 250.118 32.1214 247.019 83.4045C247.019 83.4045 257.515 85.2038 257.515 110.096C257.515 135.087 235.623 133.288 235.623 133.288C235.623 133.288 235.223 130.189 234.723 124.991C233.823 117.093 233.423 104.897 234.723 90.4022C235.622 79.9056 237.822 68.1095 241.321 57.1131C253.617 22.1246 270.211 6.32984 304.4 8.92898C304.4 8.92898 286.406 11.1284 271.111 20.3254C272.011 20.3254 285.106 14.2273 298.702 14.2273Z" fill="#F9D8AD"/>
<path d="M236.922 57.1129C214.129 131.588 240.821 168.376 241.321 169.176C240.921 168.776 226.425 154.681 221.627 140.686C221.627 140.686 216.329 159.079 224.726 170.876C233.123 182.672 244.419 171.775 244.819 171.775C244.819 172.175 240.421 181.872 230.824 182.772C242.62 190.669 255.316 180.173 256.216 179.673C255.816 180.572 242.62 200.666 212.03 180.972C210.231 179.673 208.531 178.373 206.732 177.073C181.74 156.48 188.338 123.191 188.738 122.292C183.44 135.387 187.438 149.483 187.438 149.882C179.141 134.987 179.541 115.694 200.534 89.9022C221.527 64.5105 233.823 15.9266 267.512 4.03053C281.507 -0.368019 293.303 -0.767985 303 0.931456C281.207 1.93113 251.017 11.6279 236.922 57.1129Z" fill="#111010"/>
<path d="M248.318 108.396C248.318 118.492 243.52 126.39 237.822 126.39C236.922 126.39 235.622 125.99 234.723 125.49C233.823 117.593 233.423 105.397 234.723 90.9014C235.622 90.5016 236.922 90.0018 237.822 90.0018C243.52 90.4017 248.318 98.299 248.318 108.396Z" fill="#EA6044"/>
<path d="M438.356 352.716L431.758 384.705H420.362V383.406C420.362 381.606 419.062 380.307 417.263 380.307H244.32C242.52 380.307 241.221 381.606 241.221 383.406V384.705H220.627C217.129 384.705 213.63 386.005 211.43 388.604C209.231 390.803 207.532 394.302 207.532 397.801H404.967L403.667 398.201H153.749L147.152 351.316L142.353 317.127L141.453 311.429L138.854 292.635L138.454 290.036L134.956 264.645C139.754 263.345 145.052 262.845 151.55 262.845H151.95C183.04 263.745 194.036 285.638 194.436 297.834C194.436 299.133 194.436 300.933 194.436 301.733C194.436 301.733 184.839 281.639 159.448 289.037V289.936L162.047 306.131L164.246 321.026L164.646 323.625L165.545 329.723L172.943 377.008C172.943 377.008 244.32 377.408 311.298 377.408C321.394 377.408 331.391 377.408 341.488 377.408C387.872 377.408 425.96 377.407 425.96 377.008C425.96 376.608 430.358 363.012 434.257 352.016C434.857 352.216 436.656 352.716 438.356 352.716Z" fill="#F05E2B"/>
<path d="M195.336 183.271C195.336 183.271 186.539 177.173 188.338 173.174L198.435 181.472L195.336 183.271Z" fill="#111010"/>
<path d="M368.779 241.452L372.677 244.051L356.483 283.938C356.483 283.938 349.485 290.536 347.686 306.231L339.788 228.757L350.285 279.94L364.78 201.565L362.181 247.95L376.176 208.963L368.779 241.452Z" fill="#28878D"/>
<path d="M250.518 319.427H311.398C322.794 319.427 331.091 308.43 328.492 297.534C326.293 289.237 318.395 283.539 309.698 284.438L249.318 291.036C240.521 291.936 234.823 300.233 237.022 309.03C238.721 315.428 244.42 319.427 250.518 319.427Z" fill="#F73C4F"/>
<path d="M250.518 287.037L305.3 281.739C307.899 281.339 309.698 279.14 309.198 276.441C308.799 274.242 306.999 272.942 304.8 272.942L249.618 272.542C244.82 272.542 241.321 276.441 242.22 281.339C243.12 284.838 246.619 287.437 250.518 287.037Z" fill="#F73C4F"/>
<path d="M259.315 57.5126C259.315 57.5126 283.407 15.4264 330.691 20.7246C330.691 20.7246 284.706 22.0243 261.114 65.8099L259.315 57.5126Z" fill="#111010"/>
<path d="M567.613 290.036H501.535C494.937 290.036 490.139 283.938 491.438 277.34C492.738 272.942 496.737 269.943 501.535 269.943H567.613C574.211 269.943 579.01 276.041 577.71 282.639C576.31 287.037 571.912 290.036 567.613 290.036Z" fill="#F9D8AD"/>
<path d="M477.843 164.877L449.352 397.801H431.858V384.605L454.55 276.541L455.45 271.642L477.843 164.877Z" fill="#F4A422"/>
<path d="M334.19 53.6141L344.687 45.7168C344.287 45.7168 325.393 53.6142 306.999 63.211C293.404 70.2087 279.408 78.5061 273.71 85.5038C261.414 99.999 256.216 141.086 255.316 150.782C255.316 152.082 255.316 152.582 255.316 152.982C255.316 177.973 273.71 177.073 273.71 177.073C259.215 184.471 250.018 168.776 250.018 168.776C246.919 177.574 242.12 181.072 237.722 182.372C233.823 183.671 230.724 183.272 230.724 183.272C239.021 188.97 247.819 185.071 252.617 182.372C254.416 181.072 255.716 180.173 255.716 180.173C255.716 180.173 254.816 181.072 253.917 182.372C249.518 187.17 236.822 196.867 213.23 182.772C212.83 182.372 211.93 181.872 211.431 181.472C209.631 180.173 207.932 178.873 206.132 177.573L198.235 181.972L195.636 183.272C195.636 183.272 253.917 238.453 278.409 234.455C301.201 230.956 304.7 188.87 305.1 182.372C305.1 181.972 305.1 181.472 305.1 181.472C305.1 181.472 305.5 181.472 306.399 181.472C308.199 181.472 312.097 181.472 316.896 179.673C296.802 177.873 290.205 160.379 290.205 139.786C290.405 106.197 306.599 74.2073 334.19 53.6141ZM256.716 222.159L279.508 173.575C290.005 179.273 298.302 181.872 305.3 182.372C295.603 245.851 256.716 222.159 256.716 222.159Z" fill="#F05E2B"/>
<path d="M441.055 327.724V331.223L434.057 398.701H384.573L377.476 327.724H441.055Z" fill="#F73C4F"/>
<path d="M441.055 331.223L395.97 333.822C392.071 334.222 388.972 337.721 389.372 341.719L394.17 398.601H384.573L377.576 327.624H441.055V331.223Z" fill="#DD2641"/>
<path d="M448.053 308.93V327.724H370.478V308.93H373.977V301.033H435.357L439.655 308.93H448.053Z" fill="#F5FFF2"/>
<path d="M373.977 301.033L439.655 308.93H373.977V301.033Z" fill="#F9D8AD"/>
<path d="M370.478 308.93C373.577 317.227 380.975 322.925 390.172 323.825L448.452 327.724H370.478V308.93Z" fill="#F9D8AD"/>
<path d="M428.759 359.714C428.759 366.311 425.26 372.009 420.462 375.008C417.862 376.808 414.364 377.608 410.865 377.608C400.768 377.608 392.871 369.31 392.871 359.613C392.871 350.017 401.168 341.619 410.865 341.619C419.162 341.619 426.66 347.318 428.359 355.215C428.359 356.615 428.759 358.414 428.759 359.714Z" fill="#FCBD4B"/>
<path d="M435.756 335.621L429.658 394.702H411.664L419.562 375.008C424.86 371.909 427.859 366.211 427.859 359.714C427.859 357.914 427.859 356.614 427.459 355.315L435.756 335.621Z" fill="#FF7387"/>
<path d="M428.759 359.714C428.759 366.311 425.26 372.009 420.462 375.008L428.359 355.315C428.359 356.615 428.759 358.414 428.759 359.714Z" fill="#F29E9E"/>
<path d="M455.45 271.642L454.55 276.441C451.052 272.042 444.454 265.044 433.058 263.345C413.364 259.846 388.372 273.442 359.482 301.832C341.987 319.326 323.594 329.823 306.099 332.022C303.5 332.422 301.301 332.422 298.702 332.422C286.006 332.422 274.61 328.024 265.813 319.727C255.716 310.53 249.618 296.934 248.718 282.539C247.818 267.244 253.517 251.449 264.513 238.353C282.907 216.46 286.006 189.269 274.61 157.78C265.813 134.088 251.417 117.093 250.917 116.593L254.016 113.994C254.416 114.894 268.912 131.988 278.109 156.08C283.407 170.575 286.006 184.071 285.106 196.767C284.206 212.962 278.109 227.457 267.612 240.153C245.319 266.844 250.518 299.733 268.512 316.327C278.608 325.524 291.704 329.423 305.699 327.324C322.294 325.125 339.888 315.028 356.883 298.033C386.673 268.243 412.464 254.648 433.557 258.647C444.054 261.146 451.052 266.844 455.45 271.642Z" fill="#F9D8AD"/>
<path d="M256.716 113.594C256.716 113.994 259.815 118.393 262.014 120.992C262.914 122.292 262.914 124.091 262.014 125.79C260.214 128.39 256.716 128.389 255.016 126.19L252.817 123.091L256.716 113.594Z" fill="#F9D8AD"/>
<path d="M655.584 400H1.79941C0.899704 400 0 399.101 0 398.201C0 397.301 0.899704 396.401 1.79941 396.401H655.584C656.484 396.401 657.384 397.301 657.384 398.201C657.284 399.101 656.484 400 655.584 400Z" fill="#F9D8AD"/>
</svg>
