<svg width="172" height="401" viewBox="0 0 172 401" fill="none" xmlns="http://www.w3.org/2000/svg">
<path d="M86.13 400.06C133.231 400.06 171.415 394.688 171.415 388.062C171.415 381.436 133.231 376.064 86.13 376.064C39.0285 376.064 0.845215 381.436 0.845215 388.062C0.845215 394.688 39.0285 400.06 86.13 400.06Z" fill="#B2A4A3"/>
<path d="M123.123 336.571C122.623 342.47 118.624 344.57 118.624 344.57V350.169H102.127V343.27C102.127 343.27 99.7275 341.971 97.8279 337.371C97.028 335.472 95.1285 316.575 93.0289 295.279C92.729 291.779 92.5289 288.58 91.929 285.181C89.2295 257.986 86.8298 230.491 86.8298 230.491C86.8298 230.491 79.6313 327.573 81.231 333.972C82.5308 340.071 75.9319 342.27 75.9319 342.27V349.469H58.0352V342.57C58.0352 342.57 52.4361 341.271 51.1363 337.271C49.2366 331.972 48.7368 204.795 48.7368 204.795H123.123C123.123 204.795 123.123 208.794 123.123 215.693C123.123 228.791 123.423 251.687 123.423 274.083C123.423 278.582 123.423 282.881 123.423 287.18C123.423 312.276 123.423 334.172 123.123 336.571Z" fill="#35052C"/>
<path d="M106.326 347.969L118.624 350.069H102.127V343.17C102.127 343.17 99.7275 341.87 97.8279 337.271C97.028 335.372 95.1285 316.475 93.0289 295.179C92.729 291.68 92.5289 288.48 91.929 285.081C89.2295 257.886 86.8298 230.391 86.8298 230.391L87.3297 212.494C87.3297 212.494 98.2278 314.575 99.6276 327.173V327.473C100.427 335.172 106.027 341.371 113.725 343.17L118.524 344.27L106.226 345.57V347.969H106.326Z" fill="#260121"/>
<path d="M62.0344 343.77V346.17L75.6318 349.369H57.7351V342.47C57.7351 342.47 52.136 341.171 50.8362 337.171C48.9366 331.872 48.4368 204.695 48.4368 204.695H122.823L84.9302 207.595C69.433 208.894 57.2351 221.692 56.6352 237.189C55.5354 268.384 54.2358 315.875 54.7357 323.074V323.374C55.2356 331.372 60.8345 338.271 68.6331 340.171L75.3318 341.77L62.0344 343.77Z" fill="#260121"/>
<path d="M88.5298 202.695V229.891C88.5298 230.191 88.8297 230.39 89.0297 230.69V232.59C89.0297 232.89 89.3294 232.89 89.3294 232.89C89.6294 232.89 89.6294 232.59 89.6294 232.59V230.69C89.9294 230.69 90.1294 230.391 90.1294 229.891V202.695H88.5298Z" fill="#DBD2D1"/>
<path d="M77.0317 380.264C77.0317 380.264 74.6319 382.663 70.3327 383.163C69.0329 383.463 67.9332 382.663 67.4333 381.563V381.263C67.4333 381.563 67.9331 386.562 66.3334 388.762C64.7337 390.862 60.7346 391.462 60.7346 391.462H45.8371C43.1376 391.462 41.3379 389.362 41.3379 386.962V385.063C41.3379 382.163 42.4378 379.164 44.2375 376.764C45.3373 375.464 46.9371 373.865 49.0367 371.965C49.0367 371.965 50.6363 366.066 59.9347 357.868C59.9347 357.868 61.0344 357.868 62.3341 357.868C63.6339 357.868 65.5336 357.868 67.1333 358.368C69.033 358.867 70.3327 359.967 70.3327 362.067L72.7324 363.167C72.7324 363.167 74.0322 365.266 74.0322 366.866C73.8323 366.966 77.0317 367.766 77.0317 380.264Z" fill="#DBD2D1"/>
<path d="M62.0346 357.568L50.3365 374.665C50.3365 374.665 44.4377 379.164 44.4377 384.763C44.4377 384.763 44.1376 385.063 43.3378 385.563C42.8378 386.063 42.0381 386.362 41.2383 386.662V384.763C41.2383 381.863 42.338 378.864 44.1377 376.464C45.2375 375.164 46.8372 373.565 48.9369 371.665C48.9369 371.665 50.5365 365.766 59.8348 357.568C59.6348 357.868 60.7348 357.568 62.0346 357.568Z" fill="#B2A4A3"/>
<path d="M136.221 385.063V386.962C136.221 389.362 134.621 391.262 132.522 391.462C132.222 391.462 132.022 391.462 131.722 391.462H116.824C116.824 391.462 112.825 391.162 111.226 388.762C109.626 386.662 110.126 381.563 110.126 381.263V381.563C109.626 382.663 108.526 383.463 107.226 383.163C102.927 382.663 100.528 380.264 100.528 380.264C100.528 367.766 103.727 366.966 103.727 366.966C103.727 365.366 105.027 363.267 105.027 363.267L107.426 362.167C107.426 360.267 108.726 359.267 110.326 358.468C111.925 357.968 113.825 357.668 115.125 357.668C116.725 357.668 117.824 357.668 117.824 357.668C127.123 365.966 128.722 371.765 128.722 371.765C130.822 373.365 132.222 374.965 133.522 376.564C135.121 378.964 136.221 381.863 136.221 385.063Z" fill="#DBD2D1"/>
<path d="M136.221 386.662C136.221 389.062 134.621 390.962 132.522 391.162C132.522 391.162 132.522 391.162 132.222 391.162H131.922H131.622H116.725C116.725 391.162 112.725 390.862 111.126 388.462C109.526 386.363 110.026 381.263 110.026 380.963V381.263C109.526 382.363 108.426 383.163 107.126 382.863C102.827 382.363 100.427 379.964 100.427 379.964C100.427 379.464 100.427 378.864 100.427 378.364C100.427 378.064 100.427 378.064 100.427 377.864C100.427 377.064 100.427 376.264 100.427 375.764C100.427 375.464 100.427 375.265 100.427 374.965C100.427 374.665 100.427 374.465 100.427 374.165C100.427 373.865 100.427 373.865 100.427 373.665C100.427 373.365 100.427 373.165 100.427 373.165C100.427 372.865 100.428 372.665 100.727 372.365C100.727 372.065 100.728 371.865 101.027 371.565C101.027 371.265 101.027 371.265 101.027 371.065V370.765V370.465C101.027 370.465 101.027 370.465 101.027 370.165V369.866V369.566C101.027 369.266 101.027 369.266 101.327 369.266C101.627 368.766 101.627 368.466 101.827 368.166C101.827 368.166 101.827 367.866 102.127 367.866L102.427 367.566C102.727 367.266 102.727 367.266 102.727 367.266C102.727 367.266 106.726 373.965 109.926 373.965C109.926 373.965 112.325 387.062 115.525 387.562C118.424 388.362 124.823 385.663 125.123 385.463V385.163C125.423 383.563 126.723 382.763 128.322 382.763H128.822C130.422 382.763 131.722 383.863 132.022 385.463C132.022 385.463 132.322 385.763 133.122 386.262C134.621 386.162 135.421 386.362 136.221 386.662Z" fill="#35052C"/>
<path d="M127.723 374.665H121.824L110.126 358.368C111.725 357.868 113.625 357.568 114.925 357.568L127.723 374.665Z" fill="#7F6C6B"/>
<path d="M77.0317 380.264C77.0317 380.264 75.4319 381.863 72.7324 382.663C71.9325 382.963 71.4325 383.163 70.3327 383.163C69.0329 383.463 67.9332 382.663 67.4333 381.563V381.263C67.4333 381.763 67.9331 386.562 66.3334 388.762C64.7337 390.862 60.7346 391.462 60.7346 391.462H45.8371C43.1376 391.462 41.3379 389.362 41.3379 386.962C42.1377 386.663 42.9377 386.163 43.4376 385.863C43.9375 385.363 44.5375 385.063 44.5375 385.063C44.8375 383.463 46.1372 382.363 47.7369 382.363H48.2368C49.8365 382.363 51.1362 383.463 51.4362 384.763V385.063C51.4362 385.063 57.8351 387.962 61.0346 387.162C64.234 386.363 66.6334 373.565 66.6334 373.565C69.5329 373.565 73.8321 366.866 73.8321 366.866C73.8321 366.866 74.932 367.166 75.7319 369.765C76.5317 371.965 77.0317 375.165 77.0317 380.264Z" fill="#35052C"/>
<path d="M66.8335 358.368L56.4354 374.665H50.3364L62.0345 357.568C63.6342 357.568 65.2338 357.868 66.8335 358.368Z" fill="#7F6C6B"/>
<path d="M72.5326 346.17V347.469V347.769V353.868V363.167L70.1329 362.067C70.1329 356.468 59.7349 357.768 59.7349 357.768L60.5348 353.768L61.8343 346.57L64.5341 346.27L72.5326 346.17Z" fill="#DB6D5E"/>
<path d="M72.5326 353.868V363.167L70.1329 362.067C70.1329 356.468 59.7349 357.768 59.7349 357.768L60.5348 353.768H72.5326V353.868Z" fill="#35052C"/>
<path d="M73.0324 347.47L72.5325 347.769L63.9339 352.269V353.868H60.4346L61.8342 346.67L64.4339 346.37L72.5325 347.47H73.0324Z" fill="#BC473B"/>
<path d="M70.1329 362.167C70.1329 356.568 59.7349 357.868 59.7349 357.868L60.5348 353.868H64.0341V354.968C63.9342 354.968 70.1329 357.068 70.1329 362.167Z" fill="#260121"/>
<path d="M123.123 196.796C121.824 197.596 121.224 211.494 121.224 211.494H122.024V213.893C122.024 213.893 128.422 216.293 131.322 214.693C134.221 213.094 137.421 196.796 137.421 196.796C137.421 196.796 124.523 195.997 123.123 196.796ZM127.423 201.896C128.223 202.196 128.722 206.995 127.423 209.594C127.123 210.094 126.623 210.694 126.123 210.894C126.123 206.395 126.623 201.596 127.423 201.896Z" fill="#DB6D5E"/>
<path d="M137.521 197.096C137.521 197.096 124.423 195.997 123.123 197.096C121.824 197.896 121.224 211.794 121.224 211.794H122.024V213.394C122.024 213.394 122.024 213.394 122.324 213.394C133.222 213.394 129.822 200.296 129.822 200.296L137.521 197.096ZM127.423 209.594C127.123 210.094 126.623 210.694 126.123 210.894C126.123 206.395 126.623 201.596 127.423 202.096C128.223 202.396 128.523 206.995 127.423 209.594Z" fill="#BC473B"/>
<path d="M117.525 357.868C117.525 357.868 107.126 356.568 107.126 362.167L104.727 363.267V353.968V346.27L107.426 346.57L115.425 346.87L115.925 349.269V349.569L116.725 354.068L117.525 357.868Z" fill="#DB6D5E"/>
<path d="M116.225 349.369L109.026 351.769V353.868H105.027L104.727 346.17H107.726L116.225 349.069L116.525 349.369H116.225Z" fill="#BC473B"/>
<path d="M83.8742 2.77907C85.032 2.71087 85.9362 2.07463 85.894 1.35788C85.8518 0.641128 84.8791 0.115316 83.7213 0.183515C82.5635 0.251715 81.659 0.888096 81.7012 1.60485C81.7434 2.3216 82.7163 2.84727 83.8742 2.77907Z" fill="#35052C"/>
<path d="M109.526 31.7261C109.226 29.8265 107.126 28.2268 103.427 27.2269C98.9277 25.9272 92.529 25.3274 85.0303 25.9272C81.331 26.2272 77.8315 26.7271 74.632 27.5269C71.9325 28.0268 69.533 29.1267 67.7334 29.9265C66.6336 30.4264 65.6336 31.0263 64.8337 31.5262C63.234 32.626 62.1343 33.9257 62.1343 35.2255C62.1343 34.1257 62.6341 30.9262 65.3337 24.3274C65.3337 24.0275 65.3337 24.0275 65.6336 23.8275V23.0277L65.3337 16.6289C65.0337 9.43016 70.4328 3.03135 77.6315 1.93155C79.2312 1.6316 81.1309 1.43164 82.9306 1.43164C83.4305 1.43164 84.0305 1.43164 84.5304 1.43164C86.1301 1.43164 87.7298 1.43164 89.0296 1.43164C95.9284 1.73159 101.527 6.73069 102.627 13.4295L103.727 20.1282V20.9281C103.727 20.9281 103.727 21.2281 104.027 21.4281C105.827 22.9278 110.126 29.3266 109.526 31.7261Z" fill="#DBD2D1"/>
<path d="M104.527 21.128C104.227 21.128 90.4294 15.829 80.5312 20.6281C77.0318 22.2278 75.432 24.9273 74.9321 27.3269C72.2326 27.8268 69.8331 28.9266 68.0334 29.7265C66.9336 30.2264 65.9336 30.8262 65.1338 31.3261C63.5341 32.4259 62.4343 33.7258 62.4343 35.0256C62.4343 33.9257 62.9342 30.7263 65.6337 24.1275C65.6337 23.8275 65.6338 23.8275 65.9337 23.6276V22.8277L65.6337 16.4289C65.3338 9.23021 70.7328 2.83128 77.9315 1.73148C79.5313 1.43153 81.431 1.23157 83.2306 1.23157C83.7306 1.23157 84.3303 1.23157 84.8302 1.23157C82.1307 4.13105 80.3311 8.93019 81.1309 17.2287C81.0309 17.3287 97.0282 14.9291 104.527 21.128Z" fill="#B2A4A3"/>
<path d="M50.3364 211.494C50.3364 211.494 49.8366 197.896 48.4369 196.796C47.1371 195.997 34.0396 201.296 34.0396 201.296C34.0396 201.296 37.2388 212.994 40.1383 214.593C43.0378 216.193 49.4367 213.793 49.4367 213.793V211.394H50.3364V211.494ZM44.4376 209.594C43.1378 206.895 43.6377 202.396 44.4376 201.896C45.2374 201.596 45.7374 206.195 45.7374 210.694C45.2375 210.694 44.7375 210.194 44.4376 209.594Z" fill="#BC473B"/>
<path d="M147.719 133.108C145.819 119.81 142.42 107.513 138.62 97.9143C138.62 97.6143 138.32 97.4144 138.32 97.4144V97.1144C135.621 89.9157 133.021 83.8168 130.822 79.5176C128.122 73.9186 123.623 69.6193 118.324 66.7198L101.227 57.6215V51.5226C101.227 53.1223 99.1275 54.422 95.3282 55.2219C92.9286 55.7218 89.7294 56.3216 86.23 56.3216C85.1302 56.3216 83.8304 56.3216 82.7306 56.3216C81.6308 56.3216 80.6308 56.0218 79.831 56.0218C78.7312 55.7218 77.7315 55.7218 76.9316 55.5219C73.4322 54.722 71.3325 53.4222 71.3325 51.8225V56.3216V59.5211L57.4351 65.4201C51.5362 67.8197 46.537 72.3189 43.3375 77.9179C40.638 82.4171 37.7385 88.316 34.8391 95.5147C34.8391 95.8146 34.8393 95.8146 34.5393 96.0146C34.5393 96.0146 34.5393 96.3145 34.2393 96.3145C29.7401 107.213 25.7407 121.11 23.841 137.107C19.3418 178.7 32.3395 191.797 32.3395 191.797L32.8394 202.695L48.3366 198.396V205.095H122.723V197.896H138.221V192.797C138.321 192.297 153.018 169.601 147.719 133.108ZM48.7367 195.197L44.7374 187.198H48.7367V195.197Z" fill="#DBD2D1"/>
<path d="M124.223 197.596H123.123V204.795H48.7368V187.198H123.123L124.223 197.596Z" fill="#DBD2D1"/>
<path d="M138.321 192.297L132.722 191.797C129.022 191.797 116.425 79.3176 116.425 79.3176L115.925 173.401C115.925 177.9 111.925 181.699 107.426 181.099L66.3335 177.4C59.9347 176.9 55.1356 171.301 55.6355 164.902C56.1354 153.204 57.2351 132.908 58.3349 106.513C60.2346 63.6205 77.0318 61.4209 77.0318 61.4209C94.6286 63.3206 101.027 57.1216 101.327 57.1216C92.2289 62.2207 85.6302 57.9214 83.2306 55.8218C82.1308 55.8218 81.1308 55.522 80.331 55.522C79.2312 55.222 78.2315 55.222 77.4316 55.022C73.9322 54.2222 71.8325 52.9223 71.8325 51.3226V55.8218V59.0213L57.9351 64.9203C52.0362 67.3199 47.037 71.8191 43.8375 77.418C41.138 81.9172 38.2385 87.8162 35.3391 95.0149C35.3391 95.3148 35.3393 95.3148 35.0393 95.5148C35.0393 95.5148 35.0393 95.8147 34.7393 95.8147C30.2401 106.713 26.2407 120.61 24.341 136.607C19.8418 178.2 32.8395 191.298 32.8395 191.298L33.3394 202.196L48.8366 197.896V204.595H123.223L69.333 199.796C68.2332 199.796 67.2335 198.696 67.2335 197.696C67.2335 196.597 68.0332 195.597 69.1331 195.597L108.826 191.298C114.425 190.798 119.724 193.197 122.923 197.696H138.421L136.821 197.196C134.921 196.697 134.721 193.997 136.521 193.197L138.321 192.297ZM48.7368 195.197L44.7375 187.198H48.7368V195.197Z" fill="#B2A4A3"/>
<path d="M58.8349 361.367C63.1341 360.067 66.0336 360.867 66.8334 361.367C67.1334 361.367 67.3333 361.367 67.3333 361.067C67.3333 360.767 67.3335 360.567 67.0336 360.567C65.9338 360.067 62.7343 359.267 58.5351 360.567C58.2352 360.567 58.2351 360.867 58.2351 361.067C58.3351 361.367 58.6349 361.367 58.8349 361.367Z" fill="#35052C"/>
<path d="M57.0353 363.767C61.3345 362.467 64.234 363.267 65.0339 363.767C65.3338 363.767 65.5338 363.767 65.5338 363.467C65.5338 363.167 65.5337 362.967 65.2338 362.967C64.134 362.467 60.9345 361.667 56.7353 362.967C56.4354 362.967 56.4353 363.267 56.4353 363.467C56.7352 363.767 57.0353 363.767 57.0353 363.767Z" fill="#35052C"/>
<path d="M55.4354 366.166C59.7347 364.866 62.6341 365.666 63.434 366.166C63.734 366.166 63.9339 366.166 63.9339 365.866C63.9339 365.566 63.9339 365.366 63.6339 365.366C62.5341 364.866 59.3347 364.067 55.1354 365.366C54.8355 365.366 54.8354 365.666 54.8354 365.866C54.8354 366.166 55.1355 366.366 55.4354 366.166Z" fill="#35052C"/>
<path d="M53.5358 368.766C57.835 367.466 60.7345 368.266 61.5343 368.766C61.8343 368.766 62.0343 368.766 62.0343 368.466C62.0343 368.166 62.0342 367.966 61.7343 367.966C60.6345 367.466 57.435 366.666 53.2358 367.966C52.9358 367.966 52.9358 368.266 52.9358 368.466C53.0358 368.566 53.2358 368.766 53.5358 368.766Z" fill="#35052C"/>
<path d="M51.9362 371.165C56.2354 369.866 59.1349 370.665 59.9347 371.165C60.2347 371.165 60.4346 371.165 60.4346 370.865C60.4346 370.565 60.4346 370.366 60.1347 370.366C59.0348 369.866 55.8354 369.066 51.6362 370.366C51.3362 370.366 51.3362 370.665 51.3362 370.865C51.4362 371.165 51.6362 371.165 51.9362 371.165Z" fill="#35052C"/>
<path d="M50.0365 373.565C54.3357 372.265 57.2352 373.065 58.0351 373.565C58.335 373.565 58.535 373.565 58.535 373.265C58.535 372.965 58.5349 372.765 58.235 372.765C57.1352 372.265 53.9358 371.465 49.7365 372.765C49.4366 372.765 49.4365 373.065 49.4365 373.265C49.5365 373.565 49.8365 373.565 50.0365 373.565Z" fill="#35052C"/>
<path d="M117.525 357.868C117.525 357.868 107.126 356.568 107.126 362.167L104.727 363.267V353.968H116.725L117.525 357.868Z" fill="#35052C"/>
<path d="M118.624 361.367C114.325 360.067 111.425 360.867 110.626 361.367C110.326 361.367 110.126 361.367 110.126 361.067C110.126 360.767 110.126 360.567 110.426 360.567C111.526 360.067 114.725 359.267 118.924 360.567C119.224 360.567 119.224 360.867 119.224 361.067C118.924 361.367 118.924 361.367 118.624 361.367Z" fill="#35052C"/>
<path d="M120.224 363.767C115.925 362.467 113.025 363.267 112.225 363.767C111.925 363.767 111.725 363.767 111.725 363.467C111.725 363.167 111.725 362.967 112.025 362.967C113.125 362.467 116.325 361.667 120.524 362.967C120.824 362.967 120.824 363.267 120.824 363.467C120.724 363.767 120.524 363.767 120.224 363.767Z" fill="#35052C"/>
<path d="M122.123 366.166C117.824 364.866 114.925 365.666 114.125 366.166C113.825 366.166 113.625 366.166 113.625 365.866C113.625 365.566 113.625 365.366 113.925 365.366C115.025 364.866 118.224 364.067 122.423 365.366C122.723 365.366 122.723 365.666 122.723 365.866C122.623 366.166 122.323 366.366 122.123 366.166Z" fill="#35052C"/>
<path d="M123.923 368.766C119.624 367.466 116.725 368.266 115.925 368.766C115.625 368.766 115.425 368.766 115.425 368.466C115.425 368.166 115.425 367.966 115.725 367.966C116.825 367.466 120.024 366.666 124.223 367.966C124.523 367.966 124.523 368.266 124.523 368.466C124.223 368.566 123.923 368.766 123.923 368.766Z" fill="#35052C"/>
<path d="M125.523 371.165C121.224 369.866 118.324 370.665 117.525 371.165C117.225 371.165 117.025 371.165 117.025 370.865C117.025 370.565 117.024 370.366 117.324 370.366C118.424 369.866 121.624 369.066 125.823 370.366C126.123 370.366 126.123 370.665 126.123 370.865C126.123 371.165 125.823 371.165 125.523 371.165Z" fill="#35052C"/>
<path d="M127.423 373.565C123.123 372.265 120.224 373.065 119.424 373.565C119.124 373.565 118.924 373.565 118.924 373.265C118.924 372.965 118.924 372.765 119.224 372.765C120.324 372.265 123.523 371.465 127.723 372.765C128.022 372.765 128.023 373.065 128.023 373.265C127.923 373.565 127.722 373.565 127.423 373.565Z" fill="#35052C"/>
<path d="M99.4277 38.9249C95.7284 40.0247 91.4291 40.8245 86.6299 41.3244C81.8308 41.6243 77.3316 41.6244 73.3323 41.0245C66.9334 40.2246 62.6343 38.125 62.4343 35.4255C62.4343 35.4255 62.4343 35.4255 62.4343 35.1255V34.8255C62.7343 32.9259 64.834 31.1263 68.0334 29.5266C72.3326 27.6269 78.4314 26.0272 85.3301 25.5273C92.5288 25.0274 99.2278 25.5272 103.727 26.827C107.426 27.9268 109.626 29.5265 109.826 31.3262C109.826 34.4256 105.827 37.1252 99.4277 38.9249Z" fill="#7F6C6B"/>
<path d="M101.327 57.4215V51.3225C101.327 49.7228 99.2277 48.4231 95.4284 47.6232C93.0288 47.1233 89.8293 46.5235 86.3299 46.5235C82.8306 46.5235 79.6313 46.8234 77.0318 47.6232C73.5324 48.4231 71.4327 49.7228 71.4327 51.3225V55.8217C69.533 55.8217 62.9343 53.7222 65.034 31.5261C65.8338 31.0262 66.9335 30.4264 67.9333 29.9265C72.2326 28.0268 78.3315 26.4271 85.2303 25.9272C92.429 25.4273 99.1277 25.9271 103.627 27.2269C103.727 26.9269 118.624 44.0239 101.327 57.4215Z" fill="#260121"/>
<path d="M101.327 51.2226C101.327 52.8224 99.2276 54.1222 95.4283 54.9221C93.0287 55.422 89.8292 56.0218 86.3298 56.0218C82.8305 56.0218 79.6312 55.7219 77.0317 54.9221C73.5323 54.1222 71.4326 52.8224 71.4326 51.2226C71.4326 49.6229 73.5323 48.3232 77.0317 47.5234C79.7312 47.0235 82.9305 46.4236 86.3298 46.4236C89.8292 46.4236 93.0287 46.7235 95.4283 47.5234C98.9277 48.3232 101.327 49.9229 101.327 51.2226Z" fill="#7F6C6B"/>
<path d="M103.727 29.6265C103.227 35.2255 100.028 34.1257 100.028 34.1257C100.028 36.0254 99.7278 37.6251 99.5278 39.2248C98.428 44.8238 95.5285 46.1236 95.5285 46.1236V55.2219C93.129 55.7218 89.9294 56.3217 86.4301 56.3217C82.9307 56.3217 79.7312 56.0218 77.1317 55.2219V46.9235C77.1317 46.9235 75.0321 45.8236 73.4324 41.0245C72.9325 39.7247 72.3325 38.125 72.1326 35.9254C72.1326 35.9254 68.9332 38.025 68.1333 29.5266C72.4325 27.6269 78.5315 26.0272 85.4302 25.5273C92.629 25.0274 99.3277 25.5272 103.827 26.827C103.727 28.0268 103.727 28.8267 103.727 29.6265Z" fill="#DB6D5E"/>
<path d="M89.8294 12.8295L81.3309 13.3295C80.831 13.3295 80.5312 13.0296 80.5312 12.5297C80.5312 12.0298 80.831 11.7298 81.3309 11.7298L89.8294 11.2299C90.3293 11.2299 90.6293 11.5299 90.6293 12.0298C90.6293 12.3297 90.3293 12.8295 89.8294 12.8295Z" fill="#BC473B"/>
<path d="M92.229 14.9292L79.4313 15.7289C78.9313 15.7289 78.6313 15.4291 78.6313 14.9292C78.6313 14.4292 78.9313 14.1293 79.4313 14.1293L92.229 13.3293C92.7289 13.3293 93.0289 13.6293 93.0289 14.1293C93.0289 14.7291 92.7289 14.9292 92.229 14.9292Z" fill="#BC473B"/>
<path d="M103.727 29.6264C100.228 29.3265 83.4306 28.8266 75.4321 34.9255C75.4321 34.9255 75.4321 54.622 95.7285 46.1235C95.7285 46.4234 92.529 50.4228 82.1308 50.4228C82.1308 50.4228 80.8312 57.3215 95.7285 54.922C93.3289 55.4219 90.1294 56.0217 86.63 56.0217C83.1306 56.0217 79.9312 55.7218 77.3316 54.922V46.6234C77.3316 46.6234 75.2321 45.5236 73.6323 40.7244C73.1324 39.4247 72.5325 37.825 72.3325 35.6254C72.3325 35.6254 69.1331 37.725 68.3333 29.2265C72.6325 27.3268 78.7314 25.7271 85.6302 25.2272C92.8289 24.7273 99.5278 25.2273 104.027 26.527C103.727 28.0268 103.727 28.8266 103.727 29.6264Z" fill="#BC473B"/>
<path d="M104.527 21.1281C93.3287 15.8291 83.4303 16.8289 76.8315 18.7285C70.9325 20.3283 66.9333 23.0278 65.6335 24.0276C65.6335 23.7277 65.6336 23.7277 65.9335 23.5277V22.7278C67.8332 21.4281 71.5324 19.2285 76.8315 17.6288C83.5303 15.7291 93.3285 14.4293 104.327 19.7284V20.5283C104.227 20.8282 104.527 20.8282 104.527 21.1281Z" fill="#260121"/>
<path d="M81.031 67.0199H91.129L86.1299 75.2184L81.031 67.0199Z" fill="#DB6D5E"/>
<path d="M32.7397 191.198C32.7397 191.198 19.6421 178.1 24.2412 136.507C26.1409 120.51 30.1401 106.613 34.6393 95.7147C34.6393 95.7147 34.6393 95.4148 34.9393 95.4148L35.4392 95.7147C38.1387 97.3144 39.1385 100.514 38.1387 103.213C25.8409 135.508 33.6395 168.002 38.1387 181.899C38.8385 185.899 36.739 190.198 32.7397 191.198Z" fill="#BC473B"/>
<path d="M52.2361 105.413L50.9363 126.209C50.9363 126.209 69.8328 108.312 118.624 108.312L117.025 88.3159C76.7317 88.8158 57.2352 101.614 52.2361 105.413Z" fill="#35052C"/>
<path d="M138.321 192.297C135.621 191.997 133.821 189.398 134.621 186.698C139.12 173.901 149.019 139.807 136.221 104.313C135.421 101.614 136.221 99.0141 138.321 97.4144C138.321 97.7144 138.621 97.9143 138.621 97.9143C142.12 107.813 145.519 119.81 147.719 133.108C153.018 169.601 138.321 192.297 138.321 192.297Z" fill="#35052C"/>
<path d="M123.423 286.98C112.725 293.679 99.9276 294.979 93.0289 295.279C92.7289 291.779 92.5288 288.58 91.929 285.181C98.8277 285.181 114.625 283.881 123.423 273.983C123.423 278.182 123.423 282.681 123.423 286.98Z" fill="#DBD2D1"/>
<path d="M138.321 192.297L130.022 191.197C127.623 190.898 126.023 189.098 125.723 186.698L116.425 79.5176L122.024 181.099C122.324 183.999 119.924 186.398 116.924 186.198L60.1346 183.799C53.7357 183.499 48.9367 178.2 49.2366 172.101L53.7358 81.4173L44.1375 187.298H48.1367H122.024L122.524 197.696H126.523L126.223 193.697L138.321 192.297Z" fill="#7F6C6B"/>
<path d="M117.525 357.868C117.525 357.868 107.126 356.568 107.126 362.167L104.727 363.267V353.968H108.726V356.668C109.026 356.768 114.125 356.568 117.525 357.868Z" fill="#260121"/>
<path d="M125.823 385.063C125.523 385.363 119.124 387.762 116.225 387.162C113.025 386.363 110.626 373.565 110.626 373.565C107.726 373.565 103.427 366.866 103.427 366.866C103.427 365.266 104.727 363.167 104.727 363.167L107.126 362.067L118.824 377.264C118.924 377.364 117.524 387.762 125.823 385.063Z" fill="#B2A4A3"/>
<path d="M132.222 391.262C131.922 391.262 131.722 391.262 131.722 391.262H131.422H116.525C116.525 391.262 112.525 390.962 110.926 388.562C109.326 386.462 109.826 381.363 109.826 381.063V381.363C109.326 382.463 108.226 383.263 106.926 382.963C102.627 382.463 100.228 380.064 100.228 380.064C100.228 379.564 100.228 378.964 100.228 378.464C100.228 378.164 100.228 378.164 100.228 377.964C100.228 377.164 100.228 376.364 100.228 375.864C100.228 375.564 100.228 375.364 100.228 375.065C100.228 374.765 100.228 374.565 100.228 374.265C100.228 373.965 100.228 373.965 100.228 373.765C100.228 373.465 100.228 373.265 100.228 373.265C100.228 372.965 100.228 372.765 100.528 372.465C100.528 372.165 100.527 371.965 100.827 371.665C100.827 371.365 100.827 371.365 100.827 371.165V370.865V370.565C100.827 370.565 100.827 370.565 100.827 370.265V369.965V369.665C100.827 369.366 100.827 369.366 101.127 369.366C101.427 368.866 101.427 368.566 101.627 368.266C101.627 368.266 101.627 367.966 101.927 367.966L102.227 367.666C102.527 367.366 102.527 367.366 102.527 367.366C102.527 367.366 106.526 374.065 109.726 374.065C109.726 374.065 112.125 387.162 115.325 387.662C118.224 388.462 124.623 385.763 124.923 385.563C125.823 385.363 126.123 390.662 132.222 391.262Z" fill="#260121"/>
<path d="M60.7346 391.262H45.8371C43.1376 391.262 41.3379 389.162 41.3379 386.762C42.1377 386.462 42.9377 385.963 43.4376 385.663C43.9375 385.163 44.5375 384.863 44.5375 384.863C44.4375 390.462 60.7346 391.262 60.7346 391.262Z" fill="#260121"/>
<path d="M72.7327 382.663C71.9328 382.963 71.4327 383.163 70.3329 383.163C69.0332 383.463 67.9335 382.663 67.4336 381.563V381.263L66.9337 373.565C66.8337 373.565 68.2335 380.764 72.7327 382.663Z" fill="#260121"/>
</svg>
