<svg width="347" height="401" viewBox="0 0 347 401" fill="none" xmlns="http://www.w3.org/2000/svg">
<path d="M167.646 400.056C215.959 400.056 255.124 394.551 255.124 387.759C255.124 380.968 215.959 375.463 167.646 375.463C119.333 375.463 80.168 380.968 80.168 387.759C80.168 394.551 119.333 400.056 167.646 400.056Z" fill="#B2A4A3"/>
<path d="M31.6801 335.173C19.983 344.77 16.7836 358.067 15.9838 365.065C15.6839 367.764 13.5845 369.564 10.8852 369.864H8.78564C-6.71048 359.767 3.98679 302.381 3.98679 302.381L12.4847 304.78L14.0844 305.28C19.383 305.78 23.682 306.58 26.3813 307.38C26.6813 307.38 26.6813 307.38 26.8812 307.68C28.1809 308.179 28.9806 309.279 29.2805 310.579L32.7796 329.274C34.0793 331.174 33.4796 333.873 31.6801 335.173Z" fill="#FE9329"/>
<path d="M48.176 320.276C39.3782 324.275 32.6798 329.374 32.6798 329.374C21.7826 324.875 21.7824 314.178 25.4814 313.078C29.1805 311.978 29.1807 310.679 29.1807 310.679L40.3779 306.18L48.176 320.276Z" fill="#EF5472"/>
<path d="M10.7851 369.864H8.68579C-6.81034 359.767 3.88694 302.381 3.88694 302.381L12.3848 304.78C9.98542 314.378 -0.112158 356.567 10.7851 369.864Z" fill="#04044C"/>
<path d="M23.0821 323.176C23.0821 323.176 20.9827 321.276 20.1829 316.777C19.683 314.378 16.1838 313.878 14.8842 315.977C13.2846 318.677 11.385 322.676 9.58545 329.074C9.58545 329.074 11.485 315.178 14.0843 305.38C19.383 305.88 23.682 306.68 26.3813 307.48C26.6812 307.48 26.6812 307.48 26.8812 307.78C26.8812 308.079 26.8812 308.079 26.8812 308.279C26.5813 309.879 25.7813 311.479 24.4816 312.278C22.2822 313.078 20.1828 316.277 23.0821 323.176Z" fill="#04044C"/>
<path d="M31.6801 338.672C25.7816 338.372 22.5822 333.873 21.7824 331.973C21.4825 331.673 21.7825 331.174 22.0824 331.174C22.3823 330.874 22.5823 331.174 22.8822 331.474C23.682 332.773 26.5812 337.072 31.9798 337.372C32.2798 337.372 32.4797 337.672 32.4797 337.872C32.1798 338.372 31.88 338.672 31.6801 338.672Z" fill="#04044C"/>
<path d="M29.2807 342.371C23.3822 342.071 20.1831 337.572 19.1834 335.972C18.8834 335.673 19.1832 335.173 19.4831 335.173C19.783 334.873 19.983 335.173 20.2829 335.473C21.0827 336.772 23.9821 340.771 29.3808 341.371C29.6807 341.371 29.8806 341.671 29.8806 341.871C30.0806 342.171 29.4806 342.371 29.2807 342.371Z" fill="#04044C"/>
<path d="M26.7812 346.17C20.8826 345.87 17.6836 341.371 16.6838 339.771C16.3839 339.472 16.6836 338.972 16.9836 338.972C17.2835 338.672 17.4835 338.972 17.7834 339.272C18.5832 340.571 21.4826 344.57 26.8812 345.17C27.1812 345.17 27.3811 345.47 27.3811 345.67C27.681 345.87 27.381 346.17 26.7812 346.17Z" fill="#04044C"/>
<path d="M24.382 349.869C18.4835 349.569 15.2841 345.07 14.4843 343.471C14.1844 343.171 14.4844 342.671 14.7843 342.671C15.0842 342.371 15.2842 342.671 15.5842 342.971C16.384 344.27 19.2833 348.269 24.382 348.869C24.6819 348.869 24.8819 349.169 24.8819 349.369C25.1818 349.569 24.9819 349.869 24.382 349.869Z" fill="#04044C"/>
<path d="M257.024 7.55452C257.024 7.55452 247.126 8.65425 241.828 0.0563965C241.828 0.0563965 249.826 6.75476 258.623 6.15491L257.024 7.55452Z" fill="#04044C"/>
<path d="M290.715 36.9472C290.715 37.1472 290.715 37.1472 290.715 36.9472C289.415 51.0437 286.416 63.3406 281.118 69.2391C280.618 69.739 280.318 70.3388 279.818 70.5388C278.718 71.6385 277.419 72.4383 276.119 72.9382C275.619 73.2381 274.819 73.2381 274.219 73.4381C272.92 73.738 271.32 73.4381 269.92 73.1382C263.522 71.5386 258.423 65.1402 258.423 65.1402L252.525 70.4388L252.025 69.939L242.127 61.1412L236.229 55.8425L244.227 52.1434L255.424 46.8448C255.424 46.8448 251.925 38.5468 258.623 36.4473C259.423 36.1474 260.223 36.1474 260.723 36.1474C265.222 36.1474 267.421 42.046 267.621 42.8458C272.92 36.4474 281.717 34.0479 289.715 36.9472H290.715V36.9472Z" fill="#FF8A9C"/>
<path d="M273.82 73.4381C272.52 73.738 270.92 73.4381 269.521 73.1382C263.122 71.5386 258.024 65.1402 258.024 65.1402C254.824 61.4411 255.324 56.8422 255.324 56.6423L251.625 69.9389L241.728 61.1412L235.829 55.8425L243.827 52.1434L255.024 46.8447C254.724 46.0449 251.825 38.5468 258.223 36.4473C259.023 36.1474 259.823 36.1474 260.323 36.1474C264.822 36.1474 267.021 42.0459 267.221 42.8457C262.722 49.744 259.723 55.1426 261.123 62.0409C263.422 70.5388 270.92 72.6383 273.82 73.4381Z" fill="#EF5472"/>
<path d="M346.201 77.737C344.902 87.0347 339.803 102.231 333.904 106.53C333.904 106.53 314.209 141.521 301.912 153.718C299.813 155.618 298.214 157.217 296.614 157.717C293.415 158.817 289.416 157.417 285.117 154.818C279.018 150.819 272.32 143.621 267.221 137.522C263.222 132.723 260.323 128.724 258.923 126.825C258.423 126.325 258.124 125.725 258.124 125.725L278.618 115.828L288.516 128.124C291.215 131.324 295.714 131.824 298.913 129.224C305.811 123.926 317.009 113.728 322.607 102.031C322.607 102.031 318.108 95.9325 321.008 88.1344C323.907 80.1364 323.907 73.738 325.807 73.2381C327.406 72.7383 328.706 75.9375 327.906 80.9362C327.606 82.036 327.406 83.3356 326.806 84.6353C326.806 84.6353 328.706 84.9352 331.105 78.7368C333.205 72.6383 335.604 62.2409 339.103 61.941C340.703 61.6411 342.802 63.2406 344.402 66.2399C345.901 68.6393 346.701 72.9382 346.201 77.737Z" fill="#FF8A9C"/>
<path d="M278.718 115.927L267.221 137.822C263.222 133.023 260.323 129.024 258.923 127.125L278.718 115.927Z" fill="#EF5472"/>
<path d="M290.715 37.1471L289.915 36.6473C288.616 36.1474 287.216 35.8474 285.916 35.5475C279.218 34.7477 272.32 37.1471 267.821 42.4458C267.821 42.4458 265.722 35.5475 260.623 35.5475C259.823 35.5475 259.323 35.5476 258.523 35.8475C251.825 38.2469 255.324 46.2448 255.324 46.2448L244.127 51.5435C243.327 50.7437 242.027 49.9439 240.428 49.4441C234.029 47.3446 231.93 40.9462 234.329 34.7477C235.129 32.6482 236.729 30.4488 238.628 28.6493C238.628 28.6493 237.528 26.5498 237.029 23.5505C236.529 19.5515 237.029 13.653 242.927 8.85422C246.126 6.45482 251.225 4.85522 256.824 4.35535C270.42 3.25562 287.216 8.85418 288.616 24.0504C288.616 24.0504 289.116 11.5535 280.618 5.95492C284.017 8.95417 300.313 20.1514 290.715 37.1471Z" fill="#181461"/>
<path d="M280.318 6.55487C280.018 6.55487 280.018 6.25488 279.818 6.25488C280.018 6.55488 280.018 6.55487 280.318 6.55487Z" fill="#601212"/>
<path d="M240.528 35.0476C240.528 35.0476 237.829 35.5475 234.13 35.3476C229.831 35.0477 224.032 33.4481 219.233 28.1494C219.233 28.1494 229.131 33.2481 238.428 28.9492C238.428 28.9492 234.429 26.0499 232.53 18.2518C232.53 18.2518 234.429 21.1511 236.829 23.5505C238.728 25.45 241.128 27.2496 243.227 26.7497C248.026 26.5498 240.528 35.0476 240.528 35.0476Z" fill="#601212"/>
<path d="M139.953 131.624C139.953 131.624 123.157 146.52 203.737 150.519C203.737 150.519 216.034 128.924 200.038 123.526C183.942 118.027 139.953 131.624 139.953 131.624Z" fill="#04044C"/>
<path d="M278.718 115.927L255.524 135.622L254.424 133.723L245.327 119.626C245.027 120.126 240.828 130.024 228.031 139.122C221.933 143.421 214.135 147.62 204.037 150.319C203.737 149.819 194.439 135.623 164.847 131.923H164.547C157.849 131.124 150.151 130.824 141.053 131.424C140.753 131.424 140.553 131.424 140.253 131.424C140.253 131.424 140.553 131.424 141.053 131.124C142.652 130.324 146.651 128.724 151.75 125.825C164.047 118.627 182.742 105.03 189.94 85.0352C183.542 83.4356 176.844 82.6358 170.245 82.6358C167.346 82.6358 164.347 82.9357 161.748 83.1357L160.448 83.4356H159.948L155.949 63.7405L155.449 61.3411L153.85 53.843C153.85 53.843 200.838 49.844 229.631 57.3421L236.529 53.843L254.624 71.1387L250.126 78.0369L278.718 115.927Z" fill="#FE9329"/>
<path d="M278.718 115.927L255.524 135.622L254.424 133.723L245.327 119.626C248.526 111.329 249.826 102.531 250.126 95.3326C250.425 89.734 250.126 85.2351 250.126 82.0359C249.826 79.6365 249.826 78.0369 249.626 77.737L278.718 115.927Z" fill="#E06A00"/>
<path d="M250.125 95.3327C249.625 102.531 248.526 111.329 245.327 119.627C245.027 120.126 240.828 130.024 228.031 139.122C222.932 133.223 222.132 122.626 226.731 112.128C231.73 100.731 241.627 93.7331 250.125 95.3327Z" fill="#FFFDF8"/>
<path d="M203.437 149.519C203.437 149.819 203.737 150.019 203.737 150.319C203.437 149.819 194.139 135.623 164.547 131.923H164.247C157.549 131.124 149.85 130.824 140.753 131.424C140.453 131.424 140.253 131.424 139.953 131.424C139.953 131.424 140.253 131.424 140.453 131.124C142.052 130.324 146.052 128.724 151.15 125.825C163.447 118.627 182.142 105.03 189.341 85.0352C182.942 83.4356 176.244 82.6358 169.646 82.6358C166.746 82.6358 163.747 82.9357 161.148 83.1357L159.848 83.4356H159.348L154.849 61.3411L153.25 53.843L171.945 77.837C171.945 77.837 195.639 79.4366 210.935 88.2344C210.935 88.2344 193.04 119.427 168.546 129.024C168.546 129.024 173.845 130.124 180.843 132.723C189.041 135.323 199.938 140.921 203.437 149.519Z" fill="#E06A00"/>
<path d="M238.428 63.8405L249.326 77.737L235.229 65.2401C200.838 54.5428 157.549 65.2401 157.549 65.2401L154.849 63.3406L154.349 60.9412L152.75 53.4431C152.75 53.4431 199.738 49.4441 228.531 56.9422L235.429 53.4431L253.525 70.7388L238.428 63.8405Z" fill="#E06A00"/>
<path d="M301.912 153.818C299.813 155.718 298.213 157.317 296.614 157.817C293.415 158.917 289.416 157.517 285.117 154.918C287.516 152.818 290.715 151.419 293.914 151.419C297.114 151.419 299.713 152.418 301.912 153.818Z" fill="#EF5472"/>
<path d="M267.421 42.5458C266.921 42.0459 263.722 38.0469 259.123 39.3466C254.024 40.9462 254.824 46.8447 254.824 46.8447C254.524 46.0449 251.625 38.5468 258.023 36.4473C258.823 36.1474 259.623 36.1474 260.123 36.1474C265.022 35.8475 267.221 41.746 267.421 42.5458Z" fill="#F47356"/>
<path d="M281.118 31.3486C279.018 28.4494 277.918 24.4503 277.918 20.1514C277.619 10.8537 264.822 8.9542 264.822 8.9542C272.32 11.8535 272.32 15.8525 272.32 15.8525C260.623 16.3524 256.324 9.45408 256.824 4.9552C251.225 5.45508 245.926 7.05468 242.927 9.45408C236.829 14.2529 236.229 20.1514 237.029 24.1504C234.629 21.751 232.73 18.8518 232.73 18.8518C234.629 26.5498 238.629 29.549 238.629 29.549C229.331 33.848 219.433 28.7492 219.433 28.7492C224.532 33.848 230.131 35.4476 234.33 35.9475C231.93 42.0459 234.029 48.2444 240.428 50.6438C242.027 51.1437 243.327 51.9434 244.127 52.7432L255.324 47.4446C255.324 47.4446 251.825 39.1466 258.523 37.0472C259.323 36.7472 260.123 36.7472 260.623 36.7472C265.722 36.7472 267.821 43.6455 267.821 43.6455H267.521C267.721 43.6455 272.52 34.5478 281.118 31.3486ZM255.424 16.1524C255.424 16.1524 259.123 22.2509 269.021 22.8508C269.021 22.7508 259.223 27.8495 255.424 16.1524Z" fill="#04044C"/>
<path d="M284.517 191.409C284.517 194.608 282.617 198.107 279.418 201.506C261.822 219.901 204.437 236.997 204.437 236.997L203.937 235.897L195.939 221.801L193.24 216.702C193.24 216.702 195.339 211.104 202.537 211.604C210.035 212.103 205.237 206.005 215.334 203.106C225.432 200.206 231.33 197.007 231.33 197.007C231.33 197.007 207.336 199.107 181.443 195.108V195.408C181.443 195.708 181.143 195.708 181.143 195.907C181.143 196.207 180.843 196.407 180.643 197.007C180.343 197.307 180.343 197.507 180.143 198.107C179.843 198.407 179.843 198.907 179.643 199.207C179.643 199.207 179.643 199.507 179.343 199.507C179.043 200.006 178.843 200.606 178.543 201.106C178.243 201.406 178.243 201.606 178.043 202.206C177.744 202.706 177.544 203.306 177.244 203.506C177.244 203.805 176.944 203.805 176.944 204.005C176.944 204.205 176.644 204.305 176.644 204.505C176.344 204.805 176.344 205.305 176.144 205.605C175.844 206.405 175.344 207.205 175.044 208.004C174.744 208.504 174.544 208.804 174.544 209.304C174.544 209.604 174.244 209.804 174.244 209.804C173.445 211.404 172.645 212.703 171.545 214.303C171.245 214.803 171.045 215.103 170.745 215.603C170.245 216.702 169.646 217.502 169.146 218.502C168.846 218.802 168.846 219.002 168.646 219.602C168.346 219.901 168.146 220.401 167.846 220.701C167.346 221.501 166.746 222.301 166.246 223.101C165.946 223.601 165.747 224.2 165.147 224.7C164.847 225.2 164.647 225.8 164.047 226.3C163.247 227.4 162.747 228.399 161.947 229.499C161.647 229.999 161.148 230.599 160.848 231.099L160.548 231.399C160.048 232.498 159.248 233.498 158.448 234.298C158.148 234.798 157.649 235.398 157.349 235.897C156.549 236.997 155.749 238.297 154.949 239.397C154.449 239.896 154.15 240.496 153.65 241.296C152.85 242.396 152.05 243.396 151.25 244.495C150.75 245.295 150.151 245.795 149.651 246.595C149.151 247.095 148.851 247.695 148.351 248.494C147.851 248.994 147.551 249.594 147.051 250.094C146.551 250.594 146.251 251.194 145.751 251.694C145.452 251.994 145.452 252.193 145.252 252.193C144.452 252.993 143.952 254.093 143.152 254.893C143.152 255.193 142.852 255.193 142.852 255.393C142.352 255.892 142.052 256.492 141.553 256.992C141.053 257.492 140.453 258.092 139.953 258.892C139.453 259.392 139.153 259.991 138.653 260.491C138.653 260.491 138.653 260.791 138.353 260.791C137.254 261.891 136.254 263.191 135.154 264.29C134.654 264.79 134.054 265.39 133.555 265.89C133.055 266.39 132.455 266.99 131.955 267.49C131.455 267.989 130.855 268.589 130.355 269.089C129.256 270.189 128.256 271.189 126.856 272.288C125.757 273.388 124.757 274.388 123.357 275.488C123.057 275.787 122.557 275.987 122.257 276.287C121.957 276.587 121.758 276.787 121.158 277.087C120.658 277.587 120.058 277.887 119.558 278.387C119.058 278.887 118.258 279.487 117.659 279.986C77.8686 311.479 47.776 324.775 47.776 324.775L41.8775 317.877L29.3806 303.181C19.4831 291.684 64.0718 282.686 62.9721 276.987C61.8724 271.389 68.5707 262.591 86.4662 255.093C104.362 247.595 90.4653 239.097 107.761 224.9C108.261 224.4 108.861 224.1 109.361 223.601C109.661 223.301 109.861 223.101 110.161 222.801C111.26 221.701 112.26 220.701 113.36 219.602C114.159 218.802 114.959 218.002 115.759 217.202C116.559 216.402 117.359 215.603 117.859 214.503C118.158 214.203 118.358 214.003 118.658 213.703C120.258 211.804 121.557 210.004 122.957 208.104C123.457 207.604 123.757 207.005 124.257 206.205C125.357 204.605 126.356 203.006 127.456 201.706C127.956 200.606 128.756 199.806 129.356 199.007C129.656 198.507 130.155 197.707 130.455 197.107C130.755 196.807 130.755 196.607 130.955 196.307C131.255 196.007 131.255 195.807 131.455 195.508C131.455 195.208 131.755 195.208 131.755 195.008C132.055 194.708 132.055 194.508 132.255 194.208C132.255 194.208 132.255 193.908 132.555 193.908C132.555 193.608 132.855 193.608 132.855 193.408L133.155 193.108L133.454 192.808C133.754 192.508 133.754 192.308 133.954 192.008C133.954 191.708 134.254 191.708 134.254 191.509C134.254 191.309 134.554 191.009 134.554 191.009C134.854 190.709 134.854 190.509 135.054 190.209C135.854 188.909 136.354 187.51 137.154 186.51C137.154 186.21 137.453 186.01 137.453 186.01C137.453 185.71 137.753 185.71 137.753 185.51L138.053 185.21C138.053 184.91 138.353 184.71 138.353 184.71C138.353 184.71 138.353 184.41 138.653 184.41C138.653 184.41 138.653 184.11 138.953 184.11C138.953 184.11 138.953 184.11 138.953 183.811V183.511V183.211C138.953 183.211 138.953 183.211 138.953 182.911C138.953 182.911 138.953 182.611 139.253 182.611C139.553 182.111 139.753 181.511 140.053 181.011V180.711V180.411C140.053 180.411 139.553 179.312 138.953 177.712C138.453 175.813 137.654 172.913 137.854 169.214C137.854 168.914 137.854 168.714 137.854 168.114C137.854 167.814 137.854 167.814 137.854 167.614C137.854 167.315 137.854 167.315 137.854 167.115C137.854 166.915 137.854 166.815 137.854 166.615C137.854 166.415 137.854 165.815 138.154 165.515C138.154 164.715 138.453 163.915 138.653 163.416C138.653 163.116 138.653 163.116 138.953 162.916C139.253 162.116 139.453 161.316 139.753 160.516C139.753 160.216 139.753 160.016 140.053 160.016C140.353 159.517 140.353 158.917 140.553 158.417C140.553 158.117 140.853 157.917 140.853 157.917C140.853 157.617 141.153 157.417 141.153 157.117C141.153 156.817 141.452 156.617 141.452 156.317C141.952 155.218 142.552 153.918 143.352 152.818C143.352 152.518 143.652 152.518 143.652 152.318C143.952 151.819 144.152 151.519 144.452 151.019C144.452 150.719 144.752 150.719 144.752 150.519C144.752 150.219 145.052 150.219 145.052 150.019C145.352 149.519 145.852 148.919 146.152 148.719C148.551 145.52 151.75 142.021 155.449 138.822C157.848 136.722 160.548 134.823 163.447 132.923C193.04 136.622 202.437 150.819 202.637 151.319C202.637 151.319 255.724 164.115 275.719 180.711C281.618 183.411 284.517 187.41 284.517 191.409Z" fill="#4A51DF"/>
<path d="M203.937 150.319C203.937 150.319 191.94 146.02 177.743 144.42C167.646 143.321 156.149 143.621 147.551 147.919C147.851 147.62 148.051 147.12 148.351 146.82C148.651 146.52 148.851 146.32 148.851 146.02C148.851 146.02 148.851 146.02 148.851 145.72C149.151 145.42 149.351 144.92 149.651 144.62C149.951 144.32 150.15 144.12 150.45 143.821C150.75 143.521 150.95 143.321 151.25 142.721C151.55 142.421 151.75 141.921 152.35 141.621C152.65 141.321 152.85 140.821 153.449 140.521C153.749 140.221 154.249 139.722 154.549 139.422C154.849 139.122 155.349 138.622 155.649 138.322C155.949 138.022 155.949 138.022 156.149 137.822C156.349 137.622 156.449 137.522 156.649 137.322C159.048 135.223 161.748 133.323 164.647 131.424C194.339 135.623 203.437 149.819 203.937 150.319Z" fill="#01425E"/>
<path d="M231.43 197.007C231.43 197.007 207.436 199.107 181.543 195.108V195.408C181.543 195.708 181.243 195.708 181.243 195.908C181.243 196.207 180.943 196.407 180.743 197.007C180.443 197.307 180.443 197.507 180.243 198.107C179.943 198.407 179.943 198.907 179.743 199.207C179.743 199.207 179.743 199.507 179.443 199.507C179.143 200.007 178.943 200.606 178.644 201.106C178.344 201.406 178.344 201.606 178.144 202.206C177.844 202.706 177.644 203.306 177.344 203.506C177.344 203.806 177.044 203.806 177.044 204.006C159.948 204.505 142.852 203.206 131.655 197.307C131.955 197.007 131.955 196.807 132.155 196.507C132.455 196.207 132.455 196.008 132.655 195.708C132.655 195.408 132.955 195.408 132.955 195.208C133.255 194.908 133.255 194.708 133.455 194.408C133.455 194.408 133.455 194.108 133.755 194.108C133.755 193.808 134.055 193.808 134.055 193.608L134.355 193.308L134.655 193.008C134.954 192.708 134.954 192.508 135.154 192.209C135.154 191.909 135.454 191.909 135.454 191.709C135.454 191.509 135.754 191.209 135.754 191.209C136.054 190.909 136.054 190.709 136.254 190.409C137.054 189.109 137.554 187.71 138.354 186.71C138.354 186.41 138.654 186.21 138.654 186.21C138.654 185.91 138.953 185.91 138.953 185.71L139.253 185.41C139.253 185.11 139.553 184.91 139.553 184.91C139.553 184.91 139.553 184.61 139.853 184.61C139.853 184.61 139.853 184.31 140.153 184.31C140.153 184.31 140.153 184.31 140.153 184.011V183.711V183.411C140.153 183.411 140.153 183.411 140.153 183.111C140.153 183.111 140.153 182.811 140.453 182.811C140.753 182.311 140.953 181.711 141.253 181.211V180.911V180.611C141.253 180.611 140.753 179.512 140.153 177.912C139.653 176.013 138.853 173.113 139.053 169.414C139.053 169.114 139.053 168.914 139.053 168.314C139.053 168.015 139.053 168.015 139.053 167.815C139.053 167.615 139.053 167.515 139.053 167.315C139.053 167.115 139.053 167.015 139.053 166.815C139.053 166.515 139.053 166.015 139.353 165.715C139.353 164.915 139.653 164.115 139.853 163.616C139.853 163.316 139.853 163.316 140.153 163.116C140.453 162.316 140.653 161.516 140.953 160.716C140.953 160.416 140.953 160.217 141.253 160.217C141.553 159.717 141.553 159.117 141.753 158.617C141.753 158.317 142.053 158.117 142.053 158.117C142.053 157.817 142.353 157.617 142.353 157.317C142.353 157.017 142.653 156.817 142.653 156.517C143.152 155.418 143.752 154.118 144.552 153.018C144.552 152.718 144.852 152.718 144.852 152.518C145.152 152.018 145.352 151.719 145.652 151.219C145.652 150.919 145.952 150.919 145.952 150.719C145.952 150.519 146.251 150.419 146.251 150.219C146.551 149.719 147.051 149.119 147.351 148.919C155.849 144.42 167.346 144.12 177.544 145.42C177.844 146.72 177.244 148.619 173.545 149.719C173.545 149.719 185.242 160.117 181.843 165.215C178.643 169.214 166.046 194.908 231.43 197.007Z" fill="#2834D1"/>
<path d="M181.543 195.108C181.543 195.408 181.542 195.408 181.243 195.408C181.243 195.708 180.943 195.708 180.943 195.907C180.643 196.207 180.643 196.407 180.443 197.007C180.143 197.307 180.143 197.507 179.943 198.107C179.643 198.407 179.643 198.907 179.443 199.207C179.443 199.207 179.443 199.507 179.143 199.507C178.843 200.006 178.643 200.606 178.343 201.106C178.043 201.406 178.043 201.606 177.843 202.206C177.544 202.706 177.344 203.306 177.044 203.506C177.044 203.805 176.744 203.805 176.744 204.005C176.744 204.305 176.444 204.305 176.444 204.505C176.144 204.805 176.144 205.305 175.944 205.605C175.644 206.405 175.144 207.205 174.844 208.004C174.544 208.504 174.344 208.804 174.344 209.304C174.344 209.604 174.044 209.804 174.044 209.804C173.245 211.404 172.445 212.703 171.345 214.303C171.045 214.803 170.845 215.103 170.545 215.603C170.045 216.702 169.445 217.502 168.946 218.502C168.646 218.802 168.646 219.002 168.446 219.602C168.146 219.901 167.946 220.401 167.646 220.701C167.146 221.501 166.546 222.301 166.046 223.101C165.746 223.601 165.546 224.2 164.947 224.7C164.647 225.2 164.447 225.8 163.847 226.3C163.047 227.4 162.547 228.399 161.747 229.499C161.447 229.999 160.948 230.599 160.648 231.099L160.348 231.399C159.848 232.498 159.048 233.498 158.248 234.298C157.948 234.798 157.449 235.398 157.149 235.897C156.349 236.997 155.549 238.297 154.749 239.397C154.249 239.896 153.949 240.496 153.449 241.296C152.65 242.396 151.85 243.396 151.05 244.495C150.55 245.295 149.95 245.795 149.45 246.595C148.951 247.095 148.651 247.695 148.151 248.494C147.651 248.994 147.351 249.594 146.851 250.094C146.351 250.594 146.051 251.194 145.552 251.694C145.252 251.994 145.252 252.193 145.052 252.193C144.252 252.993 143.752 254.093 142.952 254.893C142.952 255.193 142.652 255.193 142.652 255.393C142.152 255.892 141.852 256.492 141.353 256.992C140.853 257.492 140.253 258.092 139.753 258.892C139.253 259.392 138.953 259.991 138.453 260.491C138.453 260.491 138.453 260.791 138.153 260.791C137.054 261.891 136.054 263.191 134.954 264.29C134.454 264.79 133.854 265.39 133.355 265.89C132.855 266.39 132.255 266.99 131.755 267.49C131.255 267.989 130.655 268.589 130.155 269.089C129.056 270.189 128.056 271.189 126.656 272.288C125.557 273.388 124.557 274.388 123.157 275.488C122.857 275.787 122.357 275.987 122.057 276.287C121.757 276.587 121.557 276.787 120.958 277.087C120.458 277.587 119.858 277.887 119.358 278.387C118.858 278.887 118.058 279.487 117.458 279.986C77.6684 311.479 47.576 324.775 47.576 324.775L41.6776 317.877L29.1807 303.181C19.2832 291.684 63.8719 282.686 62.7722 276.987C61.6724 271.389 68.3708 262.591 86.2663 255.093C104.162 247.595 90.2653 239.097 107.561 224.9C108.061 224.4 108.661 224.1 109.161 223.601C109.461 223.301 109.66 223.101 109.96 222.801C111.06 221.701 112.06 220.701 113.16 219.602C113.96 218.802 114.759 218.002 115.559 217.202C116.359 216.402 117.159 215.603 117.659 214.503C117.959 214.203 118.158 214.003 118.458 213.703C120.058 211.804 121.358 210.004 122.757 208.104C123.257 207.605 123.557 207.005 124.057 206.205C125.956 203.806 127.556 201.106 129.156 198.707C129.456 198.207 129.955 197.407 130.255 196.807C130.555 196.507 130.555 196.307 130.755 196.007C131.055 195.708 131.055 195.508 131.255 195.208C131.255 194.908 131.555 194.908 131.555 194.708C131.855 194.408 131.855 194.208 132.055 193.908C132.055 193.908 132.055 193.608 132.355 193.608C132.355 193.308 132.655 193.308 132.655 193.108L132.955 192.808L133.255 192.508C133.554 192.208 133.554 192.009 133.754 191.709C133.754 191.409 134.054 191.409 134.054 191.209C134.054 191.009 134.354 190.709 134.354 190.709C134.654 190.409 134.654 190.209 134.854 189.909C135.654 188.609 136.154 187.21 136.954 186.21C136.954 185.91 137.254 185.71 137.254 185.71C137.254 185.41 137.554 185.41 137.554 185.21L137.853 184.91C137.853 184.61 138.153 184.41 138.153 184.41C138.153 184.41 138.153 184.11 138.453 184.11C138.453 184.11 138.453 183.811 138.753 183.811C138.753 183.811 138.753 183.511 139.053 183.511V183.211V182.911C139.053 182.911 139.053 182.911 139.053 182.611C139.053 182.611 139.053 182.311 139.353 182.311C139.653 181.811 139.853 181.211 140.153 180.711V180.411V180.111C139.953 180.411 148.751 191.109 181.543 195.108Z" fill="#2834D1"/>
<path d="M187.441 250.894C175.744 260.491 172.545 273.788 171.745 280.786C171.445 283.486 169.346 285.285 166.646 285.585H164.547C149.051 275.487 159.748 218.102 159.748 218.102L168.246 220.501L169.845 221.001C175.144 221.501 179.443 222.301 182.142 223.101C182.442 223.101 182.442 223.101 182.642 223.401C183.942 223.9 184.742 225 185.042 226.3L188.541 244.995C189.54 246.895 189.34 249.594 187.441 250.894Z" fill="#FE9329"/>
<path d="M203.937 235.897C195.139 239.896 188.441 244.995 188.441 244.995C177.543 240.496 177.543 229.799 181.242 228.699C184.942 227.6 184.942 226.3 184.942 226.3L196.139 221.801L203.937 235.897Z" fill="#FF8A9C"/>
<path d="M166.646 285.585H164.547C149.051 275.487 159.748 218.102 159.748 218.102L168.246 220.501C165.546 230.099 155.449 272.188 166.646 285.585Z" fill="#04044C"/>
<path d="M274.419 61.2411C277.677 61.2411 280.318 58.6003 280.318 55.3426C280.318 52.085 277.677 49.4441 274.419 49.4441C271.162 49.4441 268.521 52.085 268.521 55.3426C268.521 58.6003 271.162 61.2411 274.419 61.2411Z" fill="#EF5472"/>
<path d="M280.518 60.9414C280.518 61.4414 280.218 61.7414 279.718 61.7414C279.218 61.7414 278.918 61.4414 278.918 60.9414C278.918 60.4414 279.218 60.1414 279.718 60.1414C280.218 60.1414 280.518 60.6414 280.518 60.9414Z" fill="#601212"/>
<path d="M287.516 57.542C289.449 57.542 291.015 55.9754 291.015 54.0429C291.015 52.1104 289.449 50.5438 287.516 50.5438C285.584 50.5438 284.017 52.1104 284.017 54.0429C284.017 55.9754 285.584 57.542 287.516 57.542Z" fill="#EF5472"/>
<path d="M178.943 239.097C178.943 239.097 176.844 237.197 176.044 232.698C175.544 230.299 172.045 229.799 170.745 231.898C169.146 234.598 167.246 238.597 165.447 244.995C165.447 244.995 167.346 231.099 169.945 221.301C175.244 221.801 179.543 222.601 182.242 223.401C182.542 223.401 182.542 223.401 182.742 223.701C182.742 224 182.742 224 182.742 224.2C182.442 225.8 181.643 227.4 180.343 228.199C178.144 228.999 175.644 231.898 178.943 239.097Z" fill="#04044C"/>
<path d="M187.141 254.593C181.243 254.293 178.043 249.794 177.244 247.894C176.944 247.595 177.244 247.095 177.544 247.095C177.844 246.795 178.044 247.095 178.343 247.395C179.143 248.694 182.042 252.993 187.441 253.293C187.741 253.293 187.941 253.593 187.941 253.793C187.941 254.393 187.741 254.593 187.141 254.593Z" fill="#04044C"/>
<path d="M185.042 258.092C179.143 257.792 175.944 253.293 174.944 251.694C174.644 251.394 174.944 250.894 175.244 250.894C175.544 250.594 175.744 250.894 176.044 251.194C176.844 252.493 179.743 256.492 185.142 257.092C185.442 257.092 185.642 257.392 185.642 257.592C185.542 257.792 185.342 258.092 185.042 258.092Z" fill="#04044C"/>
<path d="M182.642 261.791C176.744 261.491 173.545 256.992 172.545 255.393C172.245 255.093 172.545 254.593 172.845 254.593C173.145 254.293 173.345 254.593 173.645 254.893C174.445 256.192 177.344 260.191 182.742 260.791C183.042 260.791 183.242 261.091 183.242 261.291C183.442 261.591 183.142 261.791 182.642 261.791Z" fill="#04044C"/>
<path d="M180.243 265.59C174.344 265.29 171.145 260.791 170.345 259.192C170.045 258.892 170.345 258.392 170.645 258.392C170.945 258.092 171.145 258.392 171.445 258.692C172.245 259.991 175.144 263.99 180.243 264.59C180.543 264.59 180.743 264.89 180.743 265.09C181.043 265.29 180.543 265.59 180.243 265.59Z" fill="#04044C"/>
<path d="M284.517 191.409C284.517 194.608 282.617 198.107 279.418 201.506C275.119 199.107 272.52 194.808 272.52 189.809C272.52 185.81 274.419 182.311 277.019 179.712C281.618 183.411 284.517 187.41 284.517 191.409Z" fill="#7079F2"/>
<path d="M255.424 135.622L254.324 133.723L245.227 119.626C248.426 111.329 249.725 102.531 250.025 95.3326C250.325 89.734 250.025 85.2351 250.025 82.0359L255.424 135.622Z" fill="#04044C"/>
<path d="M204.737 88.6343C204.737 88.6343 175.144 124.425 140.753 131.324C142.352 130.524 146.351 128.924 151.45 126.025C163.747 118.827 182.442 105.23 189.641 85.2351C189.341 84.9352 198.638 86.8347 204.737 88.6343Z" fill="#04044C"/>
<path d="M328.006 80.6363C327.706 81.7363 327.506 83.0363 326.906 84.3363C327.206 84.1363 327.506 82.8363 328.006 80.6363Z" fill="#F47356"/>
<path d="M344.302 66.0399C343.202 74.3379 341.103 86.5348 336.604 88.7343C329.706 92.4334 326.706 84.4354 326.706 84.4354C326.706 84.4354 328.606 84.7353 331.005 78.5368C333.105 72.4383 335.504 62.041 339.003 61.741C340.803 61.4411 343.002 63.0407 344.302 66.0399Z" fill="#EF5472"/>
<path d="M181.543 195.108C181.543 195.108 162.048 198.307 136.154 190.309C136.954 189.009 137.454 187.609 138.253 186.61C138.253 186.31 138.553 186.11 138.553 186.11C138.553 185.81 138.853 185.81 138.853 185.61L139.153 185.31C139.153 185.01 139.453 184.81 139.453 184.81C139.453 184.81 139.453 184.51 139.753 184.51C139.753 184.51 139.753 184.21 140.053 184.21C140.053 184.21 140.053 183.91 140.353 183.91V183.61V183.311C140.353 183.311 140.353 183.311 140.353 183.011C140.353 183.011 140.353 182.711 140.653 182.711C140.953 182.211 141.153 181.611 141.453 181.111V180.811V180.511C141.253 180.711 148.751 191.109 181.543 195.108Z" fill="#04044C"/>
<path d="M218.133 211.903C209.036 217.002 204.037 226.6 204.537 236.997L204.037 235.897L196.039 221.801L193.34 216.702C193.34 216.702 195.439 211.104 202.637 211.603C210.135 212.103 205.336 206.005 215.434 203.106C225.531 200.206 231.43 197.007 231.43 197.007C238.928 195.907 243.927 195.108 244.227 195.108C236.529 201.306 226.331 207.105 218.133 211.903Z" fill="#2834D1"/>
<path d="M260.223 57.742C267.014 57.742 272.52 51.6546 272.52 44.1454C272.52 36.6362 267.014 30.5488 260.223 30.5488C253.431 30.5488 247.926 36.6362 247.926 44.1454C247.926 51.6546 253.431 57.742 260.223 57.742Z" fill="#FFD1B3"/>
<path d="M262.422 39.3466H258.124V19.0516C258.124 13.1531 261.023 7.55453 265.822 4.35533C267.921 2.75573 270.92 3.85543 271.72 6.45478C266.121 8.35431 262.622 13.3531 262.622 18.9517V39.2466H262.422V39.3466Z" fill="#FFD1B3"/>
<path d="M193.34 152.718C192.54 156.717 189.841 162.316 180.843 163.416C178.443 163.715 175.744 163.715 172.545 163.416C172.045 163.416 175.444 163.116 179.443 161.516C183.442 159.916 188.541 156.717 191.94 150.819C192.44 150.019 192.74 149.219 193.24 148.419C193.54 148.419 193.84 150.319 193.34 152.718Z" fill="#04044C"/>
<path d="M193.34 152.718C192.54 156.717 189.841 162.316 180.843 163.416L179.743 161.516L176.244 155.917C174.944 153.818 175.744 151.119 177.544 150.019L183.942 146.02C186.041 144.72 188.741 145.52 189.841 147.32L192.24 151.019L193.34 152.718Z" fill="#FFD1B3"/>
<path d="M179.143 162.016C178.843 162.516 178.643 163.116 178.043 163.316C175.144 165.215 168.146 164.915 161.747 159.816C154.249 153.918 143.852 141.921 142.852 134.723C142.852 134.723 142.052 133.423 140.953 131.224C140.953 131.224 140.953 130.924 140.653 130.924C135.054 121.026 120.158 94.1329 117.758 81.3361C117.458 79.4366 117.258 77.837 117.458 76.8372C117.958 74.4378 119.858 72.0384 122.757 70.1389C127.856 66.6398 136.054 64.2404 143.852 62.6408C145.152 62.3408 146.551 62.1409 147.851 61.841C150.25 61.3411 152.35 61.0411 154.549 60.7412L159.048 82.8357H159.548L147.051 84.7352C143.052 85.2351 140.153 89.2341 140.953 93.2331C142.052 101.531 144.952 115.128 151.35 125.525C151.65 126.025 152.15 126.625 152.45 127.425C152.45 127.425 159.148 126.625 164.447 131.923C164.747 132.223 165.247 132.723 165.546 133.023C170.845 139.422 176.444 142.921 175.944 144.72C175.444 146.52 170.345 145.52 165.546 139.921C165.546 139.921 164.247 141.521 168.446 146.62C172.745 151.618 180.743 158.817 179.143 162.016Z" fill="#FF8A9C"/>
<path d="M159.148 83.0357L143.952 62.7407C147.651 61.9409 151.45 61.4411 154.649 60.8412L159.148 83.0357Z" fill="#EF5472"/>
<path d="M124.957 75.0377C124.957 78.5368 122.057 81.4361 118.558 81.4361C118.258 81.4361 118.058 81.4361 117.758 81.4361C117.458 79.5366 117.258 77.937 117.458 76.9372C117.958 74.5378 119.858 72.1384 122.757 70.2389C123.957 71.3386 124.957 73.2381 124.957 75.0377Z" fill="#EF5472"/>
<path d="M183.743 146.82L183.243 147.12C182.743 147.42 182.143 147.42 181.643 146.82C181.343 146.32 181.343 145.72 181.943 145.22L182.443 144.92C182.943 144.62 183.543 144.62 184.043 145.22C184.243 145.82 183.943 146.62 183.743 146.82Z" fill="#FFD1B3"/>
<path d="M255.224 44.1454C254.724 54.2429 251.525 64.6403 243.527 71.6385C235.229 78.5368 225.431 78.3369 215.534 75.3376C207.236 72.9382 199.238 69.2391 192.04 64.1404C191.54 63.8405 190.94 63.3406 190.44 63.0406C189.94 62.7407 189.341 62.2409 188.841 61.9409C182.142 56.6423 176.844 50.4438 171.245 44.0454C164.547 36.5473 156.549 30.7487 146.151 33.648C135.454 36.5473 128.856 46.9447 125.856 57.1422C119.758 77.4371 126.956 99.0317 141.552 113.728C148.451 120.626 156.749 125.725 165.546 129.724C169.845 131.824 174.044 134.023 177.543 137.222C180.743 140.721 182.842 144.72 185.241 148.919C185.741 150.019 184.142 151.019 183.642 150.019C180.743 144.42 177.544 138.822 172.145 135.323C167.646 132.423 162.247 130.524 157.448 127.824C148.651 123.026 140.653 116.327 134.554 108.129C122.857 92.6332 118.558 71.8385 125.256 53.4431C128.456 45.1451 133.754 37.1472 141.752 33.1481C149.75 29.4491 158.248 30.2489 165.246 35.2476C172.145 40.3463 176.944 48.0444 183.142 53.9429C184.442 55.0427 185.541 56.3423 186.841 57.4421C187.941 58.2419 188.941 59.0417 190.04 60.1414C195.639 64.6403 202.037 68.1394 208.736 70.8387C218.333 74.5378 229.83 78.0369 239.128 72.1384C248.726 66.2399 252.425 54.8427 253.025 44.1454C253.624 42.8457 255.424 42.8457 255.224 44.1454Z" fill="#FFD1B3"/>
<path d="M279.218 94.3329C267.221 112.428 242.127 117.027 223.232 107.929C212.535 102.831 205.637 93.2331 200.038 83.1357C196.539 76.7373 193.14 70.3388 190.141 63.9404C189.841 63.4406 189.641 62.6407 189.041 62.0409C189.541 62.3408 190.141 62.8407 190.64 63.1407C191.14 63.4406 191.74 63.9404 192.24 64.2404C192.74 65.54 193.54 66.6398 194.14 67.7395C197.339 73.838 200.538 80.2364 204.037 86.4348C209.936 96.3323 217.634 104.33 228.531 108.329C238.428 111.828 249.026 111.828 258.923 108.029C269.021 104.33 278.419 96.0324 281.618 85.3351C282.717 82.1359 282.917 78.4368 281.917 75.2376C281.418 73.638 280.618 72.3383 279.818 70.9387C280.318 70.4388 280.618 70.1389 281.118 69.639C282.418 72.0384 283.817 74.1379 284.317 77.1372C285.117 82.8357 282.717 89.2341 279.218 94.3329Z" fill="#FFD1B3"/>
<path d="M188.542 149.019C188.542 149.519 188.041 150.32 187.241 150.32C186.441 150.32 185.941 149.819 185.941 149.019C185.941 148.519 186.441 147.72 187.241 147.72C187.941 147.62 188.542 148.419 188.542 149.019Z" fill="#04044C"/>
<path d="M187.442 152.719C187.442 153.219 186.942 154.019 186.142 154.019C185.642 154.019 184.842 153.519 184.842 152.719C184.842 151.919 185.342 151.419 186.142 151.419C186.942 151.419 187.442 151.919 187.442 152.719Z" fill="#04044C"/>
<path d="M190.941 152.719C190.941 153.219 190.441 154.019 189.641 154.019C188.841 154.019 188.341 153.519 188.341 152.719C188.341 152.219 188.841 151.419 189.641 151.419C190.341 151.419 190.941 152.219 190.941 152.719Z" fill="#04044C"/>
</svg>
