<svg width="120" height="120" viewBox="0 0 120 120" fill="none" xmlns="http://www.w3.org/2000/svg">
<mask id="mask0_467_19178" style="mask-type:alpha" maskUnits="userSpaceOnUse" x="0" y="0" width="120" height="120">
<circle cx="60" cy="60" r="60" fill="#C4C4C4"/>
</mask>
<g mask="url(#mask0_467_19178)">
<path d="M248.438 -12.1875H-92.0624V392.812H248.438V-12.1875Z" fill="white"/>
<path d="M75.7501 41.6253C75.3751 44.0628 74.8125 45.9378 74.25 48.0003C74.0625 48.5628 73.8751 49.3128 73.6876 49.8753C69.3751 62.0628 63.3749 58.3128 63.1874 58.1253L56.6249 68.4378C53.2499 61.3128 44.0626 58.1253 43.8751 58.1253L46.875 51.0003L49.5001 44.8127C46.8751 42.3752 45.3749 36.5627 48.1874 35.4377C50.9999 34.3127 52.6875 37.3127 52.6875 37.3127L54.5625 40.6878L55.6874 42.9377C55.8749 41.6252 56.0624 40.6878 56.6249 39.7503C58.1249 36.0003 61.3124 34.5002 61.3124 34.5002C61.1249 36.1877 60 37.6878 60 37.6878C62.8125 35.4378 63.1874 33.0003 63.1874 33.0003C63.5624 35.2503 65.625 37.5003 65.8125 37.6878C65.4375 36.3753 65.4375 34.8752 65.625 33.5627C65.8125 32.0627 66.1876 30.7502 66.1876 30.7502C66.7501 35.4377 70.8751 38.4378 70.8751 38.4378C68.6251 35.4378 69.5625 33.0003 69.5625 33.0003C72 39.0003 75.7501 41.6253 75.7501 41.6253Z" fill="#FFAD95"/>
<path d="M58.3125 41.6253C58.3125 41.6253 55.5001 50.0627 61.5001 53.2502C67.3126 56.0627 63.1874 58.3127 63.1874 58.3127L56.4375 55.1252C54.5625 54.1877 52.1251 54.9377 51.1876 56.8127L49.875 59.4378C49.875 59.4378 47.4374 59.8128 45.3749 59.4378L44.0625 58.1252L47.0625 51.0003L49.6875 44.8127C47.0625 42.3752 45.5626 36.5627 48.3751 35.4377C51.1876 34.3127 52.8749 37.3127 52.8749 37.3127L54.7499 40.6878L55.8751 42.9377C56.0626 41.6252 56.2501 40.6878 56.8126 39.7503C58.3126 36.0003 61.5001 34.5002 61.5001 34.5002C61.3126 36.1877 60.1875 37.6877 60.1875 37.6877C63 35.4377 63.3751 33.0002 63.3751 33.0002C63.7501 35.2502 65.8124 37.5002 65.9999 37.6877C65.9999 37.6877 64.1249 36.7502 63.1874 35.2502C63.5624 35.6252 62.0625 38.2503 58.3125 41.6253Z" fill="#CD634B"/>
<path d="M60.9375 62.6255L57.1875 69.188C56.0625 66.563 54.375 64.688 52.6875 62.813C48.75 59.438 44.4374 57.7504 44.4374 57.7504C44.2499 57.7504 44.0626 57.7505 43.8751 57.938L45.5626 53.813L60.9375 62.6255Z" fill="#FFF2FA"/>
<path d="M56.8127 21.1875C56.8127 21.1875 57.1876 15.9375 60.9376 12.375L59.8126 11.8125C59.8126 11.8125 56.0627 15.9375 56.8127 21.1875Z" fill="#191E23"/>
<path d="M56.4375 21.5625C56.4375 21.5625 50.25 16.5 44.25 22.875C44.0625 22.5 49.125 18.5625 56.4375 21.5625Z" fill="#191E23"/>
<path d="M56.0626 19.8752C56.0626 19.8752 54.9377 16.8752 55.8751 13.3127C55.8751 13.3127 53.2501 17.2502 56.0626 19.8752Z" fill="#191E23"/>
<path d="M67.6875 140.625V151.688C67.6875 151.688 65.0625 148.313 59.25 146.438C56.4375 145.5 53.0625 145.125 48.75 145.313C43.3125 145.688 36.7501 147.563 28.6876 151.688C27.7501 152.063 27.0001 152.625 26.0626 153.188C26.0626 153.188 27 150.188 28.3125 146.625C28.875 144.938 29.6251 143.25 30.5626 141.563C30.5626 141.563 30.375 141.375 30 141C28.875 139.875 27.375 136.875 27.375 129.375C27.375 119.063 20.6251 63.5628 43.6876 58.1253C43.8751 58.1253 44.0625 58.1252 44.25 57.9377C44.4375 57.9377 53.4376 60.9377 57.0001 68.2502C57.1876 68.4377 57.1875 68.8127 57.375 69.1877C57.375 69.3752 57.5624 69.3753 57.5624 69.5628C57.5624 69.5628 59.0626 74.6253 60.7501 82.5003C61.1251 84.7503 61.8749 87.0003 62.2499 90.0003C64.4999 101.438 66.75 116.438 66.75 131.063C66.75 131.063 69.9374 135.188 70.6874 136.875C71.0624 138.75 67.6875 140.625 67.6875 140.625Z" fill="#FA6142"/>
<path d="M72.375 50.2501C72 51.3751 70.6875 54.0001 70.6875 54.0001L64.125 50.2501C67.875 45.7501 72.375 50.2501 72.375 50.2501ZM78.5626 31.1251C78.5626 31.1251 80.4376 30.1876 81.1876 30.7501C81.1876 30.7501 71.625 13.8751 56.4375 21.7501C56.4375 21.7501 42.5625 21.3751 40.5 37.3126C40.5 37.3126 40.875 36.7501 42.1875 35.4376C42.1875 35.4376 41.25 41.8126 44.4375 42.1876C44.4375 42.1876 44.0625 45.9376 47.0625 46.6876C47.0625 46.6876 46.5 49.1251 47.0625 51.0001L49.6875 44.8126C47.0625 42.3751 45.5626 36.5626 48.3751 35.4376C51.1876 34.3126 52.875 37.3126 52.875 37.3126C54.1875 39.5626 54.5625 42.0001 54.375 44.8126L54.0001 49.5001C54.0001 50.0626 54.1875 50.8126 54.5625 51.0001L62.8125 57.7501C63 57.7501 64.125 58.6876 65.8125 58.3126C68.0625 58.1251 70.875 56.0626 73.3125 49.3126C72.375 48.3751 71.4375 47.8126 70.5 47.0626C67.5 45.5626 63.9376 46.6876 62.4376 49.6876L57.9376 49.1251C57.0001 48.9376 56.25 48.0001 56.4375 47.2501L56.625 42.1876C56.625 41.6251 56.8126 41.0626 56.8126 40.5001C57.3751 38.0626 58.6876 36.1876 60.7501 34.8751C61.1251 34.6876 61.3125 34.5001 61.3125 34.5001C61.125 36.1876 60 37.6876 60 37.6876C62.8125 35.4376 63.1875 33.0001 63.1875 33.0001C63.5625 35.2501 65.625 37.5001 65.8125 37.6876C64.6875 34.6876 66.1876 30.9376 66.1876 30.9376C66.7501 35.6251 70.8751 38.6251 70.8751 38.6251C68.6251 35.6251 69.5625 33.1876 69.5625 33.1876C71.4375 39.0001 75.1875 41.4376 75.1875 41.4376C74.8125 43.8751 74.2501 45.7501 73.6876 47.8126C74.2501 46.8751 75.375 45.3751 75.9375 43.8751C75.9375 43.8751 76.5001 45.7501 76.5001 46.6876C76.5001 46.6876 78.75 43.5001 78.9375 39.9376C78.9375 39.9376 79.8751 40.3126 80.2501 41.2501C80.8126 41.2501 81.9376 33.3751 78.5626 31.1251Z" fill="#30353B"/>
<path d="M50.4375 43.6875C50.4375 43.6875 49.5 41.25 50.25 39.375C50.625 37.5 52.125 37.875 52.125 37.875C52.125 37.875 50.2498 36 49.1248 37.3125C47.8123 38.4375 49.3125 42.5625 50.4375 43.6875Z" fill="#BC4531"/>
<path d="M51.9374 37.875C51.9374 37.875 50.6249 35.625 48.9374 36.5625C47.0624 37.125 48.75 42.375 50.4375 43.6875C50.4375 43.6875 48.7499 40.5 49.1249 38.4375C49.8749 36.375 51.9374 37.875 51.9374 37.875Z" fill="#191E23"/>
<path d="M71.4375 38.4375C71.4375 38.4375 68.2499 38.0625 65.9999 33.75C66.1874 32.25 66.5625 30.9375 66.5625 30.9375C67.3125 35.8125 71.4375 38.4375 71.4375 38.4375Z" fill="#CD634B"/>
<path d="M66.3751 58.8751C64.6876 59.0626 63.5626 58.5001 63.3751 58.3126L55.1251 51.5626C54.7501 51.1876 54.5625 50.4377 54.5625 50.0627L54.9376 45.3752C55.1251 42.7502 54.5625 40.1252 53.4375 37.8752C53.4375 37.8752 51.75 34.8752 48.9375 36.0002C46.125 37.1252 47.6251 42.9377 50.2501 45.3752L47.6251 51.5626C47.0626 49.8751 47.6251 47.2502 47.6251 47.2502C44.6251 46.3127 45 42.7501 45 42.7501C42 42.3751 42.7501 36.0002 42.7501 36.0002C41.2501 37.3127 41.0626 37.8752 41.0626 37.8752C43.3126 21.9377 57.0001 22.3126 57.0001 22.3126C57.0001 22.3126 66.375 19.5002 73.125 27.5627C73.125 27.5627 67.8751 24.1876 62.4376 25.1251C62.4376 25.1251 64.8751 27.3751 65.4376 32.6251C65.4376 32.6251 64.5001 29.4377 61.5001 27.3752C61.5001 27.3752 60.3751 29.8126 60.5626 33.7501C60.5626 33.7501 59.4375 31.8752 59.25 29.2502C59.25 29.2502 58.1249 35.6251 57.5624 41.2501C57.3749 41.8126 57.375 42.3751 57.375 42.9376L57.1875 48.0002C57.1875 48.9377 57.7501 49.6877 58.6876 49.8752C58.1251 49.3127 59.8126 55.5001 66.3751 58.8751Z" fill="#191E23"/>
<path d="M60.9375 62.6255L53.2501 60.938L52.3126 62.813C48.3751 59.438 44.0625 57.7504 44.0625 57.7504C43.875 57.7504 43.6874 57.7505 43.4999 57.938L45.1875 53.813L60.9375 62.6255Z" fill="#DDCEDA"/>
<path d="M62.25 90.0002L60.0001 90.1877C58.1251 90.3752 56.0627 88.8752 55.8752 87.0002C55.6877 85.1252 57.1876 83.0628 59.0626 82.8753L60.375 82.6877C61.125 84.7502 61.5 87.3752 62.25 90.0002Z" fill="white"/>
<path d="M52.8749 132.563L41.25 136.687L48.75 145.5C43.3125 145.875 36.7501 147.75 28.6876 151.875C27.7501 152.25 27.0001 152.812 26.0626 153.375C26.0626 153.375 27 150.375 28.3125 146.812C28.875 145.125 29.6251 143.438 30.5626 141.75C30.5626 141.75 30.375 141.562 30 141.187C28.875 140.062 27.375 137.063 27.375 129.563C27.375 119.25 20.6251 63.75 43.6876 58.3125C43.8751 58.3125 44.0625 58.3125 44.25 58.125C44.4375 58.125 53.4376 61.125 57.0001 68.4375C57.0001 68.4375 42.3751 62.0625 38.2501 78L44.4374 71.25L36.5625 86.625C36.5625 86.625 34.8751 101.062 35.2501 111.375C35.4376 121.687 41.8126 134.812 41.8126 134.812L52.8749 132.563Z" fill="#D63A21"/>
<path d="M57.5625 145.875L53.2501 71.6255C53.2501 71.6255 44.0627 100.5 53.0627 132.563L57.5625 145.875Z" fill="#D63A21"/>
<path d="M37.5 87.9377C37.5 87.9377 33.1875 116.063 42.1875 132.75C42.1875 132.375 35.8125 113.438 37.5 87.9377Z" fill="#D63A21"/>
<path d="M59.0624 41.8125C59.0624 41.8125 58.125 45.9375 58.875 48.9375L59.0624 41.8125Z" fill="#CD634B"/>
<path d="M55.3125 92.0627L58.125 142.688C58.125 142.688 58.125 103.313 55.3125 92.0627Z" fill="#D63A21"/>
</g>
</svg>
