<svg width="120" height="120" viewBox="0 0 120 120" fill="none" xmlns="http://www.w3.org/2000/svg">
<mask id="mask0_467_19167" style="mask-type:alpha" maskUnits="userSpaceOnUse" x="0" y="0" width="120" height="120">
<circle cx="60" cy="60" r="60" fill="#C4C4C4"/>
</mask>
<g mask="url(#mask0_467_19167)">
<path d="M250.875 -56.25H-75V471.938H250.875V-56.25Z" fill="white"/>
<path d="M133.875 205.687C130.312 208.5 126.188 209.437 122.812 209.812C117.938 210.187 113.437 209.062 111 208.5C110.25 208.125 109.312 207.937 109.312 207.937C94.875 210.75 81.9375 211.5 71.25 211.5C52.875 211.5 40.125 208.688 35.8125 207.75C34.6875 207.375 33.9375 207.188 33.9375 207.188L37.125 189.938C37.125 189.938 29.25 186.375 25.3125 174.375C21.5625 162.375 21.75 124.5 24.9375 109.312C28.125 94.125 47.625 86.625 47.625 86.625L50.8125 83.4375C51.1875 81 51.9375 79.125 52.5 78.1875C52.875 78.75 52.875 79.3125 52.875 79.875C52.875 79.875 58.875 93.1875 68.4375 94.125C68.8125 94.125 77.0625 92.0625 81 79.3125V78.9375C81 78.9375 78.9375 78.1875 76.3125 72.75C79.125 73.125 81 73.875 81.5625 74.0625C83.25 75.375 86.4375 81.1875 86.4375 81.1875C86.4375 81.1875 109.125 80.625 115.875 100.312C122.062 120.187 133.875 205.687 133.875 205.687Z" fill="#C3243A"/>
<path d="M114.75 174.937C114.187 181.5 109.5 206.25 109.312 207.937L103.125 178.125C103.125 178.125 102.375 181.875 95.25 182.812C88.125 183.562 64.5 183.187 64.5 183.187C64.5 183.187 59.625 195 52.3125 198.187C52.3125 198.187 57 207.562 71.0625 211.312C52.6875 211.312 39.9375 208.5 35.625 207.562C34.5 207.187 33.75 207 33.75 207L36.9375 189.75C36.9375 189.75 29.0625 186.187 25.125 174.187C21.375 162.187 21.5625 124.312 24.75 109.125C27.9375 93.9372 47.4375 86.4373 47.4375 86.4373L50.625 83.2497C51 80.8122 51.75 78.9373 52.3125 77.9998C52.6875 78.5623 52.6875 79.1247 52.6875 79.6872C52.6875 79.6872 58.6875 92.9998 68.25 93.9373L81.375 98.2497L71.625 96.1873C68.0625 95.4373 64.5 95.8122 61.3125 97.3122L62.625 118.5L59.0625 98.4372C59.0625 98.4372 49.3125 98.4372 48.375 105.75L49.125 157.5C49.125 157.5 52.875 156.375 55.3125 160.312L91.875 160.875L68.625 162.937L51.375 165C51.375 165 54.5625 159.75 48.1875 159C38.625 157.875 31.875 168 36.1875 176.625C36.9375 178.312 37.875 179.625 39.1875 180.937C43.5 186.187 51.75 186.187 56.0625 180.937C59.625 176.812 64.3125 170.812 68.625 163.312L66.5625 178.125L100.125 172.687L92.25 162.562L97.125 153.937L94.3125 129.937C94.3125 129.937 87 99.9373 86.0625 81.1873L94.5 85.4998L105.562 163.5L114 112.875C114.562 113.062 115.312 168.187 114.75 174.937Z" fill="#890421"/>
<path d="M76.6875 57.75C76.6875 57.75 77.25 60.5625 75.5625 61.875C75.5625 61.875 76.125 64.6875 73.875 67.125C71.4375 60.9375 68.6249 52.6875 68.6249 52.6875C68.6249 52.6875 75.1875 53.8125 70.3125 43.6875C70.3125 43.6875 69 48.5625 66.5625 45.5625C64.125 42.5625 62.25 34.6875 55.875 34.875C55.875 34.875 52.6874 37.875 50.0624 34.5C50.0624 34.5 48.9374 36.5625 46.3124 36.5625C43.4999 36.5625 42.75 34.6875 42.75 34.6875C42.75 34.6875 41.0624 38.4375 36.7499 37.125C36.7499 37.125 37.5 45 32.625 46.125C32.625 46.125 35.8125 49.3125 35.625 53.8125L40.3125 61.125C40.3125 61.125 39 63.5625 36.5625 63C36.5625 63 40.8749 70.3125 43.4999 69.1875C45.9374 68.0625 44.8125 65.625 44.8125 65.625C45.1875 66 50.25 69.9375 52.5 76.5C51.375 76.875 49.5 77.25 47.8125 75.75C47.8125 75.75 42 76.5 40.875 72.75C40.875 72.75 35.9999 72.75 35.9999 68.625C35.9999 68.625 31.6875 67.875 31.6875 65.0625C31.6875 65.0625 27.5624 64.3125 27.3749 60.9375C27.3749 60.9375 23.25 58.5 24.1875 54.75C24.1875 54.75 20.0625 51.9375 22.125 47.625C22.125 47.625 20.0625 42.9375 24 40.5C24 40.5 22.1249 34.5 25.6874 31.875C25.6874 31.875 26.4375 27 31.875 26.4375C31.875 26.4375 32.9999 21.5625 39.7499 21.5625C39.7499 21.5625 41.8125 16.3125 50.4375 17.8125C50.4375 17.8125 56.6249 16.5 59.4374 21.5625C59.4374 21.5625 65.9999 21 67.8749 27C67.8749 27 73.6875 29.4375 73.6875 35.25C73.6875 35.25 77.4375 37.6875 76.6875 43.5C76.6875 43.5 79.125 47.0625 77.4375 51.9375C76.875 52.5 78.375 54.75 76.6875 57.75Z" fill="#0F0100"/>
<path d="M80.4375 78.75C76.875 91.5 68.25 93.75 67.875 93.75C58.3125 93.1875 52.3125 79.5 52.3125 79.5C52.3125 78.9375 51.9375 78.375 51.9375 77.8125C51.9375 77.4375 51.5625 77.25 51.5625 77.0625C49.5 70.125 44.25 66.1875 43.875 66.1875C43.875 66.1875 45 69 42.5625 69.75C40.125 70.875 35.625 63.5625 35.625 63.5625C37.6875 64.125 39.375 61.6875 39.375 61.6875L34.6875 54.375C35.0625 50.0625 31.6875 46.6875 31.6875 46.6875C36.5625 45.5625 35.8125 37.6875 35.8125 37.6875C40.125 39 41.8125 35.25 41.8125 35.25C41.8125 35.25 42.5625 37.125 45.375 37.125C48.1875 37.125 49.125 35.0625 49.125 35.0625C51.9375 38.25 54.9375 35.4375 54.9375 35.4375C61.125 34.875 63.1875 43.125 65.625 46.125C68.0625 49.125 69.375 44.25 69.375 44.25C74.625 54.375 67.6875 53.25 67.6875 53.25C67.6875 53.25 70.5 61.125 72.9375 67.6875C73.6875 69.75 74.625 71.8125 75 73.125C75.5625 74.25 75.75 75 76.3125 75.5625C79.125 78.375 80.4375 78.75 80.4375 78.75Z" fill="#FCB2A9"/>
<path d="M67.875 93.75C58.3125 93.1875 52.3125 79.5 52.3125 79.5C51 71.25 44.4375 66.1875 44.0625 65.8125C44.0625 65.8125 45.1875 68.625 42.75 69.375C40.3125 70.5 35.8125 63.1875 35.8125 63.1875C37.875 63.75 39.5625 61.3125 39.5625 61.3125L34.875 54C35.25 49.6875 31.875 46.3125 31.875 46.3125C36.75 45.1875 36 37.3125 36 37.3125C40.3125 38.625 42 34.875 42 34.875C42 34.875 42.75 36.75 45.5625 36.75C48.375 36.75 49.3125 34.6875 49.3125 34.6875C52.125 37.875 55.125 35.0625 55.125 35.0625C55.125 35.4375 53.4375 38.625 49.125 38.0625C49.125 38.0625 46.125 40.5 42 38.8125C42 38.8125 41.25 40.6875 38.4375 41.25C38.4375 41.25 39.75 44.0625 35.625 47.25C35.625 47.25 45.375 70.6875 54.1875 69.5625C62.625 68.4375 67.3125 63 67.3125 54.5625C67.3125 54.5625 69.1875 63 62.0625 69.5625C57.1875 73.875 55.875 81 58.5 86.8125C61.125 90.1875 63.5625 92.8125 67.875 93.75Z" fill="#EA7B73"/>
<path d="M80.4376 78.7497C76.8751 91.4997 68.2501 93.7497 67.8751 93.7497C76.1251 87.1872 77.2501 77.4373 77.2501 75.1873C79.1251 78.3748 80.4376 78.7497 80.4376 78.7497Z" fill="#EA7B73"/>
<path d="M80.4375 78.75C80.4375 78.75 78.375 78 75.75 72.5625C78.5625 72.9375 80.4375 73.6875 81 73.875C81 74.25 81.1875 75.5625 80.4375 78.75Z" fill="#0F0100"/>
<path d="M106.312 158.625L101.437 160.688L101.063 159.375L100.687 156.563L96.9375 127.125C96.9375 127.125 88.6875 106.687 85.875 81.375C85.875 80.8125 86.4375 80.25 87 80.25L98.8125 81.9375C100.5 82.3125 101.813 83.625 102 85.125C102.75 92.4375 104.812 112.5 102.562 126.188L106.125 157.5L106.312 158.625Z" fill="#0F0100"/>
<path d="M67.3125 48.1875L68.4375 51C68.4375 51 72 51.5625 70.3125 46.875C70.3125 46.875 69.5625 49.875 67.3125 48.1875Z" fill="#0F0100"/>
<path d="M40.3125 63.1875L43.125 66.1875C43.125 66.1875 43.875 68.625 42.375 69.1875C40.6875 69.75 38.0625 64.875 38.0625 64.875C38.0625 64.875 39.9375 64.875 40.3125 63.1875Z" fill="#0F0100"/>
<path d="M34.875 91.5L45.1875 85.6875C45.9375 85.125 46.875 85.6875 47.0625 86.4375C48.75 92.25 53.625 112.312 49.875 134.438L49.125 157.312L45 156.938C45 156.938 46.6875 155.625 46.875 153.75C47.25 151.875 44.8125 146.813 44.8125 146.813L45.1875 134.812C45.1875 134.812 43.125 134.813 41.0625 124.688C39.375 116.813 35.0625 101.438 33.1875 95.25C32.4375 93.9375 33.375 92.4375 34.875 91.5Z" fill="#0F0100"/>
<path d="M98.0625 87.75L91.5 87.1875C90.9375 87.1875 90.375 86.625 90.375 85.875C90.375 85.3125 90.9375 84.75 91.6875 84.75L98.25 85.3125C98.8125 85.3125 99.375 85.875 99.375 86.625C99.1875 87.375 98.625 87.9375 98.0625 87.75Z" fill="#FFF2FA"/>
</g>
</svg>
