<svg width="100" height="100" viewBox="0 0 100 100" fill="none" xmlns="http://www.w3.org/2000/svg">
<path d="M53.125 43.75H46.875V51.5625H53.125V43.75Z" fill="#F96464"/>
<path d="M57.8125 45.3125H42.1875C40.9443 45.3125 39.752 44.8186 38.8729 43.9396C37.9939 43.0605 37.5 41.8682 37.5 40.625C37.5 39.3818 37.9939 38.1895 38.8729 37.3104C39.752 36.4314 40.9443 35.9375 42.1875 35.9375H57.8125C59.0557 35.9375 60.248 36.4314 61.1271 37.3104C62.0061 38.1895 62.5 39.3818 62.5 40.625C62.5 41.8682 62.0061 43.0605 61.1271 43.9396C60.248 44.8186 59.0557 45.3125 57.8125 45.3125ZM42.1875 39.0625C41.7731 39.0625 41.3757 39.2271 41.0826 39.5201C40.7896 39.8132 40.625 40.2106 40.625 40.625C40.625 41.0394 40.7896 41.4368 41.0826 41.7299C41.3757 42.0229 41.7731 42.1875 42.1875 42.1875H57.8125C58.2269 42.1875 58.6243 42.0229 58.9174 41.7299C59.2104 41.4368 59.375 41.0394 59.375 40.625C59.375 40.2106 59.2104 39.8132 58.9174 39.5201C58.6243 39.2271 58.2269 39.0625 57.8125 39.0625H42.1875Z" fill="#D6E4E8"/>
<path d="M85.9375 10.9375H14.0625L17.1875 1.5625H82.8125L85.9375 10.9375Z" fill="#D34444"/>
<path d="M43.75 39.0625H56.25L85.9375 10.9375L82.8125 1.5625L43.75 39.0625Z" fill="#F96464"/>
<path d="M52.3437 30.8125L46.0781 36.8281L48.4375 39.0625H56.25L58.6094 36.8281L52.3437 30.8125Z" fill="#D34444"/>
<path d="M56.25 39.0625H43.75L14.0625 10.9375L17.1875 1.5625L56.25 39.0625Z" fill="#F96464"/>
<path d="M50 98.4375C63.8071 98.4375 75 87.2446 75 73.4375C75 59.6304 63.8071 48.4375 50 48.4375C36.1929 48.4375 25 59.6304 25 73.4375C25 87.2446 36.1929 98.4375 50 98.4375Z" fill="#F8C460"/>
<path d="M50 92.1875C60.3553 92.1875 68.75 83.7928 68.75 73.4375C68.75 63.0822 60.3553 54.6875 50 54.6875C39.6447 54.6875 31.25 63.0822 31.25 73.4375C31.25 83.7928 39.6447 92.1875 50 92.1875Z" fill="#FCAB68"/>
<path d="M54.6875 87.5002C51.2622 87.5029 47.9018 86.5665 44.9714 84.7929C42.0411 83.0193 39.653 80.4763 38.0669 77.4404C36.4807 74.4045 35.7571 70.9919 35.9748 67.5736C36.1925 64.1552 37.3431 60.8619 39.3016 58.0518C37.0484 59.6162 35.1661 61.6562 33.7875 64.0277C32.4089 66.3991 31.5677 69.0443 31.3232 71.7765C31.0788 74.5086 31.437 77.2611 32.3726 79.8396C33.3083 82.4182 34.7985 84.7599 36.7381 86.6996C38.6778 88.6392 41.0195 90.1294 43.5981 91.0651C46.1766 92.0007 48.9291 92.3589 51.6612 92.1145C54.3934 91.87 57.0386 91.0288 59.41 89.6502C61.7815 88.2716 63.8215 86.3893 65.3859 84.1361C62.2497 86.3291 58.5144 87.5036 54.6875 87.5002Z" fill="#EA8E49"/>
<path d="M53.125 81.25V64.0625C53.125 63.2337 52.7958 62.4388 52.2097 61.8528C51.6237 61.2667 50.8288 60.9375 50 60.9375C49.5149 60.9375 49.0364 61.0505 48.6025 61.2674C48.1685 61.4844 47.7911 61.7994 47.5 62.1875L43.75 67.1875H46.875V81.25H46.0938C45.4721 81.25 44.876 81.4969 44.4365 81.9365C43.9969 82.376 43.75 82.9721 43.75 83.5938C43.75 84.2154 43.9969 84.8115 44.4365 85.251C44.876 85.6906 45.4721 85.9375 46.0938 85.9375H53.9062C54.5279 85.9375 55.124 85.6906 55.5635 85.251C56.0031 84.8115 56.25 84.2154 56.25 83.5938C56.25 82.9721 56.0031 82.376 55.5635 81.9365C55.124 81.4969 54.5279 81.25 53.9062 81.25H53.125Z" fill="#F96464"/>
</svg>
