<svg width="48" height="48" viewBox="0 0 48 48" fill="none" xmlns="http://www.w3.org/2000/svg">
<path d="M36.7396 40.7966L41.8046 40.802C41.8046 42.1732 40.6713 44.7279 39.2713 44.7279H11.8794" stroke="black" stroke-linecap="round" stroke-linejoin="round"/>
<path d="M36.7785 37.0919L36.7341 40.7933H14.4071C14.4071 42.1776 13.2893 44.7094 11.8827 44.7242H11.8679C11.5391 44.7272 11.2128 44.6651 10.9081 44.5415C10.6033 44.4179 10.326 44.2353 10.092 44.0041C9.8581 43.7729 9.67219 43.4978 9.54501 43.1945C9.41783 42.8912 9.35187 42.5657 9.35095 42.2369V5.75561C9.34799 5.42578 9.27985 5.09978 9.15047 4.79637C9.02108 4.49296 8.83299 4.21812 8.59702 3.98765C8.36105 3.75719 8.08185 3.57564 7.77547 3.45345C7.46909 3.33126 7.14158 3.27084 6.81177 3.27566H34.2023C34.5317 3.27097 34.8588 3.33154 35.1647 3.45387C35.4706 3.5762 35.7493 3.75787 35.9846 3.98841C36.22 4.21895 36.4074 4.49379 36.536 4.7971C36.6646 5.1004 36.732 5.42617 36.7341 5.75561L36.7415 8.59091" stroke="black" stroke-linecap="round" stroke-linejoin="round"/>
<path d="M36.8079 28.2605L36.7783 20.4209" stroke="black" stroke-linecap="round" stroke-linejoin="round"/>
<path d="M6.81463 3.27198C6.81463 3.27198 1.44232 3.23946 0.75 7.9156H9.34604" stroke="black" stroke-linecap="round" stroke-linejoin="round"/>
<path d="M41.7104 28.2578H31.9319V33.9094H41.7104V28.2578Z" stroke="black" stroke-linecap="round" stroke-linejoin="round"/>
<path d="M41.7104 33.9094C41.7104 35.668 39.5214 37.0937 36.8211 37.0937C34.1209 37.0937 31.9319 35.668 31.9319 33.9094" stroke="black" stroke-linecap="round" stroke-linejoin="round"/>
<path d="M41.6342 28.2588C43.7056 27.1813 45.3555 25.4397 46.3195 23.3131C47.2836 21.1866 47.5061 18.798 46.9515 16.5299C46.3968 14.2618 45.0971 12.2455 43.2604 10.8038C41.4237 9.36219 39.1563 8.57861 36.8214 8.57861C34.4865 8.57861 32.2191 9.36219 30.3824 10.8038C28.5458 12.2455 27.246 14.2618 26.6913 16.5299C26.1367 18.798 26.3592 21.1866 27.3233 23.3131C28.2874 25.4397 29.9372 27.1813 32.0086 28.2588" stroke="black" stroke-linecap="round" stroke-linejoin="round"/>
<path d="M39.3727 18.4236L36.8213 20.4494" stroke="black" stroke-linecap="round" stroke-linejoin="round"/>
<path d="M34.27 18.4236L36.8214 20.4494" stroke="black" stroke-linecap="round" stroke-linejoin="round"/>
<path d="M26.5999 21.0946H15.1692V9.09009H33.6147" stroke="black" stroke-linecap="round" stroke-linejoin="round"/>
<path d="M15.166 28.2578H21.9999" stroke="black" stroke-linecap="round" stroke-linejoin="round"/>
<path d="M15.166 32.384H28.0856" stroke="black" stroke-linecap="round" stroke-linejoin="round"/>
<path d="M15.166 35.9944H28.0856" stroke="black" stroke-linecap="round" stroke-linejoin="round"/>
</svg>
