<svg width="36" height="36" viewBox="0 0 36 36" fill="none" xmlns="http://www.w3.org/2000/svg">
<path d="M35.3487 19.3078L18.1925 2.15157C18.08 2.03907 17.9112 2.03907 17.7987 2.15157L4.12998 15.8203L0.64248 19.3078C0.52998 19.4203 0.52998 19.5891 0.64248 19.7016C0.75498 19.8141 0.92373 19.8141 1.03623 19.7016L4.01748 16.7203V31.6266C4.01748 32.2453 4.24248 32.8078 4.69248 33.2578C5.14248 33.7078 5.70498 33.9328 6.32373 33.9328H29.6675C30.2862 33.9328 30.8487 33.7078 31.2987 33.2578C31.7487 32.8078 31.9737 32.2453 31.9737 31.6266V16.6641L35.0112 19.7016C35.1237 19.8141 35.2925 19.8141 35.405 19.7016C35.4612 19.5891 35.4612 19.4203 35.3487 19.3078Z" fill="#F1F1F2"/>
<path d="M31.4112 32.189C31.4112 32.639 31.2425 33.0891 30.905 33.4265C30.5675 33.764 30.1175 33.9328 29.6675 33.9328H6.32371C5.87371 33.9328 5.42371 33.764 5.08621 33.4265C4.74871 33.0891 4.57996 32.639 4.57996 32.189V16.6641L18.0237 3.27655L31.4112 16.6641V32.189Z" fill="#F1F1F2"/>
<path fill-rule="evenodd" clip-rule="evenodd" d="M22.9737 26.9578C22.9737 26.0016 22.5799 25.0453 21.9049 24.3703C21.2299 23.6953 20.2737 23.3016 19.3174 23.3016H16.8987C15.9424 23.3016 14.9862 23.6953 14.3112 24.3703C13.6362 25.0453 13.2424 26.0016 13.2424 26.9578V33.8766H13.8049V27.4078C13.8049 26.4516 14.1424 25.5516 14.7049 24.8766C15.2674 24.2016 16.1112 23.8078 16.8987 23.8078H19.3174C20.1612 23.8078 20.9487 24.2016 21.5112 24.8766C22.0737 25.5516 22.4112 26.4516 22.4112 27.4078V33.8766H22.9737V26.9578Z" fill="#3C20B1"/>
</svg>
