<svg width="64" height="64" viewBox="0 0 64 64" fill="none" xmlns="http://www.w3.org/2000/svg">
<path d="M62.8422 34.325L32.3422 3.82499C32.1422 3.62499 31.8422 3.62499 31.6422 3.82499L7.34219 28.125L1.14219 34.325C0.942188 34.525 0.942188 34.825 1.14219 35.025C1.34219 35.225 1.64219 35.225 1.84219 35.025L7.14219 29.725V56.225C7.14219 57.325 7.54219 58.325 8.34219 59.125C9.14219 59.925 10.1422 60.325 11.2422 60.325H52.7422C53.8422 60.325 54.8422 59.925 55.6422 59.125C56.4422 58.325 56.8422 57.325 56.8422 56.225V29.625L62.2422 35.025C62.4422 35.225 62.7422 35.225 62.9422 35.025C63.0422 34.825 63.0422 34.525 62.8422 34.325Z" fill="#F1F1F2"/>
<path d="M55.8422 57.225C55.8422 58.025 55.5422 58.825 54.9422 59.425C54.3422 60.025 53.5422 60.325 52.7422 60.325H11.2422C10.4422 60.325 9.64221 60.025 9.04221 59.425C8.44221 58.825 8.14221 58.025 8.14221 57.225V29.625L32.0422 5.82501L55.8422 29.625V57.225Z" fill="#F1F1F2"/>
<path fill-rule="evenodd" clip-rule="evenodd" d="M40.8422 47.925C40.8422 46.225 40.1422 44.525 38.9422 43.325C37.7422 42.125 36.0422 41.425 34.3422 41.425H30.0422C28.3422 41.425 26.6422 42.125 25.4422 43.325C24.2422 44.525 23.5422 46.225 23.5422 47.925V60.225H24.5422V48.725C24.5422 47.025 25.1422 45.425 26.1422 44.225C27.1422 43.025 28.6422 42.325 30.0422 42.325H34.3422C35.8422 42.325 37.2422 43.025 38.2422 44.225C39.2422 45.425 39.8422 47.025 39.8422 48.725V60.225H40.8422V47.925Z" fill="#3C20B1"/>
</svg>
