<svg width="37" height="36" viewBox="0 0 37 36" fill="none" xmlns="http://www.w3.org/2000/svg">
<g clip-path="url(#clip0_672_8591)">
<path d="M34.6712 12.693H2.8288C1.99137 12.693 1.3125 13.3719 1.3125 14.2093V29.3723C1.3125 30.2098 1.99137 30.8886 2.8288 30.8886H34.6712C35.5086 30.8886 36.1875 30.2098 36.1875 29.3723V14.2093C36.1875 13.3719 35.5086 12.693 34.6712 12.693Z" stroke="#F1F1F2" stroke-miterlimit="10" stroke-linecap="square"/>
<path d="M18.75 12.693V5.11145" stroke="#F1F1F2" stroke-miterlimit="10" stroke-linecap="square"/>
<path d="M11.9266 21.7908H5.86139" stroke="#F1F1F2" stroke-miterlimit="10" stroke-linecap="square"/>
<path d="M8.89404 18.7582V24.8234" stroke="#F1F1F2" stroke-miterlimit="10" stroke-linecap="square"/>
<path d="M29.3721 18.5081C29.3721 18.9312 29.0291 19.2742 28.606 19.2742C28.1829 19.2742 27.8399 18.9312 27.8399 18.5081C27.8399 18.0849 28.1829 17.7419 28.606 17.7419C29.0291 17.7419 29.3721 18.0849 29.3721 18.5081Z" fill="#F1F1F2" stroke="#F1F1F2"/>
<path d="M26.0893 21.7908C26.0893 22.2139 25.7463 22.5569 25.3232 22.5569C24.9001 22.5569 24.5571 22.2139 24.5571 21.7908C24.5571 21.3677 24.9001 21.0247 25.3232 21.0247C25.7463 21.0247 26.0893 21.3677 26.0893 21.7908Z" fill="#F1F1F2" stroke="#F1F1F2"/>
<path d="M29.3721 25.0736C29.3721 25.4967 29.0291 25.8397 28.606 25.8397C28.1829 25.8397 27.8399 25.4967 27.8399 25.0736C27.8399 24.6505 28.1829 24.3075 28.606 24.3075C29.0291 24.3075 29.3721 24.6505 29.3721 25.0736Z" fill="#F1F1F2" stroke="#F1F1F2"/>
<path d="M32.6548 21.7908C32.6548 22.2139 32.3118 22.5569 31.8887 22.5569C31.4656 22.5569 31.1226 22.2139 31.1226 21.7908C31.1226 21.3677 31.4656 21.0247 31.8887 21.0247C32.3118 21.0247 32.6548 21.3677 32.6548 21.7908Z" fill="#F1F1F2" stroke="#F1F1F2"/>
</g>
<defs>
<clipPath id="clip0_672_8591">
<rect width="36" height="36" fill="white" transform="translate(0.75)"/>
</clipPath>
</defs>
</svg>
