<svg width="64" height="64" viewBox="0 0 64 64" fill="none" xmlns="http://www.w3.org/2000/svg">
<path d="M63 32C63 34.6264 62.5842 37.2272 61.7764 39.6537C60.9686 42.0802 59.7846 44.285 58.292 46.1421C56.7994 47.9993 55.0274 49.4725 53.0772 50.4776C51.127 51.4827 49.0368 52 46.9259 52H17.0741C14.9632 52 12.873 51.4827 10.9228 50.4776C8.9726 49.4725 7.2006 47.9993 5.70799 46.1421C4.21537 44.285 3.03136 42.0802 2.22357 39.6537C1.41577 37.2272 1 34.6264 1 32C1 29.3736 1.41577 26.7728 2.22357 24.3463C3.03136 21.9198 4.21537 19.715 5.70799 17.8579C7.2006 16.0007 8.9726 14.5275 10.9228 13.5224C12.873 12.5173 14.9632 12 17.0741 12H46.9259C49.0368 12 51.127 12.5173 53.0772 13.5224C55.0274 14.5275 56.7994 16.0007 58.292 17.8579C59.7846 19.715 60.9686 21.9198 61.7764 24.3463C62.5842 26.7728 63 29.3736 63 32V32Z" stroke="#F1F1F2" stroke-miterlimit="10"/>
<path d="M43.4815 22.8148H20.5185C19.8844 22.8148 19.3704 23.3289 19.3704 23.963V40.037C19.3704 40.6711 19.8844 41.1852 20.5185 41.1852H43.4815C44.1156 41.1852 44.6296 40.6711 44.6296 40.037V23.963C44.6296 23.3289 44.1156 22.8148 43.4815 22.8148Z" stroke="#F1F1F2" stroke-miterlimit="10"/>
<path d="M14.7778 32H5.59259" stroke="#F1F1F2" stroke-miterlimit="10" stroke-linecap="square"/>
<path d="M10.1852 27.4073V36.5925" stroke="#F1F1F2" stroke-miterlimit="10" stroke-linecap="square"/>
<path d="M53.8148 30.0941C54.8738 30.0941 55.7322 29.2356 55.7322 28.1767C55.7322 27.1177 54.8738 26.2593 53.8148 26.2593C52.7559 26.2593 51.8974 27.1177 51.8974 28.1767C51.8974 29.2356 52.7559 30.0941 53.8148 30.0941Z" fill="#F1F1F2"/>
<path d="M49.9915 33.9173C51.0505 33.9173 51.9089 33.0589 51.9089 31.9999C51.9089 30.941 51.0505 30.0825 49.9915 30.0825C48.9325 30.0825 48.0741 30.941 48.0741 31.9999C48.0741 33.0589 48.9325 33.9173 49.9915 33.9173Z" fill="#F1F1F2"/>
<path d="M53.8148 37.7407C54.8738 37.7407 55.7322 36.8822 55.7322 35.8233C55.7322 34.7643 54.8738 33.9059 53.8148 33.9059C52.7559 33.9059 51.8974 34.7643 51.8974 35.8233C51.8974 36.8822 52.7559 37.7407 53.8148 37.7407Z" fill="#F1F1F2"/>
<path d="M57.6382 33.9173C58.6971 33.9173 59.5556 33.0589 59.5556 31.9999C59.5556 30.941 58.6971 30.0825 57.6382 30.0825C56.5792 30.0825 55.7208 30.941 55.7208 31.9999C55.7208 33.0589 56.5792 33.9173 57.6382 33.9173Z" fill="#F1F1F2"/>
</svg>
