<svg width="120" height="120" viewBox="0 0 120 120" fill="none" xmlns="http://www.w3.org/2000/svg">
<mask id="mask0_467_19175" style="mask-type:alpha" maskUnits="userSpaceOnUse" x="0" y="0" width="120" height="120">
<circle cx="60" cy="60" r="60" fill="#C4C4C4"/>
</mask>
<g mask="url(#mask0_467_19175)">
<path d="M194.438 -33.3745H-73.125V461.438H194.438V-33.3745Z" fill="white"/>
<path d="M57.0001 11.6255C58.1251 11.6255 58.8751 12.0004 58.8751 12.7504C58.8751 13.5004 58.1251 13.8755 57.0001 14.063C55.8751 14.063 55.1251 13.688 55.1251 12.938C55.3126 12.3755 56.0626 11.6255 57.0001 11.6255Z" fill="#35052C"/>
<path d="M79.5 39.188C79.3125 37.5005 77.4375 36.1879 74.25 35.2504C70.3125 34.1254 64.6875 33.563 58.3125 34.1255C55.125 34.313 52.125 34.8755 49.3125 35.438C46.875 35.813 44.8125 36.7505 43.3125 37.5005C42.375 37.8755 41.4375 38.438 40.875 38.813C39.5625 39.7505 38.4375 40.8755 38.4375 42.0005C38.4375 41.063 38.8125 38.2504 41.25 32.4379C41.25 32.2504 41.25 32.2504 41.4375 32.0629V31.313L41.25 25.688C41.0625 19.5005 45.75 13.8755 51.9375 12.938C53.25 12.7505 54.9375 12.563 56.625 12.563C57 12.563 57.5625 12.563 57.9375 12.563C59.25 12.563 60.75 12.563 61.875 12.563C67.875 12.7505 72.75 17.2504 73.6875 23.0629L74.625 28.8755V29.6254C74.625 29.6254 74.625 29.813 74.8125 30.0005C76.3125 31.5005 80.0625 37.1255 79.5 39.188Z" fill="#DBD2D1"/>
<path d="M75.1874 30.0005C74.9999 30.0005 63 25.3129 54.375 29.6254C51.375 30.9379 49.875 33.3755 49.5 35.438C47.0625 35.813 45 36.7505 43.5 37.5005C42.5625 37.8755 41.625 38.438 41.0625 38.813C39.75 39.7505 38.6249 40.8755 38.6249 42.0005C38.6249 41.063 38.9999 38.2504 41.4374 32.4379C41.4374 32.2504 41.4375 32.2504 41.625 32.0629V31.313L41.4374 25.688C41.2499 19.5005 45.9375 13.8755 52.125 12.938C53.4375 12.7505 55.125 12.563 56.8125 12.563C57.1875 12.563 57.75 12.563 58.125 12.563C55.6875 15.0005 54.1875 19.3129 54.9375 26.4379C54.75 26.6254 68.6249 24.563 75.1874 30.0005Z" fill="#B2A4A3"/>
<path d="M112.687 127.313C111 115.688 108 105 104.813 96.7504C104.813 96.5629 104.625 96.3755 104.625 96.3755V96.188C102.187 90.0005 99.9374 84.5629 98.0624 80.8129C95.6249 75.9379 91.875 72.188 87.1875 69.7505L72.3749 61.8755V56.6255C72.3749 57.938 70.5 59.063 67.3125 59.813C65.25 60.188 62.4375 60.7505 59.4375 60.7505C58.5 60.7505 57.3749 60.7505 56.4374 60.7505C55.4999 60.7505 54.5624 60.5629 53.9999 60.5629C53.0624 60.3754 52.125 60.3754 51.5625 60.1879C48.5625 59.4379 46.6875 58.313 46.6875 57.0005V60.938V63.7505L34.6875 68.813C29.625 70.8755 25.125 74.813 22.5 79.688C20.0625 83.6255 17.6249 88.688 15.1874 95.063C15.1874 95.2505 15.1875 95.2505 15 95.438C15 95.438 15 95.6255 14.8125 95.6255C10.875 105.188 7.49992 117.188 5.81242 131.063C1.87492 167.251 13.125 178.688 13.125 178.688L13.5 188.251L27 184.501V190.313H91.6875V184.126H105.187V179.625C104.625 178.688 117.375 159.001 112.687 127.313ZM26.8124 181.313L23.25 174.375H26.8124V181.313Z" fill="#DBD2D1"/>
<path d="M104.625 178.688L99.75 178.313C96.5625 178.313 85.5 80.6255 85.5 80.6255L85.1251 162.376C85.1251 166.313 81.5625 169.501 77.8125 169.126L42.1875 165.938C36.5625 165.563 32.4375 160.688 32.8125 155.063C33.1875 144.938 34.125 127.313 35.25 104.25C36.9375 66.938 51.5625 65.0631 51.5625 65.0631C66.9375 66.7506 72.375 61.3131 72.75 61.3131C64.875 65.8131 59.0626 62.063 57.0001 60.188C56.0626 60.188 55.125 60.0005 54.5625 60.0005C53.625 59.813 52.6875 59.813 52.125 59.6255C49.125 58.8755 47.25 57.7505 47.25 56.438V60.3756V63.1881L35.25 68.2506C30.1875 70.3131 25.6875 74.2506 23.0625 79.1256C20.625 83.0631 18.1876 88.1256 15.7501 94.5006C15.7501 94.6881 15.75 94.688 15.5625 94.8755C15.5625 94.8755 15.5625 95.0631 15.375 95.0631C11.4375 104.626 8.06255 116.625 6.37505 130.501C2.43755 166.688 13.6875 178.126 13.6875 178.126L14.0625 187.688L27.5625 183.938V189.751H92.25L45.375 185.626C44.4375 185.626 43.5 184.688 43.5 183.751C43.5 182.813 44.25 181.876 45.1875 181.876L79.6875 178.126C84.5625 177.751 89.25 179.813 91.875 183.751H105.375L104.063 183.376C102.375 183.001 102.188 180.563 103.875 179.813L104.625 178.688ZM26.8125 181.313L23.2501 174.376H26.8125V181.313Z" fill="#B2A4A3"/>
<path d="M70.875 45.3758C67.6875 46.3133 63.9375 47.0632 59.8125 47.4382C55.6875 47.6257 51.75 47.6258 48.1875 47.2508C42.5625 46.5008 38.8124 44.8132 38.6249 42.3757C38.6249 42.3757 38.6249 42.3757 38.6249 42.1882V42.0008C38.8124 40.3133 40.6875 38.8133 43.5 37.3133C47.25 35.6258 52.5 34.3132 58.5 33.7507C64.6875 33.3757 70.5 33.7507 74.4375 34.8757C77.625 35.8132 79.5 37.3133 79.6875 38.8133C79.875 41.4383 76.3125 43.8758 70.875 45.3758Z" fill="#7F6C6B"/>
<path d="M72.3751 61.3133V56.0633C72.3751 54.7508 70.5002 53.6258 67.3127 52.8758C65.2502 52.5008 62.4376 51.9383 59.4376 51.9383C56.4376 51.9383 53.6252 52.1258 51.3752 52.8758C48.3752 53.6258 46.5001 54.7508 46.5001 56.0633V60.0008C44.8126 60.0008 39.1876 58.1258 40.8751 38.8133C41.6251 38.4383 42.5626 37.8758 43.3126 37.5008C47.0626 35.8133 52.3126 34.5007 58.3126 33.9382C64.5001 33.5632 70.3126 33.9383 74.2501 35.0633C74.4376 35.0633 87.5626 49.8758 72.3751 61.3133Z" fill="#260121"/>
<path d="M72.375 56.063C72.375 57.3755 70.5001 58.5004 67.3126 59.2504C65.2501 59.6254 62.4375 60.1879 59.4375 60.1879C56.4375 60.1879 53.6251 60.0004 51.3751 59.2504C48.3751 58.5004 46.5 57.3755 46.5 56.063C46.5 54.7505 48.3751 53.6255 51.3751 52.8755C53.8126 52.5005 56.4375 51.938 59.4375 51.938C62.4375 51.938 65.2501 52.1255 67.3126 52.8755C70.3126 53.6255 72.375 54.938 72.375 56.063Z" fill="#7F6C6B"/>
<path d="M74.4374 37.3133C74.0624 42.1883 71.2499 41.2507 71.2499 41.2507C71.2499 42.9382 71.0623 44.2508 70.8748 45.7508C69.9373 50.6258 67.3124 51.7507 67.3124 51.7507V59.6257C65.2499 60.0007 62.4374 60.5632 59.4374 60.5632C56.4374 60.5632 53.6249 60.3757 51.3749 59.6257V52.5007C51.3749 52.5007 49.4999 51.5632 48.1874 47.4382C47.8124 46.3132 47.2498 45.0008 47.0623 42.9383C47.0623 42.9383 44.2499 44.8133 43.4999 37.3133C47.2499 35.6258 52.4999 34.3132 58.4999 33.7507C64.6874 33.3757 70.4999 33.7507 74.4374 34.8757C74.4374 36.0007 74.4374 36.5633 74.4374 37.3133Z" fill="#DB6D5E"/>
<path d="M62.4375 22.6882L55.125 23.0632C54.75 23.0632 54.375 22.8758 54.375 22.3133C54.375 21.9383 54.5625 21.5633 55.125 21.5633L62.4375 21.1882C62.8125 21.1882 63.1875 21.3758 63.1875 21.9383C63.1875 22.3133 62.8125 22.6882 62.4375 22.6882Z" fill="#BC473B"/>
<path d="M64.5 24.5632L53.4375 25.3133C53.0625 25.3133 52.6874 25.1257 52.6874 24.5632C52.6874 24.1882 52.875 23.8133 53.4375 23.8133L64.5 23.0632C64.875 23.0632 65.25 23.2508 65.25 23.8133C65.25 24.3758 64.875 24.5632 64.5 24.5632Z" fill="#BC473B"/>
<path d="M74.4375 37.313C71.4375 37.1255 56.8125 36.563 49.875 42.0005C49.875 42.0005 49.875 59.0629 67.5 51.7504C67.5 51.9379 64.6875 55.5004 55.6875 55.5004C55.6875 55.5004 54.5625 61.5005 67.5 59.438C65.4375 59.813 62.625 60.3755 59.625 60.3755C56.625 60.3755 53.8125 60.188 51.5625 59.438V52.313C51.5625 52.313 49.6875 51.3755 48.375 47.2505C48 46.1255 47.4375 44.8129 47.25 42.7504C47.25 42.7504 44.4375 44.6254 43.6875 37.1254C47.4375 35.4379 52.6875 34.1255 58.6875 33.563C64.875 33.188 70.6875 33.5629 74.625 34.6879C74.4375 36.0004 74.4375 36.563 74.4375 37.313Z" fill="#BC473B"/>
<path d="M75.1874 30.0003C65.4374 25.3128 56.8125 26.2504 51.1875 27.9379C46.125 29.2504 42.5624 31.6879 41.4374 32.6254C41.4374 32.4379 41.4375 32.4378 41.625 32.2503V31.5003C43.3125 30.3753 46.5 28.5004 51.1875 27.0004C57 25.3129 65.4375 24.1879 75 28.8754V29.6253C75 29.6253 75.1874 29.6253 75.1874 30.0003Z" fill="#260121"/>
<path d="M54.75 69.7505H63.5625L59.0625 76.8755L54.75 69.7505Z" fill="#DB6D5E"/>
<path d="M12.75 177.751C12.75 177.751 1.31252 166.313 5.43752 130.126C7.12502 116.251 10.5 104.063 14.4375 94.6882C14.4375 94.6882 14.4375 94.5007 14.625 94.5007L15 94.6882C17.4375 96.0007 18.1875 98.8132 17.4375 101.251C6.74995 129.376 13.5 157.501 17.4375 169.688C18.1875 173.063 16.3125 176.813 12.75 177.751Z" fill="#BC473B"/>
<path d="M29.8127 103.125L28.6876 121.125C28.6876 121.125 45.1877 105.563 87.5627 105.563L86.2501 88.1252C51.0001 88.6877 34.1252 99.9377 29.8127 103.125Z" fill="#35052C"/>
<path d="M104.625 178.688C102.187 178.501 100.687 176.251 101.437 173.813C105.375 162.751 114 133.126 102.75 102.188C102 99.7508 102.75 97.5007 104.625 96.1882C104.625 96.3757 104.813 96.5633 104.813 96.5633C107.813 105.188 110.812 115.501 112.687 127.126C117.375 159.001 104.625 178.688 104.625 178.688Z" fill="#35052C"/>
<path d="M104.625 178.688L97.4999 177.75C95.4374 177.563 93.9374 175.875 93.7499 173.813L85.6874 80.6252L90.5623 168.938C90.7498 171.375 88.6874 173.625 86.0624 173.438L36.7498 171.375C31.1248 171.188 26.9999 166.5 27.1874 161.25L31.1248 82.5002L22.8749 174.563H26.4373H90.5623L90.9374 183.563H94.4999L94.3123 180L104.625 178.688Z" fill="#7F6C6B"/>
</g>
</svg>
