<svg width="118" height="112" viewBox="0 0 118 112" fill="none" xmlns="http://www.w3.org/2000/svg">
<path d="M67.8687 26.3927H72.1206V28.9366H46.6067V10.2675H51.71L59.3649 3.47801H60.2138L67.8687 10.2675H72.1206V12.8138H67.8687V18.6319L94.9833 12.4784C84.6525 4.37645 71.8893 -0.0190631 58.75 6.21487e-05C26.3031 6.21487e-05 0 26.2486 0 58.6284C0 82.2784 14.0328 102.652 34.2418 111.923C34.8741 110.432 37.2714 104.746 38.1377 101.288C38.9045 98.2198 40.1417 89.2865 40.1417 89.2865H77.6322C77.6322 89.2865 78.949 99.8992 79.2254 101.288C80.0992 105.64 82.489 110.75 83.0939 112C90.6672 108.556 97.4213 103.547 102.909 97.3035C108.397 91.06 112.494 83.7245 114.929 75.7827C117.363 67.8408 118.08 59.4735 117.032 51.2345C115.983 42.9955 113.193 35.0726 108.847 27.9901L67.8687 18.6891V26.3927ZM75.1427 68.7293H43.3953L45.2848 46.4754H73.2533L75.1427 68.7293Z" fill="#792DE9"/>
</svg>
