<svg width="100" height="100" viewBox="0 0 100 100" fill="none" xmlns="http://www.w3.org/2000/svg">
<path d="M53.125 43.75H46.875V51.5625H53.125V43.75Z" fill="#F96464"/>
<path d="M57.8125 45.3125H42.1875C40.9443 45.3125 39.752 44.8186 38.8729 43.9396C37.9939 43.0605 37.5 41.8682 37.5 40.625C37.5 39.3818 37.9939 38.1895 38.8729 37.3104C39.752 36.4314 40.9443 35.9375 42.1875 35.9375H57.8125C59.0557 35.9375 60.248 36.4314 61.1271 37.3104C62.0061 38.1895 62.5 39.3818 62.5 40.625C62.5 41.8682 62.0061 43.0605 61.1271 43.9396C60.248 44.8186 59.0557 45.3125 57.8125 45.3125ZM42.1875 39.0625C41.7731 39.0625 41.3757 39.2271 41.0826 39.5201C40.7896 39.8132 40.625 40.2106 40.625 40.625C40.625 41.0394 40.7896 41.4368 41.0826 41.7299C41.3757 42.0229 41.7731 42.1875 42.1875 42.1875H57.8125C58.2269 42.1875 58.6243 42.0229 58.9174 41.7299C59.2104 41.4368 59.375 41.0394 59.375 40.625C59.375 40.2106 59.2104 39.8132 58.9174 39.5201C58.6243 39.2271 58.2269 39.0625 57.8125 39.0625H42.1875Z" fill="#D6E4E8"/>
<path d="M85.9375 10.9375H14.0625L17.1875 1.5625H82.8125L85.9375 10.9375Z" fill="#D34444"/>
<path d="M43.75 39.0625H56.25L85.9375 10.9375L82.8125 1.5625L43.75 39.0625Z" fill="#F96464"/>
<path d="M52.3437 30.8125L46.0781 36.8281L48.4375 39.0625H56.25L58.6094 36.8281L52.3437 30.8125Z" fill="#D34444"/>
<path d="M56.25 39.0625H43.75L14.0625 10.9375L17.1875 1.5625L56.25 39.0625Z" fill="#F96464"/>
<path d="M50 98.4375C63.8071 98.4375 75 87.2446 75 73.4375C75 59.6304 63.8071 48.4375 50 48.4375C36.1929 48.4375 25 59.6304 25 73.4375C25 87.2446 36.1929 98.4375 50 98.4375Z" fill="#F8C460"/>
<path d="M50 92.1875C60.3553 92.1875 68.75 83.7928 68.75 73.4375C68.75 63.0822 60.3553 54.6875 50 54.6875C39.6447 54.6875 31.25 63.0822 31.25 73.4375C31.25 83.7928 39.6447 92.1875 50 92.1875Z" fill="#FCAB68"/>
<path d="M54.6875 87.5002C51.2622 87.5029 47.9018 86.5665 44.9714 84.7929C42.0411 83.0193 39.653 80.4763 38.0669 77.4404C36.4807 74.4045 35.7571 70.9919 35.9748 67.5736C36.1925 64.1552 37.3431 60.8619 39.3016 58.0518C37.0484 59.6162 35.1661 61.6562 33.7875 64.0277C32.4089 66.3991 31.5677 69.0443 31.3232 71.7765C31.0788 74.5086 31.437 77.2611 32.3726 79.8396C33.3083 82.4182 34.7985 84.7599 36.7381 86.6996C38.6778 88.6392 41.0195 90.1294 43.5981 91.0651C46.1766 92.0007 48.9291 92.3589 51.6612 92.1145C54.3934 91.87 57.0386 91.0288 59.41 89.6502C61.7815 88.2716 63.8215 86.3893 65.3859 84.1361C62.2497 86.3291 58.5144 87.5036 54.6875 87.5002Z" fill="#EA8E49"/>
<path d="M50 60.9375C47.928 60.9375 45.9409 61.7606 44.4757 63.2257C43.0106 64.6909 42.1875 66.678 42.1875 68.75V69.5312C42.1875 70.1529 42.4344 70.749 42.874 71.1885C43.3135 71.6281 43.9096 71.875 44.5312 71.875C45.1529 71.875 45.749 71.6281 46.1885 71.1885C46.6281 70.749 46.875 70.1529 46.875 69.5312V68.75C46.875 67.9212 47.2042 67.1263 47.7903 66.5403C48.3763 65.9542 49.1712 65.625 50 65.625C50.8288 65.625 51.6237 65.9542 52.2097 66.5403C52.7958 67.1263 53.125 67.9212 53.125 68.75V69.0188C53.1248 69.8475 52.7955 70.6422 52.2094 71.2281L43.1031 80.3344C42.517 80.9203 42.1877 81.715 42.1875 82.5437V82.8125C42.1875 83.6413 42.5167 84.4362 43.1028 85.0222C43.6888 85.6083 44.4837 85.9375 45.3125 85.9375H55.4688C56.0904 85.9375 56.6865 85.6906 57.126 85.251C57.5656 84.8115 57.8125 84.2154 57.8125 83.5938C57.8125 82.9721 57.5656 82.376 57.126 81.9365C56.6865 81.4969 56.0904 81.25 55.4688 81.25H48.4375L55.9812 73.7063C56.5618 73.1258 57.0224 72.4367 57.3366 71.6783C57.6508 70.9198 57.8125 70.1069 57.8125 69.2859V68.75C57.8125 66.678 56.9894 64.6909 55.5243 63.2257C54.0591 61.7606 52.072 60.9375 50 60.9375Z" fill="#F96464"/>
</svg>
