<svg width="160" height="96" viewBox="0 0 160 96" fill="none" xmlns="http://www.w3.org/2000/svg">
<path d="M62.324 35.3504C62.3415 38.6728 61.7117 41.9668 60.47 45.0485C59.2333 48.1316 57.6035 51.042 55.621 53.7074C53.5824 56.406 51.2826 58.8969 48.755 61.1439C46.2711 63.3267 43.6658 65.3673 40.9517 67.2561H61.0405L59.5328 93.7423L0 91.7049V68.5397C2.2683 67.7926 4.63168 66.8758 7.09014 65.7892C9.59991 64.6695 12.0422 63.4041 14.4044 61.9996C16.8006 60.6267 19.089 59.0738 21.2501 57.3544C23.3416 55.6739 25.2411 53.7676 26.914 51.67C28.5365 49.6372 29.8416 47.3704 30.7851 44.9466C31.7606 42.4616 32.2517 39.8129 32.2316 37.1434C32.2631 35.6696 31.9637 34.2076 31.3556 32.8648C30.8053 31.6714 29.99 30.6192 28.9718 29.7884C27.931 28.9481 26.7326 28.3246 25.4471 27.9547C24.0592 27.5393 22.6172 27.3333 21.1686 27.3435C19.8611 27.3501 18.5576 27.4866 17.2771 27.751C15.956 28.036 14.6611 28.4313 13.4061 28.9326C12.1459 29.4386 10.9381 30.0664 9.79989 30.8071C8.70686 31.5306 7.69577 32.3708 6.78451 33.313L1.20206 8.39565C2.79383 6.81538 4.6138 5.48302 6.60115 4.4431C8.65483 3.38724 10.8037 2.52772 13.019 1.87598C15.2658 1.21743 17.5618 0.740503 19.885 0.449798C22.1616 0.151749 24.4551 0.00202188 26.751 0.00156724C31.5512 -0.0433628 36.3114 0.878182 40.748 2.71131C44.9578 4.43325 48.7917 6.95918 52.0352 10.1478C55.2734 13.3523 57.8428 17.1682 59.5939 21.3739C61.4504 25.7969 62.3796 30.5539 62.324 35.3504Z" fill="#FDDCA1"/>
<path d="M98.1212 18.2362C98.1279 19.4593 97.9773 20.6782 97.673 21.8628C97.3998 22.9981 96.9821 24.0937 96.4301 25.1226C95.8752 26.1438 95.1904 27.0889 94.3927 27.9342C93.6248 28.7684 92.7476 29.4949 91.7849 30.0939C89.7493 31.3764 87.3857 32.0417 84.98 32.009C83.782 32.0217 82.5884 31.864 81.4349 31.5404C79.2465 30.9245 77.2562 29.7497 75.6594 28.1315C74.0626 26.5133 72.9145 24.5074 72.3277 22.311C71.7162 20.001 71.7162 17.5716 72.3277 15.2616C72.6044 14.1339 73.0219 13.0455 73.5705 12.0222C74.1326 11.0055 74.8168 10.0613 75.6079 9.21054C76.3584 8.36441 77.2143 7.61807 78.1547 6.98978C79.1195 6.36153 80.1692 5.87442 81.2719 5.54323C82.4139 5.1945 83.6026 5.02272 84.7966 5.03388C86.6568 5.01117 88.506 5.32168 90.2568 5.95071C91.8331 6.52134 93.2669 7.42704 94.4593 8.60536C95.6517 9.78369 96.5743 11.2066 97.1636 12.776C97.8203 14.5205 98.1451 16.3724 98.1212 18.2362V18.2362ZM88.9529 18.7863C88.9532 18.2004 88.8709 17.6174 88.7084 17.0545C88.536 16.5226 88.2816 16.0208 87.9546 15.5672C87.62 15.1433 87.2044 14.7901 86.7321 14.5281C86.2113 14.2532 85.63 14.1131 85.0411 14.1207C84.4459 14.1132 83.8558 14.2312 83.3093 14.467C82.815 14.6959 82.3717 15.0215 82.0054 15.4246C81.6324 15.8379 81.3481 16.3233 81.17 16.8508C80.9717 17.4062 80.8751 17.9929 80.8848 18.5826C80.8874 19.1683 80.9696 19.7509 81.1293 20.3144C81.2857 20.8741 81.5335 21.4042 81.8627 21.8832C82.1891 22.3365 82.6052 22.718 83.0852 23.0037C83.607 23.2971 84.1981 23.4449 84.7966 23.4316C85.3942 23.4426 85.9865 23.3171 86.5284 23.0649C87.0373 22.8144 87.4884 22.4605 87.8527 22.0258C88.2107 21.5825 88.4867 21.0788 88.6677 20.5385C88.8629 19.9752 88.9594 19.3824 88.9529 18.7863V18.7863Z" fill="#FDDCA1"/>
<path d="M71.5736 41.6255V36.6135H98.508V41.6255H71.5736Z" fill="#FDDCA1"/>
<path d="M84.8167 86.7135L84.1851 93.3554L71.5736 94.3537C71.5736 90.8698 71.6959 87.4062 71.7774 83.963C71.8589 80.5198 71.9404 77.0562 72.0626 73.5723H79.8454C79.601 75.7523 79.3972 77.9323 79.1731 80.1327C78.949 82.3331 78.8268 84.4927 78.7249 86.7135H80.1307H84.8167V86.7135Z" fill="#FDDCA1"/>
<path d="M103.357 74.2242C102.909 77.7489 102.522 81.2328 102.196 84.7168C101.87 88.2008 101.584 91.7051 101.299 95.2298L95.187 95.678L95.4723 93.3554C95.2692 93.5963 95.0284 93.8028 94.7592 93.9666C94.4972 94.1338 94.2169 94.2705 93.9239 94.3741C93.6197 94.4798 93.3058 94.5549 92.9867 94.5982C92.6814 94.6184 92.3751 94.6184 92.0698 94.5982C91.4111 94.587 90.7609 94.4486 90.1547 94.1907C89.5594 93.9424 89.0088 93.5983 88.5248 93.172C88.0084 92.7363 87.5496 92.2365 87.1597 91.6847C86.7641 91.1315 86.4294 90.5372 86.1614 89.9122C85.884 89.2978 85.6723 88.6559 85.5298 87.997C85.3873 87.3822 85.3122 86.7537 85.3057 86.1226C85.3057 85.2261 85.3057 84.2889 85.3057 83.3314C85.3057 82.3738 85.4075 81.294 85.489 80.4383C85.5705 79.5826 85.6928 78.4009 85.8354 77.5655C85.9897 76.6451 86.1937 75.7338 86.4466 74.8354L90.1139 74.9984C91.3364 74.9984 92.5588 74.9984 93.7813 74.9984L93.1089 77.6063C92.8848 78.4824 92.681 79.3584 92.4977 80.2549C92.3143 81.1513 92.1717 82.0071 92.0698 82.9035C91.9546 83.7952 91.9002 84.6938 91.9068 85.5929C91.9068 85.817 91.9068 86.1022 91.9068 86.4893C91.9297 86.8802 91.9842 87.2686 92.0698 87.6506C92.1361 88.0045 92.2673 88.343 92.4569 88.649C92.5281 88.7808 92.6342 88.8905 92.7635 88.966C92.8929 89.0415 93.0406 89.0798 93.1904 89.0768C93.3857 89.0755 93.5784 89.031 93.7545 88.9465C93.9306 88.8619 94.0859 88.7395 94.2091 88.5879C94.5472 88.2023 94.8161 87.7612 95.0037 87.2839C95.2542 86.6633 95.4519 86.0227 95.5945 85.3688C95.7575 84.6557 95.9001 83.9018 96.0224 83.1276C96.1446 82.3534 96.2261 81.5384 96.2872 80.7439C96.3484 79.9493 96.4095 79.1954 96.4502 78.5027C96.491 77.81 96.4502 77.158 96.4502 76.6079C96.4502 76.0578 96.4502 75.6096 96.4502 75.304C96.4608 75.1072 96.4608 74.91 96.4502 74.7132C96.4502 74.5298 96.4502 74.3261 96.4502 74.1223H98.4876H101.91C102.372 74.1902 102.854 74.2242 103.357 74.2242Z" fill="#FDDCA1"/>
<path d="M122.122 91.8875C121.639 92.5008 121.053 93.0249 120.39 93.436C119.69 93.8793 118.946 94.248 118.169 94.5362C116.636 95.1019 115.015 95.3916 113.381 95.3919C111.988 95.4167 110.603 95.1675 109.306 94.6584C108.128 94.197 107.054 93.5042 106.148 92.621C105.267 91.729 104.574 90.6689 104.111 89.5038C103.596 88.2506 103.339 86.9061 103.357 85.5512C103.356 84.4811 103.479 83.4146 103.724 82.3729C103.964 81.368 104.327 80.3963 104.804 79.4798C105.263 78.5909 105.831 77.7627 106.495 77.0145C107.156 76.2319 107.924 75.546 108.777 74.9771C109.641 74.4289 110.582 74.0102 111.568 73.7343C112.613 73.4275 113.698 73.2765 114.787 73.2861H116.172C117.147 73.3547 118.11 73.5324 119.045 73.8158C119.485 73.9532 119.908 74.1376 120.308 74.3659L119.942 80.3355C119.384 80.1215 118.803 79.9778 118.21 79.9076C117.636 79.8271 117.057 79.7862 116.478 79.7854C115.719 79.7848 114.964 79.8946 114.237 80.1114C113.576 80.3099 112.96 80.6351 112.424 81.0689C111.903 81.4932 111.485 82.0295 111.201 82.6377C110.889 83.3212 110.736 84.0665 110.753 84.8177C110.748 85.3275 110.816 85.8354 110.957 86.3254C111.084 86.7895 111.298 87.2251 111.588 87.609C111.879 87.9878 112.247 88.3004 112.668 88.5258C113.12 88.7619 113.625 88.881 114.135 88.8722C114.534 88.8667 114.931 88.8119 115.317 88.7092C115.697 88.6194 116.052 88.4453 116.356 88.1998V87.0385H112.75L112.933 82.3729L117.395 82.2303C118.882 82.2303 120.39 82.2303 121.897 82.0876L122.122 91.8875Z" fill="#FDDCA1"/>
<path d="M142.149 93.9658L134.713 94.9234L133.816 91.5413H130.414L129.66 94.9234L122.02 94.1695L127.989 74.2234L136.302 73.8159L142.149 93.9658ZM133.307 86.9571L132.166 81.7414L131.066 86.9571H133.307Z" fill="#FDDCA1"/>
<path d="M159.997 80.8255C160.001 81.5099 159.932 82.1928 159.793 82.8629C159.671 83.4688 159.458 84.0527 159.161 84.5947C158.868 85.1399 158.49 85.6351 158.041 86.0616C157.529 86.5511 156.969 86.988 156.37 87.3656L159.936 93.7019L153.212 95.0262L150.91 88.6491H149.036L148.771 94.7613H142.332C142.332 92.4998 142.332 90.2179 142.475 87.9768C142.618 85.7356 142.577 83.4538 142.638 81.1719V77.7694C142.638 76.6285 142.679 75.4875 142.76 74.3466C143.453 74.0817 144.146 73.878 144.798 73.6946C145.45 73.5112 146.163 73.4094 146.835 73.3075C147.507 73.2056 148.221 73.1445 148.873 73.1038H151.032C152.149 73.1038 153.26 73.2615 154.333 73.5724C155.348 73.8659 156.301 74.3424 157.144 74.9782C157.989 75.6069 158.684 76.4138 159.182 77.3416C159.753 78.4118 160.034 79.613 159.997 80.8255ZM153.294 81.2941C153.294 80.908 153.239 80.5238 153.131 80.1532C153.019 79.8189 152.846 79.5081 152.621 79.2363C152.387 78.9836 152.102 78.7824 151.786 78.6455C151.411 78.4932 151.009 78.4171 150.604 78.4214H150.013H149.463L149.219 84.0039H149.606C150.045 83.9987 150.483 83.944 150.91 83.8409C151.334 83.7336 151.74 83.5618 152.112 83.3315C152.463 83.0964 152.761 82.7912 152.988 82.4351C153.187 82.0874 153.292 81.6944 153.294 81.2941V81.2941Z" fill="#FDDCA1"/>
</svg>
