<svg width="120" height="120" viewBox="0 0 120 120" fill="none" xmlns="http://www.w3.org/2000/svg">
<mask id="mask0_467_19162" style="mask-type:alpha" maskUnits="userSpaceOnUse" x="0" y="0" width="120" height="120">
<circle cx="60" cy="60" r="60" fill="#C4C4C4"/>
</mask>
<g mask="url(#mask0_467_19162)">
<path d="M310.875 -61.6875H-136.5V546H310.875V-61.6875Z" fill="white"/>
<path d="M85.5 48.3748C85.3125 61.3123 82.8751 68.6248 79.5001 72.5623C77.4376 75.1873 75.1876 76.4997 72.7501 76.6872C68.8126 77.6247 65.9999 76.1248 65.9999 76.1248V76.3123L62.8125 86.6248L50.8125 103.875C50.8125 103.875 50.8125 103.875 50.8125 103.687C50.625 101.437 48.1876 86.4373 48.5626 83.0623C48.7501 79.1248 53.625 67.4998 53.625 67.4998L50.9999 65.4372L49.5001 57.7498C49.5001 57.7498 47.4376 54.7498 47.4376 52.1248C47.4376 51.1873 47.6251 50.2497 48.3751 49.4997C51.0001 46.8747 54.375 49.4997 54.375 49.4997C55.5 49.3122 56.6249 48.9372 57.5624 48.5622C57.7499 48.5622 58.1249 48.3748 58.4999 48.3748C59.0624 48.1873 59.6249 48.1873 60.3749 47.8123C60.9374 47.8123 61.3125 47.6247 61.875 47.6247C62.4375 47.4372 63 47.4373 63.75 47.0623C64.875 46.8748 65.8124 46.4998 66.9374 46.1248C67.1249 46.1248 67.8751 45.9373 68.0626 45.9373C68.6251 45.9373 69.1875 45.7497 69.5625 45.7497C69.75 45.7497 70.125 45.7498 70.5 45.5623C70.6875 45.5623 71.0625 45.5623 71.4375 45.3748C72 45.3748 72.5625 45.1873 73.3125 45.1873C73.5 45.1873 73.875 45.1873 74.25 45.1873H74.4374C74.6249 45.1873 74.625 45.1873 75 45.1873C75.5625 45.1873 75.9375 45.1873 76.125 44.9998C76.3125 44.9998 76.6876 44.9998 76.6876 44.9998C77.2501 44.9998 77.6249 44.9998 78.1874 44.9998C78.3749 44.9998 78.375 44.9998 78.75 44.9998C78.9375 44.9998 79.3125 44.9998 79.6875 44.9998H79.875C84.5625 44.9998 86.0626 45.9373 86.0626 45.9373C85.5001 46.3123 85.5 47.4373 85.5 48.3748Z" fill="#FF8F6A"/>
<path d="M85.5 48.375C85.5 47.25 85.5 46.3125 85.5 45.1875C85.5 45.1875 84.3752 44.25 79.3127 44.25H79.125C78.9375 44.25 78.5625 44.25 78.1875 44.25C78.1875 44.25 78.0001 44.25 77.6251 44.25C77.0626 44.25 76.6875 44.25 76.125 44.25C75.9375 44.25 75.5627 44.25 75.5627 44.25C75.3752 44.25 74.625 44.25 74.4375 44.4375C74.25 44.4375 74.2501 44.4375 73.8751 44.4375H73.6877C73.5002 44.4375 73.1252 44.4375 72.7502 44.4375C72.1877 44.4375 71.6252 44.625 70.8752 44.625C70.6877 44.625 70.3127 44.6249 69.9377 44.8124C69.7502 44.8124 69.3752 44.8125 69.0002 45C68.4377 45 68.0626 45.1875 67.5001 45.1875C67.3126 45.1875 66.5626 45.375 66.3751 45.375C65.4376 45.5625 64.3125 45.9375 63.1875 46.3125C62.625 46.5 62.0625 46.5 61.3125 46.875C60.75 46.875 60.3751 47.0625 59.8126 47.0625C59.2501 47.0625 58.6876 47.2499 57.9376 47.6249C57.7501 47.6249 57.3752 47.8125 56.8127 47.8125C55.6877 48 54.75 48.375 53.625 48.75C53.625 48.75 50.4376 46.125 47.6251 48.75C47.0626 49.3125 46.6876 50.6249 46.6876 51.3749C46.6876 51.3749 46.6877 51.3749 46.5002 51.3749C45.5627 51.3749 44.625 50.8125 44.25 50.25C44.0625 50.0625 44.0626 49.3125 44.0626 49.125L43.8751 39.9375C43.8751 39 44.4375 37.875 45.375 37.6875C45.375 37.6875 45.3752 37.6875 45.5627 37.6875C45.5627 37.6875 45.75 34.125 48.1875 30.375C50.25 26.4375 54.3751 22.3125 61.6876 20.625C61.8751 20.625 61.875 20.625 62.25 20.625C76.3125 18 82.3126 30 82.3126 30C84.5626 29.8125 85.5 31.125 85.5 31.125C85.5 31.125 87.5627 38.4375 87.7502 42.375C87.9377 46.3125 86.25 47.8125 85.5 48.375Z" fill="#DDCAE6"/>
<path d="M114.188 205.313L109.875 206.438L100.687 208.688L96.3751 209.813L94.875 210L87.1876 198.75C79.5001 187.5 73.3126 175.5 68.4376 162.938C68.2501 162 67.5001 161.063 67.3126 159.938C67.1251 168.375 65.25 176.625 63.1875 183.375C61.125 190.125 58.5001 195.75 57.0001 198.938C57.0001 199.125 56.8125 199.5 56.4375 199.875C55.5 201 54.375 201.938 52.875 202.125C52.6875 202.125 52.3125 202.125 51.9375 202.125C16.125 202.688 -19.5 187.5 -19.5 187.5C-21.5625 185.438 -24.5624 183.563 -21.5624 168.938C-19.6874 160.125 -15.9375 150.188 -12.75 143.438C-10.875 139.313 -9.56248 136.313 -9.18748 135.75C-14.25 142.5 -17.9998 149.813 -20.9998 156.563C-21.5623 158.063 -22.1248 159.563 -22.8748 160.875C-23.4373 162 -23.8125 163.125 -24 164.438C-24.5625 165.938 -25.1249 167.625 -25.4999 168.75C-27.5624 175.5 -28.4998 180 -28.4998 180H-48.1873C-49.1248 176.438 -49.6874 172.688 -49.6874 168.75C-49.6874 167.25 -49.6874 165.75 -49.6874 164.438C-49.6874 163.313 -49.6875 162.188 -49.5 160.875C-49.5 159.375 -49.3124 157.875 -48.9374 156.563C-43.3124 120.375 -12.1874 80.4375 -1.87494 72.5625C10.6876 62.8125 36.5626 59.25 36.5626 59.25L43.6877 50.4375C44.2502 51.375 45.1876 51.5625 45.9376 51.5625C45.9376 51.5625 45.9375 51.5625 46.125 51.5625C46.125 54.1875 48.1875 57.1875 48.1875 57.1875L49.6876 64.875L52.3126 66.9375C52.3126 66.9375 51.7502 68.4375 51.1877 70.5C49.6877 74.4375 48.0001 80.25 47.6251 82.875C47.4376 86.8125 49.875 104.063 49.875 104.063L58.1251 92.0625L62.0625 86.4375L65.6251 75.9375C65.6251 75.9375 73.3125 79.5 79.125 72C79.6875 73.875 80.0625 75.9375 80.0625 77.625C80.0625 79.875 79.875 81.9375 79.875 81.9375C79.875 81.9375 88.6876 91.6875 91.8751 104.25C93.3751 110.25 95.4375 123.938 96.9375 137.438C99.5625 159.188 104.625 180.375 112.5 200.625L114.188 205.313Z" fill="#4C9CA3"/>
<path d="M62.4377 86.8123L50.4376 104.062C50.4376 104.062 50.4376 104.062 50.4376 103.875V103.687V103.5C50.4376 103.5 50.4376 103.5 50.4376 103.312C50.4376 103.312 50.4376 103.312 50.4376 103.125C50.4376 102.937 50.4376 102.562 50.4376 102.187V102C50.2501 100.875 50.25 99.3748 49.875 97.6873C49.875 97.4998 49.875 97.4998 49.875 97.1248C49.875 96.1873 49.6876 95.2497 49.6876 94.4997C49.6876 94.3122 49.6876 94.3123 49.6876 93.9373C49.6876 92.8123 49.5001 91.8747 49.5001 90.7497V90.5623V90.3748V90.1873V89.9998V89.8122C49.5001 89.6247 49.5001 89.2498 49.5001 89.2498C49.5001 89.0623 49.5001 89.0623 49.5001 88.6873C49.5001 88.1248 49.5001 87.7498 49.5001 87.1873V86.9997C49.5001 86.8122 49.5001 86.8123 49.5001 86.4373C49.5001 86.2498 49.5001 85.8748 49.5001 85.4998C49.5001 85.3123 49.5001 85.3123 49.5001 85.3123C49.5001 85.3123 50.625 86.4373 52.6875 87.3748C54 86.8123 57.7502 87.9373 62.4377 86.8123Z" fill="#C0A1D1"/>
<path d="M72.7501 76.8752C68.8126 77.8127 66 76.3127 66 76.3127V76.5002C62.8125 75.5627 59.2501 73.5001 56.0626 70.1251C56.0626 70.1251 51.3751 79.3127 51.3751 85.3127C49.3126 84.1877 48.1875 83.2501 48.1875 83.2501C48.375 79.3126 53.2501 67.6877 53.2501 67.6877L50.625 65.6252L49.125 57.9377C49.125 57.9377 47.0625 54.9377 47.0625 52.3127C47.0625 51.3752 47.25 50.4377 48 49.6877C50.625 47.0627 54.0001 49.6877 54.0001 49.6877C55.1251 49.5002 56.25 49.1252 57.1875 48.7502C57.375 48.7502 57.75 48.5627 58.125 48.5627C57.9375 51.7502 57 61.1252 58.125 65.8127C59.8125 71.0627 65.6251 76.3127 72.7501 76.8752Z" fill="#EA6044"/>
<path d="M69.0001 45.75C57.5626 51.75 56.6249 59.8125 56.6249 59.8125L54.0001 49.875C59.8126 47.8125 64.8751 46.3125 69.0001 45.75Z" fill="#323244"/>
<path d="M82.1251 30.75C51.0001 31.6875 45.3749 38.4375 45.3749 38.4375C45.3749 38.4375 45.5625 34.875 48 31.125C50.0625 27.1875 54.1876 23.0625 61.5001 21.375C61.6876 21.375 61.6875 21.375 62.0625 21.375C56.4375 25.3125 58.4999 30.5625 58.4999 30.5625C71.0624 28.3125 82.1251 30.75 82.1251 30.75Z" fill="#C0A1D1"/>
<path d="M36.5626 76.8748C33.9376 84.9373 27.7501 95.6247 14.8126 108.562L-12.1874 143.812C-10.3124 139.687 -8.99989 136.687 -8.62489 136.125L10.6875 106.5C10.6875 106.5 19.125 88.4998 22.6875 74.9998C24.1875 69.7498 24.9376 65.2497 24.1876 62.6247C24.0001 62.0622 24.3751 61.1248 25.3126 61.1248L37.1252 59.9998C37.1252 60.1873 40.1251 65.6248 36.5626 76.8748Z" fill="#323244"/>
<path d="M77.4377 118.875C75.9377 123.187 74.4375 126.562 73.5 128.625C72.9375 129.75 72.375 130.687 72.375 130.687L68.4376 163.5C68.2501 162.562 67.5001 161.625 67.3126 160.5L68.4376 130.125L70.6875 89.6248L79.875 82.8748C82.5 98.0623 80.0627 110.437 77.4377 118.875Z" fill="#323244"/>
<path d="M80.4376 78.375C77.4376 81.9375 63.9376 89.625 58.6876 92.4375L62.6251 86.8125L66.1876 76.3125C66.1876 76.3125 73.875 79.875 79.6875 72.375C80.0625 74.25 80.4376 76.5 80.4376 78.375Z" fill="#28878D"/>
<path d="M71.0626 89.4373L55.5 99.1872L68.4375 95.4372L67.5 160.312L71.0626 89.4373Z" fill="#28878D"/>
<path d="M50.4376 104.25C49.8751 106.312 45.1877 130.125 43.6877 163.125C42.5627 189 36.0001 198.75 32.8126 201.937C30.9376 201.75 28.8751 201.375 27.1876 201C30.3751 198.75 39.5625 189.187 41.625 162.187C44.25 131.062 50.2501 106.312 50.4376 104.25Z" fill="#28878D"/>
<path d="M22.875 74.8125C16.5 74.625 9.00004 75 4.12504 79.125C-7.12497 87.375 -53.8124 140.25 -42.9374 180.75H-47.2498C-57.7498 140.437 -13.4999 82.5 -0.74992 72.9375C6.00008 67.6875 16.5 64.5 24.75 62.4375C25.125 65.0625 24.1875 69.375 22.875 74.8125Z" fill="#28878D"/>
<path d="M53.0626 67.6875C53.0626 67.6875 52.5 69.1875 51.9375 71.25L45.5626 67.6875L36.75 77.0625C40.3125 66.1875 37.6875 60 37.6875 60L44.8126 51.1875C45.3751 52.125 46.3125 52.3125 47.0625 52.3125C47.0625 52.3125 47.0625 52.3125 47.25 52.3125C47.25 54.9375 49.3126 57.9375 49.3126 57.9375L50.8125 65.625L53.0626 67.6875Z" fill="#28878D"/>
<path d="M57 200.25C56.0625 201.375 54.9374 202.313 53.4374 202.5C53.2499 202.5 52.8749 202.5 52.4999 202.5C16.6874 203.063 -18.9375 187.875 -18.9375 187.875C-21 185.813 -24 183.938 -21 169.313C-19.125 160.5 -15.3751 150.563 -12.1876 143.813L14.8125 108.562C14.625 109.5 -15.1876 169.5 -5.4376 187.875C-5.6251 187.875 21 198.75 57 200.25Z" fill="#28878D"/>
<path d="M41.2501 77.625L46.3125 80.625C46.3125 80.625 44.8126 92.4375 50.4376 104.438C50.4376 104.438 44.4376 97.3125 44.0626 82.125L41.2501 77.625Z" fill="#28878D"/>
<path d="M78.9375 161.25C75 148.875 73.8751 134.25 73.6876 128.437C74.6251 126.375 76.3126 123.187 77.6251 118.688C76.6876 132.187 78.9375 161.25 78.9375 161.25Z" fill="#28878D"/>
<path d="M54.0001 43.8747C55.8751 43.3122 59.25 41.9998 64.875 41.2498C65.8125 41.2498 66.375 41.4373 66.75 42.3748C66.9375 43.3123 66.5626 44.2498 65.6251 44.4373C63.3751 44.9998 58.8751 45.9373 55.3126 47.0623C54.3751 47.2498 53.4376 46.8748 53.2501 45.9373V45.7497C52.8751 44.9997 53.0626 44.2497 54.0001 43.8747Z" fill="#FFDEE9"/>
</g>
</svg>
