<svg width="477" height="401" viewBox="0 0 477 401" fill="none" xmlns="http://www.w3.org/2000/svg">
<path d="M323.859 397.16C323.859 397.16 324.459 368.562 318.76 357.463C318.76 357.463 331.159 363.863 324.759 397.16H323.859Z" fill="#454556"/>
<path d="M321.659 396.86C321.659 396.86 319.159 383.561 314.36 378.162C314.36 378.162 324.159 381.362 322.659 396.86H321.659Z" fill="#454556"/>
<path d="M326.759 396.86C326.759 396.86 333.158 380.962 332.459 371.162C332.459 371.162 338.858 380.662 328.059 396.86H326.759Z" fill="#454556"/>
<path d="M427.751 398.46L19.5823 398.76C19.5823 398.76 58.6792 355.263 111.375 380.062C158.072 402.26 191.469 377.162 240.965 382.961C244.165 383.261 247.365 383.961 250.765 384.561C254.164 385.161 257.464 386.161 261.264 387.061C322.659 403.86 380.155 386.361 427.751 398.46Z" fill="#F9D8AD"/>
<path d="M341.658 399.46H338.458L195.169 399.16L209.768 387.061L217.067 386.761L240.865 385.161L252.965 381.061L255.864 380.062L293.062 375.662L297.861 375.062L309.66 385.261H309.96L322.059 388.461L325.259 393.261L341.658 399.46Z" fill="#FFA38A"/>
<path d="M339.458 399.06C339.458 399.06 339.158 399.06 338.458 399.36L195.169 399.06L209.768 386.961L217.067 386.661L229.166 397.16L243.465 394.96L254.564 387.361L252.965 380.962L255.864 379.962L293.062 375.562C301.661 379.062 307.96 384.161 309.26 385.361H309.56L317.16 389.161L320.059 395.56L339.458 399.06Z" fill="#FF8F6A"/>
<path d="M395.054 398.46C395.054 398.46 396.354 353.064 387.154 335.265C387.154 335.265 406.853 345.064 396.654 398.16L395.054 398.46Z" fill="#454556"/>
<path d="M390.954 397.86C390.954 397.86 387.154 376.862 379.555 368.362C379.555 368.362 395.154 373.162 392.854 398.26L390.954 397.86Z" fill="#454556"/>
<path d="M399.453 398.16C399.453 398.16 409.953 372.762 408.353 357.463C408.353 357.463 418.152 372.362 401.353 398.46L399.453 398.16Z" fill="#454556"/>
<path d="M77.0779 398.46C77.0779 398.46 79.2778 308.267 61.4791 272.97C61.4791 272.97 100.876 292.668 80.5777 398.46H77.0779Z" fill="#454556"/>
<path d="M69.1784 397.16C69.1784 397.16 61.579 355.264 46.2802 338.365C46.2802 338.365 77.3778 347.864 72.6782 397.76L69.1784 397.16Z" fill="#454556"/>
<path d="M85.6772 397.86C85.6772 397.86 106.276 347.664 103.476 316.866C103.476 316.866 123.174 346.764 89.477 398.16L85.6772 397.86Z" fill="#454556"/>
<path d="M177.47 398.16H104.676L129.774 373.962L141.273 379.362L159.072 367.363L177.47 398.16Z" fill="#FFA38A"/>
<path d="M165.071 398.16H104.676L129.774 373.962L135.873 384.161L141.273 379.362L159.072 367.363L165.071 398.16Z" fill="#FF8F6A"/>
<path d="M95.7764 398.76L91.0768 391.161L68.4785 394.661L35.781 392.461L23.9819 398.76H95.7764Z" fill="#FFA38A"/>
<path d="M370.956 398.46L325.459 398.16L325.759 398.76L370.956 398.46Z" fill="#FFA38A"/>
<path d="M455.049 394.361L427.751 398.46L416.952 386.061L405.253 394.061L391.554 394.361L386.754 398.46H370.956L459.849 399.06L455.049 394.361Z" fill="#FFA38A"/>
<path d="M476.648 397.56H0.183716V400.06H476.648V397.56Z" fill="#F9D8AD"/>
<path d="M294.961 271.07C294.361 274.27 293.961 279.369 294.661 287.269C295.261 294.868 293.361 313.667 291.162 329.565C289.262 343.864 287.362 355.664 287.362 355.664C282.962 355.664 279.463 363.563 274.963 364.263C270.563 364.863 269.263 358.863 269.263 358.863C269.263 358.863 271.163 343.964 270.863 329.666C270.863 325.266 270.563 321.066 269.863 317.266C267.963 305.467 270.463 291.868 272.063 284.869C272.663 281.669 272.663 278.869 272.363 275.67C271.763 272.17 271.363 268.97 271.363 268.97L296.161 267.37C295.961 266.97 295.261 268.27 294.961 271.07Z" fill="#F29E9E"/>
<path d="M291.162 329.166C289.262 343.464 287.362 355.264 287.362 355.264C282.962 355.264 279.462 363.163 274.963 363.863C270.563 364.463 269.263 358.463 269.263 358.463C269.263 358.463 271.163 343.564 270.863 329.265H291.162V329.166Z" fill="#DDCAE6"/>
<path d="M294.961 271.07L279.063 275.17C279.063 275.17 279.662 277.669 278.063 284.669C276.463 291.368 274.863 306.867 276.463 323.466C276.763 325.366 276.763 327.266 276.763 329.166H270.763C270.763 324.766 270.463 320.566 269.763 316.766C267.863 304.967 270.363 291.368 271.963 284.369C272.563 281.169 272.563 278.369 272.263 275.17C271.663 271.67 271.263 268.47 271.263 268.47L296.061 266.87C295.961 266.97 295.261 268.27 294.961 271.07Z" fill="#EA6044"/>
<path d="M287.362 355.264C282.962 355.264 279.462 363.163 274.963 363.863C270.563 364.463 269.263 358.463 269.263 358.463C269.263 358.463 271.163 343.564 270.863 329.266H276.863C277.463 344.464 275.863 360.763 275.863 360.763C275.863 360.763 279.062 354.964 287.362 355.264Z" fill="#C0A1D1"/>
<path d="M263.564 266.67C263.564 266.67 263.264 268.57 262.264 272.07C261.264 275.27 259.764 279.369 257.464 284.169C253.065 293.368 256.464 299.068 252.664 324.166C252.065 328.566 251.365 332.765 251.065 336.565C249.465 350.864 249.465 361.663 249.465 366.063C249.465 367.363 249.465 367.963 249.465 367.963C249.465 367.963 245.065 362.263 240.865 361.563C237.066 360.963 234.466 363.463 234.466 363.763C234.466 363.763 233.466 352.364 232.566 336.765C232.266 330.765 231.566 324.066 231.266 317.066C229.666 291.968 238.865 266.57 238.865 266.57H263.564V266.67Z" fill="#F29E9E"/>
<path d="M263.564 266.67C263.564 266.67 263.264 268.57 262.264 272.07L245.065 275.569C245.065 275.569 234.566 290.768 237.166 321.666C237.466 327.366 238.166 332.465 238.466 336.565H232.766C232.466 330.565 231.766 323.866 231.466 316.866C229.866 291.768 239.066 266.37 239.066 266.37L263.564 266.67Z" fill="#EA6044"/>
<path d="M315.96 177.377C315.96 177.377 315.36 177.677 314.36 178.377C313.36 179.077 311.86 179.977 309.96 180.877C299.161 186.276 273.463 194.176 241.065 172.277L230.266 188.176L229.266 189.476C229.266 189.476 224.867 185.076 223.867 182.177C222.867 179.677 227.366 170.778 227.366 170.778L225.767 161.578L222.567 143.18L220.667 131.78L210.868 126.081L203.868 121.981L212.768 75.2848C214.067 68.2853 219.167 62.8857 225.467 60.6859L241.365 55.2863C241.965 54.9863 242.665 55.2863 243.265 55.5863C247.065 59.386 263.864 74.9848 274.063 60.3859L292.761 67.6853C298.761 69.8852 303.561 74.6848 306.06 80.3844L307.96 84.484L321.659 114.382L323.259 118.181L308.36 123.581L307.36 123.881L303.561 125.181L305.461 151.879C305.461 151.879 309.86 158.578 310.56 161.378C311.16 164.278 310.26 165.778 310.26 165.778C310.26 165.778 314.06 167.678 314.06 169.278C314.36 170.578 313.46 171.777 313.46 171.777C313.46 171.677 315.96 172.577 315.96 177.377Z" fill="#DDCAE6"/>
<path d="M315.96 177.377C315.96 177.377 315.36 177.677 314.36 178.377C313.36 179.077 311.86 179.977 309.96 180.877C299.161 186.276 273.463 194.176 241.065 172.277L230.266 188.176L229.266 189.476C229.266 189.476 224.867 185.076 223.867 182.177C222.867 179.677 227.366 170.778 227.366 170.778L225.767 161.578L235.266 158.678C234.266 130.681 247.665 93.8834 247.665 93.8834C240.365 124.381 239.765 155.179 239.765 155.179C255.964 130.381 257.564 103.083 257.564 103.083C257.264 140.28 243.565 161.178 243.565 161.178C265.764 155.179 285.162 167.578 285.462 167.878C266.364 161.878 256.864 167.878 256.864 167.878C280.962 182.177 302.961 172.977 303.861 172.677C282.562 185.076 254.964 172.977 254.264 172.677C285.762 191.376 313.06 172.377 313.06 172.377C313.06 172.377 315.96 172.577 315.96 177.377Z" fill="#C0A1D1"/>
<path d="M273.063 69.0853C273.063 69.0853 255.264 80.1844 235.266 62.6858L231.766 63.6857C224.767 65.5855 219.367 71.2851 218.467 78.5846L211.168 125.881L204.168 121.781L213.068 75.0848C214.367 68.0854 219.467 62.6857 225.767 60.4859L241.665 55.0864C242.265 54.7864 242.965 55.0863 243.565 55.3863C247.365 59.186 264.164 74.7848 274.363 60.1859C274.363 60.1859 271.463 76.0847 247.365 64.9856C247.365 64.8856 258.464 73.485 273.063 69.0853Z" fill="#C0A1D1"/>
<path d="M231.166 126.181L223.167 142.78L221.267 131.281L217.167 128.781L204.168 121.481L215.867 123.681L231.166 126.181Z" fill="#231F20"/>
<path d="M293.062 34.3879C293.062 34.3879 292.461 36.5878 290.862 39.7875C288.662 45.1871 284.162 52.4866 277.863 54.0864C276.563 54.3864 275.363 54.3864 274.063 54.3864V60.086C267.363 69.5853 257.864 66.0855 250.865 61.6858C249.865 61.0859 248.965 60.0859 247.965 59.486C245.765 57.8861 244.165 56.2863 243.165 55.3863C245.365 54.0864 252.365 49.6868 254.964 40.7875C255.964 37.8877 256.264 34.7879 255.964 31.2882C255.964 31.2882 254.364 30.2882 253.465 28.3884C253.165 27.3885 252.864 26.4885 252.864 25.1886C252.864 23.8887 253.164 22.6888 253.864 21.6889C255.164 19.489 256.764 18.1891 256.764 18.1891C256.764 18.1891 258.964 21.6889 261.864 22.5888V30.1882L266.964 20.9889C266.964 20.9889 267.963 21.9889 269.463 22.5888C271.663 23.8887 275.463 24.7886 279.263 21.9888C279.263 21.9888 277.963 24.4887 275.463 25.4886C275.463 25.4886 286.562 24.1887 287.862 15.6893C287.862 15.6893 289.462 25.1886 278.363 27.0885C278.363 27.0885 288.162 27.6885 291.662 22.2889C291.862 22.3889 290.862 28.3884 293.062 34.3879Z" fill="#F29E9E"/>
<path d="M294.361 37.2877L291.162 40.1875C292.461 36.9877 293.361 34.7879 293.361 34.7879C291.162 28.3884 291.762 22.3888 291.762 22.3888C288.262 27.7884 278.463 27.1884 278.463 27.1884C289.562 25.2886 287.962 15.7893 287.962 15.7893C286.662 24.3887 275.563 25.5886 275.563 25.5886C278.063 24.2887 279.362 22.0889 279.362 22.0889C273.363 26.8885 266.963 21.0889 266.963 21.0889L261.864 30.2882V22.6888C258.964 21.6889 256.764 18.2892 256.764 18.2892C256.764 18.2892 254.864 19.5891 253.864 21.7889C254.864 9.38983 259.864 1.19042 273.563 0.190495C280.862 -0.109482 288.162 1.7904 294.161 6.59003C294.761 7.18999 295.461 7.58993 296.061 8.18989C308.96 20.489 294.361 37.2877 294.361 37.2877Z" fill="#231F20"/>
<path d="M255.564 40.7884C254.564 37.2884 253.964 32.8884 253.964 28.3884C254.964 30.2884 256.464 31.2884 256.464 31.2884C256.864 34.7884 256.564 37.8884 255.564 40.7884Z" fill="#111010"/>
<path d="M271.163 268.57V244.072L266.064 268.17H223.167L229.866 189.076L230.866 187.776L241.665 171.877C274.063 193.776 299.461 185.876 310.56 180.477C312.46 179.477 313.76 178.577 314.96 177.977L319.359 185.276L319.959 196.676L323.459 268.17H271.163V268.57Z" fill="#231F20"/>
<path d="M314.66 178.277C315.66 177.677 316.26 177.277 316.26 177.277C316.26 172.877 314.36 171.877 314.36 171.877C314.36 171.877 314.96 170.878 314.96 169.378C314.96 168.778 313.96 167.778 313.06 167.178C312.16 166.578 311.16 165.878 311.16 165.878C311.16 165.878 312.16 164.278 311.46 161.478C310.86 158.578 306.36 151.979 306.36 151.979L304.461 125.281L309.26 123.681C309.56 124.981 309.86 126.581 310.26 128.481C312.16 137.98 315.36 156.779 319.459 185.976L314.66 178.277Z" fill="#F29E9E"/>
<path d="M278.163 54.0864C276.863 54.3864 275.663 54.3864 274.363 54.3864C270.263 53.7864 264.564 50.8867 260.064 42.2873C260.064 42.2873 259.064 50.5867 251.165 61.6858C247.665 59.486 244.765 56.5863 243.565 55.2864C245.765 53.9865 252.764 49.5868 255.364 40.6874C256.364 37.7877 256.664 34.6879 256.364 31.1882C256.364 31.1882 254.764 30.1883 253.864 28.2884C253.564 27.2885 253.264 26.3885 253.264 25.0886C253.264 23.7887 253.564 22.5888 254.264 21.5889C255.564 19.3891 257.164 18.0892 257.164 18.0892C257.164 18.0892 259.364 21.5889 262.264 22.4888V30.0883L267.363 20.8889C267.363 20.8889 268.363 21.8888 269.863 22.4888C266.763 28.3884 256.564 50.2867 278.163 54.0864Z" fill="#EA6044"/>
<path d="M305.161 82.6842L307.66 123.681L304.161 124.981L305.161 82.6842Z" fill="#C0A1D1"/>
<path d="M231.166 126.181L228.866 66.7855L224.767 128.481L231.166 126.181Z" fill="#C0A1D1"/>
<path d="M241.265 172.277L234.566 182.077L230.466 188.076C229.866 185.576 220.667 146.179 216.767 128.981C216.167 126.781 215.767 125.181 215.467 123.881L230.666 126.781C230.666 126.781 230.966 127.781 231.266 129.281C233.366 136.68 238.466 160.878 241.265 172.277Z" fill="#F29E9E"/>
<path d="M234.666 182.177L230.566 188.176C229.966 185.676 220.767 146.279 216.867 129.081C216.267 126.881 215.867 125.281 215.567 123.981L230.766 126.881C230.766 126.881 231.066 127.881 231.366 129.381C226.266 129.981 222.767 135.08 224.067 140.18L234.666 182.177Z" fill="#EA6044"/>
<path d="M310.86 165.578C310.86 165.578 311.86 163.978 311.16 161.178C310.56 158.279 306.061 151.679 306.061 151.679L304.161 124.981L308.96 123.381C309.26 124.681 309.56 126.281 309.96 128.181C307.76 129.181 306.46 131.68 307.06 133.88L312.76 166.578C311.46 166.278 310.86 165.578 310.86 165.578Z" fill="#EA6044"/>
<path d="M282.262 215.174L301.361 268.57H271.163V243.772L277.863 209.175L307.36 208.175L282.262 215.174Z" fill="#111010"/>
<path d="M314.66 178.277C314.06 178.877 291.462 200.875 245.365 181.477L241.265 190.076L235.866 268.27H223.167L229.866 189.176L230.866 187.876L241.665 171.977C274.063 193.876 299.461 185.976 310.56 180.577C312.16 179.877 313.76 178.977 314.66 178.277Z" fill="#111010"/>
<path d="M297.861 25.1886C298.861 12.1896 289.262 7.98988 288.962 7.98988C292.761 11.1896 290.861 19.789 290.861 19.789C290.861 17.5892 288.662 15.6893 288.662 15.6893C287.362 24.2887 276.263 25.4886 276.263 25.4886C278.762 24.1887 280.062 21.9888 280.062 21.9888C274.063 26.7885 267.663 20.9889 267.663 20.9889L262.564 30.1882V22.5888C259.664 21.5889 257.464 18.1891 257.464 18.1891C257.464 18.1891 255.564 19.489 254.564 21.6889C255.564 9.2898 260.564 1.09044 274.263 0.0905202C281.562 -0.209457 288.862 1.69036 294.861 6.49C295.461 7.08995 296.161 7.48996 296.761 8.08991C300.061 15.6893 297.861 25.1886 297.861 25.1886Z" fill="#111010"/>
<path d="M265.998 94.1554C277.759 94.015 287.26 91.0363 287.217 87.5023C287.175 83.9683 277.606 81.2172 265.845 81.3577C254.083 81.4981 244.583 84.4768 244.625 88.0108C244.667 91.5448 254.236 94.2958 265.998 94.1554Z" fill="#231F20"/>
<path d="M253.364 101.083L282.262 96.6832C283.562 96.3832 284.462 97.2831 284.762 98.583C285.062 99.8829 284.162 101.083 282.862 101.083L253.964 103.583C252.965 103.583 252.364 102.983 252.364 102.283C252.064 101.783 252.464 101.483 253.364 101.083Z" fill="#231F20"/>
<path d="M321.959 114.482L316.26 116.382L307.96 88.3838C307.66 87.0839 307.66 85.484 308.26 84.5841L321.959 114.482Z" fill="#231F20"/>
<path d="M251.165 371.762V377.762C251.165 381.562 251.165 385.061 251.165 385.061C251.165 385.061 243.565 388.561 243.565 392.361C243.565 396.16 237.866 398.36 228.966 398.36C220.067 398.36 219.767 395.46 219.767 395.46V390.661C219.767 389.361 220.067 388.161 220.367 386.861C220.667 385.561 221.367 384.361 222.267 383.061L234.966 363.363C234.966 363.063 237.466 360.463 241.365 361.163C245.165 361.763 249.965 367.563 249.965 367.563C249.965 367.563 249.965 366.963 249.965 365.663C250.165 366.663 251.165 368.563 251.165 371.762Z" fill="#231F20"/>
<path d="M319.759 379.362V385.361C318.759 386.661 316.56 387.261 314.06 387.561C311.56 387.861 308.96 387.561 306.46 387.261L266.163 379.962C266.163 377.462 266.164 375.162 266.463 373.262C267.063 361.463 269.363 358.663 269.363 358.663C269.363 358.663 270.663 364.663 275.063 364.063C279.462 363.463 282.962 355.464 287.462 355.464C294.361 364.463 319.759 379.362 319.759 379.362Z" fill="#231F20"/>
<path d="M251.165 377.862C251.165 381.662 251.165 385.161 251.165 385.161C251.165 385.161 243.565 388.661 243.565 392.461C243.565 396.26 237.866 398.46 228.966 398.46C220.067 398.46 219.767 395.56 219.767 395.56V390.761C219.767 389.461 220.067 388.261 220.367 386.961C220.967 388.261 222.867 390.761 230.166 390.761C239.965 390.761 242.265 387.261 245.065 384.061C246.665 381.661 249.565 379.062 251.165 377.862Z" fill="#DDCAE6"/>
<path d="M319.759 379.362V385.361C318.759 386.661 316.56 387.261 314.06 387.561C311.56 387.861 308.96 387.561 306.46 387.261L266.163 379.962C266.163 377.462 266.164 375.162 266.463 373.262L307.76 381.162C309.96 381.462 312.56 381.762 314.76 381.462C316.56 380.962 318.859 380.662 319.759 379.362Z" fill="#DDCAE6"/>
<path d="M249.565 365.763C249.565 367.063 249.565 367.663 249.565 367.663C249.565 367.663 245.165 361.963 240.965 361.263C237.166 360.663 234.566 363.163 234.566 363.463C234.566 363.463 233.566 352.064 232.666 336.465H251.365C249.565 350.464 249.565 361.663 249.565 365.763Z" fill="#DDCAE6"/>
<path d="M249.565 367.663C249.565 367.663 245.165 361.963 240.965 361.263C237.166 360.663 234.566 363.163 234.566 363.463C234.566 363.463 233.566 352.064 232.666 336.465H238.366C239.665 354.564 239.966 358.663 239.966 358.663C239.966 358.663 244.465 359.363 249.565 367.663Z" fill="#C0A1D1"/>
<path d="M274.363 60.1859C267.663 69.6852 258.164 66.1855 251.165 61.7858C250.165 61.1859 249.265 60.1859 248.265 59.586C248.265 59.286 248.265 59.286 248.265 59.286L251.765 58.686C251.765 58.586 264.164 71.2851 274.363 60.1859Z" fill="#EA6044"/>
<path d="M228.866 368.562C228.866 368.862 229.166 368.862 229.466 368.862C231.066 368.263 236.466 365.963 242.465 370.762C242.765 371.062 243.065 370.762 243.065 370.762C243.365 370.462 243.065 370.162 243.065 370.162C236.666 365.363 230.666 367.263 228.766 368.263C228.566 367.963 228.566 368.262 228.866 368.562Z" fill="#DDCAE6"/>
<path d="M227.366 370.462C227.366 370.762 227.667 370.762 227.966 370.762C229.566 370.162 234.966 367.863 240.966 372.662C241.265 372.962 241.565 372.662 241.565 372.662C241.865 372.362 241.565 372.062 241.565 372.062C235.166 367.263 229.166 369.162 227.266 370.162C227.366 369.862 227.366 370.462 227.366 370.462Z" fill="#DDCAE6"/>
<path d="M226.067 372.762C226.067 373.062 226.367 373.062 226.667 373.062C228.266 372.462 233.666 370.162 239.666 374.962C239.965 375.262 240.265 374.962 240.265 374.962C240.565 374.662 240.265 374.362 240.265 374.362C233.866 369.562 227.866 371.462 225.967 372.462C226.067 372.062 225.767 372.462 226.067 372.762Z" fill="#DDCAE6"/>
<path d="M224.467 374.962C224.467 375.262 224.767 375.262 225.067 375.262C226.666 374.662 232.066 372.362 238.066 377.162C238.366 377.462 238.666 377.162 238.666 377.162C238.966 376.862 238.666 376.562 238.666 376.562C232.266 371.762 226.266 373.662 224.367 374.662C224.467 374.362 224.467 374.662 224.467 374.962Z" fill="#DDCAE6"/>
<path d="M223.167 377.162C223.167 377.462 223.467 377.462 223.767 377.462C225.367 376.862 230.766 374.562 236.766 379.362C237.066 379.662 237.366 379.362 237.366 379.362C237.666 379.062 237.366 378.762 237.366 378.762C230.966 373.962 224.967 375.862 223.067 376.862C223.167 376.562 222.867 376.862 223.167 377.162Z" fill="#DDCAE6"/>
<path d="M221.967 379.062C221.967 379.362 222.267 379.362 222.567 379.362C224.167 378.762 229.566 376.462 235.566 381.262C235.866 381.562 236.166 381.262 236.166 381.262C236.466 380.962 236.166 380.662 236.166 380.662C229.766 375.862 223.767 377.762 221.867 378.762C221.567 378.462 221.567 378.762 221.967 379.062Z" fill="#DDCAE6"/>
<path d="M296.262 360.063C296.262 360.363 296.262 360.363 295.962 360.363C294.662 360.063 290.262 359.763 288.062 365.763C288.062 366.063 287.762 366.063 287.462 365.763C287.162 365.463 287.162 365.163 287.162 365.163C289.362 358.763 294.462 359.163 295.762 359.463C295.962 359.363 296.262 359.663 296.262 360.063Z" fill="#DDCAE6"/>
<path d="M297.862 361.663C297.862 361.963 297.862 361.963 297.562 361.963C296.262 361.663 291.862 361.363 289.662 367.363C289.662 367.663 289.362 367.663 289.062 367.363C288.762 367.063 288.762 366.763 288.762 366.763C290.962 360.363 296.062 360.763 297.362 361.063C297.862 360.963 297.862 361.263 297.862 361.663Z" fill="#DDCAE6"/>
<path d="M299.762 363.163C299.762 363.463 299.762 363.463 299.462 363.463C298.162 363.163 293.762 362.863 291.562 368.863C291.562 369.163 291.262 369.163 290.962 368.863C290.662 368.563 290.662 368.263 290.662 368.263C292.862 361.863 297.962 362.263 299.262 362.563C299.462 362.563 299.762 362.863 299.762 363.163Z" fill="#DDCAE6"/>
<path d="M301.661 364.463C301.661 364.763 301.661 364.763 301.361 364.763C300.061 364.463 295.662 364.163 293.462 370.163C293.462 370.463 293.161 370.463 292.861 370.163C292.561 369.863 292.562 369.563 292.562 369.563C294.762 363.163 299.861 363.563 301.161 363.863C301.361 364.163 301.661 364.463 301.661 364.463Z" fill="#DDCAE6"/>
<path d="M303.261 366.063C303.261 366.363 303.261 366.363 302.961 366.363C301.661 366.063 297.261 365.763 295.061 371.763C295.061 372.063 294.761 372.063 294.461 371.763C294.161 371.463 294.161 371.163 294.161 371.163C296.361 364.763 301.461 365.163 302.761 365.463C303.261 365.763 303.261 365.763 303.261 366.063Z" fill="#DDCAE6"/>
<path d="M305.161 367.663C305.161 367.963 305.161 367.963 304.861 367.963C303.561 367.663 299.161 367.663 296.961 373.363C296.961 373.663 296.661 373.663 296.361 373.363C296.061 373.063 296.061 372.763 296.061 372.763C298.261 366.363 303.361 366.763 304.661 367.063C304.861 367.363 305.161 367.363 305.161 367.663Z" fill="#DDCAE6"/>
<path d="M282.962 374.662C282.962 374.962 282.662 375.262 282.362 375.262C282.062 375.262 281.762 374.962 281.762 374.662C281.762 374.362 282.062 374.062 282.362 374.062C282.562 373.962 282.962 373.962 282.962 374.662Z" fill="#DDCAE6"/>
<path d="M285.762 374.962C285.762 375.262 285.462 375.562 285.162 375.562C284.862 375.562 284.562 375.262 284.562 374.962C284.562 374.662 284.862 374.362 285.162 374.362C285.462 374.362 285.762 374.662 285.762 374.962Z" fill="#DDCAE6"/>
</svg>
