<svg width="65" height="65" viewBox="0 0 65 65" fill="none" xmlns="http://www.w3.org/2000/svg">
<path d="M63.3671 63.5H1.63286" stroke="black" stroke-linecap="round" stroke-linejoin="round"/>
<path d="M21.3289 63.4999V18.0295H43.505V63.4999" stroke="black" stroke-linecap="round" stroke-linejoin="round"/>
<path d="M4.11285 63.5001V32.5222H21.2293" stroke="black" stroke-linecap="round" stroke-linejoin="round"/>
<path d="M43.505 32.5222H60.6214V63.5001" stroke="black" stroke-linecap="round" stroke-linejoin="round"/>
<path d="M23.4214 18.0297H18.0629V13.9111H46.8043V18.0297H41.3793" stroke="black" stroke-linecap="round" stroke-linejoin="round"/>
<path d="M21.3289 13.9111V9.33862H43.505V13.9111" stroke="black" stroke-linecap="round" stroke-linejoin="round"/>
<path d="M28.005 9.33865V5.61865H36.9286V9.33865" stroke="black" stroke-linecap="round" stroke-linejoin="round"/>
<path d="M32.5 5.61857V1.5" stroke="black" stroke-linecap="round" stroke-linejoin="round"/>
<path d="M10.4457 37.0061H14.8964" stroke="black" stroke-linecap="round" stroke-linejoin="round"/>
<path d="M25.8239 23.7646H30.2857" stroke="black" stroke-linecap="round" stroke-linejoin="round"/>
<path d="M34.6811 23.7646H39.1429" stroke="black" stroke-linecap="round" stroke-linejoin="round"/>
<path d="M25.8239 30.3079H30.2857" stroke="black" stroke-linecap="round" stroke-linejoin="round"/>
<path d="M34.6811 30.3079H39.1429" stroke="black" stroke-linecap="round" stroke-linejoin="round"/>
<path d="M25.8461 37.0061H30.2968" stroke="black" stroke-linecap="round" stroke-linejoin="round"/>
<path d="M34.7032 37.0061H39.1539" stroke="black" stroke-linecap="round" stroke-linejoin="round"/>
<path d="M25.8461 43.5493H30.2968" stroke="black" stroke-linecap="round" stroke-linejoin="round"/>
<path d="M34.7032 43.5493H39.1539" stroke="black" stroke-linecap="round" stroke-linejoin="round"/>
<path d="M25.7132 50.2476H30.1639" stroke="black" stroke-linecap="round" stroke-linejoin="round"/>
<path d="M34.5704 50.2476H39.0211" stroke="black" stroke-linecap="round" stroke-linejoin="round"/>
<path d="M25.7132 56.8018H30.1639" stroke="black" stroke-linecap="round" stroke-linejoin="round"/>
<path d="M34.5704 56.8018H39.0211" stroke="black" stroke-linecap="round" stroke-linejoin="round"/>
<path d="M10.49 43.5493H14.9518" stroke="black" stroke-linecap="round" stroke-linejoin="round"/>
<path d="M10.49 50.1035H14.9518" stroke="black" stroke-linecap="round" stroke-linejoin="round"/>
<path d="M10.5121 56.8018H14.9629" stroke="black" stroke-linecap="round" stroke-linejoin="round"/>
<path d="M49.8047 37.0061H54.2664" stroke="black" stroke-linecap="round" stroke-linejoin="round"/>
<path d="M49.8489 43.5493H54.3107" stroke="black" stroke-linecap="round" stroke-linejoin="round"/>
<path d="M49.8489 50.1035H54.3107" stroke="black" stroke-linecap="round" stroke-linejoin="round"/>
<path d="M49.8711 56.8018H54.3218" stroke="black" stroke-linecap="round" stroke-linejoin="round"/>
</svg>
