<svg width="160" height="98" viewBox="0 0 160 98" fill="none" xmlns="http://www.w3.org/2000/svg">
<path d="M64.9226 64.5585C65.0432 69.5429 64.1266 74.498 62.231 79.1094C60.5703 83.0562 58.0136 86.5622 54.7633 89.3497C51.4049 92.1535 47.4958 94.2218 43.2885 95.421C38.5429 96.8059 33.6201 97.4877 28.6768 97.4448C26.1981 97.4354 23.7254 97.1983 21.2901 96.7365C18.7417 96.2765 16.2267 95.6477 13.7616 94.8544C8.93946 93.2786 4.32028 91.1388 0 88.4795L2.38804 63.0812C4.12648 64.2305 5.93824 65.2648 7.81173 66.1775C9.83551 67.149 11.8593 68.0394 13.8831 68.8287C15.9837 69.594 18.1338 70.2161 20.3186 70.6905C22.3864 71.1418 24.4962 71.3724 26.6126 71.3786C27.8254 71.3725 29.0361 71.2778 30.2351 71.0953C31.4111 70.9291 32.5524 70.5737 33.6148 70.0429C34.6236 69.5498 35.4932 68.8124 36.1446 67.8977C36.8384 66.8287 37.1783 65.5684 37.116 64.2954C37.0949 63.8008 36.9727 63.3158 36.7569 62.8702C36.5411 62.4247 36.2362 62.0281 35.8612 61.705C34.9559 60.8828 33.9327 60.2007 32.8255 59.6812C31.6531 59.1177 30.4256 58.6769 29.1625 58.3658C28.1334 58.0782 27.0734 57.9151 26.0054 57.8801C25.4185 57.8801 24.7102 57.8801 23.8805 57.8801C23.0507 57.8801 22.221 58.042 21.3912 58.1634C20.5704 58.2818 19.759 58.4577 18.9627 58.6896C18.3175 58.8659 17.7079 59.1536 17.1616 59.5396L17.5258 41.4875L19.5496 41.6697C20.1972 41.6697 20.865 41.6697 21.5734 41.6697C23.1805 41.6657 24.7847 41.5303 26.3698 41.2649C28.039 41.0223 29.6625 40.5312 31.1863 39.8078C32.6154 39.177 33.882 38.2288 34.8898 37.0352C35.9242 35.6797 36.4473 34.0028 36.3671 32.2996C36.4253 31.0709 36.021 29.8651 35.2338 28.9199C34.4678 28.034 33.5042 27.3408 32.4208 26.8961C31.259 26.4254 30.0415 26.1057 28.7982 25.9449C27.6237 25.7922 26.441 25.7111 25.2566 25.7021C21.8076 25.7036 18.3846 26.2992 15.1378 27.4628C11.9121 28.5999 8.94148 30.3602 6.39507 32.6436L1.13331 9.73451C5.06778 6.53947 9.55335 4.0909 14.3687 2.50964C19.1748 0.855541 24.2214 0.00761325 29.3042 0.000170622C33.7741 -0.0124058 38.2189 0.670346 42.479 2.02394C46.5081 3.25969 50.2651 5.25148 53.549 7.89288C56.9327 10.6098 59.6403 14.0743 61.4593 18.0142C63.2782 21.9541 64.1589 26.262 64.0321 30.5996C64.0294 32.0723 63.8182 33.5372 63.4048 34.9507C62.9793 36.4328 62.4099 37.8698 61.7048 39.2411C61.0014 40.6159 60.1534 41.9117 59.1751 43.1065C58.2576 44.2594 57.2196 45.311 56.0787 46.2434C57.7596 46.9631 59.2494 48.0649 60.4298 49.4612C61.5721 50.8051 62.4943 52.3215 63.1619 53.954C63.84 55.6221 64.3024 57.3699 64.5381 59.155C64.7941 60.9448 64.9226 62.7505 64.9226 64.5585V64.5585Z" fill="#FDDCA1"/>
<path d="M98.5371 13.9846C98.5438 15.1995 98.3941 16.4102 98.0919 17.5869C97.8222 18.7215 97.4073 19.8167 96.8574 20.8452C96.2991 21.855 95.6194 22.7929 94.8336 23.638C94.0676 24.4712 93.1889 25.1933 92.2229 25.7832C91.247 26.3966 90.1916 26.8732 89.0861 27.1998C87.914 27.5294 86.7014 27.6929 85.4838 27.6855C84.2939 27.6981 83.1082 27.5414 81.9625 27.22C79.7888 26.6082 77.8117 25.4412 76.2256 23.8339C74.6395 22.2265 73.499 20.234 72.9162 18.0524C72.6072 16.911 72.4507 15.7337 72.4507 14.5512C72.4487 13.3712 72.5914 12.1954 72.8757 11.0501C73.1665 9.93207 73.5876 8.85208 74.1304 7.8323C74.6887 6.82241 75.3684 5.88453 76.1542 5.03949C76.8827 4.19732 77.7198 3.45555 78.6434 2.83358C79.6018 2.20953 80.6445 1.72568 81.7398 1.3967C82.8742 1.05031 84.0549 0.87968 85.241 0.89076C87.0823 0.866232 88.9128 1.17476 90.6444 1.80146C92.2084 2.37799 93.6351 3.27399 94.8336 4.43236C95.9945 5.58634 96.91 6.9631 97.5252 8.47991C98.2083 10.2341 98.5517 12.1021 98.5371 13.9846V13.9846ZM89.4301 14.531C89.4304 13.949 89.3487 13.3699 89.1873 12.8108C89.016 12.2824 88.7634 11.784 88.4385 11.3334C88.1002 10.9102 87.6805 10.5593 87.204 10.3013C86.6978 10.0184 86.1242 9.87849 85.5445 9.89655C84.9533 9.88915 84.3672 10.0064 83.8243 10.2406C83.3333 10.4679 82.8929 10.7913 82.5291 11.1918C82.1587 11.6023 81.8763 12.0845 81.6994 12.6084C81.4955 13.1589 81.3926 13.7416 81.3957 14.3286C81.4054 14.9113 81.4939 15.4899 81.6588 16.0488C81.8142 16.6048 82.0604 17.1314 82.3874 17.6071C82.7116 18.0575 83.1249 18.4363 83.6017 18.7202C84.1201 19.0116 84.7072 19.1584 85.3017 19.1452C85.8953 19.1561 86.4836 19.0315 87.0219 18.7809C87.5274 18.5322 87.9755 18.1806 88.3373 17.7488C88.6929 17.3084 88.9671 16.8081 89.1468 16.2714C89.3408 15.7119 89.4366 15.1231 89.4301 14.531V14.531Z" fill="#FDDCA1"/>
<path d="M72.1675 37.2175V32.239H98.8814V37.2175H72.1675Z" fill="#FDDCA1"/>
<path d="M85.3019 87.9132L84.6947 94.5107L72.1675 95.5023C72.1675 92.0417 72.289 88.6013 72.3699 85.1811C72.4509 81.7609 72.5319 78.3205 72.6533 74.8599H80.3841C80.1412 77.0253 79.9389 79.1907 79.7162 81.3562C79.4936 83.5216 79.3722 85.7073 79.271 87.9132H85.3423H85.3019Z" fill="#FDDCA1"/>
<path d="M103.738 75.4872C103.293 78.9883 102.909 82.449 102.585 85.9096C102.261 89.3703 101.978 92.8309 101.674 96.3321L95.6028 96.7773L95.8659 94.4904C95.6708 94.7286 95.4384 94.9336 95.1778 95.0976C94.9159 95.2606 94.6378 95.3962 94.3481 95.5023C94.0459 95.6074 93.734 95.682 93.4171 95.7249C93.1143 95.7552 92.8092 95.7552 92.5064 95.7249C91.8534 95.7207 91.2074 95.5901 90.6041 95.3404C90.0128 95.0937 89.4658 94.7519 88.985 94.3285C88.4721 93.8957 88.0164 93.3993 87.6291 92.8512C87.2406 92.2988 86.9085 91.709 86.6375 91.0905C86.362 90.4802 86.1517 89.8426 86.0101 89.1881C85.8698 88.5772 85.7952 87.953 85.7875 87.3263C85.7875 86.4156 85.7875 85.5049 85.7875 84.5537C85.7875 83.6025 85.8887 82.5299 85.9696 81.6597C86.0506 80.7895 86.172 79.7574 86.3137 78.8062C86.4488 77.9001 86.6312 77.0016 86.8601 76.1146L90.5028 76.2765C91.7171 76.2765 92.9314 76.2765 94.1457 76.2765L93.4778 78.8669C93.2484 79.7439 93.0461 80.6141 92.8707 81.4776C92.6885 82.368 92.5469 83.2382 92.4457 84.1287C92.3301 85.0144 92.2759 85.907 92.2838 86.8001C92.2838 87.0025 92.2838 87.306 92.2838 87.6905C92.3079 88.0787 92.362 88.4643 92.4457 88.8441C92.5153 89.1945 92.6454 89.53 92.8302 89.8357C92.9009 89.9667 93.0062 90.0757 93.1348 90.1506C93.2633 90.2256 93.41 90.2637 93.5588 90.2607C93.7526 90.2581 93.9434 90.2132 94.1182 90.1293C94.2929 90.0455 94.4473 89.9246 94.5706 89.775C94.911 89.3878 95.1784 88.9421 95.3599 88.4596C95.6063 87.8492 95.8025 87.2197 95.9468 86.5775C96.1087 85.8759 96.2504 85.1271 96.3718 84.3311C96.3718 83.5621 96.5742 82.7728 96.6349 81.9835C96.6956 81.1942 96.7563 80.4454 96.7968 79.7371C96.8373 79.0288 96.7968 78.4217 96.7968 77.855C96.7968 77.2884 96.7968 76.8836 96.7968 76.58C96.8073 76.3846 96.8073 76.1886 96.7968 75.9931C96.7968 75.811 96.7968 75.6086 96.7968 75.4062H98.8206H102.221C102.693 75.4602 103.199 75.4872 103.738 75.4872Z" fill="#FDDCA1"/>
<path d="M122.377 93.0541C121.892 93.6581 121.311 94.1779 120.657 94.5922C119.957 95.0245 119.219 95.3904 118.451 95.685C117.669 95.9674 116.863 96.1774 116.043 96.3124C115.269 96.4639 114.483 96.5384 113.695 96.535C112.311 96.5596 110.936 96.3121 109.648 95.8064C108.477 95.3481 107.411 94.66 106.511 93.7827C105.635 92.8967 104.947 91.8437 104.487 90.6863C103.979 89.4404 103.724 88.1056 103.738 86.7602C103.735 85.6971 103.857 84.6374 104.102 83.6031C104.337 82.6037 104.697 81.6381 105.175 80.7293C105.624 79.8421 106.189 79.0186 106.855 78.2806C107.513 77.5335 108.277 76.8859 109.121 76.358C109.98 75.8134 110.914 75.3975 111.894 75.1235C112.926 74.8207 113.996 74.6707 115.071 74.6782H116.447C117.418 74.72 118.379 74.8971 119.301 75.2044C119.738 75.3409 120.158 75.5241 120.556 75.7508L120.212 81.5591C119.661 81.337 119.082 81.1939 118.491 81.1341C117.915 81.0541 117.333 81.0135 116.751 81.0127C116.003 81.0035 115.259 81.1128 114.545 81.3365C113.885 81.5255 113.272 81.8493 112.744 82.2876C112.227 82.7091 111.812 83.2418 111.53 83.8459C111.217 84.5242 111.065 85.265 111.084 86.0114C111.081 86.5176 111.149 87.0219 111.287 87.509C111.413 87.9699 111.626 88.4026 111.914 88.7839C112.206 89.1496 112.563 89.4584 112.967 89.6946C113.425 89.9222 113.932 90.0335 114.444 90.0184C114.84 90.02 115.234 89.9724 115.618 89.8768C115.994 89.7832 116.346 89.6108 116.65 89.3708V88.2173H113.068L113.25 83.7448L117.682 83.6233L122.134 83.4817L122.377 93.0541Z" fill="#FDDCA1"/>
<path d="M142.271 95.1176L134.884 96.0688L133.994 92.7093H130.614L129.865 96.0688L122.276 95.32L128.206 75.487L136.463 75.0823L142.271 95.1176ZM133.468 88.1558L132.334 82.975L131.221 88.1558H133.468Z" fill="#FDDCA1"/>
<path d="M159.999 82.0442C160.004 82.7241 159.936 83.4026 159.797 84.068C159.68 84.6774 159.468 85.2647 159.17 85.8085C158.871 86.3456 158.496 86.8364 158.056 87.2656C157.549 87.7468 156.993 88.1741 156.397 88.5405L159.939 94.8547L153.26 96.1499L150.953 89.8155H149.111L148.848 96.0083H142.453C142.453 93.7416 142.554 91.4953 142.595 89.2489C142.635 87.0025 142.595 84.7763 142.757 82.5097V79.1098C142.757 77.9967 142.757 76.8634 142.878 75.7301C143.566 75.467 144.254 75.2646 144.902 75.0825C145.568 74.9154 146.244 74.787 146.926 74.6979C147.614 74.5968 148.302 74.5361 148.949 74.4956H151.095C152.205 74.4855 153.31 74.6424 154.373 74.961C155.385 75.2442 156.333 75.7182 157.166 76.3574C158.005 76.9819 158.696 77.7834 159.19 78.705C159.738 79.7317 160.016 80.8806 159.999 82.0442V82.0442ZM153.341 82.53C153.341 82.1398 153.287 81.7515 153.179 81.3764C153.072 81.0484 152.9 80.7455 152.673 80.4859C152.442 80.224 152.15 80.0225 151.823 79.899C151.458 79.7456 151.065 79.6698 150.67 79.6764H150.083H149.536L149.293 85.2216H149.658C150.094 85.2164 150.529 85.1621 150.953 85.0597C151.373 84.9494 151.775 84.779 152.147 84.5537C152.489 84.3194 152.779 84.0161 152.997 83.6633C153.216 83.3253 153.335 82.9325 153.341 82.53V82.53Z" fill="#FDDCA1"/>
</svg>
