<svg width="48" height="48" viewBox="0 0 48 48" fill="none" xmlns="http://www.w3.org/2000/svg">
<path d="M18.1875 12.375V4.625C18.1875 3.59729 18.4937 2.61166 19.0387 1.88496C19.5837 1.15825 20.323 0.75 21.0938 0.75H41.4375C42.2083 0.75 42.9475 1.15825 43.4925 1.88496C44.0376 2.61166 44.3438 3.59729 44.3438 4.625V43.375C44.3438 44.4027 44.0376 45.3883 43.4925 46.115C42.9475 46.8417 42.2083 47.25 41.4375 47.25H21.0938C20.323 47.25 19.5837 46.8417 19.0387 46.115C18.4937 45.3883 18.1875 44.4027 18.1875 43.375V35.625" stroke="#F1F1F2" stroke-linecap="round" stroke-linejoin="round"/>
<path d="M10.9219 31.2656L3.65625 24L10.9219 16.7344" stroke="#F1F1F2" stroke-linecap="round" stroke-linejoin="round"/>
<path d="M26.9062 24H3.65625" stroke="#F1F1F2" stroke-linecap="round" stroke-linejoin="round"/>
</svg>
