<svg width="120" height="120" viewBox="0 0 120 120" fill="none" xmlns="http://www.w3.org/2000/svg">
<mask id="mask0_467_19160" style="mask-type:alpha" maskUnits="userSpaceOnUse" x="0" y="0" width="120" height="120">
<circle cx="60" cy="60" r="60" fill="#C4C4C4"/>
</mask>
<g mask="url(#mask0_467_19160)">
<path d="M215.438 -43.125H-91.5V465.938H215.438V-43.125Z" fill="white"/>
<path d="M53.25 39.7503V44.2503C54.1875 44.6253 55.125 45.5628 55.125 45.5628C55.125 45.5628 55.125 42.7503 55.5 40.1253C55.875 38.2503 56.0625 36.1878 56.8125 34.6878C58.125 31.6878 68.625 25.8753 79.6875 33.3753C80.625 33.9378 81.5625 34.6878 82.125 35.2503L82.6875 39.5628L84.1875 40.8753C84.1875 40.8753 84.1875 45.1878 83.25 51.7503C83.25 51.7503 84.75 46.6878 86.625 47.4378C86.625 47.4378 87.9375 46.8753 89.0625 47.0628C89.625 44.2503 90.375 39.0003 89.625 33.5628C89.25 31.1253 88.6875 29.0628 87.1875 27.1878C84.1875 23.2503 78.1875 21.1878 70.3125 20.8128C59.25 20.2503 59.4375 24.1878 59.4375 24.1878C42 31.3128 53.25 39.7503 53.25 39.7503Z" fill="#6B3FAE"/>
<path d="M72.9375 22.3131C73.875 22.3131 81.9375 21.9381 79.5 31.6881V33.5631C80.4375 34.1256 81.375 34.8756 81.9375 35.4381L82.5 39.7506L84 41.0631C84 41.0631 84 45.3756 83.0625 51.9381C83.0625 51.9381 84.5625 46.8756 86.4375 47.6256C86.4375 47.6256 87.75 47.0631 88.875 47.2506C89.4375 44.4381 90.1875 39.1881 89.4375 33.7506C89.0625 31.3131 88.5 29.2506 87 27.3756C84.375 24.7506 78.9375 21.7506 72.9375 22.3131Z" fill="#502A67"/>
<path d="M12.75 197.438C16.125 201.001 17.25 200.251 17.25 200.251L20.0625 205.125L28.875 200.063L30.75 198.751V204.188C63.75 217.5 108.563 206.626 108.563 206.626V202.688C109.875 202.126 110.813 201.188 110.813 201.188L114.188 205.501L115.688 201.001C115.688 201.001 120.188 191.626 120.938 188.438C121.5 185.063 119.625 180.563 119.625 180.563L122.438 177L121.875 173.438C123.188 166.126 118.875 157.501 118.875 157.501C117 143.063 112.875 119.063 111 110.063C110.438 107.625 109.688 105.188 108.563 102.751C105.75 96.938 101.625 92.2505 96.1875 88.8755L82.5 80.813V77.813C82.5 75.0005 81.9375 72.3755 81 69.938C80.625 68.6255 80.0625 67.8755 79.5 66.563C79.5 66.563 78.5625 66.188 77.0625 66.0005C72.5625 65.063 62.8125 62.6255 59.4375 62.6255C58.875 62.6255 58.3125 62.6255 58.3125 62.6255C57.9375 63.0005 57.375 63.188 57 63.563C56.625 63.938 56.4375 64.1255 55.6875 64.8755C53.25 67.688 51.375 71.2505 50.25 74.813L49.6875 77.2505C49.6875 77.2505 33.9375 80.6255 27 86.2505C19.6875 92.063 10.3125 129.938 9.93754 135.938C9.56254 141.938 11.25 177.376 11.25 177.376C7.31254 189.751 9.56254 193.876 12.75 197.438Z" fill="#6B3FAE"/>
<path d="M29.8125 199.688L31.6875 198.375V203.813C64.3125 216.938 108.563 206.25 108.563 206.25V202.688C109.875 202.126 110.813 201.188 110.813 201.188L114.188 205.501L115.688 201C115.688 201 120.188 191.625 120.938 188.25C121.5 184.875 119.625 180.375 119.625 180.375L122.438 176.625L121.875 172.875C123.188 165.563 118.875 156.751 118.875 156.751C117 142.313 112.875 118.126 111 108.938C110.438 106.501 109.688 104.063 108.563 101.625C105.75 95.813 101.625 90.938 96.1875 87.7505L82.5 79.5005V76.8755C82.5 74.063 81.9375 71.438 81 69.0005C80.625 67.688 80.0625 66.938 79.5 65.6255C79.5 65.6255 78.5625 65.2505 77.0625 65.063C74.0625 67.8755 72.1875 70.8755 72.1875 70.8755L68.8125 79.688C68.8125 79.688 61.5 77.813 57.75 69.7505C57.75 69.7505 59.0625 77.2505 69.1875 83.063C68.625 87.3755 63.75 89.6255 60.1875 87.3755C56.8125 85.313 53.25 82.313 51.1875 77.438C51.1875 77.438 53.0625 87.938 68.25 92.813C68.25 92.813 76.125 93.7505 80.8125 84.938L94.125 137.25L89.25 95.438L97.3125 105C97.3125 105 92.4375 143.063 107.25 154.5L95.25 146.625L104.813 158.626L104.25 185.438L80.8125 167.063C80.8125 167.063 87.75 184.876 104.625 194.625C104.625 194.625 100.313 196.5 95.625 196.5C90.9375 196.5 76.3125 187.688 76.3125 187.688L84.1875 197.25L67.875 186.938L70.875 192.75C70.875 192.75 55.5 189.75 51.5625 187.875C47.625 186 40.6875 174.375 40.125 173.813L48.1875 189.75C48.1875 189.75 32.8125 178.313 29.625 153.75L29.8125 199.688Z" fill="#502A67"/>
<path d="M57.1876 63.75C59.0626 76.3125 68.6251 80.25 68.6251 80.25C74.6251 78.375 78.5626 72.75 80.4376 69.75C80.0626 68.4375 79.5001 67.6875 78.9376 66.375C78.9376 66.375 63.9376 62.8125 59.4376 62.8125C58.8751 62.8125 58.5001 62.8125 58.5001 62.8125C58.1251 63.1875 57.7501 63.5625 57.1876 63.75Z" fill="#131939"/>
<path d="M51.7501 48.3755C52.3126 55.313 55.1251 55.688 55.1251 55.688C55.6876 60.7505 58.1251 63.188 58.1251 63.188C59.0626 75.188 68.0626 80.2505 68.4376 80.6255C68.8126 80.2505 69 80.2505 69.75 80.063C77.0625 75.7505 79.125 66.7505 79.125 66.7505V63.3755L82.1251 57.563C85.1251 61.5005 90.5626 52.5005 90.5626 49.1255C90.5626 47.6255 89.6251 47.2505 89.0626 47.063C87.7501 46.688 86.6251 47.438 86.6251 47.438C85.1251 46.5005 83.2501 51.7505 83.2501 51.7505C84.1876 45.188 84.1876 40.8755 84.1876 40.8755L82.6876 39.563L82.1251 35.2505C70.1251 24.938 58.125 30.938 56.625 34.313C56.25 34.8755 56.0626 35.813 56.0626 36.7505C55.5001 40.313 55.5001 44.813 55.5001 44.813C55.5001 44.813 54.5626 43.8755 53.6251 43.5005C51.9376 43.8755 51.3751 44.813 51.7501 48.3755Z" fill="#F27D86"/>
<path d="M112.313 197.625C112.313 197.625 102.75 194.25 94.875 181.125C94.875 181.125 101.25 189 108.75 193.125L105.938 149.063L99.375 135.563L106.313 145.5L101.813 123.563L99.375 104.625L103.688 123.188L105 127.688L108.375 111.563L105.938 131.438C105.938 131.438 107.813 145.875 108.375 162.563C108.375 162.563 114.375 162 117.938 167.063C117.938 167.063 114 164.25 108.938 165.563L109.313 170.625L119.813 175.688L109.5 173.25L110.438 181.688L117.938 192.75L110.438 185.438L112.313 197.625Z" fill="#131939"/>
<path d="M30 88.5005L27.9375 102L24 94.5005C24 94.5005 19.6875 107.813 22.6875 123.001L20.625 123.563L21.5625 129.563L18 118.5L21.9375 143.438L12.5625 146.438L27.5625 159.75L16.125 172.688L26.4375 177.563L15 189.001L25.5 191.438C25.5 191.438 20.0625 195.938 17.0625 196.313C14.25 196.688 10.6875 190.313 10.6875 190.313C10.6875 190.313 13.5 200.626 18 200.813L21.375 203.626L29.8125 196.688L30 88.5005Z" fill="#502A67"/>
<path d="M31.6875 198.938V88.6877L28.6875 111.563L24.1875 103.5L28.6875 115.5L29.0625 124.5L26.0625 120.563L28.875 125.625L21.5625 128.063L29.0625 130.125L21.1875 131.625L28.5 140.625L24.5625 139.125L29.0625 150.938V156.75L24 153.375L29.0625 159.375L23.625 169.688L28.6875 171.563L15.75 173.063L28.6875 175.5L28.3125 179.438C28.3125 179.438 19.875 186.938 14.4375 189.375C14.4375 189.375 24 187.875 28.5 183.938L27.9375 195L31.6875 198.938Z" fill="#131939"/>
<path d="M81.9375 35.2502L82.5001 39.5628L84.0001 40.8752C84.0001 40.8752 84.0001 45.1878 83.0626 51.7503C83.0626 51.7503 84.5625 46.6877 86.4375 47.4377C86.4375 47.4377 87.7501 46.8753 88.8751 47.0628C88.8751 43.6878 88.5 40.6877 88.5 40.6877C86.4375 37.8752 81.9375 35.2502 81.9375 35.2502Z" fill="#070D28"/>
<path d="M53.25 39.7505V44.2505C54.1875 44.6255 55.125 45.563 55.125 45.563C55.125 45.563 55.125 42.7505 55.5 40.1255L53.25 39.7505Z" fill="#070D28"/>
<path d="M57.9375 63.188C57.9375 63.188 62.4375 69.188 73.3125 67.688C73.3125 67.688 75.75 75.188 68.4375 80.6255C76.5 76.688 78.75 66.7505 78.75 66.7505V63.3755L81.75 57.563C84.75 61.5005 90.1875 52.5005 90.1875 49.1255C90.1875 47.6255 89.25 47.2505 88.6875 47.063C87.375 46.688 86.25 47.438 86.25 47.438C84.75 46.5005 82.875 51.7505 82.875 51.7505C83.8125 45.188 83.8125 40.8755 83.8125 40.8755L82.3125 39.563L81.75 35.2505C69.75 24.938 57.75 30.938 56.25 34.313C55.875 34.8755 55.6875 35.813 55.6875 36.7505C59.0625 35.813 71.0625 33.188 79.125 39.563C78.9375 39.7505 79.875 76.313 57.9375 63.188Z" fill="#ED5668"/>
<path d="M55.125 47.2502L55.5 53.0628C55.5 53.0628 54 53.0627 53.625 49.1252C52.875 44.8127 55.125 47.2502 55.125 47.2502Z" fill="#ED5668"/>
<path d="M77.8125 117.375H89.0625C90.75 117.375 91.875 116.063 91.875 114.563C91.875 112.875 90.5625 111.75 89.0625 111.75H77.8125C76.125 111.75 75 113.063 75 114.563C75.375 116.063 76.3125 117.375 77.8125 117.375Z" fill="#FFF0F6"/>
<path d="M63.375 205.5H64.3125L68.25 91.3127L69.75 79.8752C69.375 80.2502 69.1875 80.2502 68.4375 80.4377L67.125 91.3127L63.375 205.5Z" fill="#131939"/>
<path d="M68.8125 83.4377C69.375 83.4377 70.125 83.0627 70.125 82.5002V81.5627C69.9375 81.0002 69.5625 80.2502 69 80.2502C68.4375 80.2502 67.6875 80.6252 68.0625 81.1877V82.1252C67.875 82.8752 68.25 83.4377 68.8125 83.4377Z" fill="#131939"/>
<path d="M53.8125 115.875L42.75 86.4377L51.1875 118.875L38.25 91.8752L52.875 149.438L52.125 113.813L53.8125 115.875Z" fill="#502A67"/>
<path d="M66.3751 26.063L74.25 26.6255C74.8125 26.6255 75.5626 26.063 75.7501 25.313C75.7501 24.7505 75.1875 24.0005 74.4375 23.813L66.5626 23.2505C66.0001 23.2505 65.25 23.813 65.0625 24.563C65.25 25.1255 65.8126 25.688 66.3751 26.063Z" fill="#FFF0F6"/>
<path d="M53.25 39.5628H55.3125C55.6875 37.6878 55.875 35.6253 56.625 34.1253C57.9375 30.7503 70.125 24.5628 82.125 35.0628C85.5 37.5003 88.5 40.5003 88.6875 40.5003C74.25 18.9378 59.625 24.0003 59.625 24.0003C41.8126 31.1253 53.25 39.5628 53.25 39.5628Z" fill="#391A4F"/>
</g>
</svg>
