<svg width="120" height="120" viewBox="0 0 120 120" fill="none" xmlns="http://www.w3.org/2000/svg">
<mask id="mask0_467_19176" style="mask-type:alpha" maskUnits="userSpaceOnUse" x="0" y="0" width="120" height="120">
<circle cx="60" cy="60" r="60" fill="#C4C4C4"/>
</mask>
<g mask="url(#mask0_467_19176)">
<path d="M237.188 -5.06299H-114.375V412.5H237.188V-5.06299Z" fill="white"/>
<path d="M95.6249 29.4368H89.4374V37.4992H95.6249V29.4368Z" fill="#181461"/>
<path d="M105.937 32.9993C105.937 33.7493 105.75 34.3118 105.562 34.8743C105.375 35.0618 105.187 35.6243 104.812 35.8118C104.625 35.9993 104.437 36.1868 104.062 36.5618C103.687 36.7493 102.937 36.9368 102.187 36.9368H95.6249V29.8119H96.9375V27.3743C96.9375 26.4368 97.6875 25.4993 98.8125 25.4993C99.1875 25.4993 99.7499 25.6868 99.9374 25.8743C100.125 26.0618 100.312 26.6244 100.312 26.9994V29.0618H101.625C104.25 29.0618 105.937 30.9368 105.937 32.9993Z" fill="#FF8A9C"/>
<path d="M117.328 28.7794L115.183 32.9475L118.517 34.6635L120.662 30.4954L117.328 28.7794Z" fill="#181461"/>
<path d="M124.687 35.0612C124.5 35.4362 123.937 35.9986 123.375 36.1861C123 36.3736 122.25 36.3737 121.687 35.9987L118.5 34.3111L120.375 30.5611L121.125 30.9361L121.875 29.6236C122.062 29.2486 122.812 28.8736 123.187 29.2486C123.375 29.4361 123.562 29.4361 123.562 29.9986C123.562 30.1861 123.562 30.3737 123.562 30.7487L123.187 31.8736L123.937 32.2487C124.687 32.6237 125.062 33.9362 124.687 35.0612Z" fill="#FF8A9C"/>
<path d="M105.39 46.8993L101.159 48.9172L103.661 54.1636L107.892 52.1456L105.39 46.8993Z" fill="#181461"/>
<path d="M113.062 46.3118C113.25 47.0618 113.25 47.6243 113.062 48.3743C112.875 49.1243 112.312 49.4993 111.75 50.0618L107.625 52.1243L105.562 47.4368L106.5 47.0617L105.75 45.3743C105.562 44.6243 105.75 44.0618 106.5 43.6868C106.687 43.4993 107.25 43.4993 107.437 43.6868C107.625 43.6868 107.812 43.8743 108.187 44.4368L108.937 45.7493L109.875 45.3743C110.812 44.4368 112.312 44.8118 113.062 46.3118Z" fill="#FF8A9C"/>
<path d="M112.312 24.9365L108.75 30.9365L105.187 24.749C104.062 22.6865 106.5 20.249 108.375 21.9365L108.562 22.124C110.812 20.4365 113.625 22.6865 112.312 24.9365Z" fill="#DBD2D1"/>
<path d="M95.6249 47.2492L92.4374 50.0617L91.6874 45.5616C91.4999 43.8741 93.5625 43.1241 94.125 44.6241L94.3124 44.8117C95.6249 44.4367 96.9374 46.3117 95.6249 47.2492Z" fill="#DBD2D1"/>
<path d="M105.375 34.8732C105.187 35.0607 105 35.6232 104.625 35.8107C104.25 35.9982 104.25 36.1857 103.875 36.5607L100.875 35.2482C99.7499 34.4982 99.5624 33.1857 100.125 32.2482C100.5 31.4982 101.437 31.1232 102.937 31.3107L105.375 34.4982C105.375 34.3107 105.375 34.4982 105.375 34.8732Z" fill="#EF5472"/>
<path d="M106.687 31.4991V37.1241L101.625 34.1242C99.75 33.1867 100.875 30.3741 102.937 30.9366H103.125C103.687 28.8741 106.687 29.4366 106.687 31.4991Z" fill="#DBD2D1"/>
<path d="M37.3124 163.312C37.3124 163.312 48.3749 133.5 48.3749 113.437C48.3749 112.125 48.3749 111 48.1874 109.5C46.4999 89.9996 38.2499 67.4995 38.2499 67.4995L38.4374 67.1245L40.4999 63.3745H44.0624H44.2499L60.5624 68.062L62.9999 70.4995L62.2499 73.687L62.0624 75.3746C62.0624 75.3746 67.6874 119.25 69.1874 133.687C69.5624 139.312 70.8749 144.75 71.6249 149.437C71.9999 151.125 72.3749 152.437 72.7499 153.937C74.0624 158.999 75.1874 162.562 75.1874 162.562H36.9374L37.3124 163.312Z" fill="#DBD2D1"/>
<path d="M45.9375 87.5613C45.9375 87.5613 49.1249 100.686 48.3749 113.811C48.3749 112.499 48.375 111.374 48.1875 109.874C46.5 90.3737 38.2499 67.8738 38.2499 67.8738L38.4375 67.4988L40.5 63.7488H42.9374C47.0624 67.6863 54 74.8113 54.75 77.4363L45.375 85.4987L45.9375 87.5613Z" fill="#B2A4A3"/>
<path d="M44.4374 63.9359L42.7499 65.436L40.8749 63.561H44.2499L44.4374 63.9359Z" fill="#260121"/>
<path d="M88.3124 153.374C89.6249 154.312 91.8749 155.249 94.4999 155.249C94.6874 155.249 94.8749 155.249 95.2499 155.249C102 154.312 106.312 138.562 106.312 125.624C106.312 125.624 106.312 120.937 101.812 119.812C97.3124 118.687 95.6249 122.812 95.6249 122.812L89.0624 94.4993C87.7499 88.4993 83.2499 83.6242 77.4374 81.7492L64.3124 77.6243L62.6249 74.6242L62.4374 76.3118C62.4374 76.3118 63.1874 82.1242 64.3124 90.5617C66.1874 104.812 68.8124 125.812 69.5624 134.999C69.9374 138.749 70.4999 142.124 71.2499 145.687C73.1249 155.812 75.9374 163.687 75.9374 163.687H37.6874C37.6874 163.687 50.2499 129.562 48.7499 110.249C47.9999 101.624 46.3124 92.6242 44.0624 84.9367C41.6249 75.1867 38.9999 68.2493 38.9999 68.2493L39.1874 67.8743H38.2499L32.4374 73.8743L16.4999 76.3118C10.8749 77.2493 5.9999 80.9992 3.9374 86.2492C-2.2501 101.624 -14.6251 132.749 -14.6251 139.124C-14.6251 147.374 5.24986 169.687 5.24986 169.687L4.12491 174.562L-1.50009 199.499C-1.12509 199.687 8.24986 201.937 27.7499 203.624C32.2499 203.999 37.1249 204.374 42.5624 204.562C57.1874 205.312 75.5624 205.499 97.8749 204.562L92.0624 175.874L87.5624 164.812L86.8124 159.187L85.6874 150.187C85.8749 149.999 86.4374 151.874 88.3124 153.374ZM13.4999 119.062L14.6249 121.499L15.7499 123.937L11.2499 147.562L5.24986 139.499L13.4999 119.062Z" fill="#4D297C"/>
<path d="M33.3749 91.6863L16.4999 116.436L12.5624 147.374L28.3124 165.186C28.3124 165.186 40.4999 141.749 43.8749 131.999C47.0624 122.249 44.8124 116.436 33.3749 91.6863Z" fill="#2F0D63"/>
<path d="M72.9374 154.686L70.4999 153.936L62.6249 95.2488L56.4374 83.8113L55.4999 80.2488L59.9999 83.0613L62.4374 75.9363C62.4374 75.9363 68.0624 119.811 69.5624 134.249C69.9374 139.874 71.2499 145.311 71.9999 149.999C72.3749 151.874 72.7499 153.561 72.9374 154.686Z" fill="#B2A4A3"/>
<path d="M25.6875 171.374L34.4999 181.124L27.375 203.437C7.87495 201.749 -1.31256 199.312 -1.87506 199.312L3.74994 174.374L4.87495 169.499C4.87495 169.499 -15.0001 147.187 -15.0001 138.937C-15.0001 132.749 -2.81257 101.437 3.56243 86.0619C5.62493 80.8119 10.5 77.0618 16.125 76.1243L32.0625 73.6868L37.875 67.6868H38.8125L38.625 68.0618C38.625 68.0618 41.0624 74.9993 43.6874 84.7493L18.7499 87.5618C18.7499 87.5618 21.1875 102.187 16.3125 116.249C15.9375 118.124 15.1874 119.812 14.6249 121.499C11.4374 134.249 11.0624 147.187 11.0624 147.187C11.0624 147.187 4.87492 149.624 1.49992 154.124L18 174.749L25.6875 171.374Z" fill="#2F0D63"/>
<path d="M113.812 95.2487L109.125 104.999L108.187 107.061L100.875 118.124L93.9374 113.999L97.8749 106.686L105.187 92.9987C105.937 91.8737 107.062 91.3113 108.375 91.6863L112.875 92.8112C113.625 92.9987 114.375 94.1237 113.812 95.2487Z" fill="#260121"/>
<path d="M108.938 104.812L108 106.874L100.688 117.937L93.75 113.812L97.6875 106.499H105.75L107.437 104.437L107.25 103.687C106.5 102.374 106.875 100.874 107.437 99.7493H109.125C108.938 99.7493 109.125 101.812 108.938 104.812Z" fill="#11000F"/>
<path d="M106.687 125.437C106.687 125.437 102.562 149.25 95.625 155.062C95.4375 155.062 95.25 155.062 94.875 155.062C91.875 155.062 89.9999 154.125 88.6874 153.187C86.6249 151.875 85.8749 150 85.8749 150L86.9999 159L69.375 168.375L69.1874 163.312H75.375C75.375 163.312 72.5625 155.437 70.6875 145.312L86.4375 136.687L87.375 94.312L91.3125 128.624L95.4374 122.812L106.687 125.437Z" fill="#2F0D63"/>
<path d="M66.9375 157.686L58.3125 153.186L53.0624 82.8738L45.9374 87.3737L43.5 81.5613L46.3125 85.4987L52.4999 79.8737L54.5625 77.9987H56.625L58.6874 79.3113L62.4374 86.0613V75.9363C62.4374 75.9363 63.1874 81.7487 64.3124 90.1862L56.25 81.1863L66.9375 157.686Z" fill="#7F6C6B"/>
<path d="M85.3124 44.4367C83.9999 51.1867 81.7499 53.2492 80.0624 53.8117C79.3124 53.9992 78.7499 53.8117 78.1874 53.8117C80.6249 45.7492 80.2499 41.6242 77.8124 38.2492C77.8124 38.2492 76.6874 41.0616 74.2499 43.3116C71.4374 46.1241 66.9374 48.1867 59.9999 44.4367L55.3124 50.2491L56.4374 44.6241L53.2499 42.7491C53.2499 42.7491 53.0624 40.3116 50.2499 40.3116C47.4374 40.3116 47.8124 46.3117 48.1874 49.1242C48.3749 50.9992 47.4374 54.9367 45.7499 59.8117C44.9999 59.0617 44.8124 58.1241 44.9999 57.3741L46.6874 43.4992C44.2499 39.9367 43.1249 30.3741 51.5624 25.4991C52.3124 25.1241 53.2499 24.5616 53.9999 24.3741C64.6874 19.8741 71.4374 27.5617 71.4374 27.5617C79.4999 27.3742 87.9374 31.8742 85.3124 44.4367Z" fill="#260121"/>
<path d="M79.8749 53.6242C79.1249 53.8117 78.5624 53.6242 77.9999 53.6242C80.4374 45.5617 80.0624 41.4367 77.6249 38.0617C77.6249 32.4367 73.1249 28.1243 70.8749 26.6243C70.8749 26.6243 88.6874 31.8742 79.8749 53.6242Z" fill="#11000F"/>
<path d="M78.3749 53.4367C78.3749 53.6242 78.3749 53.6242 78.3749 53.4367C77.6249 55.8742 76.6874 58.4992 75.3749 61.4992C72.5624 68.4367 69.3749 70.4993 66.7499 71.0618C64.3124 71.4368 62.6249 70.3118 62.6249 70.3118L55.3124 77.2493L51.3749 73.3117L42.7499 65.2492C43.8749 63.1867 44.8124 61.1242 45.7499 59.2492C47.8124 54.3742 48.7499 50.4368 48.1874 48.5618C47.8124 46.1243 47.2499 39.7493 50.2499 39.7493C53.2499 39.7493 53.2499 42.1867 53.2499 42.1867L56.4374 44.0617L55.3124 49.6867L59.9999 43.8743C66.5624 47.8118 71.0624 45.5617 74.2499 42.7492C75.1874 41.8117 75.9374 41.0617 76.3124 40.3117C77.2499 38.9992 77.6249 37.8743 77.6249 37.8743C80.4374 41.4368 80.9999 45.5617 78.3749 53.4367Z" fill="#DB6D5E"/>
<path d="M66.7499 71.2495C64.3124 71.6245 62.6249 70.4995 62.6249 70.4995C62.6249 70.4995 62.4374 70.4995 62.2499 70.312C58.3124 67.8745 52.8749 69.3746 51.1874 73.4996L42.5624 65.4371C46.4999 58.3121 48.5624 51.187 48.1874 48.7495C47.8124 46.312 47.2499 39.937 50.2499 39.937C53.2499 39.937 53.2499 42.3745 53.2499 42.3745L56.4374 44.2495L55.3124 49.8745L59.9999 44.062L55.3124 54.1871C53.6249 57.7496 54.3749 61.4996 57.1874 64.1246C59.9999 67.1246 63.5624 70.1245 66.7499 71.2495Z" fill="#BC473B"/>
<path d="M71.4374 151.874L66.9375 157.687L62.8124 154.499L59.9999 152.249L53.9999 82.3119L52.4999 79.8743L54.5625 77.9993H56.625L58.5 79.6868L56.9999 82.3119L71.2499 150.749L71.4374 151.874Z" fill="#260121"/>
<path d="M106.312 124.687C106.312 126.562 105.375 128.25 103.875 129.187C102.937 129.937 101.812 130.312 100.687 130.312C98.2499 130.312 96.5624 129 95.6249 127.125C95.4374 126.375 95.2499 125.812 95.2499 125.062C95.2499 123.375 95.9999 122.062 97.1249 120.937C98.0624 120 99.5624 119.625 100.875 119.625C102.75 119.625 104.625 120.562 105.562 122.062C106.125 122.624 106.312 123.375 106.312 124.687Z" fill="#11000F"/>
<path d="M111.938 104.812C111.188 107.249 109.875 110.999 109.875 110.999C109.875 110.999 108.75 116.999 105.75 121.124C105.75 121.311 105.562 121.311 105.562 121.499L104.812 127.124L104.625 128.811C103.687 129.561 102.563 129.936 101.438 129.936C99 129.936 97.3125 128.624 96.375 126.749C96.5625 125.436 97.3125 122.061 97.6875 120.561C97.875 119.811 97.875 119.436 97.875 119.436C97.875 119.436 93.1875 116.999 93 115.686C92.8125 114.374 93.75 113.999 93.75 113.999H94.125L100.313 115.124C101.063 115.312 102 114.937 102.187 114.187C102.187 114.187 102.187 114.186 102 113.999C101.812 113.811 101.625 113.624 100.875 113.249C99.9375 112.874 96.75 111.374 95.0625 110.811C94.125 110.436 93.9375 109.124 94.6875 108.374C94.875 108.186 95.0625 108.186 95.625 107.999C96.75 107.999 99.5625 108.936 101.625 109.686C102.563 110.061 103.5 110.437 103.5 110.437H103.687C103.687 110.437 103.687 110.437 103.875 110.437C104.25 110.437 104.812 110.249 104.812 109.499V109.311L98.8125 107.624C98.0625 107.437 97.6875 106.686 98.0625 105.936C98.25 105.561 98.8125 104.999 99.75 104.999C99.9375 104.999 100.125 104.999 100.5 104.999C102.563 104.999 104.437 105.374 105.562 105.749C105.937 105.749 106.5 105.936 106.687 105.936L107.437 106.124L108.562 104.061L107.25 101.624C107.063 100.874 107.062 100.311 107.437 99.749C107.812 99.5615 108.375 99.374 109.125 99.749C110.625 101.061 112.688 102.562 111.938 104.812Z" fill="#DB6D5E"/>
<path d="M52.4999 48.9361L52.8749 43.8737C52.8749 43.8737 51.7499 40.8736 50.0624 41.8111C48.7499 42.9361 48.9374 47.4361 52.4999 48.9361Z" fill="#99231D"/>
<path d="M74.2499 42.936C71.4374 45.7485 66.9374 47.811 59.9999 44.061L55.3124 49.8734L56.4374 44.2484L53.2499 42.3734C53.2499 42.3734 53.0624 39.936 50.2499 39.936C47.4374 39.936 47.8124 45.936 48.1874 48.7485C48.3749 50.6235 47.4374 54.561 45.7499 59.436C44.9999 58.686 44.8124 57.7485 44.9999 56.9985L46.6874 43.1235C44.2499 39.561 43.1249 29.9985 51.5624 25.1235C48.3749 27.936 47.8124 32.0609 57.1874 37.6859C66.5624 42.7484 71.4374 43.4985 74.2499 42.936Z" fill="#11000F"/>
<path d="M78.3749 53.4368C80.0624 47.4368 77.9999 42.5617 76.4999 40.4992C77.4374 39.1867 77.8124 38.0618 77.8124 38.0618C80.4374 41.4368 80.9999 45.5618 78.3749 53.4368Z" fill="#BC473B"/>
<path d="M88.3124 153.375C86.2499 152.062 85.4999 150.187 85.4999 150.187L87.3749 94.312L88.3124 153.375Z" fill="#260121"/>
<path d="M13.5 119.061C13.5 119.061 19.5 106.499 18.1875 88.1238C18.1875 88.1238 21.1874 99.1863 16.4999 125.999C13.6874 142.311 12.9374 147.186 12.9374 147.186L27.9374 165.561L11.0624 147.561L15.5624 123.936L13.5 119.061Z" fill="#260121"/>
<path d="M64.3124 77.437L70.8749 81.9371L68.4374 83.9995L74.4374 85.8745C74.4374 85.8745 76.3124 107.25 70.3124 133.875C70.3124 133.875 76.4999 116.437 75.3749 85.4995L69.1874 83.8121L71.6249 81.9371L64.3124 77.437Z" fill="#260121"/>
<path d="M32.0624 73.3118L29.6249 77.0618L34.4999 80.0618L29.6249 81.9368C29.6249 81.9368 45.5624 113.249 45.9374 123.562C46.3124 133.874 28.1249 165.187 28.1249 165.187C28.1249 165.187 44.4374 134.624 44.6249 123.562C44.6249 116.437 28.3125 81.3744 28.3125 81.3744L32.8124 80.2493L28.3125 77.4368L32.0624 73.3118Z" fill="#260121"/>
<path d="M101.437 110.062C102.375 110.437 103.312 110.812 103.312 110.812C102.937 110.437 102.375 110.249 101.437 110.062Z" fill="#BC473B"/>
<path d="M94.4999 108.562C94.6874 108.374 94.8749 108.374 95.4374 108.187C95.2499 108.937 95.25 110.062 97.875 110.999C101.812 112.312 103.687 113.999 103.687 113.999C103.687 113.999 103.5 115.874 100.5 115.124C101.25 115.312 102.187 114.937 102.375 114.187C102.375 114.187 102.375 114.187 102.187 113.999C102 113.812 101.812 113.624 101.062 113.249C100.125 112.874 96.9374 111.374 95.2499 110.812C94.1249 110.437 93.9374 109.312 94.4999 108.562Z" fill="#BC473B"/>
<path d="M104.625 127.311L104.437 128.998C103.5 129.748 102.375 130.124 101.25 130.124C98.8125 130.124 97.1249 128.811 96.1874 126.936C96.3749 125.624 97.125 122.249 97.5 120.749C97.6875 119.999 97.6875 119.623 97.6875 119.623C97.6875 119.623 93 117.186 92.8125 115.873C92.625 114.561 93.5624 114.186 93.5624 114.186H93.9375C93.75 115.124 93.7499 116.998 98.9999 118.686L98.8125 127.686C98.8125 127.311 102.375 128.999 104.625 127.311Z" fill="#BC473B"/>
<path d="M100.5 107.437L106.125 109.312C106.125 109.312 105.75 111.374 103.687 110.624C103.687 110.624 103.687 110.624 103.875 110.624C104.25 110.624 104.812 110.437 104.812 109.687V109.499L98.8125 107.812C98.0625 107.624 97.6874 106.874 98.0624 106.124C98.2499 105.749 98.8125 105.187 99.75 105.187C99.375 105.937 99.9375 107.062 100.5 107.437Z" fill="#BC473B"/>
<path d="M109.5 104.624L108.187 107.061C108.187 107.061 108.187 106.687 107.437 106.312L108.562 104.249L107.25 101.811C107.062 101.061 107.062 100.499 107.437 99.9365C107.812 99.749 108.375 99.5615 109.125 99.9365C108.375 100.686 108.187 101.624 108.937 102.374L109.875 103.499C109.5 103.874 109.5 104.436 109.5 104.624Z" fill="#BC473B"/>
<path d="M111.375 94.311C111.75 93.936 112.312 93.936 112.5 94.311C112.687 94.4985 112.687 95.0611 112.312 95.4361C111.937 95.8111 111.375 95.8111 111.187 95.4361C110.812 95.2486 111 94.686 111.375 94.311Z" fill="#DBD2D1"/>
</g>
</svg>
