<svg width="448" height="400" viewBox="0 0 448 400" fill="none" xmlns="http://www.w3.org/2000/svg">
<path d="M143.424 381.197V396.099H113.319V381.197C113.319 377.896 114.519 374.596 116.319 372.295C117.82 370.495 119.32 368.995 121.42 367.795C123.521 366.594 125.921 365.994 128.321 365.994C132.522 365.994 136.423 367.795 139.023 370.495C141.924 373.196 143.424 376.996 143.424 381.197Z" fill="#4C9CA3"/>
<path d="M116.319 376.696C116.319 376.696 103.217 358.793 111.519 342.99C111.519 342.99 125.521 352.492 124.321 371.595L116.319 376.696Z" fill="#4C9CA3"/>
<path d="M121.72 367.795C119.62 368.995 117.82 370.495 116.62 372.295C114.219 367.495 109.118 355.593 112.719 347.791C112.719 347.791 120.22 353.192 121.72 367.795Z" fill="#F73C4F"/>
<path d="M140.724 376.696C140.724 376.696 153.826 358.793 145.524 342.99C145.524 342.99 131.522 352.492 132.722 371.595L140.724 376.696Z" fill="#4C9CA3"/>
<path d="M135.423 367.795C137.523 368.995 139.323 370.495 140.524 372.295C142.924 367.495 148.025 355.593 144.424 347.791C144.324 347.791 136.923 353.192 135.423 367.795Z" fill="#F73C4F"/>
<path d="M133.022 382.997C133.022 383.297 133.022 383.597 133.022 384.197C130.322 383.597 127.321 383.297 124.721 382.997C124.721 380.597 126.821 378.797 128.921 378.797C131.222 378.797 133.022 380.597 133.022 382.997Z" fill="#FF8F6A"/>
<path d="M134.222 378.496C135.051 378.496 135.722 377.824 135.722 376.996C135.722 376.167 135.051 375.496 134.222 375.496C133.394 375.496 132.722 376.167 132.722 376.996C132.722 377.824 133.394 378.496 134.222 378.496Z" fill="#111010"/>
<path d="M123.42 378.196C124.249 378.196 124.92 377.524 124.92 376.696C124.92 375.867 124.249 375.196 123.42 375.196C122.592 375.196 121.92 375.867 121.92 376.696C121.92 377.524 122.592 378.196 123.42 378.196Z" fill="#111010"/>
<path d="M115.418 375.796L109.718 378.496L112.418 378.796L109.718 380.296L114.218 381.796L115.418 375.796Z" fill="#4C9CA3"/>
<path d="M140.723 375.796L146.723 378.496L144.023 378.796L146.723 380.296L142.223 381.796L140.723 375.796Z" fill="#4C9CA3"/>
<path d="M366.861 338.89L406.468 399.7H413.369L371.262 335.589L366.861 338.89Z" fill="#323244"/>
<path d="M413.669 338.89L378.763 400H371.562L409.468 335.589L413.669 338.89Z" fill="#323244"/>
<path d="M187.631 338.89L227.538 399.7H234.139L192.332 335.589L187.631 338.89Z" fill="#454556"/>
<path d="M234.739 338.89L199.833 400H192.332L230.539 335.589L234.739 338.89Z" fill="#454556"/>
<path d="M409.468 295.583V328.088H398.167V288.481L409.468 295.583Z" fill="#F4A422"/>
<path d="M226.938 295.583V328.088H215.636V288.481L226.938 295.583Z" fill="#F4A422"/>
<path d="M351.959 399.4C351.959 399.4 351.059 360.893 358.56 345.991C358.56 345.991 341.857 354.292 350.458 399.4H351.959Z" fill="#323244"/>
<path d="M355.159 398.8C355.159 398.8 358.46 380.897 364.661 373.796C364.661 373.796 351.558 377.996 353.359 399.1L355.159 398.8Z" fill="#323244"/>
<path d="M348.358 399.1C348.358 399.1 339.757 377.596 340.857 364.794C340.857 364.794 332.555 377.596 346.858 399.4L348.358 399.1Z" fill="#323244"/>
<path d="M413.669 244.874H204.334V295.583H413.669V244.874Z" fill="#FCBD4B"/>
<path d="M413.969 328.088H186.431V338.79H413.969V328.088Z" fill="#FCBD4B"/>
<path d="M413.969 328.088H366.861V338.79H413.969V328.088Z" fill="#F4A422"/>
<path d="M413.569 244.874H404.067V295.583H413.569V244.874Z" fill="#F4A422"/>
<path d="M404.067 295.583H204.334V244.874H271.145L404.067 295.583Z" fill="#F4A422"/>
<path d="M24.7041 398.8C24.7041 398.8 38.4064 382.997 71.2118 392.199C104.017 401.1 111.819 365.094 148.725 389.798C185.631 414.503 216.136 376.096 289.748 398.4C289.748 398.4 339.557 390.599 361.36 398.7C361.36 398.7 399.266 393.599 414.469 398.4L24.7041 398.8Z" fill="#F9D8AD"/>
<path d="M34.0057 398.5C34.0057 398.5 44.4074 390.198 53.7089 398.8L34.0057 398.5Z" fill="#FF8F6A"/>
<path d="M101.417 399.4C101.417 399.4 103.217 328.988 89.2148 301.584C89.2148 301.584 119.92 317.086 104.117 399.4H101.417Z" fill="#454556"/>
<path d="M95.1158 398.5C95.1158 398.5 89.1148 365.994 77.5129 352.592C77.5129 352.592 101.717 360.093 98.1163 398.8L95.1158 398.5Z" fill="#454556"/>
<path d="M107.918 398.8C107.918 398.8 124.021 359.693 121.62 335.589C121.62 335.589 136.823 358.893 110.918 398.8H107.918Z" fill="#454556"/>
<path d="M130.322 399.1L146.424 393.099L157.126 399.1H130.322Z" fill="#FF8F6A"/>
<path d="M59.0098 399.4C59.0098 399.4 65.3109 388.398 87.9146 384.797C110.318 381.197 128.221 399.1 128.221 399.1L59.0098 399.4Z" fill="#FF8F6A"/>
<path d="M286.648 398.8L268.745 379.997L259.843 382.397L242.54 355.593H241.04H236.239C232.639 355.593 229.638 357.693 228.138 360.993L216.536 372.595L214.736 376.196L198.333 382.497L194.732 389.998L172.329 398.9L204.234 397.7L203.934 398.6L286.648 398.8Z" fill="#FF8F6A"/>
<path d="M286.648 398.8L204.334 399.1L216.836 373.196L228.438 361.594C229.938 358.293 232.939 356.193 236.539 356.193H241.34L252.642 382.697H259.843L268.745 380.297L266.644 385.698L286.648 398.8Z" fill="#F05E2B"/>
<path d="M392.465 379.096C396.277 379.096 399.367 375.38 399.367 370.795C399.367 366.21 396.277 362.494 392.465 362.494C388.654 362.494 385.564 366.21 385.564 370.795C385.564 375.38 388.654 379.096 392.465 379.096Z" fill="#323244"/>
<path d="M442.274 328.988L441.674 334.089L441.374 335.889L433.372 398.8H389.465L385.964 371.395L383.564 353.492L380.563 328.988H442.274Z" fill="#F73C4F"/>
<path d="M441.674 334.089L441.373 335.889L433.272 398.8H419.27V331.989C428.871 330.188 435.973 331.389 441.674 334.089Z" fill="#DD2641"/>
<path d="M447.675 322.187H375.162V329.088H447.675V322.187Z" fill="#F73C4F"/>
<path d="M442.274 328.988L441.374 335.889L380.563 328.988H442.274Z" fill="#323244"/>
<path d="M447.675 322.187V328.988H413.069L404.967 322.187H447.675Z" fill="#DD2641"/>
<path d="M406.468 361.194C406.468 368.395 400.767 373.996 393.666 373.996C390.665 373.996 387.965 373.096 385.864 371.295L383.464 353.392C385.864 350.392 389.465 348.291 393.566 348.291C400.867 348.391 406.468 354.092 406.468 361.194Z" fill="#FCBD4B"/>
<path d="M273.145 399.1L287.248 388.998L301.25 383.297L314.952 398.5L273.145 399.1Z" fill="#F05E2B"/>
<path d="M445.274 400H1.2002C0.6001 400 0 399.4 0 398.8C0 398.2 0.6001 397.6 1.2002 397.6H444.974C445.574 397.6 446.174 398.2 446.174 398.8C446.174 399.4 445.874 400 445.274 400Z" fill="#F9D8AD"/>
<path d="M265.744 224.071C265.444 225.271 265.144 227.071 264.844 228.872C262.144 242.874 256.543 272.679 255.343 284.081C255.343 284.681 255.343 285.281 255.042 285.881C254.142 298.683 243.441 336.89 243.441 336.89H237.44C237.139 332.389 237.139 327.388 237.44 321.687C237.44 319.887 237.44 318.086 237.44 316.286C237.44 310.585 237.44 305.584 237.139 301.684C237.139 301.384 237.139 301.084 237.139 300.784C237.139 300.483 237.139 300.183 237.139 299.883C237.139 298.983 237.139 298.083 236.839 297.183C236.839 296.583 236.839 296.283 236.839 295.683C236.839 295.083 236.839 294.783 236.839 294.182C236.839 293.882 236.839 293.882 236.839 293.582C236.839 293.282 236.839 293.282 236.839 292.982V292.682C236.839 292.382 236.839 292.382 236.839 292.382C236.839 291.782 236.839 291.182 236.539 290.582C236.539 290.582 236.539 290.582 236.539 290.282C236.539 289.982 236.539 289.982 236.539 289.682V289.382C236.539 289.382 236.539 289.382 236.539 289.082C236.539 289.082 236.539 288.782 236.539 288.481V288.181C236.539 287.581 236.839 286.681 237.139 285.481C237.139 285.181 237.139 285.181 237.139 284.881C237.139 284.581 237.139 284.281 237.44 283.681C237.44 283.381 237.44 283.081 237.44 282.781V282.48C237.44 282.18 237.44 281.88 237.44 281.28C237.44 280.38 237.74 279.18 237.74 277.98C237.74 277.68 237.74 277.38 237.74 277.38C237.74 276.78 237.74 275.879 237.74 274.979C237.74 274.679 237.74 274.379 237.74 274.079C237.74 272.579 237.74 271.079 237.74 269.278C237.74 268.078 237.74 267.178 237.44 265.978C237.139 263.577 237.139 260.577 236.839 257.676L238.34 226.671L244.341 227.271V225.171L248.241 225.471L258.943 226.071V224.271L261.944 223.971H265.744V224.071Z" fill="#FF8F6A"/>
<path d="M286.648 214.169L283.047 215.969L283.947 219.27L276.746 220.77L273.446 221.67L273.746 223.171L265.744 224.071L262.144 224.671L259.143 224.971V226.771L248.441 226.171H244.541V227.871L238.84 227.271L235.339 227.071H235.039L230.538 226.771V228.171L218.036 226.471L214.436 225.871L214.136 227.571L204.934 225.571L202.534 224.971L198.633 224.071L198.333 226.171L183.431 219.87L209.335 142.057L210.235 138.757H262.444V145.258L270.545 165.261L289.848 212.669L286.648 214.169Z" fill="#323244"/>
<path d="M270.845 165.561L261.043 147.658C259.243 153.959 256.243 155.959 254.142 153.659C252.042 151.259 256.243 144.157 256.243 144.157C256.243 142.357 256.843 139.957 257.443 138.757H262.544V145.358L270.645 165.061L270.845 165.561Z" fill="#1F1F35"/>
<path d="M320.653 128.855L303.05 125.554C305.451 124.954 306.951 124.354 306.951 124.354L289.948 118.353C289.948 118.353 273.846 127.255 265.444 133.856C265.444 133.856 262.444 135.056 260.343 138.656H210.235L209.635 141.957L202.734 144.657C199.133 146.158 194.932 144.357 193.532 140.457C191.432 135.356 189.032 128.555 188.131 122.254C187.831 120.453 187.831 118.953 187.831 117.153C187.831 117.153 187.831 117.153 187.831 116.853C187.831 109.952 189.332 96.2494 190.532 85.5477C191.432 77.2463 192.332 70.6451 192.332 70.6451C192.332 70.6451 195.033 70.3451 198.633 70.0451C200.133 69.745 201.934 69.745 203.734 69.4449C210.935 68.5448 219.537 66.7445 223.137 63.744C223.437 63.444 223.737 63.1439 224.037 62.8439C224.037 62.8439 226.138 64.6441 229.438 66.4444C230.338 67.0445 231.539 67.3446 232.739 67.6446C236.339 68.8448 241.04 69.1449 245.841 67.0446C247.941 66.1444 250.342 64.6442 252.442 62.5438C252.442 62.5438 256.343 65.8444 265.544 65.5443C267.645 65.5443 269.445 65.5443 271.245 66.1444C276.646 67.6446 281.047 71.8454 291.549 81.0469C305.251 92.9489 322.254 108.752 323.454 110.852C323.854 113.352 322.954 122.654 320.653 128.855Z" fill="#F9D8AD"/>
<path d="M292.549 114.252C292.549 114.252 282.447 102.05 279.447 85.6476C279.447 85.6476 279.747 100.25 286.948 115.153L259.543 136.056C259.543 136.056 241.34 136.356 226.438 136.656C215.736 136.956 206.734 128.355 206.434 117.253L206.134 86.2478L203.134 133.956C202.234 132.755 201.634 131.255 201.334 129.755L199.833 117.253C199.833 117.253 198.033 118.153 195.633 118.753C192.932 119.353 189.932 119.353 187.331 117.253C187.331 118.753 187.631 120.553 187.631 122.354C188.531 128.655 190.932 135.756 193.032 140.557C194.532 144.157 198.733 145.958 202.234 144.758L209.135 142.057L209.735 138.757H259.843C261.644 135.456 264.944 133.956 264.944 133.956C273.246 127.355 289.448 118.453 289.448 118.453L313.952 108.351L292.549 114.252Z" fill="#E8B374"/>
<path d="M232.039 68.0448C232.039 68.0448 219.837 73.4456 204.034 75.846C188.231 78.2464 195.933 117.553 195.933 117.553L195.333 118.753L192.332 127.355C192.332 127.355 190.232 125.554 187.531 122.254C187.231 120.453 187.231 118.953 187.231 117.153C187.231 117.153 187.231 117.153 187.231 116.853C187.231 109.952 188.731 96.2495 189.932 85.5477C190.832 77.2463 191.732 70.6452 191.732 70.6452C191.732 70.6452 194.432 70.3451 198.033 70.0451C199.533 69.745 201.334 69.745 203.134 69.4449C210.335 68.5448 218.936 66.7445 222.537 63.744C222.837 63.444 223.137 63.1439 223.437 62.8439C223.437 62.8439 225.538 64.6441 228.838 66.4444C229.938 67.1446 230.838 67.4447 232.039 68.0448Z" fill="#E8B374"/>
<path d="M256.443 33.4389C256.443 34.039 256.443 34.6391 256.143 34.9392C255.242 40.04 252.842 40.04 252.842 40.04C252.842 41.5403 251.342 46.041 248.641 49.8417C248.341 50.1417 248.341 50.4417 248.041 50.4417C246.841 51.942 245.341 53.1422 243.54 54.0424C242.34 54.6425 240.84 54.9425 239.34 54.9425C233.639 54.9425 229.238 50.4417 226.538 47.1412C224.737 44.7408 223.837 42.9405 223.837 42.9405C223.237 43.2405 222.637 43.2406 222.037 43.2406C218.736 43.2406 216.036 38.7398 215.436 35.4392C215.136 34.5391 215.136 33.639 215.436 33.0389C215.436 32.7388 215.736 32.7388 215.736 32.4387C218.136 30.6384 220.237 32.4387 220.237 32.4387C219.336 29.4382 220.237 27.0379 221.137 25.5376C221.437 25.5376 221.437 25.2376 221.737 25.2376C222.337 24.6375 223.237 23.7373 224.737 22.8372C225.037 22.8372 225.037 22.5371 225.337 22.5371L225.637 22.2371C225.938 21.937 226.238 21.6369 226.538 21.6369C226.838 21.3369 227.138 21.3369 227.138 21.0369C227.438 20.7368 227.738 20.7368 228.038 20.4367L228.338 20.1367C229.538 19.5366 230.738 18.9365 231.939 18.3364C232.239 18.3364 232.239 18.3364 232.539 18.0364C232.839 18.0364 232.839 18.0364 233.139 17.7363C233.439 17.7363 233.439 17.7363 233.739 17.4362C234.039 17.4362 234.039 17.4362 234.339 17.1362C234.639 17.1362 234.639 17.1362 234.939 16.8362C235.239 16.8362 235.239 16.8362 235.539 16.8362C236.139 16.8362 236.439 16.5361 237.039 16.5361C237.639 16.5361 237.94 16.2361 238.54 16.2361C238.84 16.2361 239.44 16.2361 239.74 16.2361C240.04 16.2361 240.04 16.2361 240.34 16.2361C240.64 16.2361 240.64 16.2361 240.94 16.2361C241.84 16.2361 243.04 16.2361 243.941 16.2361C244.241 16.2361 244.841 16.2361 245.141 16.5361C245.741 16.5361 246.341 16.8362 247.241 16.8362C247.841 17.1362 248.441 17.1362 249.341 17.4362H249.641C249.641 17.4362 249.942 17.4363 249.942 17.7363C250.242 17.7363 250.242 18.0364 250.542 18.0364C250.842 18.0364 251.142 18.3364 251.142 18.3364C251.442 18.3364 251.742 18.6364 251.742 18.6364C251.742 19.2365 251.742 20.1367 252.042 20.7368C252.642 24.3374 253.542 27.3379 253.542 27.3379C253.542 27.3379 255.042 26.7378 255.943 27.6379C256.143 29.6383 256.743 30.7385 256.443 33.4389Z" fill="#FF8F6A"/>
<path d="M248.741 50.1417C248.441 50.4418 248.441 50.7418 248.141 50.7418C246.941 52.2421 245.441 53.4423 243.641 54.3424C242.44 54.9425 240.94 55.2426 239.44 55.2426C233.739 55.2426 229.338 50.7418 226.638 47.4412C224.837 45.0408 223.937 43.2406 223.937 43.2406C223.337 43.5406 222.737 43.5406 222.137 43.5406C218.836 43.5406 216.136 39.0399 215.536 35.7393C215.236 34.8392 215.236 33.939 215.536 33.3389C215.536 33.0389 215.836 33.0389 215.836 32.7388C218.236 30.9385 220.337 32.7388 220.337 32.7388C219.437 29.7383 220.337 27.3379 221.237 25.8377C221.537 25.8377 221.537 25.5376 221.837 25.5376C222.437 24.9375 223.337 24.0374 224.837 23.1372C225.137 23.1372 225.137 22.8372 225.438 22.8372L225.738 22.5371C226.038 22.2371 226.338 21.937 226.638 21.937C226.938 21.6369 227.238 21.637 227.238 21.3369C227.538 21.0369 227.838 21.0369 228.138 20.7368L228.438 20.4367C229.638 19.8366 230.838 19.2366 232.039 18.6365C232.339 18.6365 232.339 18.6365 232.639 18.3364C232.939 18.3364 232.939 18.3364 233.239 18.0364C233.539 18.0364 233.539 18.0364 233.839 17.7363C234.139 17.7363 234.139 17.7363 234.439 17.4362C234.739 17.4362 234.739 17.4363 235.039 17.1362C235.339 17.1362 235.339 17.1362 235.639 17.1362C236.239 17.1362 236.539 16.8362 237.139 16.8362C237.74 16.8362 238.04 16.5361 238.64 16.5361C238.94 16.5361 239.54 16.5361 239.84 16.5361C240.14 16.5361 240.14 16.5361 240.44 16.5361C240.74 16.5361 240.74 16.5361 241.04 16.5361C241.94 16.5361 243.14 16.5361 244.041 16.5361C244.341 16.5361 244.941 16.5361 245.241 16.8362C245.841 16.8362 246.441 17.1362 247.341 17.1362C247.941 17.4363 248.541 17.4363 249.442 17.7363H249.742C249.742 17.7363 250.042 17.7363 250.042 18.0364C250.342 18.0364 250.342 18.3364 250.642 18.3364C250.942 18.3364 251.242 18.6365 251.242 18.6365C251.542 18.6365 251.842 18.9365 251.842 18.9365C251.842 19.5366 251.842 20.4368 252.142 21.0369C247.941 19.8367 233.639 17.1362 226.538 29.3383C226.538 29.3383 228.638 49.0416 239.64 51.742C243.341 53.4423 246.341 52.2421 248.741 50.1417Z" fill="#EA6044"/>
<path d="M306.851 124.454C306.851 124.454 305.351 124.754 302.95 125.654C294.649 128.055 275.546 133.756 272.245 136.356C268.045 139.957 267.745 150.358 267.745 150.358C267.745 150.358 268.945 152.459 270.445 156.359C271.045 158.46 271.045 161.16 271.045 163.261C271.045 164.761 270.745 165.961 270.745 165.961L262.644 145.658C261.443 150.158 259.643 152.259 258.143 152.859C257.843 153.159 257.243 153.159 256.943 152.859C256.343 152.559 256.043 151.959 256.343 151.059L259.043 144.157C259.043 142.057 259.643 140.257 260.543 139.057C262.344 135.756 265.644 134.256 265.644 134.256C273.946 127.655 290.148 118.753 290.148 118.753L306.851 124.454Z" fill="#FF8F6A"/>
<path d="M195.332 89.8483C195.332 90.4484 195.032 90.7485 194.432 91.0485C193.832 91.3486 192.932 91.6486 192.032 91.6486C190.832 91.6486 189.631 91.6486 188.431 91.3486C185.431 90.7485 183.33 89.5483 182.43 88.048C182.13 87.748 182.13 87.4479 182.43 87.1479C182.73 85.9477 184.831 85.0475 187.531 85.3476C188.131 85.3476 189.031 85.3476 189.631 85.6476C190.232 85.6476 190.832 85.9477 191.432 86.2478C192.032 86.5478 192.332 86.5478 192.932 86.8478C194.432 87.4479 195.632 88.6481 195.332 89.8483Z" fill="#EDAA15"/>
<path d="M204.634 64.4441L204.034 67.4446C204.334 66.2444 203.734 65.3442 202.234 64.144C200.733 62.9438 198.333 61.7436 195.332 61.1435C193.832 60.8435 192.032 60.5435 190.832 60.8435H190.532C190.532 60.8435 190.532 60.8435 190.232 60.8435C189.932 60.8435 189.932 60.8435 189.631 60.8435C189.031 60.8435 188.131 61.1435 187.531 61.1435H187.231H187.031C187.031 61.1435 186.731 61.1435 186.731 61.4436C186.731 61.4436 186.431 61.4436 186.431 61.7437C186.431 61.7437 186.131 61.7437 186.131 62.0437C186.131 62.0437 186.131 62.0437 185.831 62.3438L185.531 62.6438C185.531 62.6438 185.531 62.6438 185.531 62.9438C185.531 62.9438 185.531 63.2439 185.231 63.2439L185.831 60.2434C186.431 57.843 190.932 56.9429 196.233 57.843C199.533 58.4431 202.234 59.9433 203.734 61.4436C204.334 62.7438 204.634 63.844 204.634 64.4441Z" fill="#DD2641"/>
<path d="M203.734 67.7447L203.134 69.845V70.1451L201.033 76.4461L199.533 81.547L197.733 87.548L192.632 86.6478L191.132 86.3478L189.932 86.0477L187.231 85.4476L185.431 85.1476L180.93 84.2474V83.9473L184.531 64.2441C184.531 64.2441 184.531 63.944 184.831 63.944C184.831 63.944 184.831 63.944 184.831 63.644C184.831 63.3439 185.131 63.3439 185.131 63.3439C185.131 63.3439 185.131 63.344 185.431 63.0439C185.431 63.0439 185.731 63.0439 185.731 62.7439C185.731 62.7439 186.031 62.7438 186.031 62.4438C186.031 62.4438 186.331 62.4438 186.331 62.1437H186.631H186.931C187.531 61.8437 188.131 61.8437 189.031 61.8437C189.031 61.8437 189.031 61.8437 189.332 61.8437H189.632C189.632 61.8437 189.632 61.8437 189.932 61.8437H190.232C191.732 61.8437 193.232 61.8437 194.732 62.1437C197.733 62.7438 200.133 63.944 201.634 65.1442C203.434 65.3443 204.034 66.5445 203.734 67.7447Z" fill="#F73C4F"/>
<path d="M197.733 87.1479V87.4479C197.133 89.5482 195.633 90.4484 194.732 90.7485C193.832 91.0485 193.532 91.0485 193.532 91.0485H192.632L187.231 90.7485C186.331 90.4484 185.731 90.1484 185.131 89.8483C184.231 89.2482 183.331 88.6481 183.03 87.748C181.83 86.2477 181.83 84.7475 181.83 83.8473V83.5473C181.83 83.5473 181.83 83.5473 181.83 83.2472C182.13 82.047 184.231 81.1469 186.631 81.1469C187.831 81.1469 189.332 81.1468 190.532 81.4469C190.832 81.4469 191.432 81.747 191.732 81.747C195.333 83.2472 198.033 85.3476 197.733 87.1479Z" fill="#323244"/>
<path d="M204.034 74.3458C203.134 77.0462 201.033 80.0467 199.533 81.547L203.134 70.2451C203.734 70.1451 204.934 71.0452 204.034 74.3458Z" fill="#FF8F6A"/>
<path d="M198.633 224.071L209.635 161.66L202.534 224.971L198.633 224.071Z" fill="#1F1F35"/>
<path d="M214.436 225.871L221.037 162.26L218.036 226.471L214.436 225.871Z" fill="#1F1F35"/>
<path d="M233.539 162.56L235.039 227.071L230.538 226.771L233.539 162.56Z" fill="#1F1F35"/>
<path d="M243.941 156.659L248.441 226.171H244.541L243.941 156.659Z" fill="#1F1F35"/>
<path d="M262.144 224.671L259.143 224.971L258.843 222.57L255.543 164.661L261.844 221.97L262.144 224.671Z" fill="#1F1F35"/>
<path d="M265.144 166.461L276.746 220.77L273.445 221.67L265.144 166.461Z" fill="#1F1F35"/>
<path d="M286.648 214.169L283.047 215.969L274.346 179.863L286.648 214.169Z" fill="#1F1F35"/>
<path d="M257.043 21.537C257.043 22.1371 256.143 22.7371 255.542 22.137C255.242 21.837 254.942 21.537 254.342 21.537C253.442 20.9369 252.542 20.3368 251.642 19.7367C251.342 19.7367 251.042 19.4366 251.042 19.4366C250.742 19.4366 250.442 19.1365 250.442 19.1365C250.142 19.1365 250.142 18.8365 249.842 18.8365C249.842 18.8365 249.542 18.8365 249.542 18.5365H249.241C248.641 18.2364 248.041 17.9363 247.141 17.9363C246.541 17.6363 245.941 17.6363 245.041 17.6363C244.741 17.6363 244.141 17.6363 243.841 17.3363C242.64 17.3363 241.74 17.0362 240.84 17.3363C240.54 17.3363 240.54 17.3363 240.24 17.3363C239.94 17.3363 239.94 17.3363 239.64 17.3363C239.34 17.3363 238.74 17.3363 238.44 17.3363C237.84 17.3363 237.539 17.3362 236.939 17.6363C236.339 17.6363 236.039 17.9363 235.439 17.9363C235.139 17.9363 235.139 17.9363 234.839 17.9363C234.539 17.9363 234.539 17.9364 234.239 18.2364C233.939 18.2364 233.939 18.2364 233.639 18.5365C233.339 18.5365 233.339 18.5365 233.039 18.8365C232.739 18.8365 232.739 18.8365 232.439 19.1365C232.139 19.1365 232.139 19.1365 231.839 19.4366C231.238 19.7366 230.638 20.0367 230.038 20.3368C229.438 20.6368 228.838 20.9369 228.238 21.2369L227.938 21.537C227.638 21.837 227.338 21.837 227.038 22.137C226.738 22.4371 226.438 22.4371 226.438 22.7372C226.138 23.0372 225.838 23.3373 225.537 23.3373L225.237 23.6373C224.937 23.6373 224.937 23.9373 224.637 23.9373C223.137 25.1375 222.237 26.0377 221.637 26.3378C221.337 26.6378 221.337 26.6378 221.037 26.6378C218.636 28.4381 217.136 26.6378 217.136 26.6378C214.736 28.4381 214.436 31.1385 214.436 31.1385C211.135 19.2366 214.136 2.23376 233.239 0.733514C234.739 0.733514 236.239 0.433464 237.74 0.733514C252.642 1.93371 252.942 17.1362 252.942 17.1362L256.243 21.637C256.743 21.2369 257.043 21.2369 257.043 21.537Z" fill="#F9D8AD"/>
<path d="M220.737 33.1389C220.737 33.1389 218.336 31.0385 216.236 33.1389C215.936 33.1389 215.936 33.4389 215.936 33.739C215.336 32.5388 215.036 31.0385 215.036 31.0385C215.036 31.0385 215.636 28.3381 217.736 26.5378C217.736 26.5378 219.237 28.3381 221.637 26.5378C220.737 27.838 219.837 30.1384 220.737 33.1389Z" fill="#1F1F35"/>
<path d="M251.742 62.7439C249.642 64.8442 247.241 66.3445 245.141 67.2446C240.34 69.345 235.939 69.0449 232.039 67.8447C230.838 67.5446 229.938 66.9445 228.738 66.6445C225.438 65.1442 223.337 63.0439 223.337 63.0439C226.938 60.3435 227.538 55.8427 227.538 52.3421C227.538 50.2418 227.238 48.4415 226.938 47.5413C228.738 49.9417 231.439 52.6421 234.439 54.1424C235.939 55.0425 237.74 55.3426 239.54 55.3426C241.04 55.3426 242.54 55.0425 243.741 54.4424C245.541 53.5423 247.041 52.3421 248.241 50.8419C248.441 60.9435 251.742 62.7439 251.742 62.7439Z" fill="#FF8F6A"/>
<path d="M223.337 63.244C220.337 66.5445 210.835 68.6448 203.034 69.845L203.634 67.7447L204.234 64.7442C204.534 63.8441 203.934 62.9439 203.034 62.0438C204.234 59.3433 204.834 56.3428 204.534 53.4423C203.334 43.6407 212.635 37.9397 215.536 36.4395C216.136 39.74 218.836 44.2408 222.137 44.2408C222.137 45.7411 222.737 47.8414 224.237 49.3416C225.137 50.2418 226.338 51.442 227.238 52.9422C227.538 56.1427 226.938 60.6435 223.337 63.244Z" fill="#1F1F35"/>
<path d="M270.545 66.2444C268.745 65.6443 266.944 65.6443 264.844 65.6443C255.642 65.6443 251.742 62.6438 251.742 62.6438C251.742 62.6438 248.441 60.8435 248.141 51.0419C251.442 47.1412 252.942 41.8403 252.942 40.3401C252.942 40.3401 255.342 40.0401 256.243 35.2393C258.643 36.1394 267.244 40.04 266.644 51.3419C266.344 57.3429 268.445 62.7438 270.545 66.2444Z" fill="#323244"/>
<path d="M255.542 29.0382C254.642 28.1381 253.142 28.7382 253.142 28.7382C253.142 28.7382 251.942 24.5375 251.642 20.1367C252.542 20.7368 253.442 21.0369 254.342 21.937C255.242 23.3372 255.843 26.0377 255.542 29.0382Z" fill="#1F1F35"/>
<path d="M253.542 30.4384C253.542 30.4384 253.542 35.2392 253.242 37.9397C253.242 37.9397 254.742 37.0396 255.042 34.0391C255.242 30.7385 254.442 30.1384 253.542 30.4384Z" fill="#EA6044"/>
<path d="M220.737 34.9392C220.737 34.9392 221.637 39.1399 223.137 42.1404C223.137 42.1404 219.837 42.7405 218.036 38.5398C216.236 34.0391 219.236 33.739 220.737 34.9392Z" fill="#323244"/>
<path d="M232.039 68.0447C230.838 67.7447 229.938 67.1445 228.738 66.8445C225.438 65.3442 223.337 63.2439 223.337 63.2439C226.938 60.5435 227.538 56.0427 227.538 52.5421C227.538 50.4418 227.238 48.6415 226.938 47.7413C228.738 50.1417 231.439 52.8422 234.439 54.3424C234.439 57.3429 234.139 63.544 232.039 68.0447Z" fill="#EA6044"/>
<path d="M230.838 19.7367C230.238 20.0367 229.638 20.3367 229.038 20.6368L228.738 20.9368C228.438 21.2369 228.138 21.2369 227.838 21.5369C227.538 21.837 227.238 21.837 227.238 22.137C226.938 22.4371 226.638 22.7372 226.338 22.7372L226.038 23.0372C225.737 23.0372 225.737 23.3372 225.437 23.3372C223.937 24.5374 223.037 25.4376 222.437 25.7377C222.137 26.0377 222.137 26.0377 221.837 26.0377C219.436 27.838 217.936 26.0377 217.936 26.0377C215.536 27.838 215.236 30.5384 215.236 30.5384C211.935 18.6365 214.936 1.63361 234.039 0.133356C235.539 0.133356 237.039 -0.166694 238.54 0.133356C232.839 1.33356 226.938 4.63409 228.738 14.4357C228.738 14.4357 242.74 9.03486 253.742 16.5361C253.742 16.5361 241.84 10.5351 230.438 16.8362C229.038 17.3362 229.338 19.4366 230.838 19.7367Z" fill="#E8B374"/>
<path d="M306.851 124.454C306.851 124.454 305.351 124.754 302.95 125.654L286.548 122.954L265.344 135.756C265.344 135.756 259.943 138.757 260.543 143.557C260.543 143.557 258.443 150.158 256.643 152.459C256.043 152.159 255.743 151.559 256.043 150.658L258.743 143.757C258.743 141.657 259.343 139.857 260.243 138.656C262.044 135.356 265.344 133.856 265.344 133.856C273.646 127.255 289.848 118.353 289.848 118.353L306.851 124.454Z" fill="#EA6044"/>
<path d="M271.145 162.861C271.145 164.361 270.845 165.561 270.845 165.561L262.744 145.258L264.244 141.657L264.544 145.258L271.145 162.861Z" fill="#EA6044"/>
<path d="M190.832 91.6486C189.032 92.2487 183.331 93.4489 181.63 89.5483C179.23 84.7475 181.93 81.4469 181.93 81.4469L181.63 83.8473C181.63 83.8473 181.63 83.8473 181.63 84.1474V84.4474C181.63 85.3475 181.63 86.8478 182.831 88.3481C183.431 89.8483 185.831 91.0485 188.832 91.6486C189.032 91.6486 189.932 91.6486 190.832 91.6486Z" fill="#EA6044"/>
<path d="M189.632 61.2436L186.031 81.547L185.431 84.8475L184.531 89.9483C184.531 89.9483 184.531 89.9484 184.531 90.2484C183.631 89.6483 182.73 89.0482 182.43 88.148C181.23 86.6478 181.23 85.1476 181.23 84.2474V83.9473C181.23 83.9473 181.23 83.9473 181.23 83.6473L184.831 63.944C184.831 63.944 184.831 63.644 185.131 63.644C185.131 63.644 185.131 63.644 185.131 63.3439C185.131 63.0439 185.431 63.0439 185.431 63.0439C185.431 63.0439 185.431 63.0439 185.731 62.7438C185.731 62.7438 186.031 62.7438 186.031 62.4437C186.031 62.4437 186.331 62.4438 186.331 62.1437C186.331 62.1437 186.631 62.1437 186.631 61.8437H186.931H187.231C188.231 61.5436 188.831 61.2436 189.632 61.2436Z" fill="#DD2641"/>
<path d="M199.833 117.253L198.633 140.857C198.633 140.857 192.032 133.356 189.432 124.454C186.431 115.553 176.93 84.1474 175.729 81.547C174.829 78.8465 178.43 76.4461 178.43 76.4461C178.73 72.5454 180.23 72.2454 180.23 72.2454C180.23 68.9449 180.83 67.4446 180.83 67.4446C180.83 67.4446 180.53 63.844 182.33 62.9438C183.531 62.3437 184.431 62.9439 185.031 63.2439C185.031 63.544 184.731 63.544 184.731 63.844L182.63 75.1459C185.331 74.8458 187.731 75.446 189.232 76.0461C189.832 76.3461 190.432 76.9462 190.432 77.8463C190.432 78.1464 190.132 78.4465 190.132 78.7465C189.832 79.0466 189.232 79.3466 188.631 79.3466C185.031 79.3466 182.63 80.5468 181.73 81.4469L181.43 83.8473C181.43 83.8473 181.43 83.8473 181.43 84.1474V84.4474C181.43 85.0475 181.43 86.2477 182.33 87.4479C182.33 87.748 182.63 88.0481 182.63 88.0481C183.231 89.5483 185.631 90.7485 188.631 91.3486C189.532 91.6486 190.432 91.6486 191.332 91.6486C191.632 91.6486 192.232 91.6486 192.532 91.6486C191.932 92.5488 191.332 93.1489 191.332 93.1489C191.132 105.351 199.833 117.253 199.833 117.253Z" fill="#FF8F6A"/>
<path d="M199.833 117.253L198.633 140.857C198.633 140.857 192.032 133.356 189.432 124.454C186.431 115.553 176.93 84.1474 175.729 81.547C174.829 78.8465 178.43 76.4461 178.43 76.4461C178.73 72.5454 180.23 72.2454 180.23 72.2454C180.23 68.9449 180.83 67.4446 180.83 67.4446C180.83 67.4446 180.53 63.844 182.33 62.9438C183.531 62.3437 184.431 62.9439 185.031 63.2439C185.031 63.544 184.731 63.544 184.731 63.844L182.63 75.1459C178.43 75.746 179.93 79.0466 179.93 79.0466C185.631 77.2463 188.531 77.8463 190.032 78.4464C189.732 78.7465 189.132 79.0466 188.531 79.0466C184.931 79.0466 182.53 80.2467 181.63 81.1469L181.33 83.5473C181.33 83.5473 181.33 83.5473 181.33 83.8473V84.1474C181.33 84.7475 181.33 85.9477 182.23 87.1479C182.23 87.4479 182.23 87.448 182.23 87.748C181.93 92.8489 195.333 128.055 196.533 127.455C197.733 127.155 199.833 117.253 199.833 117.253Z" fill="#EA6044"/>
<path d="M195.332 89.8483C195.332 90.4484 195.032 90.7485 194.432 91.0485C193.832 91.3486 192.932 91.6486 192.032 91.6486C190.832 91.6486 189.631 91.6486 188.431 91.3486C185.431 90.7485 183.33 89.5483 182.43 88.048C182.13 87.748 182.13 87.4479 182.43 87.1479C182.73 85.9477 184.831 85.0475 187.531 85.3476C188.131 85.3476 189.031 85.3476 189.631 85.6476C190.232 85.6476 190.832 85.9477 191.432 86.2478C192.032 86.5478 192.332 86.5478 192.932 86.8478C194.432 87.4479 195.632 88.6481 195.332 89.8483Z" fill="#1F1F35"/>
<path d="M257.043 145.558L211.435 146.158L209.635 161.66L198.633 224.071L198.333 226.171L183.431 219.87L209.335 142.057L210.235 138.757H257.343L257.043 145.558Z" fill="#1F1F35"/>
<path d="M240.04 355.893H229.038C229.038 355.893 229.038 354.993 228.738 353.792C227.838 348.391 225.438 333.189 221.837 318.887C218.836 306.084 219.136 298.583 219.136 290.882C219.136 287.881 219.136 284.881 218.836 281.38C218.236 270.678 207.535 234.872 204.534 225.571L214.036 227.671L214.336 226.171L217.936 226.771L230.138 228.571V227.071L234.639 227.371H234.939C234.939 228.271 234.939 229.472 235.239 230.672C235.839 238.473 236.439 249.775 237.039 258.677C237.339 261.977 237.34 264.677 237.64 266.978C237.64 268.178 237.64 269.378 237.94 270.278C237.94 272.079 237.94 273.579 237.94 275.079C237.94 275.379 237.94 275.679 237.94 275.979C237.94 276.879 237.94 277.48 237.94 278.38C237.94 278.68 237.94 278.98 237.94 278.98C237.94 280.18 237.64 281.08 237.64 282.28C237.64 282.58 237.64 283.181 237.64 283.481V283.781C237.64 284.081 237.64 284.381 237.64 284.681C237.64 284.981 237.64 285.581 237.339 285.881C237.339 286.181 237.339 286.181 237.339 286.481C237.039 287.681 237.039 288.582 236.739 289.182V289.482C236.739 289.782 236.739 290.082 236.739 290.082C236.739 290.082 236.739 290.082 236.739 290.382V290.682C236.739 290.682 236.739 290.982 236.739 291.282C236.739 291.282 236.739 291.282 236.739 291.582C236.739 292.182 236.739 292.782 237.039 293.382V293.682V293.982C237.039 293.982 237.039 294.282 237.039 294.582C237.039 294.882 237.039 294.883 237.039 295.183C237.039 295.483 237.039 296.083 237.039 296.683C237.039 297.283 237.039 297.583 237.039 298.183C237.039 299.083 237.039 299.983 237.339 300.884C237.339 301.184 237.339 301.484 237.339 301.784C237.339 302.084 237.339 302.384 237.339 302.684C237.64 306.585 237.64 311.585 237.64 317.286C237.64 319.087 237.64 320.887 237.64 322.687C237.34 328.388 237.64 333.389 237.64 337.89C237.94 345.691 238.84 351.292 239.44 354.292C239.74 354.993 240.04 355.893 240.04 355.893Z" fill="#FF8F6A"/>
<path d="M240.04 355.893H229.038C229.038 355.893 229.038 354.993 228.738 353.792C227.838 348.391 225.437 333.189 221.837 318.887C218.836 306.084 219.136 298.583 219.136 290.882H236.739C236.739 291.482 236.739 292.082 237.039 292.682V292.982V293.282C237.039 293.282 237.039 293.582 237.039 293.882C237.039 294.182 237.039 294.182 237.039 294.482C237.039 294.782 237.039 295.383 237.039 295.983C237.039 296.583 237.039 296.883 237.039 297.483C237.039 298.383 237.039 299.283 237.339 300.183C237.339 300.483 237.339 300.783 237.339 301.083C237.339 301.384 237.339 301.684 237.339 301.984C237.64 305.884 237.64 310.885 237.64 316.586C237.64 318.386 237.64 320.187 237.64 321.987C237.339 327.688 237.64 332.689 237.64 337.19C237.94 344.991 238.84 350.592 239.44 353.592C239.74 354.992 240.04 355.893 240.04 355.893Z" fill="#F9D8AD"/>
<path d="M255.242 283.981C255.242 284.581 255.242 285.181 254.942 285.781C254.042 298.583 243.341 336.79 243.341 336.79H237.34C237.039 332.289 237.039 327.288 237.34 321.587C237.34 319.787 237.34 317.986 237.34 316.186C237.34 310.485 237.34 305.484 237.039 301.584C237.039 301.284 237.039 300.984 237.039 300.684C237.039 300.383 237.039 300.083 237.039 299.783C237.039 298.883 237.039 297.983 236.739 297.083C236.739 296.483 236.739 296.183 236.739 295.583C236.739 294.982 236.739 294.682 236.739 294.082C236.739 293.782 236.739 293.782 236.739 293.482C236.739 293.182 236.739 293.182 236.739 292.882V292.582C236.739 292.282 236.739 292.282 236.739 292.282C236.739 291.682 236.739 291.082 236.439 290.482C236.439 290.482 236.439 290.482 236.439 290.182C236.439 289.882 236.439 289.882 236.439 289.582V289.282C236.439 289.282 236.439 289.282 236.439 288.981C236.439 288.981 236.439 288.681 236.439 288.381V288.081C236.439 287.481 236.739 286.581 237.039 285.381C237.039 285.081 237.039 285.081 237.039 284.781C237.039 284.481 237.039 284.181 237.34 283.581H255.242V283.981Z" fill="#F9D8AD"/>
<path d="M242.44 11.4352C243.641 11.4352 246.041 12.0354 249.041 13.2356C249.642 13.5356 250.242 12.9355 250.242 12.3354V12.0354C250.242 11.7353 249.942 11.4352 249.642 11.4352C248.741 10.8351 246.341 9.935 242.44 9.935C241.84 9.935 241.54 10.2351 241.54 10.8352C241.54 10.8352 241.84 11.4352 242.44 11.4352Z" fill="#33022D"/>
<path d="M265.744 224.071C265.444 225.271 265.144 227.071 264.844 228.872C261.844 230.072 254.742 232.772 245.441 232.772C245.441 232.772 243.041 253.076 243.041 265.578C243.041 273.079 242.14 278.08 241.24 284.081H237.04C237.64 280.18 237.94 274.279 237.64 266.778C237.34 264.377 237.34 261.377 237.04 258.476L238.54 227.471L244.541 228.071V225.971L248.441 226.271L259.143 226.871V225.071L262.144 224.771L265.744 224.071Z" fill="#EA6044"/>
<path d="M241.24 298.283C241.84 309.585 240.34 328.688 239.74 337.089H237.64C237.339 332.589 237.339 327.588 237.64 321.887C237.64 320.087 237.64 318.286 237.64 316.486C237.64 310.785 237.64 305.784 237.339 301.884C237.339 301.584 237.339 301.284 237.339 300.984C237.339 300.683 237.339 300.383 237.339 300.083C237.339 299.183 237.339 298.283 237.039 297.383C237.039 296.783 237.039 296.483 237.039 295.883C237.039 295.283 237.039 294.983 237.039 294.382C237.039 294.082 237.039 294.082 237.039 293.782C237.039 293.482 237.039 293.482 237.039 293.182V292.882C237.039 292.582 237.039 292.582 237.039 292.582C237.039 291.982 237.039 291.382 236.739 290.782C236.739 290.782 236.739 290.782 236.739 290.482C236.739 290.182 236.739 290.182 236.739 289.882V289.582C236.739 289.582 236.739 289.582 236.739 289.282C236.739 289.282 236.739 288.982 236.739 288.682V288.381C236.739 287.781 237.039 286.881 237.339 285.681C237.339 285.381 237.339 285.381 237.339 285.081C237.339 284.781 237.339 284.481 237.64 283.881H241.84C240.94 287.881 240.64 292.382 241.24 298.283Z" fill="#E8B374"/>
<path d="M224.237 278.88C224.538 283.381 224.538 286.981 224.538 290.482H219.437C219.437 287.481 219.437 284.481 219.137 280.98C218.537 270.278 207.835 234.472 204.834 225.171L214.336 227.271L214.636 225.771L218.236 226.371L230.438 228.171V226.671L234.939 226.971H235.239C235.239 227.871 235.239 229.072 235.539 230.272C232.539 230.272 223.337 230.872 215.836 237.173C215.936 237.173 223.337 263.977 224.237 278.88Z" fill="#EA6044"/>
<path d="M233.239 355.893H229.038C229.038 355.893 226.038 336.789 221.837 318.887C218.836 306.084 219.136 298.583 219.136 290.882H224.237C224.237 299.783 224.237 307.585 226.638 320.387C229.338 333.189 232.039 348.691 233.239 355.893Z" fill="#E8B374"/>
<path d="M243.341 110.752C235.039 110.752 228.438 103.851 228.438 95.8494C228.438 89.2483 232.639 83.9474 238.24 81.847C230.138 82.4471 223.937 89.3483 223.937 97.6497C223.937 106.251 231.139 113.452 239.74 113.452C243.641 113.452 247.241 111.952 249.842 109.852C247.541 110.452 245.441 110.752 243.341 110.752Z" fill="#C0A1D1"/>
<path d="M233.539 111.352L228.738 112.852L227.538 113.152L226.638 113.452C226.338 112.552 226.338 111.652 226.338 111.652L228.138 110.752L232.939 108.652L233.239 109.552L233.539 111.352Z" fill="#F29E9E"/>
<path d="M228.738 113.052L227.538 113.352L226.638 113.652C226.338 112.752 226.338 111.852 226.338 111.852L228.138 110.952L228.438 111.552L228.738 113.052Z" fill="#231F20"/>
<path d="M232.938 109.852L228.138 111.652L227.838 111.052L232.638 108.952L232.938 109.852Z" fill="#EA6044"/>
<path d="M227.238 113.352L226.338 113.652C226.038 112.752 226.038 111.852 226.038 111.852L227.838 110.952L228.138 111.552L226.638 112.152C226.638 112.252 226.638 113.052 227.238 113.352Z" fill="#111010"/>
<path d="M250.842 104.751L250.242 109.852L249.942 111.952V112.852C249.041 113.152 248.441 112.252 248.441 112.252V109.852V105.351L249.041 105.051L250.842 104.751Z" fill="#F29E9E"/>
<path d="M250.541 109.852L250.241 111.952L249.941 112.852C249.041 113.152 248.441 112.252 248.441 112.252V109.852H250.541Z" fill="#231F20"/>
<path d="M249.041 105.051L248.741 109.851H248.441L248.141 105.351L249.041 105.051Z" fill="#EA6044"/>
<path d="M250.241 111.952V112.852C249.341 113.152 248.741 112.252 248.741 112.252V109.852H249.341V111.952C248.741 111.952 249.641 112.252 250.241 111.952Z" fill="#111010"/>
<path d="M250.842 104.751L248.141 105.351C248.141 105.351 247.841 105.051 247.241 105.051C247.241 105.051 247.241 105.051 246.941 105.051C246.941 105.051 246.941 105.051 246.641 105.051H246.341H246.041H245.741C245.441 105.051 245.141 105.051 245.141 105.051C244.841 105.051 244.241 105.051 243.941 105.051H243.641C243.641 105.051 243.641 105.051 243.34 105.051C243.34 105.051 239.44 110.152 237.94 111.052C236.439 111.952 235.839 111.952 235.839 111.952L235.239 110.452L234.939 109.552C234.939 109.552 235.539 109.252 236.139 108.651C236.739 108.051 239.44 104.151 239.44 104.151C239.44 104.151 238.84 102.35 240.64 100.55C240.64 100.55 240.94 100.85 242.14 101.15C243.04 101.15 243.941 101.45 245.741 100.85C245.741 100.85 246.041 100.85 246.341 101.15C246.641 101.15 246.941 101.15 247.241 101.45C247.541 101.45 247.541 101.45 247.841 101.45C248.141 101.45 248.441 101.75 248.741 101.75C250.542 102.35 252.942 102.951 253.242 103.251C251.142 103.551 250.842 104.751 250.842 104.751Z" fill="#4A0B40"/>
<path d="M244.241 96.3495L243.04 100.85C241.54 101.15 240.34 101.15 239.44 101.15C238.54 100.85 237.94 100.55 237.94 100.55C237.94 100.55 238.84 98.7499 239.14 97.5497C239.14 96.6495 239.14 94.5492 239.14 93.9491V93.649C239.14 93.649 240.04 94.2491 241.24 93.349C241.24 93.349 241.24 93.349 241.54 93.349C242.44 92.4488 241.84 90.0485 240.34 89.7484H240.04H240.34L240.64 89.4483C240.64 89.4483 240.64 89.4483 240.94 89.4483C241.24 89.4483 241.54 89.7484 242.14 90.6485C242.74 91.8487 244.241 93.349 244.541 93.349C244.541 93.349 244.541 93.0489 243.941 92.4488C243.641 91.8487 243.04 91.2487 243.04 91.2487V90.9486H243.34C243.34 90.9486 244.541 92.1488 244.541 92.7489C244.541 92.7489 245.141 93.349 245.441 94.2492C245.141 94.6492 245.141 95.2493 244.241 96.3495Z" fill="#231F20"/>
<path d="M241.24 93.1489C240.64 93.449 240.04 93.7491 239.74 93.7491C239.44 93.7491 239.14 93.7491 239.14 93.7491C239.14 93.7491 239.14 93.749 239.14 93.449C239.14 93.449 239.14 93.449 239.14 93.1489V92.8489V92.5488C239.14 92.2488 238.54 91.9487 238.24 91.9487L236.439 92.2488H236.139L234.639 92.5488C234.639 92.5488 234.339 94.9492 234.639 96.1494C234.639 97.3496 235.239 97.6497 235.539 97.9497C235.839 98.2498 235.839 98.2498 236.139 98.8499C236.139 99.45 235.839 99.45 235.839 99.45C235.539 99.75 235.239 99.45 235.239 99.45C234.939 99.45 234.639 99.45 234.639 99.45H234.339L234.039 98.8499C234.039 98.8499 233.739 98.8499 233.439 98.2498C233.439 97.9498 233.439 97.0496 233.439 97.0496C233.439 97.0496 232.539 91.9487 232.839 91.0486C232.839 90.7485 234.339 90.4485 235.839 90.1484H236.139C236.739 90.1484 237.64 89.8484 238.24 89.8484C239.14 89.5483 240.04 89.5483 240.04 89.5483H240.34C241.54 89.8484 242.44 92.5488 241.24 93.1489Z" fill="#F29E9E"/>
<path d="M249.642 94.6492C249.642 94.9492 249.642 94.9492 249.642 94.6492C249.042 94.9492 246.041 94.0491 245.141 93.749C244.841 92.8489 244.241 92.2488 244.241 92.2488C244.241 91.3486 243.041 90.4484 243.041 90.4484C243.041 90.4484 243.941 90.4485 244.841 91.0486C245.741 91.6487 248.141 93.1489 248.141 93.1489C248.141 93.1489 248.441 90.1484 248.141 89.8484C247.841 89.5483 247.241 89.2483 246.941 89.2483C246.941 88.9482 246.641 88.6482 246.941 88.3481C246.941 88.3481 246.641 88.0481 246.941 87.748H247.241C247.241 87.748 247.541 87.448 247.841 87.748C247.841 87.748 248.141 87.748 248.441 87.748C248.441 87.748 248.741 87.448 249.042 88.0481C249.342 88.6482 249.342 89.2483 249.342 89.2483C249.342 89.2483 249.942 94.0491 249.642 94.6492Z" fill="#F29E9E"/>
<path d="M244.241 92.8489C243.641 92.5489 242.44 91.0486 241.84 90.1484C241.84 89.8484 241.54 89.8484 241.54 89.8484C241.24 89.5484 240.94 89.2483 240.64 89.2483C240.34 89.2483 240.34 89.2483 240.34 89.2483V88.6482H240.94L241.24 87.1479C240.94 86.2478 241.54 86.2478 241.54 86.2478L242.14 86.5479V86.2478L243.641 85.3477C244.541 87.448 243.941 88.3481 243.641 88.6482C243.34 88.9482 243.04 88.9482 243.04 88.9482C242.74 89.5483 242.74 90.7486 242.74 90.7486V91.0486C242.74 90.7486 244.541 92.8489 244.241 92.8489Z" fill="#F29E9E"/>
<path d="M242.14 85.9474V86.2475L241.54 85.9474C241.54 85.9474 240.64 85.9475 241.24 86.8475L240.94 88.3475H240.34L240.04 87.7475C239.44 87.4475 239.14 86.8475 239.14 86.5475C239.14 86.2475 239.14 86.2474 239.14 85.9474C239.14 85.0474 239.74 84.1475 240.94 84.1475C241.54 84.1475 242.14 84.1475 242.44 84.1475C243.34 84.4475 243.34 85.3475 243.34 85.3475L242.14 85.9474Z" fill="#231F20"/>
<path d="M240.639 88.9477L240.039 89.5478C240.039 89.5478 239.439 89.5477 238.239 89.8477C237.939 89.5477 237.939 89.2478 237.939 89.2478C237.939 89.5478 237.939 89.8477 237.939 89.8477C237.039 89.5477 237.339 87.7478 237.339 87.7478C236.739 88.0478 236.739 88.6477 236.739 88.6477C236.739 85.6477 238.839 85.9477 238.839 85.9477H239.139C239.139 86.2477 239.139 86.2478 239.139 86.5478H238.839C238.839 86.5478 238.239 86.8478 238.839 88.0478C239.439 88.6478 240.039 88.9477 240.639 88.9477Z" fill="#111010"/>
<path d="M239.44 86.2477L239.14 85.6477H239.44C239.14 85.9477 239.14 86.2477 239.44 86.2477Z" fill="#EDAA15"/>
<path d="M248.141 93.1481C248.141 93.1481 248.441 90.1481 248.141 89.8481C247.841 89.5481 247.241 89.2481 246.941 89.2481C246.941 88.9481 246.641 88.6481 246.941 88.3481L247.241 88.0481C247.241 88.0481 247.241 88.3481 246.941 88.3481C246.641 88.6481 246.941 88.9481 246.941 88.9481C246.941 88.9481 247.841 89.2481 248.141 89.5481C248.441 89.8481 248.141 93.1481 248.141 93.1481V93.7481V93.1481Z" fill="#EA6044"/>
<path d="M243.64 88.3478C243.34 88.6478 243.04 88.6478 243.04 88.6478C243.04 88.6478 242.14 88.6478 241.84 88.0478V89.8478C241.54 89.5478 241.24 89.2478 240.94 89.2478C240.64 89.2478 240.64 89.2478 240.64 89.2478V88.6478H241.24L241.54 87.1478C241.24 86.2478 241.84 86.2478 241.84 86.2478C241.84 86.2478 241.24 86.5478 241.54 86.8478C241.84 87.4478 242.14 87.1478 242.14 87.1478C242.14 87.1478 241.84 88.6478 243.64 88.3478Z" fill="#EA6044"/>
<path d="M241.54 86.2478L241.84 86.8478C241.84 86.8478 241.54 86.8478 241.54 86.5478C241.24 86.2478 241.54 86.2478 241.54 86.2478Z" fill="#EA6044"/>
<path d="M239.44 92.2488C239.44 92.2488 239.44 92.8489 239.74 93.7491C239.44 93.7491 239.14 93.7491 239.14 93.7491C239.14 93.7491 239.14 93.749 239.14 93.449C239.14 93.449 239.14 93.449 239.14 93.1489V92.8489V92.5488C239.14 92.2488 238.54 91.9487 238.24 91.9487L236.439 92.2488H236.139L234.639 92.5488C234.639 92.5488 234.639 92.2488 234.339 92.2488C234.339 92.2488 234.639 92.2488 234.939 92.2488L235.839 91.9487H236.139L239.74 91.3486C239.74 91.3486 239.14 91.6487 239.44 91.9487C239.44 92.2488 240.04 92.5488 240.94 92.8489C240.94 92.5488 240.34 92.5489 239.44 92.2488Z" fill="#EA6044"/>
<path d="M249.642 94.6492C249.642 94.9492 249.642 94.9492 249.642 94.6492C249.042 94.9492 246.041 94.0491 245.141 93.7491C244.841 92.8489 244.241 92.2488 244.241 92.2488C244.241 91.3487 243.041 90.4485 243.041 90.4485C243.041 90.4485 244.841 91.6487 245.441 93.449C245.441 93.449 248.741 94.9492 249.642 94.6492Z" fill="#EA6044"/>
<path d="M241.24 93.1483C240.64 93.4483 240.04 93.7484 239.74 93.7484C239.44 93.7484 239.14 93.7484 239.14 93.7484C239.14 93.4484 239.14 93.4483 239.14 93.1483H239.44C240.04 93.1483 241.54 93.1483 241.24 91.3483C240.94 89.5483 240.04 89.5483 240.04 89.5483H240.34C241.54 89.8483 242.44 92.5483 241.24 93.1483Z" fill="#EA6044"/>
<path d="M234.439 98.4498C234.439 98.4498 234.139 98.4498 233.839 97.8497C233.839 97.5497 233.839 96.6495 233.839 96.6495C233.839 96.6495 232.939 91.5486 233.239 90.6485C233.539 90.0484 236.539 89.4483 238.64 89.1482C239.54 88.8482 240.44 88.8482 240.44 88.8482C240.44 88.8482 234.139 90.0484 233.839 90.6485C233.539 91.2486 234.439 96.6495 234.439 96.6495C234.439 96.6495 233.839 97.2496 234.439 98.4498Z" fill="#EA6044"/>
<path d="M244.24 92.8486C243.64 91.9486 242.74 90.7486 242.74 90.7486C242.74 90.7486 244.54 92.8486 244.24 92.8486Z" fill="#EA6044"/>
<path d="M250.842 104.751L248.141 105.351C248.141 105.351 247.841 105.051 247.241 105.051C247.241 105.051 247.241 105.051 246.941 105.051C246.941 105.051 246.941 105.051 246.641 105.051H246.341H246.041H245.741C245.441 105.051 245.141 105.051 245.141 105.051C244.841 105.051 244.241 105.051 243.941 105.051H243.641C243.641 105.051 243.641 105.051 243.34 105.051L238.54 104.151C238.54 104.151 234.939 108.351 234.339 108.952C233.739 109.252 233.439 109.552 233.139 109.852L232.839 108.952C232.839 108.952 233.439 108.652 234.039 108.051C234.639 107.451 237.339 103.551 237.339 103.551C237.339 103.551 236.739 101.75 238.54 99.9501C238.54 99.9501 238.84 100.25 240.04 100.55C239.74 101.15 239.14 102.651 239.74 102.951C240.34 103.251 243.04 103.851 245.441 104.151C245.741 104.151 246.041 104.151 246.341 104.151H246.641C246.941 104.151 247.241 104.151 247.541 104.151C248.441 104.151 249.041 104.451 249.041 104.451L250.842 104.751Z" fill="#33022D"/>
<path d="M244.241 96.3495H241.54C241.54 96.3495 241.24 98.1498 239.74 100.85C238.84 100.55 238.24 100.25 238.24 100.25C238.24 100.25 238.54 99.6501 238.84 98.7499C238.84 98.7499 238.84 98.7499 238.84 98.4498C238.84 98.1498 239.14 97.5497 239.14 97.2497C239.44 96.0495 239.14 93.649 238.84 93.649C238.84 93.649 239.74 94.2491 240.94 93.349C240.94 93.349 240.94 93.349 241.24 93.349C241.24 94.0491 241.54 96.0494 244.241 96.3495Z" fill="#111010"/>
<path d="M250.242 111.652C250.242 111.652 251.142 113.752 251.442 114.052C251.742 114.352 252.642 114.953 252.642 114.953C252.642 114.953 252.642 115.253 252.342 115.253C252.042 115.553 251.442 115.853 250.242 115.253C249.341 114.653 248.441 114.353 247.841 113.752C246.941 113.152 246.341 112.852 246.341 112.852L246.641 112.252L247.541 111.052H247.841H248.141V111.652C248.441 112.252 249.341 112.452 250.242 111.652C250.242 111.952 250.242 111.952 250.242 111.652Z" fill="#DDCAE6"/>
<path d="M251.741 115.452C252.041 115.452 252.341 115.452 252.641 115.452C252.341 115.752 251.741 116.052 250.541 115.452C248.441 114.252 246.641 113.352 246.641 113.352L246.941 112.752C247.841 113.052 250.841 115.152 251.741 115.452Z" fill="#231F20"/>
<path d="M227.238 113.352C227.238 113.352 225.738 114.853 225.438 115.453C225.138 116.053 225.138 116.953 225.138 116.953C225.138 116.953 224.837 116.953 224.537 116.953C224.237 116.653 223.637 116.353 223.637 114.853C223.637 113.952 223.937 113.052 223.937 112.152C223.937 111.252 224.237 110.352 224.237 110.352L224.837 110.652L226.038 110.952C226.038 110.952 226.338 110.952 226.338 111.252V111.552L225.738 111.852C225.738 111.852 225.738 112.752 226.638 113.352C227.238 113.352 227.238 113.352 227.238 113.352Z" fill="#DDCAE6"/>
<path d="M224.537 116.053C224.537 116.353 224.837 116.653 224.837 116.953C224.537 116.653 223.937 116.353 223.937 114.853C224.237 112.452 224.537 110.652 224.537 110.652L225.137 110.952C225.137 111.652 224.237 115.153 224.537 116.053Z" fill="#231F20"/>
<path d="M242.44 83.8474C241.84 84.1474 241.54 84.4474 241.54 85.9474C241.54 85.9474 240.64 85.9474 241.24 86.8474L240.94 88.3474H240.34L240.04 87.7474C239.44 87.4474 239.14 86.8474 239.14 86.5474C239.14 86.2474 239.14 86.2474 239.14 85.9474C239.14 85.0474 239.74 84.1474 240.94 84.1474C241.54 83.5474 242.14 83.8474 242.44 83.8474Z" fill="#111010"/>
<path d="M247.541 88.048C247.541 88.048 247.841 88.348 247.541 88.648C247.541 88.648 247.541 88.948 247.841 88.948C247.841 88.948 248.141 88.948 248.441 88.948C248.441 88.948 248.441 88.948 248.741 88.948H249.041V88.648C249.041 88.648 249.041 88.648 249.341 88.348V87.748C249.341 87.748 249.041 87.748 249.041 88.048C249.041 88.348 248.741 88.348 248.741 88.348C248.741 88.348 248.741 88.648 248.441 88.348C248.441 88.348 248.441 88.348 248.141 88.348C248.141 88.348 248.141 88.348 247.841 88.348V88.048C247.841 88.048 247.841 88.348 247.541 88.048Z" fill="#EA6044"/>
<path d="M246.041 105.05H245.741L245.441 104.45L244.241 100.85C244.541 100.85 244.841 100.85 245.141 101.15L246.341 104.45L246.041 105.05Z" fill="#EDAA15"/>
<path d="M247.241 105.05C246.941 105.05 246.941 105.05 247.241 105.05C246.941 105.05 246.941 105.05 247.241 105.05C246.941 105.05 246.941 105.05 247.241 105.05C246.941 105.05 246.941 105.05 246.941 105.05V104.75L246.041 101.45C246.341 101.45 246.641 101.75 246.941 101.75L247.841 105.05H247.241Z" fill="#EDAA15"/>
<path d="M244.24 93.1483C243.94 93.1483 242.74 92.2484 241.84 90.7484C241.24 89.5484 240.64 89.2484 240.34 89.2484C240.34 89.2484 240.34 89.2484 240.64 89.2484C240.94 89.2484 241.24 89.5483 241.84 90.4483C242.44 91.3483 243.94 92.8483 244.24 93.1483C244.24 93.1483 243.94 92.5484 243.64 92.2484C244.24 92.5484 244.54 93.1483 244.24 93.1483Z" fill="#EDAA15"/>
<path d="M244.24 92.2485L242.74 90.4485H243.04C243.04 90.4485 244.24 91.3485 244.24 92.2485Z" fill="#EDAA15"/>
<path d="M239.14 93.7484C239.14 93.4484 239.14 93.4484 239.14 93.7484C239.14 93.4484 240.04 94.0483 241.24 93.1483C241.24 93.1483 241.24 93.1483 241.54 93.1483C242.44 92.2483 241.84 89.8483 240.34 89.5483H240.04H240.34C240.64 89.5483 241.54 89.8483 242.14 91.0483C242.44 92.5483 241.54 94.3484 239.14 93.7484Z" fill="#EDAA15"/>
<path d="M250.842 112.252H250.242H250.842C250.842 112.452 250.842 112.452 250.842 112.252Z" fill="#231F20"/>
<path d="M251.142 112.752C251.142 112.752 250.842 112.452 251.142 112.752H250.542H251.142Z" fill="#231F20"/>
<path d="M251.442 113.352H250.842H251.442C251.442 113.652 251.442 113.352 251.442 113.352Z" fill="#231F20"/>
<path d="M226.938 113.952C227.238 113.952 227.238 113.952 226.938 113.952L226.638 113.652L226.938 113.952Z" fill="#231F20"/>
<path d="M226.638 114.252C226.938 114.252 226.938 114.252 226.638 114.252L226.338 113.952L226.638 114.252Z" fill="#231F20"/>
<path d="M226.338 114.552C226.338 114.552 226.638 114.552 226.338 114.552L226.038 114.253L226.338 114.552Z" fill="#231F20"/>
<path d="M226.038 114.852L225.738 114.552L226.038 114.852Z" fill="#231F20"/>
<path d="M242.74 86.5477C242.74 87.1477 242.14 87.7477 241.54 87.7477C240.94 87.7477 240.34 87.1477 240.34 86.5477C240.34 85.9477 240.94 85.3477 241.54 85.3477C242.14 85.3477 242.74 85.9477 242.74 86.5477Z" fill="#EDAA15"/>
<path d="M242.14 86.5478C242.14 86.8478 241.84 87.1478 241.54 87.1478C241.24 87.1478 240.94 86.8478 240.94 86.5478C240.94 86.2478 241.24 85.9478 241.54 85.9478C241.84 85.9478 242.14 86.2478 242.14 86.5478Z" fill="#4A0B40"/>
<path d="M241.84 85.6473H241.24V83.8474C241.24 83.8474 241.24 83.5474 241.54 83.5474C241.54 83.5474 241.84 83.5474 241.84 83.8474V85.6473Z" fill="#EDAA15"/>
<path d="M241.539 87.4479C240.339 87.7479 239.139 88.3479 237.639 88.9479C237.039 89.2479 236.439 89.5479 236.139 90.1479H235.839C236.139 89.5479 237.039 88.9479 237.639 88.6479C239.139 88.0479 240.339 87.7479 241.539 87.4479C241.539 87.1479 241.539 87.4479 241.539 87.4479Z" fill="#EDAA15"/>
<path d="M239.14 98.4498C239.14 98.4498 238.84 98.4498 239.14 98.4498C238.54 98.4498 238.24 98.4498 238.24 97.8497C238.24 97.2496 238.24 96.9495 238.54 96.3494C238.84 95.7493 239.44 95.1493 239.14 94.5492C238.84 93.9491 238.24 93.649 237.64 93.0489C237.039 92.7489 236.739 92.4488 236.439 91.8487H236.739C237.339 92.4488 237.94 92.7488 238.54 93.3489C238.84 93.649 239.14 93.9491 239.44 94.2491C239.44 94.5492 239.44 95.1492 239.14 95.4493C238.84 96.0494 238.54 96.3494 238.54 96.9495C238.04 97.8497 238.34 98.4498 239.14 98.4498Z" fill="#EDAA15"/>
<path d="M239.74 119.053C249.793 119.053 257.943 118.785 257.943 118.453C257.943 118.122 249.793 117.853 239.74 117.853C229.687 117.853 221.537 118.122 221.537 118.453C221.537 118.785 229.687 119.053 239.74 119.053Z" fill="#C0A1D1"/>
<path d="M245.44 118.452C245.44 118.452 245.74 113.952 243.94 113.952C242.14 113.952 244.84 118.152 244.84 118.152C244.84 118.152 243.04 115.452 242.14 115.752C241.24 115.752 243.64 117.852 244.24 118.452C244.24 118.452 242.44 117.252 241.84 117.552C241.54 117.852 244.24 118.752 244.24 118.752L245.44 118.452Z" fill="#4A0B40"/>
<path d="M242.74 115.452C242.74 115.452 242.44 114.252 241.84 113.952C241.54 113.652 241.24 113.952 241.54 114.252C241.84 114.552 242.74 115.452 242.74 115.452Z" fill="#4A0B40"/>
<path d="M242.14 116.953C242.14 116.953 241.84 116.353 241.54 116.353C241.54 116.353 241.24 116.353 241.54 116.653L242.14 116.953Z" fill="#4A0B40"/>
<path d="M227.838 118.453C227.838 118.453 227.838 116.353 227.238 116.353C226.338 116.353 227.538 118.153 227.538 118.153C227.538 118.153 226.638 116.953 226.338 116.953C226.038 116.953 226.938 117.853 227.238 118.153C227.238 118.153 226.338 117.553 226.038 117.853C225.738 118.153 227.238 118.453 227.238 118.453H227.838Z" fill="#4A0B40"/>
<path d="M226.638 116.953C226.638 116.953 226.638 116.353 226.338 116.353C226.338 116.353 226.038 116.353 226.038 116.653C226.338 116.653 226.638 116.953 226.638 116.953Z" fill="#4A0B40"/>
<path d="M226.338 117.553C226.338 117.553 226.038 117.553 226.338 117.553C226.038 117.253 226.038 117.253 226.038 117.253C226.038 117.553 226.338 117.553 226.338 117.553Z" fill="#4A0B40"/>
<path d="M244.541 397.9H231.138C228.738 397.9 226.938 395.799 227.238 393.699L227.838 387.698C227.838 387.698 228.138 370.995 228.138 364.094C228.438 358.093 228.438 354.593 228.738 353.692V353.392H232.939H233.239H239.54C239.54 353.392 240.14 354.593 244.041 367.695C245.241 371.895 246.141 375.496 246.741 378.396C247.941 384.397 248.241 387.298 248.241 387.298L248.541 393.599C248.741 395.799 246.941 397.9 244.541 397.9Z" fill="#323244"/>
<path d="M248.741 393.699L248.441 387.398C247.841 388.298 247.241 388.898 246.041 389.498C245.141 388.298 243.04 387.098 238.84 387.398C234.039 387.998 232.539 389.498 231.939 390.699C229.538 390.098 228.638 388.898 228.038 387.998L227.438 393.999C227.138 396.399 228.938 398.2 231.339 398.2H244.741C246.941 397.9 248.741 395.799 248.741 393.699Z" fill="#E8B374"/>
<path d="M251.442 375.496C250.842 377.296 248.141 377.896 246.641 378.196C246.341 376.396 245.741 374.296 245.141 371.895C244.841 370.395 244.241 368.895 243.941 367.395C240.04 354.292 239.44 353.092 239.44 353.092C238.84 350.092 237.94 344.491 237.64 336.69H243.641C243.641 336.69 243.04 340.89 243.34 348.591C243.641 356.393 250.842 367.094 250.842 367.094L251.142 367.395C252.642 370.195 252.342 372.895 251.442 375.496Z" fill="#323244"/>
<path d="M251.442 375.496C250.842 377.296 248.141 377.896 246.641 378.196C246.341 376.396 245.741 374.296 245.141 371.895C246.041 371.895 247.241 371.595 249.042 370.995C250.242 370.395 250.842 368.895 250.842 367.695C252.642 370.195 252.342 372.895 251.442 375.496Z" fill="#E8B374"/>
<path d="M238.94 360.293H231.439V361.494H238.94V360.293Z" fill="#F9D8AD"/>
<path d="M238.94 362.394H231.439V363.594H238.94V362.394Z" fill="#F9D8AD"/>
<path d="M239.24 364.494H231.738V365.694H239.24V364.494Z" fill="#F9D8AD"/>
<path d="M239.24 366.594H231.738V367.795H239.24V366.594Z" fill="#F9D8AD"/>
<path d="M239.54 368.695H232.039V369.895H239.54V368.695Z" fill="#F9D8AD"/>
<path d="M239.54 370.795H232.039V371.995H239.54V370.795Z" fill="#F9D8AD"/>
<path d="M239.54 372.896H232.039V374.096H239.54V372.896Z" fill="#F9D8AD"/>
</svg>
