<svg width="36" height="36" viewBox="0 0 36 36" fill="none" xmlns="http://www.w3.org/2000/svg">
<path d="M33.1875 6.71448V27.3847C33.1888 27.5386 33.1591 27.6913 33.1001 27.8334C33.041 27.9756 32.9538 28.1043 32.8437 28.212C32.7358 28.3196 32.6077 28.4048 32.4667 28.4628C32.3257 28.5208 32.1747 28.5504 32.0223 28.5499H1.72772C1.57617 28.5504 1.42603 28.5207 1.28601 28.4627C1.146 28.4047 1.0189 28.3195 0.912099 28.212H0.906274C0.796201 28.1043 0.709013 27.9756 0.649946 27.8334C0.590879 27.6913 0.561151 27.5386 0.562547 27.3847V6.71448C0.561159 6.56054 0.590891 6.40791 0.649957 6.26575C0.709024 6.12359 0.796207 5.99484 0.906274 5.88721L12.0628 17.0438L14.5505 19.5372C15.1675 20.1528 16.0034 20.4985 16.875 20.4985C17.7466 20.4985 18.5825 20.1528 19.1995 19.5372L21.6872 17.0438L32.8437 5.88721C32.9538 5.99484 33.041 6.12359 33.1 6.26575C33.1591 6.40791 33.1888 6.56054 33.1875 6.71448V6.71448Z" stroke="#020305" stroke-linecap="round" stroke-linejoin="round"/>
<path d="M0.906311 5.88721H32.8437" stroke="#020305" stroke-linecap="round" stroke-linejoin="round"/>
<path d="M32.8419 28.2149L21.687 17.0454" stroke="#020305" stroke-linecap="round" stroke-linejoin="round"/>
<path d="M12.0643 17.0454L0.908752 28.2154" stroke="#020305" stroke-linecap="round" stroke-linejoin="round"/>
</svg>
