<svg width="120" height="120" viewBox="0 0 120 120" fill="none" xmlns="http://www.w3.org/2000/svg">
<mask id="mask0_467_19166" style="mask-type:alpha" maskUnits="userSpaceOnUse" x="0" y="0" width="120" height="120">
<circle cx="60" cy="60" r="60" fill="#C4C4C4"/>
</mask>
<g mask="url(#mask0_467_19166)">
<path d="M206.812 -61.875H-135V377.062H206.812V-61.875Z" fill="white"/>
<path d="M95.4374 140.062C95.4374 140.062 95.0625 140.25 94.3125 140.812C93.5625 141.375 92.625 141.937 91.3125 142.5C83.8125 146.25 66 151.687 43.5 136.5L36 147.562L35.25 148.5C35.25 148.5 32.25 145.5 31.5 143.437C30.75 141.75 33.9375 135.562 33.9375 135.562L32.8125 129.187L30.5625 116.437L29.25 108.562L22.5 104.625L17.6249 101.812L23.8125 69.3748C24.75 64.4998 28.3124 60.7498 32.6249 59.2498L43.6875 55.4998C44.0625 55.3123 44.625 55.4998 45 55.6873C47.625 58.3123 59.2499 69.1873 66.3749 59.0623L79.3125 64.1248C83.4375 65.6248 86.8125 68.9998 88.5 72.9373L89.8124 75.7498L99.375 96.3748L100.5 98.9998L90.1875 102.75L89.4375 102.937L86.8125 103.875L88.125 122.437C88.125 122.437 91.1249 127.125 91.6874 129C92.0624 131.062 91.5 132 91.5 132C91.5 132 94.125 133.312 94.125 134.437C94.3125 135.375 93.75 136.125 93.75 136.125C93.75 136.125 95.4374 136.875 95.4374 140.062Z" fill="#DDCAE6"/>
<path d="M95.4375 140.062C95.4375 140.062 95.0625 140.25 94.3125 140.812C93.5625 141.375 92.6251 141.937 91.3126 142.5C83.8126 146.25 66.0001 151.687 43.5001 136.5L36.0001 147.562L35.25 148.5C35.25 148.5 32.25 145.5 31.5 143.437C30.75 141.75 33.9375 135.562 33.9375 135.562L32.8126 129.187L39.3751 127.125C38.6251 107.812 48 82.312 48 82.312C42.9375 103.5 42.5626 124.687 42.5626 124.687C53.8126 107.437 54.9375 88.6871 54.9375 88.6871C54.75 114.375 45.1875 129 45.1875 129C60.5625 124.875 74.0625 133.5 74.25 133.687C60.9375 129.562 54.3751 133.687 54.3751 133.687C71.0626 143.625 86.25 137.25 87 137.062C72.1875 145.687 53.0625 137.25 52.6875 137.062C74.4375 150 93.375 136.875 93.375 136.875C93.375 136.875 95.4375 136.875 95.4375 140.062Z" fill="#C0A1D1"/>
<path d="M65.625 65.0621C65.625 65.0621 53.25 72.7496 39.375 60.5621L36.9375 61.3121C32.0625 62.6246 28.3125 66.5621 27.75 71.6246L22.6875 104.437L17.8125 101.625L24 69.187C24.9375 64.312 28.5 60.562 32.8125 59.062L43.8749 55.312C44.2499 55.1245 44.8125 55.312 45.1875 55.4995C47.8125 58.1245 59.4375 68.9995 66.5625 58.8745C66.5625 58.8745 64.5 69.9371 47.8125 62.2496C47.8125 62.2496 55.5 68.0621 65.625 65.0621Z" fill="#C0A1D1"/>
<path d="M36.7499 104.625L31.1249 116.25L29.8124 108.188L26.9999 106.5L17.9999 101.438L26.0624 102.937L36.7499 104.625Z" fill="#231F20"/>
<path d="M79.4999 41.0622C79.4999 41.0622 79.125 42.5622 78 44.8122C76.5 48.5622 73.3125 53.6248 69 54.7498C68.0625 54.9373 67.3124 54.9373 66.3749 54.9373V58.8747C61.6874 65.4372 55.125 62.9998 50.25 59.9998C49.5 59.6248 48.9375 58.8748 48.1875 58.4998C46.6875 57.3748 45.5624 56.2498 44.8124 55.6873C46.3124 54.7498 51.1875 51.7498 53.0625 45.5623C53.8125 43.4998 54 41.4373 53.8125 38.9998C53.8125 38.9998 52.6875 38.2498 52.125 36.9373C51.9375 36.1873 51.75 35.6248 51.75 34.6873C51.75 33.7498 51.9375 32.9998 52.5 32.2498C53.4375 30.7498 54.5625 29.8122 54.5625 29.8122C54.5625 29.8122 56.0625 32.2498 58.125 32.8123V38.0623L61.6874 31.6872C61.6874 31.6872 62.4375 32.4373 63.375 32.8123C64.875 33.7498 67.4999 34.3123 70.1249 32.4373C70.1249 32.4373 69.1875 34.1248 67.5 34.8748C67.5 34.8748 75.1875 33.9373 76.125 28.1248C76.125 28.1248 77.25 34.6873 69.5625 35.9998C69.5625 35.9998 76.3125 36.3747 78.75 32.6247C78.75 32.8122 77.9999 36.9372 79.4999 41.0622Z" fill="#F29E9E"/>
<path d="M80.4375 43.1253L78.1875 45.1878C79.125 42.9378 79.6875 41.4378 79.6875 41.4378C78.1875 36.9378 78.5625 32.8128 78.5625 32.8128C76.125 36.5628 69.375 36.1879 69.375 36.1879C77.0625 34.8754 75.9375 28.3128 75.9375 28.3128C75 34.3128 67.3125 35.0628 67.3125 35.0628C69 34.1253 69.9375 32.6253 69.9375 32.6253C65.8125 36.0003 61.3125 31.8753 61.3125 31.8753L57.75 38.2503V33.0003C55.6875 32.2503 54.1875 30.0003 54.1875 30.0003C54.1875 30.0003 52.875 30.9379 52.125 32.4379C52.875 23.8129 56.25 18.1879 65.8125 17.4379C70.875 17.2504 75.9375 18.5628 80.0625 21.9378C80.4375 22.3128 81 22.6879 81.375 23.0629C90.5625 31.5004 80.4375 43.1253 80.4375 43.1253Z" fill="#231F20"/>
<path d="M53.625 45.5628C52.875 43.1253 52.5 40.1252 52.5 36.9377C53.25 38.2502 54.1874 39.0003 54.1874 39.0003C54.5624 41.2503 54.1875 43.5003 53.625 45.5628Z" fill="#111010"/>
<path d="M94.4999 140.812C95.2499 140.437 95.625 140.062 95.625 140.062C95.625 137.062 94.3125 136.312 94.3125 136.312C94.3125 136.312 94.6875 135.562 94.6875 134.625C94.6875 134.25 93.9375 133.5 93.375 133.125C92.625 132.75 92.0624 132.187 92.0624 132.187C92.0624 132.187 92.8125 131.062 92.25 129.187C91.875 127.125 88.6875 122.625 88.6875 122.625L87.3749 104.062L90.7499 102.937C90.9374 103.875 91.125 105 91.5 106.312C92.8125 112.875 95.0625 126 97.875 146.062L94.4999 140.812Z" fill="#F29E9E"/>
<path d="M69.1874 54.7505C68.2499 54.938 67.5 54.938 66.5625 54.938C63.75 54.563 59.8125 52.5005 56.625 46.5005C56.625 46.5005 55.8749 52.313 50.4374 60.0005C47.9999 58.5005 45.9374 56.438 45.1874 55.5005C46.6874 54.563 51.5625 51.563 53.4375 45.3755C54.1875 43.313 54.3749 41.2505 54.1874 38.813C54.1874 38.813 53.0625 38.063 52.5 36.7505C52.3125 36.0005 52.125 35.4379 52.125 34.5004C52.125 33.5629 52.3125 32.813 52.875 32.063C53.8125 30.563 54.9375 29.6255 54.9375 29.6255C54.9375 29.6255 56.4375 32.0629 58.5 32.6254V37.8755L62.0624 31.5005C62.0624 31.5005 62.8125 32.2504 63.75 32.6254C61.3125 36.9379 54.1874 52.1255 69.1874 54.7505Z" fill="#EA6044"/>
<path d="M87.9374 74.4377L89.625 102.938L87.1875 103.875L87.9374 74.4377Z" fill="#C0A1D1"/>
<path d="M36.75 104.625L35.0625 63.562L32.25 106.312L36.75 104.625Z" fill="#C0A1D1"/>
<path d="M43.6875 136.687L39 143.437L36.1875 147.562C35.8125 145.875 29.4375 118.5 26.625 106.687C26.25 105.187 25.875 104.062 25.6875 103.125L36.1875 105.187C36.1875 105.187 36.375 105.937 36.5625 106.875C38.25 111.937 41.8125 128.625 43.6875 136.687Z" fill="#F29E9E"/>
<path d="M39.1875 143.437L36.375 147.562C36 145.875 29.625 118.5 26.8125 106.687C26.4375 105.187 26.0625 104.062 25.875 103.125L36.375 105.187C36.375 105.187 36.5625 105.937 36.75 106.875C33.1875 107.25 30.75 110.812 31.6875 114.375L39.1875 143.437Z" fill="#EA6044"/>
<path d="M91.875 132C91.875 132 92.625 130.875 92.0625 129C91.6875 126.938 88.5 122.438 88.5 122.438L87.1875 103.875L90.5625 102.75C90.75 103.688 90.9375 104.813 91.3125 106.125C89.8125 106.875 88.875 108.563 89.25 110.063L93.1875 132.75C92.25 132.375 91.875 132 91.875 132Z" fill="#EA6044"/>
<path d="M82.875 34.6878C83.625 25.6878 76.8749 22.6878 76.6874 22.6878C79.3124 24.9378 77.9999 30.9378 77.9999 30.9378C77.9999 29.4378 76.5 28.1253 76.5 28.1253C75.5625 34.1253 67.875 34.8753 67.875 34.8753C69.5625 33.9378 70.4999 32.4379 70.4999 32.4379C66.3749 35.8129 61.875 31.6878 61.875 31.6878L58.3124 38.0629V32.8128C56.2499 32.0628 54.75 29.8128 54.75 29.8128C54.75 29.8128 53.4374 30.7504 52.6874 32.2504C53.4374 23.6254 56.8124 18.0004 66.3749 17.2504C71.4374 17.0629 76.5 18.3753 80.625 21.7503C81 22.1253 81.5625 22.5004 81.9375 22.8754C84.375 28.1254 82.875 34.6878 82.875 34.6878Z" fill="#111010"/>
<path d="M60.7701 82.479C68.95 82.3814 75.5571 80.2877 75.5274 77.8026C75.4977 75.3176 68.8425 73.3823 60.6626 73.4799C52.4827 73.5776 45.8757 75.6712 45.9054 78.1563C45.9351 80.6413 52.5902 82.5767 60.7701 82.479Z" fill="#231F20"/>
<path d="M52.125 87.1875L72.1875 84.1875C73.125 84 73.6874 84.5626 73.8749 85.5001C74.0624 86.4376 73.5 87.1875 72.5625 87.1875L52.5 88.875C51.75 88.875 51.3749 88.5 51.3749 87.9375C51.1874 87.75 51.375 87.5625 52.125 87.1875Z" fill="#231F20"/>
<path d="M99.5625 96.5623L95.625 97.8748L89.8125 78.5622C89.625 77.6247 89.625 76.4998 90 75.9373L99.5625 96.5623Z" fill="#231F20"/>
<path d="M66.5625 58.8748C61.875 65.4373 55.3125 62.9998 50.4375 59.9998C49.6875 59.6248 49.125 58.8748 48.375 58.4998C48.375 58.3123 48.375 58.3123 48.375 58.3123L50.8125 57.9373C51 57.7498 59.625 66.5623 66.5625 58.8748Z" fill="#EA6044"/>
<path d="M1.87501 -16.3125C1.87501 2.43752 -13.3126 17.625 -32.0626 17.625C-33.3751 17.625 -34.875 17.625 -36.1875 17.4375C-27.75 16.3125 -20.0625 12.1875 -14.8125 6.00001C-13.3125 4.31251 -11.8125 2.25001 -10.6875 0.375011C-8.43752 -3.74999 -6.93754 -8.25001 -6.37504 -13.125C-6.37504 -14.25 -6.18747 -15.1875 -6.18747 -16.3125C-6.18747 -19.5 -6.74999 -22.6875 -7.49999 -25.6875C-7.68749 -26.0625 -7.68752 -26.4375 -7.87502 -27C-8.06252 -27.5625 -8.24999 -28.125 -8.43749 -28.875C-10.3125 -33.5625 -13.125 -37.6875 -16.6875 -41.0625C-18.5625 -42.75 -20.625 -44.4375 -22.875 -45.75C-26.8125 -48.1875 -31.3125 -49.6875 -36 -50.25C-34.6875 -50.4375 -33.1875 -50.4375 -31.875 -50.4375C-13.5 -50.25 1.87501 -35.0625 1.87501 -16.3125Z" fill="#4C9CA3"/>
</g>
</svg>
