<svg width="438" height="401" viewBox="0 0 438 401" fill="none" xmlns="http://www.w3.org/2000/svg">
<path d="M308.453 400.06C371.849 400.06 423.242 398.225 423.242 395.961C423.242 393.696 371.849 391.861 308.453 391.861C245.057 391.861 193.664 393.696 193.664 395.961C193.664 398.225 245.057 400.06 308.453 400.06Z" fill="#B78AAA"/>
<path d="M68.077 398.26C105.573 398.26 135.97 397.231 135.97 395.96C135.97 394.69 105.573 393.661 68.077 393.661C30.5806 393.661 0.183716 394.69 0.183716 395.96C0.183716 397.231 30.5806 398.26 68.077 398.26Z" fill="#B78AAA"/>
<path d="M389.745 110.389C388.545 108.089 386.845 105.689 385.345 103.989C383.845 102.29 382.146 100.49 380.346 98.9899C377.146 96.3902 373.647 94.5903 370.147 93.1905C368.647 92.5905 367.247 92.2906 366.047 91.6906C365.747 91.6906 365.147 91.3907 364.847 91.3907C350.849 87.5911 337.15 90.4908 337.15 90.4908C337.45 89.8908 340.95 79.3919 342.949 76.4922C344.949 73.2925 347.649 73.8925 347.649 73.8925C347.649 73.8925 356.148 64.8933 373.047 69.7928C373.947 70.0927 375.046 70.3927 375.946 70.6927C390.245 76.4921 391.145 91.0907 391.145 91.0907C396.144 94.6903 389.745 110.389 389.745 110.389Z" fill="#C3243A"/>
<path d="M365.847 91.4908C365.547 91.4908 364.947 91.4908 364.648 91.1908C350.649 87.3912 336.95 90.2909 336.95 90.2909C337.25 89.6909 340.75 79.192 342.75 76.2922C344.749 73.0926 347.449 73.6925 347.449 73.6925C347.449 73.6925 355.948 64.6934 372.847 69.593C373.747 69.8929 374.846 70.1929 375.746 70.4929C370.247 69.893 363.848 70.4929 361.148 74.8925C361.148 74.8925 377.446 78.3921 391.145 90.5909C390.845 90.2909 384.446 86.4913 375.146 82.9917C369.947 81.5918 364.747 86.1913 365.847 91.4908Z" fill="#890421"/>
<path d="M385.345 103.99C382.446 105.489 376.646 106.589 369.947 107.789C365.547 106.089 360.048 104.59 353.649 103.99C350.149 103.69 346.649 103.39 342.55 103.69C342.55 103.69 339.65 103.39 335.55 103.09C335.25 99.89 335.25 95.4904 336.75 90.8909C336.75 90.8909 350.449 87.9911 364.447 91.7907C366.147 92.3907 368.247 92.9907 369.947 93.4906C373.447 94.9905 376.946 96.6902 380.146 99.29C382.146 100.49 383.946 101.99 385.345 103.99Z" fill="#0F0100"/>
<path d="M389.745 110.389C389.745 110.389 387.145 113.889 383.646 115.388C382.146 114.189 377.246 110.189 368.247 106.889C364.147 105.389 359.548 104.289 353.649 103.689C354.548 101.09 356.248 96.6903 360.048 96.3903C360.048 96.3903 361.248 92.5906 364.447 91.1907C365.347 90.8908 366.147 90.5908 367.347 90.5908C368.847 90.5908 369.647 91.4908 369.947 92.8906C371.447 96.6903 369.647 104.289 369.347 104.589C369.647 104.589 376.346 100.19 380.146 99.09C383.946 101.99 387.145 105.489 389.745 110.389Z" fill="#FCB2A9"/>
<path d="M389.745 110.389C389.745 110.389 387.745 108.089 384.745 105.389C381.246 102.79 376.846 102.19 372.847 104.19L368.147 106.489C364.048 104.989 359.448 103.89 353.549 103.29C354.448 100.69 356.148 96.2904 359.948 95.9904C359.948 95.9904 361.148 92.1907 364.347 90.7908C365.247 90.4909 366.047 90.1909 367.247 90.1909C368.747 90.1909 369.547 91.0909 369.847 92.4907C371.347 96.2904 369.547 103.89 369.247 104.19C369.547 104.19 376.246 99.79 380.046 98.6901C383.946 101.99 387.145 105.489 389.745 110.389Z" fill="#EA7B73"/>
<path d="M379.246 95.7903C379.246 95.7903 386.245 100.19 389.145 106.889C389.145 106.889 390.345 103.39 390.645 101.09C390.945 98.79 380.446 93.4906 380.446 93.4906L379.246 95.7903Z" fill="#FFF2FA"/>
<path d="M375.146 115.888C375.146 115.888 378.946 110.889 373.446 105.389C368.747 100.69 369.047 90.4907 364.147 86.7911C362.948 85.8912 361.548 86.4912 361.248 87.9911C361.248 89.4909 360.348 90.8908 358.048 90.8908C354.548 90.5908 353.349 79.1919 349.049 73.6924C347.549 71.9926 344.649 73.0926 345.249 75.3923C345.549 77.3921 345.549 79.7919 344.349 80.5918C341.75 82.5916 340.25 73.5924 335.35 76.1922C330.451 78.7919 318.452 78.7919 314.052 67.1931C309.653 55.4942 316.652 53.4944 323.351 53.7944C329.751 54.0944 337.95 43.5954 328.551 37.1961C327.351 36.5961 326.251 37.1961 325.951 38.396C325.951 39.5959 325.351 40.6957 324.451 41.2956C322.152 42.1955 320.952 25.5972 332.951 31.0967C344.849 36.5961 355.948 30.4968 349.549 22.8976C343.15 15.2983 330.051 28.6969 316.652 21.1977C302.954 13.8984 286.055 22.0976 296.254 30.1968C306.153 38.3959 307.353 44.7954 299.454 43.8955C291.555 42.9956 290.455 46.4952 295.054 51.4947C299.754 56.4942 300.854 60.1938 297.054 61.3937C293.555 62.5936 285.155 49.4949 278.956 52.8946C272.557 56.3942 287.155 86.3912 304.853 85.1913C322.652 83.9914 324.951 89.291 318.852 91.8907C312.753 94.4904 307.153 87.1912 303.654 91.8907C300.154 96.5902 320.852 105.889 329.551 97.9901C337.75 90.9908 345.549 90.0908 352.549 94.4904C353.449 95.0904 353.149 96.1902 352.249 96.4902C351.649 96.7902 351.049 97.0902 350.549 97.3901C349.049 98.2901 349.649 100.29 351.449 100.59C356.648 100.89 365.447 101.79 369.847 104.989C376.346 110.689 375.146 115.888 375.146 115.888Z" fill="#FFF2FA"/>
<path d="M341.05 17.1981C341.05 17.1981 329.351 24.7973 314.553 15.6982C299.654 6.69914 282.256 18.898 292.155 32.8966C302.054 46.8952 278.156 38.096 279.356 17.1981C280.556 -4.09978 306.153 11.3987 306.753 3.79941C307.353 -4.09981 314.353 2.29958 313.753 6.69914C312.853 10.7987 323.952 22.9975 341.05 17.1981Z" fill="#FFF2FA"/>
<path d="M316.352 62.2936C316.352 62.2936 320.752 79.4919 335.55 73.0926C335.55 73.3925 323.651 73.9924 316.352 62.2936Z" fill="#FFF2FA"/>
<path d="M107.173 280.272L104.873 296.87L104.273 300.97C104.273 300.97 91.7745 295.77 71.3765 298.07L68.4768 294.871C68.4768 294.871 66.777 277.372 89.7747 275.373L107.173 280.272Z" fill="#C3243A"/>
<path d="M107.173 280.272L104.873 296.87L102.873 299.47C102.873 299.47 101.174 294.471 100.574 287.571C100.274 284.372 98.2739 281.772 95.3742 281.172C92.4745 280.272 88.9748 279.672 85.7751 279.972C79.3758 280.272 70.0767 289.571 71.4765 298.07L68.5769 294.871C68.5769 294.871 66.877 277.372 89.8747 275.373L107.173 280.272Z" fill="#890421"/>
<path d="M68.077 294.571L70.9766 297.77L39.1798 316.968C37.48 317.868 35.6802 318.468 33.6804 318.168C32.4805 318.168 31.3806 317.568 30.1807 316.968C30.1807 316.968 29.8807 316.968 29.8807 316.668L25.7811 314.369C25.7811 314.369 47.379 277.672 70.0768 260.474C70.0768 260.474 72.3765 261.074 75.5762 262.474C80.5757 264.774 86.975 268.873 88.9748 274.673C66.377 276.772 68.077 294.571 68.077 294.571Z" fill="#FFF2FA"/>
<path d="M68.077 294.571L58.1779 298.67C48.5789 302.77 40.0797 309.469 33.6804 318.168C32.4805 318.168 31.3806 317.568 30.1807 316.968C30.1807 316.968 29.8807 316.968 29.8807 316.668L25.7811 314.369C25.7811 314.369 47.379 277.672 70.0768 260.474C70.0768 260.474 72.3765 261.074 75.5762 262.474C80.5757 264.774 86.975 268.873 88.9748 274.673C66.377 276.772 68.077 294.571 68.077 294.571Z" fill="#B78AAA"/>
<path d="M352.749 358.364V366.563H277.856C277.856 366.563 277.556 362.764 277.556 358.364C277.556 354.265 278.156 349.665 279.556 346.465C280.156 345.266 281.556 344.766 283.056 345.265C283.056 345.265 289.155 348.765 297.054 348.765C298.754 348.765 300.854 348.465 302.854 348.165C306.053 347.565 309.253 346.165 312.153 343.766L352.749 358.364Z" fill="#FFF2FA"/>
<path d="M352.749 365.064V366.563H277.856C277.856 366.563 277.556 362.764 277.556 358.364C277.556 354.265 278.156 349.665 279.556 346.465C280.156 345.266 281.556 344.765 283.056 345.265C283.056 345.265 289.155 348.765 297.054 348.765C298.754 348.765 300.854 348.465 302.854 348.165L352.749 365.064Z" fill="#B78AAA"/>
<path d="M318.952 316.668C318.952 316.668 317.752 319.268 316.052 322.768C314.852 325.667 313.453 328.867 312.553 332.067C310.253 339.366 312.253 343.466 312.253 343.466C298.854 353.965 283.156 345.166 283.156 345.166L297.154 314.569L318.952 316.668Z" fill="#C3243A"/>
<path d="M300.554 320.168C300.554 320.168 289.455 341.466 291.555 345.265C293.854 349.065 306.953 346.965 311.953 343.566C298.554 354.065 282.855 345.265 282.855 345.265L296.854 314.668L318.752 316.368C318.752 316.368 317.552 318.968 315.852 322.468L300.554 320.168Z" fill="#890421"/>
<path d="M249.859 392.761C253.89 392.761 257.158 389.493 257.158 385.462C257.158 381.43 253.89 378.162 249.859 378.162C245.827 378.162 242.56 381.43 242.56 385.462C242.56 389.493 245.827 392.761 249.859 392.761Z" fill="#FFF2FA"/>
<path d="M369.347 234.776C369.047 237.376 367.847 238.276 367.047 238.876C365.847 239.176 364.447 238.576 364.447 238.576C364.447 238.576 363.848 246.175 361.248 244.676C358.948 243.176 360.948 233.577 360.948 233.577C356.248 232.677 352.449 222.178 352.449 222.178C348.049 220.678 343.75 214.579 343.75 214.579L303.554 192.481C307.953 188.981 313.153 184.582 318.452 179.382L323.152 183.182L354.648 209.979C354.648 209.979 363.148 212.579 366.047 214.979C368.747 217.278 370.247 228.677 369.347 234.776Z" fill="#FCB2A9"/>
<path d="M384.246 115.688L382.246 117.688L358.948 140.986L351.049 138.086C349.349 141.286 347.249 144.485 345.249 147.685C336.75 160.184 327.451 170.683 318.752 179.182C313.753 183.882 309.453 187.681 305.353 190.881C304.753 191.181 304.153 191.781 303.854 192.081C296.254 198.18 291.055 201.38 291.055 201.38L284.955 212.479L277.656 225.877L265.757 230.577C265.757 230.577 264.857 200.58 255.858 197.38C246.859 194.181 220.362 194.181 220.362 194.181C234.36 169.083 297.854 108.789 312.153 105.289C320.652 102.99 329.951 102.99 336.05 103.29C340.45 103.59 343.05 103.89 343.05 103.89C347.149 103.89 350.649 103.89 354.149 104.189C360.548 104.789 366.047 106.189 370.447 107.989C378.346 110.889 382.946 114.689 384.146 115.888C383.946 115.688 384.246 115.688 384.246 115.688Z" fill="#C3243A"/>
<path d="M353.649 247.075C353.949 261.674 327.151 321.668 327.151 321.668L292.455 315.268L313.753 258.774L259.258 251.775C259.258 251.775 208.563 322.868 190.465 327.267C172.367 331.667 106.273 307.769 106.273 307.769L103.373 310.669C98.174 280.072 109.173 274.273 112.673 275.172C116.172 276.072 117.672 280.172 117.672 280.172L161.068 285.171L166.067 290.971L179.466 284.572L182.966 289.271L208.563 244.076C194.564 213.179 219.962 194.281 219.962 194.281C219.962 194.281 225.461 194.281 232.161 194.581C240.36 194.881 250.259 195.78 255.158 197.48C259.258 198.98 261.558 205.679 263.058 212.379C264.757 221.378 265.057 230.777 265.057 230.777L276.956 226.077L284.255 212.679C299.154 216.778 353.649 230.977 353.649 247.075Z" fill="#FFF2FA"/>
<path d="M433.741 144.785C433.741 144.785 434.341 148.585 432.541 149.185C430.841 149.485 430.241 148.285 430.241 148.285C430.241 148.285 430.541 149.485 428.241 149.985C425.941 150.585 425.042 140.986 425.042 140.986C425.042 140.986 423.842 142.686 419.842 143.886C418.642 144.186 417.242 144.485 415.742 144.785C409.043 145.985 374.047 137.186 365.347 134.886L382.546 117.688L386.345 118.588L407.043 124.087C407.043 124.087 413.743 121.788 418.142 121.188C422.542 120.588 433.541 120.588 436.74 131.987C437.04 132.887 437.04 133.487 437.34 133.987C438.74 143.586 434.941 144.785 433.741 144.785Z" fill="#FCB2A9"/>
<path d="M409.543 354.565L395.844 359.264C386.545 362.464 376.646 363.964 366.747 363.964H321.852H290.055H245.159C235.26 363.964 225.361 362.264 216.062 359.264L202.363 354.565C200.864 353.965 199.464 354.864 198.864 356.264C198.264 357.764 199.164 359.164 200.564 359.764L215.162 364.763C224.461 367.963 234.36 369.463 244.259 369.463H289.955H321.752H367.447C377.346 369.463 387.245 367.763 396.544 364.763L411.143 359.764C412.643 359.164 413.143 357.764 412.843 356.264C412.443 354.864 411.043 354.265 409.543 354.565Z" fill="#0F0100"/>
<path d="M249.659 397.36C242.96 397.36 237.46 391.861 237.46 385.162C237.46 378.462 242.96 372.963 249.659 372.963C256.358 372.963 261.858 378.462 261.858 385.162C261.858 391.861 256.358 397.36 249.659 397.36ZM249.659 379.662C246.459 379.662 244.159 382.262 244.159 385.162C244.159 388.361 246.759 390.661 249.659 390.661C252.859 390.661 255.158 388.061 255.158 385.162C255.458 382.262 252.859 379.662 249.659 379.662Z" fill="#0F0100"/>
<path d="M253.159 367.663H246.159V375.863H253.159V367.663Z" fill="#0F0100"/>
<path d="M367.047 392.761C371.079 392.761 374.346 389.493 374.346 385.462C374.346 381.43 371.079 378.162 367.047 378.162C363.016 378.162 359.748 381.43 359.748 385.462C359.748 389.493 363.016 392.761 367.047 392.761Z" fill="#FFF2FA"/>
<path d="M367.047 397.36C360.348 397.36 354.848 391.861 354.848 385.162C354.848 378.462 360.348 372.963 367.047 372.963C373.747 372.963 379.246 378.462 379.246 385.162C379.246 391.861 373.747 397.36 367.047 397.36ZM367.047 379.662C363.848 379.662 361.548 382.262 361.548 385.162C361.548 388.361 364.148 390.661 367.047 390.661C369.947 390.661 372.547 388.061 372.547 385.162C372.547 382.262 370.247 379.662 367.047 379.662Z" fill="#0F0100"/>
<path d="M370.548 367.663H363.548V375.863H370.548V367.663Z" fill="#0F0100"/>
<path d="M265.357 230.477C263.357 223.778 259.858 214.479 259.858 214.479L242.36 205.48C220.262 204.58 223.761 239.576 223.761 239.576L237.76 240.176L215.362 245.176L180.066 304.07V290.071L166.967 294.771L169.267 300.27L159.368 290.071L115.972 283.072L111.273 285.671L113.272 281.872C102.773 287.371 103.673 310.969 103.673 310.969C98.4739 280.372 109.473 274.573 112.972 275.473C116.472 276.372 117.972 280.472 117.972 280.472L161.368 285.472L166.367 291.271L179.766 284.872L183.265 289.571L208.863 244.376C194.864 213.479 220.262 194.581 220.262 194.581C220.262 194.581 225.761 194.581 232.461 194.881C240.66 195.181 250.559 196.08 255.458 197.78C259.558 199.28 261.858 205.979 263.357 212.679C265.057 220.778 265.357 230.477 265.357 230.477Z" fill="#B78AAA"/>
<path d="M263.258 212.079L232.361 193.981C240.56 194.281 250.459 195.18 255.358 196.88C259.558 198.38 261.858 205.079 263.258 212.079Z" fill="#0F0100"/>
<path d="M259.258 251.675L272.057 231.277L269.157 241.176L306.153 248.175L315.152 246.475L309.653 249.675L322.152 252.275C322.152 252.275 332.351 251.075 339.35 247.575C339.35 247.575 330.051 256.574 318.652 262.474L302.654 309.369L327.151 321.868L292.455 315.469L313.753 258.974L259.258 251.675Z" fill="#B78AAA"/>
<path d="M75.9761 262.474C61.6775 271.773 35.7801 309.069 30.4806 316.968C30.4806 316.968 30.1807 316.968 30.1807 316.668L26.0812 314.369C26.0812 314.369 47.679 277.672 70.3767 260.474C70.1767 260.474 72.7764 261.074 75.9761 262.474Z" fill="#0F0100"/>
<path d="M384.246 115.688L381.346 117.988C367.047 129.387 348.449 132.587 331.251 126.987L313.453 121.188L351.349 137.786L359.248 140.686L384.246 115.688Z" fill="#890421"/>
<path d="M360.048 107.789C360.048 107.789 324.252 104.589 309.053 114.488C301.454 119.688 286.355 135.186 273.557 148.885C267.457 155.584 274.456 165.783 282.856 162.884L307.953 153.585L264.557 173.983C261.058 175.682 259.558 180.082 261.958 183.282C263.957 186.181 265.757 190.281 266.357 196.08L268.657 177.482C268.657 177.482 270.357 197.58 268.957 217.078C268.657 221.778 272.457 225.777 277.156 225.577L265.257 230.277C265.257 230.277 264.357 200.28 255.358 197.08C246.359 193.881 219.862 193.881 219.862 193.881C233.86 168.783 297.354 108.489 311.653 104.989C320.152 102.69 329.451 102.69 335.55 102.99C339.95 103.29 342.55 103.59 342.55 103.59L360.048 107.789Z" fill="#890421"/>
<path d="M433.741 144.785C433.741 144.785 434.341 148.585 432.541 149.185C430.841 149.485 430.241 148.285 430.241 148.285C430.241 148.285 430.541 149.485 428.241 149.985C425.941 150.585 425.042 140.986 425.042 140.986C425.042 140.986 428.541 135.186 429.441 134.286C430.041 133.687 434.641 131.387 437.04 134.286C438.74 143.586 434.94 144.785 433.741 144.785Z" fill="#EA7B73"/>
<path d="M419.442 143.886C418.242 144.186 416.842 144.485 415.342 144.785C408.643 145.985 373.647 137.186 364.947 134.886L382.146 117.688L385.945 118.588L383.346 123.588C381.046 127.987 383.046 133.187 387.745 134.986C397.344 138.386 412.443 143.586 419.442 143.886Z" fill="#EA7B73"/>
<path d="M367.047 238.576C365.847 238.876 364.447 238.276 364.447 238.276C364.447 238.276 363.848 245.875 361.248 244.375C358.948 242.876 360.948 233.277 360.948 233.277C360.948 233.277 362.648 232.977 362.148 229.477C361.548 225.977 357.148 218.378 357.148 218.378C357.148 218.378 362.348 215.478 365.647 224.477C367.347 229.577 367.347 235.076 367.047 238.576Z" fill="#EA7B73"/>
<path d="M352.449 221.978C348.049 220.478 343.75 214.379 343.75 214.379L303.554 192.281C307.953 188.781 313.153 184.381 318.452 179.182L323.152 182.982C322.252 184.182 321.152 185.581 319.952 187.081C317.652 189.981 318.252 194.38 321.452 196.68L345.349 212.379C345.149 212.379 348.049 218.478 352.449 221.978Z" fill="#EA7B73"/>
<path d="M344.849 147.685C344.249 148.885 343.35 149.685 342.55 150.885C334.65 161.984 326.251 171.583 318.052 179.182C314.253 182.682 310.753 185.881 307.553 188.481C306.653 189.381 305.553 190.181 304.653 190.781L296.154 186.081C316.552 166.883 332.551 141.486 332.551 141.486L344.849 147.685Z" fill="#F4B95B"/>
<path d="M342.85 150.885C334.95 161.984 326.551 171.583 318.352 179.182C314.552 182.682 311.053 185.881 307.853 188.481L303.154 185.881L307.553 186.781L315.152 172.783L313.952 180.082C313.952 180.082 328.251 165.183 335.85 155.284C337.35 153.585 337.05 150.585 335.25 149.185L332.951 147.485L342.85 150.885Z" fill="#0F0100"/>
<path d="M325.651 350.465L318.352 348.165C317.152 347.865 316.652 346.665 317.152 345.565C317.452 344.366 318.652 343.866 319.752 344.366L327.051 346.665C328.251 346.965 328.751 348.165 328.251 349.265C327.951 350.165 326.851 350.765 325.651 350.465Z" fill="#0F0100"/>
<path d="M338.75 354.565L331.451 352.265C330.251 351.965 329.751 350.765 330.251 349.665C330.551 348.465 331.751 347.965 332.851 348.465L340.15 350.765C341.35 351.065 341.85 352.265 341.35 353.365C341.05 354.565 339.95 355.164 338.75 354.565Z" fill="#0F0100"/>
<path d="M56.1782 309.069L49.7788 313.169C48.8789 313.769 47.479 313.469 46.879 312.569C46.2791 311.669 46.579 310.269 47.4789 309.669L53.8783 305.569C54.7782 304.97 56.1781 305.269 56.7781 306.169C57.578 307.069 57.278 308.569 56.1782 309.069Z" fill="#0F0100"/>
<path d="M67.777 301.57L61.3776 305.669C60.4777 306.269 59.0778 305.969 58.4779 305.069C57.8779 304.17 58.178 302.77 59.0779 302.17L65.4772 298.07C66.3771 297.47 67.777 297.77 68.3769 298.67C69.2768 299.77 68.9769 300.97 67.777 301.57Z" fill="#0F0100"/>
<path d="M352.749 358.364V366.563H277.856C277.856 366.563 277.556 362.764 277.556 358.364H352.749Z" fill="#0F0100"/>
<path d="M342.25 215.878C341.35 215.278 341.05 213.879 341.95 212.979L348.049 204.779C348.649 203.88 350.049 203.58 350.949 204.48C351.849 205.079 352.149 206.479 351.249 207.379L345.149 215.578C344.549 216.478 343.15 216.478 342.25 215.878Z" fill="#0F0100"/>
<path d="M120.272 277.372L161.068 281.772C161.068 281.972 136.57 273.573 120.272 277.372Z" fill="#B78AAA"/>
<path d="M215.862 193.181C215.862 193.181 270.357 125.587 305.053 106.089C304.953 105.989 252.559 134.287 215.862 193.181Z" fill="#890421"/>
<path d="M309.353 262.474L291.855 307.669C291.855 307.669 296.254 277.372 309.353 262.474Z" fill="#B78AAA"/>
<path d="M274.956 362.164C274.956 362.164 274.356 347.265 279.656 343.266C279.656 342.866 270.057 344.066 274.956 362.164Z" fill="#B78AAA"/>
</svg>
