<svg width="37" height="36" viewBox="0 0 37 36" fill="none" xmlns="http://www.w3.org/2000/svg">
<path d="M29.9183 35.4376H7.08167V29.5476C7.08167 23.9934 11.6025 17.1476 17.1502 17.1476H19.8498C25.4104 17.1476 29.9183 23.9934 29.9183 29.5476V35.4376Z" stroke="#F1F1F2" stroke-linecap="round" stroke-linejoin="round"/>
<path d="M13.1138 5.94875C13.1138 8.91958 15.5292 14.5642 18.5 14.5642C21.4709 14.5642 23.8863 8.91958 23.8863 5.94875C23.8863 4.52023 23.3188 3.15021 22.3087 2.1401C21.2986 1.12998 19.9285 0.5625 18.5 0.5625C17.0715 0.5625 15.7015 1.12998 14.6914 2.1401C13.6812 3.15021 13.1138 4.52023 13.1138 5.94875V5.94875Z" stroke="#F1F1F2" stroke-linecap="round" stroke-linejoin="round"/>
<path d="M11.3829 35.4375L12.61 29.5023" stroke="#F1F1F2" stroke-linecap="round" stroke-linejoin="round"/>
<path d="M25.1715 35.4375L23.9379 29.5023" stroke="#F1F1F2" stroke-linecap="round" stroke-linejoin="round"/>
</svg>
