<svg width="36" height="36" viewBox="0 0 36 36" fill="none" xmlns="http://www.w3.org/2000/svg">
<path d="M29.2598 31.3117C28.8737 31.6355 28.4689 31.9469 28.0517 32.2396C25.1138 34.322 21.6016 35.4405 18.0005 35.4405C14.3995 35.4405 10.8873 34.322 7.9494 32.2396C7.53216 31.9469 7.1336 31.6417 6.7475 31.3179C8.65933 27.6935 13.7223 25.1838 18.0005 25.1838C22.2664 25.1838 27.3418 27.6935 29.2598 31.3117Z" stroke="#F1F1F2" stroke-linecap="round" stroke-linejoin="round"/>
<path d="M29.2598 31.3117C28.8737 31.6355 28.469 31.9469 28.0517 32.2396C25.1138 34.322 21.6016 35.4405 18.0006 35.4405C14.3995 35.4405 10.8873 34.322 7.94943 32.2396C7.53218 31.9469 7.13363 31.6417 6.74752 31.3179C4.01785 29.0121 2.06244 25.9234 1.1459 22.4697C0.229361 19.016 0.395946 15.3642 1.62311 12.0083C2.85028 8.65242 5.07878 5.75455 8.00705 3.70684C10.9353 1.65913 14.422 0.560437 17.9952 0.559449C21.5684 0.55846 25.0557 1.65522 27.9851 3.70131C30.9144 5.7474 33.1445 8.64404 34.3736 11.9992C35.6026 15.3544 35.7712 19.0062 34.8566 22.4604C33.9419 25.9146 31.9882 29.0044 29.2598 31.3117Z" stroke="#F1F1F2" stroke-linecap="round" stroke-linejoin="round"/>
<path d="M18.0006 19.8162C21.3384 19.8162 24.0442 17.1104 24.0442 13.7726C24.0442 10.4348 21.3384 7.729 18.0006 7.729C14.6628 7.729 11.957 10.4348 11.957 13.7726C11.957 17.1104 14.6628 19.8162 18.0006 19.8162Z" stroke="#F1F1F2" stroke-linecap="round" stroke-linejoin="round"/>
</svg>
