<svg width="65" height="64" viewBox="0 0 65 64" fill="none" xmlns="http://www.w3.org/2000/svg">
<path d="M52.5175 55.6653C51.8311 56.241 51.1115 56.7945 50.3697 57.3149C45.1468 61.017 38.9029 63.0054 32.501 63.0054C26.0991 63.0054 19.8553 61.017 14.6323 57.3149C13.8906 56.7945 13.182 56.2521 12.4956 55.6764C15.8944 49.233 24.8952 44.7714 32.501 44.7714C40.0847 44.7714 49.1076 49.233 52.5175 55.6653Z" stroke="#F1F1F2" stroke-linecap="round" stroke-linejoin="round"/>
<path d="M52.5175 55.6653C51.8311 56.241 51.1115 56.7945 50.3697 57.3149C45.1468 61.0169 38.9029 63.0054 32.501 63.0054C26.0991 63.0054 19.8552 61.0169 14.6323 57.3149C13.8905 56.7945 13.182 56.252 12.4956 55.6763C7.64285 51.5771 4.16656 46.0861 2.53715 39.9462C0.907753 33.8064 1.2039 27.3141 3.38553 21.3481C5.56716 15.3821 9.52894 10.2304 14.7347 6.58999C19.9405 2.94961 26.139 0.996387 32.4914 0.99463C38.8438 0.992873 45.0434 2.94267 50.2512 6.58016C55.459 10.2177 59.4236 15.3672 61.6086 21.332C63.7935 27.2968 64.0932 33.7889 62.4672 39.9296C60.8412 46.0704 57.368 51.5634 52.5175 55.6653Z" stroke="#F1F1F2" stroke-linecap="round" stroke-linejoin="round"/>
<path d="M32.501 35.2289C38.4349 35.2289 43.2452 30.4185 43.2452 24.4847C43.2452 18.5508 38.4349 13.7405 32.501 13.7405C26.5672 13.7405 21.7568 18.5508 21.7568 24.4847C21.7568 30.4185 26.5672 35.2289 32.501 35.2289Z" stroke="#F1F1F2" stroke-linecap="round" stroke-linejoin="round"/>
</svg>
