<svg width="48" height="48" viewBox="0 0 48 48" fill="none" xmlns="http://www.w3.org/2000/svg">
<path d="M20.8996 31.8797H8.43345C7.2319 31.7295 6.10545 31.354 5.12918 30.7532C4.07783 30.1524 3.17666 29.2513 2.50079 28.275C1.82492 27.2237 1.29924 26.0972 0.998849 24.8206C0.698461 23.5439 0.698462 22.2673 0.848656 20.9906C0.923753 20.6902 0.998849 20.3147 1.07395 20.0143C1.59963 18.1369 2.57589 16.5599 3.92763 15.3583C5.27938 14.1568 7.00661 13.4058 8.73384 13.3307C10.386 13.1805 12.1132 13.6311 13.54 14.5323C13.9155 12.6548 14.8167 10.9276 16.1684 9.57586C17.5202 8.29921 19.1723 7.47314 20.8996 7.17275C22.7019 6.94746 24.4291 7.32295 26.0062 8.22411C27.5832 9.12528 28.8598 10.6272 29.6108 12.3544C32.0139 10.9276 34.7925 10.4019 37.496 10.9276C39.7489 11.3782 41.9267 12.5046 43.5788 14.307C45.231 16.0342 46.4325 18.2871 46.9582 20.7653C46.9582 20.9155 47.0333 20.9906 47.0333 21.1408C47.3337 22.9431 47.3337 24.7455 46.9582 26.5478C46.6578 28.0497 45.8318 29.4015 44.7053 30.3777C43.5788 31.354 42.152 31.8797 40.7252 31.8797H27.6583" stroke="#020305" stroke-linecap="round" stroke-linejoin="round"/>
<path d="M16.619 24.8957L23.9034 17.6113L31.1878 24.8957" stroke="#020305" stroke-linecap="round" stroke-linejoin="round"/>
<path d="M23.9034 40.8914V17.6113" stroke="#020305" stroke-linecap="round" stroke-linejoin="round"/>
</svg>
