<svg width="120" height="120" viewBox="0 0 120 120" fill="none" xmlns="http://www.w3.org/2000/svg">
<mask id="mask0_467_19179" style="mask-type:alpha" maskUnits="userSpaceOnUse" x="0" y="0" width="120" height="120">
<circle cx="60" cy="60" r="60" fill="#C4C4C4"/>
</mask>
<g mask="url(#mask0_467_19179)">
<path d="M303.937 -1.875H-112.313V478.125H303.937V-1.875Z" fill="white"/>
<path d="M96 58.6872C86.4375 60.9372 77.4375 72.9372 75.1875 76.6872L73.875 75.3747C73.875 75.3747 75.1875 69.5623 79.125 63.7498C81 60.7498 83.625 57.9372 86.4375 55.8747C87.75 54.7497 89.4375 53.9998 91.125 53.4373L96 58.6872Z" fill="#DDCAE6"/>
<path d="M86.4375 55.4995C81.75 58.8745 78.5625 63.7495 76.5 67.687C74.625 71.812 73.6875 74.9995 73.6875 74.9995L70.3125 72.5619C70.3125 72.5619 66.9375 78.187 62.625 80.2495C61.875 80.437 61.3125 80.812 60.375 80.812C55.875 81.3745 50.25 76.1245 45.1875 70.312C40.6875 65.2495 36.9375 59.812 35.25 56.812C35.8125 53.9995 36.9375 51.5619 38.8125 49.1244L39.375 48.562L40.5 47.437C40.5 47.437 45 54.5619 50.0625 49.1244L58.5 55.4995C58.3125 55.312 54.375 49.312 56.8125 46.687C56.8125 46.687 55.125 45.3744 56.0625 42.5619C56.0625 42.3744 56.25 41.9995 56.25 41.9995C56.25 41.812 56.4375 41.812 56.4375 41.437C56.4375 41.437 56.4375 41.2495 56.625 41.2495C56.625 41.2495 56.625 41.062 56.8125 41.062C57.5625 40.4995 58.5 39.937 59.625 39.937C59.8125 39.937 59.8125 39.937 60.1875 39.937H60.375H60.5625C60.5625 39.937 60.5625 39.937 60.75 39.937H60.9375C60.9375 39.937 61.125 39.937 61.125 40.1245C61.125 40.1245 61.3125 40.1245 61.3125 40.312L61.5 40.4995C61.5 40.4995 66.75 39.937 69.375 47.062C69.375 47.062 73.3125 51.562 77.0625 48.937C77.25 48.7495 77.8125 48.3744 78.1875 48.1869L86.4375 55.4995Z" fill="#FF8F6A"/>
<path d="M62.4375 41.0618C62.4375 41.0618 62.25 40.8743 62.4375 41.0618C62.25 40.8743 62.4375 40.8743 62.4375 41.0618Z" fill="#EA6044"/>
<path d="M63.375 51.7492C63.5625 50.9992 65.25 47.6243 62.625 44.0618C62.4375 43.4993 61.8749 42.9367 61.3124 42.7492C58.8749 41.0617 57.9375 44.0617 57.9375 44.4367C57.9375 44.4367 57.3749 41.6242 60.1874 41.4367C62.4374 41.0617 66.75 47.4367 63.375 51.7492Z" fill="#1F1F35"/>
<path d="M116.812 193.499H92.8125L91.6875 195.937L91.1249 197.249C89.2499 197.062 87.1875 196.499 85.3125 195.937C85.3125 195.937 85.3125 195.937 85.125 195.937C78.9375 193.499 75.1875 188.812 75 188.624L76.1249 185.249C75.9374 185.249 75.5624 185.249 75.3749 185.249H75.1874C74.9999 185.249 74.6249 185.249 74.4374 185.249H74.2499C74.0624 185.249 73.6874 185.249 73.4999 185.249H72.7499C72.5624 185.249 72.1875 185.249 72 185.437H71.8124C71.6249 185.437 71.2499 185.624 70.6874 185.624C70.4999 185.624 70.5 185.624 70.125 185.624C69.75 185.624 69.9374 185.624 69.5624 185.812C68.9999 185.999 68.8125 185.999 68.25 186.374C67.6875 186.562 67.4999 186.562 66.9374 186.937C66.7499 187.124 66.1874 187.124 65.8124 187.499C65.4374 187.874 65.2499 187.687 65.0624 188.062C64.8749 188.249 64.4999 188.249 64.3124 188.624C63.7499 188.812 63.5624 189.187 62.9999 189.749C62.4374 190.312 62.25 190.499 61.6875 190.874C61.6875 190.874 57.7499 179.249 64.1249 171.562C64.1249 171.562 64.1249 170.437 64.3124 168.562C65.0624 159.749 67.6875 133.874 69.375 115.687C69.5625 111.749 70.1249 108.562 70.4999 105.749C70.6874 101.812 71.0625 98.9993 71.25 98.0618C72 91.6868 74.6249 89.2493 74.6249 89.2493L74.8125 77.0618C74.8125 76.8743 74.9999 76.8743 75.3749 76.4993C77.6249 73.1243 86.4374 60.7493 96.1874 58.4993L103.875 64.6869C103.875 64.6869 118.687 70.3118 121.312 97.1243C123.937 124.124 116.812 193.499 116.812 193.499Z" fill="#4C9CA3"/>
<path d="M77.4375 103.312L85.6875 109.312L90.5625 141.187L76.3125 185.25L75.1875 188.624L96 141.749L103.312 140.062L95.8125 139.312L92.25 118.125L97.6875 94.312L90.5625 115.687L87.9375 107.624L81.9375 85.8745L85.6875 106.124L77.4375 103.312Z" fill="#28878D"/>
<path d="M121.687 124.687C121.5 134.624 120.563 145.499 120 155.624C118.688 176.249 116.625 193.687 116.625 193.687H92.625C92.625 193.687 109.687 165.937 116.625 150.937C117.937 147.937 119.062 145.312 119.437 143.812C120.562 139.124 120.187 133.312 119.25 125.624C118.125 117.187 115.875 106.499 113.625 93.7493C109.125 69.5618 94.3125 64.4992 94.3125 64.4992C82.125 66.9367 75.75 75.1868 74.8125 76.8743C74.8125 76.6868 75 76.6867 75 76.3117C77.25 72.9367 86.0625 60.5618 95.8125 58.3118L103.5 64.4992C103.5 64.4992 118.313 70.1242 120.938 96.9367C121.875 104.437 121.875 113.999 121.687 124.687Z" fill="#28878D"/>
<path d="M61.6874 58.6872L50.9999 52.3122C44.6249 55.8747 40.8749 50.6248 39.7499 48.7498L40.8749 47.6247C40.8749 47.6247 45.3749 54.7497 50.4374 49.3122L58.8749 55.6872C58.6874 55.4997 54.7499 49.4998 57.1874 46.8748C56.0624 51.5623 61.6874 58.6872 61.6874 58.6872Z" fill="#F05E2B"/>
<path d="M86.4374 55.499C81.7499 58.874 78.5624 63.749 76.4999 67.6865L72.5624 64.124C73.3124 68.249 70.3124 72.374 70.3124 72.374C70.3124 72.374 66.9374 77.999 62.6249 80.0615C77.9999 65.4365 65.0624 53.4366 65.0624 53.4366C69.7499 46.6866 62.2499 41.0615 62.2499 41.0615C62.2499 41.0615 67.4999 40.499 70.1249 47.624C70.1249 47.624 74.0624 52.124 77.8124 49.499C77.9999 49.3115 78.5624 48.9366 78.9374 48.7491L86.4374 55.499Z" fill="#F05E2B"/>
<path d="M73.3125 111.187C73.3125 112.5 72.75 113.999 71.625 115.124C71.0625 115.687 70.3125 116.249 69.375 116.437C69.5625 112.499 70.125 109.312 70.5 106.5C72.1875 107.437 73.3125 109.125 73.3125 111.187Z" fill="#DDCAE6"/>
<path d="M63.375 51.7493C64.6875 48.3743 62.625 44.0618 60.375 43.4993C58.5 42.9368 57.9375 44.2494 57.5625 44.6244C57.5625 44.0619 58.3125 41.2493 60.9375 42.9368C61.5 43.1243 62.0625 43.6868 62.25 44.2493C65.25 47.6243 63.5625 50.9993 63.375 51.7493Z" fill="#F05E2B"/>
<path d="M79.6874 48.7495L78.5624 49.4995C74.4374 51.937 70.8749 47.6245 70.8749 47.6245C68.0624 40.4995 62.9999 41.062 62.9999 41.062L62.8124 40.8745L62.6249 40.6869C62.6249 40.6869 62.4374 40.687 62.4374 40.4995C62.4374 40.4995 62.4374 40.4995 62.2499 40.4995C62.2499 40.4995 62.2499 40.4995 62.0624 40.4995H61.8749H61.6874C61.4999 40.4995 61.4999 40.4995 61.1249 40.4995C60.3749 40.4995 59.2499 40.6869 58.3124 41.6244C58.3124 41.6244 58.1249 41.6245 58.1249 41.812C58.1249 41.812 58.1249 41.9995 57.9374 41.9995C57.9374 42.187 57.7499 42.1869 57.7499 42.5619C57.7499 42.9369 57.5624 42.7495 57.5624 43.1245C56.8124 45.937 58.3124 47.2494 58.3124 47.2494C56.0624 50.0619 59.6249 55.4995 59.9999 56.062L51.5625 49.687C46.3125 55.4995 41.9999 47.9995 41.9999 47.9995L40.3125 49.8745C38.4375 52.1245 37.3124 54.9369 36.7499 57.5619C35.6249 63.7494 37.875 70.3119 43.125 74.4369C43.125 74.4369 43.1249 74.4369 43.3124 74.4369C42.7499 74.2494 20.8124 67.8745 29.2499 43.8745C29.2499 43.687 29.4374 43.312 29.4374 42.7495C38.9999 17.6245 56.4374 23.062 56.4374 23.062C56.4374 23.062 57.5624 19.1245 61.4999 18.3745C61.4999 18.3745 59.6249 19.6869 59.0624 22.8744C75.9374 22.6869 78.5624 46.3119 78.5624 46.3119L79.6874 48.7495Z" fill="#323244"/>
<path d="M94.5 64.6873C94.5 64.6873 84.9375 69.1872 77.0625 80.4372C77.0625 80.4372 91.6875 66.7497 101.063 66.3747L94.5 64.6873Z" fill="#28878D"/>
<path d="M96 58.6872C86.4375 60.9372 77.4375 72.9372 75.1875 76.6872C75.75 71.6247 77.4375 67.3123 78.75 63.7498C80.625 60.7498 83.25 57.9372 86.0625 55.8747C87.375 54.7497 89.0625 53.9998 90.75 53.4373L96 58.6872Z" fill="#C0A1D1"/>
<path d="M42 73.8745C41.4375 73.687 21.75 63.187 40.875 47.437L39.1875 49.312C37.3125 51.562 36.1875 54.3745 35.625 56.9995C34.125 62.9995 36.375 69.7495 42 73.8745Z" fill="#1F1F35"/>
<path d="M79.6875 48.7498L78.5625 49.4997C74.4375 51.9372 70.875 47.6247 70.875 47.6247C68.0625 40.4997 62.9999 41.0622 62.9999 41.0622L62.8125 40.8747L62.625 40.6872C62.625 40.6872 62.4375 40.6872 62.4375 40.4997C62.4375 40.4997 62.4375 40.4997 62.25 40.4997C62.25 40.4997 62.2499 40.4997 62.0624 40.4997H61.875H61.6875C61.5 40.4997 61.4999 40.4997 61.1249 40.4997C60.3749 40.4997 59.2499 40.6872 58.3124 41.6247C58.3124 41.6247 58.125 41.6247 58.125 41.8122C58.125 41.8122 58.125 41.9997 57.9375 41.9997C57.9375 42.1872 57.75 42.1872 57.75 42.5622C57.75 42.9372 57.5625 42.7498 57.5625 43.1248C56.8125 45.9373 58.3124 47.2497 58.3124 47.2497C56.0624 50.0622 59.625 55.4997 60 56.0622L52.125 46.1247C49.125 42.1872 43.3125 41.4372 39.1875 44.8122C32.8125 50.0622 30.1874 58.4997 30.1874 58.4997C31.3124 38.8122 48.1875 31.4997 48.75 31.3122C39.1875 34.1247 32.9999 39.1872 29.2499 44.2497C29.2499 44.0622 29.4375 43.6873 29.4375 43.1248C39 17.9998 56.4374 23.4373 56.4374 23.4373C56.4374 23.4373 57.5625 19.4998 61.5 18.7498C61.5 18.7498 59.625 20.0622 59.0625 23.2497C75.9375 23.0622 78.5625 46.6872 78.5625 46.6872L79.6875 48.7498Z" fill="#1F1F35"/>
<path d="M107.812 75.7495C107.812 75.7495 116.812 117.374 115.5 142.874C115.5 142.874 118.5 117.75 112.5 86.062L107.812 75.7495Z" fill="#28878D"/>
<path d="M45.375 70.4997C40.875 65.4372 37.1251 59.9997 35.4376 56.9997C36.0001 54.1872 37.125 51.7497 39 49.3122L39.5625 48.7498C39.75 49.1248 37.5 59.0622 45.375 70.4997Z" fill="#F05E2B"/>
</g>
</svg>
