<svg width="37" height="36" viewBox="0 0 37 36" fill="none" xmlns="http://www.w3.org/2000/svg">
<path d="M18.5 35.4376C27.2252 35.4376 34.2984 28.3644 34.2984 19.6392C34.2984 10.914 27.2252 3.84082 18.5 3.84082C9.77478 3.84082 2.7016 10.914 2.7016 19.6392C2.7016 28.3644 9.77478 35.4376 18.5 35.4376Z" stroke="#020305" stroke-linecap="round" stroke-linejoin="round"/>
<path d="M18.5 3.84082V7.17411" stroke="#020305" stroke-linecap="round" stroke-linejoin="round"/>
<path d="M30.2841 9.09766L28.402 10.9797" stroke="#020305" stroke-linecap="round" stroke-linejoin="round"/>
<path d="M9.85124 29.5305L7.96271 31.4191" stroke="#020305" stroke-linecap="round" stroke-linejoin="round"/>
<path d="M29.6738 30.809L27.7781 28.9133" stroke="#020305" stroke-linecap="round" stroke-linejoin="round"/>
<path d="M9.22722 10.3635L7.33008 8.46631" stroke="#020305" stroke-linecap="round" stroke-linejoin="round"/>
<path d="M18.5 32.1042V35.4375" stroke="#020305" stroke-linecap="round" stroke-linejoin="round"/>
<path d="M6.0349 19.7499H2.7016" stroke="#020305" stroke-linecap="round" stroke-linejoin="round"/>
<path d="M34.2984 19.7499H30.9651" stroke="#020305" stroke-linecap="round" stroke-linejoin="round"/>
<path d="M18.5 10.8497V19.6388L22.0315 23.1703" stroke="#020305" stroke-linecap="round" stroke-linejoin="round"/>
<path d="M4.49075 12.3428C3.71306 11.7229 3.08523 10.9357 2.65402 10.0396C2.22282 9.14344 1.99934 8.16159 2.00025 7.16713C2.00115 6.17266 2.22641 5.19122 2.65924 4.29589C3.09208 3.40056 3.72133 2.61443 4.50015 1.99603C5.27896 1.37764 6.18725 0.942927 7.15738 0.724271C8.12751 0.505616 9.13446 0.508654 10.1033 0.733158C11.072 0.957663 11.9777 1.39785 12.7528 2.02093C13.5278 2.64401 14.1523 3.43393 14.5798 4.33185" stroke="#020305" stroke-linecap="round" stroke-linejoin="round"/>
<path d="M32.5092 12.3428C33.2869 11.7229 33.9148 10.9357 34.346 10.0396C34.7772 9.14344 35.0006 8.16159 34.9997 7.16713C34.9988 6.17266 34.7736 5.19122 34.3407 4.29589C33.9079 3.40056 33.2787 2.61443 32.4998 1.99603C31.721 1.37764 30.8127 0.942927 29.8426 0.724271C28.8725 0.505616 27.8655 0.508654 26.8967 0.733158C25.9279 0.957663 25.0223 1.39785 24.2472 2.02093C23.4722 2.64401 22.8477 3.43393 22.4202 4.33185" stroke="#020305" stroke-linecap="round" stroke-linejoin="round"/>
</svg>
