<svg width="439" height="401" viewBox="0 0 439 401" fill="none" xmlns="http://www.w3.org/2000/svg">
<path d="M141.243 381.761V396.361H111.643V381.761C111.643 378.561 112.743 375.361 114.543 372.961C115.843 371.061 117.443 369.761 119.643 368.661C121.743 367.561 123.943 367.061 126.343 367.061C130.343 367.061 134.043 368.661 136.743 371.361C139.643 373.761 141.243 377.461 141.243 381.761Z" fill="#4C9CA3"/>
<path d="M114.543 377.161C114.543 377.161 101.743 359.561 110.043 344.161C110.043 344.161 123.643 353.461 122.843 372.161L114.543 377.161Z" fill="#4C9CA3"/>
<path d="M119.943 368.361C118.043 369.461 116.243 370.761 114.843 372.661C112.443 368.161 107.343 356.461 111.143 348.661C111.143 348.661 118.343 354.261 119.943 368.361Z" fill="#F73C4F"/>
<path d="M138.543 377.161C138.543 377.161 151.343 359.561 143.043 344.161C143.043 344.161 129.442 353.461 130.242 372.161L138.543 377.161Z" fill="#4C9CA3"/>
<path d="M133.242 368.361C135.142 369.461 136.942 370.761 138.342 372.661C140.742 368.161 145.842 356.461 142.042 348.661C142.042 348.661 134.842 354.261 133.242 368.361Z" fill="#F73C4F"/>
<path d="M131.043 383.361C131.043 383.661 131.043 384.161 130.743 384.461C128.043 383.961 125.143 383.36 122.743 383.16C122.743 381.06 124.643 379.16 126.743 379.16C129.243 379.36 131.043 381.161 131.043 383.361Z" fill="#FF8F6A"/>
<path d="M133.442 377.461C133.442 378.261 132.942 378.76 132.142 378.76C131.342 378.76 130.842 378.261 130.842 377.461C130.842 376.661 131.342 376.161 132.142 376.161C132.942 376.161 133.442 376.961 133.442 377.461Z" fill="#111010"/>
<path d="M121.443 378.461C122.161 378.461 122.743 377.878 122.743 377.161C122.743 376.443 122.161 375.861 121.443 375.861C120.725 375.861 120.143 376.443 120.143 377.161C120.143 377.878 120.725 378.461 121.443 378.461Z" fill="#111010"/>
<path d="M113.743 376.361L108.143 378.76L110.843 379.361L108.143 380.961L112.443 382.26L113.743 376.361Z" fill="#4C9CA3"/>
<path d="M138.842 376.361L144.442 378.76L141.742 379.361L144.142 380.961L139.842 382.26L138.842 376.361Z" fill="#4C9CA3"/>
<path d="M359.637 340.161L398.736 399.86H405.136L364.137 336.961L359.637 340.161Z" fill="#323244"/>
<path d="M405.636 340.161L371.537 399.86H364.337L401.636 336.961L405.636 340.161Z" fill="#323244"/>
<path d="M184.341 340.161L223.54 399.86H229.84L188.841 336.961L184.341 340.161Z" fill="#454556"/>
<path d="M230.44 340.161L196.341 399.86H189.141L226.44 336.961L230.44 340.161Z" fill="#454556"/>
<path d="M401.437 297.863V329.762H390.237V290.863L401.437 297.863Z" fill="#F4A422"/>
<path d="M222.94 297.863V329.762H211.74V290.863L222.94 297.863Z" fill="#F4A422"/>
<path d="M345.238 399.56C345.238 399.56 344.437 361.961 351.637 347.361C351.637 347.361 335.138 355.661 343.637 399.56H345.238Z" fill="#323244"/>
<path d="M348.437 399.061C348.437 399.061 351.638 381.761 357.738 374.561C357.738 374.561 344.938 378.561 346.838 399.361L348.437 399.061Z" fill="#323244"/>
<path d="M341.438 399.261C341.438 399.261 332.938 378.461 333.938 365.461C333.938 365.461 325.638 377.961 339.838 399.261H341.438Z" fill="#323244"/>
<path d="M405.636 248.063H200.841V297.562H405.636V248.063Z" fill="#FCBD4B"/>
<path d="M405.736 329.762H183.041V340.161H405.736V329.762Z" fill="#FCBD4B"/>
<path d="M405.736 329.762H359.637V340.161H405.736V329.762Z" fill="#F4A422"/>
<path d="M405.636 248.063H396.336V297.562H405.636V248.063Z" fill="#F4A422"/>
<path d="M396.336 297.862H200.841V248.063H266.139L396.336 297.862Z" fill="#F4A422"/>
<path d="M25.0449 398.76C25.0449 398.76 38.3446 383.36 70.5439 392.06C102.743 400.76 110.243 365.661 146.442 389.66C182.641 413.86 212.541 376.36 284.639 398.16C284.639 398.16 333.338 390.46 354.637 398.46C354.637 398.46 391.637 393.66 406.536 398.16L25.0449 398.76Z" fill="#F9D8AD"/>
<path d="M33.8446 398.76C33.8446 398.76 43.9447 390.46 53.0447 399.06L33.8446 398.76Z" fill="#FF8F6A"/>
<path d="M99.9431 399.56C99.9431 399.56 101.543 330.562 87.9434 303.662C87.9434 303.662 118.043 318.862 102.343 399.26L99.9431 399.56Z" fill="#454556"/>
<path d="M93.8432 398.46C93.8432 398.46 87.9434 366.461 76.5437 353.461C76.5437 353.461 100.243 360.661 96.5432 398.76L93.8432 398.46Z" fill="#454556"/>
<path d="M106.543 399.06C106.543 399.06 122.243 360.661 120.143 337.261C120.143 337.261 135.042 360.161 109.443 399.36L106.543 399.06Z" fill="#454556"/>
<path d="M128.143 399.06L144.143 393.16L154.543 399.06H128.143Z" fill="#FF8F6A"/>
<path d="M58.644 399.56C58.644 399.56 65.0438 388.66 86.8434 385.46C108.643 381.961 126.242 399.56 126.242 399.56H58.644Z" fill="#FF8F6A"/>
<path d="M262.34 399.06L244.84 380.66L236.04 383.06L219.24 356.961H217.94L207.541 357.261L205.341 362.261L193.941 373.961L192.041 377.461L176.041 383.56L172.641 390.76L150.742 399.26L182.241 398.26L181.641 399.26L262.34 399.06Z" fill="#FF8F6A"/>
<path d="M262.34 399.06L181.641 399.26L193.941 373.961L205.341 362.261L207.541 357.261L217.94 356.961L229.04 383.06H236.04L244.84 380.66L242.94 385.76L262.34 399.06Z" fill="#F05E2B"/>
<path d="M384.937 379.661C388.637 379.661 391.637 375.945 391.637 371.361C391.637 366.777 388.637 363.061 384.937 363.061C381.236 363.061 378.237 366.777 378.237 371.361C378.237 375.945 381.236 379.661 384.937 379.661Z" fill="#323244"/>
<path d="M433.336 330.562L432.836 335.362L432.536 337.261L424.836 398.76H381.737L378.537 371.861L376.137 354.561L373.137 330.562H433.336Z" fill="#F73C4F"/>
<path d="M432.836 335.362L432.536 337.261L424.536 398.76H410.936V333.261C420.536 331.962 427.536 332.762 432.836 335.362Z" fill="#DD2641"/>
<path d="M438.635 323.962H367.837V330.662H438.635V323.962Z" fill="#F73C4F"/>
<path d="M433.336 330.562L432.536 337.261L373.137 330.562H433.336Z" fill="#323244"/>
<path d="M438.736 323.962V330.562H405.136L396.836 323.962H438.736Z" fill="#DD2641"/>
<path d="M398.437 362.061C398.437 368.961 392.837 374.561 385.937 374.561C383.037 374.561 380.337 373.461 378.237 371.861L376.137 354.561C378.537 351.661 382.037 349.761 386.037 349.761C392.837 349.461 398.437 355.061 398.437 362.061Z" fill="#FCBD4B"/>
<path d="M436.336 400.06H1.94529C1.4453 400.06 0.845337 399.56 0.845337 398.96C0.845337 398.46 1.3453 397.86 1.94529 397.86H436.336C436.836 397.86 437.435 398.36 437.435 398.96C437.635 399.56 437.136 400.06 436.336 400.06Z" fill="#F9D8AD"/>
<path d="M247.24 277.063V376.361C247.24 376.361 244.84 376.861 241.94 376.661C238.44 376.161 233.94 374.561 230.74 368.961L228.04 343.661L224.54 311.162L223.74 304.462L221.04 277.063H247.24Z" fill="#FF8F6A"/>
<path d="M247.24 343.661V376.461C247.24 376.461 244.84 376.961 241.94 376.761C238.44 376.261 233.94 374.661 230.74 369.061L228.04 343.761H247.24V343.661Z" fill="#231F20"/>
<path d="M247.24 277.063V343.661H241.64L241.34 326.362L224.84 310.862L224.04 304.462L221.34 277.063H247.24Z" fill="#F05E2B"/>
<path d="M247.24 343.661V376.461C247.24 376.461 244.84 376.961 241.94 376.761L241.44 343.761H247.24V343.661Z" fill="#111010"/>
<path d="M247.24 277.063H205.441V263.763L200.341 261.363L197.141 259.763V193.665C199.241 195.765 204.641 198.965 214.741 199.565C221.64 199.865 225.94 199.065 228.54 197.665C231.74 196.065 232.84 193.965 233.64 191.565C235.24 187.265 240.04 187.565 240.04 187.565H246.44C247.54 198.765 256.04 198.265 256.04 198.265C258.34 242.664 247.24 277.063 247.24 277.063Z" fill="#F73C4F"/>
<path d="M247.24 277.063H228.64V197.665C231.84 196.065 232.94 193.965 233.74 191.565C235.34 187.265 240.14 187.565 240.14 187.565H246.54C247.64 198.765 256.14 198.265 256.14 198.265C258.339 242.664 247.24 277.063 247.24 277.063Z" fill="#DD2641"/>
<path d="M309.238 352.161C308.738 352.661 308.138 353.261 307.938 353.461C302.038 358.761 292.539 360.661 292.539 360.661L267.239 339.661L247.54 323.162L224.34 303.962L221.14 301.262C218.44 299.162 216.84 296.162 216.64 292.963L215.541 281.463L215.041 276.663H243.54V283.363C243.54 286.863 244.84 290.063 247.24 292.162L279.739 323.362L309.238 352.161Z" fill="#FF8F6A"/>
<path d="M254.34 397.96H195.741C195.741 397.96 195.741 395.56 196.241 392.66C197.541 387.06 201.841 379.061 215.14 379.061L230.54 368.961C236.94 379.361 247.04 376.461 247.04 376.461L252.34 392.66L254.34 397.96Z" fill="#F9D8AD"/>
<path d="M326.338 348.161L306.938 397.96H289.639C289.639 397.96 287.739 395.86 286.939 392.66C285.639 388.36 285.839 381.96 294.439 377.761L290.739 359.961V359.661C301.938 357.761 303.539 348.161 303.839 347.161L319.838 347.961L326.338 348.161Z" fill="#F9D8AD"/>
<path d="M326.338 348.161L306.938 397.96H289.639C289.639 397.96 287.739 395.86 286.939 392.66H302.339L319.938 347.961L326.338 348.161Z" fill="#231F20"/>
<path d="M303.639 346.862C303.639 347.362 303.339 348.962 302.339 351.162C300.739 354.362 297.539 358.362 290.639 359.462V359.762L266.939 340.062L276.839 327.562L279.739 323.862L303.639 346.862Z" fill="#231F20"/>
<path d="M240.24 71.4676C240.24 71.4676 222.64 91.1671 209.64 123.666C209.34 124.466 209.141 125.266 208.841 125.766C202.741 141.766 197.641 160.366 196.341 181.465H191.841C193.141 151.666 204.641 115.967 207.241 107.967C207.541 106.867 207.741 106.367 207.741 106.367C207.741 106.367 176.341 113.567 169.941 111.467C163.542 109.367 147.042 94.467 147.042 94.467C147.542 93.9671 148.142 93.167 148.342 92.5671C152.642 85.6672 150.242 78.9674 149.942 77.9674L170.141 88.0672C173.041 89.3671 176.241 89.6671 179.441 88.3671C189.041 84.3672 210.84 75.2675 221.74 70.2676C231.84 65.4677 236.94 64.9677 238.74 64.9677C238.24 67.0677 238.44 69.2676 239.84 71.3675C240.04 70.9675 240.04 71.1676 240.24 71.4676Z" fill="#F9D8AD"/>
<path d="M226.44 71.7675C225.94 72.5675 214.941 87.4672 207.541 106.967C207.241 107.267 207.241 107.767 207.041 108.067C207.341 106.967 207.541 106.467 207.541 106.467C207.541 106.467 176.141 113.667 169.742 111.567C163.342 109.467 146.842 94.567 146.842 94.567C147.342 94.067 147.942 93.267 148.142 92.667C152.442 85.7672 150.042 79.0673 149.742 78.0674C150.042 78.5674 153.442 84.1672 152.442 93.467C152.442 93.467 167.342 105.767 171.642 107.567C175.941 109.367 207.041 97.9669 207.041 97.9669C207.041 97.9669 213.94 84.7672 226.44 71.7675Z" fill="#E8B374"/>
<path d="M278.939 62.1677L269.839 61.8677L267.439 39.7682C269.839 36.5683 271.739 32.0684 268.539 29.3685C265.339 26.6685 263.739 29.0685 263.739 29.0685C263.739 29.0685 261.839 31.7684 258.439 31.1684L256.34 42.6681L254.439 27.7685C252.839 25.3686 252.04 22.4686 252.04 22.4686H232.24C224.74 -0.130842 253.84 0.8691 253.84 0.8691C254.14 0.8691 254.339 0.869112 254.639 0.569119C283.939 -4.53077 282.339 30.3684 282.339 30.3684C282.839 31.4684 283.439 32.4684 283.939 33.5684C293.839 55.9679 278.939 62.1677 278.939 62.1677Z" fill="#231F20"/>
<path d="M278.939 62.1677L269.839 61.8677L267.439 39.7682C269.839 36.5683 271.739 32.0684 268.539 29.3685C265.339 26.6685 263.739 29.0685 263.739 29.0685C249.94 20.5687 254.139 1.3691 254.139 1.3691C254.139 1.3691 254.439 1.0691 254.639 0.869107C283.939 -4.23078 282.339 30.6684 282.339 30.6684C282.839 31.7684 283.439 32.7684 283.939 33.8684C293.839 55.9679 278.939 62.1677 278.939 62.1677Z" fill="#111010"/>
<path d="M141.243 70.1679L126.843 56.5679L118.043 52.8679C118.043 52.8679 116.443 57.168 118.343 58.968C118.343 58.968 116.743 59.7679 117.543 62.1679C117.543 62.1679 115.143 63.768 116.443 66.968C117.743 70.168 123.143 74.6679 129.743 77.0679C136.143 79.4679 143.543 82.1679 143.543 82.1679L141.243 70.1679Z" fill="#F05E2B"/>
<path d="M148.142 92.2676L139.642 81.0676L140.942 70.3676L149.442 77.5676C150.242 78.3676 152.642 85.2676 148.142 92.2676Z" fill="#28878D"/>
<path d="M286.039 76.2674C278.839 71.7675 272.439 70.1675 267.639 69.3676C262.339 68.5676 259.34 69.3676 259.34 69.3676L256.44 75.2674C246.04 78.9674 239.64 90.1671 238.04 106.467C237.24 115.567 237.74 125.866 239.94 137.666C242.04 148.866 243.44 158.466 244.44 165.865C246.34 180.265 246.54 187.965 246.54 187.965H240.14C240.14 187.965 235.34 187.965 233.74 191.965C232.14 196.265 229.74 200.465 214.841 199.665C204.741 199.165 199.441 195.965 197.241 193.765C196.141 192.965 195.941 192.165 195.941 192.165C195.941 188.465 195.941 184.965 196.241 181.465C200.241 115.967 240.14 71.4675 240.14 71.4675C239.84 71.1676 239.84 71.1676 239.64 70.9676C238.34 69.0676 237.74 66.6676 238.54 64.5677C239.34 61.3677 242.24 58.6678 246.24 58.6678H246.54C246.54 59.1678 246.54 59.4678 246.84 59.9678C246.84 60.4678 246.84 61.0678 246.84 61.2678C246.84 61.7678 246.84 62.0677 246.84 62.3677C246.84 62.8677 246.84 63.6677 246.84 64.2677C246.84 64.5677 246.84 64.7677 246.84 65.0677C246.84 65.3677 246.84 65.3677 246.84 65.5677C246.84 66.3676 246.84 66.8676 246.84 67.4676C246.84 67.7676 246.84 67.9676 246.84 68.2676V68.5676C246.84 68.8676 246.84 69.0676 246.84 69.3676V69.6675C246.84 69.9675 246.84 69.9675 246.84 70.1675C246.84 70.3675 246.84 70.4675 246.84 70.6675V70.9676C246.84 71.4675 246.54 71.7675 246.54 71.7675C246.84 71.4675 247.04 71.2675 247.34 70.9676C247.64 70.6676 247.84 70.6676 247.84 70.4676C248.14 70.1676 248.64 69.9675 248.94 69.6675C249.24 69.3675 249.44 69.1675 249.74 69.1675C250.04 68.8676 250.54 68.6676 250.84 68.3676C251.14 68.0676 251.64 67.8676 251.94 67.5676C252.24 67.2676 252.44 67.2676 253.04 67.0676C253.04 67.0676 253.34 67.0676 253.34 66.7676C253.64 66.4676 253.84 66.4676 254.14 66.2676C254.44 65.9677 254.64 65.9677 254.94 65.7677C255.24 65.4677 255.44 65.4677 256.04 65.2677C256.34 65.2677 256.34 64.9677 256.54 64.9677C257.04 64.6677 257.34 64.6677 257.84 64.4677C258.34 64.1677 258.94 63.9677 259.74 63.9677H260.04C260.34 63.9677 260.839 63.6677 261.139 63.6677C261.439 63.6677 261.439 63.6677 261.639 63.3677C262.739 63.0677 263.54 62.8677 264.34 62.5677C264.64 62.5677 264.84 62.5677 264.84 62.2677C265.139 62.2677 265.339 62.2678 265.639 61.9678C268.539 61.4678 270.439 61.4678 270.439 61.4678L279.539 61.7678L286.039 76.2674Z" fill="#4C9CA3"/>
<path d="M283.939 33.8685C281.239 35.4685 276.439 36.7685 276.439 36.7685L275.339 33.2685C280.639 31.9685 282.239 30.8685 282.239 30.8685C282.839 31.7685 283.439 32.8685 283.939 33.8685Z" fill="#DD2641"/>
<path d="M293.239 172.165L296.939 183.065L274.539 212.364L256.139 203.264V198.165C256.139 198.165 250.04 198.465 247.34 191.765C246.84 190.665 246.54 189.065 246.24 187.465C246.24 187.465 246.24 185.065 245.74 180.265C245.74 179.465 245.74 178.665 245.44 177.865C245.14 174.665 244.64 170.365 244.14 165.565C243.04 158.066 241.74 148.566 239.64 137.366C239.64 137.066 239.64 136.566 239.34 136.266C239.04 135.466 239.04 134.666 238.84 133.566C234.04 102.667 240.44 80.5673 255.84 74.9674L258.74 69.0676C258.74 69.0676 269.639 66.3676 285.339 75.7674L296.039 82.6672C296.039 82.6672 298.939 92.267 291.239 98.6669C291.239 98.6669 315.738 139.666 316.238 146.066C317.738 152.666 293.239 172.165 293.239 172.165Z" fill="#F9D8AD"/>
<path d="M156.642 107.667L141.442 105.567C141.442 105.567 116.143 66.6678 107.043 13.969L119.843 4.36914C119.843 4.36914 130.742 59.4679 148.842 91.9672L156.642 107.667Z" fill="#454556"/>
<path d="M148.942 91.9672C128.142 60.7679 117.743 14.1689 117.743 14.1689L107.043 13.8689L119.843 4.26917C119.943 4.36916 130.842 59.4679 148.942 91.9672Z" fill="#C0A1D1"/>
<path d="M254.34 397.96H195.741C195.741 397.96 195.741 395.56 196.241 392.66H252.74L254.34 397.96Z" fill="#231F20"/>
<path d="M267.139 40.0682L269.539 62.1677C269.539 62.1677 267.639 62.1677 264.739 62.6677C259.639 63.4677 251.94 65.8677 245.54 71.9675C245.54 71.9675 247.14 66.0676 246.04 58.6678C246.04 57.5678 245.74 56.7678 245.54 55.7679C245.54 55.4679 245.24 54.9679 245.24 54.6679C245.24 54.6679 243.34 55.4678 240.94 55.1678C235.84 54.6679 228.64 49.868 231.64 22.9686H251.34C251.34 22.9686 252.139 25.8685 253.739 28.2685L255.639 43.1681L257.739 31.6684C261.239 32.1684 263.039 29.5685 263.039 29.5685C263.039 29.5685 264.639 27.1685 267.839 29.8684C271.439 32.5684 269.839 37.0683 267.139 40.0682Z" fill="#FF8F6A"/>
<path d="M267.139 40.0682C262.039 43.5681 258.839 41.1682 258.839 41.1682C262.839 41.4682 268.739 37.9683 267.939 33.4684C267.439 30.5685 265.239 29.7685 263.639 29.4685C263.339 29.7685 263.339 29.7685 263.339 29.7685C263.339 29.7685 261.439 32.4684 258.039 31.8684L255.939 43.3681L254.04 28.4685V46.0681C254.04 46.0681 250.34 53.7679 241.24 55.3679C243.64 55.6679 245.54 54.8679 245.54 54.8679C245.54 55.1679 245.84 55.6679 245.84 55.9679C249.04 55.1679 252.74 53.2679 257.039 49.568L258.939 62.3677C258.939 62.3677 249.34 66.6676 245.84 72.4675C252.24 66.3676 259.939 63.9677 265.039 63.1677C267.939 62.6677 269.839 62.6677 269.839 62.6677L267.139 40.0682Z" fill="#F05E2B"/>
<path d="M246.64 64.2678C246.64 64.5678 246.64 64.7678 246.64 65.0678C246.64 65.3678 246.64 65.3678 246.64 65.5678C246.64 66.3678 246.64 66.8678 246.64 67.4678C246.64 67.7678 246.64 67.9678 246.64 68.2678V68.5678C246.64 68.8678 246.64 69.0678 246.64 69.3678V69.6678C246.64 69.9678 246.64 69.9678 246.64 70.1678C246.64 70.3678 246.64 70.4678 246.64 70.6678V70.9678C246.64 71.4678 246.34 71.7678 246.34 71.7678C246.34 71.7678 241.04 69.3678 241.24 64.0678C241.74 58.7678 246.54 58.4678 246.54 58.4678C246.54 58.9678 246.54 59.2678 246.84 59.7678C246.84 60.2678 246.84 60.8678 246.84 61.0678C246.84 61.5678 246.84 61.8678 246.84 62.1678C246.64 63.1678 246.64 63.7678 246.64 64.2678Z" fill="#28878D"/>
<path d="M240.041 136.466C223.541 132.466 213.94 128.466 208.64 125.766C208.94 124.966 209.14 124.166 209.44 123.666C214.24 126.366 223.241 130.066 239.541 134.066C239.741 134.866 239.741 135.666 240.041 136.466Z" fill="#28878D"/>
<path d="M286.04 76.2678C278.84 71.7678 272.44 70.1677 267.64 69.3677L266.04 65.0677C256.44 63.9677 246.34 71.4678 245.54 71.7678C245.84 71.4678 246.04 71.2678 246.34 70.9678C246.64 70.6678 246.84 70.6678 246.84 70.4678C247.14 70.1678 247.64 69.9677 247.94 69.6677C248.24 69.3677 248.44 69.1677 248.74 69.1677C249.04 68.8677 249.54 68.6677 249.84 68.3677C250.14 68.0677 250.64 67.8677 250.94 67.5677C251.24 67.2677 251.44 67.2677 252.04 67.0677C252.04 67.0677 252.34 67.0678 252.34 66.7678C252.64 66.4678 252.84 66.4678 253.14 66.2678C253.44 65.9678 253.64 65.9678 253.94 65.7678C254.24 65.4678 254.44 65.4678 255.04 65.2678C255.34 65.2678 255.34 64.9678 255.54 64.9678C256.04 64.6678 256.34 64.6678 256.84 64.4678C257.34 64.2678 257.94 63.9678 258.74 63.9678H259.04C259.34 63.9678 259.84 63.6677 260.14 63.6677C260.44 63.6677 260.44 63.6677 260.64 63.3677C261.74 63.0677 262.54 62.8677 263.34 62.5677C263.64 62.5677 263.84 62.5678 263.84 62.2678C264.14 62.2678 264.34 62.2678 264.64 61.9678C267.54 61.4678 269.44 61.4678 269.44 61.4678L278.54 61.7678L286.04 76.2678Z" fill="#28878D"/>
<path d="M246.64 187.565H240.24L238.14 169.965L212.841 185.165C213.341 184.665 227.24 171.865 233.84 164.965C240.54 158.066 237.34 151.666 237.34 151.666L215.54 166.065L238.14 144.266C236.04 125.666 237.04 113.667 238.14 106.467C237.34 115.567 237.84 125.866 240.04 137.666C242.14 148.866 243.54 158.466 244.54 165.865C246.44 180.165 246.64 187.565 246.64 187.565Z" fill="#28878D"/>
<path d="M273.339 169.965C274.223 169.965 274.939 169.249 274.939 168.365C274.939 167.482 274.223 166.765 273.339 166.765C272.456 166.765 271.739 167.482 271.739 168.365C271.739 169.249 272.456 169.965 273.339 169.965Z" fill="#231F20"/>
<path d="M260.54 154.566C261.423 154.566 262.139 153.849 262.139 152.966C262.139 152.082 261.423 151.366 260.54 151.366C259.656 151.366 258.939 152.082 258.939 152.966C258.939 153.849 259.656 154.566 260.54 154.566Z" fill="#231F20"/>
<path d="M288.739 146.266C289.539 149.966 259.739 171.565 259.739 171.565L257.639 176.365L245.94 180.665C245.94 179.865 245.94 179.065 245.64 178.265C254.139 170.765 270.439 156.466 270.139 155.066C269.839 153.466 264.539 106.867 264.539 106.867C264.039 90.6671 280.239 92.7671 280.239 92.7671C267.139 92.2671 265.639 105.567 269.339 112.467C273.339 118.867 287.939 142.266 288.739 146.266Z" fill="#E8B374"/>
<path d="M261.34 185.465C261.34 185.465 256.84 192.965 254.14 194.565C253.34 195.065 251.74 195.665 250.14 196.165C246.94 197.265 243.74 197.765 243.74 197.765C237.64 200.465 237.84 195.065 237.84 195.065C237.54 195.065 237.54 195.065 237.54 195.065C235.94 194.565 235.14 193.165 235.44 191.565C235.44 190.765 235.94 189.965 236.74 189.465C238.84 188.165 240.24 186.565 240.24 186.565C240.24 186.565 241.04 180.665 242.94 179.665C244.54 178.865 250.64 176.465 253.34 175.365C254.14 175.065 254.44 174.865 254.44 174.865L259.74 182.865L261.34 185.465Z" fill="#FF8F6A"/>
<path d="M267.939 183.065L262.34 186.765L261.34 185.465L259.439 182.765L254.139 174.765L259.74 171.565L267.939 183.065Z" fill="#28878D"/>
<path d="M291.939 99.1675C286.039 70.1675 256.54 75.1675 256.54 75.1675L259.439 69.2676C259.439 69.2676 270.34 66.5676 286.04 75.9676L296.74 82.8676C296.74 83.1676 299.639 92.7675 291.939 99.1675Z" fill="#28878D"/>
<path d="M297.039 183.065L274.639 212.364L256.24 203.264V198.165C256.24 198.165 253.04 198.465 250.34 196.065C251.94 195.565 253.54 194.965 254.34 194.465C257.04 192.865 261.54 185.365 261.54 185.365L262.34 186.665L268.239 182.965L272.239 188.565L293.239 172.065L297.039 183.065Z" fill="#E8B374"/>
<path d="M205.641 263.763L200.541 261.363L204.841 207.064L205.641 263.763Z" fill="#DD2641"/>
<path d="M279.739 323.962L276.839 327.662C263.239 315.162 248.84 302.362 244.04 298.062C233.64 289.563 234.94 282.063 234.94 282.063H215.541L215.041 277.263H243.54V283.963C243.54 287.463 244.84 290.663 247.24 292.762L279.739 323.962Z" fill="#F05E2B"/>
<path d="M303.639 346.862C303.639 347.362 303.339 348.962 302.339 351.162C297.539 346.862 287.439 337.562 276.739 327.762L279.639 324.062L303.639 346.862Z" fill="#111010"/>
<path d="M246.64 182.265C246.64 182.265 242.94 187.365 235.14 191.565C235.14 190.765 235.64 189.965 236.44 189.465C238.54 188.165 239.94 186.565 239.94 186.565L246.64 182.265Z" fill="#F05E2B"/>
<path d="M261.34 185.465C261.34 185.465 256.84 192.965 254.14 194.565C253.34 195.065 251.74 195.665 250.14 196.165C246.94 197.265 243.74 197.765 243.74 197.765C252.84 193.765 257.54 186.565 257.54 186.565L253.04 175.065C253.84 174.765 254.14 174.565 254.14 174.565L259.44 182.565L261.34 185.465Z" fill="#F05E2B"/>
<path d="M228.24 368.661L230.14 371.561L217.64 379.061L215.74 376.161L228.24 368.661Z" fill="#DD2641"/>
<path d="M290.039 361.261L292.739 360.661L295.639 375.561L292.739 376.161L290.039 361.261Z" fill="#DD2641"/>
</svg>
