<svg width="169" height="401" viewBox="0 0 169 401" fill="none" xmlns="http://www.w3.org/2000/svg">
<path d="M86.0387 400.06C129.642 400.06 164.989 394.326 164.989 387.252C164.989 380.178 129.642 374.444 86.0387 374.444C42.4355 374.444 7.08801 380.178 7.08801 387.252C7.08801 394.326 42.4355 400.06 86.0387 400.06Z" fill="#DDBFD3"/>
<path d="M154.883 379.247C164.489 381.948 168.492 374.444 168.492 374.444C156.984 369.64 154.883 379.247 154.883 379.247Z" fill="#4C0900"/>
<path d="M138.272 374.744C138.272 374.744 142.275 382.249 151.881 379.547C151.881 379.247 149.78 369.641 138.272 374.744Z" fill="#4C0900"/>
<path d="M154.883 367.839C164.489 370.541 168.492 363.036 168.492 363.036C156.984 358.233 154.883 367.839 154.883 367.839Z" fill="#4C0900"/>
<path d="M138.272 363.036C138.272 363.036 142.275 370.541 151.881 367.839C151.881 367.839 149.78 358.233 138.272 363.036Z" fill="#4C0900"/>
<path d="M154.883 356.132C164.489 358.834 168.492 351.329 168.492 351.329C156.984 346.526 154.883 356.132 154.883 356.132Z" fill="#4C0900"/>
<path d="M138.272 351.329C138.272 351.329 142.275 358.834 151.881 356.132C151.881 356.132 149.78 346.526 138.272 351.329Z" fill="#4C0900"/>
<path d="M154.883 344.324C164.489 347.026 168.492 339.521 168.492 339.521C156.984 334.718 154.883 344.324 154.883 344.324Z" fill="#4C0900"/>
<path d="M138.272 339.821C138.272 339.821 142.275 347.326 151.881 344.624C151.881 344.324 149.78 334.718 138.272 339.821Z" fill="#4C0900"/>
<path d="M154.883 332.917C164.489 335.619 168.492 328.114 168.492 328.114C156.984 323.311 154.883 332.917 154.883 332.917Z" fill="#4C0900"/>
<path d="M138.272 328.114C138.272 328.114 142.275 335.619 151.881 332.917C151.881 332.917 149.78 323.311 138.272 328.114Z" fill="#4C0900"/>
<path d="M154.883 321.109C164.489 323.811 168.492 316.306 168.492 316.306C156.984 311.503 154.883 321.109 154.883 321.109Z" fill="#4C0900"/>
<path d="M138.272 316.306C138.272 316.306 142.275 323.811 151.881 321.109C151.881 321.109 149.78 311.503 138.272 316.306Z" fill="#4C0900"/>
<path d="M154.883 309.402C164.489 312.104 168.492 304.599 168.492 304.599C156.984 299.796 154.883 309.402 154.883 309.402Z" fill="#4C0900"/>
<path d="M138.272 304.899C138.272 304.899 142.275 312.404 151.881 309.702C151.881 309.402 149.78 299.796 138.272 304.899Z" fill="#4C0900"/>
<path d="M157.485 297.194C157.485 295.093 155.583 293.191 153.482 293.191C151.381 293.191 149.479 295.093 149.479 297.194C149.479 299.295 151.08 300.896 153.182 301.197V386.551H153.982V301.197C155.883 301.197 157.485 299.295 157.485 297.194Z" fill="#4C0900"/>
<path d="M27.1009 365.438C42.6108 369.741 49.2151 357.733 49.2151 357.733C30.6032 349.728 27.1009 365.438 27.1009 365.438Z" fill="white"/>
<path d="M0.383789 357.433C0.383789 357.433 7.08807 369.44 22.498 365.138C22.598 365.438 19.0958 349.728 0.383789 357.433Z" fill="white"/>
<path d="M27.1009 346.526C42.6108 350.828 49.2151 338.821 49.2151 338.821C30.6032 330.716 27.1009 346.526 27.1009 346.526Z" fill="white"/>
<path d="M0.68396 338.721C0.68396 338.721 7.38824 350.728 22.7981 346.426C22.7981 346.526 19.396 330.716 0.68396 338.721Z" fill="white"/>
<path d="M27.1009 327.514C42.6108 331.816 49.2151 319.809 49.2151 319.809C30.6032 311.803 27.1009 327.514 27.1009 327.514Z" fill="white"/>
<path d="M0.68396 319.809C0.68396 319.809 7.38824 331.816 22.7981 327.514C22.7981 327.514 19.396 311.803 0.68396 319.809Z" fill="white"/>
<path d="M27.1009 308.601C42.6108 312.904 49.2151 300.896 49.2151 300.896C30.6032 292.891 27.1009 308.601 27.1009 308.601Z" fill="white"/>
<path d="M0.68396 300.896C0.68396 300.896 7.38824 312.904 22.7981 308.601C22.7981 308.601 19.396 292.891 0.68396 300.896Z" fill="white"/>
<path d="M27.1009 289.689C42.6108 293.992 49.2151 281.984 49.2151 281.984C30.6032 273.979 27.1009 289.689 27.1009 289.689Z" fill="white"/>
<path d="M0.68396 281.984C0.68396 281.984 7.38824 293.992 22.7981 289.689C22.7981 289.689 19.396 273.979 0.68396 281.984Z" fill="white"/>
<path d="M27.1009 270.777C42.6108 275.08 49.2151 263.072 49.2151 263.072C30.6032 254.967 27.1009 270.777 27.1009 270.777Z" fill="white"/>
<path d="M0.68396 262.972C0.68396 262.972 7.38824 274.98 22.7981 270.677C22.7981 270.777 19.396 254.967 0.68396 262.972Z" fill="white"/>
<path d="M27.1009 251.765C42.6108 256.068 49.2151 244.06 49.2151 244.06C30.6032 236.355 27.1009 251.765 27.1009 251.765Z" fill="white"/>
<path d="M0.68396 244.06C0.68396 244.06 7.38824 256.068 22.7981 251.765C22.7981 251.765 19.396 236.355 0.68396 244.06Z" fill="white"/>
<path d="M31.6038 231.852C31.6038 228.15 28.7019 225.148 24.8995 225.148C21.1971 225.148 18.1952 228.05 18.1952 231.852C18.1952 235.354 20.8969 237.956 24.0989 238.556V376.845H25.3998V238.456C29.0021 238.256 31.6038 235.254 31.6038 231.852Z" fill="white"/>
<path d="M86.3389 385.451C86.3389 385.451 63.6243 392.955 54.1182 393.956C49.015 394.456 45.3126 393.656 43.2113 392.655C41.1099 391.855 40.0092 390.754 40.0092 390.754C40.0092 389.453 40.0092 388.052 40.3094 387.052C41.9104 381.148 48.3146 380.147 49.9156 379.047C51.8168 377.746 62.7238 363.036 62.7238 363.036C62.7238 363.036 61.6231 356.632 62.4236 356.332C62.7238 356.332 64.3248 356.332 66.126 356.632C67.2267 356.932 68.5275 356.932 69.8283 357.132C72.2299 357.633 74.3313 358.233 74.9317 358.734C76.2325 360.034 75.7322 363.837 75.7322 363.837L81.3357 362.536C82.4364 362.236 83.4371 363.036 83.7373 364.137C85.0381 370.041 84.838 377.245 84.838 377.245C86.5391 378.746 86.3389 385.451 86.3389 385.451Z" fill="#FFF2FA"/>
<path d="M74.8316 364.337L71.1292 364.837L61.0227 378.746L54.9188 377.145C54.9188 377.145 54.4185 378.746 50.4159 380.648C47.7142 381.948 42.711 387.852 43.2113 392.655C41.1099 391.855 40.0092 390.754 40.0092 390.754C40.0092 389.453 40.0092 388.052 40.3094 387.052C41.9104 381.148 48.3146 380.147 49.9156 379.047C51.8168 377.746 62.7238 363.036 62.7238 363.036C62.7238 363.036 61.6231 356.632 62.4236 356.332C62.7238 356.332 64.3248 356.332 66.126 356.632C67.2267 356.932 68.5275 356.932 69.8283 357.132L65.8258 359.234L65.3255 361.936L74.8316 364.337Z" fill="#DDBFD3"/>
<path d="M141.775 391.054C141.775 391.054 140.474 392.355 137.472 393.156C135.07 393.956 131.868 394.456 127.565 393.956C117.959 392.855 95.3447 385.451 95.3447 385.451C95.3447 385.451 95.0445 378.746 96.1452 376.945C96.1452 376.945 96.1452 369.741 97.246 363.837C97.5461 362.736 98.5468 361.936 99.6475 362.236L105.251 363.537C105.251 363.537 104.751 359.834 106.052 358.433C106.052 358.433 106.352 358.133 106.552 358.133C108.153 357.333 111.855 356.832 115.057 356.232C116.959 355.932 118.56 355.932 118.76 355.932C119.56 356.232 118.46 362.636 118.46 362.636C118.46 362.636 129.166 377.345 131.268 378.646C132.869 379.747 139.273 380.748 140.874 386.651C141.775 388.052 142.075 389.453 141.775 391.054Z" fill="#FFF2FA"/>
<path d="M137.472 393.156C135.07 393.956 131.868 394.456 127.565 393.956C117.959 392.855 95.3447 385.451 95.3447 385.451C95.3447 385.451 95.0445 378.746 96.1452 376.945C96.1452 376.945 96.1452 369.741 97.246 363.837C97.5461 362.736 98.5468 361.936 99.6475 362.236L105.251 363.537C105.251 363.537 104.751 359.834 106.052 358.433C106.052 358.433 106.352 358.133 106.552 358.133C107.052 359.734 108.153 362.436 108.653 362.636C109.454 363.136 117.959 362.636 117.959 362.636L109.954 364.737L111.855 367.939C111.855 367.939 114.757 365.538 119.36 365.038L127.065 375.744L120.161 379.247L123.363 382.449L130.267 379.547L125.464 383.249C125.464 383.249 128.366 389.353 135.571 388.553C136.171 388.853 137.272 391.054 137.472 393.156Z" fill="#DDBFD3"/>
<path d="M146.077 183.821C142.575 186.523 138.572 187.524 135.17 187.824C130.367 188.124 126.064 187.023 123.663 186.523C122.862 186.223 122.062 186.023 122.062 186.023C107.953 188.724 95.3447 189.525 84.7379 189.525C66.8264 189.525 54.3184 186.823 50.1157 185.823C49.015 185.522 48.2145 185.322 48.2145 185.322L51.4165 168.511C51.4165 168.511 43.7116 165.009 39.9092 153.302C36.2068 141.594 36.4069 104.47 39.6089 89.5608C42.811 74.6512 61.7231 67.4466 61.7231 67.4466L64.9252 64.2445C65.2254 61.843 66.0259 59.9418 66.5262 59.1413C66.8264 59.6416 66.8264 60.242 66.8264 60.7423C66.8264 60.7423 72.7302 73.8507 82.0362 74.6512C82.3364 74.6512 90.5416 72.5499 94.3441 60.242V59.9418C94.3441 59.9418 92.2427 59.1413 89.8412 53.8379C92.5429 54.1381 94.3441 54.9386 94.9445 55.1387C96.5455 56.4395 99.7476 62.0431 99.7476 62.0431C99.7476 62.0431 121.862 61.5428 128.566 80.7551C134.57 100.068 146.077 183.821 146.077 183.821Z" fill="#C3243A"/>
<path d="M127.065 153.402C126.565 159.806 121.962 184.021 121.762 185.622L115.658 156.504C115.658 156.504 114.857 160.206 107.953 161.007C101.048 161.807 77.8335 161.307 77.8335 161.307C77.8335 161.307 73.0304 172.814 65.8258 176.016C65.8258 176.016 70.3287 185.122 84.2376 188.825C66.3261 188.825 53.8181 186.123 49.6154 185.122C48.5146 184.822 47.7142 184.622 47.7142 184.622L50.9162 167.811C50.9162 167.811 43.2113 164.309 39.4089 152.601C35.7065 140.894 35.9066 103.77 39.1086 88.8603C42.3107 73.9508 61.2228 66.7461 61.2228 66.7461L64.4249 63.5441C64.7251 61.1425 65.5256 59.2413 66.0259 58.4408C66.3261 58.9411 66.3261 59.5415 66.3261 60.0418C66.3261 60.0418 72.2299 73.1502 81.5359 73.9507L94.3441 78.2535L84.7379 76.1522C81.2357 75.3517 77.8335 75.852 74.6314 77.2529L75.9323 98.0662L72.43 78.3536C72.43 78.3536 62.8239 78.3536 62.0233 85.5582L62.8238 136.191C62.8238 136.191 66.5263 135.09 68.9278 138.892L104.651 139.393L81.9361 141.494L65.1253 143.595C65.1253 143.595 68.3274 138.492 61.9233 137.692C52.6173 136.591 45.913 146.497 50.2158 155.003C51.0163 156.604 51.8168 157.905 53.1176 159.306C57.4204 164.409 65.4255 164.409 69.6282 159.306C73.1304 155.303 77.6334 149.399 81.9361 141.994L79.8348 156.404L112.656 151.1L104.951 141.194L109.754 132.688L107.052 109.173C107.052 109.173 99.8476 79.8545 99.0471 61.4427L107.352 65.7455L118.259 141.994L126.565 92.3626C126.865 92.8629 127.665 146.697 127.065 153.402Z" fill="#890421"/>
<path d="M122.562 217.643V226.749L121.461 337.12C119.86 338.22 118.259 339.221 116.358 339.821C111.555 341.422 106.252 341.723 101.449 341.122C93.4435 340.322 86.539 337.62 86.539 337.62C100.448 256.268 84.6378 209.037 84.6378 208.237C78.5339 236.555 84.938 332.817 84.938 332.817C83.0368 334.118 81.4357 335.218 79.8347 336.019C74.2311 339.221 69.4281 340.322 65.4255 340.822C57.4204 341.623 52.6172 338.42 52.6172 338.42L47.1137 206.736L49.5153 184.822C56.7199 186.723 84.1375 192.327 121.562 185.322L116.758 216.542L122.562 217.643Z" fill="#4C0900"/>
<path d="M90.3415 39.0283C90.3415 39.0283 90.8418 41.73 89.2408 43.0309C89.2408 43.0309 89.7411 45.7326 87.6397 48.1342C85.2382 42.0302 82.5365 34.0251 82.5365 34.0251C82.5365 34.0251 88.9406 35.1258 84.1375 25.2195C84.1375 25.2195 82.8367 30.0225 80.4352 27.1207C78.0336 24.2188 76.1324 16.4138 70.0285 16.714C70.0285 16.714 66.8264 19.6158 64.4249 16.4138C64.4249 16.4138 63.3242 18.5151 60.7225 18.5151C58.0208 18.5151 57.2203 16.6139 57.2203 16.6139C57.2203 16.6139 55.6192 20.3163 51.3164 19.0155C51.3164 19.0155 52.117 26.7204 47.3139 27.8211C47.3139 27.8211 50.516 31.0232 50.2158 35.3259L54.7187 42.5306C54.7187 42.5306 53.4178 44.9321 51.0163 44.4318C51.0163 44.4318 55.319 51.6364 57.7206 50.5357C60.1221 49.435 59.0214 47.0334 59.0214 47.0334C59.3216 47.3336 64.3248 51.3362 66.5262 57.7403C65.4255 58.0405 63.6244 58.5408 62.0233 56.9398C62.0233 56.9398 56.4197 57.7403 55.319 54.0379C55.319 54.0379 50.5159 54.0379 50.5159 50.0354C50.5159 50.0354 46.2132 49.2349 46.2132 46.5331C46.2132 46.5331 42.2106 45.7326 41.9104 42.5306C41.9104 42.5306 37.9079 40.129 38.7084 36.4266C38.7084 36.4266 34.7058 33.7249 36.607 29.5222C36.607 29.5222 34.5057 25.0193 38.5082 22.6178C38.5082 22.6178 36.607 16.714 40.1092 14.1123C40.1092 14.1123 40.9098 9.30925 46.2132 8.80893C46.2132 8.80893 47.3139 4.00583 53.9181 4.00583C53.9181 4.00583 56.0195 -1.09743 64.3248 0.303468C64.3248 0.303468 70.4287 -0.997386 73.1304 4.00583C73.1304 4.00583 79.5346 3.50552 81.4358 9.30925C81.4358 9.30925 87.0394 11.7108 87.0394 17.3144C87.0394 17.3144 90.7418 19.7159 89.9413 25.3195C89.9413 25.3195 92.3428 28.8218 90.7418 33.6248C90.5416 33.925 91.9425 36.0264 90.3415 39.0283Z" fill="#0F0100"/>
<path d="M94.044 59.5414C90.5417 72.0495 82.0363 74.2509 81.7361 74.2509C72.4301 73.7506 66.5263 60.342 66.5263 60.342C66.5263 59.8417 66.2261 59.2413 66.2261 58.7409C66.2261 58.4407 65.926 58.2406 65.926 57.9404C63.8246 51.2361 58.7213 47.2336 58.4212 47.2336C58.4212 47.2336 59.5218 49.9353 57.1203 50.7358C54.7187 51.8365 50.416 44.6319 50.416 44.6319C52.5174 45.1322 54.1183 42.7307 54.1183 42.7307L49.6154 35.526C49.9156 31.2233 46.7136 28.0212 46.7136 28.0212C51.5167 26.9205 50.7162 19.2156 50.7162 19.2156C55.019 20.5164 56.6199 16.814 56.6199 16.814C56.6199 16.814 57.4205 18.7152 60.1222 18.7152C62.8239 18.7152 63.8246 16.6139 63.8246 16.6139C66.5263 19.8159 69.4282 16.9141 69.4282 16.9141C75.5321 16.4138 77.4333 24.4189 79.8349 27.3208C82.2364 30.2226 83.5372 25.4195 83.5372 25.4195C88.6405 35.3259 81.9362 34.2252 81.9362 34.2252C81.9362 34.2252 84.638 41.9302 87.0395 48.3343C87.84 50.4356 88.6405 52.3368 89.1408 53.6377C89.6411 54.7384 89.9414 55.5389 90.4417 56.0392C92.7432 59.2412 94.044 59.5414 94.044 59.5414Z" fill="#FCB2A9"/>
<path d="M81.736 74.1509C72.43 73.6506 66.5262 60.242 66.5262 60.242C65.2254 52.2368 58.8213 47.1335 58.5211 46.9334C58.5211 46.9334 59.6218 49.6351 57.2202 50.4357C54.8187 51.5364 50.5159 44.3318 50.5159 44.3318C52.6173 44.8321 54.2183 42.4305 54.2183 42.4305L49.7154 35.2259C50.0156 30.9231 46.8135 27.7211 46.8135 27.7211C51.6166 26.6204 50.8161 18.9154 50.8161 18.9154C55.1189 20.2163 56.7199 16.5139 56.7199 16.5139C56.7199 16.5139 57.5204 18.4151 60.2222 18.4151C62.9239 18.4151 63.9246 16.3138 63.9246 16.3138C66.6263 19.5158 69.5281 16.614 69.5281 16.614C69.5281 16.9142 67.9271 20.1162 63.6243 19.5158C63.6243 19.5158 60.7225 21.9174 56.7199 20.3163C56.7199 20.3163 55.9194 22.2176 53.2177 22.7179C53.2177 22.7179 54.5185 25.4196 50.5159 28.6217C50.5159 28.6217 60.1221 51.5364 68.6275 50.5357C76.9329 49.435 81.4358 44.1316 81.4358 35.8263C81.4358 35.8263 83.337 44.1316 76.3325 50.5357C71.5294 54.8385 70.2286 61.7429 72.8302 67.3465C75.1317 70.7487 77.5333 73.3504 81.736 74.1509Z" fill="#EA7B73"/>
<path d="M94.0438 59.5414C90.5416 72.0495 82.0362 74.2509 81.736 74.2509C89.7411 67.8468 90.8418 58.2406 90.8418 56.1393C92.743 59.2413 94.0438 59.5414 94.0438 59.5414Z" fill="#EA7B73"/>
<path d="M94.0439 59.5415C94.0439 59.5415 91.9426 58.741 89.541 53.4376C92.2427 53.7378 94.0439 54.5383 94.6443 54.7384C94.5442 55.0386 94.8444 56.3394 94.0439 59.5415Z" fill="#0F0100"/>
<path d="M146.077 183.821C142.575 186.523 138.572 187.524 135.17 187.824C130.367 188.124 126.064 187.023 123.663 186.523C122.862 186.223 122.062 186.023 122.062 186.023L122.362 184.121C122.362 184.121 122.862 183.821 123.963 183.321C126.064 182.52 129.867 181.22 135.17 181.42C138.072 181.42 141.775 182.22 146.077 183.821Z" fill="#0F0100"/>
<path d="M135.671 219.044L122.062 217.743L118.059 217.443H116.959L121.762 186.223L122.062 184.322C122.062 184.322 122.562 184.021 123.663 183.521C125.764 182.721 129.567 181.42 134.87 181.62L135.17 188.024V191.226L135.671 219.044Z" fill="#FFF2FA"/>
<path d="M119.36 137.692L114.557 139.793L114.257 138.492L113.957 135.79L110.254 106.972C110.254 106.972 102.249 86.9591 99.3473 62.1432C99.3473 61.6428 99.8476 61.0424 100.448 61.0424L111.955 62.6435C113.556 62.9437 114.857 64.2445 115.157 65.8455C115.958 73.0502 117.859 92.5627 115.658 106.071L119.16 136.691L119.36 137.692Z" fill="#0F0100"/>
<path d="M81.2357 29.6223L82.3363 32.3241C82.3363 32.3241 85.8386 32.8244 84.2376 28.3215C84.1375 28.3215 83.337 31.2233 81.2357 29.6223Z" fill="#0F0100"/>
<path d="M54.8187 44.3318L57.5204 47.2336C57.5204 47.2336 58.321 49.6352 56.7199 50.1355C55.1189 50.6358 52.4172 45.8327 52.4172 45.8327C52.4172 45.8327 54.3184 45.9328 54.8187 44.3318Z" fill="#0F0100"/>
<path d="M49.5154 72.0495L59.6219 66.4459C60.4224 65.9456 61.2229 66.4459 61.5231 67.2465C63.1242 72.8501 67.9273 92.5627 64.2249 114.177L63.4244 136.591L59.4218 136.291C59.4218 136.291 61.0228 134.99 61.323 133.089C61.6232 131.187 59.2217 126.384 59.2217 126.384L59.5218 114.677C59.5218 114.677 57.4205 114.677 55.5193 104.771C53.9183 97.0656 49.6155 82.0559 47.8143 75.952C47.1139 74.4511 47.9144 72.85 49.5154 72.0495Z" fill="#0F0100"/>
<path d="M64.7251 172.614C64.7251 173.715 66.0259 174.215 66.8264 173.415C69.228 170.713 74.8316 163.808 79.3345 154.502C85.4384 142.495 82.5365 141.394 82.5365 141.394C82.5365 141.394 79.8348 150.7 74.0311 158.505C69.5282 164.909 64.7251 169.412 64.7251 172.614Z" fill="#0F0100"/>
<path d="M109.554 159.506C109.554 159.506 93.5436 161.107 74.1311 158.405L82.6366 141.294L84.5378 140.994L105.651 139.093C105.651 139.093 105.952 139.393 106.452 140.193C107.553 142.094 109.354 146.597 109.954 154.903C109.954 155.403 109.954 156.003 109.954 156.504C109.554 157.704 109.554 158.705 109.554 159.506Z" fill="#FFF2FA"/>
<path d="M125.464 150.2L125.164 150.5C125.164 150.5 125.464 152.401 121.962 154.002C118.46 155.603 116.058 153.202 116.058 153.202C116.058 153.202 113.657 154.803 109.354 155.103C108.853 146.797 106.952 142.295 105.852 140.393L107.453 140.093C107.453 140.093 107.753 137.692 113.857 135.59L114.157 138.292L114.457 139.593L119.26 137.491V136.391C119.56 136.391 119.761 136.391 120.061 136.391C122.162 136.891 125.364 143.095 125.664 143.896C125.664 144.696 125.364 145.196 125.364 145.196C125.364 145.196 125.864 146.497 125.664 147.298C125.464 147.498 126.265 149.099 125.464 150.2Z" fill="#FCB2A9"/>
<path d="M119.36 137.692L114.557 139.793L114.257 138.492C114.257 138.492 116.959 136.591 119.06 136.591L119.36 137.692Z" fill="#FCB2A9"/>
<path d="M131.368 218.443C130.867 220.545 129.467 222.946 127.365 224.848C121.762 229.15 114.257 222.146 118.86 222.946C122.562 223.747 123.963 219.444 124.463 217.843L131.368 218.443Z" fill="#FCB2A9"/>
<path d="M122.062 217.643C122.062 219.244 121.762 222.746 120.161 222.446C118.56 222.146 118.259 218.744 118.059 217.143L122.062 217.643Z" fill="#EA7B73"/>
<path d="M141.775 391.054C141.775 391.054 137.272 395.057 127.665 394.256C118.059 393.156 95.4448 385.751 95.4448 385.751C95.4448 385.751 95.1446 379.047 96.2453 377.245C96.2453 377.245 107.152 378.846 114.157 383.95C121.361 389.053 125.064 391.955 135.27 391.154L136.071 389.253C136.071 389.253 137.972 388.953 141.374 387.352C141.775 388.052 142.075 389.453 141.775 391.054Z" fill="#0F0100"/>
<path d="M108.153 387.052L100.448 384.95C99.6475 384.65 99.1472 383.85 99.1472 383.049C99.1472 381.748 100.248 380.948 101.549 381.148L109.254 383.249C110.054 383.549 110.555 384.35 110.555 385.15C110.555 386.451 109.254 387.252 108.153 387.052Z" fill="#EA7B73"/>
<path d="M116.158 339.821L115.658 356.632C112.156 357.133 107.653 357.933 106.852 358.734C105.551 360.034 106.052 363.837 106.052 363.837L100.448 362.536L101.549 341.422C106.352 341.723 111.655 341.723 116.158 339.821Z" fill="#0F0100"/>
<path d="M109.554 159.506C109.554 159.506 93.5436 161.107 74.1311 158.405L82.6366 141.294L84.5378 140.994C84.2376 143.095 83.7373 151.1 85.3383 154.302C86.6391 157.004 101.349 157.004 109.654 156.404C109.554 157.705 109.554 158.705 109.554 159.506Z" fill="#DDBFD3"/>
<path d="M125.264 150.5C125.264 150.5 125.564 152.401 122.062 154.002C118.56 155.603 116.158 153.202 116.158 153.202C116.158 153.202 113.757 154.803 109.454 155.103C108.954 146.797 107.052 142.295 105.952 140.393L107.553 140.093C107.553 140.093 107.853 137.692 113.957 135.59L114.257 138.292L112.656 139.593C110.755 140.894 109.954 143.095 110.254 145.497C110.555 146.297 110.555 147.398 110.755 148.399C111.055 150.5 113.156 151.901 115.258 151.3L116.558 151C116.458 151 121.462 155.503 125.264 150.5Z" fill="#EA7B73"/>
<path d="M125.464 150.2L125.164 150.5L125.464 150.2Z" fill="#DDBFD3"/>
<path d="M135.671 219.044L122.062 217.743L116.959 217.243L121.762 186.023L122.062 184.121C122.062 184.121 122.562 183.821 123.663 183.321C125.764 182.52 129.567 181.22 134.87 181.42L135.17 187.824C130.367 185.422 124.463 188.925 124.263 194.528L123.763 204.635C123.463 209.938 126.465 214.741 130.968 216.943L135.671 219.044Z" fill="#DDBFD3"/>
<path d="M111.355 369.641C111.055 369.34 111.055 368.84 111.355 368.54C112.656 367.239 116.158 364.537 121.762 364.837C122.262 364.837 122.562 365.338 122.562 365.638C122.562 365.938 122.262 366.438 121.762 366.438C116.658 366.138 113.456 368.54 112.456 369.641C112.156 369.941 111.655 369.941 111.355 369.641Z" fill="#0F0100"/>
<path d="M113.256 372.042C112.956 371.742 112.956 371.242 113.256 370.941C114.557 369.641 118.059 366.939 123.663 367.239C124.163 367.239 124.463 367.739 124.463 368.04C124.463 368.34 124.163 368.84 123.663 368.84C118.56 368.54 115.358 370.941 114.357 372.042C113.757 372.342 113.456 372.342 113.256 372.042Z" fill="#0F0100"/>
<path d="M114.857 374.244C114.557 373.943 114.557 373.443 114.857 373.143C116.158 371.842 119.66 369.14 125.264 369.44C125.764 369.44 126.064 369.941 126.064 370.241C126.064 370.741 125.764 371.041 125.264 371.041C120.161 370.741 116.959 373.143 115.958 374.244C115.658 374.444 115.057 374.444 114.857 374.244Z" fill="#0F0100"/>
<path d="M116.658 376.645C116.358 376.345 116.358 375.845 116.658 375.544C117.959 374.243 121.461 371.542 127.065 371.842C127.565 371.842 127.866 372.342 127.866 372.642C127.866 373.143 127.565 373.443 127.065 373.443C121.962 373.143 118.76 375.544 117.759 376.645C117.259 376.845 116.959 376.845 116.658 376.645Z" fill="#0F0100"/>
<path d="M118.259 379.047C117.959 378.746 117.959 378.246 118.259 377.946C119.56 376.645 123.062 373.943 128.666 374.244C129.166 374.244 129.467 374.744 129.467 375.044C129.467 375.544 129.166 375.845 128.666 375.845C123.563 375.544 120.361 377.946 119.36 379.047C119.06 379.247 118.56 379.247 118.259 379.047Z" fill="#0F0100"/>
<path d="M40.2094 391.054C40.2094 391.054 44.7122 395.057 54.3184 394.256C63.9245 393.156 86.5391 385.751 86.5391 385.751C86.5391 385.751 86.8393 379.047 85.7386 377.245C85.7386 377.245 74.8316 378.846 67.8271 383.95C60.6224 389.053 56.9201 391.955 46.7135 391.154L45.913 389.253C45.913 389.253 44.0118 388.953 40.6096 387.352C40.2093 388.052 40.2094 389.453 40.2094 391.054Z" fill="#0F0100"/>
<path d="M74.031 387.052L81.736 384.95C82.5365 384.65 83.0368 383.85 83.0368 383.049C83.0368 381.748 81.9361 380.948 80.6352 381.148L72.9303 383.249C72.1298 383.549 71.6295 384.35 71.6295 385.15C71.6295 386.451 72.7302 387.252 74.031 387.052Z" fill="#EA7B73"/>
<path d="M76.1324 363.837C76.1324 363.837 76.6327 360.134 75.3319 358.734C74.5313 357.933 69.7283 356.832 66.5262 356.632L65.4255 341.122C69.4281 340.822 74.2312 339.521 79.8347 336.319L81.736 362.236L76.1324 363.837Z" fill="#0F0100"/>
<path d="M70.5288 369.641C70.829 369.34 70.829 368.84 70.5288 368.54C69.228 367.239 65.7257 364.537 60.1221 364.837C59.6218 364.837 59.3216 365.338 59.3216 365.638C59.3216 365.938 59.6218 366.438 60.1221 366.438C65.2254 366.138 68.4275 368.54 69.4281 369.641C70.0285 369.941 70.3287 369.941 70.5288 369.641Z" fill="#0F0100"/>
<path d="M68.9278 372.042C69.228 371.742 69.228 371.242 68.9278 370.941C67.627 369.641 64.1247 366.939 58.5211 367.239C58.0208 367.239 57.7206 367.739 57.7206 368.04C57.7206 368.34 58.0208 368.84 58.5211 368.84C63.6244 368.54 66.8264 370.941 67.827 372.042C68.1272 372.342 68.7277 372.342 68.9278 372.042Z" fill="#0F0100"/>
<path d="M67.3268 374.243C67.627 373.943 67.627 373.443 67.3268 373.143C66.026 371.842 62.5238 369.14 56.9202 369.44C56.4199 369.44 56.1196 369.941 56.1196 370.241C56.1196 370.741 56.4199 371.041 56.9202 371.041C62.0235 370.741 65.2255 373.143 66.2262 374.243C66.5263 374.444 66.8265 374.444 67.3268 374.243Z" fill="#0F0100"/>
<path d="M65.5257 376.645C65.8259 376.345 65.8259 375.845 65.5257 375.544C64.2249 374.244 60.7226 371.542 55.119 371.842C54.6187 371.842 54.3185 372.342 54.3185 372.642C54.3185 373.143 54.6187 373.443 55.119 373.443C60.2223 373.143 63.4244 375.544 64.425 376.645C64.7252 376.845 65.2255 376.845 65.5257 376.645Z" fill="#0F0100"/>
<path d="M63.9246 379.047C64.2247 378.746 64.2247 378.246 63.9246 377.946C62.6237 376.645 59.1214 373.943 53.5178 374.244C53.0175 374.244 52.7173 374.744 52.7173 375.044C52.7173 375.544 53.0175 375.845 53.5178 375.845C58.6211 375.544 61.8232 377.946 62.8238 379.047C63.124 379.247 63.3242 379.247 63.9246 379.047Z" fill="#0F0100"/>
<path d="M118.059 281.384L115.958 279.483L113.857 290.99C113.857 290.99 103.75 283.485 101.549 280.884L101.048 278.482C101.048 278.482 98.1465 277.181 96.7456 275.58C96.7456 275.58 98.6468 276.881 101.849 276.881C101.849 276.881 99.1471 275.78 97.5461 273.179C97.5461 273.179 101.549 275.08 106.352 275.08L104.751 273.179L108.253 275.08C108.253 275.08 112.556 275.58 118.159 272.178C118.059 271.778 119.66 277.681 118.059 281.384Z" fill="#FCB2A9"/>
<path d="M118.059 271.778C112.456 275.28 108.153 274.68 108.153 274.68L104.651 272.778L106.252 274.68C101.449 274.68 97.4462 272.778 97.4462 272.778C99.0472 275.48 101.749 276.481 101.749 276.481C98.8471 276.481 96.9458 275.18 96.6456 275.18C97.9465 276.781 100.948 278.082 100.948 278.082L101.449 280.483C103.55 283.185 113.757 290.59 113.757 290.59L115.858 279.082L117.959 280.984C119.66 277.682 118.059 271.778 118.059 271.778ZM117.459 279.283L114.757 277.682L112.856 288.088L103.75 280.583L103.25 276.08C109.154 277.381 114.757 275.28 117.659 274.179C117.759 276.581 117.459 279.283 117.459 279.283Z" fill="#EA7B73"/>
<path d="M122.562 217.643V226.749L113.256 227.85L116.758 225.748C116.758 225.748 114.057 219.044 114.657 214.241V213.941C115.458 203.834 107.453 195.028 97.346 195.529C90.1414 195.829 82.1363 195.529 75.2318 193.928L80.8354 207.837L73.1305 194.528L56.82 193.728L59.2216 206.036L55.7193 199.131C55.7193 199.131 62.4236 332.517 62.4236 335.118C62.4236 337.82 70.7289 339.921 85.3383 333.517C83.4371 334.818 81.8361 335.919 80.2351 336.719C74.6315 339.921 69.8284 341.022 65.8258 341.523C57.8206 342.323 53.0176 339.121 53.0176 339.121L47.414 207.336L49.8155 185.422C57.0201 187.324 84.4377 192.927 121.862 185.923L117.059 217.143L122.562 217.643Z" fill="#2D0400"/>
<path d="M121.462 337.12C119.861 338.22 118.26 339.221 116.358 339.821C111.555 341.422 106.252 341.723 101.449 341.122C93.4436 340.322 86.5392 337.62 86.5392 337.62C100.448 256.268 84.6379 209.037 84.6379 208.237C84.9381 208.737 102.549 252.765 96.9459 316.807C95.8452 329.114 106.552 339.221 118.56 337.32C119.36 337.42 120.461 337.42 121.462 337.12Z" fill="#2D0400"/>
<path d="M101.933 121.631C103.014 113.468 97.2718 105.974 89.1083 104.894C80.9448 103.813 73.4511 109.555 72.3708 117.719C71.2905 125.882 77.0325 133.376 85.196 134.456C93.3595 135.537 100.853 129.795 101.933 121.631Z" fill="#FFF2FA"/>
<path d="M115.858 108.573L110.755 109.073C109.454 109.373 108.353 108.273 108.353 106.972C108.053 105.671 109.154 104.57 110.454 104.57L115.558 104.07C116.859 103.77 117.959 104.871 117.959 106.171C118.059 107.572 116.959 108.573 115.858 108.573Z" fill="#0F0100"/>
<path d="M64.425 116.878L59.3217 117.379C58.0209 117.679 56.9202 116.578 56.9202 115.277C56.62 113.976 57.7207 112.876 59.0215 112.876L64.1248 112.375C65.4256 112.075 66.5263 113.176 66.5263 114.477C66.5263 115.778 65.7258 116.878 64.425 116.878Z" fill="#0F0100"/>
<path d="M111.355 68.3472L104.951 67.8469C104.451 67.8469 103.85 67.3465 103.85 66.546C103.85 66.0457 104.35 65.4453 105.151 65.4453L111.555 65.9456C112.055 65.9456 112.656 66.446 112.656 67.2465C112.456 68.047 111.855 68.5473 111.355 68.3472Z" fill="#FFF2FA"/>
<path d="M110.354 184.322C111.955 184.021 114.057 184.021 115.958 183.521C117.059 183.221 117.859 182.22 117.559 181.119V180.819C117.259 179.719 116.458 179.218 115.458 179.218L109.854 180.019C108.753 180.319 107.953 181.119 108.253 182.12C108.453 183.821 109.554 184.622 110.354 184.322Z" fill="#FFF2FA"/>
<path d="M81.5359 119.28C83.3043 119.28 84.7379 117.846 84.7379 116.078C84.7379 114.309 83.3043 112.876 81.5359 112.876C79.7674 112.876 78.3338 114.309 78.3338 116.078C78.3338 117.846 79.7674 119.28 81.5359 119.28Z" fill="#0F0100"/>
<path d="M92.4429 118.179C94.2113 118.179 95.6449 116.746 95.6449 114.977C95.6449 113.209 94.2113 111.775 92.4429 111.775C90.6744 111.775 89.2408 113.209 89.2408 114.977C89.2408 116.746 90.6744 118.179 92.4429 118.179Z" fill="#0F0100"/>
<path d="M87.6398 130.987C84.4377 130.987 82.0362 128.586 82.0362 125.384C82.0362 122.182 84.4377 119.78 87.6398 119.78C90.8418 119.78 93.2434 122.182 93.2434 125.384C93.2434 128.586 90.8418 130.987 87.6398 130.987ZM87.6398 120.881C85.2382 120.881 83.1369 122.982 83.1369 125.384C83.1369 127.785 85.2382 129.887 87.6398 129.887C90.0413 129.887 92.1427 127.785 92.1427 125.384C92.1427 122.782 90.0413 120.881 87.6398 120.881Z" fill="#0F0100"/>
</svg>
