<svg width="49" height="48" viewBox="0 0 49 48" fill="none" xmlns="http://www.w3.org/2000/svg">
<path d="M24.5 47.25C31.1647 47.25 36.5676 41.9442 36.5676 35.3992C36.5676 28.8542 31.1647 23.5484 24.5 23.5484C17.8352 23.5484 12.4324 28.8542 12.4324 35.3992C12.4324 41.9442 17.8352 47.25 24.5 47.25Z" stroke="black" stroke-miterlimit="10"/>
<path d="M19.4778 42.9504L21.3928 37.2057L16.3706 33.6288H22.5851L24.5 27.884L26.3788 33.6288H32.5932L27.5711 37.2057L29.486 42.9504L24.5 39.3735L19.4778 42.9504Z" stroke="black" stroke-miterlimit="10"/>
<path d="M20.8147 3.64044V20.6941L15.1422 10.3246V0.75H33.8217V10.3246L28.1492 20.6941V3.64044" stroke="black" stroke-miterlimit="10"/>
<path d="M24.4277 21.7779V11.7697" stroke="black" stroke-miterlimit="10"/>
<path d="M24.4277 9.27669V6.71143" stroke="black" stroke-miterlimit="10"/>
</svg>
