<svg width="120" height="120" viewBox="0 0 120 120" fill="none" xmlns="http://www.w3.org/2000/svg">
<mask id="mask0_467_19172" style="mask-type:alpha" maskUnits="userSpaceOnUse" x="0" y="0" width="120" height="120">
<circle cx="60" cy="60" r="60" fill="#C4C4C4"/>
</mask>
<g mask="url(#mask0_467_19172)">
<path d="M184.5 -53.2498H-277.687V391.875H184.5V-53.2498Z" fill="white"/>
<path d="M69.5625 55.4996C68.4375 53.4371 67.125 51.3746 65.8125 49.8746C64.5 48.3746 63 46.8746 61.5 45.5621C58.6875 43.3121 55.6875 41.8121 52.6875 40.4996C51.375 39.9371 50.25 39.7497 49.125 39.1872C48.9375 39.1872 48.375 38.9996 48 38.9996C35.8125 35.6246 24 38.2497 24 38.2497C24.1875 37.6872 27.375 28.6872 29.0625 26.0622C30.75 23.2497 33.1875 23.8121 33.1875 23.8121C33.1875 23.8121 40.5 15.9371 55.3125 20.2496C56.0625 20.4371 57 20.8121 57.75 20.9996C70.125 26.0621 70.875 38.8121 70.875 38.8121C75.1875 41.8121 69.5625 55.4996 69.5625 55.4996Z" fill="#C3243A"/>
<path d="M48.75 39.0005C48.5625 39.0005 48 39.0006 47.625 38.8131C35.4375 35.4381 23.6249 38.063 23.6249 38.063C23.8124 37.5005 27 28.5005 28.6875 25.8755C30.375 23.063 32.8125 23.6255 32.8125 23.6255C32.8125 23.6255 40.125 15.7506 54.9375 20.0631C55.6875 20.2506 56.6249 20.6255 57.3749 20.813C52.6874 20.2505 47.0625 20.813 44.625 24.563C44.625 24.563 58.875 27.5631 70.6875 38.2506C70.5 38.0631 64.875 34.6881 56.8125 31.6881C52.3125 30.3756 47.8125 34.5005 48.75 39.0005Z" fill="#890421"/>
<path d="M65.8125 49.8755C63.375 51.188 58.3126 52.1255 52.5001 53.2505C48.7501 51.7505 43.8751 50.438 38.2501 49.8755C35.2501 49.688 32.25 49.313 28.6875 49.688C28.6875 49.688 26.25 49.5005 22.6875 49.1255C22.5 46.313 22.5001 42.563 23.8126 38.438C23.8126 38.438 35.6251 36.0005 47.8126 39.188C49.3126 39.7505 51.1876 40.313 52.5001 40.688C55.5001 42.0005 58.5001 43.5005 61.3126 45.7505C63.0001 46.8755 64.5 48.188 65.8125 49.8755Z" fill="#0F0100"/>
<path d="M69.5625 55.4999C69.5625 55.4999 67.3125 58.5 64.3125 59.8125C63 58.6875 58.6875 55.3125 51 52.5C47.4375 51.1875 43.5001 50.25 38.2501 49.6875C39.0001 47.4375 40.5001 43.6874 43.8751 43.3124C43.8751 43.3124 45.0001 39.9375 47.6251 38.8125C48.3751 38.625 49.125 38.25 50.0625 38.25C51.375 38.25 52.1251 39 52.3126 40.3125C53.6251 43.6875 52.125 50.25 51.75 50.4375C51.9375 50.4375 57.75 46.6875 61.125 45.75C64.5 48.1875 67.3125 51.1874 69.5625 55.4999Z" fill="#FCB2A9"/>
<path d="M69.5625 55.5004C69.5625 55.5004 67.875 53.4379 65.25 51.1879C62.25 48.9379 58.3125 48.3755 54.9375 50.063L50.8125 52.1254C47.25 50.8129 43.3125 49.8754 38.0625 49.3129C38.8125 47.0629 40.3125 43.313 43.6875 42.938C43.6875 42.938 44.8125 39.563 47.4375 38.438C48.1875 38.2505 48.9375 37.8755 49.875 37.8755C51.1875 37.8755 51.9375 38.6254 52.125 39.9379C53.4375 43.3129 51.9375 49.8755 51.5625 50.063C51.75 50.063 57.5625 46.313 60.9375 45.3755C64.5 48.188 67.3125 51.1879 69.5625 55.5004Z" fill="#EA7B73"/>
<path d="M60.375 42.7504C60.375 42.7504 66.375 46.5005 69 52.313C69 52.313 70.125 49.313 70.3125 47.2505C70.5 45.188 61.5 40.688 61.5 40.688L60.375 42.7504Z" fill="#FFF2FA"/>
<path d="M56.8124 60.188C56.8124 60.188 60.1875 55.8756 55.3125 51.0006C51.1875 46.8756 51.5625 38.063 47.25 34.8755C46.125 34.1255 45 34.6881 44.8125 36.0006C44.8125 37.3131 44.0625 38.4381 42 38.4381C39 38.2506 37.875 28.3131 34.125 23.4381C32.8125 21.9381 30.375 22.8755 30.75 24.938C30.9375 26.6255 30.9375 28.6881 30 29.4381C27.75 31.1256 26.4374 23.4381 22.1249 25.6881C17.8124 27.9381 7.50001 27.9381 3.56251 17.8131C-0.18749 7.68805 5.81248 6.00053 11.625 6.18803C17.25 6.37553 24.3749 -2.62449 16.1249 -8.24949C14.9999 -8.81199 14.0625 -8.24943 13.875 -7.12443C13.875 -5.99943 13.3125 -5.06195 12.5625 -4.68695C10.5 -3.93695 9.56242 -18.3745 19.8749 -13.4995C30.1874 -8.81197 39.9374 -14.0619 34.3124 -20.6244C28.6874 -27.1869 17.4374 -15.5619 5.81242 -22.1244C-6.00008 -28.4994 -20.8126 -21.3744 -12.0001 -14.2494C-3.37508 -7.1244 -2.43758 -1.49943 -9.18758 -2.43693C-15.9376 -3.37443 -17.0626 -0.186926 -12.9376 4.12557C-8.81258 8.43808 -7.87503 11.6255 -11.25 12.7505C-14.25 13.8755 -21.5626 2.4381 -27.0001 5.4381C-32.6251 8.4381 -19.8751 34.5006 -4.50008 33.5631C10.8749 32.4381 12.9374 37.1256 7.68742 39.3756C2.43742 41.6255 -2.43758 35.2506 -5.43758 39.3756C-8.43758 43.5005 9.56242 51.563 17.0624 44.6255C24.1874 38.6255 30.9374 37.6881 37.1249 41.6256C37.8749 42.1881 37.6875 43.1255 36.9375 43.313C36.375 43.5005 35.8125 43.8755 35.4375 44.063C34.125 44.813 34.6874 46.5005 36.1874 46.8755C40.6874 47.063 48.3749 48.0005 52.1249 50.6255C57.9374 55.688 56.8124 60.188 56.8124 60.188Z" fill="#FFF2FA"/>
<path d="M27.1876 -25.4997C27.1876 -25.4997 17.0626 -18.9372 4.12509 -26.8122C-8.81241 -34.6872 -24 -23.9997 -15.375 -11.8122C-6.74996 0.375324 -27.5624 -7.31215 -26.4374 -25.4997C-25.3124 -44.0622 -3.18748 -30.5622 -2.62498 -37.1247C-2.06248 -44.0622 3.93754 -38.4372 3.37504 -34.6872C2.81254 -31.1247 12.3751 -20.6247 27.1876 -25.4997Z" fill="#FFF2FA"/>
<path d="M5.81244 13.6873C5.81244 13.6873 9.56248 28.6873 22.5 23.0623C22.5 23.2498 11.9999 23.8123 5.81244 13.6873Z" fill="#FFF2FA"/>
<path d="M51.75 163.688C51.5625 165.938 50.4375 166.688 49.6875 167.25C48.5625 167.438 47.4375 167.063 47.4375 167.063C47.4375 167.063 46.875 173.626 44.625 172.313C42.5625 171.001 44.4375 162.75 44.4375 162.75C40.3125 162 37.125 152.813 37.125 152.813C33.375 151.5 29.625 146.25 29.625 146.25L-5.24997 127.125C-1.49997 124.125 2.99996 120.188 7.68746 115.688L11.8125 119.063L39.1876 142.313C39.1876 142.313 46.5 144.563 49.125 146.625C51.375 148.313 52.6875 158.25 51.75 163.688Z" fill="#FCB2A9"/>
<path d="M64.6875 60.0007L63 61.6883L42.75 81.9383L35.8125 79.5008C34.3125 82.3133 32.4375 85.1257 30.75 87.7507C23.4375 98.6257 15.375 107.813 7.68745 115.126C3.37495 119.251 -0.374954 122.438 -3.93745 125.251C-4.49995 125.438 -5.06248 126.001 -5.24998 126.376C-11.8125 131.626 -16.3125 134.438 -16.3125 134.438L-21.5625 144.001L-27.9375 155.626L-38.25 159.751C-38.25 159.751 -39 133.688 -46.875 130.876C-54.75 128.063 -77.8125 128.063 -77.8125 128.063C-65.625 106.313 -10.5 53.8132 1.875 50.8132C9.1875 48.7507 17.25 48.7508 22.6875 49.1258C26.4375 49.3133 28.6875 49.6882 28.6875 49.6882C32.25 49.6882 35.25 49.6882 38.25 49.8757C43.875 50.4382 48.5625 51.5633 52.5 53.2508C59.625 55.8758 63.5625 59.0632 64.6875 60.0007Z" fill="#C3243A"/>
<path d="M107.812 85.3123C107.812 85.3123 108.375 88.6873 106.688 89.0623C105.188 89.2498 104.625 88.3122 104.625 88.3122C104.625 88.3122 104.813 89.4373 102.938 89.8123C100.875 90.3748 100.125 81.9373 100.125 81.9373C100.125 81.9373 99 83.4373 95.625 84.3748C94.5 84.5623 93.3749 84.9373 92.0624 85.1248C86.2499 86.2498 55.875 78.5623 48.1875 76.4998L63.1875 61.4998L66.5625 62.2498L84.5624 66.9373C84.5624 66.9373 90.375 64.8748 94.125 64.4998C97.875 63.9373 107.437 63.9373 110.25 73.8748C110.437 74.6248 110.437 75.1873 110.812 75.5623C112.125 84.3748 108.75 85.3123 107.812 85.3123Z" fill="#FCB2A9"/>
<path d="M64.6876 60.0002L62.2501 62.0627C49.8751 72.0002 33.7501 74.8127 18.7501 69.9377L3.37503 64.8752L36.3751 79.3127L43.3125 81.7502L64.6876 60.0002Z" fill="#890421"/>
<path d="M43.6875 53.0633C43.6875 53.0633 12.5625 50.2508 -0.562469 58.8758C-7.12497 63.3758 -20.25 76.8758 -31.5 88.6883C-36.75 94.5008 -30.75 103.313 -23.4375 100.876L-1.68754 92.8133L-39.375 110.626C-42.375 112.126 -43.6875 115.876 -41.625 118.688C-39.9375 121.126 -38.25 124.688 -37.875 129.751L-35.8124 113.626C-35.8124 113.626 -34.3125 131.063 -35.625 148.126C-35.8125 152.251 -32.625 155.626 -28.5 155.438L-38.8125 159.563C-38.8125 159.563 -39.5625 133.501 -47.4375 130.688C-55.3125 127.876 -78.375 127.876 -78.375 127.876C-66.1875 106.126 -11.0625 53.6258 1.31253 50.6258C8.62503 48.5633 16.6875 48.5632 22.125 48.9382C25.875 49.1257 28.125 49.5008 28.125 49.5008L43.6875 53.0633Z" fill="#890421"/>
<path d="M107.813 85.3128C107.813 85.3128 108.375 88.6878 106.688 89.0628C105.188 89.2503 104.625 88.3128 104.625 88.3128C104.625 88.3128 104.813 89.4378 102.938 89.8128C100.875 90.3753 100.125 81.9378 100.125 81.9378C100.125 81.9378 103.125 76.8753 103.875 76.1253C104.438 75.5628 108.375 73.6878 110.438 76.1253C112.125 84.3753 108.75 85.3128 107.813 85.3128Z" fill="#EA7B73"/>
<path d="M95.4375 84.5624C94.3125 84.7499 93.1875 85.125 91.875 85.3125C86.0625 86.4375 55.6874 78.75 47.9999 76.6875L62.9999 61.6875L66.375 62.4374L64.125 66.7499C62.0625 70.4999 63.9375 75 67.875 76.6875C76.125 79.6875 89.25 84.3749 95.4375 84.5624Z" fill="#EA7B73"/>
<path d="M37.125 152.438C33.375 151.125 29.625 145.875 29.625 145.875L-5.24994 126.75C-1.49994 123.75 2.99999 119.813 7.68749 115.313L11.8125 118.688C11.0625 119.813 10.125 120.938 9.00002 122.25C6.93752 124.688 7.50004 128.625 10.3125 130.5L31.125 144.188C30.75 144 33.375 149.438 37.125 152.438Z" fill="#EA7B73"/>
<path d="M30.5625 87.7499C30 88.8749 29.25 89.4374 28.5 90.5624C21.5625 100.125 14.25 108.563 7.12498 115.125C3.74998 118.125 0.750053 120.937 -2.06245 123.187C-2.81245 123.937 -3.75004 124.687 -4.50004 125.25L-11.8125 121.125C6.00003 104.437 19.875 82.3125 19.875 82.3125L30.5625 87.7499Z" fill="#F4B95B"/>
<path d="M28.8751 90.5629C21.9376 100.125 14.625 108.563 7.50002 115.126C4.12502 118.126 1.12497 120.938 -1.68753 123.188L-5.81244 120.938L-2.06244 121.688L4.50006 109.501L3.37499 115.875C3.37499 115.875 15.7501 102.938 22.3126 94.3129C23.6251 92.8129 23.4375 90.188 21.75 89.063L19.6875 87.563L28.8751 90.5629Z" fill="#0F0100"/>
</g>
</svg>
