<svg width="120" height="120" viewBox="0 0 120 120" fill="none" xmlns="http://www.w3.org/2000/svg">
<mask id="mask0_467_19161" style="mask-type:alpha" maskUnits="userSpaceOnUse" x="0" y="0" width="120" height="120">
<circle cx="60" cy="60" r="60" fill="#C4C4C4"/>
</mask>
<g mask="url(#mask0_467_19161)">
<path d="M263.625 -52.125H-147.375V606.75H263.625V-52.125Z" fill="white"/>
<path d="M122.25 141.562L111.188 145.5L104.437 148.125L101.813 149.25V204C101.813 204 98.9999 204 94.1249 203.437C89.9999 203.25 84.375 202.687 78 201.562C75.9375 201.375 73.875 200.812 71.4375 200.25C55.875 197.062 37.6876 191.062 25.8751 180C24.1876 178.687 23.0625 177.187 21.75 175.5L23.625 171.375L25.8751 165.187L23.625 162.937L29.25 138.187L20.625 135.375L6.5625 130.687L7.87491 126.187L22.1251 80.6248C24.0001 74.9998 28.5001 70.8748 34.3126 69.9373L39.9376 68.8123L44.4374 68.0623L47.2499 67.4998L50.9999 63.5623V64.8748L49.6875 66.5623C49.6875 66.5623 50.4375 74.4373 63.75 76.1248C77.25 77.8123 81.75 70.3123 81.75 70.3123L80.625 69.7498L78.75 68.9998L82.1251 68.4373L93.1874 73.1248C97.3124 74.9998 100.5 78.3748 102.188 82.6873L121.125 137.437L122.25 141.562Z" fill="#F9D8AD"/>
<path d="M86.8124 113.25C86.8124 124.125 79.1249 132.938 68.9999 135C67.6874 135.188 65.9998 135.563 64.4998 135.563C62.0623 135.563 59.9998 135.375 57.9373 134.438C48.9373 131.438 42.3748 123.375 42.3748 113.25C42.3748 107.625 44.4373 102.75 47.6248 98.6251C48.9373 96.9376 50.8123 95.4376 52.6873 94.5001C56.0623 92.4376 60.1873 91.1251 64.6873 91.1251C77.0623 90.9376 86.8124 101.063 86.8124 113.25Z" fill="#F73C4F"/>
<path d="M122.812 141.562L111.562 145.687L104.813 148.312L101.813 149.25V182.812L94.3126 195.562L72.1875 134.25L93.3751 136.312L95.4375 82.6873L97.5 129L104.25 142.875L121.125 137.062L122.812 141.562Z" fill="#E8B374"/>
<path d="M52.8749 94.4998C50.9999 95.6248 49.5 97.1248 47.8125 98.6248L39.0001 68.0623L43.4999 67.3123L52.8749 94.4998Z" fill="#E8B374"/>
<path d="M68.9999 135C67.6874 135.187 65.9999 135.562 64.4999 135.562C62.0624 135.562 59.9999 135.375 57.9374 134.437V134.25L47.6249 98.9998C48.9374 97.3123 50.8123 95.8123 52.6873 94.8748L59.2498 114L68.9999 135Z" fill="#DD2641"/>
<path d="M76.3124 42.9375C76.3124 45 74.625 46.875 72.1875 47.4375C72 48.75 71.6251 49.875 71.0626 50.8125C70.5001 51.75 69.9376 52.875 69.1876 53.8125C69.0001 54 68.6251 54.5625 68.0626 54.9375C67.8751 55.125 67.875 55.125 67.5 55.5C65.0625 57.5625 62.0626 58.6875 58.6876 58.6875C57.3751 58.6875 56.0625 58.5 54.5625 58.125C52.5 57.5625 50.4374 56.25 49.1249 54.9375C47.2499 53.0625 45.9374 50.4375 45.3749 47.8125C42.9374 47.8125 40.8751 45.9375 40.8751 43.3125C40.8751 42 41.4375 40.875 42.1875 40.125C42.9375 39.375 44.0625 39 45.1875 39V32.625C45.1875 27.75 49.1251 23.8125 54.0001 23.8125H63.1874C65.2499 23.8125 67.3125 24.5625 68.625 25.6875C70.6875 27.375 72.1875 29.625 72.1875 32.625V39C72.9375 39.1875 73.875 39.5625 74.25 40.125C75.75 40.5 76.3124 41.625 76.3124 42.9375Z" fill="#FF8F6A"/>
<path d="M81.3751 69.5625C81.3751 69.5625 78.3749 74.625 69.7499 75.375C67.8749 75.5625 65.8126 75.5625 63.3751 75.375C49.8751 73.6875 49.3126 65.8125 49.3126 65.8125L50.625 64.125V62.8125L49.5001 54C50.6251 55.125 51.9376 56.0625 53.2501 56.625C53.8126 56.8125 54.3751 57.1875 54.9376 57.1875C56.2501 57.75 57.5626 57.75 58.8751 57.75C62.0626 57.75 65.25 56.4375 67.6875 54.5625C68.25 54 68.8125 53.4375 69.375 52.875L70.5 59.25C71.0625 62.4375 73.125 65.4375 76.125 66.75L79.1249 68.0625L80.9999 68.8125L81.3751 69.5625Z" fill="#FF8F6A"/>
<path d="M78.75 18.7498L74.4374 39.1873C73.8749 38.6248 73.125 38.0623 72.375 38.0623V31.6873C72.375 28.6873 71.0624 26.4373 68.8124 24.7498C67.1249 23.6248 65.2501 22.8748 63.3751 22.8748H54.1876C49.3126 22.8748 45.3749 26.8123 45.3749 31.6873V38.0623C44.2499 38.0623 43.3125 38.6248 42.375 39.1873L37.8749 21.1873C37.8749 21.1873 43.3124 11.4373 54.7499 10.6873C66.1874 9.93732 69.0001 16.3123 69.0001 16.3123C75.1876 14.8123 78.75 18.7498 78.75 18.7498Z" fill="#231F20"/>
<path d="M121.875 185.062C121.875 185.062 119.812 190.125 115.687 195.938C113.062 199.875 109.312 204 105.187 207C102 209.062 98.6249 210.938 94.3124 211.5L77.6249 201.75L77.4374 201.562L76.1248 195.375L71.9999 176.625L61.8748 133.125L39.1874 68.25L40.8749 68.0625L47.0623 66.9375L69.5623 128.438C69.5623 128.438 74.8124 138 82.3124 137.625C89.8124 137.625 102.75 139.688 102.75 139.688L103.5 143.063L104.625 147.562L108 162.375L114.562 172.5L121.875 185.062Z" fill="#4C9CA3"/>
<path d="M69.7499 75.375C67.8749 75.5625 65.8126 75.5625 63.3751 75.375C49.8751 73.6875 49.3126 65.8125 49.3126 65.8125L50.625 64.125V62.8125L49.5001 54C50.6251 55.125 51.9376 56.0625 53.2501 56.625L55.1251 69.375C54.9376 69.5625 58.6874 74.4375 69.7499 75.375Z" fill="#F05E2B"/>
<path d="M67.8747 54C67.6872 54.1875 67.6874 54.1875 67.3124 54.5625C64.8749 56.625 62.0622 57.75 58.4997 57.75C57.1872 57.75 55.8748 57.5625 54.5623 57.1875C52.4998 56.625 50.6249 55.3125 49.3124 54C47.4374 52.125 46.1249 49.5 45.5624 46.875C43.6874 46.875 42.1873 45.75 41.4373 43.875C40.8748 42 41.4372 40.125 42.5622 39.1875C43.3122 38.4375 44.4374 38.0625 45.5624 38.0625V31.6875C45.5624 26.8125 49.4998 22.875 54.3748 22.875H63.3749C65.4374 22.875 67.3123 23.625 68.6248 24.75L57.5622 26.4375C52.4997 27.1875 48.7498 31.5 48.7498 36.5625C48.9373 44.0625 50.4374 53.4375 56.9999 55.875C61.1249 57.375 64.8747 56.0625 67.8747 54Z" fill="#F05E2B"/>
<path d="M72.1875 40.1248V45.1873C72.1875 45.1873 74.0625 44.9998 74.0625 42.5623C74.0625 40.1248 72.1875 40.1248 72.1875 40.1248Z" fill="#F05E2B"/>
<path d="M39.375 89.625L28.3125 138.375L19.5001 135.562L5.25012 130.687L6.93744 126.188L25.6874 132L39.375 89.625Z" fill="#E8B374"/>
<path d="M105.187 207.375C102 209.437 98.6249 211.312 94.3124 211.875L77.6249 201.937L77.4374 201.75L76.1248 195.562L71.9999 176.812L61.8748 133.312L39.1874 68.4373L40.8749 68.2498L66.3749 136.312L79.6873 144.375L72.7499 144.562L87.1873 195.187L105.187 207.375Z" fill="#28878D"/>
<path d="M68.625 16.1251L68.4375 24.9376C66.75 23.8126 65.0624 23.0626 63.1874 23.0626H54.1876C49.3126 23.0626 45.3749 27.0001 45.3749 31.8751V38.2501C44.2499 38.2501 43.3125 38.8126 42.375 39.3751L37.8749 21.3751C37.8749 21.3751 43.125 11.6251 54.5625 10.8751C65.8125 9.75007 68.625 16.1251 68.625 16.1251Z" fill="#111010"/>
</g>
</svg>
