<svg width="160" height="95" viewBox="0 0 160 95" fill="none" xmlns="http://www.w3.org/2000/svg">
<path d="M67.41 63.5407L61.8683 63.6621L60.7357 90.9456L32.1982 93.4737L33.7151 64.3295L0 65.1587L9.34396 9.74218H33.2095L26.2723 48.3719L34.605 48.109L36.9916 0.276855H64.3964L62.4953 46.9562L67.41 46.6933V63.5407Z" fill="#FDDCA1"/>
<path d="M98.5968 17.4082C98.6001 18.6143 98.4575 19.8163 98.172 20.9881C97.8918 22.1187 97.4776 23.2118 96.9383 24.2443C96.3801 25.2472 95.7009 26.1778 94.9158 27.0151C94.1415 27.8442 93.2648 28.5715 92.3068 29.1792C91.3244 29.7738 90.2712 30.2426 89.1719 30.5747C87.4668 31.0589 85.6815 31.1939 83.9229 30.9714C82.1644 30.749 80.4689 30.1738 78.938 29.2803C76.9889 28.1603 75.381 26.5314 74.2863 24.5679C73.7343 23.5793 73.3064 22.5264 73.0121 21.433C72.6923 20.2946 72.5357 19.1165 72.547 17.9341C72.5461 16.7548 72.6888 15.5799 72.9717 14.4351C73.2553 13.3185 73.6694 12.2392 74.2054 11.2194C74.7634 10.2101 75.4426 9.27282 76.2279 8.42831C76.9822 7.58825 77.8461 6.85355 78.7965 6.24401C79.7536 5.63232 80.7873 5.14952 81.8707 4.80805C83.005 4.46493 84.1845 4.29448 85.3696 4.30242C87.2162 4.27988 89.0519 4.58812 90.7899 5.21254C92.3511 5.7924 93.7762 6.68739 94.9765 7.8418C96.1482 9.02061 97.0579 10.4334 97.6462 11.9879C98.2976 13.7198 98.62 15.558 98.5968 17.4082ZM89.5157 17.9341C89.5191 17.3508 89.4304 16.7706 89.2528 16.215C89.0901 15.6834 88.837 15.184 88.5045 14.7385C88.1787 14.3116 87.7648 13.9598 87.291 13.707C86.775 13.4316 86.1972 13.2924 85.6123 13.3025C85.0216 13.2969 84.4363 13.414 83.8932 13.6464C83.4069 13.8809 82.9681 14.2032 82.5988 14.5969C82.2381 15.0142 81.9571 15.494 81.7696 16.0127C81.5824 16.5665 81.4868 17.1472 81.4864 17.7318C81.489 18.3132 81.5706 18.8916 81.7291 19.4509C81.883 20.0108 82.1365 20.5383 82.4774 21.0083C82.7948 21.4641 83.2093 21.844 83.6909 22.1207C84.197 22.4251 84.7792 22.5794 85.3696 22.5656C85.9707 22.5684 86.5649 22.4371 87.109 22.1813C87.6109 21.9367 88.0529 21.5846 88.4034 21.1499C88.7693 20.7137 89.0506 20.2129 89.2326 19.6734C89.4044 19.11 89.4863 18.523 89.4753 17.9341H89.5157Z" fill="#FDDCA1"/>
<path d="M72.3044 40.6057V35.6304H99.0217V40.6057H72.3044Z" fill="#FDDCA1"/>
<path d="M85.3495 85.3835L84.7225 91.9971L72.2234 92.9679C72.2234 89.5094 72.3448 86.0711 72.4055 82.6531C72.4662 79.2351 72.5875 75.7969 72.6886 72.3384H80.3944C80.1719 74.5227 79.9494 76.6868 79.7472 78.8508C79.5449 81.0149 79.3831 83.1992 79.3022 85.3835H80.6775H85.3293H85.3495Z" fill="#FDDCA1"/>
<path d="M103.754 72.9254C103.309 76.4041 102.945 79.8828 102.622 83.321C102.298 86.7593 101.995 90.2582 101.711 93.7571L95.644 94.2021L95.9069 91.9166C95.7066 92.1437 95.4751 92.3412 95.2193 92.5032C94.9528 92.6706 94.6677 92.8063 94.3698 92.9077C94.0748 93.0125 93.7698 93.0871 93.4597 93.1302C93.157 93.159 92.8522 93.159 92.5495 93.1302C91.8955 93.1211 91.2495 92.9837 90.6484 92.7257C90.052 92.4779 89.4989 92.1365 89.0102 91.7144C88.5095 91.2832 88.0614 90.7945 87.6753 90.2582C87.2802 89.6999 86.9414 89.1037 86.6641 88.4784C86.4068 87.8685 86.1972 87.2397 86.0371 86.5975C85.902 85.9796 85.8341 85.349 85.8348 84.7165C85.8348 83.8266 85.8348 82.8963 85.8348 81.9457C85.8348 80.9951 85.8348 79.9232 86.0371 79.0738C86.2393 78.2243 86.2393 77.1524 86.3809 76.222C86.5161 75.3098 86.6984 74.4053 86.927 73.5119L90.5675 73.6737C91.781 73.6737 92.9945 73.6737 94.208 73.6737C93.9653 74.5434 93.7428 75.413 93.5203 76.2827C93.2979 77.1524 93.0956 78.0018 92.9338 78.8917C92.772 79.7816 92.6102 80.6513 92.4889 81.521C92.384 82.4138 92.33 83.3119 92.3271 84.2109C92.3271 84.4132 92.3271 84.6963 92.3271 85.1008C92.3431 85.4816 92.3904 85.8604 92.4686 86.2334C92.5436 86.582 92.6733 86.9165 92.8529 87.2245C92.9285 87.3555 93.0378 87.4639 93.1693 87.5386C93.3009 87.6132 93.45 87.6514 93.6012 87.6492C93.7944 87.6439 93.9844 87.5979 94.1586 87.5143C94.3329 87.4306 94.4875 87.3112 94.6125 87.1638C94.9385 86.774 95.2043 86.3378 95.4013 85.8694C95.6474 85.2593 95.8436 84.6303 95.9878 83.9884C96.1496 83.2603 96.2912 82.512 96.3923 81.7435C96.4934 80.9749 96.5946 80.1861 96.6755 79.3771C96.7564 78.5681 96.7968 77.84 96.8372 77.1524C96.8777 76.4647 96.8372 75.8175 96.8372 75.2715C96.8372 74.7254 96.8372 74.2804 96.8372 73.9771V73.3905V72.8242H98.8597H102.278L103.754 72.9254Z" fill="#FDDCA1"/>
<path d="M122.402 90.5206C121.917 91.1183 121.336 91.631 120.683 92.0374C119.99 92.4814 119.251 92.8477 118.478 93.1296C117.696 93.4135 116.891 93.63 116.072 93.7768C115.297 93.916 114.512 93.9904 113.726 93.9993C112.342 94.026 110.968 93.7785 109.681 93.2712C108.511 92.8121 107.447 92.12 106.554 91.2369C105.66 90.3537 104.955 89.298 104.483 88.134C103.981 86.8871 103.727 85.5544 103.734 84.2104C103.736 82.1039 104.228 80.0267 105.17 78.1429C105.634 77.2604 106.205 76.4385 106.869 75.6956C107.531 74.9604 108.286 74.3145 109.114 73.7742C110.934 72.6453 113.04 72.0626 115.182 72.0956H116.537L117.993 72.2776C118.466 72.359 118.932 72.4739 119.389 72.6214C119.82 72.7714 120.239 72.9539 120.642 73.1675L120.218 78.8507C119.668 78.6481 119.099 78.5057 118.519 78.426C117.942 78.3531 117.361 78.3194 116.779 78.3249C116.027 78.3194 115.278 78.4216 114.555 78.6283C113.899 78.8253 113.287 79.1482 112.755 79.5788C112.243 80.0047 111.829 80.5359 111.541 81.1361C111.241 81.8177 111.089 82.5554 111.096 83.3002C111.096 83.8073 111.171 84.3117 111.319 84.7969C111.445 85.2576 111.658 85.69 111.946 86.0711C112.221 86.4518 112.581 86.7633 112.997 86.9812C113.447 87.2132 113.947 87.3313 114.454 87.325C114.85 87.3196 115.244 87.2652 115.627 87.1632C116.004 87.0849 116.357 86.9186 116.658 86.6778V85.5048H113.099L113.281 81.0553L117.71 80.9339L122.159 80.7923L122.402 90.5206Z" fill="#FDDCA1"/>
<path d="M142.263 92.564L135.002 93.4741L134.112 90.1168H130.714L129.966 93.4741L122.402 92.7258L128.308 72.9457L136.58 72.521L142.263 92.564ZM133.465 85.6066L132.332 80.429L131.24 85.6066H133.465Z" fill="#FDDCA1"/>
<path d="M160 79.519C159.995 80.1979 159.927 80.875 159.798 81.5415C159.558 82.758 158.942 83.8685 158.038 84.7168C157.548 85.2146 156.998 85.6494 156.4 86.0112L159.939 92.3012L153.245 93.6158L150.959 87.4067H149.119L148.856 93.5956H142.465C142.465 91.3304 142.465 89.0854 142.606 86.8404C142.748 84.5955 142.606 82.3505 142.748 80.0853V76.7077C142.748 75.5751 142.748 74.4627 142.869 73.3099C143.577 73.0672 144.245 72.8447 144.892 72.6829C145.557 72.5074 146.233 72.3723 146.914 72.2784C147.582 72.2784 148.29 72.1166 148.937 72.0964C149.584 72.0762 150.353 72.0964 151.081 72.0964C152.189 72.0964 153.292 72.253 154.357 72.5616C155.372 72.8598 156.325 73.3395 157.169 73.9773C158.007 74.5927 158.698 75.3872 159.191 76.3032C159.724 77.2909 160.003 78.3964 160 79.519ZM153.346 79.9842C153.35 79.5991 153.288 79.2162 153.164 78.8516C153.053 78.5197 152.881 78.2112 152.658 77.9415C152.426 77.6906 152.143 77.4908 151.829 77.3549C151.457 77.2016 151.058 77.1259 150.656 77.1324H150.09C149.897 77.1514 149.707 77.1921 149.523 77.2538L149.301 82.7752H149.645C150.088 82.7694 150.528 82.7152 150.959 82.6134C151.376 82.5119 151.773 82.3409 152.132 82.1078C152.484 81.8873 152.782 81.5899 153.002 81.2381C153.229 80.8592 153.348 80.4256 153.346 79.9842Z" fill="#FDDCA1"/>
</svg>
