<svg width="374" height="401" viewBox="0 0 374 401" fill="none" xmlns="http://www.w3.org/2000/svg">
<path d="M123.842 399.06C123.842 399.06 122.541 344.634 148.154 316.921C148.154 316.921 118.039 341.733 118.54 399.06H123.842Z" fill="#4C9CA3"/>
<path d="M112.937 399.06C112.937 399.06 127.044 354.538 106.234 321.423C85.4239 288.307 113.137 251.49 113.137 251.49C113.137 251.49 80.3215 282.705 101.431 325.425C122.541 368.145 103.533 399.36 103.533 399.36L112.937 399.06Z" fill="#4C9CA3"/>
<path d="M174.866 399.56L108.935 399.26L114.838 383.052L133.247 380.351L143.852 368.645H159.359L174.566 399.26L174.866 399.56Z" fill="#F9D8AD"/>
<path d="M86.5245 399.56L20.5933 399.26L26.7963 383.052L44.9048 380.351L55.6099 368.645H71.3173L86.5245 399.26V399.56Z" fill="#F9D8AD"/>
<path d="M174.566 399.26H108.935L118.84 389.655L127.044 388.855L133.247 380.351L143.852 368.645H159.359L174.566 399.26Z" fill="#FF8F6A"/>
<path d="M234.594 399.26H171.865H155.357L173.265 380.051H200.478L226.09 393.957L234.594 399.26Z" fill="#F9D8AD"/>
<path d="M171.865 399.26L178.868 388.655L173.265 380.051H200.478L226.09 393.957L234.594 399.26H171.865Z" fill="#FF8F6A"/>
<path d="M236.695 399.56C236.695 399.56 262.808 389.455 275.414 388.855C287.719 388.554 303.727 397.959 314.632 392.356C325.537 386.754 338.643 381.651 358.953 399.86L236.695 399.56Z" fill="#F9D8AD"/>
<path d="M292.222 399.26C292.222 399.26 290.321 378.75 309.03 369.946C309.03 369.946 295.123 379.851 296.524 399.56L292.222 399.26Z" fill="#4C9CA3"/>
<path d="M273.813 399.06C273.813 399.06 285.518 316.12 277.315 279.003C269.011 241.685 252.503 222.976 252.503 222.976C252.503 222.976 272.212 237.883 281.817 282.204C291.121 326.525 283.918 398.559 283.918 398.559L273.813 399.06Z" fill="#4C9CA3"/>
<path d="M264.208 399.26C264.208 399.26 265.809 361.642 251.903 338.131C251.903 338.131 270.311 358.14 269.211 399.26H264.208Z" fill="#4C9CA3"/>
<path d="M255.404 399.26C255.404 399.26 220.688 290.108 247.701 248.789C247.701 248.789 232.794 278.703 246.1 334.429C259.406 390.155 262.608 398.759 262.608 398.759L255.404 399.26Z" fill="#4C9CA3"/>
<path d="M151.355 251.49C148.654 250.69 146.853 248.288 146.853 245.387V217.674H150.555L151.355 251.49Z" fill="#231F20"/>
<path d="M226.09 369.145H210.283L209.282 360.841L215.886 360.041L224.49 359.041L226.09 369.145Z" fill="#FF8F6A"/>
<path d="M216.686 368.845H209.983L208.882 360.841L215.585 360.041C215.585 360.341 215.585 360.541 215.585 360.541L216.686 368.845Z" fill="#E13146"/>
<path d="M140.45 359.041L137.449 369.145H121.741L124.442 360.841L129.245 360.341L140.45 359.041Z" fill="#FF8F6A"/>
<path d="M129.245 360.341V360.641L127.344 368.945H122.041L124.742 360.942L129.245 360.341Z" fill="#E13146"/>
<path d="M202.279 54.0967C199.878 56.4978 197.477 56.1976 197.477 56.1976L191.374 69.504H189.273C186.872 63.9013 182.87 59.099 179.168 55.5974C176.467 53.1962 173.566 51.2953 171.465 49.6945L172.265 48.0938L174.366 44.5922L172.465 40.8904C167.663 40.09 167.363 31.7861 170.064 30.9858C172.765 30.1854 174.366 31.486 174.366 31.486C176.467 37.5889 179.969 41.8909 179.969 41.8909C179.168 35.9881 180.269 31.1858 180.269 30.6856L207.482 23.7823C207.782 25.8833 207.782 28.0844 207.782 29.8852C208.482 44.9923 205.28 51.3954 202.279 54.0967Z" fill="#FF8F6A"/>
<path d="M202.279 54.0967C199.878 56.4978 197.477 56.1976 197.477 56.1976C197.477 56.1976 187.572 59.099 182.57 50.8952L179.068 55.9976C176.367 53.5965 173.466 51.6955 171.365 50.0948L172.165 48.4941L174.266 44.9924L172.365 41.2906C167.563 40.4903 167.263 32.1863 169.964 31.3859C172.665 30.5856 174.266 31.8862 174.266 31.8862C176.367 37.9891 179.869 42.2911 179.869 42.2911C179.068 36.3883 180.169 31.5861 180.169 31.0858C180.469 32.4865 182.57 59.9995 202.279 54.0967Z" fill="#E13146"/>
<path d="M206.081 204.568C206.081 204.568 204.78 203.467 202.379 202.467C200.778 201.666 198.877 200.866 196.776 200.066C195.476 199.565 193.875 199.265 192.274 198.765C190.974 198.465 189.873 198.265 188.573 197.965C188.273 197.965 187.772 197.965 187.472 197.965C186.372 197.965 185.571 197.664 184.571 197.664C181.87 197.664 178.968 197.665 176.067 197.965C175.266 197.965 174.466 198.265 173.666 198.265C173.365 198.265 173.365 198.265 173.165 198.265C172.965 198.265 172.865 198.265 172.665 198.265C172.465 198.265 172.365 198.265 172.165 198.265C171.365 198.565 170.864 198.565 170.064 198.765C164.962 200.066 160.96 200.666 157.758 200.866C146.553 201.366 144.152 197.164 144.152 197.164V71.2048L140.95 65.6021C140.15 64.0014 140.45 62.4006 141.45 61.1C142.251 60.2996 143.051 59.9995 144.152 59.9995C144.652 59.9995 145.252 59.9995 145.752 60.2996C146.853 60.7999 148.454 61.4001 149.754 61.4001V53.6965L161.46 53.1963C161.46 53.1963 161.76 52.3959 162.56 50.7952C163.361 49.6946 164.461 48.0939 166.062 46.293C166.062 46.293 167.963 47.0934 170.564 48.6941C170.864 48.9943 171.064 48.9943 171.365 49.1944C176.967 52.696 185.471 59.2991 189.473 68.9037H196.977L206.081 204.568Z" fill="#4C9CA3"/>
<path d="M196.977 69.604L188.673 72.0051C188.673 72.0051 187.372 104.32 176.367 125.63L174.466 164.349L172.565 157.145L174.466 125.13C174.466 125.13 191.774 73.4058 172.365 68.6035C152.856 63.8012 149.954 90.2137 149.954 103.32C149.954 111.824 149.654 128.432 149.654 139.037C149.654 144.639 149.654 148.641 149.654 149.142C149.654 149.942 151.755 153.644 153.656 156.645C155.257 159.346 156.858 161.948 156.858 161.948L173.966 192.362L172.865 198.465L172.565 200.066L172.065 198.465L156.858 164.049L147.253 178.455C147.253 178.455 146.753 197.164 157.958 201.166C146.753 201.666 144.352 197.464 144.352 197.464V71.4048L141.15 65.8022C141.15 65.8022 143.251 67.9032 151.055 67.9032C151.055 67.9032 165.462 59.3991 176.967 64.2014C188.473 69.0037 190.073 69.3039 190.073 69.3039H196.977V69.604Z" fill="#28878D"/>
<path d="M196.676 200.066C196.176 212.071 193.775 261.395 189.173 272.6C188.673 273.9 187.572 276.102 186.472 278.503C176.567 299.312 148.854 362.042 148.854 362.042H122.141L151.755 268.698L151.455 251.59L150.655 217.674V214.472C144.252 212.572 143.952 197.664 143.952 197.664C143.952 197.664 148.254 204.868 170.064 199.265C170.864 198.965 171.665 198.765 172.465 198.765C172.765 198.765 173.265 198.465 173.566 198.465C174.366 198.165 175.166 198.165 175.967 198.165C178.868 197.664 181.869 197.664 184.471 197.864C185.571 197.864 186.372 197.865 187.372 198.165C187.672 198.165 188.172 198.165 188.473 198.165C189.773 198.465 191.174 198.665 192.174 198.965C193.775 198.965 195.376 199.465 196.676 200.066Z" fill="#F73C4F"/>
<path d="M232.994 361.942H206.281C206.281 361.942 196.676 296.611 193.975 291.009C192.374 287.507 188.873 282.505 186.272 278.503C187.372 276.102 188.373 274.001 188.973 272.6C193.775 261.395 195.876 211.771 196.476 200.066C198.577 200.866 200.478 201.666 202.079 202.467C204.78 210.17 220.188 258.193 222.589 276.902C225.29 296.911 232.994 361.942 232.994 361.942Z" fill="#F73C4F"/>
<path d="M189.273 69.604C185.271 59.9995 176.767 53.2963 171.164 49.8947C170.864 49.5945 170.664 49.5945 170.364 49.3944L171.164 47.7937C171.164 47.7937 171.465 48.0938 171.965 48.2939C175.366 50.595 187.372 58.8989 189.273 69.604Z" fill="#FCBD4B"/>
<path d="M207.882 30.0853C207.882 28.1844 207.582 26.0835 207.582 23.9825L180.369 30.8857C180.369 30.8857 179.268 35.9881 180.069 42.3911C180.069 42.3911 176.567 38.0891 174.466 31.9862C174.466 31.9862 172.865 30.6856 170.164 31.486C167.463 32.2864 168.063 40.5903 172.565 41.3906L174.466 45.0924L172.365 48.5941C171.865 48.2939 171.565 48.0938 171.565 48.0938L170.764 49.6945C170.764 49.6945 169.664 45.1925 167.263 41.991C164.861 38.7895 158.158 27.5841 164.561 13.1773C170.964 -1.52963 181.869 1.97207 181.869 1.97207C181.869 1.97207 186.372 -2.32996 198.177 1.97207C208.982 5.77387 211.884 26.0834 207.882 30.0853Z" fill="#231F20"/>
<path d="M143.852 71.7049V178.455H108.135C108.135 178.455 108.135 168.05 108.135 153.143V137.136C108.135 114.225 116.439 109.623 116.439 109.623C116.439 109.623 111.136 103.72 107.334 99.2179C103.633 94.7158 107.034 92.3147 107.034 92.3147C107.034 92.3147 106.234 83.5105 109.435 78.7082C112.637 73.906 119.34 70.2042 119.34 70.2042C119.34 70.2042 123.342 61.4001 130.245 61.4001C131.045 61.4001 132.146 61.4001 132.946 61.7002C138.049 62.8007 140.65 66.2024 140.65 66.5025L143.852 71.7049Z" fill="#5C5B68"/>
<path d="M182.27 93.3152C182.57 89.8136 182.57 86.4119 182.27 82.9103C181.469 69.604 169.163 63.201 158.258 72.0052C152.656 76.5073 147.353 84.8112 143.852 98.4176V71.5049C143.852 71.5049 152.356 65.402 162.56 63.8013C166.862 63.301 171.365 63.301 175.667 65.1019C190.574 71.0047 188.473 108.022 176.467 125.43C176.467 125.63 181.269 110.123 182.27 93.3152Z" fill="#5C5B68"/>
<path d="M143.852 178.455L156.958 161.848L155.657 158.646L142.051 171.452L143.852 178.455Z" fill="#454556"/>
<path d="M143.852 153.043V178.355H108.135C108.135 178.355 108.135 167.95 108.135 153.043H143.852Z" fill="#FCBD4B"/>
<path d="M270.912 399.06H206.081C206.081 399.06 205.781 396.658 205.781 393.157C205.781 392.657 205.781 391.856 205.781 391.256C205.781 386.454 206.581 380.351 209.282 375.548C209.282 375.548 211.684 380.051 215.986 381.151C218.687 381.951 221.888 381.151 226.09 377.649L225.29 375.248L228.992 373.948L230.893 373.147L255.204 385.653C258.706 385.653 262.107 386.754 264.809 388.855C266.409 389.955 267.71 391.256 268.811 393.157C269.611 394.457 270.111 395.858 270.711 397.159L270.912 399.06Z" fill="#FCBD4B"/>
<path d="M270.912 399.06H206.081C206.081 399.06 205.781 396.658 205.781 393.157H268.51C269.311 394.457 269.811 395.858 270.411 397.159L270.912 399.06Z" fill="#454556"/>
<path d="M208.182 391.256H205.781C205.781 386.454 206.581 380.351 209.282 375.548C209.282 375.548 211.684 380.051 215.986 381.151C207.882 382.252 208.182 391.256 208.182 391.256Z" fill="#231F20"/>
<path d="M253.803 393.157H231.693L229.292 390.756H251.402L253.803 393.157Z" fill="#231F20"/>
<path d="M234.594 374.248L230.292 377.95C229.992 378.25 229.992 378.45 230.292 378.75C230.593 379.05 230.793 379.05 231.093 378.75L235.395 375.048C235.695 374.748 235.695 374.548 235.395 374.248C235.095 373.948 234.895 373.948 234.594 374.248Z" fill="#231F20"/>
<path d="M238.296 376.049L233.994 379.75C233.694 380.051 233.694 380.251 233.994 380.551C234.294 380.851 234.494 380.851 234.795 380.551L239.097 376.849C239.397 376.549 239.397 376.349 239.097 376.049C238.897 376.049 238.596 376.049 238.296 376.049Z" fill="#231F20"/>
<path d="M242.298 378.25L237.996 381.951C237.696 382.252 237.696 382.452 237.996 382.752C238.296 383.052 238.496 383.052 238.796 382.752L243.098 379.05C243.399 378.75 243.399 378.55 243.098 378.25C242.898 377.95 242.598 377.95 242.298 378.25Z" fill="#231F20"/>
<path d="M246.1 380.351L241.798 384.053C241.498 384.353 241.498 384.553 241.798 384.853C242.098 385.153 242.298 385.153 242.598 384.853L246.9 381.151C247.2 380.851 247.2 380.651 246.9 380.351C246.6 380.051 246.3 380.051 246.1 380.351Z" fill="#231F20"/>
<path d="M249.802 382.252L245.5 385.953C245.199 386.253 245.199 386.454 245.5 386.754C245.8 387.054 246 387.054 246.3 386.754L250.602 383.052C250.902 382.752 250.902 382.552 250.602 382.252C250.302 382.252 250.102 382.252 249.802 382.252Z" fill="#231F20"/>
<path d="M224.99 375.248L225.79 377.649C221.788 381.151 218.287 381.651 215.685 381.151C211.383 380.051 208.982 375.548 208.982 375.548L208.682 371.547V371.046V369.946V369.445V368.145H227.691L227.991 369.445V369.946L228.291 371.046V371.547L228.792 374.248L224.99 375.248Z" fill="#111010"/>
<path d="M180.169 399.06H115.338C115.338 399.06 115.038 396.658 115.038 393.157C115.038 392.657 115.038 391.856 115.038 391.256C115.038 386.454 115.838 380.351 118.54 375.548C118.54 375.548 120.941 380.051 125.243 381.151C127.944 381.951 131.146 381.151 135.348 377.649L134.547 375.248L138.249 373.948L140.15 373.147L164.461 385.653C167.963 385.653 171.365 386.754 174.066 388.855C175.667 389.955 176.967 391.256 178.068 393.157C178.868 394.457 179.368 395.858 179.969 397.159L180.169 399.06Z" fill="#FCBD4B"/>
<path d="M180.169 399.06H115.338C115.338 399.06 115.038 396.658 115.038 393.157H177.768C178.568 394.457 179.068 395.858 179.668 397.159L180.169 399.06Z" fill="#454556"/>
<path d="M117.439 391.256H115.338C115.338 386.454 116.138 380.351 118.84 375.548C118.84 375.548 121.241 380.051 125.543 381.151C117.239 382.252 117.439 391.256 117.439 391.256Z" fill="#231F20"/>
<path d="M163.361 393.157H141.25L138.549 390.756H160.659L163.361 393.157Z" fill="#231F20"/>
<path d="M143.852 374.248L139.55 377.95C139.249 378.25 139.249 378.45 139.55 378.75C139.85 379.05 140.05 379.05 140.35 378.75L144.652 375.048C144.952 374.748 144.952 374.548 144.652 374.248C144.652 373.948 144.152 373.948 143.852 374.248Z" fill="#231F20"/>
<path d="M147.853 376.049L143.551 379.75C143.251 380.051 143.251 380.251 143.551 380.551C143.852 380.851 144.052 380.851 144.352 380.551L148.654 376.849C148.954 376.549 148.954 376.349 148.654 376.049C148.454 376.049 148.154 376.049 147.853 376.049Z" fill="#231F20"/>
<path d="M151.655 378.25L147.353 381.951C147.053 382.252 147.053 382.452 147.353 382.752C147.653 383.052 147.853 383.052 148.154 382.752L152.456 379.05C152.756 378.75 152.756 378.55 152.456 378.25C152.155 377.95 151.855 377.95 151.655 378.25Z" fill="#231F20"/>
<path d="M155.357 380.351L151.055 384.053C150.755 384.353 150.755 384.553 151.055 384.853C151.355 385.153 151.555 385.153 151.855 384.853L156.157 381.151C156.458 380.851 156.458 380.651 156.157 380.351C155.857 380.051 155.657 380.051 155.357 380.351Z" fill="#231F20"/>
<path d="M159.359 382.252L155.057 385.953C154.757 386.253 154.757 386.454 155.057 386.754C155.357 387.054 155.557 387.054 155.857 386.754L160.159 383.052C160.459 382.752 160.459 382.552 160.159 382.252C159.859 382.252 159.359 382.252 159.359 382.252Z" fill="#231F20"/>
<path d="M139.85 367.845L139.55 369.145L139.249 369.646L138.949 370.746L138.649 371.246L137.849 373.948L134.147 375.248L134.947 377.649C130.945 381.151 127.444 381.651 124.843 381.151C120.541 380.051 118.139 375.548 118.139 375.548L119.44 371.547L119.74 371.046L120.04 369.946L120.34 369.446L120.841 368.145H139.75V367.845H139.85Z" fill="#111010"/>
<path d="M212.484 361.942H206.381C206.381 361.942 196.777 296.611 194.075 291.009C192.474 287.507 188.973 282.505 186.372 278.503C187.472 276.102 188.473 274.001 189.073 272.6C193.875 261.395 195.976 211.771 196.576 200.066C196.576 200.066 197.877 233.181 195.776 260.094C195.776 260.094 201.879 280.604 203.48 288.407C204.98 295.511 211.684 354.238 212.484 361.942Z" fill="#DD2641"/>
<path d="M196.676 200.066C196.676 200.066 191.074 199.265 188.673 201.666C186.272 204.067 182.27 209.37 179.368 211.271C176.467 213.172 169.764 214.772 169.464 214.772C169.764 214.772 173.465 212.672 174.766 209.97L172.665 205.468L159.859 212.672L157.458 267.898L126.243 362.042H121.941L151.555 268.698L151.255 251.59L150.455 217.674V214.472C144.052 212.572 143.751 197.664 143.751 197.664C143.751 197.664 148.054 204.868 169.864 199.265C170.664 198.965 171.465 198.765 172.265 198.765C172.565 198.765 173.065 198.465 173.365 198.465C174.166 198.165 174.966 198.165 175.767 198.165C178.668 197.664 181.669 197.664 184.271 197.864C185.371 197.864 186.172 197.865 187.172 198.165C187.472 198.165 187.972 198.165 188.272 198.165C189.573 198.465 190.974 198.665 191.974 198.965C193.775 198.965 195.376 199.465 196.676 200.066Z" fill="#DD2641"/>
<path d="M188.673 201.666C188.673 201.666 187.572 208.57 179.368 211.271L157.258 161.647L161.76 160.347L172.965 156.845L188.673 201.666Z" fill="#FF8F6A"/>
<path d="M187.672 199.465L179.969 203.767L177.267 205.068C176.967 205.068 176.767 205.368 176.467 205.368C175.967 205.368 175.366 205.068 175.166 204.568L170.364 194.463C170.064 193.963 170.364 193.162 170.864 192.562C170.864 192.562 171.164 192.562 171.164 192.262L174.366 190.661L182.67 186.959C183.47 186.659 184.271 186.959 184.771 187.76L188.473 197.364C188.473 198.465 188.172 199.265 187.672 199.465Z" fill="#FCBD4B"/>
<path d="M180.169 200.566C182.655 200.566 184.671 198.55 184.671 196.064C184.671 193.577 182.655 191.562 180.169 191.562C177.682 191.562 175.667 193.577 175.667 196.064C175.667 198.55 177.682 200.566 180.169 200.566Z" fill="#111010"/>
<path d="M149.454 62.1004C149.454 62.1004 155.357 62.9008 165.462 61.8003C165.462 61.8003 155.057 60.4997 149.454 54.2968V62.1004Z" fill="#28878D"/>
<path d="M143.852 71.705V153.043H137.949V111.124C137.949 98.0174 118.74 96.2165 116.639 109.223C116.639 109.523 116.639 109.523 116.639 109.523C116.639 109.523 111.336 103.62 107.534 99.1179C103.833 94.6158 107.234 92.2147 107.234 92.2147C109.335 98.6177 119.54 95.4162 119.54 95.4162C128.044 85.5115 140.65 87.9126 140.65 87.9126V66.1024L143.852 71.705Z" fill="#454556"/>
<path d="M143.952 153.043H138.049V178.355H143.952V153.043Z" fill="#F4A422"/>
<path d="M162.56 64.0014C160.66 65.6022 159.059 68.3034 158.258 72.0052C152.656 76.5073 147.353 84.8112 143.852 98.4176V71.5049C143.852 71.705 152.456 65.6022 162.56 64.0014Z" fill="#454556"/>
<path d="M132.946 61.3001C124.642 64.8018 110.536 90.4138 110.036 91.2142L119.34 69.604C119.34 69.604 123.342 60.7999 130.245 60.7999C131.045 61.3001 132.146 61.3001 132.946 61.3001Z" fill="#454556"/>
<path d="M116.439 109.623V153.143H108.135V137.136C108.135 114.125 116.439 109.623 116.439 109.623Z" fill="#454556"/>
<path d="M116.439 153.043V178.355H108.135C108.135 178.355 108.135 167.95 108.135 153.043H116.439Z" fill="#F4A422"/>
<path d="M206.081 16.4789C205.781 15.6786 200.478 0.171234 183.17 4.77341C183.17 4.77341 173.065 5.57375 177.868 31.1858C177.567 30.3855 171.164 12.4771 179.168 4.47328C179.168 4.47328 168.263 11.6767 174.366 31.9863C174.366 31.9863 172.765 30.6857 170.064 31.486C167.363 32.2864 167.963 40.5903 172.465 41.3907L174.366 45.0924L172.265 48.5941C171.765 48.2939 171.465 48.0938 171.465 48.0938L170.664 49.6946C170.664 49.6946 169.564 45.1925 167.163 41.991C164.761 38.7895 158.058 27.5841 164.461 13.1773C170.864 -1.5296 181.769 1.9721 181.769 1.9721C181.769 1.9721 201.779 -3.03026 206.081 16.4789Z" fill="#111010"/>
<path d="M173.466 33.2868L172.665 39.1896C172.665 39.1896 169.964 38.0891 170.264 34.8875C170.564 31.686 172.965 32.4864 173.466 33.2868Z" fill="#111010"/>
<path d="M174.266 190.961L171.064 192.562C171.064 192.562 170.764 192.562 170.764 192.862L156.858 162.148L161.36 160.847L174.266 190.961Z" fill="#E13146"/>
<path d="M188.673 201.666C188.673 201.666 187.572 208.57 179.368 211.271L176.667 205.368C176.967 205.368 177.167 205.368 177.467 205.068L180.169 203.767L182.07 207.769C181.769 207.769 186.572 205.668 188.673 201.666Z" fill="#E13146"/>
<path d="M182.27 93.3152C181.469 101.019 179.568 107.422 179.568 107.722C179.869 106.922 186.472 69.8041 171.565 69.604C156.658 69.3039 152.856 103.22 152.856 103.22C152.856 81.3095 157.958 72.3053 158.158 72.0052C169.364 63.201 181.369 69.604 182.17 82.9103C182.57 86.612 182.27 90.1137 182.27 93.3152Z" fill="#28878D"/>
<path d="M196.676 197.664C197.977 198.165 200.378 199.265 202.579 200.566C203.079 201.066 204.18 200.566 204.18 199.765V199.265C204.18 198.965 203.88 198.765 203.68 198.465C202.579 197.965 200.178 196.564 197.577 196.064C197.077 196.064 196.476 196.364 196.476 196.864C195.876 197.064 196.176 197.664 196.676 197.664Z" fill="#FCBD4B"/>
<path d="M184.971 69.8041C178.868 61.5002 160.96 53.7965 160.96 53.7965C160.96 53.7965 161.26 52.9961 162.06 51.3954C178.068 57.7984 184.971 69.3039 184.971 69.8041Z" fill="#28878D"/>
<path d="M153.756 156.545C151.855 153.344 149.754 149.842 149.754 149.042C149.754 148.541 149.754 144.539 149.754 138.937C152.456 139.237 154.857 142.638 155.857 147.241C156.658 151.243 155.657 154.944 153.756 156.545Z" fill="#FCBD4B"/>
<path d="M110.236 145.64H103.633V138.136C103.633 134.435 106.534 131.433 110.336 131.433V145.64H110.236Z" fill="#454556"/>
<path d="M127.344 175.254C124.142 175.254 121.441 172.553 121.441 169.351V156.545H133.447V169.351C133.246 172.553 130.545 175.254 127.344 175.254Z" fill="white"/>
<path d="M127.344 137.636C123.642 137.636 120.641 134.735 120.641 130.933V121.028C120.641 117.327 123.542 114.325 127.344 114.325C131.045 114.325 134.047 117.227 134.047 121.028V130.933C134.047 134.435 131.045 137.636 127.344 137.636Z" fill="#454556"/>
<path d="M139.65 120.028H115.338C115.038 120.028 114.838 119.728 114.838 119.528C114.838 119.227 115.138 119.027 115.338 119.027H139.65C139.95 119.027 140.15 119.327 140.15 119.528C140.15 120.028 139.85 120.028 139.65 120.028Z" fill="#F4A422"/>
<path d="M139.65 122.929H115.338C115.038 122.929 114.838 122.629 114.838 122.429C114.838 122.129 115.138 121.929 115.338 121.929H139.65C139.95 121.929 140.15 122.229 140.15 122.429C140.15 122.629 139.85 122.929 139.65 122.929Z" fill="#F4A422"/>
<path d="M139.65 125.63H115.338C115.038 125.63 114.838 125.33 114.838 125.13C114.838 124.83 115.138 124.63 115.338 124.63H139.65C139.95 124.63 140.15 124.93 140.15 125.13C140.15 125.33 139.85 125.63 139.65 125.63Z" fill="#F4A422"/>
<path d="M139.65 128.532H115.338C115.038 128.532 114.838 128.232 114.838 128.032C114.838 127.731 115.138 127.531 115.338 127.531H139.65C139.95 127.531 140.15 127.832 140.15 128.032C140.15 128.232 139.85 128.532 139.65 128.532Z" fill="#F4A422"/>
<path d="M139.65 131.233H115.338C115.038 131.233 114.838 130.933 114.838 130.733C114.838 130.433 115.138 130.233 115.338 130.233H139.65C139.95 130.233 140.15 130.533 140.15 130.733C140.15 130.933 139.85 131.233 139.65 131.233Z" fill="#F4A422"/>
<path d="M139.65 133.834H115.338C115.038 133.834 114.838 133.534 114.838 133.334C114.838 133.034 115.138 132.834 115.338 132.834H139.65C139.95 132.834 140.15 133.134 140.15 133.334C140.15 133.634 139.85 133.834 139.65 133.834Z" fill="#F4A422"/>
<path d="M227.891 369.646H208.682V369.145H227.891V369.646Z" fill="white"/>
<path d="M228.191 371.246H208.982V370.746H228.191V371.246Z" fill="white"/>
<path d="M139.65 369.145L139.349 369.646H120.44L120.641 369.145H139.65Z" fill="white"/>
<path d="M139.049 370.746V371.246H119.84L120.14 370.746H139.049Z" fill="white"/>
<path d="M121.741 356.039H153.756L151.055 362.442H119.34L121.741 356.039Z" fill="#DD2641"/>
<path d="M203.68 356.039H235.695L236.495 362.442H204.98L203.68 356.039Z" fill="#DD2641"/>
<path d="M207.882 30.0853L205.981 26.8838L180.369 30.8857L207.582 23.9825C207.682 26.0835 207.882 28.1844 207.882 30.0853Z" fill="#E13146"/>
<path d="M136.148 82.9103C122.541 85.6116 119.04 93.8155 119.04 93.8155C125.743 84.7112 138.749 85.3114 138.749 85.3114V68.2033V67.9032L136.148 82.9103Z" fill="#454556"/>
<path d="M178.068 126.431L175.867 160.847L184.671 185.058L178.568 159.747L178.068 126.431Z" fill="#28878D"/>
<path d="M209.483 346.735L230.292 353.938H209.483V346.735Z" fill="#DD2641"/>
<path d="M128.644 346.735L149.254 353.938H128.644V346.735Z" fill="#DD2641"/>
<path d="M156.457 312.619C151.155 310.518 148.454 304.615 150.355 299.312L157.258 280.403L176.767 287.607L169.864 306.516C167.863 312.119 162.06 314.72 156.457 312.619Z" fill="#231F20"/>
<path d="M157.458 280.303L163.861 291.309L176.967 287.807L162.861 294.71L157.458 280.303Z" fill="#DD2641"/>
<path d="M166.562 291.809C166.062 293.109 164.661 293.71 163.661 293.109C162.36 292.609 161.76 291.209 162.36 290.208C162.86 288.907 164.261 288.307 165.262 288.907C166.262 289.108 167.062 290.508 166.562 291.809Z" fill="#111010"/>
<path d="M175.066 253.691C169.464 253.691 164.661 249.189 164.661 243.286V222.976H185.471V243.286C185.471 249.089 180.969 253.691 175.066 253.691Z" fill="#231F20"/>
<path d="M164.661 223.276L174.866 230.98L185.471 223.276L174.866 234.482L164.661 223.276Z" fill="#DD2641"/>
<path d="M174.866 232.881C176.192 232.881 177.267 231.806 177.267 230.48C177.267 229.154 176.192 228.079 174.866 228.079C173.54 228.079 172.465 229.154 172.465 230.48C172.465 231.806 173.54 232.881 174.866 232.881Z" fill="#111010"/>
<path d="M186.872 223.477V243.986C186.872 244.086 189.473 232.881 186.872 223.477Z" fill="#DD2641"/>
<path d="M164.161 223.477V242.986C164.161 242.986 160.659 228.079 164.161 223.477Z" fill="#DD2641"/>
<path d="M177.267 289.408L170.364 308.917C170.264 308.617 176.967 299.312 177.267 289.408Z" fill="#DD2641"/>
<path d="M156.157 281.704L149.454 300.113C149.454 300.113 151.355 285.106 156.157 281.704Z" fill="#DD2641"/>
<path d="M199.378 212.071C199.378 212.071 199.678 255.792 196.176 265.697L198.077 271.299C198.077 270.999 203.38 262.495 199.378 212.071Z" fill="#DD2641"/>
<path d="M371.759 400.06H1.68439C0.884013 400.06 0.383789 399.56 0.383789 398.759C0.383789 397.959 0.884013 397.459 1.68439 397.459H371.759C372.56 397.459 373.06 397.959 373.06 398.759C373.06 399.56 372.56 400.06 371.759 400.06Z" fill="#F9D8AD"/>
</svg>
