<svg width="100" height="100" viewBox="0 0 100 100" fill="none" xmlns="http://www.w3.org/2000/svg">
<path d="M82.8125 1.5625H17.1875C15.4616 1.5625 14.0625 2.96161 14.0625 4.6875V10.9375C14.0625 12.6634 15.4616 14.0625 17.1875 14.0625H82.8125C84.5384 14.0625 85.9375 12.6634 85.9375 10.9375V4.6875C85.9375 2.96161 84.5384 1.5625 82.8125 1.5625Z" fill="#D6E4E8"/>
<path d="M79.6875 34.375L50 51.5625L20.3125 34.375V7.8125H79.6875V34.375Z" fill="#62B5E8"/>
<path d="M25 22.0016V7.8125H20.3125V34.375L50 51.5625L53.6937 49.425L34.3563 38.2281C31.5111 36.5811 29.1489 34.2149 27.5068 31.3669C25.8646 28.5188 25.0001 25.2891 25 22.0016V22.0016Z" fill="#44A7D8"/>
<path d="M50 51.5625L65.625 42.5172V7.8125H34.375V42.5172L50 51.5625Z" fill="#F96464"/>
<path d="M50 35.9375C44.4751 35.9378 39.0613 37.4894 34.375 40.4156V42.5172L50 51.5625L65.625 42.5172V40.4156C60.9387 37.4894 55.5249 35.9378 50 35.9375Z" fill="#D34444"/>
<path d="M50 98.4375C66.396 98.4375 79.6875 85.146 79.6875 68.75C79.6875 52.354 66.396 39.0625 50 39.0625C33.604 39.0625 20.3125 52.354 20.3125 68.75C20.3125 85.146 33.604 98.4375 50 98.4375Z" fill="#F8C460"/>
<path d="M50 92.1875C62.9442 92.1875 73.4375 81.6942 73.4375 68.75C73.4375 55.8058 62.9442 45.3125 50 45.3125C37.0558 45.3125 26.5625 55.8058 26.5625 68.75C26.5625 81.6942 37.0558 92.1875 50 92.1875Z" fill="#FCAB68"/>
<path d="M54.6875 87.4998C50.3346 87.5059 46.0662 86.298 42.362 84.0118C38.6579 81.7255 35.6646 78.4516 33.7187 74.5578C31.7728 70.6641 30.9514 66.3048 31.3466 61.9699C31.7419 57.635 33.3382 53.4962 35.9562 50.0186C33.2672 52.0292 31.0419 54.5947 29.4315 57.541C27.8211 60.4873 26.8632 63.7455 26.6228 67.0946C26.3823 70.4437 26.8649 73.8053 28.0378 76.9514C29.2108 80.0976 31.0467 82.9547 33.4209 85.3289C35.7951 87.7031 38.6522 89.539 41.7984 90.712C44.9445 91.8849 48.3061 92.3675 51.6552 92.1271C55.0043 91.8866 58.2625 90.9287 61.2088 89.3183C64.1551 87.7079 66.7206 85.4826 68.7312 82.7936C64.6866 85.8483 59.7561 87.5006 54.6875 87.4998V87.4998Z" fill="#EA8E49"/>
<path d="M50 54.6875L53.125 65.625H64.0625L56.25 71.875L59.375 82.8125L50 76.1063L40.625 82.8125L43.75 71.875L35.9375 65.625H46.875L50 54.6875Z" fill="#F96464"/>
<path d="M50 76.1063L40.625 82.8125L43.75 71.875L39.8438 68.75H32.8125L40.625 75L37.5 85.9375L46.875 79.2313L56.25 85.9375L54.325 79.2L50 76.1063Z" fill="#EA8E49"/>
</svg>
