<svg width="120" height="120" viewBox="0 0 120 120" fill="none" xmlns="http://www.w3.org/2000/svg">
<mask id="mask0_467_19163" style="mask-type:alpha" maskUnits="userSpaceOnUse" x="0" y="0" width="120" height="120">
<circle cx="60" cy="60" r="60" fill="#C4C4C4"/>
</mask>
<g mask="url(#mask0_467_19163)">
<path d="M2075.81 -47.0627H-298.312V633.375H2075.81V-47.0627Z" fill="white"/>
<path d="M108.75 46.1248C108.75 46.1248 105.938 42.9373 100.688 41.8123C100.688 41.8123 103.5 43.4998 103.5 49.8748C103.688 56.4373 106.688 59.9998 106.688 59.9998C106.688 59.9998 108.375 63.1873 108.75 60.1873C108.938 57.5623 108.75 46.1248 108.75 46.1248Z" fill="#D16E69"/>
<path d="M106.688 49.5C108.375 44.625 106.875 39.75 106.875 39.75C108.938 43.875 115.5 46.6875 115.688 51.1875C115.688 54 113.625 57 112.313 58.3125C114 57.75 116.063 57.375 117.75 58.5C121.5 60.5625 124.125 58.5 124.125 58.5C124.125 58.5 124.688 65.0625 118.875 66C113.063 66.5625 110.625 63.375 110.625 63.375L108.563 61.6875C106.125 58.5 105 54.375 106.688 49.5Z" fill="#FEBEB4"/>
<path d="M97.6875 51.375C97.875 51.375 97.8751 51.375 97.8751 51.5625C99.0001 51.5625 100.125 51.75 101.25 52.5C102.188 53.0625 102.938 54 103.5 54.75C104.438 55.875 104.625 57.375 105 57.9375C106.125 57.9375 108.188 60.5625 110.25 62.4375C111.75 64.125 111.375 65.8125 111.188 66.75C111.188 66.9375 111 66.9375 110.625 66.75C109.688 66.1875 109.5 65.0625 109.125 63.5625C108.938 62.0625 108.563 61.875 107.625 61.5C106.688 61.3125 106.125 60 105 59.4375C103.875 59.25 103.875 57.9375 104.063 57.75C103.875 57.5625 103.5 56.625 102.563 55.6875C101.625 54.75 100.313 53.625 98.4375 53.4375C98.4375 53.625 98.2501 53.625 98.2501 53.625C98.0626 53.625 97.6875 53.4375 97.6875 53.0625C97.6875 52.875 97.8751 52.5 98.2501 52.5C98.6251 52.5 98.4376 52.6875 98.8126 52.6875C100.313 52.875 101.625 53.8125 102.938 55.3125C103.5 56.25 104.063 57 104.438 57.375C104.25 56.8125 103.875 55.6875 103.313 54.5625C101.813 52.5 100.125 51.375 97.8751 51.375C97.8751 51.5625 97.6876 51.5625 97.3126 51.5625C96.9376 51.5625 96.75 51.375 96.75 51C96.9375 51.1875 97.5 51.375 97.6875 51.375Z" fill="#01161C"/>
<path d="M119.625 63.1877C120.246 63.1877 120.75 62.6841 120.75 62.0628C120.75 61.4414 120.246 60.9377 119.625 60.9377C119.004 60.9377 118.5 61.4414 118.5 62.0628C118.5 62.6841 119.004 63.1877 119.625 63.1877Z" fill="#01161C"/>
<path d="M110.625 56.625C110.625 56.8125 110.813 57.5625 111.563 57.5625C112.313 57.5625 112.5 57.375 112.5 56.625C112.5 56.0625 112.313 55.6875 111.563 55.6875C110.813 55.6875 110.625 56.4375 110.625 56.625Z" fill="#01161C"/>
<path d="M111 53.25C112.45 53.25 113.625 52.0747 113.625 50.625C113.625 49.1752 112.45 48 111 48C109.55 48 108.375 49.1752 108.375 50.625C108.375 52.0747 109.55 53.25 111 53.25Z" fill="#01161C"/>
<path d="M112.5 61.1253C112.5 62.2503 113.437 63.1877 114.562 63.1877C115.687 63.1877 116.625 62.2503 116.625 61.1253C116.625 60.0003 115.687 59.0627 114.562 59.0627C113.437 59.0627 112.5 60.0003 112.5 61.1253Z" fill="#01161C"/>
<path d="M108.188 144.938C108.188 182.813 98.4376 186.938 98.4376 186.938L94.3126 199.313L94.1252 199.125L93.5627 198.938L85.5001 194.813L81.1876 192.563L84.9376 179.25C82.6876 174.375 87.7501 161.063 87.7501 161.063L73.8752 124.125L66.0002 124.688L35.8126 127.313C34.1251 133.875 29.4376 140.625 26.2501 145.688C13.6876 153.75 6.9376 138.563 7.6876 128.813C7.8751 121.688 15.1876 101.813 18.9376 91.6877C20.4376 87.5627 23.4376 83.8127 27.1876 81.5627L31.3127 78.9378L35.0627 76.6877C35.0627 76.6877 35.0626 71.4377 37.6876 68.4377C38.2501 67.8752 39.1876 66.9378 40.3126 66.7503C43.6876 65.0628 48.5627 64.5002 48.5627 64.5002C48.5627 64.5002 55.6877 63.0003 63.1877 62.4377C66.9377 62.2502 70.6877 61.8752 73.8752 61.8752C76.5002 61.8752 78.3751 62.0628 79.6876 63.0003C83.0626 64.6878 85.1252 69.3752 85.6877 71.0627C85.8752 71.2502 85.8751 71.6252 85.8751 71.6252C88.5001 72.1877 91.1251 73.3127 93.7501 74.8127C99.1876 77.6252 102.563 82.8752 103.875 88.8752C105.563 99.7502 108.188 120 108.188 144.938Z" fill="#FEBEB4"/>
<path d="M108.188 144.937C108.188 182.812 98.4376 186.937 98.4376 186.937C98.4376 186.937 103.875 173.437 105 156C106.5 138.375 104.063 110.063 102.375 93C100.313 76.125 85.6876 71.8125 85.6876 71.8125L67.3126 83.25C67.5001 83.0625 80.6251 71.8125 79.1251 67.5C78.0001 64.125 75.0001 62.625 73.6876 62.0625C76.3126 62.0625 78.1876 62.25 79.5001 63.1875C82.8751 64.875 84.9375 69.5625 85.5 71.25C85.6875 71.4375 85.6876 71.8125 85.6876 71.8125C88.3126 72.375 90.9376 73.5 93.5626 75C99.0001 77.8125 102.375 83.0625 103.688 89.0625C105.563 99.75 108.188 120 108.188 144.937Z" fill="#FFD6D2"/>
<path d="M85.6876 71.8123L73.8751 124.5L66.0001 125.062C67.8751 117.937 75.9376 86.8123 85.6876 71.8123Z" fill="#F9A9A0"/>
<path d="M94.5001 199.5C94.5001 199.5 90.3751 239.25 87.9376 248.437C85.1251 257.625 86.25 313.687 83.625 318.375C81.375 322.875 73.5001 325.312 73.8751 327.562C74.0626 329.625 78.1875 330.75 78.75 333.375C79.3125 336 77.6251 344.25 77.2501 345.75L72.75 348.937C72.75 348.375 73.875 341.062 65.25 340.687C56.0625 340.125 55.6876 345.187 55.6876 345.187C55.6876 345.187 53.0625 339.75 53.625 337.687C54.1875 336 55.3125 336 55.3125 336C55.3125 336 55.3126 331.5 57.5626 330.562C57.5626 330.562 53.0626 329.625 52.3126 326.062C51.7501 322.312 53.8125 294.75 59.25 289.875C59.25 289.875 55.5001 285.75 56.0626 279.75C56.6251 273.75 54.5625 239.812 50.625 225.375L8.62499 318.562C8.62499 318.562 10.3126 323.437 10.1251 325.125C9.93758 326.812 9.93752 326.812 9.93752 326.812C9.93752 326.812 11.6251 330.937 9.75006 333.375C8.06256 335.625 4.87504 339.375 3.75004 340.5C3.56254 340.687 3.56258 340.687 3.56258 340.687V345.187L-18.3749 331.875C-18.3749 331.875 -16.3125 326.625 -13.125 325.5L-17.625 319.687C-17.625 319.687 -14.25 303.937 -9.37496 301.312C-9.37496 301.312 -7.12494 277.687 0.375061 272.812L24 175.875L26.25 166.312L27.1875 163.5C27.1875 163.5 22.8751 161.25 22.3126 155.625C22.1251 153.375 24.0001 149.812 26.6251 146.062C30.0001 140.812 34.5 134.625 36.1875 127.687C35.625 125.625 35.25 123.562 34.6875 121.687C34.875 121.125 35.25 120.75 35.25 120.187C36.375 118.125 36.75 113.625 38.625 108C39.75 117.75 42 125.25 42.75 126.937L70.1251 124.687C75.0001 98.4373 84.5625 75.1872 85.875 71.9997C85.875 71.8122 85.8751 71.8123 86.0626 71.8123C88.6876 72.3748 91.5 73.4998 93.9375 74.9998C85.875 87.1873 77.8126 127.687 77.2501 132L88.125 161.25C88.125 161.25 86.4375 165.75 85.3125 170.437C84.375 173.812 84.1875 177.375 85.3125 179.25L81.5625 192.562L85.875 194.812L93.375 198.562L94.5001 199.5Z" fill="#341841"/>
<path d="M84.1875 168.75L84 182.25C84 182.25 71.6249 186.563 52.6874 186.375C40.8749 186.188 30.5625 193.875 27.1875 204.938L6.93751 273.75L3.74998 286.688L2.62503 278.438C2.62503 278.438 -5.43747 298.688 -4.87497 301.125C-4.31247 303.75 3.18746 308.063 3.37496 308.25L-6.93754 305.625L-12.1875 320.063L-5.62502 330.188L-12.75 329.063L3.37496 345.938L-18.5626 332.625C-18.5626 332.625 -16.5 327.375 -13.3125 326.25L-17.8125 320.438C-17.8125 320.438 -14.4375 304.688 -9.56247 302.063C-9.56247 302.063 -7.31256 278.438 0.187439 273.563L23.8125 176.625L26.0625 167.063L27 164.25C27 164.25 22.6875 162 22.125 156.375C21.9375 154.125 23.8124 150.563 26.4374 146.813C29.8124 141.563 34.3125 135.375 36 128.438C35.4375 126.375 35.0625 124.313 34.5 122.438C34.6875 121.875 35.0625 121.5 35.0625 120.938C36.1875 118.875 36.5625 114.375 38.4375 108.75L37.875 114.75C37.3125 119.25 37.6875 123.563 38.4375 128.25L42.5625 127.688L36.5625 135.188C36.5625 135.188 25.125 157.875 32.25 162.563C39.1875 166.875 57.75 166.875 57.75 166.875C57.75 166.875 46.5 168 35.0625 166.313C35.0625 165.375 46.3125 173.625 84.1875 168.75Z" fill="#220C2D"/>
<path d="M22.1251 115.313C22.1251 115.313 10.8751 132.188 13.3126 139.875C15.9376 147.375 25.8751 146.25 26.2501 146.25C13.6876 154.313 6.93757 139.125 7.68757 129.375C7.87507 122.25 15.1876 102.375 18.9376 92.25C20.4376 88.125 23.4376 84.375 27.1876 82.125L31.3126 79.5L35.0626 77.25C35.0626 77.25 35.0626 72 37.6876 69C38.2501 68.4375 39.1876 67.5 40.3126 67.3125C39.7501 76.125 46.1251 86.625 46.1251 86.625L32.2501 96.375L30.0001 101.25L22.1251 113.438C24.9376 118.875 34.3127 121.688 34.5002 122.063C26.4377 120.188 22.1251 115.313 22.1251 115.313Z" fill="#F9A9A0"/>
<path d="M72.5626 36.7499C72.5626 36.7499 52.125 41.6249 40.875 58.8749C40.875 58.8749 37.6875 59.8124 36.75 53.4374C35.8125 47.0624 32.2501 44.8124 33.5626 33.1874C31.8751 31.1249 30.9376 28.6874 30.9376 26.2499C30.9376 23.4374 32.0625 20.4374 34.3125 18.3749C34.3125 18.3749 34.3126 18.3749 34.5001 18.1874C35.4376 17.2499 36.5625 16.4999 37.6875 16.1249C42.1875 13.8749 48.0001 14.4374 52.3126 17.8124L56.4375 20.9999C56.4375 20.9999 67.125 21.9374 71.4375 35.0624C72.1875 35.6249 72.1876 36.1874 72.5626 36.7499Z" fill="#FEBEB4"/>
<path d="M72.375 36.7503C72.375 36.7503 53.4375 41.2502 42.1875 57.0002C42 57.5627 41.2501 58.1252 41.0626 58.6877C41.0626 58.6877 37.875 59.6252 36.9375 53.2502C36 46.8752 32.4375 44.6253 33.75 33.0003C32.0625 30.9378 31.125 28.5002 31.125 26.0627C31.125 25.5002 31.125 25.1253 31.125 24.5628C31.3125 22.3128 32.6251 20.0627 34.5001 18.1877C34.5001 18.1877 34.5 18.1878 34.6875 18.0003C35.625 17.0628 36.75 16.3127 37.875 15.9377C36.1875 18.1877 35.0625 22.5002 39 28.5002C39 28.5002 44.25 22.6877 56.625 20.6252C56.4375 20.6252 44.0626 23.8127 40.1251 30.7502C40.1251 30.7502 41.625 32.8128 43.5 34.8753C46.6875 38.6253 51.5625 39.3753 55.875 37.6878C60.75 35.4378 67.3125 33.1878 71.625 34.8753C72 35.6253 72 36.1878 72.375 36.7503Z" fill="#F9A9A0"/>
<path d="M42.0001 57.1875C41.8126 57.75 41.0625 58.3125 40.875 58.875C40.875 58.875 37.6875 59.8125 36.75 53.4375C35.8125 47.0625 32.2501 44.8125 33.5626 33.1875C31.8751 31.125 30.9376 28.6875 30.9376 26.25C30.9376 25.6875 30.9376 25.3125 30.9376 24.75C31.1251 25.875 31.5 27 32.0625 28.125C33.1875 30.375 36.1875 31.3125 38.0625 29.625L36.3751 31.6875C35.4376 32.8125 34.875 34.5 34.875 36C35.0625 39.1875 35.8125 44.25 39 48.1875C39.5625 48.5625 39.0001 57.1875 42.0001 57.1875Z" fill="#D16E69"/>
<path d="M76.5 50.8125C76.5 50.8125 75.5625 41.625 71.25 43.3125C71.25 43.3125 71.4375 45 71.4375 47.625C71.4375 52.125 70.5 59.0625 64.875 62.0625C64.6875 62.25 63.9375 62.25 63.375 62.625C53.0625 65.8125 46.875 60.5625 46.875 60.5625C46.875 60.5625 41.625 60.375 39.9375 57.75C39.9375 57.75 56.0625 32.4375 70.6875 35.625C71.0625 35.4375 82.3125 33.5625 76.5 50.8125Z" fill="#341841"/>
<path d="M49.1251 54.375C49.1251 54.375 50.25 60.75 63 56.4375C69 54.375 68.8126 58.5 65.0626 62.25C64.8751 62.4375 64.1251 62.4375 63.5626 62.8125C53.2501 66 47.0625 60.75 47.0625 60.75C47.0625 60.75 41.8126 60.5625 40.1251 57.9375C40.1251 57.9375 56.2501 32.625 70.8751 35.8125C71.0626 35.4375 57.7501 35.0625 49.1251 54.375Z" fill="#220C2D"/>
<path d="M54.5625 91.125C39.375 78.75 39.5626 70.125 40.1251 67.3125C43.5001 65.625 48.375 65.0625 48.375 65.0625C48.375 65.0625 55.5 63.5625 63 63C67.5 64.6875 72.1875 67.125 72.1875 69.375C72.5625 74.4375 54.5625 91.125 54.5625 91.125Z" fill="#D16E69"/>
<path d="M73.8751 60C73.8751 70.3125 70.5 70.875 70.5 70.875C68.25 76.125 54.7501 88.6875 54.7501 88.6875C54.7501 88.6875 52.5 85.3125 50.25 81.75C48.1875 78.375 46.125 74.8125 46.125 73.875C46.125 71.8125 48.375 69.375 48.375 69.375V63.9375C47.4375 63 47.2501 61.6875 47.2501 61.6875C42.0001 63.1875 40.6876 57.5625 40.6876 57.5625C47.8126 62.0625 53.625 59.25 57.1875 56.4375L57.375 56.25C59.0625 54.5625 61.6875 54 63.9375 54.1875C66.5625 54.375 68.8126 54 68.8126 54C68.8126 54 60.5625 53.8125 65.625 49.5C70.875 45.375 69.75 39.75 69.375 39.1875C70.875 40.125 71.625 41.4375 72.1875 43.5C73.5 47.0625 73.8751 52.875 73.8751 60Z" fill="#DB6D5E"/>
<path d="M38.4376 104.063L31.5001 101.438C31.5001 99.9375 31.1251 98.25 31.3126 97.125C31.3126 96.9375 31.3126 96.5625 31.3126 96.1875C30.7501 87.75 31.3126 82.125 31.5001 79.5L35.2501 77.25C36.7501 79.875 38.625 81.375 38.625 81.375C37.5 89.0625 37.6876 96.9375 38.4376 104.063Z" fill="#220C2D"/>
<path d="M63.9376 107.625C65.8126 107.625 67.3126 108.75 67.8751 110.438C68.4376 112.313 67.6876 113.438 66.9376 114.563C66.0001 115.5 65.2501 115.688 64.1251 115.688H46.1251C44.2501 115.688 42.7501 114.563 42.1876 112.875C41.6251 111 42.3751 109.875 43.1251 108.75C44.0626 107.813 44.8126 107.625 45.9376 107.625H63.9376Z" fill="#673D51"/>
<path d="M68.625 71.625C68.625 71.625 62.8125 74.8125 54.5625 71.625C54.5625 71.625 49.6876 75 50.0626 82.3125C48.0001 78.9375 45.9375 75.375 45.9375 74.4375C45.9375 72.375 48.1876 69.9375 48.1876 69.9375V64.5C47.2501 63.5625 47.0625 62.25 47.0625 62.25C41.8125 63.75 40.5 58.125 40.5 58.125C47.625 62.625 53.4376 59.8125 57.0001 57C55.8751 59.0625 54.375 61.875 54.9375 65.625C55.3125 71.8125 63.75 72.75 68.625 71.625Z" fill="#BC473B"/>
<path d="M57.1875 34.5C56.625 34.3125 56.25 33.9375 56.25 33.375C56.25 32.8125 56.25 32.4375 56.4375 32.25L53.625 33.9375C53.0625 34.5 52.6875 35.4375 53.0625 36C53.625 36.5625 54.5626 36.9375 55.1251 36.5625L57.9376 34.875C57.7501 34.6875 57.5625 34.6875 57.1875 34.5Z" fill="#673D51"/>
<path d="M64.6875 111.562C64.6875 112.125 64.1251 112.687 63.5626 113.062H45.3751C44.8126 112.687 44.25 112.125 44.25 111.562C44.25 111 44.8126 110.437 45.3751 110.25H63.5626C64.1251 110.437 64.6875 111 64.6875 111.562Z" fill="#220C2D"/>
<path d="M76.5 50.8125C76.5 50.8125 75.5626 42.5625 72.0001 42.9375C71.4376 41.25 70.3126 39.75 69.1876 38.625C69.0001 38.8125 77.0625 37.6875 76.5 50.8125Z" fill="#220C2D"/>
<path d="M87.9376 184.5C87.9376 184.5 85.3126 194.25 93.7501 198.937L85.6876 194.812L81.3751 192.562L85.1251 179.25C82.8751 174.375 87.9376 161.062 87.9376 161.062C87.9376 161.062 90.1875 146.062 90.1875 141.187C90.375 136.312 90.0001 87.7498 90.0001 87.7498L94.1251 127.125L101.063 113.625L93.1876 144.937L91.5001 162.75C91.5001 162.75 82.875 179.25 99.5625 183.937L87.9376 184.5Z" fill="#F9A9A0"/>
<path d="M86.6251 181.875C86.6251 181.875 81.1876 192.187 94.5001 199.5L94.3125 199.313L86.0626 195L81.75 192.75L85.5 179.438C83.25 174.563 88.3125 161.25 88.3125 161.25C88.3125 161.25 89.8125 144.375 90 129C90.1875 113.813 90.1875 87.9375 90.1875 87.9375L92.8125 135.188L98.8126 120.75C98.8126 120.938 94.6876 132.563 90.7501 142.312C90.7501 142.312 90.7501 155.625 87.5626 165.375C84.3751 175.125 84.75 180.938 96.75 183.75L86.6251 181.875Z" fill="#D16E69"/>
<path d="M93.7502 75.0002L88.8752 74.8127C81.9377 79.3127 70.3126 124.313 69.9376 125.063C74.8126 98.8127 84.3752 75.5628 85.6877 72.3753C85.6877 72.1878 85.6876 72.1877 85.8751 72.1877C88.6876 72.3752 91.1252 73.5002 93.7502 75.0002Z" fill="#220C2D"/>
<path d="M86.0626 71.8127L84.5626 74.4377C74.8126 78.7502 61.5001 88.5002 61.3126 88.8752C71.4376 78.7502 82.3126 73.1252 85.8751 71.2502C85.6876 71.4377 85.6876 71.8127 86.0626 71.8127C86.0626 71.8127 85.6876 71.8127 86.0626 71.8127Z" fill="#F9A9A0"/>
<path d="M40.5 79.6877C40.5 79.8752 45.75 88.3127 54.5625 93.1877C54.5625 93.1877 46.5001 89.4377 41.0626 84.9377L40.5 79.6877Z" fill="#F9A9A0"/>
<path d="M45.75 92.6251C45.1875 93.7501 44.0625 94.8751 42.9375 95.4376L38.4375 104.063L31.5 101.438L30 100.875L32.25 96.0001L31.125 90.7501L30 84.3751C30 83.8126 30.1875 83.2501 30.5625 83.2501H30.75C31.3125 83.2501 31.875 83.4376 32.25 84.1876L33.1875 87.3751L39.5625 73.3126C39.75 72.7501 40.5 72.3751 41.25 72.7501C41.8125 72.9376 42.1875 73.3126 42.1875 73.6876C42.1875 73.8751 42.1875 73.8751 42.1875 74.2501L40.6875 80.2501L41.8125 80.8126C43.3125 81.3751 44.4375 82.5001 45 83.6251C46.875 85.6876 47.0625 89.4376 45.75 92.6251Z" fill="#DB6D5E"/>
<path d="M33.5626 101.062L38.0625 104.25L31.125 101.625L29.625 101.062L31.8751 96.1873L30.7501 90.9373L29.625 84.5623C29.625 83.9998 29.8125 83.4373 30.1875 83.4373H30.3751C30.9376 83.4373 31.5001 83.6248 31.8751 84.3748L32.8126 87.5623L39.1876 73.4998C39.3751 72.9373 40.125 72.5623 40.875 72.9373L33.9375 90.7498L35.4376 96.7498L33.5626 101.062Z" fill="#BC473B"/>
<path d="M58.8751 92.0623C58.8751 92.0623 58.8751 99.9372 58.8751 107.625H57.0001V96.3747C57.0001 93.1872 57.9376 89.9997 59.4376 87.5622L60.3751 85.8748L58.8751 92.0623Z" fill="#F9A9A0"/>
<path d="M56.2501 124.875C56.2501 123.75 57.1876 122.813 57.1876 122.813V115.688H59.25C59.25 119.813 59.4376 122.813 59.8126 123.75C60.5626 126.188 56.2501 126 56.2501 124.875Z" fill="#F9A9A0"/>
<path d="M58.8751 110.25H57.0001V107.625H58.8751C58.8751 108.375 58.8751 109.5 58.8751 110.25Z" fill="#220C2D"/>
<path d="M59.0626 115.687H57.1876V113.062H58.8751C59.0626 113.812 59.0626 114.562 59.0626 115.687Z" fill="#220C2D"/>
<path d="M59.0626 110.25H57.1876V112.125H59.0626V110.25Z" fill="#15051E"/>
<path d="M46.3126 115.313V121.875C46.3126 121.875 45.3751 122.063 45.3751 123.375C45.3751 124.5 46.5 125.438 48 125.25V115.125L46.3126 115.313Z" fill="#F9A9A0"/>
<path d="M48.1876 115.687H46.3126V113.062H48C48.1875 113.812 48.1876 114.562 48.1876 115.687Z" fill="#220C2D"/>
<path d="M48.1876 110.25H46.3126V112.125H48.1876V110.25Z" fill="#15051E"/>
<path d="M46.3126 107.625V88.875L48.1876 89.625V108L46.3126 107.625Z" fill="#F9A9A0"/>
<path d="M61.875 86.25C62.0625 86.0625 61.8751 85.3125 61.6876 85.3125C61.5001 85.125 60.7501 85.3125 60.7501 85.5C59.2501 88.125 58.5 90.9375 59.0625 94.125V122.625C57.9375 122.813 57.5626 123.188 57.5626 123.75C57.5626 124.688 58.125 125.438 59.0625 125.438C60 125.438 60.5625 124.875 60.5625 123.938C60.5625 123.375 60.375 122.813 60 122.438V93.9375C59.8125 91.125 60.5625 88.5 61.875 86.25Z" fill="#341841"/>
<path d="M49.125 121.875V88.5C49.5 88.3125 49.125 87.9375 48.9375 87.9375C48.75 87.9375 48.375 88.125 48.1875 88.5V121.875C47.8125 122.063 47.4375 122.813 47.4375 123C47.4375 123.938 48 124.5 48.9375 124.5C49.875 124.5 50.4376 123.938 50.4376 123C50.2501 122.813 50.0625 122.063 49.125 121.875Z" fill="#341841"/>
<path d="M48.1876 110.25H46.3126V107.625H48.1876C48.1876 108.375 48.1876 109.5 48.1876 110.25Z" fill="#220C2D"/>
<path d="M31.125 97.5C29.4375 100.125 22.5001 110.063 17.2501 118.688C11.4376 128.438 11.2501 135.188 11.2501 135.188C11.2501 130.688 12.75 125.625 12.75 125.625L9.00003 129.75C9.18753 129.563 13.8751 122.25 15.3751 120.188C16.5001 118.125 29.4375 99.1875 31.125 96.375C31.125 96.375 31.125 96.9375 31.125 97.5Z" fill="#D16E69"/>
<path d="M76.5001 50.8128C79.3126 35.6253 71.0626 35.2503 71.0626 35.2503C71.0626 35.2503 82.3126 33.5628 76.5001 50.8128Z" fill="#532B68"/>
<path d="M29.8126 100.875L38.0626 103.687L40.1251 104.625L38.4376 108L35.6251 120.187L34.1251 121.312L35.2501 119.062L37.5001 107.625L31.125 105.375C31.125 105.375 37.1251 106.875 37.5001 106.875C37.6876 106.875 38.4376 105.187 38.4376 105.187L29.8126 100.875Z" fill="#FFD6D2"/>
</g>
</svg>
