<svg width="37" height="36" viewBox="0 0 37 36" fill="none" xmlns="http://www.w3.org/2000/svg">
<g clip-path="url(#clip0_880_873)">
<path d="M34.6712 12.693H2.8288C1.99137 12.693 1.3125 13.3719 1.3125 14.2093V29.3723C1.3125 30.2098 1.99137 30.8886 2.8288 30.8886H34.6712C35.5086 30.8886 36.1875 30.2098 36.1875 29.3723V14.2093C36.1875 13.3719 35.5086 12.693 34.6712 12.693Z" fill="#F1F1F2" stroke="#F1F1F2" stroke-miterlimit="10" stroke-linecap="square"/>
<path d="M18.75 12.693V5.11145" stroke="#F1F1F2" stroke-miterlimit="10" stroke-linecap="square"/>
<path d="M11.9267 21.7908H5.86145" stroke="#020305" stroke-miterlimit="10" stroke-linecap="square"/>
<path d="M8.89404 18.7582V24.8234" stroke="#020305" stroke-miterlimit="10" stroke-linecap="square"/>
<path d="M28.606 19.7742C29.3052 19.7742 29.8721 19.2073 29.8721 18.5081C29.8721 17.8088 29.3052 17.2419 28.606 17.2419C27.9067 17.2419 27.3398 17.8088 27.3398 18.5081C27.3398 19.2073 27.9067 19.7742 28.606 19.7742Z" fill="#020305"/>
<path d="M25.3231 23.0569C26.0224 23.0569 26.5892 22.49 26.5892 21.7908C26.5892 21.0915 26.0224 20.5247 25.3231 20.5247C24.6239 20.5247 24.057 21.0915 24.057 21.7908C24.057 22.49 24.6239 23.0569 25.3231 23.0569Z" fill="#020305"/>
<path d="M28.606 26.3397C29.3052 26.3397 29.8721 25.7729 29.8721 25.0736C29.8721 24.3744 29.3052 23.8075 28.606 23.8075C27.9067 23.8075 27.3398 24.3744 27.3398 25.0736C27.3398 25.7729 27.9067 26.3397 28.606 26.3397Z" fill="#020305"/>
<path d="M31.8888 23.0569C32.5881 23.0569 33.1549 22.49 33.1549 21.7908C33.1549 21.0915 32.5881 20.5247 31.8888 20.5247C31.1895 20.5247 30.6227 21.0915 30.6227 21.7908C30.6227 22.49 31.1895 23.0569 31.8888 23.0569Z" fill="#020305"/>
</g>
<defs>
<clipPath id="clip0_880_873">
<rect width="36" height="36" fill="white" transform="translate(0.75)"/>
</clipPath>
</defs>
</svg>
