<svg width="64" height="64" viewBox="0 0 64 64" fill="none" xmlns="http://www.w3.org/2000/svg">
<path d="M63 32C63 34.1109 62.5842 36.2011 61.7764 38.1513C60.9686 40.1014 59.7846 41.8734 58.292 43.3661C56.7994 44.8587 55.0274 46.0427 53.0772 46.8505C51.127 47.6583 49.0368 48.074 46.9259 48.074H17.0741C14.9632 48.074 12.873 47.6583 10.9228 46.8505C8.9726 46.0427 7.2006 44.8587 5.70799 43.3661C4.21537 41.8734 3.03136 40.1014 2.22357 38.1513C1.41577 36.2011 1 34.1109 1 32C1 29.8891 1.41577 27.7989 2.22357 25.8487C3.03136 23.8985 4.21537 22.1265 5.70799 20.6339C7.2006 19.1413 8.9726 17.9573 10.9228 17.1495C12.873 16.3417 14.9632 15.9259 17.0741 15.9259H46.9259C49.0368 15.9259 51.127 16.3417 53.0772 17.1495C55.0274 17.9573 56.7994 19.1413 58.292 20.6339C59.7846 22.1265 60.9686 23.8985 61.7764 25.8487C62.5842 27.7989 63 29.8891 63 32Z" fill="#F1F1F2"/>
<path d="M43.4815 22.8148H20.5185C19.8844 22.8148 19.3704 23.3289 19.3704 23.963V40.037C19.3704 40.6711 19.8844 41.1852 20.5185 41.1852H43.4815C44.1156 41.1852 44.6296 40.6711 44.6296 40.037V23.963C44.6296 23.3289 44.1156 22.8148 43.4815 22.8148Z" stroke="#3C20B1" stroke-miterlimit="10"/>
<path d="M14.7778 32H5.59259" stroke="#3C20B1" stroke-miterlimit="10" stroke-linecap="square"/>
<path d="M10.1852 27.4073V36.5925" stroke="#3C20B1" stroke-miterlimit="10" stroke-linecap="square"/>
<path d="M53.8148 30.0941C54.8738 30.0941 55.7322 29.2356 55.7322 28.1767C55.7322 27.1177 54.8738 26.2593 53.8148 26.2593C52.7559 26.2593 51.8974 27.1177 51.8974 28.1767C51.8974 29.2356 52.7559 30.0941 53.8148 30.0941Z" fill="#3C20B1"/>
<path d="M49.9915 33.9173C51.0505 33.9173 51.9089 33.0589 51.9089 31.9999C51.9089 30.941 51.0505 30.0825 49.9915 30.0825C48.9325 30.0825 48.0741 30.941 48.0741 31.9999C48.0741 33.0589 48.9325 33.9173 49.9915 33.9173Z" fill="#3C20B1"/>
<path d="M53.8148 37.7407C54.8738 37.7407 55.7322 36.8822 55.7322 35.8233C55.7322 34.7643 54.8738 33.9059 53.8148 33.9059C52.7559 33.9059 51.8974 34.7643 51.8974 35.8233C51.8974 36.8822 52.7559 37.7407 53.8148 37.7407Z" fill="#3C20B1"/>
<path d="M57.6382 33.9173C58.6971 33.9173 59.5556 33.0589 59.5556 31.9999C59.5556 30.941 58.6971 30.0825 57.6382 30.0825C56.5792 30.0825 55.7208 30.941 55.7208 31.9999C55.7208 33.0589 56.5792 33.9173 57.6382 33.9173Z" fill="#3C20B1"/>
</svg>
