<svg width="120" height="120" viewBox="0 0 120 120" fill="none" xmlns="http://www.w3.org/2000/svg">
<mask id="mask0_467_19177" style="mask-type:alpha" maskUnits="userSpaceOnUse" x="0" y="0" width="120" height="120">
<circle cx="60" cy="60" r="60" fill="#C4C4C4"/>
</mask>
<g mask="url(#mask0_467_19177)">
<path d="M393.938 -120H-264.375V329.625H393.938V-120Z" fill="white"/>
<path d="M96 94.8755L94.875 97.8756L91.6875 105.563L85.6875 120.563C85.6875 120.563 83.0625 123.001 82.3125 129.001C82.125 131.251 82.125 134.063 82.6875 137.438C83.0625 139.126 83.0625 140.813 83.0625 142.313C83.0625 145.501 82.3125 148.313 81.5625 150.938C81 152.438 80.625 153.75 80.0625 154.875C79.875 155.25 79.6875 155.626 79.6875 155.626C79.5 156.001 79.3125 156.188 79.3125 156.376C78.375 158.438 77.4375 159.563 77.4375 159.563L76.6875 163.126V163.313V163.501H4.5V163.313L7.3125 145.688L8.62499 137.251L13.875 135.188L14.4375 135.001L16.125 134.25C15.9375 134.25 15.5625 134.25 15.375 134.25C15 134.25 14.625 134.25 14.4375 134.25C14.25 134.25 13.875 134.25 13.6875 134.25C13.5 134.25 13.5 134.25 13.3125 134.25C12.9375 134.25 12.5625 134.25 12.375 134.25C12.1875 134.25 12.1875 134.25 12 134.25C11.8125 134.25 11.625 134.25 11.4375 134.25C11.25 134.25 11.0625 134.25 10.6875 134.25C10.5 134.25 10.3125 134.25 10.125 134.25C9.75 134.25 9.56249 134.063 9.37499 134.063C8.62499 133.876 8.24999 133.876 7.49999 133.688C7.31249 133.688 7.31248 133.688 7.12498 133.688C6.93748 133.688 6.93749 133.688 6.74999 133.501C6.56249 133.501 6.37498 133.313 6.18748 133.313C5.99998 133.313 5.81249 133.126 5.62499 133.126H5.81249C5.62499 133.126 5.43748 132.938 5.24998 132.938H5.06249C4.87499 132.938 4.87499 132.938 4.68749 132.751C4.31249 132.563 4.12499 132.563 3.93749 132.375C3.74999 132.375 3.56248 132.188 3.37498 132.188C3.18748 132.188 3.18749 132.188 2.99999 132.001C2.81249 131.813 2.43749 131.813 2.24999 131.626C2.06249 131.626 2.06249 131.438 1.87499 131.438C1.68749 131.438 1.49999 131.251 1.31249 131.251C0.937488 131.063 0.562488 130.876 0.374988 130.688C0.187488 130.688 0.187493 130.5 -6.67572e-06 130.5C-0.187507 130.313 -0.375012 130.313 -0.562512 130.126C-0.937512 129.938 -1.12502 129.751 -1.31252 129.376C-1.50002 129.188 -1.50001 129.188 -1.68751 129.001L-1.87501 128.813C-2.06251 128.626 -2.43751 128.438 -2.62501 128.063C-2.81251 127.876 -3 127.875 -3 127.688C-3.1875 127.5 -3.18751 127.501 -3.37501 127.313C-3.37501 127.313 -3.37501 127.313 -3.56251 127.126C-3.75001 126.938 -3.75 126.938 -3.9375 126.75C-4.125 126.563 -4.12501 126.376 -4.31251 126.188C-4.50001 126.001 -4.50001 125.813 -4.68751 125.813C-4.68751 125.625 -4.875 125.626 -4.875 125.438C-4.875 125.438 -4.87502 125.251 -5.06252 125.251C-5.25002 125.063 -5.43751 124.688 -5.62501 124.501C-5.62501 124.501 -5.625 124.313 -5.8125 124.313C-6 123.938 -6.18751 123.563 -6.56251 123.376C-6.56251 123.376 -6.5625 123.188 -6.75 123.188C-6.75 123.001 -6.93752 123.001 -6.93752 122.813C-7.12502 122.438 -7.31251 122.063 -7.50001 121.876V121.688C-7.68751 121.126 -7.87502 120.751 -7.87502 120.376V120.188C-7.87502 120 -7.87502 120.001 -7.87502 119.813C-7.87502 119.813 -7.87502 119.813 -7.87502 119.626V119.438C-7.87502 119.438 -7.87502 119.438 -7.87502 119.25V119.063C-7.87502 119.063 -7.87502 119.063 -7.87502 118.876L-6.67572e-06 95.2505C1.12499 91.688 3.74998 88.5006 7.12498 86.6256L21.5625 78.0005L25.3125 81.188L24.375 81.7505C24.375 81.7505 29.25 86.4381 35.625 91.3131C42.375 96.5631 50.8125 101.813 55.6875 101.251C65.0625 99.938 65.625 81.3756 65.625 81.3756C65.625 81.3756 65.8125 81.3756 66.1875 81.3756L80.8125 83.438C84.9375 84.0005 88.5 86.063 91.125 89.2505L96 94.8755Z" fill="#4C9CA3"/>
<path d="M30 111C30 111 30.75 151.126 48.9375 154.126L58.6875 152.251C58.6875 152.251 37.3125 150.751 30 111Z" fill="#28878D"/>
<path d="M90.75 69.1873C90 76.1248 84.75 78.1873 79.875 79.1248C77.4375 79.6873 75.1875 79.8747 73.5 79.8747C76.875 77.4372 80.625 72.3748 83.25 61.6873C84.5625 56.6248 85.3125 52.1248 85.3125 48.3748C86.8125 52.1248 91.5 62.2498 90.75 69.1873Z" fill="#231F20"/>
<path d="M85.5 74.2502C85.5 74.0627 86.625 71.4378 84.75 68.2503C84.75 68.2503 85.5 75.7503 79.6875 79.5003C77.25 80.0628 75 80.2502 73.3125 80.2502C76.6875 77.8127 80.4375 72.7502 83.0625 62.0627C84.375 57.0002 85.125 52.5002 85.125 48.7502C85.5 49.3127 91.6875 68.0627 85.5 74.2502Z" fill="#111010"/>
<path d="M60.375 103.125C60 103.313 47.4375 109.875 28.3125 91.1252L20.625 85.1253L14.8125 88.6877C11.0625 90.9377 8.81249 95.0627 8.81249 99.5627V112.875V115.688C8.81249 115.688 6.74999 118.875 3.93749 123C3.56249 123.563 3.18749 123.75 3.18749 124.313C2.06249 126.188 0.56249 127.875 -0.75001 129.75L-0.937507 129.563C-1.12501 129.375 -1.50001 129.188 -1.68751 128.813C-1.87501 128.625 -2.0625 128.625 -2.0625 128.438C-2.25 128.25 -2.25001 128.25 -2.43751 128.063C-2.43751 128.063 -2.43751 128.063 -2.62501 127.875C-2.81251 127.688 -2.8125 127.688 -3 127.5C-3.1875 127.313 -3.18751 127.125 -3.37501 126.938C-3.56251 126.75 -3.56251 126.563 -3.75001 126.563C-3.75001 126.375 -3.9375 126.375 -3.9375 126.188C-3.9375 126.188 -3.93752 126 -4.12502 126C-4.31252 125.813 -4.50001 125.438 -4.68751 125.25C-4.68751 125.25 -4.6875 125.063 -4.875 125.063C-5.0625 124.688 -5.25001 124.313 -5.62501 124.125C-5.62501 124.125 -5.625 123.938 -5.8125 123.938C-5.8125 123.75 -6.00002 123.75 -6.00002 123.563C-6.18752 123.188 -6.37501 122.813 -6.56251 122.625V122.438C-6.75001 121.875 -6.93752 121.5 -6.93752 121.125V120.938C-6.93752 120.75 -6.93752 120.75 -6.93752 120.563C-6.93752 120.563 -6.93752 120.563 -6.93752 120.375V120.188C-6.93752 120.188 -6.93752 120.188 -6.93752 120V119.813C-6.93752 119.813 -6.93752 119.813 -6.93752 119.625L0.937493 96.0003C2.06249 92.4378 4.68748 89.2502 8.06248 87.3752L22.5 78.7502L26.25 81.9378L25.3125 82.5002C25.3125 82.5002 30.1875 87.1877 36.5625 92.0627C41.25 97.5002 51 106.125 60.375 103.125Z" fill="#28878D"/>
<path d="M63.1875 163.125C63 163.125 62.8125 163.312 62.8125 163.312C62.625 163.312 62.4375 163.5 62.25 163.5H4.125V163.312L6.9375 145.687L8.25001 137.25L13.5 135.187L14.0625 135L15.75 134.25C15.5625 134.25 15.1875 134.25 15 134.25C14.625 134.25 14.25 134.25 14.0625 134.25C13.875 134.25 13.5 134.25 13.3125 134.25C13.125 134.25 13.125 134.25 12.9375 134.25C12.5625 134.25 12.1875 134.25 12 134.25C11.8125 134.25 11.8125 134.25 11.625 134.25C11.4375 134.25 11.25 134.25 11.0625 134.25C10.875 134.25 10.6875 134.25 10.3125 134.25C10.125 134.25 9.9375 134.25 9.75 134.25C9.375 134.25 9.1875 134.062 9 134.062C8.25 133.875 7.875 133.875 7.125 133.687C6.9375 133.687 6.9375 133.687 6.75 133.687C6.5625 133.687 6.56251 133.687 6.37501 133.5C6.18751 133.5 6 133.312 5.8125 133.312C5.625 133.312 5.43749 133.125 5.24999 133.125H5.0625C4.875 133.125 4.68751 132.938 4.50001 132.938H4.31249C4.12499 132.938 4.125 132.937 3.9375 132.75C3.5625 132.562 3.375 132.562 3.1875 132.375C3 132.375 2.81251 132.187 2.62501 132.187C2.43751 132.187 2.4375 132.188 2.25 132C2.0625 131.813 1.68749 131.812 1.49999 131.625C1.31249 131.625 1.3125 131.437 1.125 131.437C1.875 131.062 3 130.687 3.75 130.687C6.375 129.937 9 129.187 11.4375 128.625C12.1875 128.437 12.5625 128.438 13.3125 128.25C19.3125 127.125 23.625 126.937 23.625 126.937C23.625 126.937 23.625 126.375 23.625 125.438C23.8125 120 23.625 100.875 14.25 91.6875C14.25 91.6875 25.125 96.375 27.9375 120C29.4375 132.562 32.25 141.937 38.4375 147.562C43.875 152.625 51.75 155.062 63.75 155.062C65.25 155.062 66.5625 155.25 67.5 155.438C68.625 155.625 69.375 156 69.5625 156.187C72.1875 157.875 69 160.312 63.1875 163.125Z" fill="#28878D"/>
<path d="M128.25 149.438L119.812 160.126L117.187 157.126L85.6875 120.563L94.875 97.688L96.75 100.313L128.25 149.438Z" fill="#FF8F6A"/>
<path d="M117.188 157.125L85.6875 120.751L94.875 97.8755L96.75 100.5L92.0625 116.813L120.375 152.25C120 152.063 126.75 156 117.188 157.125Z" fill="#F05E2B"/>
<path d="M85.3125 47.2505C85.3125 47.813 85.3125 48.0005 85.3125 48.563C85.125 52.313 84.5625 56.6255 83.25 61.8755C83.25 62.063 83.0625 62.438 83.0625 62.6255C83.0625 62.813 82.875 63.1879 82.875 63.3754C82.875 63.5629 82.6875 63.7505 82.6875 64.1255C82.6875 64.313 82.5 64.5005 82.5 64.688C82.5 64.8755 82.3125 65.0629 82.3125 65.2504C82.3125 65.4379 82.125 65.6254 82.125 65.8129V66.0005C82.125 66.188 81.9375 66.3755 81.9375 66.563C81.75 67.1255 81.5625 67.5005 81.375 67.8755C81.375 68.063 81.375 68.063 81.1875 68.2505C81.1875 68.438 81 68.6254 81 68.6254C80.4375 69.7504 80.0625 70.8755 79.5 72.0005C79.5 72.188 79.3125 72.1879 79.3125 72.3754C79.3125 72.3754 79.3125 72.563 79.125 72.563C79.125 72.7505 78.9375 72.7505 78.9375 72.938C78.75 73.1255 78.75 73.313 78.5625 73.5005C78.375 73.8755 78.1875 74.2505 78 74.438C77.8125 74.6255 77.8125 74.813 77.625 75.0005C77.0625 75.7505 76.6875 76.688 76.125 77.2505L75.9375 77.4379C75.75 77.8129 75.375 78.0005 75.1875 78.188C75 78.3755 75 78.3755 74.8125 78.563C74.25 79.1255 74.0625 79.5004 73.5 79.8754L73.3125 80.063C73.125 80.2505 72.9375 80.438 72.75 80.438C72.75 80.438 72.5625 80.438 72.5625 80.6255L72.375 80.8129C71.4375 81.5629 70.5 81.938 69.75 82.313C67.875 83.063 66.375 83.0629 65.8125 83.0629C65.4375 83.0629 65.25 83.0629 65.25 83.0629C65.25 83.0629 65.25 83.2505 65.25 83.438C65.0625 85.8755 63.75 101.626 55.3125 102.938C45.9375 104.251 24.1875 83.813 24.1875 83.813L25.125 83.2505L28.125 81.563C28.875 82.1255 29.4375 82.5004 30.1875 83.0629C30.5625 83.2504 30.75 83.4379 30.9375 83.6254C39.5625 88.8754 44.625 85.313 46.125 83.438C46.6875 82.8755 46.875 82.6879 46.875 82.6879C46.875 82.6879 46.3125 83.2505 45.75 83.438C43.875 84.3755 40.6875 85.8755 37.5 83.813C37.5 83.813 38.625 84.0005 40.125 83.438C41.625 82.8755 43.5 81.5629 44.8125 78.3754C44.8125 78.3754 48.1875 84.3755 53.625 81.563C53.625 81.563 46.6875 81.938 46.6875 72.563C46.6875 72.563 46.6875 72.1879 46.6875 71.8129C47.0625 68.2504 48.9375 52.688 53.625 47.2505C55.875 44.6255 60.9375 41.438 66.1875 38.813C73.3125 35.2505 80.25 32.2505 80.25 32.2505C80.25 32.2505 85.5 35.438 85.3125 47.2505Z" fill="#FF8F6A"/>
<path d="M85.3125 47.2506C85.5 35.4381 81.1875 31.1255 81.1875 31.1255C81 31.313 72.375 34.688 64.6875 39.0005C60.375 41.2505 56.4375 43.8755 54.75 46.1255C50.625 50.813 48.75 63.188 48 68.6255C47.8125 69.3755 47.8125 70.1256 47.8125 70.6881C47.8125 71.0631 47.8125 71.2505 47.8125 71.438C47.8125 80.813 54.75 80.4381 54.75 80.4381C49.3125 83.2506 45.9375 77.2506 45.9375 77.2506C44.4375 81.7506 41.625 82.5005 39.9375 82.688C39.1875 82.688 38.625 82.688 38.625 82.688C43.125 85.688 47.8125 81.7506 48.1875 81.5631C48 81.9381 43.125 89.438 31.6875 82.1255C30.9375 81.563 30.375 81.1881 29.625 80.6256C20.25 72.9381 22.6875 60.3756 22.875 60.0006C20.8125 64.8756 22.3125 70.1256 22.3125 70.3131C19.125 64.6881 19.3125 57.5631 27.1875 47.8131C35.0625 38.2506 39.75 20.063 52.3125 15.563C57.5625 13.8755 62.0625 13.6881 65.625 14.4381C74.8125 16.1256 79.3125 22.5005 79.3125 22.5005C90.1875 30.9381 86.625 43.6881 85.3125 47.2506Z" fill="#231F20"/>
<path d="M86.25 70.8755C86.4375 70.313 86.4375 69.938 86.0625 69.0005C85.6875 67.8755 83.625 64.313 82.6875 63.0005C82.5 63.7505 82.125 64.5005 81.9375 65.2505C82.6875 66.188 83.625 67.5005 84 68.438C84.5625 69.188 84.75 69.7506 84.75 70.1256C84.1875 69.9381 83.8125 69.9381 83.4375 70.1256L82.125 71.6256L84.5625 73.688L85.875 72.188C86.8125 72.0005 86.625 71.438 86.25 70.8755Z" fill="#F9D8AD"/>
<path d="M82.5 71.8123C82.875 71.4373 83.625 71.6248 84.375 72.1873C85.125 72.7498 85.3125 73.4998 84.9375 74.0623C84.5625 74.4373 83.8125 74.2498 83.0625 73.6873C82.3125 72.9373 82.125 72.1873 82.5 71.8123Z" fill="#EDAA15"/>
<path d="M24.75 127.312L15.9375 134.625C15.75 134.625 15.375 134.625 15.1875 134.625C14.8125 134.625 14.4375 134.625 14.25 134.625C14.0625 134.625 13.6875 134.625 13.5 134.625C13.3125 134.625 13.3125 134.625 13.125 134.625C12.75 134.625 12.375 134.625 12.1875 134.625C12 134.625 12 134.625 11.8125 134.625C11.625 134.625 11.4375 134.625 11.25 134.625C11.0625 134.625 10.875 134.625 10.5 134.625C10.3125 134.625 10.125 134.625 9.93747 134.625C9.56247 134.625 9.37498 134.437 9.18748 134.437C8.43748 134.25 8.06248 134.25 7.31248 134.062C7.12498 134.062 7.12497 134.062 6.93747 134.062C6.74997 134.062 6.74998 134.062 6.56248 133.875C6.37498 133.875 6.18747 133.687 5.99997 133.687C5.81247 133.687 5.62498 133.5 5.43748 133.5H5.81248C5.62498 133.5 5.43747 133.312 5.24997 133.312H5.06247C4.87497 133.312 4.87498 133.312 4.68748 133.125C4.31248 132.937 4.12498 132.937 3.93748 132.75C3.74998 132.75 3.56247 132.562 3.37497 132.562C3.18747 132.562 3.18748 132.562 2.99998 132.375C2.81248 132.187 2.43747 132.187 2.24997 132C2.06247 132 2.06248 131.812 1.87498 131.812C1.68748 131.812 1.49997 131.625 1.31247 131.625C0.937472 131.437 0.562472 131.25 0.374972 131.062C0.187472 131.062 0.187478 130.875 -2.19345e-05 130.875C-0.187522 130.687 -0.375028 130.687 -0.562528 130.5C-0.937528 130.312 -1.12503 130.125 -1.31253 129.75C-1.50003 129.562 -1.50002 129.562 -1.68752 129.375L-1.87502 129.187C-2.06252 129 -2.43752 128.812 -2.62502 128.437C-2.81252 128.25 -3.00002 128.25 -3.00002 128.062C-3.18752 127.875 -3.18753 127.875 -3.37503 127.687C-3.37503 127.687 -3.37502 127.687 -3.56252 127.5C-3.75002 127.312 -3.75002 127.312 -3.93752 127.125C-4.12502 126.937 -4.12503 126.75 -4.31253 126.562C-4.50003 126.375 -4.50002 126.187 -4.68752 126.187C-4.68752 126 -4.87502 126 -4.87502 125.812C-4.87502 125.812 -4.87503 125.625 -5.06253 125.625C-5.25003 125.437 -5.43752 125.062 -5.62502 124.875C-5.62502 124.875 -5.62502 124.687 -5.81252 124.687C-6.00002 124.312 -6.18752 123.937 -6.56252 123.75C-6.56252 123.75 -6.56252 123.562 -6.75002 123.562C-6.75002 123.375 -6.93753 123.375 -6.93753 123.187C-7.12503 122.812 -7.31252 122.437 -7.50002 122.25V122.062C-7.68752 121.5 -7.87503 121.125 -7.87503 120.75V121.875C-7.87503 121.687 -7.87503 121.687 -7.87503 121.5C-7.87503 121.5 -7.87503 121.5 -7.87503 121.312V121.125C-7.87503 121.125 -7.87503 121.125 -7.87503 120.937V120.75C-7.87503 120.75 -7.87503 120.75 -7.87503 120.562C-7.50003 119.625 -5.62502 115.5 0.937478 113.812C2.81248 113.25 4.68747 113.062 7.12497 113.062H7.31248C18.9375 113.437 23.0625 121.687 23.25 126.187C24.75 126.375 24.75 126.937 24.75 127.312Z" fill="#231F20"/>
<path d="M116.437 146.25L114 158.25H109.687V157.688C109.687 156.938 109.125 156.563 108.562 156.563H43.6875C42.9375 156.563 42.5625 157.125 42.5625 157.688V158.25H34.875C33.5625 158.25 32.25 158.813 31.5 159.75C30.75 160.5 30 161.813 30 163.125H104.062L103.5 163.313H9.74999L7.3125 145.688L5.4375 132.938L5.06249 130.875L4.12499 123.75L3.93749 122.813L2.625 113.25C4.5 112.688 6.37499 112.5 8.81249 112.5H8.99999C20.625 112.875 24.75 121.125 24.9375 125.625C24.9375 126.188 24.9375 126.75 24.9375 127.125L29.0625 146.625C29.0625 146.625 33.5625 147 40.125 147.375C52.125 148.313 71.0625 149.813 82.125 150.563C86.8125 150.938 90.1875 151.125 90.9375 150.938C93.1875 150.75 104.25 147.938 111 146.25C112.313 145.875 113.625 145.688 114.937 145.688C115.125 146.063 115.875 146.25 116.437 146.25Z" fill="#FF8F6A"/>
<path d="M191.812 76.3125L173.25 163.125H29.8125C29.8125 161.812 30.375 160.5 31.3125 159.75C32.0625 159 33.375 158.25 34.6875 158.25H114L131.25 75.75L191.812 76.3125Z" fill="#FCBD4B"/>
<path d="M54.5625 80.2502C49.125 83.0627 45.75 77.0627 45.75 77.0627C41.25 70.8752 40.5 63.9377 40.5 63.9377L41.8125 51.7502C41.8125 51.7502 43.3125 28.3128 51.9375 21.9378C60.5625 15.7503 71.0625 17.2503 71.0625 17.2503C55.125 18.0003 50.0625 38.2503 50.0625 38.2503C60.75 29.6253 73.6875 28.6877 73.6875 28.6877C52.875 33.0002 47.625 45.7503 47.625 45.7503C52.3125 55.6878 47.625 62.2503 47.625 62.2503C47.625 64.5003 47.8125 66.5628 48.1875 68.2503C48 69.0003 48 69.7502 48 70.3127C48 70.6877 48 70.8753 48 71.0628C47.625 80.8128 54.5625 80.2502 54.5625 80.2502Z" fill="#111010"/>
<path d="M64.125 19.3126L58.3125 22.1251C58.3125 22.1251 45.75 26.0627 44.625 45.3752C44.625 45.3752 48.5625 46.1251 48.5625 55.3126C48.5625 64.5001 40.3125 63.9376 40.3125 63.9376C40.3125 63.9376 40.125 62.8127 39.9375 60.7502C39.5625 57.7502 39.375 53.2501 39.9375 47.8126C40.3125 43.8751 41.0625 39.3751 42.375 35.2501C47.0625 22.1251 53.25 16.1252 66 17.2502C66 17.2502 59.25 18.0001 53.4375 21.5626C54 21.5626 59.0625 19.3126 64.125 19.3126Z" fill="#F9D8AD"/>
<path d="M40.875 35.4379C32.25 63.3754 42.375 77.2503 42.5625 77.4378C42.375 77.2503 36.9375 72.0003 35.25 66.7503C35.25 66.7503 33.1875 73.6878 36.375 78.0003C39.5625 82.5003 43.6875 78.3753 43.875 78.3753C43.875 78.5628 42.1875 82.1253 38.625 82.5003C43.125 85.5003 47.8125 81.5629 48.1875 81.3754C48 81.7504 43.125 89.2504 31.6875 81.9379C30.9375 81.3754 30.375 81.0004 29.625 80.4379C20.25 72.7504 22.6875 60.1879 22.875 59.8129C20.8125 64.6879 22.3125 69.9379 22.3125 70.1254C19.125 64.5004 19.3125 57.3754 27.1875 47.6254C35.0625 38.0629 39.75 19.8754 52.3125 15.3754C57.5625 13.6879 62.0625 13.5003 65.625 14.2503C57.5625 14.6253 46.125 18.3754 40.875 35.4379Z" fill="#111010"/>
<path d="M45.1875 54.5624C45.1875 58.3124 43.3125 61.3125 41.25 61.3125C40.875 61.3125 40.5 61.125 40.125 60.9375C39.75 57.9375 39.5625 53.4374 40.125 47.9999C40.5 47.8124 40.875 47.625 41.25 47.625C43.3125 47.8125 45.1875 50.8124 45.1875 54.5624Z" fill="#EA6044"/>
<path d="M116.437 146.25L114 158.25H109.687V157.688C109.687 156.938 109.125 156.563 108.562 156.563H43.6875C42.9375 156.563 42.5625 157.125 42.5625 157.688V158.25H34.875C33.5625 158.25 32.25 158.813 31.5 159.75C30.75 160.5 30 161.813 30 163.125H104.062L103.5 163.313H9.74999L7.3125 145.688L5.4375 132.938L5.06249 130.875L4.12499 123.75L3.93749 122.813L2.625 113.25C4.5 112.688 6.37499 112.5 8.81249 112.5H8.99999C20.625 112.875 24.75 121.125 24.9375 125.625C24.9375 126.188 24.9375 126.75 24.9375 127.125C24.9375 127.125 21.375 119.625 11.8125 122.438V122.813L12.75 128.813L13.5 134.438L13.6875 135.375L14.0625 137.625L16.875 155.438C16.875 155.438 43.6875 155.625 68.8125 155.625C72.5625 155.625 76.3125 155.625 80.0625 155.625C97.5 155.625 111.75 155.625 111.75 155.438C111.75 155.25 113.437 150.188 114.937 146.063C115.125 146.063 115.875 146.25 116.437 146.25Z" fill="#F05E2B"/>
<path d="M25.3125 82.688C25.3125 82.688 21.9375 80.438 22.6875 78.938L26.4375 82.1255L25.3125 82.688Z" fill="#111010"/>
<path d="M90.375 104.438L91.875 105.375L85.875 120.375C85.875 120.375 83.25 122.813 82.5 128.813L79.5 99.7505L83.4375 118.876L88.875 89.438L87.9375 106.875L93.1875 92.2505L90.375 104.438Z" fill="#28878D"/>
<path d="M45.9375 121.688L66.5625 119.625C67.5 119.437 68.25 118.687 68.0625 117.562C67.875 116.812 67.3125 116.25 66.375 116.25L45.75 116.062C43.875 116.062 42.5625 117.562 42.9375 119.437C43.3125 120.75 44.625 121.688 45.9375 121.688Z" fill="#F73C4F"/>
<path d="M49.3125 35.6256C49.3125 35.6256 58.3125 19.8755 76.125 21.7505C76.125 21.7505 58.875 22.313 50.0625 38.6255L49.3125 35.6256Z" fill="#111010"/>
<path d="M131.25 75.75L120.562 163.125H114V158.25L122.437 117.562L122.812 115.875L131.25 75.75Z" fill="#F4A422"/>
<path d="M77.4375 34.1256L81.375 31.1255C81.1875 31.1255 74.0625 34.1255 67.3125 37.688C62.25 40.313 57 43.5005 54.75 46.1255C50.0625 51.563 48.1875 66.9381 47.8125 70.6881C47.8125 71.2506 47.8125 71.438 47.8125 71.438C47.8125 80.813 54.75 80.4381 54.75 80.4381C49.3125 83.2506 45.9375 77.2506 45.9375 77.2506C44.8125 80.6256 42.9375 81.9381 41.25 82.3131C39.75 82.8756 38.625 82.688 38.625 82.688C41.8125 84.7505 45 83.4381 46.875 82.3131C47.625 81.7506 48 81.563 48 81.563C48 81.563 47.625 81.9381 47.25 82.3131C45.5625 84.1881 40.875 87.7505 32.0625 82.5005C31.875 82.313 31.5 82.1256 31.3125 81.9381C30.5625 81.3756 30 81.0006 29.25 80.4381L26.25 82.1255L25.3125 82.688C25.3125 82.688 47.25 103.313 56.4375 101.813C65.0625 100.501 66.375 84.7506 66.375 82.3131C66.375 82.1256 66.375 81.9381 66.375 81.9381C66.375 81.9381 66.5625 81.9381 66.9375 81.9381C67.6875 81.9381 69 81.938 70.875 81.188C63.375 80.438 60.9375 73.8755 60.9375 66.188C60.9375 53.813 66.9375 41.8131 77.4375 34.1256ZM48.375 97.3131L57 79.1256C60.9375 81.1881 64.125 82.313 66.75 82.5005C63 106.126 48.375 97.3131 48.375 97.3131Z" fill="#F05E2B"/>
<path d="M122.812 115.875L122.437 117.75C121.125 116.063 118.687 113.438 114.375 112.875C107.062 111.563 97.6875 116.625 86.8125 127.313C80.25 133.875 73.3125 137.813 66.75 138.563C65.8125 138.75 64.875 138.75 63.9375 138.75C59.25 138.75 54.9375 137.063 51.5625 134.063C47.8125 130.688 45.5625 125.438 45.1875 120.188C44.8125 114.375 47.0625 108.563 51.1875 103.688C58.125 95.4377 59.25 85.3128 54.9375 73.5003C51.5625 64.6878 46.3125 58.3127 46.125 58.1252L47.25 57.1877C47.4375 57.5627 52.875 63.9378 56.25 72.9378C58.3125 78.3753 59.25 83.4377 58.875 88.1252C58.5 94.1253 56.25 99.5628 52.3125 104.438C43.875 114.375 45.9375 126.75 52.6875 132.938C56.4375 136.313 61.3125 137.813 66.5625 137.063C72.75 136.313 79.3125 132.375 85.6875 126C96.9375 114.75 106.5 109.688 114.375 111.188C118.5 111.938 121.125 114 122.812 115.875Z" fill="#F9D8AD"/>
<path d="M48.375 56.6255C48.375 56.813 49.5 58.5005 50.4375 59.438C50.8125 60.0005 50.8125 60.563 50.4375 61.313C49.6875 62.2505 48.375 62.2504 47.8125 61.5004L47.0625 60.3755L48.375 56.6255Z" fill="#F9D8AD"/>
</g>
</svg>
