<svg width="120" height="120" viewBox="0 0 120 120" fill="none" xmlns="http://www.w3.org/2000/svg">
<mask id="mask0_467_19174" style="mask-type:alpha" maskUnits="userSpaceOnUse" x="0" y="0" width="120" height="120">
<circle cx="60" cy="60" r="60" fill="#C4C4C4"/>
</mask>
<g mask="url(#mask0_467_19174)">
<path d="M210 -9.56274H-41.6249V409.687H210V-9.56274Z" fill="white"/>
<path d="M102 134.625C102 134.625 111.938 137.437 124.688 125.625C124.5 125.625 106.875 117.375 102 134.625Z" fill="#260121"/>
<path d="M124.5 125.625C124.5 125.625 108.188 125.25 101.813 134.625L97.1251 125.25L99.0001 160.875L96.1876 170.25H99.7499L94.1249 184.5L92.4376 188.437C92.2501 188.437 91.6874 188.625 90.3749 189.187C85.3124 190.875 69.7499 194.062 33.1874 194.062C33.1874 194.062 29.6251 192.375 26.0626 190.312C23.0626 188.625 20.0625 186.562 18.75 184.687C18.75 184.687 22.6876 170.062 31.5001 170.062V144.375H12.7501C12.7501 144.375 16.6874 102 20.9999 93.3745C25.4999 84.562 44.8125 75.7496 45 75.7496C45 75.9371 43.8751 81.3746 54.0001 81.3746C54.3751 81.3746 54.7501 81.3746 55.1251 81.3746C64.5001 80.9996 72.1875 74.812 75 70.8745C75.1875 70.4995 75.3751 70.1245 75.7501 69.937C75.7501 69.937 91.1249 71.0621 99.7499 77.6246C108.187 83.6246 124.5 125.625 124.5 125.625Z" fill="#DBD2D1"/>
<path d="M104.625 86.9995L97.3126 96.3745L106.688 124.687C106.688 124.687 113.812 121.499 123.187 123.749C123.187 123.749 106.875 123.562 102.375 134.812L96.75 122.625V137.249L99.1876 160.874L96.3751 170.249L91.125 186.749L96 158.25L95.2501 133.312L84.5625 168.937L92.6251 94.3119L104.625 86.9995Z" fill="#B2A4A3"/>
<path d="M92.4376 188.062C92.2501 188.062 91.6874 188.437 90.3749 188.812C85.3124 190.499 69.7499 193.687 33.1874 193.687C33.1874 193.687 29.6251 191.999 26.0626 189.937C23.0626 188.249 20.0625 186.187 18.75 184.312C18.75 184.312 22.6876 169.687 31.5001 169.687V143.999H12.7501C12.7501 143.999 16.6874 101.624 20.9999 92.9992C25.4999 84.1867 44.8125 75.3743 45 75.3743C45 75.5618 43.8751 80.9993 54.0001 80.9993C54.3751 80.9993 54.7501 80.9993 55.1251 80.9993C57.1876 82.3118 63.7499 84.7492 75.3749 76.4992C75.1874 76.6867 64.5001 88.3118 39.9376 84.7493C30.3751 89.4368 25.6875 100.124 28.3125 110.249L33.1874 128.624L35.9999 101.812L38.4375 171.187C38.4375 171.187 53.4375 175.687 77.0625 171.187C77.0625 171.187 65.25 180.562 33.9375 180.562C34.125 180.562 56.2501 194.624 92.4376 188.062Z" fill="#B2A4A3"/>
<path d="M67.6874 63.7493L67.5 63.9368V64.1243C68.25 69.1868 73.5 70.3118 74.8125 70.6868C72.375 74.2493 65.8125 79.3118 57.9375 80.6243C56.625 80.8118 55.1249 80.9993 53.8124 80.9993C43.6874 80.9993 44.4375 75.7493 44.8125 75.3743C50.0625 72.5618 49.5001 64.6868 49.3126 62.2493C45.5626 58.1243 45.3749 52.1243 45.3749 52.1243C45.3749 52.1243 41.4376 51.3743 40.8751 46.1243C40.6876 42.3743 42.1874 41.4369 43.3124 41.0619C43.4999 41.2494 43.6875 41.4368 44.0625 41.4368C44.0625 41.4368 44.0625 44.6243 45 47.9993C45 47.9993 45.3749 38.9994 48.9374 35.4369C48.9374 35.4369 49.3124 36.5618 48.9374 38.6243C48.9374 38.6243 51.75 37.6869 51.375 32.6244C51.1875 28.6869 53.0626 26.9993 55.8751 26.6243C56.6251 26.4368 57.5624 26.4368 58.3124 26.4368C62.4374 26.4368 63.5626 29.2493 63.3751 33.3743C63.1876 37.4993 69.3749 39.5618 72.3749 39.3743C72.3749 39.3743 72.75 44.4368 72 50.0618C72 50.0618 72.75 48.9369 73.125 47.6244C73.5 46.8744 73.875 45.9368 74.0625 45.1868C74.0625 45.1868 74.25 45.1869 74.8125 44.8119C75.5625 45.1869 76.5 46.6868 75.75 49.8743C74.625 55.4993 70.8751 55.4993 70.8751 55.4993C70.8751 55.4993 71.2499 60.3743 67.6874 63.7493Z" fill="#DB6D5E"/>
<path d="M75.375 45.1867C75 45.3742 74.6252 45.5617 74.6252 45.5617C73.8752 47.9992 72.1876 50.4368 72.1876 50.4368C73.1251 45.1868 72.5625 39.7492 72.5625 39.7492C69.75 39.9367 63.9376 38.0618 63.5626 34.4993C63.5626 34.3118 63.5626 34.1242 63.5626 33.7492C63.7501 29.6242 62.8125 26.8117 58.5 26.8117C57.5625 26.8117 56.6251 26.8118 56.0626 26.9993C53.2501 27.3743 51.3751 29.0617 51.5626 32.9992C51.7501 37.8742 49.125 38.8117 49.125 38.9992C49.5 36.5617 49.125 35.8117 49.125 35.8117C45.9375 38.9992 45.375 47.4367 45.1875 48.3742C44.8125 47.0617 44.4375 45.5617 44.4375 44.4367C44.25 42.7492 44.25 41.6242 44.25 41.6242C44.0625 41.6242 43.875 41.4367 43.5 41.2492C41.625 39.5617 37.8751 33.1867 43.8751 24.7492C50.6251 15.3742 59.8126 20.9992 59.8126 20.9992C63.7501 17.0617 74.0626 20.0617 77.8126 31.4992C81.3751 40.4992 77.25 44.0617 75.375 45.1867Z" fill="#260121"/>
<path d="M72.1137 99.2718L40.8076 99.9663L41.5561 133.71L72.8623 133.015L72.1137 99.2718Z" fill="#260121"/>
<path d="M48.75 99.374L40.4999 108.187V103.687L44.4374 99.5615L48.75 99.374Z" fill="#DB6D5E"/>
<path d="M57.7501 99.374L40.6874 117.187V112.499L53.0626 99.374H57.7501Z" fill="#DB6D5E"/>
<path d="M66.5625 99.187L40.8751 125.999L40.6874 121.312L61.875 99.187H66.5625Z" fill="#DB6D5E"/>
<path d="M71.6249 98.8118V102.937L42.375 133.312H41.0626L40.8751 130.499L70.8751 98.8118H71.6249Z" fill="#DB6D5E"/>
<path d="M71.6249 106.874L72.0001 111.562L50.9999 133.311H46.6876L71.6249 106.874Z" fill="#DB6D5E"/>
<path d="M72 116.062L72.1875 120.374L59.8125 133.124H55.4999L72 116.062Z" fill="#DB6D5E"/>
<path d="M52.5 67.4995C52.5 67.4995 49.5 77.6245 58.125 80.6245C56.8125 80.812 55.3126 80.9995 54.0001 80.9995C43.8751 80.9995 44.625 75.7495 45 75.3745C50.25 72.562 49.6875 64.687 49.5 62.2495C45.75 58.1245 45.5626 52.1244 45.5626 52.1244C45.5626 52.1244 41.625 51.3744 41.0625 46.1244C40.875 42.3744 42.3749 41.437 43.4999 41.062C43.6874 41.2495 43.8749 41.4369 44.2499 41.4369C44.2499 41.4369 44.2499 44.6244 45.1874 47.9994C45.1874 47.9994 45.5624 38.9995 49.1249 35.437C49.1249 35.437 42.9375 62.062 57.1875 64.687C61.3125 65.437 64.8749 64.687 67.6874 63.562L67.5 63.7495V63.9369C63.75 66.3744 59.0625 67.8745 52.5 67.4995Z" fill="#BC473B"/>
<path d="M71.6249 53.8118C71.6249 53.8118 72 51.9367 72.375 50.6242C72.375 50.6242 73.1249 49.4993 73.4999 48.1868C74.0624 49.4993 74.4374 53.2493 71.6249 53.8118Z" fill="#BC473B"/>
<path d="M45.3748 48.3744V50.8119C42.3748 46.8744 44.0625 45.187 44.625 44.812C44.8125 45.562 44.9998 47.0619 45.3748 48.3744Z" fill="#99231D"/>
<path d="M72.9375 39.9369C72.5625 40.1244 62.8125 42.3744 62.8125 34.8744C62.8125 29.6244 58.875 27.937 56.25 27.187C57 26.9995 57.9376 26.9995 58.6876 26.9995C62.8126 26.9995 63.9375 29.8119 63.75 33.9369C63.5625 38.2494 70.125 40.1244 72.9375 39.9369Z" fill="#BC473B"/>
<path d="M50.625 32.9992C51.375 37.4992 49.3125 38.9992 48.9375 38.9992C49.3125 36.5617 48.9375 35.8117 48.9375 35.8117C45.75 38.9992 45.1875 47.4367 45 48.3742C44.625 47.0617 44.25 45.5617 44.25 44.4367C44.0625 42.7492 44.0625 41.6242 44.0625 41.6242C43.875 41.6242 43.6875 41.4367 43.3125 41.2492C41.4375 39.5617 37.6876 33.1867 43.6876 24.7492C50.4376 15.3742 59.6251 20.9992 59.6251 20.9992C50.8126 21.3742 50.0625 28.4992 50.625 32.9992Z" fill="#11000F"/>
<path d="M102 134.624L97.1251 119.999L94.3126 94.687L104.625 86.9995L92.8125 93.9369L95.0624 125.624L84.7499 168.562L95.2501 132.937L99.0001 160.687L97.1251 125.249L102 134.624Z" fill="#7F6C6B"/>
<path d="M31.1249 169.874V144.374H29.2499L24.0001 108.187L18.9374 101.249L24.1875 106.499L23.4375 92.8115L30.9375 141.937L35.9999 101.811L31.1249 169.874Z" fill="#7F6C6B"/>
<path d="M72.9375 39.937C70.125 40.1245 64.3124 38.2495 63.9374 34.687C63.9374 34.4995 63.9374 34.312 63.9374 33.937C64.1249 29.812 63.1875 26.9996 58.875 26.9996C57.9375 26.9996 56.9999 26.9995 56.4374 27.187C56.4374 27.187 65.2501 24.7495 65.2501 29.6245C65.2501 34.312 66.5625 39.187 72.9375 39.937Z" fill="#11000F"/>
</g>
</svg>
