<svg width="120" height="120" viewBox="0 0 120 120" fill="none" xmlns="http://www.w3.org/2000/svg">
<mask id="mask0_467_19164" style="mask-type:alpha" maskUnits="userSpaceOnUse" x="0" y="0" width="120" height="120">
<circle cx="60" cy="60" r="60" fill="#C4C4C4"/>
</mask>
<g mask="url(#mask0_467_19164)">
<path d="M245.063 -43.5H-117.937V357.938H245.063V-43.5Z" fill="white"/>
<path d="M131.063 121.688L117.188 119.063C119.063 118.5 120.375 118.125 120.375 118.125L106.875 113.438C106.875 113.438 94.125 120.563 87.375 125.813C87.375 125.813 84.9375 126.75 83.25 129.563H43.5L42.9375 132.188L37.5 134.25C34.6875 135.375 31.3125 134.063 30.1875 130.875C28.5 126.75 26.625 121.5 25.875 116.438C25.6875 114.938 25.6875 113.813 25.6875 112.313C25.6875 112.313 25.6875 112.313 25.6875 112.125C25.6875 106.688 26.8125 95.8127 27.75 87.3752C28.5 80.8127 29.25 75.5627 29.25 75.5627C29.25 75.5627 31.3125 75.3752 34.3125 75.0002C35.4375 74.8127 36.9375 74.8127 38.4375 74.4377C44.0625 73.6877 51 72.3752 53.8125 69.9377C54 69.7502 54.375 69.3752 54.5625 69.1877C54.5625 69.1877 56.25 70.6877 58.875 72.0002C59.625 72.5627 60.5625 72.7502 61.5 72.9377C64.3125 73.8752 68.0625 74.0627 71.8125 72.3752C73.5 71.6252 75.375 70.5002 77.0625 68.8127C77.0625 68.8127 80.25 71.4377 87.375 71.2502C89.0625 71.2502 90.5625 71.2502 91.875 71.8127C96.1875 72.9377 99.5626 76.3127 108 83.6252C118.875 93.0002 132.375 105.563 133.313 107.25C133.688 109.5 132.938 116.813 131.063 121.688Z" fill="#F9D8AD"/>
<path d="M108.75 110.063C108.75 110.063 100.688 100.313 98.4375 87.375C98.4375 87.375 98.625 99 104.438 110.813L82.5 127.5C82.5 127.5 68.0625 127.687 56.25 128.062C47.8125 128.25 40.6875 121.5 40.3125 112.688L40.125 88.125L37.6875 126C36.9375 125.063 36.5625 123.937 36.1875 122.625L35.0625 112.688C35.0625 112.688 33.5625 113.438 31.6875 113.813C29.625 114.375 27.1875 114.375 25.125 112.688C25.125 113.813 25.3125 115.312 25.3125 116.812C26.0625 121.875 27.9375 127.5 29.625 131.25C30.75 134.063 34.125 135.562 36.9375 134.625L42.375 132.563L42.9375 129.937H82.6875C84.1875 127.312 86.8125 126.187 86.8125 126.187C93.375 120.937 106.313 113.813 106.313 113.813L125.813 105.75L108.75 110.063Z" fill="#E8B374"/>
<path d="M60.75 73.5C60.75 73.5 51 77.8125 38.4375 79.6875C25.875 81.5625 32.0625 112.875 32.0625 112.875L31.5 113.813L29.0625 120.562C29.0625 120.562 27.375 119.063 25.3125 116.438C25.125 114.938 25.125 113.813 25.125 112.313C25.125 112.313 25.125 112.312 25.125 112.125C25.125 106.687 26.25 95.8125 27.1875 87.375C27.9375 80.8125 28.6875 75.5625 28.6875 75.5625C28.6875 75.5625 30.75 75.375 33.75 75C34.875 74.8125 36.375 74.8125 37.875 74.4375C43.5 73.6875 50.4375 72.375 53.25 69.9375C53.4375 69.75 53.8125 69.375 54 69.1875C54 69.1875 55.6875 70.6875 58.3125 72C59.0625 72.75 59.8125 72.9375 60.75 73.5Z" fill="#E8B374"/>
<path d="M80.25 45.9375C80.25 46.5 80.25 46.875 80.0625 47.0625C79.3125 51.1875 77.4375 51.1875 77.4375 51.1875C77.4375 52.3125 76.3125 55.875 74.0625 58.875C73.875 59.0625 73.875 59.4375 73.5 59.4375C72.5625 60.5625 71.4375 61.5 69.9375 62.25C69 62.8125 67.875 63 66.5625 63C62.0625 63 58.5 59.4375 56.4375 56.8125C54.9375 54.9375 54.375 53.4375 54.375 53.4375C53.8125 53.625 53.4375 53.625 52.875 53.625C50.25 53.625 48.1875 50.0625 47.625 47.4375C47.4375 46.6875 47.4375 45.9375 47.625 45.5625C47.625 45.375 47.8125 45.375 47.8125 45C49.6875 43.5 51.375 45 51.375 45C50.625 42.5625 51.375 40.6875 52.125 39.5625C52.3125 39.5625 52.3125 39.375 52.6875 39.375C53.25 38.8125 53.8125 38.25 55.125 37.5C55.3125 37.5 55.3125 37.3125 55.6875 37.3125L55.875 37.125C56.0625 36.9375 56.4375 36.5625 56.625 36.5625C56.8125 36.375 57.1875 36.375 57.1875 36C57.375 35.8125 57.75 35.8125 57.9375 35.4375L58.125 35.25C59.0625 34.6875 60 34.3125 60.9375 33.75C61.125 33.75 61.125 33.75 61.5 33.5625C61.6875 33.5625 61.6875 33.5625 62.0625 33.375C62.25 33.375 62.25 33.375 62.625 33.1875C62.8125 33.1875 62.8125 33.1875 63.1875 33C63.375 33 63.375 33 63.75 32.8125C63.9375 32.8125 63.9375 32.8125 64.3125 32.8125C64.875 32.8125 65.0625 32.625 65.4375 32.625C66 32.625 66.1875 32.4375 66.5625 32.4375C66.75 32.4375 67.3125 32.4375 67.5 32.4375C67.6875 32.4375 67.6875 32.4375 68.0625 32.4375C68.25 32.4375 68.25 32.4375 68.625 32.4375C69.375 32.4375 70.3125 32.4375 71.0625 32.4375C71.25 32.4375 71.8125 32.4375 72 32.625C72.5625 32.625 72.9375 32.8125 73.6875 32.8125C74.25 33 74.625 33 75.375 33.375H75.5625C75.5625 33.375 75.75 33.375 75.75 33.5625C75.9375 33.5625 75.9375 33.75 76.3125 33.75C76.5 33.75 76.875 33.9375 76.875 33.9375C77.0625 33.9375 77.4375 34.125 77.4375 34.125C77.4375 34.6875 77.4375 35.25 77.625 35.8125C78.1875 38.625 78.75 41.0625 78.75 41.0625C78.75 41.0625 79.875 40.5 80.625 41.25C79.875 42.9375 80.4375 43.875 80.25 45.9375Z" fill="#FF8F6A"/>
<path d="M74.0625 59.2498C73.875 59.4373 73.875 59.8122 73.5 59.8122C72.5625 60.9372 71.4375 61.8747 69.9375 62.6247C69 63.1872 67.875 63.3747 66.5625 63.3747C62.0625 63.3747 58.5 59.8123 56.4375 57.1873C54.9375 55.3123 54.375 53.8123 54.375 53.8123C53.8125 53.9998 53.4375 53.9997 52.875 53.9997C50.25 53.9997 48.1875 50.4373 47.625 47.8123C47.4375 47.0623 47.4375 46.3123 47.625 45.9373C47.625 45.7498 47.8125 45.7498 47.8125 45.3748C49.6875 43.8748 51.375 45.3748 51.375 45.3748C50.625 42.9373 51.375 41.0622 52.125 39.9372C52.3125 39.9372 52.3125 39.7498 52.6875 39.7498C53.25 39.1873 53.8125 38.6248 55.125 37.8748C55.3125 37.8748 55.3125 37.6873 55.6875 37.6873L55.875 37.4998C56.0625 37.3123 56.4375 36.9373 56.625 36.9373C56.8125 36.7498 57.1875 36.7497 57.1875 36.3747C57.375 36.1872 57.75 36.1873 57.9375 35.8123L58.125 35.6248C59.0625 35.0623 60 34.6873 60.9375 34.1248C61.125 34.1248 61.125 34.1248 61.5 33.9373C61.6875 33.9373 61.6875 33.9373 62.0625 33.7498C62.25 33.7498 62.25 33.7497 62.625 33.5622C62.8125 33.5622 62.8125 33.5622 63.1875 33.3747C63.375 33.3747 63.375 33.3748 63.75 33.1873C63.9375 33.1873 63.9375 33.1873 64.3125 33.1873C64.875 33.1873 65.0625 32.9998 65.4375 32.9998C66 32.9998 66.1875 32.8123 66.5625 32.8123C66.75 32.8123 67.3125 32.8123 67.5 32.8123C67.6875 32.8123 67.6875 32.8123 68.0625 32.8123C68.25 32.8123 68.25 32.8123 68.625 32.8123C69.375 32.8123 70.3125 32.8123 71.0625 32.8123C71.25 32.8123 71.8125 32.8123 72 32.9998C72.5625 32.9998 72.9375 33.1873 73.6875 33.1873C74.2501 33.3748 74.625 33.3748 75.375 33.7498H75.5626C75.5626 33.7498 75.75 33.7498 75.75 33.9373C75.9375 33.9373 75.9375 34.1248 76.3125 34.1248C76.5 34.1248 76.875 34.3122 76.875 34.3122C77.0625 34.3122 77.4376 34.4997 77.4376 34.4997C77.4376 35.0622 77.4375 35.6247 77.625 36.1872C74.25 35.2497 63 32.9997 57.375 42.7497C57.375 42.7497 59.0625 58.3122 67.6875 60.5622C69.75 61.8747 72 60.9373 74.0625 59.2498Z" fill="#EA6044"/>
<path d="M120.188 118.125C120.188 118.125 119.063 118.313 117 119.063C110.438 120.938 95.25 125.438 92.625 127.5C89.25 130.313 89.0625 138.563 89.0625 138.563C89.0625 138.563 90 140.25 91.125 143.25C91.6875 144.938 91.6875 147 91.6875 148.688C91.6875 149.813 91.5 150.75 91.5 150.75L85.125 134.625C84.1875 138.188 82.6875 139.875 81.5625 140.25C81.375 140.438 80.8125 140.438 80.625 140.25C80.0625 140.063 79.875 139.5 80.0625 138.75L82.125 133.313C82.125 131.625 82.6875 130.125 83.25 129.188C84.75 126.563 87.375 125.438 87.375 125.438C93.9375 120.188 106.875 113.062 106.875 113.062L120.188 118.125Z" fill="#FF8F6A"/>
<path d="M31.6875 90.7501C31.6875 91.3126 31.5 91.5001 30.9375 91.6876C30.375 91.8751 29.8125 92.2501 29.0625 92.2501C28.125 92.2501 27.1875 92.2501 26.25 92.0626C23.8125 91.5001 22.125 90.5626 21.5625 89.4376C21.375 89.2501 21.375 88.8751 21.5625 88.6876C21.75 87.7501 23.4375 87.0001 25.6875 87.1876C26.25 87.1876 26.8125 87.1876 27.375 87.3751C27.9375 87.3751 28.3125 87.5626 28.875 87.9376C29.4375 88.1251 29.625 88.1251 30 88.5001C30.9375 88.8751 31.875 89.8126 31.6875 90.7501Z" fill="#EDAA15"/>
<path d="M39 70.6875L38.4375 73.125C38.625 72.1875 38.25 71.4375 36.9375 70.5C35.8125 69.5625 33.75 68.625 31.5 68.0625C30.375 67.875 28.875 67.5 27.9375 67.875H27.75C27.75 67.875 27.75 67.875 27.5625 67.875C27.375 67.875 27.375 67.875 27 67.875C26.4375 67.875 25.875 68.0625 25.3125 68.0625H25.125H24.9375C24.9375 68.0625 24.75 68.0625 24.75 68.25C24.75 68.25 24.5625 68.25 24.5625 68.4375C24.5625 68.4375 24.375 68.4375 24.375 68.625C24.375 68.625 24.375 68.625 24.1875 68.8125L24 69C24 69 24 69 24 69.1875C24 69.1875 24 69.375 23.8125 69.375L24.375 66.9375C24.9375 65.0625 28.5 64.3125 32.625 65.0625C35.25 65.625 37.3125 66.75 38.625 67.875C38.8125 69.1875 39 70.125 39 70.6875Z" fill="#DD2641"/>
<path d="M38.25 73.125L37.6875 74.8125V75L36 80.0625L34.875 84.1875L33.375 88.875L29.25 88.125L28.125 87.9375L27.1875 87.75L25.125 87.1875L23.625 87L20.0625 86.25V86.0625L22.875 70.5C22.875 70.5 22.875 70.3125 23.0625 70.3125C23.0625 70.3125 23.0625 70.3125 23.0625 70.125C23.0625 69.9375 23.25 69.9375 23.25 69.9375C23.25 69.9375 23.25 69.9375 23.4375 69.75C23.4375 69.75 23.625 69.75 23.625 69.5625C23.625 69.5625 23.8125 69.5625 23.8125 69.375C23.8125 69.375 24 69.375 24 69.1875H24.1875H24.375C24.9375 69 25.3125 69 26.0625 69C26.0625 69 26.0625 69 26.25 69H26.4375C26.4375 69 26.4375 69 26.625 69H26.8125C27.9375 69 29.25 69 30.375 69.1875C32.8125 69.75 34.6875 70.6875 35.8125 71.625C38.0625 71.25 38.4375 72.1875 38.25 73.125Z" fill="#F73C4F"/>
<path d="M33.5625 88.5V88.6875C33 90.375 31.875 91.125 31.125 91.3125C30.375 91.5 30.1875 91.5 30.1875 91.5H29.4375L25.125 91.3125C24.375 91.125 24 90.75 23.4375 90.5625C22.6875 90 21.9375 89.625 21.75 88.875C20.8125 87.75 20.8125 86.4375 20.8125 85.6875V85.5C20.8125 85.5 20.8125 85.5 20.8125 85.3125C21 84.375 22.6875 83.625 24.5625 83.625C25.5 83.625 26.625 83.625 27.75 83.8125C27.9375 83.8125 28.5 84 28.6875 84C31.6875 85.5 33.75 87.1875 33.5625 88.5Z" fill="#323244"/>
<path d="M38.4375 78.3747C37.6875 80.4372 36 82.8747 34.875 83.9997L37.6875 74.9998C38.25 74.9998 39.1875 75.7497 38.4375 78.3747Z" fill="#FF8F6A"/>
<path d="M80.625 36.5626C80.625 37.1251 79.875 37.5 79.5 37.125C79.3125 36.9375 78.9375 36.5626 78.5625 36.5626C77.8125 36.0001 77.0625 35.6251 76.5 35.0626C76.3125 35.0626 75.9375 34.8751 75.9375 34.8751C75.75 34.8751 75.375 34.6876 75.375 34.6876C75.1875 34.6876 75.1875 34.5001 74.8125 34.5001C74.8125 34.5001 74.625 34.5 74.625 34.3125H74.4375C73.875 34.125 73.5 33.7501 72.75 33.7501C72.1875 33.5626 71.8125 33.5626 71.0625 33.5626C70.875 33.5626 70.3125 33.5625 70.125 33.375C69.1875 33.375 68.4375 33.1875 67.6875 33.375C67.5 33.375 67.5 33.375 67.125 33.375C66.9375 33.375 66.9375 33.375 66.5625 33.375C66.375 33.375 65.8125 33.375 65.625 33.375C65.0625 33.375 64.875 33.3751 64.5 33.5626C63.9375 33.5626 63.75 33.7501 63.375 33.7501C63.1875 33.7501 63.1875 33.7501 62.8125 33.7501C62.625 33.7501 62.625 33.7501 62.25 33.9376C62.0625 33.9376 62.0625 33.9376 61.6875 34.1251C61.5 34.1251 61.5 34.125 61.125 34.3125C60.9375 34.3125 60.9375 34.3126 60.5625 34.5001C60.375 34.5001 60.375 34.5001 60 34.6876C59.4375 34.8751 59.0625 35.2501 58.5 35.4376C57.9375 35.6251 57.5625 36 57 36.1875L56.8125 36.3751C56.625 36.5626 56.25 36.5626 56.0625 36.9376C55.875 37.1251 55.5 37.1251 55.5 37.5001C55.3125 37.6876 54.9375 38.0625 54.75 38.0625L54.5625 38.2501C54.375 38.2501 54.375 38.4376 54 38.4376C52.875 39.3751 52.125 40.1251 51.5625 40.3126C51.375 40.5001 51.375 40.5001 51 40.5001C49.125 42.0001 47.8125 40.5001 47.8125 40.5001C45.9375 42.0001 45.75 44.0626 45.75 44.0626C43.125 34.6876 45.5625 21.1876 60.75 19.8751C61.875 19.8751 63.1875 19.6876 64.3125 19.8751C76.125 20.8126 76.3125 32.8126 76.3125 32.8126L78.9375 36.3751C80.4375 36.1876 80.625 36.1876 80.625 36.5626Z" fill="#F9D8AD"/>
<path d="M51.75 45.7502C51.75 45.7502 49.875 44.0627 48.1875 45.7502C48 45.7502 48 45.9377 48 46.3127C47.4375 45.3752 47.25 44.2502 47.25 44.2502C47.25 44.2502 47.8125 42.1877 49.3125 40.6877C49.3125 40.6877 50.4375 42.1877 52.5 40.6877C51.75 41.4377 51 43.5002 51.75 45.7502Z" fill="#1F1F35"/>
<path d="M76.3125 69.1875C74.625 70.875 72.75 72 71.0625 72.75C67.3125 74.4375 63.75 74.25 60.75 73.3125C59.8125 73.125 59.0625 72.5625 58.125 72.375C55.5 71.25 53.8125 69.5625 53.8125 69.5625C56.625 67.5 57.1875 63.9375 57.1875 61.125C57.1875 59.4375 57 57.9375 56.625 57.375C58.125 59.25 60.1875 61.5 62.625 62.625C63.75 63.375 65.25 63.5625 66.75 63.5625C67.875 63.5625 69.1875 63.375 70.125 62.8125C71.625 62.0625 72.75 61.125 73.6875 60C73.6875 67.6875 76.3125 69.1875 76.3125 69.1875Z" fill="#FF8F6A"/>
<path d="M54 69.75C51.5625 72.375 44.0625 74.0625 37.875 75L38.4375 73.3125L39 70.875C39.1875 70.125 38.8125 69.375 38.0625 68.8125C39 66.75 39.5625 64.3125 39.1875 62.0625C38.25 54.375 45.5625 49.6875 48 48.5625C48.5625 51.1875 50.625 54.75 53.25 54.75C53.25 55.875 53.8125 57.5625 54.9375 58.875C55.6875 59.625 56.625 60.5625 57.375 61.6875C57.1875 63.9375 56.625 67.5 54 69.75Z" fill="#1F1F35"/>
<path d="M91.3125 72.0002C89.8125 71.4377 88.5 71.4377 86.8125 71.4377C79.5 71.4377 76.5 69.0002 76.5 69.0002C76.5 69.0002 73.875 67.5002 73.6875 59.8127C76.3125 56.6252 77.4375 52.5002 77.4375 51.3752C77.4375 51.3752 79.3125 51.1877 80.0625 47.2502C81.9375 48.0002 88.875 51.0002 88.3125 60.0002C87.9375 64.8752 89.625 69.1877 91.3125 72.0002Z" fill="#323244"/>
<path d="M79.5 42.375C78.75 41.625 77.625 42.1875 77.625 42.1875C77.625 42.1875 76.6875 38.8125 76.5 35.4375C77.25 36 78 36.1875 78.5625 36.9375C79.3125 37.875 79.6875 40.125 79.5 42.375Z" fill="#1F1F35"/>
<path d="M77.8126 43.6878C77.8126 43.6878 77.8126 47.4378 77.6251 49.6878C77.6251 49.6878 78.7501 48.9378 79.1251 46.5003C79.3126 43.8753 78.5626 43.5003 77.8126 43.6878Z" fill="#EA6044"/>
<path d="M51.7501 47.0622C51.7501 47.0622 52.5001 50.4372 53.6251 52.6872C53.6251 52.6872 51.0001 53.2497 49.5001 49.8747C48.1876 46.4997 50.6251 46.1247 51.7501 47.0622Z" fill="#323244"/>
<path d="M60.75 73.5002C59.8125 73.3127 59.0625 72.7502 58.125 72.5627C55.5 71.4377 53.8125 69.7502 53.8125 69.7502C56.625 67.6877 57.1875 64.1252 57.1875 61.3127C57.1875 59.6252 57 58.1252 56.625 57.5627C58.125 59.4377 60.1875 61.6877 62.625 62.8127C62.625 64.8752 62.4375 69.9377 60.75 73.5002Z" fill="#EA6044"/>
<path d="M59.8125 35.0629C59.25 35.2504 58.875 35.6253 58.3125 35.8128L58.125 36.0004C57.9375 36.1879 57.5625 36.1878 57.375 36.5628C57.1875 36.9378 56.8125 36.7503 56.8125 37.1253C56.625 37.3128 56.25 37.6878 56.0625 37.6878L55.875 37.8754C55.6875 37.8754 55.6875 38.0628 55.3125 38.0628C54.1875 39.0003 53.4375 39.7503 52.875 39.9378C52.6875 40.1253 52.6875 40.1253 52.3125 40.1253C50.4375 41.6253 49.125 40.1253 49.125 40.1253C47.25 41.6253 47.0625 43.6878 47.0625 43.6878C44.4375 34.3128 46.875 20.8128 62.0625 19.5003C63.1875 19.5003 64.5 19.3128 65.625 19.5003C61.125 20.4378 56.4375 23.0628 57.9375 30.9378C57.9375 30.9378 69 26.6253 77.8125 32.6253C77.8125 32.6253 68.4375 27.9378 59.25 32.8128C58.3125 33.1878 58.6875 34.8754 59.8125 35.0629Z" fill="#E8B374"/>
<path d="M120.188 118.125C120.188 118.125 119.063 118.313 117 119.063L104.063 117L87.1875 127.125C87.1875 127.125 82.875 129.563 83.4375 133.313C83.4375 133.313 81.7501 138.563 80.2501 140.438C79.6876 140.25 79.5 139.688 79.6875 138.938L81.75 133.5C81.75 131.813 82.3125 130.313 82.875 129.375C84.375 126.75 87 125.625 87 125.625C93.5625 120.375 106.5 113.25 106.5 113.25L120.188 118.125Z" fill="#EA6044"/>
<path d="M28.125 92.0625C26.625 92.625 22.125 93.5625 20.8125 90.375C18.9375 86.625 21 84 21 84L20.8125 85.875C20.8125 85.875 20.8125 85.875 20.8125 86.0625V86.25C20.8125 87 20.8125 88.125 21.75 89.4375C22.3125 90.5625 24.1875 91.5 26.4375 92.0625C26.625 92.0625 27.375 92.0625 28.125 92.0625Z" fill="#EA6044"/>
<path d="M27.1875 68.0625L24.375 84.1875L23.8125 86.8125L23.0625 90.9375C23.0625 90.9375 23.0625 90.9375 23.0625 91.125C22.3125 90.5625 21.5625 90.1876 21.375 89.4375C20.4375 88.3125 20.4375 87 20.4375 86.25V86.0625C20.4375 86.0625 20.4375 86.0625 20.4375 85.875L23.25 70.3125C23.25 70.3125 23.25 70.125 23.4375 70.125C23.4375 70.125 23.4375 70.125 23.4375 69.9375C23.4375 69.75 23.625 69.75 23.625 69.75C23.625 69.75 23.625 69.75 23.8125 69.5625C23.8125 69.5625 24 69.5625 24 69.375C24 69.375 24.1875 69.375 24.1875 69.1875C24.1875 69.1875 24.375 69.1875 24.375 69H24.5625H24.75C26.0625 68.25 26.4375 68.0625 27.1875 68.0625Z" fill="#DD2641"/>
<path d="M35.25 112.5L34.3125 131.25C34.3125 131.25 29.0625 125.25 27 118.312C24.5625 111.187 17.0625 86.2499 16.125 84.1874C15.375 82.1249 18.1875 80.0624 18.1875 80.0624C18.375 76.8749 19.6875 76.6874 19.6875 76.6874C19.6875 74.0624 20.25 72.9374 20.25 72.9374C20.25 72.9374 20.0625 70.1249 21.375 69.3749C22.3125 68.8124 23.0625 69.3749 23.4375 69.5624C23.4375 69.7499 23.25 69.7499 23.25 70.1249L21.5625 79.1249C23.625 78.9374 25.6875 79.3124 26.8125 79.8749C27.375 80.0624 27.75 80.6249 27.75 81.3749C27.75 81.5624 27.5625 81.9374 27.5625 82.1249C27.375 82.3124 26.8125 82.6874 26.4375 82.6874C23.625 82.6874 21.75 83.6249 21 84.3749L20.8125 86.2499C20.8125 86.2499 20.8125 86.2499 20.8125 86.4374V86.6249C20.8125 87.1874 20.8125 88.1249 21.5625 89.0624C21.5625 89.2499 21.75 89.6249 21.75 89.6249C22.3125 90.7499 24.1875 91.6874 26.4375 92.2499C27.1875 92.4374 27.9375 92.4374 28.5 92.4374C28.6875 92.4374 29.25 92.4374 29.4375 92.4374C28.875 93.1874 28.5 93.5624 28.5 93.5624C28.3125 102.937 35.25 112.5 35.25 112.5Z" fill="#FF8F6A"/>
<path d="M35.25 112.5L34.3125 131.25C34.3125 131.25 29.0625 125.25 27 118.312C24.5625 111.187 17.0625 86.2499 16.125 84.1874C15.375 82.1249 18.1875 80.0624 18.1875 80.0624C18.375 76.8749 19.6875 76.6874 19.6875 76.6874C19.6875 74.0624 20.25 72.9374 20.25 72.9374C20.25 72.9374 20.0625 70.1249 21.375 69.3749C22.3125 68.8124 23.0625 69.3749 23.4375 69.5624C23.4375 69.7499 23.25 69.7499 23.25 70.1249L21.5625 79.1249C18.1875 79.6874 19.5 82.3124 19.5 82.3124C24 80.8124 26.25 81.3749 27.5625 81.7499C27.375 81.9374 26.8125 82.3124 26.4375 82.3124C23.625 82.3124 21.75 83.2499 21 83.9999L20.8125 85.8749C20.8125 85.8749 20.8125 85.8749 20.8125 86.0624V86.2499C20.8125 86.8124 20.8125 87.7499 21.5625 88.6874C21.5625 88.8749 21.5625 88.8749 21.5625 89.2499C21.375 93.3749 31.875 121.312 33 120.75C33.5625 120.375 35.25 112.5 35.25 112.5Z" fill="#EA6044"/>
<path d="M31.6875 90.7501C31.6875 91.3126 31.5 91.5001 30.9375 91.6876C30.375 91.8751 29.8125 92.2501 29.0625 92.2501C28.125 92.2501 27.1875 92.2501 26.25 92.0626C23.8125 91.5001 22.125 90.5626 21.5625 89.4376C21.375 89.2501 21.375 88.8751 21.5625 88.6876C21.75 87.7501 23.4375 87.0001 25.6875 87.1876C26.25 87.1876 26.8125 87.1876 27.375 87.3751C27.9375 87.3751 28.3125 87.5626 28.875 87.9376C29.4375 88.1251 29.625 88.1251 30 88.5001C30.9375 88.8751 31.875 89.8126 31.6875 90.7501Z" fill="#1F1F35"/>
<path d="M69 28.5C69.9375 28.5 71.8125 29.0625 74.25 30C74.8125 30.1875 75.1875 29.8125 75.1875 29.25V29.0625C75.1875 28.875 75 28.5 74.625 28.5C73.875 27.9375 72 27.375 69 27.375C68.4375 27.375 68.25 27.5625 68.25 28.125C68.4375 27.9375 68.625 28.5 69 28.5Z" fill="#33022D"/>
<path d="M69.75 107.25C63.1875 107.25 57.9375 101.812 57.9375 95.4372C57.9375 90.1872 61.3125 86.0623 65.625 84.3748C59.25 84.9373 54.1875 90.3748 54.1875 96.9373C54.1875 103.687 59.8125 109.5 66.75 109.5C69.9375 109.5 72.75 108.375 74.8125 106.687C73.125 107.062 71.4375 107.25 69.75 107.25Z" fill="#C0A1D1"/>
<path d="M61.875 107.813L58.125 108.938L57.1875 109.125L56.4375 109.313C56.25 108.563 56.25 107.813 56.25 107.813L57.7501 107.063L61.5001 105.375L61.6875 106.125L61.875 107.813Z" fill="#F29E9E"/>
<path d="M58.125 109.125L57.1875 109.313L56.4375 109.5C56.25 108.75 56.25 108 56.25 108L57.7501 107.25L57.9375 107.813L58.125 109.125Z" fill="#231F20"/>
<path d="M61.5 106.5L57.5625 108L57.375 107.625L61.125 105.937L61.5 106.5Z" fill="#EA6044"/>
<path d="M57 109.5L56.25 109.688C56.0625 108.938 56.0625 108.188 56.0625 108.188L57.5625 107.438L57.75 108L56.625 108.563C56.4375 108.563 56.4375 109.125 57 109.5Z" fill="#111010"/>
<path d="M75.75 102.563L75.1875 106.688L75 108.375V109.125C74.25 109.313 73.875 108.563 73.875 108.563V106.688V103.125L74.4375 102.938L75.75 102.563Z" fill="#F29E9E"/>
<path d="M75.375 106.5L75.1875 108.188L75 108.938C74.25 109.125 73.875 108.375 73.875 108.375V106.5H75.375V106.5Z" fill="#231F20"/>
<path d="M74.25 102.75L74.0625 106.5H73.6875L73.5 102.938L74.25 102.75Z" fill="#EA6044"/>
<path d="M75.1875 108.188V108.938C74.4375 109.125 74.0625 108.375 74.0625 108.375V106.5H74.625V108.188C74.0626 108.188 74.625 108.563 75.1875 108.188Z" fill="#111010"/>
<path d="M75.75 102.562L73.6875 103.125C73.6875 103.125 73.5 102.937 72.9375 102.937C72.9375 102.937 72.9375 102.937 72.75 102.937C72.75 102.937 72.75 102.937 72.5625 102.937H72.375H72.1875H72C71.8125 102.937 71.4375 102.937 71.4375 102.937C71.25 102.937 70.6875 102.937 70.5 102.937H70.3125C70.3125 102.937 70.3125 102.937 70.125 102.937C70.125 102.937 66.9375 107.062 65.8125 107.625C64.6875 108.375 64.125 108.375 64.125 108.375L63.5625 107.25L63.375 106.5C63.375 106.5 63.9375 106.312 64.3125 105.75C64.875 105.187 66.9375 102.187 66.9375 102.187C66.9375 102.187 66.375 100.687 67.875 99.3748C67.875 99.3748 68.0625 99.5622 69 99.9372C69.75 99.9372 70.5 100.125 71.8125 99.7498C71.8125 99.7498 72 99.7497 72.375 99.9372C72.5625 99.9372 72.9375 99.9372 73.125 100.125C73.3125 100.125 73.3125 100.125 73.6875 100.125C73.875 100.125 74.25 100.312 74.4375 100.312C75.9375 100.875 77.8125 101.25 78 101.437C75.9375 101.625 75.75 102.562 75.75 102.562Z" fill="#4A0B40"/>
<path d="M70.5 96L69.5625 99.5625C68.4375 99.75 67.5 99.75 66.75 99.75C66 99.5625 65.625 99.1875 65.625 99.1875C65.625 99.1875 66.375 97.6875 66.5625 96.75C66.5625 96 66.5625 94.3125 66.5625 93.9375V93.75C66.5625 93.75 67.3125 94.3125 68.25 93.5625C68.25 93.5625 68.25 93.5625 68.4375 93.5625C69.1875 92.8125 68.625 90.9375 67.5 90.75H67.3125H67.5L67.6875 90.5625C67.6875 90.5625 67.6875 90.5625 67.875 90.5625C68.0625 90.5625 68.4375 90.75 68.8125 91.5C69.375 92.4375 70.5 93.5625 70.6875 93.5625C70.6875 93.5625 70.6875 93.375 70.125 92.8125C69.9375 92.25 69.375 91.875 69.375 91.875V91.6875H69.5625C69.5625 91.6875 70.5 92.625 70.5 93.1875C70.5 93.1875 71.0625 93.75 71.25 94.3125C71.0625 94.5 71.0625 95.0625 70.5 96Z" fill="#231F20"/>
<path d="M68.0625 93.375C67.5 93.5625 67.125 93.9375 66.9375 93.9375C66.75 93.9375 66.375 93.9375 66.375 93.9375C66.375 93.9375 66.375 93.9375 66.375 93.75C66.375 93.75 66.375 93.75 66.375 93.5625V93.375V93.1875C66.375 93 65.8125 92.625 65.625 92.625L64.125 92.8125H63.9375L62.8125 93C62.8125 93 62.625 94.875 62.8125 95.8125C62.8125 96.75 63.375 96.9375 63.5625 97.3125C63.75 97.6875 63.75 97.5 64.125 98.0625C64.125 98.625 63.9375 98.625 63.9375 98.625C63.75 98.8125 63.375 98.625 63.375 98.625C63.1875 98.625 62.8125 98.625 62.8125 98.625H62.625L62.4375 98.0625C62.4375 98.0625 62.25 98.0625 61.875 97.5C61.875 97.3125 61.875 96.5625 61.875 96.5625C61.875 96.5625 61.125 92.4375 61.3125 91.875C61.3125 91.6875 62.4375 91.3125 63.75 91.125H63.9375C64.5 91.125 65.0625 90.9375 65.625 90.9375C66.375 90.75 67.125 90.75 67.125 90.75H67.3125C68.4375 90.75 69 92.8125 68.0625 93.375Z" fill="#F29E9E"/>
<path d="M74.6251 94.5003C74.6251 94.6878 74.6251 94.6878 74.6251 94.5003C74.0626 94.6878 71.8125 93.9378 71.0625 93.7503C70.875 93.0003 70.3125 92.6253 70.3125 92.6253C70.3125 91.8753 69.375 91.1253 69.375 91.1253C69.375 91.1253 70.1251 91.1253 70.8751 91.6878C71.6251 92.2503 73.5 93.3753 73.5 93.3753C73.5 93.3753 73.6875 90.9378 73.5 90.7503C73.3125 90.5628 72.75 90.1878 72.5625 90.1878C72.5625 90.0003 72.375 89.6254 72.5625 89.4379C72.5625 89.4379 72.375 89.2503 72.5625 88.8753H72.7501C72.7501 88.8753 72.9375 88.6878 73.3125 88.8753C73.3125 88.8753 73.5 88.8753 73.875 88.8753C73.875 88.8753 74.0625 88.6878 74.4375 89.0628C74.625 89.6253 74.6251 90.0003 74.6251 90.0003C74.6251 90.0003 75.0001 94.1253 74.6251 94.5003Z" fill="#F29E9E"/>
<path d="M70.5 93C69.9375 92.8125 69 91.5 68.625 90.9375C68.625 90.75 68.4375 90.75 68.4375 90.75C68.25 90.5625 67.875 90.1875 67.6875 90.1875C67.5 90.1875 67.5 90.1875 67.5 90.1875V89.625H68.0626L68.25 88.5C68.0625 87.75 68.4375 87.75 68.4375 87.75L69 87.9375V87.75L70.125 87C70.875 88.6875 70.3125 89.4375 70.125 89.625C69.9375 89.8125 69.5625 89.8125 69.5625 89.8125C69.375 90.375 69.375 91.3125 69.375 91.3125V91.5C69.1875 91.5 70.6875 93 70.5 93Z" fill="#F29E9E"/>
<path d="M68.8125 87.5625V87.75L68.25 87.5625C68.25 87.5625 67.5 87.5625 68.0625 88.3125L67.875 89.4375H67.3125L67.125 88.875C66.5625 88.6875 66.375 88.125 66.375 87.9375C66.375 87.75 66.375 87.75 66.375 87.375C66.375 86.625 66.9375 85.875 67.875 85.875C68.4375 85.875 68.8125 85.875 69 85.875C69.75 86.0625 69.75 86.8125 69.75 86.8125L68.8125 87.5625Z" fill="#231F20"/>
<path d="M67.6875 90L67.125 90.5625C67.125 90.5625 66.5625 90.5625 65.625 90.75C65.4375 90.5625 65.4375 90.1875 65.4375 90.1875C65.4375 90.375 65.4375 90.75 65.4375 90.75C64.6875 90.5625 64.875 89.0625 64.875 89.0625C64.3125 89.25 64.3125 89.8125 64.3125 89.8125C64.3125 87.375 66 87.75 66 87.75H66.1875C66.1875 87.9375 66.1875 87.9375 66.1875 88.3125H66C66 88.3125 65.4375 88.5001 66 89.4376C66.75 89.8126 67.125 90 67.6875 90Z" fill="#111010"/>
<path d="M66.75 87.9375L66.5625 87.375H66.75C66.375 87.5625 66.375 87.9375 66.75 87.9375Z" fill="#EDAA15"/>
<path d="M73.5 93.375C73.5 93.375 73.6875 90.9375 73.5 90.75C73.3125 90.5625 72.75 90.1875 72.5625 90.1875C72.5625 90 72.375 89.625 72.5625 89.4375L72.75 89.25C72.75 89.25 72.75 89.4375 72.5625 89.4375C72.375 89.625 72.5625 90 72.5625 90C72.5625 90 73.3125 90.1875 73.5 90.5625C73.6875 90.75 73.5 93.375 73.5 93.375V93.9375V93.375Z" fill="#EA6044"/>
<path d="M69.9375 89.4377C69.75 89.6252 69.375 89.6252 69.375 89.6252C69.375 89.6252 68.625 89.6252 68.4375 89.0627V90.5627C68.25 90.3752 67.875 90.0002 67.6875 90.0002C67.5 90.0002 67.5 90.0002 67.5 90.0002V89.4377H68.0626L68.25 88.3127C68.0625 87.5627 68.4375 87.5627 68.4375 87.5627C68.4375 87.5627 67.875 87.7502 68.25 88.1252C68.4375 88.6877 68.8125 88.3127 68.8125 88.3127C68.8125 88.3127 68.625 89.8127 69.9375 89.4377Z" fill="#EA6044"/>
<path d="M68.4375 87.9375L68.625 88.5C68.625 88.5 68.4375 88.5 68.4375 88.3125C68.0625 87.9375 68.4375 87.9375 68.4375 87.9375Z" fill="#EA6044"/>
<path d="M66.75 92.6247C66.75 92.6247 66.75 93.1873 66.9375 93.7498C66.75 93.7498 66.375 93.7498 66.375 93.7498C66.375 93.7498 66.375 93.7497 66.375 93.5622C66.375 93.5622 66.375 93.5622 66.375 93.3747V93.1873V92.9998C66.375 92.8123 65.8125 92.4372 65.625 92.4372L64.125 92.6247H63.9375L62.8125 92.8123C62.8125 92.8123 62.8125 92.6247 62.625 92.6247C62.625 92.6247 62.8125 92.6247 63.1875 92.6247L63.9375 92.4372H64.125L66.9375 91.8748C66.9375 91.8748 66.375 92.0622 66.75 92.4372C66.75 92.6247 67.3125 92.9998 67.875 93.1873C67.875 92.8123 67.3125 92.8122 66.75 92.6247Z" fill="#EA6044"/>
<path d="M74.625 94.5C74.625 94.6875 74.625 94.6875 74.625 94.5C74.0625 94.6875 71.8125 93.9375 71.0625 93.75C70.875 93 70.3125 92.625 70.3125 92.625C70.3125 91.875 69.375 91.125 69.375 91.125C69.375 91.125 70.875 92.0625 71.25 93.5625C71.4375 93.5625 74.0625 94.6875 74.625 94.5Z" fill="#EA6044"/>
<path d="M68.0625 93.3752C67.5 93.5627 67.125 93.9377 66.9375 93.9377C66.75 93.9377 66.375 93.9377 66.375 93.9377C66.375 93.7502 66.375 93.7502 66.375 93.3752H66.5625C67.125 93.3752 68.25 93.3752 68.0625 91.8752C67.875 90.3752 67.125 90.3752 67.125 90.3752H67.3125C68.4375 90.7502 69 92.8127 68.0625 93.3752Z" fill="#EA6044"/>
<path d="M62.625 97.6875C62.625 97.6875 62.4375 97.6875 62.0625 97.125C62.0625 96.9375 62.0625 96.1875 62.0625 96.1875C62.0625 96.1875 61.3125 92.0625 61.5 91.5C61.6875 90.9375 64.125 90.5625 65.8125 90.375C66.5625 90.1875 67.3125 90.1875 67.3125 90.1875C67.3125 90.1875 62.25 91.125 62.0625 91.6875C61.875 92.25 62.625 96.375 62.625 96.375C62.625 96.375 62.25 96.75 62.625 97.6875Z" fill="#EA6044"/>
<path d="M70.5 93.0002C69.9375 92.2502 69.375 91.3127 69.375 91.3127C69.375 91.3127 70.6875 93.0002 70.5 93.0002Z" fill="#EA6044"/>
<path d="M75.75 102.563L73.6876 103.125C73.6876 103.125 73.5 102.938 72.9375 102.938C72.9375 102.938 72.9376 102.938 72.7501 102.938C72.7501 102.938 72.75 102.938 72.5625 102.938H72.375H72.1875H72C71.8125 102.938 71.4375 102.938 71.4375 102.938C71.25 102.938 70.6875 102.938 70.5 102.938H70.3125C70.3125 102.938 70.3125 102.938 70.125 102.938L66.375 102.188C66.375 102.188 63.5625 105.563 63 105.938C62.4375 106.125 62.25 106.5 62.0625 106.688L61.875 105.938C61.875 105.938 62.4375 105.75 62.8125 105.188C63.375 104.625 65.4375 101.625 65.4375 101.625C65.4375 101.625 64.875 100.125 66.375 98.8127C66.375 98.8127 66.5625 99.0002 67.5 99.3752C67.3125 99.9377 66.75 101.063 67.3125 101.25C67.875 101.438 69.9376 102 71.8126 102.188C72.0001 102.188 72.375 102.188 72.5625 102.188H72.7501C72.9376 102.188 73.3125 102.188 73.5 102.188C74.25 102.188 74.6251 102.375 74.6251 102.375L75.75 102.563Z" fill="#33022D"/>
<path d="M70.5 95.9998H68.4375C68.4375 95.9998 68.25 97.4998 66.9375 99.5623C66.1875 99.3748 65.8125 98.9997 65.8125 98.9997C65.8125 98.9997 66 98.4373 66.375 97.8748C66.375 97.8748 66.375 97.8748 66.375 97.6873C66.375 97.4998 66.5625 96.9373 66.5625 96.7498C66.75 95.8123 66.5625 93.9373 66.375 93.9373C66.375 93.9373 67.125 94.4998 68.0625 93.7498C68.0625 93.7498 68.0625 93.7498 68.25 93.7498C68.0625 94.1248 68.4375 95.6248 70.5 95.9998Z" fill="#111010"/>
<path d="M75.1875 108C75.1875 108 75.9375 109.688 76.125 109.875C76.3125 110.063 77.0625 110.625 77.0625 110.625C77.0625 110.625 77.0625 110.813 76.875 110.813C76.6875 111 76.125 111.375 75.1875 110.813C74.4375 110.25 73.6875 110.063 73.3125 109.688C72.5625 109.125 72.1875 108.938 72.1875 108.938L72.375 108.375L73.125 107.438H73.3125H73.5V108C73.6875 108.563 74.4375 108.75 75.1875 108C75.1875 108.188 75.1875 108.188 75.1875 108Z" fill="#DDCAE6"/>
<path d="M76.3125 111C76.5 111 76.875 111 77.0625 111C76.875 111.187 76.3125 111.562 75.375 111C73.6875 110.062 72.1875 109.312 72.1875 109.312L72.375 108.75C73.3125 109.125 75.75 110.812 76.3125 111Z" fill="#231F20"/>
<path d="M57 109.5C57 109.5 55.875 110.625 55.5 111.187C55.125 111.75 55.3125 112.312 55.3125 112.312C55.3125 112.312 55.125 112.312 54.75 112.312C54.5625 112.125 54 111.75 54 110.625C54 109.875 54.1875 109.125 54.1875 108.562C54.1875 107.812 54.375 107.062 54.375 107.062L54.9375 107.25L55.875 107.437C55.875 107.437 56.0625 107.437 56.0625 107.625V107.812L55.5 108C55.5 108 55.5 108.75 56.25 109.125C57 109.5 57 109.5 57 109.5Z" fill="#DDCAE6"/>
<path d="M54.9375 111.563C54.9375 111.75 55.125 112.125 55.125 112.313C54.9375 112.125 54.375 111.75 54.375 110.625C54.5625 108.75 54.9375 107.25 54.9375 107.25L55.5 107.438C55.3125 108 54.5626 110.813 54.9375 111.563Z" fill="#231F20"/>
<path d="M69 85.8748C68.4375 86.0623 68.25 86.4374 68.25 87.5624C68.25 87.5624 67.5 87.5624 68.0625 88.3124L67.875 89.4374H67.3125L67.125 88.8749C66.5625 88.6874 66.375 88.1249 66.375 87.9374C66.375 87.7499 66.375 87.7499 66.375 87.3749C66.375 86.6249 66.9375 85.8748 67.875 85.8748C68.4375 85.6873 68.8125 85.8748 69 85.8748Z" fill="#111010"/>
<path d="M73.125 89.2498C73.125 89.2498 73.3125 89.4372 73.125 89.8122C73.125 89.8122 73.125 89.9998 73.3125 89.9998C73.3125 89.9998 73.5 89.9998 73.875 89.9998C73.875 89.9998 73.875 89.9998 74.0625 89.9998H74.25V89.8122C74.25 89.8122 74.25 89.8122 74.4375 89.6247V89.0623C74.4375 89.0623 74.25 89.0623 74.25 89.2498C74.25 89.4373 74.0625 89.4373 74.0625 89.4373C74.0625 89.4373 74.0625 89.6248 73.875 89.4373C73.875 89.4373 73.8751 89.4373 73.6876 89.4373C73.6876 89.4373 73.6875 89.4373 73.5 89.4373V89.2498C73.3125 89.2498 73.3125 89.4373 73.125 89.2498Z" fill="#EA6044"/>
<path d="M71.8125 102.75H71.625L71.4375 102.187L70.5 99.3748C70.6875 99.3748 71.0625 99.3748 71.25 99.5623L72.1875 102.187L71.8125 102.75Z" fill="#EDAA15"/>
<path d="M72.75 102.75C72.5625 102.75 72.5625 102.75 72.75 102.75C72.5625 102.75 72.5625 102.75 72.75 102.75C72.5625 102.75 72.5625 102.75 72.75 102.75C72.5625 102.75 72.5625 102.75 72.5625 102.75V102.563L71.8125 99.9375C72 99.9375 72.375 100.125 72.5625 100.125L73.3125 102.75H72.75Z" fill="#EDAA15"/>
<path d="M70.5 93.3752C70.3125 93.3752 69.375 92.6252 68.625 91.5002C68.0625 90.5627 67.6875 90.3752 67.5 90.3752C67.5 90.3752 67.5 90.3752 67.6875 90.3752C67.875 90.3752 68.25 90.5627 68.625 91.3127C69 91.8752 70.125 93.0002 70.5 93.3752C70.5 93.3752 70.3125 92.8127 69.9375 92.6252C70.5 92.8127 70.6875 93.3752 70.5 93.3752Z" fill="#EDAA15"/>
<path d="M70.5 92.625L69.375 91.125H69.5625C69.375 91.125 70.5 91.875 70.5 92.625Z" fill="#EDAA15"/>
<path d="M66.375 93.7502C66.375 93.5627 66.375 93.5627 66.375 93.7502C66.375 93.5627 67.125 93.9377 68.0625 93.1877C68.0625 93.1877 68.0625 93.1877 68.25 93.1877C69 92.4377 68.4375 90.5627 67.3125 90.3752H67.125H67.3125C67.5 90.3752 68.25 90.5627 68.8125 91.5002C69 92.8127 68.4375 94.3127 66.375 93.7502Z" fill="#EDAA15"/>
<path d="M75.75 108.562H75.1875H75.75C75.75 108.75 75.75 108.75 75.75 108.562Z" fill="#231F20"/>
<path d="M75.9375 108.938C75.9375 108.938 75.75 108.75 75.9375 108.938H75.375H75.9375Z" fill="#231F20"/>
<path d="M76.125 109.5H75.5625H76.125C76.125 109.5 76.125 109.688 76.125 109.5Z" fill="#231F20"/>
<path d="M56.625 109.875C57 109.875 57 109.875 56.625 109.875L56.4375 109.687L56.625 109.875Z" fill="#231F20"/>
<path d="M56.4375 110.063C56.625 110.063 56.625 110.063 56.4375 110.063L56.25 109.875L56.4375 110.063Z" fill="#231F20"/>
<path d="M56.25 110.438C56.25 110.438 56.4375 110.438 56.25 110.438L56.0625 110.25L56.25 110.438Z" fill="#231F20"/>
<path d="M56.0625 110.625L55.875 110.438L56.0625 110.625Z" fill="#231F20"/>
<path d="M69.1875 88.1248C69.1875 88.6873 68.625 89.0623 68.25 89.0623C67.6875 89.0623 67.3125 88.4998 67.3125 88.1248C67.3125 87.5623 67.875 87.1873 68.25 87.1873C68.8125 87.1873 69.1875 87.5623 69.1875 88.1248Z" fill="#EDAA15"/>
<path d="M68.8125 88.1252C68.8125 88.3127 68.625 88.6877 68.25 88.6877C68.0625 88.6877 67.6875 88.5002 67.6875 88.1252C67.6875 87.7502 67.875 87.5627 68.25 87.5627C68.625 87.5627 68.8125 87.9377 68.8125 88.1252Z" fill="#4A0B40"/>
<path d="M68.625 87.3752H68.0625V85.8752C68.0625 85.8752 68.0625 85.6877 68.25 85.6877C68.25 85.6877 68.4375 85.6877 68.4375 85.8752L68.625 87.3752Z" fill="#EDAA15"/>
<path d="M68.4375 88.8752C67.5 89.0627 66.5626 89.6252 65.2501 90.0002C64.6876 90.1877 64.3125 90.5627 64.125 90.9377H63.75C63.9375 90.3752 64.6876 90.0002 65.2501 89.8127C66.3751 89.2502 67.3125 89.0627 68.4375 88.8752C68.4375 88.8752 68.4375 88.5002 68.4375 88.8752Z" fill="#EDAA15"/>
<path d="M66.375 97.6875C66.375 97.6875 66.1875 97.6875 66.375 97.6875C65.8125 97.6875 65.625 97.6875 65.625 97.125C65.625 96.5625 65.625 96.3751 65.8125 96.0001C66 95.4376 66.5625 95.0625 66.375 94.5C66.1875 93.9375 65.625 93.75 65.25 93.375C64.6875 93.1875 64.5 92.8125 64.3125 92.4375H64.5C65.0625 93 65.4375 93.1875 66 93.5625C66.1875 93.75 66.5625 94.125 66.75 94.3125C66.75 94.5 66.75 95.0625 66.5625 95.25C66.375 95.8125 66 96 66 96.375C65.4375 97.125 65.8125 97.6875 66.375 97.6875Z" fill="#EDAA15"/>
<path d="M66.9375 112.875C74.8125 112.875 81.3751 113.063 81.3751 113.438C81.3751 113.625 75 114 66.9375 114C58.875 114 52.5 113.813 52.5 113.438C52.5 113.063 58.875 112.875 66.9375 112.875Z" fill="#C0A1D1"/>
<path d="M71.4375 113.437C71.4375 113.437 71.625 109.875 70.3125 109.875C69 109.875 71.0625 113.25 71.0625 113.25C71.0625 113.25 69.5625 111.187 69 111.375C68.25 111.375 70.125 113.062 70.6875 113.437C70.6875 113.437 69.1875 112.5 68.8125 112.688C68.625 112.875 70.6875 113.625 70.6875 113.625L71.4375 113.437Z" fill="#4A0B40"/>
<path d="M69.1875 111C69.1875 111 69 110.062 68.4375 109.875C68.25 109.687 67.875 109.875 68.25 110.062C68.625 110.437 69.1875 111 69.1875 111Z" fill="#4A0B40"/>
<path d="M68.8125 112.125C68.8125 112.125 68.6251 111.562 68.2501 111.562C68.2501 111.562 68.0626 111.562 68.2501 111.75L68.8125 112.125Z" fill="#4A0B40"/>
<path d="M57.375 113.437C57.375 113.437 57.375 111.75 56.8125 111.75C56.0625 111.75 57 113.25 57 113.25C57 113.25 56.25 112.312 56.0625 112.312C55.875 112.312 56.625 113.062 56.8125 113.25C56.8125 113.25 56.0625 112.687 55.875 113.062C55.6875 113.25 56.8125 113.625 56.8125 113.625H57.375V113.437Z" fill="#4A0B40"/>
<path d="M56.4375 112.125C56.4375 112.125 56.4375 111.562 56.25 111.562C56.25 111.562 56.0625 111.562 56.0625 111.75C56.25 111.937 56.4375 112.125 56.4375 112.125Z" fill="#4A0B40"/>
<path d="M56.25 112.687C56.25 112.687 56.0625 112.687 56.25 112.687C56.0625 112.5 56.0625 112.5 56.0625 112.5C56.0625 112.687 56.25 112.687 56.25 112.687Z" fill="#4A0B40"/>
<path d="M-29.25 27.75C-11.0246 27.75 3.75002 12.9754 3.75002 -5.24999C3.75002 -23.4754 -11.0246 -38.25 -29.25 -38.25C-47.4754 -38.25 -62.25 -23.4754 -62.25 -5.24999C-62.25 12.9754 -47.4754 27.75 -29.25 27.75Z" fill="#DCC9E5"/>
<path d="M1.12504 12.1875C0.562544 12 0.56255 11.4375 0.75005 10.875C2.06255 8.43749 3.00005 5.99999 3.75005 3.37499C3.93755 2.81249 4.31254 2.625 4.87504 2.625C5.43754 2.625 5.81255 3.18751 5.62505 3.75001C4.87505 6.56251 3.93755 9.18753 2.43755 11.625C2.25005 12.1875 1.68754 12.375 1.12504 12.1875Z" fill="#DCC9E5"/>
<path d="M5.25004 -0.562256C5.81254 -0.562256 6.37504 0.000198342 6.37504 0.562698C6.37504 1.1252 5.81254 1.68771 5.25004 1.68771C4.68754 1.68771 4.12503 1.1252 4.12503 0.562698C4.31253 0.000198342 4.68754 -0.562256 5.25004 -0.562256Z" fill="#DCC9E5"/>
</g>
</svg>
