<svg width="334" height="401" viewBox="0 0 334 401" fill="none" xmlns="http://www.w3.org/2000/svg">
<path d="M166.857 400.057C258.85 400.057 333.425 385.993 333.425 368.644C333.425 351.295 258.85 337.231 166.857 337.231C74.8641 337.231 0.289062 351.295 0.289062 368.644C0.289062 385.993 74.8641 400.057 166.857 400.057Z" fill="#E8AE9E"/>
<path d="M134.844 395.655C148.546 395.655 159.654 393.012 159.654 389.752C159.654 386.493 148.546 383.85 134.844 383.85C121.142 383.85 110.034 386.493 110.034 389.752C110.034 393.012 121.142 395.655 134.844 395.655Z" fill="#100F14"/>
<path d="M90.8259 382.049C96.7378 382.049 101.53 380.84 101.53 379.348C101.53 377.856 96.7378 376.647 90.8259 376.647C84.914 376.647 80.1216 377.856 80.1216 379.348C80.1216 380.84 84.914 382.049 90.8259 382.049Z" fill="#100F14"/>
<path d="M253.492 384.15C277.361 384.15 296.71 381.507 296.71 378.248C296.71 374.988 277.361 372.345 253.492 372.345C229.624 372.345 210.275 374.988 210.275 378.248C210.275 381.507 229.624 384.15 253.492 384.15Z" fill="#100F14"/>
<path d="M321.12 347.635C321.12 347.635 309.615 348.936 305.614 359.94C305.614 356.739 305.614 352.437 304.813 347.435L305.113 347.135C308.015 346.335 317.418 342.833 319.219 331.129C319.219 331.129 307.214 333.529 304.313 345.834C304.013 344.534 303.813 343.133 303.513 341.833C303.013 339.132 301.912 336.231 300.812 333.329L301.112 333.029C303.513 331.729 311.016 326.627 310.416 315.922C310.416 315.922 300.312 320.224 300.312 331.629C298.711 327.927 296.81 323.926 294.209 320.124V319.824C296.11 317.923 300.912 312.121 297.91 303.017C297.91 303.017 291.008 308.919 292.808 318.223C291.208 315.822 289.307 313.721 287.206 311.32V311.02C288.507 309.12 291.508 303.517 288.006 296.915C288.006 296.915 282.904 302.517 285.906 309.72C284.005 308.119 282.204 306.218 280.303 304.618C281.404 303.017 283.205 298.215 280.003 292.913C280.003 292.913 276.302 298.015 278.903 303.617C277.602 302.517 276.001 301.517 274.401 300.416V300.116C275.201 298.515 276.502 295.014 273.901 291.312C273.901 291.312 270.999 295.614 273.4 300.116V300.616C268.098 298.515 264.297 302.517 264.297 302.517C268.799 304.418 272 302.517 273.4 301.416C275.001 302.517 276.302 303.517 277.902 304.618C272 303.317 267.798 307.319 267.798 307.319C273.701 309.72 277.902 307.019 279.503 305.718C281.604 307.319 283.204 308.92 285.105 310.52C277.902 307.819 272.3 312.621 272.3 312.621C279.003 316.323 284.605 313.421 286.406 312.121H286.706C288.807 314.222 290.708 316.623 292.308 318.823C284.005 313.721 276.302 318.523 276.302 318.523C283.805 324.126 291.008 321.425 293.409 320.424H293.709C296.11 323.926 297.71 327.127 299.311 330.528C292.108 323.025 282.504 325.726 282.504 325.726C288.907 334.23 297.71 333.73 300.411 333.229C301.712 336.431 302.512 339.332 303.113 342.033C303.413 342.833 303.413 343.634 303.613 344.734C297.71 334.83 286.506 335.43 286.506 335.43C291.308 346.335 301.212 347.735 304.113 347.735C304.913 353.338 304.913 357.839 304.913 361.041C300.111 349.536 288.106 349.336 288.106 349.336C292.108 360.54 301.712 362.641 304.613 362.942C304.613 363.442 304.613 364.042 304.313 364.542C304.313 364.842 304.613 365.342 304.813 365.342C305.114 365.342 305.614 365.042 305.614 364.842C305.614 364.542 305.614 364.042 305.914 363.242L306.214 362.942C308.615 362.041 318.019 359.34 321.12 347.635Z" fill="#100F14"/>
<path d="M11.6938 360.44C11.6938 360.44 23.1985 361.741 27.2002 372.745C27.2002 369.544 27.2 365.242 28.0003 360.24L27.7004 359.94C24.7992 359.14 15.3953 355.638 13.5945 343.934C13.5945 343.934 25.5993 346.335 28.5005 358.64C28.8006 357.339 29.0008 355.939 29.3009 354.638C29.8011 351.937 30.9015 349.036 32.0019 346.135L31.702 345.834C29.301 344.534 21.7979 339.432 22.3982 328.727C22.3982 328.727 32.5021 333.029 32.5021 344.434C34.1028 340.732 36.0037 336.731 38.6047 332.929V332.629C36.7039 330.728 31.902 324.926 34.9033 315.822C34.9033 315.822 41.8059 321.725 40.0052 331.028C41.6058 328.627 43.5067 326.527 45.6076 324.126V323.825C44.307 321.925 41.3058 316.322 44.8072 309.72C44.8072 309.72 49.9094 315.322 46.9082 322.525C48.8089 320.924 50.6095 319.024 52.5103 317.423C51.4098 315.822 49.6092 311.02 52.8105 305.718C52.8105 305.718 56.5121 310.82 53.911 316.422C55.2115 315.322 56.8122 314.322 58.4128 313.221V312.921C57.6125 311.32 56.312 307.819 58.913 304.117C58.913 304.117 61.8142 308.419 59.4133 312.921V313.421C64.7154 311.32 68.5168 315.322 68.5168 315.322C64.015 317.223 60.8138 315.322 59.4133 314.222C57.8126 315.322 56.5121 316.322 54.9114 317.423C60.8138 316.122 65.0154 320.124 65.0154 320.124C59.113 322.525 54.9113 319.824 53.3107 318.523C51.2098 320.124 49.6093 321.725 47.7085 323.325C54.9115 320.624 60.5136 325.426 60.5136 325.426C53.8108 329.128 48.2087 326.226 46.4079 324.926H46.1078C44.0069 327.027 42.106 329.428 40.5054 331.629C48.8088 326.527 56.5119 331.328 56.5119 331.328C49.0089 336.931 41.8061 334.23 39.4051 333.229H39.1049C36.7039 336.731 35.1032 339.932 33.5025 343.333C40.7055 335.83 50.3094 338.531 50.3094 338.531C43.9068 347.035 35.1033 346.535 32.4022 346.035C31.1017 349.236 30.3014 352.137 29.7012 354.838C29.4011 355.638 29.4011 356.439 29.201 357.539C35.1034 347.635 46.3078 348.235 46.3078 348.235C41.5059 359.14 31.602 360.54 28.7008 360.54C27.9005 366.143 27.9004 370.645 27.9004 373.846C32.7024 362.341 44.7073 362.141 44.7073 362.141C40.7057 373.346 31.1018 375.446 28.2006 375.747C28.2006 376.247 28.2004 376.847 28.5005 377.347C28.5005 377.647 28.2004 378.148 28.0003 378.148C27.7002 378.148 27.2002 377.847 27.2002 377.647C27.2002 377.347 27.2001 376.847 26.9 376.047L26.5998 375.747C24.1988 374.546 14.595 371.845 11.6938 360.44Z" fill="#100F14"/>
<path d="M298.011 374.846C298.011 375.947 297.71 376.947 296.91 377.747C291.008 385.451 272.1 381.449 272.1 381.449L229.183 367.043C224.881 365.743 223.28 360.34 225.981 356.939L228.082 354.238L229.383 352.137L230.183 351.037L235.285 342.733C235.785 341.933 236.385 341.132 237.186 340.332C237.986 339.532 238.786 338.732 239.887 338.231C240.187 338.231 240.187 337.931 240.387 337.931C241.688 337.431 242.788 337.131 243.588 337.631C245.689 339.532 243.288 342.433 247.29 344.334C251.292 346.235 260.895 340.632 260.895 340.632L260.595 339.032C260.595 337.731 261.096 336.331 261.896 335.53C262.396 335.03 263.196 334.73 263.997 334.43C265.097 334.13 266.398 334.73 267.198 335.23C267.998 335.73 268.299 336.531 268.499 337.331C268.999 339.232 269.599 341.033 270.399 342.933C270.699 343.434 270.699 343.734 270.9 344.234C271.1 344.734 271.4 345.534 272 346.135C272.3 346.635 272.5 346.935 272.8 347.435C273.101 347.935 273.601 348.736 273.901 349.336C274.201 349.636 274.401 350.136 274.701 350.436C275.201 350.937 275.501 351.537 276.002 352.337C276.302 352.637 276.502 353.137 276.802 353.438C277.302 353.938 277.602 354.538 278.102 355.038C278.403 355.338 278.603 355.839 279.203 356.139C279.703 356.639 280.303 357.239 280.804 357.739C281.104 358.039 281.604 358.54 281.904 358.84C282.404 359.34 283.005 359.94 283.505 360.44C283.805 360.741 284.305 361.241 284.605 361.541C288.907 365.542 293.109 368.444 295.81 370.344C296.91 371.145 297.41 371.945 297.71 373.046C298.011 374.046 298.011 374.246 298.011 374.846Z" fill="#FE9329"/>
<path d="M296.61 374.546C286.506 379.048 237.686 356.139 229.683 352.137L230.483 351.037L235.585 342.733C236.085 341.933 236.686 341.132 237.486 340.332C238.286 339.532 239.086 338.732 240.187 338.231C240.487 338.231 240.487 337.931 240.687 337.931C241.988 337.431 243.088 337.131 243.888 337.631C245.989 339.532 243.588 342.433 247.59 344.334C251.591 346.235 261.195 340.632 261.195 340.632L260.895 339.032C260.895 337.731 261.396 336.331 262.196 335.53C262.696 335.03 263.497 334.73 264.297 334.43C265.397 334.13 266.698 334.73 267.498 335.23C266.198 335.23 264.297 335.23 263.997 336.531C263.096 339.332 278.502 370.044 296.61 374.546Z" fill="#E06A00"/>
<path d="M169.458 314.522C164.656 323.025 162.755 333.229 162.555 336.331C162.555 337.131 162.555 337.431 162.555 337.431C162.555 337.431 148.65 341.433 140.146 337.131C131.643 332.829 139.346 322.225 139.346 322.225L146.849 315.822L151.151 306.519L169.458 314.522Z" fill="#181461"/>
<path d="M162.255 336.431C162.555 337.231 162.255 337.531 162.255 337.531C162.255 337.531 148.349 341.533 139.846 337.231C131.342 332.929 139.045 322.325 139.045 322.325L146.548 315.922L150.85 306.619L169.558 314.322L156.253 313.021L153.551 320.724C151.15 327.927 155.052 335.03 162.255 336.431Z" fill="#030344"/>
<path d="M260.895 337.731C260.595 338.231 260.595 338.832 260.595 339.332L260.895 340.933C260.895 340.933 251.292 346.535 247.29 344.634C243.288 342.733 245.689 339.832 243.588 337.931C242.788 337.131 241.487 337.431 240.387 338.231C239.887 331.529 237.486 320.324 236.385 315.822C236.085 315.022 236.085 314.522 236.085 314.222L256.894 309.92C256.894 310.72 257.194 311.821 257.194 312.621C257.194 312.921 257.194 313.121 257.194 313.421C258.795 324.626 261.196 332.629 262.496 336.331C261.496 336.431 261.195 336.931 260.895 337.731Z" fill="#181461"/>
<path d="M260.695 339.332L260.995 340.933C260.995 340.933 251.391 346.535 247.39 344.634C243.388 342.733 245.789 339.832 243.688 337.931C242.888 337.131 241.587 337.431 240.487 338.231C239.987 331.529 237.586 320.324 236.485 315.822L257.294 312.621L258.594 312.321L257.294 313.121L244.789 322.225L246.089 329.428C247.39 336.331 254.593 340.632 261.296 337.931C261.296 337.931 261.295 337.931 261.595 337.931C260.695 338.231 260.695 338.832 260.695 339.332Z" fill="#030344"/>
<path d="M186.265 109.538L178.762 149.254H173.16L166.457 181.468L164.856 189.771C164.056 189.471 118.237 174.865 83.5231 199.075C83.5231 199.075 80.622 65.0201 150.15 51.4146C150.15 51.4146 151.751 52.2149 153.852 55.4162C155.152 57.517 156.753 61.0184 157.853 66.1205C157.853 66.4206 157.853 66.6207 158.154 66.6207C158.454 67.7211 158.654 68.5215 158.954 69.3219C162.155 78.4256 168.058 80.5264 168.058 80.5264L172.86 74.624L181.963 88.7297C183.064 90.3303 183.864 91.6309 184.364 93.2315C186.865 98.6337 187.366 104.236 186.265 109.538Z" fill="#FE9329"/>
<path d="M166.857 181.568L165.757 187.17L165.257 189.871V190.171C165.257 190.171 165.256 190.171 164.956 190.171C161.455 189.071 117.537 176.065 83.9233 199.475C83.9233 199.475 82.8228 154.657 95.6281 114.14C104.932 84.528 121.238 57.3169 150.55 51.7146C150.55 51.7146 152.151 52.5149 154.252 55.7162C155.553 57.8171 157.153 61.3186 158.254 66.4207C158.254 66.7208 158.253 66.9209 158.554 66.9209C158.854 68.0213 159.054 68.8216 159.354 69.6219C156.953 65.6203 152.651 59.2177 149.75 58.9176C149.75 58.9176 124.74 66.1206 121.739 81.3268C118.537 96.533 115.836 117.842 115.836 117.842C115.836 117.842 131.343 123.144 146.249 129.847L149.95 157.058L161.655 177.866C162.855 179.667 164.656 180.967 166.857 181.568Z" fill="#E06A00"/>
<path d="M168.458 187.37C168.458 187.37 167.357 188.17 165.257 189.471C165.257 189.471 164.956 189.471 164.956 189.771C161.455 188.67 117.537 175.665 83.9233 199.075C83.9233 199.075 82.8228 154.256 95.6281 113.74C92.1266 128.446 89.5256 147.354 92.927 160.159C99.6297 183.868 144.648 179.367 144.648 179.367C148.65 183.668 160.355 186.069 165.757 186.87C167.357 187.37 168.458 187.37 168.458 187.37Z" fill="#964000"/>
<path d="M125.74 227.086C122.239 226.586 118.837 225.986 115.336 225.485C92.7267 220.984 75.1196 212.18 75.6198 205.777C80.4217 204.677 88.1249 204.977 88.1249 204.977L125.74 227.086Z" fill="#020202"/>
<path d="M165.757 340.933C164.956 343.334 164.456 346.035 163.856 348.636C163.856 349.136 163.556 349.736 163.556 349.936C163.255 350.737 163.255 351.537 163.055 352.337C163.055 352.837 162.755 353.438 162.755 353.638C162.755 354.438 162.455 355.238 162.455 356.039C162.455 356.539 162.455 357.139 162.155 357.339C162.155 358.139 161.855 358.94 161.855 359.74C161.855 360.24 161.855 360.841 161.555 361.041C161.555 361.841 161.255 362.641 161.255 363.442C161.255 363.942 161.255 364.542 161.255 364.742C161.255 365.542 161.255 366.343 160.955 367.143C160.955 367.643 160.955 368.244 160.955 368.444C160.955 369.244 160.955 370.044 160.955 370.845C160.955 371.345 160.955 371.945 160.955 372.145C160.955 375.347 160.955 378.048 160.955 380.148C160.955 382.249 160.955 384.15 160.654 385.751C160.354 387.351 159.554 388.652 158.554 389.752C157.253 390.853 155.653 391.653 153.752 391.653H151.351C149.25 391.653 146.849 391.353 144.648 390.553C141.147 389.452 137.945 387.351 135.344 384.45C124.14 371.345 127.641 350.036 127.641 350.036C121.739 339.332 120.938 331.929 121.538 327.127C121.839 323.625 124.44 321.024 127.641 320.424L131.342 319.624L132.943 319.124L143.648 315.622L146.349 314.822C144.448 317.523 144.448 321.725 144.448 321.725L140.146 327.627C139.646 333.229 144.448 335.63 144.448 335.63C145.248 334.33 146.849 333.229 148.45 333.229H148.75L159.154 334.33L161.855 334.63C164.656 335.83 166.557 338.532 165.757 340.933Z" fill="#FE9329"/>
<path d="M298.011 374.846C298.011 375.947 297.71 376.947 296.91 377.748C291.008 385.451 272.1 381.449 272.1 381.449L229.183 367.043C224.881 365.743 223.28 360.34 225.981 356.939L228.082 354.238L229.383 352.137C237.686 356.139 286.406 379.048 296.31 374.546C296.81 374.246 297.41 374.046 297.61 373.446C298.011 374.046 298.011 374.246 298.011 374.846Z" fill="#181461"/>
<path d="M158.854 391.353C157.553 392.453 155.953 393.254 154.052 393.254H151.651C149.55 393.254 147.149 392.954 144.948 392.153C144.648 392.153 144.648 392.153 144.448 391.853C144.148 391.853 144.148 391.853 143.948 391.553C143.648 391.553 143.648 391.253 143.448 391.253C142.947 390.953 142.347 390.753 141.547 390.453C141.247 390.453 141.247 390.153 141.047 390.153C140.746 390.153 140.746 389.852 140.546 389.852C140.246 389.552 139.746 389.352 139.446 389.052C139.146 389.052 139.146 388.752 138.946 388.752C138.646 388.752 138.646 388.452 138.446 388.452C138.146 388.152 138.146 388.152 137.945 387.952C137.645 387.652 137.645 387.652 137.445 387.452C137.145 387.151 137.145 387.151 136.945 386.951L136.645 386.651C136.345 386.351 136.345 386.151 136.145 386.151C124.94 373.046 128.442 351.737 128.442 351.737C122.539 341.033 121.739 333.629 122.339 328.828C122.639 325.326 125.24 322.725 128.442 322.125L132.143 321.324C132.143 321.324 126.541 337.831 135.844 369.044C138.746 378.648 142.547 384.25 146.249 387.452C150.851 391.353 155.352 391.853 158.854 391.353Z" fill="#181461"/>
<path d="M260.695 313.521L233.484 318.623L231.583 309.32L232.684 309.019L217.778 260.8L214.877 259.699L209.574 257.599L175.461 308.019L176.261 308.319L172.559 317.123L147.249 306.218L150.951 297.415L152.551 298.215L167.257 251.296L107.233 223.585C96.5286 218.483 88.3251 209.979 83.8232 199.075C99.3296 188.17 117.137 185.169 132.343 185.169C150.751 185.169 164.556 189.671 165.156 189.971L191.767 202.276L238.987 223.885C241.087 224.985 242.988 225.986 244.889 227.586C249.691 231.588 252.592 237.19 253.392 243.593C253.392 244.093 253.392 244.393 253.392 244.893L257.694 304.918L258.795 304.618L260.695 313.521Z" fill="#4A51DF"/>
<path d="M211.876 27.5047C211.876 27.5047 211.876 24.8036 210.275 24.3034C210.275 24.3034 209.975 38.7093 199.57 45.9122C199.57 45.6121 203.572 36.6084 201.972 29.4055C201.972 29.4055 193.968 31.3062 187.566 26.2041C187.866 26.2041 193.668 27.3046 195.069 20.1016C195.069 20.1016 193.768 22.0024 191.367 23.0028C188.666 24.1033 184.965 24.6035 180.663 21.102C180.363 21.4022 175.361 25.6039 170.259 27.0045C170.259 27.0045 171.059 26.5043 171.359 24.3034C171.359 24.3034 164.656 27.2045 165.257 38.209C165.257 38.209 162.055 37.4087 160.154 28.9053C160.154 28.9053 155.052 28.105 154.252 30.8061C153.452 33.207 155.352 41.5103 162.555 41.2102C162.555 41.2102 160.155 42.3108 157.754 42.3108C157.754 42.3108 157.253 49.0135 150.55 51.4144C150.851 51.1143 151.651 49.3136 151.051 46.3124C151.051 46.3124 150.55 47.6129 150.55 48.4132C150.55 48.4132 144.648 37.7089 150.851 22.8028C150.551 23.1029 150.351 23.3029 148.45 24.1033C148.45 24.1033 151.951 21.2021 156.753 12.8987C161.855 4.59536 185.565 -8.91019 202.372 8.59694C202.772 9.09715 215.077 15.4998 211.876 27.5047Z" fill="#181461"/>
<path d="M199.57 45.8123C199.57 45.8123 196.069 55.9164 190.467 58.9176C189.166 59.7179 187.566 60.0181 185.965 59.4178L173.16 74.624L168.358 80.5264C168.358 80.5264 162.455 78.4256 159.254 69.3219C158.954 68.5215 158.754 67.421 158.454 66.6207C158.454 66.3206 158.454 66.1205 158.154 66.1205C157.053 61.0184 155.452 57.6171 154.152 55.4162C152.251 52.2149 150.45 51.4145 150.45 51.4145C157.153 49.0136 157.653 42.3109 157.653 42.3109C160.054 42.3109 162.455 41.2103 162.455 41.2103C155.553 41.5104 153.352 33.2071 154.152 30.8062C154.952 28.4052 160.054 28.9054 160.054 28.9054C161.655 37.2088 165.156 38.2091 165.156 38.2091C164.656 27.5047 171.059 24.6036 171.259 24.3035C171.259 26.4044 170.158 27.0046 170.158 27.0046C175.261 25.704 180.563 21.1021 180.563 21.1021C188.866 28.0049 194.969 20.0017 194.969 20.0017C193.668 27.2046 187.466 26.1042 187.466 26.1042C190.967 28.8053 195.169 29.3055 197.87 29.6056C200.271 29.6056 201.871 29.3056 201.871 29.3056C203.572 36.5085 199.57 45.6122 199.57 45.8123Z" fill="#FF8A9C"/>
<path d="M199.57 45.8122C201.471 38.1091 199.871 32.7068 197.97 29.8057C200.371 29.8057 201.971 29.5055 201.971 29.5055C203.572 36.5083 199.57 45.6121 199.57 45.8122Z" fill="#EF5472"/>
<path d="M205.973 26.1042C205.973 26.1042 205.673 13.7992 199.07 14.8996C199.07 14.8996 200.171 18.1009 197.77 21.0021C197.77 21.0021 197.269 13.299 188.966 16.5003C180.663 19.7016 180.162 12.4986 180.162 12.4986C180.162 12.4986 176.961 16.5003 180.463 21.3023C180.162 21.3023 171.659 23.7032 170.058 18.9013C170.058 18.9013 160.454 26.6044 164.956 38.4092C164.956 38.4092 161.755 37.6088 159.854 29.1054C159.854 29.1054 154.752 28.3051 153.952 31.0062C153.151 33.4072 155.052 41.7106 162.255 41.4104C162.255 41.4104 159.854 42.5109 157.453 42.5109C157.453 42.5109 156.953 49.2136 150.25 51.6146C150.55 51.3144 151.351 49.5137 150.751 46.5125C150.751 46.5125 150.25 47.813 150.25 48.6133C150.25 48.6133 144.348 37.909 150.55 23.0029C150.25 23.303 150.05 23.5032 148.149 24.3035C148.149 24.3035 151.651 21.4022 156.453 13.0989C161.555 4.79547 185.264 -8.70996 202.071 8.79717C202.772 9.0973 209.775 14.8996 205.973 26.1042Z" fill="#04044C"/>
<path d="M167.357 43.7113C163.656 30.1058 170.859 24.8037 171.059 24.5035C170.758 24.8037 164.356 27.7049 164.956 38.4092C164.956 38.4092 161.755 37.6089 159.854 29.1054C159.854 29.1054 152.951 29.1054 156.953 39.5097C158.254 40.6101 159.854 41.4105 162.055 41.4105C162.055 41.4105 159.654 42.5109 157.253 42.5109C157.253 42.5109 156.753 49.2136 150.05 51.6146C150.05 51.6146 151.651 52.4149 153.752 55.6162C154.052 55.6162 154.052 55.3161 154.252 55.3161C159.854 52.415 166.557 52.615 172.159 55.8164C178.062 59.0177 184.664 59.8179 185.465 60.118C184.964 59.4177 171.059 57.3169 167.357 43.7113Z" fill="#EF5472"/>
<path d="M194.768 20.5018C193.468 27.4046 187.566 26.6043 187.265 26.6043C189.166 26.1041 190.167 24.7036 190.967 23.403C193.468 22.4026 194.768 20.5018 194.768 20.5018Z" fill="#EF5472"/>
<path d="M114.335 83.9277L109.533 122.844L128.241 132.748L124.24 137.55L109.834 128.246C107.733 126.945 106.632 124.244 106.933 121.543L114.335 83.9277Z" fill="#964000"/>
<path d="M149.25 94.332L146.048 129.847L144.748 152.756L150.05 157.058L149.25 94.332Z" fill="#E06A00"/>
<path d="M121.739 131.147C123.339 131.947 124.64 132.247 124.64 132.247L146.249 129.847C145.448 129.546 131.042 125.545 120.638 123.444C114.536 122.143 109.734 121.543 109.434 122.944C109.033 125.545 117.237 129.246 121.739 131.147Z" fill="#04044C"/>
<path d="M182.563 105.536L176.661 149.254H173.46L182.563 105.536Z" fill="#E06A00"/>
<path d="M173.26 74.924L168.458 80.8265C168.458 80.8265 162.555 78.7255 159.354 69.6218C165.456 82.1269 172.96 75.2242 173.26 74.924Z" fill="#EF5472"/>
<path d="M176.461 45.0118C178.671 45.0118 180.463 43.2202 180.463 41.0102C180.463 38.8001 178.671 37.0085 176.461 37.0085C174.251 37.0085 172.459 38.8001 172.459 41.0102C172.459 43.2202 174.251 45.0118 176.461 45.0118Z" fill="#EF5472"/>
<path d="M179.862 46.1121C179.862 46.4121 179.562 46.6121 179.362 46.6121C179.062 46.6121 178.862 46.3121 178.862 46.1121C178.862 45.8121 179.162 45.6121 179.362 45.6121C179.662 45.6121 179.862 45.8121 179.862 46.1121Z" fill="#EF5472"/>
<path d="M197.97 47.7129C199.738 47.7129 201.171 46.2797 201.171 44.5117C201.171 42.7436 199.738 41.3104 197.97 41.3104C196.202 41.3104 194.769 42.7436 194.769 44.5117C194.769 46.2797 196.202 47.7129 197.97 47.7129Z" fill="#EF5472"/>
<path d="M196.168 50.1138C196.168 50.4138 195.868 50.6138 195.668 50.6138C195.468 50.6138 195.168 50.3138 195.168 50.1138C195.168 49.8138 195.468 49.6138 195.668 49.6138C196.168 49.8138 196.168 50.1138 196.168 50.1138Z" fill="#EF5472"/>
<path d="M189.266 40.51C190.758 40.51 191.967 39.3007 191.967 37.809C191.967 36.3172 190.758 35.1078 189.266 35.1078C187.774 35.1078 186.565 36.3172 186.565 37.809C186.565 39.3007 187.774 40.51 189.266 40.51Z" fill="#EF5472"/>
<path d="M260.695 313.521L233.484 318.623L231.583 309.32L232.684 309.019L217.778 260.8L214.877 259.699C216.777 255.398 219.178 248.495 218.378 242.592C217.077 232.988 208.474 224.985 206.373 223.885C204.272 222.784 179.462 204.677 179.462 204.677C179.462 204.677 179.462 204.677 179.162 204.677C178.062 204.177 177.061 203.877 175.961 203.576C174.36 203.276 173.06 203.076 171.659 203.076C154.552 202.576 144.248 226.786 160.955 237.99L170.058 244.093L190.567 238.191L206.573 241.392L190.867 240.291C179.162 245.393 170.358 255.498 166.657 267.703L160.755 287.211C158.854 293.613 161.855 300.516 167.657 303.717L175.661 308.019L175.961 308.319L176.461 308.619L156.453 302.517L154.852 306.518L172.76 317.423L147.449 306.518L151.151 297.715L152.751 298.515L167.457 251.596L107.433 223.885C96.7285 218.783 88.525 210.279 84.0232 199.375C118.637 175.165 164.556 189.771 165.356 190.071L170.959 192.772L192.067 202.376C199.77 209.579 216.077 225.285 220.879 231.988C226.982 240.792 225.681 256.998 225.681 256.998L237.386 252.196C230.683 257.498 227.782 266.302 229.883 274.805L234.385 293.513C236.285 301.216 243.688 306.318 251.492 305.518L258.194 304.718L240.287 310.62L241.387 313.821L260.695 313.521Z" fill="#2834D1"/>
<path d="M140.446 232.188L167.357 251.396L145.248 240.992L137.545 237.49L107.433 223.585C96.7285 218.483 88.525 209.979 84.0232 199.075C99.5295 188.17 117.337 185.169 132.543 185.169C150.95 185.169 164.756 189.671 165.356 189.971L170.959 192.672L176.261 203.877L177.561 206.778L171.659 203.276L160.154 196.073C159.854 196.073 159.654 195.773 159.354 195.773C136.745 186.87 120.438 218.082 140.446 232.188Z" fill="#181461"/>
<path d="M193.468 214.281L189.266 212.48L176.661 206.278L173.46 204.977L173.26 204.477L165.256 189.771L173.46 149.254H177.761L178.862 166.862L193.468 214.281Z" fill="#FF8A9C"/>
<path d="M168.157 200.175C161.255 197.274 152.951 190.071 144.448 186.57L131.643 167.062C127.941 160.659 125.54 153.756 124.139 146.553L122.039 133.248L121.739 131.147L121.438 129.846L120.338 123.444C131.042 125.545 145.148 129.546 145.948 129.846V135.149C145.948 142.652 147.549 150.055 150.45 156.958L168.157 200.175Z" fill="#FF8A9C"/>
<path d="M186.565 210.279L171.659 201.776L164.956 189.771L173.26 149.254H177.762L174.56 152.456L172.459 172.464C171.159 183.668 173.76 195.073 179.662 204.977L186.565 210.279Z" fill="#EF5472"/>
<path d="M150.85 187.67L140.746 169.763C135.144 159.859 131.943 148.654 131.443 137.249L131.142 130.847C138.345 129.746 146.349 130.047 146.349 130.047C145.548 129.746 131.143 125.745 120.738 123.644L122.039 131.347L122.339 133.448L124.44 146.753C125.54 153.956 128.141 160.859 131.943 167.262L144.748 186.77C150.851 190.471 149.25 189.671 168.458 200.375L150.85 187.67Z" fill="#EF5472"/>
<path d="M220.979 248.195C220.979 248.995 220.679 249.795 220.479 250.596L218.078 260.7L209.775 257.498L214.576 249.195C214.877 248.695 215.077 248.095 215.377 247.594C217.778 241.692 216.677 235.089 212.476 230.487C211.675 229.387 210.575 228.587 209.574 227.786L142.147 184.569L171.959 201.376L186.865 209.879L208.474 222.184C211.375 223.785 213.776 225.886 215.977 228.587C219.879 234.289 221.98 241.292 220.979 248.195Z" fill="#181461"/>
<path d="M163.656 348.636C163.656 349.136 163.356 349.736 163.356 349.936L149.25 349.636C148.95 349.636 148.45 349.336 148.45 348.836C148.45 348.536 148.75 348.035 149.25 348.035L163.656 348.636Z" fill="#181461"/>
<path d="M163.055 352.637C163.055 353.138 162.755 353.738 162.755 353.938L149.65 353.638C149.35 353.638 148.85 353.338 148.85 352.837C148.85 352.537 149.15 352.037 149.65 352.037L163.055 352.637Z" fill="#181461"/>
<path d="M162.255 356.639C162.255 357.139 162.255 357.739 161.955 357.939L149.65 357.639C149.35 357.639 148.85 357.339 148.85 356.839C148.85 356.539 149.15 356.039 149.65 356.039L162.255 356.639Z" fill="#181461"/>
<path d="M162.055 360.441C162.055 360.941 162.055 361.541 161.755 361.741L150.251 361.441C149.95 361.441 149.45 361.141 149.45 360.641C149.45 360.14 149.75 359.84 150.251 359.84L162.055 360.441Z" fill="#181461"/>
<path d="M161.455 364.442C161.455 364.942 161.455 365.543 161.455 365.743L150.751 365.443C150.45 365.443 149.95 365.142 149.95 364.642C149.95 364.342 150.25 363.842 150.751 363.842L161.455 364.442Z" fill="#181461"/>
<path d="M161.255 368.444C161.255 368.944 161.255 369.544 161.255 369.744L151.151 369.444C150.851 369.444 150.35 369.144 150.35 368.644C150.35 368.344 150.651 367.843 151.151 367.843L161.255 368.444Z" fill="#181461"/>
<path d="M161.255 372.445C161.255 372.946 161.255 373.546 161.255 373.746L151.351 373.446C151.051 373.446 150.55 373.146 150.55 372.645C150.55 372.345 150.85 371.845 151.351 371.845L161.255 372.445Z" fill="#181461"/>
<path d="M271.3 344.934L266.798 346.835C266.498 347.135 265.997 346.835 265.697 346.535C265.397 346.235 265.697 345.734 265.997 345.434L270.299 343.534C271.1 344.134 271.1 344.634 271.3 344.934Z" fill="#181461"/>
<path d="M272.9 348.135L269.199 350.036C268.899 350.336 268.398 350.036 268.098 349.736C267.798 349.436 268.098 348.936 268.398 348.636L271.9 347.035C272.7 347.335 272.7 347.635 272.9 348.135Z" fill="#181461"/>
<path d="M275.101 351.037L271.9 352.637C271.6 352.937 271.1 352.637 270.8 352.337C270.5 352.037 270.799 351.537 271.1 351.237L274.001 349.636C274.501 350.236 274.801 350.536 275.101 351.037Z" fill="#181461"/>
<path d="M277.202 354.038L274.301 355.638C274.001 355.939 273.501 355.638 273.2 355.338C272.9 355.038 273.201 354.538 273.501 354.238L276.202 352.637C276.702 353.237 276.902 353.438 277.202 354.038Z" fill="#181461"/>
<path d="M279.603 356.639L276.702 358.24C276.402 358.54 275.901 358.24 275.601 357.939C275.301 357.639 275.601 357.139 275.902 356.839L278.603 355.238C278.803 355.839 279.303 356.439 279.603 356.639Z" fill="#181461"/>
<path d="M282.004 359.34L278.803 361.241C278.503 361.541 278.002 361.241 277.702 360.941C277.402 360.641 277.702 360.14 278.002 359.84L280.903 358.24C281.404 358.84 281.704 359.04 282.004 359.34Z" fill="#181461"/>
<path d="M284.605 362.041L281.104 364.142C280.803 364.442 280.303 364.142 280.003 363.842C279.703 363.542 280.003 363.041 280.303 362.741L283.505 360.841C284.105 361.241 284.405 361.741 284.605 362.041Z" fill="#181461"/>
<path d="M256.393 362.041L230.283 350.836L235.385 342.533C235.885 341.733 236.485 340.932 237.286 340.132C240.187 339.332 243.188 340.632 243.188 340.632C242.888 344.134 245.589 345.734 245.589 345.734C246.289 356.139 256.093 362.041 256.393 362.041Z" fill="#030344"/>
<path d="M158.053 106.137C158.053 109.638 156.453 112.239 154.552 112.239C152.651 112.239 151.051 109.538 151.051 106.137C151.051 102.735 152.651 100.034 154.552 100.034C156.653 99.9343 158.053 102.935 158.053 106.137Z" fill="#FFFDF8"/>
<path d="M215.077 247.895C211.375 246.594 208.374 242.792 208.374 238.591C208.374 235.389 209.675 232.688 212.075 230.888C216.377 235.39 217.778 242.092 215.077 247.895Z" fill="#7079F2"/>
<path d="M253.492 243.093C253.192 243.093 253.192 243.093 252.992 243.093C247.39 243.093 243.088 238.591 243.088 233.189C243.088 231.088 243.888 228.887 244.989 227.286C249.491 231.088 252.692 236.69 253.492 243.093Z" fill="#7079F2"/>
<path d="M159.654 335.33L148.449 336.631L147.149 341.133C147.149 341.133 136.745 372.545 146.048 387.251C146.048 387.251 146.048 386.951 146.048 387.251C142.347 384.05 138.545 378.448 135.644 368.844C126.34 337.631 131.943 321.124 131.943 321.124L133.543 320.624L144.248 317.123L146.949 316.322C145.048 319.023 145.048 323.225 145.048 323.225L140.746 329.128C140.246 334.73 145.048 337.131 145.048 337.131C145.848 335.83 147.449 334.73 149.05 334.73H149.35L159.654 335.33Z" fill="#E06A00"/>
<path d="M146.049 387.351C145.748 388.152 144.948 390.053 144.948 392.153C144.648 392.153 144.648 392.153 144.448 391.853C144.148 391.853 144.148 391.853 143.948 391.553C143.648 391.553 143.648 391.253 143.448 391.253C142.947 390.953 142.347 390.753 141.547 390.453C141.247 390.453 141.247 390.153 141.047 390.153C140.746 390.153 140.746 389.852 140.546 389.852C140.246 389.552 139.746 389.352 139.446 389.052C139.146 389.052 139.146 388.752 138.946 388.752C138.646 388.752 138.646 388.452 138.446 388.452C138.146 388.152 138.146 388.152 137.945 387.952C137.645 387.652 137.645 387.652 137.445 387.452C137.145 387.151 137.145 387.151 136.945 386.951L136.645 386.651C136.345 386.351 136.345 386.151 136.145 386.151C124.94 373.046 128.442 351.737 128.442 351.737C122.539 341.033 121.739 333.629 122.339 328.828C122.639 325.326 125.24 322.725 128.442 322.125L132.143 321.324C132.143 321.324 126.541 337.831 135.844 369.044C138.546 378.548 142.347 384.15 146.049 387.351Z" fill="#030344"/>
<path d="M143.147 322.825L139.646 326.827C134.344 332.429 133.243 345.534 133.243 345.534C131.342 333.229 132.743 324.226 133.543 320.724L144.248 317.223C142.847 319.324 143.147 322.825 143.147 322.825Z" fill="#030344"/>
<path d="M298.011 374.846C298.011 375.947 297.71 376.947 296.91 377.748C291.008 385.451 272.1 381.449 272.1 381.449L229.183 367.043C224.881 365.743 223.28 360.34 225.981 356.939L228.082 354.238L229.383 352.137C237.686 356.139 286.406 379.048 296.31 374.546C296.61 374.546 297.11 374.846 297.41 374.846C298.011 374.846 298.011 374.846 298.011 374.846Z" fill="#030344"/>
<path d="M144.948 241.292C141.247 243.393 132.643 247.394 119.338 247.394C119.338 247.394 112.135 247.394 103.631 245.293C88.7252 240.992 79.4214 228.787 75.1196 221.884C75.4198 222.184 105.232 245.294 137.245 237.891L144.948 241.292Z" fill="#020202"/>
</svg>
