<svg width="482" height="401" viewBox="0 0 482 401" fill="none" xmlns="http://www.w3.org/2000/svg">
<path d="M60.5914 379.257C60.5914 379.257 71.1928 380.558 74.9933 390.859C74.9933 387.958 74.9933 383.758 75.5933 379.257L75.2933 378.957C72.3929 378.357 64.0918 374.757 61.7915 363.855C61.7915 363.855 72.993 366.056 75.5933 377.657C75.8934 376.357 75.8934 375.057 76.1934 373.757C76.7935 371.156 77.4935 368.656 78.7937 365.756L78.4937 365.456C76.2935 364.155 69.1925 359.655 69.7926 349.354C69.7926 349.354 79.0937 353.554 79.3938 364.155C80.994 360.655 82.5942 357.055 85.1946 353.254V352.954C83.5943 351.354 78.7937 345.553 81.6941 337.252C81.6941 337.252 88.395 342.753 86.4948 351.354C88.095 349.154 89.6952 347.153 91.9955 344.953V344.653C90.6953 342.753 87.7948 337.952 91.3953 331.451C91.3953 331.451 95.8959 336.552 93.5957 343.653C95.1959 342.053 97.0961 340.452 99.0964 338.852C98.0962 337.252 96.1959 332.751 99.3963 327.951C99.3963 327.951 102.897 332.451 100.396 337.952C101.697 336.952 103.297 336.052 104.597 335.052V334.752C103.997 333.452 102.697 329.951 104.897 326.451C104.897 326.451 107.797 330.351 105.197 334.752V335.052C109.998 333.151 113.498 336.652 113.498 336.652C109.298 338.552 106.097 336.652 105.197 335.652C103.597 336.652 102.297 337.552 100.997 338.552C106.497 337.252 110.298 341.153 110.298 341.153C104.797 343.353 100.696 340.852 99.3963 339.852C97.4961 341.453 95.8959 342.753 94.2957 344.353C100.997 341.753 106.497 346.253 106.497 346.253C100.097 349.754 94.8958 346.853 93.2956 345.653H92.9956C91.0954 347.553 89.095 349.854 87.8948 352.054C95.5958 347.253 102.997 351.754 102.997 351.754C95.896 357.255 89.195 354.654 86.8947 353.654H86.5948C84.3945 356.855 82.6943 360.055 81.4941 362.955C88.195 355.854 97.1961 358.455 97.1961 358.455C91.0953 366.456 83.0943 365.856 80.494 365.556C79.1938 368.456 78.5937 371.356 77.8936 373.857C77.5935 374.857 77.5936 375.457 77.2935 376.057C82.7942 366.756 93.3956 367.356 93.3956 367.356C88.895 377.657 79.5939 378.557 76.9936 378.957C76.3935 384.058 75.9933 388.559 76.3934 391.459C80.894 380.858 92.0955 380.558 92.0955 380.558C88.595 391.159 79.2938 393.059 76.6935 393.359C76.6935 394.659 76.9936 395.259 76.9936 395.259L75.6933 395.559C75.6933 395.559 75.6933 394.559 75.3933 393.359L75.0933 393.059C72.493 392.659 63.4918 390.159 60.5914 379.257Z" fill="#481B16"/>
<path d="M252.316 398.16C252.316 398.16 238.514 387.258 224.012 388.559C209.611 389.859 210.811 398.16 183.507 392.059C156.204 385.958 146.602 397.86 114.498 397.86C82.3943 397.86 80.7941 387.859 33.588 398.16H252.316Z" fill="#D14B34"/>
<path d="M287.32 35.0133C287.32 35.0133 284.12 31.5129 278.319 30.2127C278.319 30.2127 281.52 32.1129 281.52 39.2139C281.82 46.6148 285.02 50.4153 285.02 50.4153C285.02 50.4153 286.92 53.9157 287.22 50.7153C287.62 47.5149 287.32 35.0133 287.32 35.0133Z" fill="#D16E69"/>
<path d="M285.02 38.5138C286.92 33.0131 285.32 27.6124 285.32 27.6124C287.52 32.113 294.921 35.3134 295.321 40.4141C295.321 43.6145 293.121 46.8149 291.421 48.4151C293.321 47.815 295.622 47.4149 297.522 48.7151C301.722 50.9154 304.623 48.7151 304.623 48.7151C304.623 48.7151 305.223 56.116 298.822 57.0162C292.421 57.6162 289.521 54.1158 289.521 54.1158L287.32 52.2155C284.42 48.8151 283.12 44.0145 285.02 38.5138Z" fill="#FEBEB4"/>
<path d="M275.119 40.7141C275.419 40.7141 275.419 40.7141 275.419 41.0141C276.719 41.0141 278.019 41.3141 279.319 42.0142C280.32 42.6143 281.22 43.6144 281.92 44.6146C282.92 45.9147 283.22 47.5149 283.52 48.115C284.82 48.115 287.02 51.0154 289.321 53.2157C290.921 55.1159 290.621 57.1161 290.321 58.0163C290.321 58.3163 290.021 58.3163 289.721 58.0163C288.721 57.4162 288.421 56.116 288.121 54.5158C287.821 52.9156 287.521 52.6156 286.52 52.3156C285.52 52.0155 284.92 50.7153 283.62 50.1153C282.32 49.8152 282.32 48.5151 282.62 48.215C282.32 47.915 282.02 46.9148 281.02 46.0147C280.02 45.0146 278.419 43.8145 276.519 43.4144C276.519 43.7145 276.219 43.7144 276.219 43.7144C275.919 43.7144 275.619 43.4144 275.619 43.1144C275.619 42.8143 275.919 42.5143 276.219 42.5143C276.519 42.5143 276.519 42.8143 276.819 42.8143C278.419 43.1144 280.02 44.1145 281.32 45.7147C281.92 46.7148 282.62 47.615 282.92 47.915C282.62 47.3149 282.32 46.0147 281.62 44.7146C280.02 42.5143 278.119 41.2141 275.519 41.2141C275.519 41.5142 275.219 41.5142 274.919 41.5142C274.619 41.5142 274.319 41.2141 274.319 40.9141C274.119 40.414 274.719 40.7141 275.119 40.7141Z" fill="#01161C"/>
<path d="M298.222 52.6154C298.222 53.2154 298.822 53.9154 299.522 53.9154C300.222 53.9154 300.822 53.3154 300.822 52.6154C300.822 51.9154 300.222 51.3154 299.522 51.3154C298.822 51.3154 298.222 52.0154 298.222 52.6154Z" fill="#01161C"/>
<path d="M289.521 46.5147C289.521 46.8147 289.821 47.5147 290.521 47.5147C291.121 47.5147 291.521 47.2147 291.521 46.5147C291.521 45.9147 291.221 45.5147 290.521 45.5147C289.821 45.6147 289.521 46.2147 289.521 46.5147Z" fill="#01161C"/>
<path d="M286.92 39.8136C286.92 41.4136 288.22 42.7136 289.82 42.7136C291.42 42.7136 292.72 41.4136 292.72 39.8136C292.72 38.2136 291.42 36.9136 289.82 36.9136C288.22 36.9136 286.92 38.2136 286.92 39.8136Z" fill="#01161C"/>
<path d="M291.421 51.7152C291.421 53.0152 292.421 53.9152 293.621 53.9152C294.921 53.9152 295.821 52.9152 295.821 51.7152C295.821 50.4152 294.821 49.5152 293.621 49.5152C292.421 49.4152 291.421 50.4152 291.421 51.7152Z" fill="#01161C"/>
<path d="M481.845 396.56H0.183716V400.06H481.845V396.56Z" fill="#031E2B"/>
<path d="M286.62 145.127C286.62 187.533 275.719 192.033 275.719 192.033L271.218 205.835L270.918 205.535L270.318 205.235L261.317 200.735L256.517 198.134L260.717 183.332C258.117 177.832 263.917 163.13 263.917 163.13L248.516 122.025L239.814 122.625L206.11 125.525C204.21 132.926 199.009 140.327 195.509 146.028C181.407 155.029 174.006 138.027 174.606 127.125C174.906 119.124 182.907 96.9213 187.108 85.7199C188.708 81.2193 192.208 77.0188 196.409 74.5184L200.909 71.6181L205.11 69.0177C205.11 69.0177 205.11 63.217 208.01 59.7166C208.61 59.1165 209.61 58.1164 210.911 57.8163C214.811 55.9161 220.212 55.216 220.212 55.216C220.212 55.216 228.213 53.6158 236.614 53.0157C240.815 52.7156 244.915 52.4156 248.516 52.4156C251.416 52.4156 253.616 52.7157 254.916 53.7158C258.817 55.616 261.017 60.8167 261.617 62.7169C261.917 63.017 261.917 63.317 261.917 63.317C264.818 63.9171 267.718 65.2173 270.618 66.8175C276.719 70.0179 280.62 75.8186 281.82 82.5195C283.72 94.721 286.62 117.224 286.62 145.127Z" fill="#FEBEB4"/>
<path d="M286.62 145.127C286.62 187.533 275.719 192.033 275.719 192.033C275.719 192.033 281.82 176.931 283.12 157.329C284.72 137.726 282.12 105.922 280.219 87.02C278.019 68.1176 261.617 63.2169 261.617 63.2169L241.115 76.0186C241.415 75.7185 255.916 63.2169 254.316 58.3163C253.016 54.4158 249.816 52.8156 248.215 52.2155C251.116 52.2155 253.316 52.5156 254.616 53.5157C258.517 55.4159 260.717 60.6166 261.317 62.5168C261.617 62.8169 261.617 63.1169 261.617 63.1169C264.517 63.717 267.418 65.0172 270.318 66.6174C276.419 69.8178 280.32 75.6185 281.52 82.3194C283.72 94.721 286.62 117.224 286.62 145.127Z" fill="#FFD6D2"/>
<path d="M261.617 63.517L248.415 122.325L239.714 122.925C241.715 114.924 250.716 80.2192 261.617 63.517Z" fill="#F9A9A0"/>
<path d="M271.518 206.135C271.518 206.135 267.018 250.441 264.117 260.742C260.917 271.044 262.217 333.652 259.317 338.752C256.716 343.853 248.115 346.453 248.415 349.054C248.715 351.254 253.216 352.554 253.916 355.454C254.516 358.355 252.616 367.656 252.316 369.256L247.215 372.757C247.215 372.156 248.515 364.055 238.914 363.455C228.613 362.855 228.313 368.556 228.313 368.556C228.313 368.556 225.413 362.455 226.113 360.255C226.713 358.355 228.013 358.355 228.013 358.355C228.013 358.355 228.013 353.254 230.613 352.254C230.613 352.254 225.512 351.254 224.812 347.153C224.212 342.953 226.413 312.149 232.513 306.648C232.513 306.648 228.313 302.148 229.013 295.447C229.613 288.746 227.413 250.841 222.912 234.739L176.006 338.752C176.006 338.752 177.906 344.253 177.606 346.153C177.306 348.053 177.306 348.053 177.306 348.053C177.306 348.053 179.207 352.554 177.006 355.454C175.106 358.055 171.506 362.155 170.305 363.455C170.005 363.755 170.005 363.755 170.005 363.755V368.856L145.602 354.054C145.602 354.054 147.803 348.253 151.403 346.953L146.302 340.552C146.302 340.552 150.203 322.85 155.604 320.05C155.604 320.05 158.204 293.746 166.505 288.246L192.808 180.032L195.409 169.431L196.409 166.23C196.409 166.23 191.608 163.63 190.908 157.529C190.608 154.929 192.808 151.128 195.709 146.928C199.609 141.127 204.41 134.126 206.31 126.425C205.71 124.225 205.31 121.924 204.71 119.724C205.01 119.124 205.31 118.724 205.31 118.124C206.61 115.924 206.91 110.723 209.21 104.622C210.511 115.524 213.111 123.925 213.711 125.825L244.215 123.225C249.716 94.0209 260.317 68.0176 261.917 64.4171C261.917 64.1171 261.917 64.1171 262.217 64.1171C265.118 64.7172 268.318 66.0173 270.918 67.6175C261.917 81.1193 252.916 126.425 252.316 131.226L264.518 164.03C264.518 164.03 262.617 169.131 261.317 174.331C260.317 178.232 260.017 182.032 261.317 184.332L257.117 199.134L261.917 201.735L270.218 205.935L271.518 206.135Z" fill="#341841"/>
<path d="M257.717 186.833L260.317 166.33L251.616 131.026L263.817 163.83C263.817 163.83 261.917 168.931 260.617 174.131C259.617 178.032 259.317 181.832 260.617 184.132L256.416 198.934L261.217 201.535L269.218 211.136L253.816 199.935L257.717 186.833Z" fill="#220C2D"/>
<path d="M167.805 380.858L166.805 384.358C166.205 386.258 164.205 387.558 162.304 386.958C153.003 384.058 128.3 376.657 124.7 374.457C123.7 373.857 123.1 373.157 122.499 372.257C120.899 369.656 121.899 366.156 124.7 364.856C124.7 364.856 126 359.755 131.101 360.955C133.701 361.555 135.901 361.955 138.501 360.955C138.802 360.955 139.102 360.655 139.502 360.655C140.102 360.355 140.802 360.055 141.102 359.655C141.402 359.655 141.702 359.355 142.102 359.055C142.402 358.755 143.102 358.455 143.702 358.055C144.002 357.755 144.302 357.755 144.302 357.455C144.602 357.155 145.302 356.855 145.602 356.454C145.902 356.154 145.902 356.154 146.202 355.854C146.502 355.554 146.802 355.254 147.203 355.254L169.705 369.256L166.805 379.857C167.805 379.857 167.805 380.157 167.805 380.858Z" fill="#FEBEB4"/>
<path d="M167.805 380.458C167.805 380.458 167.805 380.858 167.805 380.458L166.805 384.358C166.505 385.958 164.905 386.958 163.304 386.958C163.004 386.958 162.704 386.958 162.304 386.958C153.003 384.058 128.3 376.657 124.7 374.457C123.699 373.857 123.099 373.157 122.499 372.257C122.499 372.257 122.499 372.257 122.499 371.956C122.499 371.956 122.499 371.656 122.199 371.656C122.199 371.356 121.899 371.356 121.899 371.056C121.899 371.056 121.899 371.056 121.899 370.756C121.899 370.756 121.899 370.756 121.899 370.456C121.899 370.156 121.899 370.156 121.899 369.856C121.899 369.556 121.899 369.256 121.899 368.856C121.899 368.856 121.899 368.856 121.899 368.556V368.256C121.899 368.256 121.899 368.256 121.899 367.956C121.899 367.956 121.899 367.956 121.899 367.656C121.899 367.656 121.899 367.656 121.899 367.356V367.056V366.756V366.456C121.899 366.456 121.899 366.156 122.199 366.156C122.199 366.156 122.199 366.156 122.199 365.856C122.199 365.856 122.199 365.556 122.499 365.556C122.499 365.556 122.499 365.556 122.799 365.256C122.799 365.256 123.099 365.256 123.099 364.956C123.099 364.956 123.099 364.956 123.399 364.656C123.399 364.656 123.699 364.656 123.699 364.355H124C124 364.355 124.3 364.355 124.3 364.055C124.3 364.055 125.6 364.055 128.2 365.056C130.4 366.056 133.301 367.656 137.201 371.156C145.202 378.557 151.603 378.857 158.104 378.557C164.805 378.557 166.805 378.857 166.805 378.857C167.505 379.857 167.805 380.158 167.805 380.458Z" fill="#341841"/>
<path d="M170.105 368.956C169.105 368.656 149.903 358.355 149.203 358.355C148.603 358.355 141.502 363.455 134.401 363.155C131.5 362.855 129.6 364.155 128.6 365.356C126 364.355 124.7 364.355 124.7 364.355C124.7 364.355 126 359.255 131.1 360.455C133.701 361.055 135.901 361.455 138.501 360.455C138.801 360.455 139.101 360.155 139.502 360.155C140.102 359.855 140.802 359.555 141.102 359.155C141.402 359.155 141.702 358.855 142.102 358.555C142.402 358.255 143.102 357.955 143.702 357.555C144.002 357.255 144.302 357.255 144.302 356.955C144.602 356.655 145.302 356.354 145.602 355.954C145.902 355.654 145.902 355.654 146.202 355.354C146.502 355.054 146.802 354.754 147.202 354.754L170.105 368.956Z" fill="#D16E69"/>
<path d="M127.7 369.856C127.7 369.856 125.5 371.156 122.599 372.056C122.599 372.056 122.599 372.056 122.599 371.756C122.599 371.756 122.599 371.456 122.299 371.456C122.299 371.156 121.999 371.156 121.999 370.856C121.999 370.856 121.999 370.856 121.999 370.556C121.999 370.556 121.999 370.556 121.999 370.256C121.999 369.956 121.999 369.956 121.999 369.656C121.999 369.356 121.999 369.056 121.999 368.656C121.999 368.656 121.999 368.656 121.999 368.356V368.056C121.999 368.056 121.999 368.056 121.999 367.756C121.999 367.756 121.999 367.756 121.999 367.456C121.999 367.456 121.999 367.456 121.999 367.156V366.856V366.556V366.256C121.999 366.256 121.999 365.956 122.299 365.956C122.299 365.956 122.299 365.956 122.299 365.656C122.299 365.656 122.299 365.356 122.599 365.356C122.599 365.356 122.599 365.356 122.899 365.056C122.899 365.056 123.199 365.056 123.199 364.756C123.199 364.756 123.199 364.756 123.499 364.456C123.499 364.456 123.799 364.456 123.799 364.155H124.1C124.1 364.155 124.399 364.155 124.399 363.855C124.399 363.855 125.7 363.855 128.3 364.856C127.4 367.356 127.7 369.856 127.7 369.856Z" fill="#220C2D"/>
<path d="M251.616 391.759V396.26C251.616 396.86 251.016 397.56 250.316 397.56H225.312C224.712 397.56 224.012 396.96 224.012 396.26V391.759C224.012 391.159 224.312 390.759 225.012 390.759L227.913 368.256C227.913 368.256 228.213 362.455 238.514 363.155C248.115 363.755 247.215 371.857 246.815 372.457C246.815 372.457 248.415 377.257 249.415 382.758C250.416 388.559 250.416 390.459 250.416 390.459H250.716C251.316 390.759 251.616 391.059 251.616 391.759Z" fill="#FEBEB4"/>
<path d="M251.616 391.759V396.26C251.616 396.86 251.016 397.56 250.316 397.56H225.312C224.712 397.56 224.012 396.96 224.012 396.26V391.759C224.012 391.159 224.312 390.759 225.012 390.759H234.614H250.316H250.616C251.316 390.759 251.616 391.059 251.616 391.759Z" fill="#341841"/>
<path d="M234.614 390.759V397.46H225.312C224.712 397.46 224.012 396.86 224.012 396.16V391.659C224.012 391.059 224.312 390.659 225.012 390.659H234.614V390.759Z" fill="#220C2D"/>
<path d="M260.017 171.731L259.717 186.833C259.717 186.833 245.915 191.633 224.712 191.333C211.511 191.033 200.009 199.634 196.109 212.236L173.606 288.946L170.105 303.348L168.805 294.046C168.805 294.046 159.804 316.549 160.504 319.45C161.104 322.35 169.505 327.151 169.805 327.451L158.204 324.55L152.403 340.652L159.804 351.854L151.803 350.554L169.805 369.456L145.402 354.654C145.402 354.654 147.603 348.853 151.203 347.553L146.102 341.153C146.102 341.153 150.003 323.45 155.404 320.65C155.404 320.65 158.004 294.347 166.305 288.846L192.608 180.632L195.209 170.031L196.209 166.83C196.209 166.83 191.408 164.23 190.708 158.129C190.408 155.529 192.608 151.728 195.509 147.528C199.409 141.727 204.21 134.726 206.11 127.025C205.51 124.825 205.11 122.525 204.51 120.324C204.81 119.724 205.11 119.324 205.11 118.724C206.41 116.524 206.71 111.323 209.01 105.222L208.41 111.923C207.81 117.024 208.11 121.924 209.01 127.025L213.511 126.425L206.81 134.726C206.81 134.726 194.009 160.129 202.01 165.23C209.711 170.031 230.613 170.031 230.613 170.031C230.613 170.031 218.112 171.331 205.21 169.431C205.11 167.93 217.612 177.232 260.017 171.731Z" fill="#220C2D"/>
<path d="M190.608 112.023C190.608 112.023 178.106 130.926 180.607 139.327C183.507 147.628 194.709 146.428 195.009 146.428C180.907 155.429 173.506 138.427 174.106 127.525C174.406 119.524 182.407 97.3213 186.608 86.1199C188.208 81.6193 191.708 77.4188 195.909 74.9185L200.409 72.0181L204.61 69.4178C204.61 69.4178 204.61 63.617 207.51 60.1165C208.11 59.5165 209.11 58.5163 210.411 58.2163C209.81 68.2176 216.811 79.7191 216.811 79.7191L201.409 90.6204L198.809 96.1212L190.108 109.623C193.308 115.724 203.61 118.924 203.91 119.224C195.409 117.524 190.608 112.023 190.608 112.023Z" fill="#F9A9A0"/>
<path d="M246.815 24.412C246.815 24.412 224.012 29.9127 211.511 49.1151C211.511 49.1151 208.01 50.1153 207.01 43.0144C206.01 35.9135 201.91 33.4131 203.51 20.5115C201.61 18.3112 200.609 15.4109 200.609 12.8105C200.609 9.61011 201.91 6.40969 204.51 4.10939C204.51 4.10939 204.51 4.10941 204.81 3.80937C205.81 2.80924 207.01 1.90911 208.31 1.60907C213.411 -0.991259 219.912 -0.291175 224.712 3.50931L229.213 7.00976C229.213 7.00976 241.114 8.0099 245.915 22.7118C246.515 23.1118 246.515 23.7119 246.815 24.412Z" fill="#FEBEB4"/>
<path d="M246.815 24.412C246.815 24.412 225.613 29.5127 213.111 46.9149C212.811 47.515 212.111 48.2151 211.811 48.8151C211.811 48.8151 208.31 49.8153 207.31 42.7143C206.31 35.6134 202.209 33.1131 203.81 20.2115C201.909 18.0112 200.909 15.1108 200.909 12.5105C200.909 11.9104 200.909 11.5104 200.909 10.9103C201.209 8.30996 202.51 5.80963 204.81 3.80938C204.81 3.80938 204.81 3.80936 205.11 3.50932C206.11 2.50919 207.31 1.6091 208.61 1.30906C206.71 3.90939 205.41 8.71001 209.91 15.4109C209.91 15.4109 215.711 9.01004 229.513 6.70974C229.213 6.70974 215.411 10.2102 211.211 17.9112C211.211 17.9112 212.811 20.1115 215.111 22.4118C218.612 26.6123 224.112 27.5124 228.913 25.6122C234.414 23.0118 241.715 20.5115 246.615 22.4118C246.515 23.1119 246.515 23.7119 246.815 24.412Z" fill="#F9A9A0"/>
<path d="M213.111 47.2149C212.811 47.815 212.111 48.5151 211.811 49.1151C211.811 49.1151 208.31 50.1153 207.31 43.0143C206.31 35.9134 202.209 33.4131 203.81 20.5115C201.909 18.3112 200.909 15.4108 200.909 12.8105C200.909 12.2104 200.909 11.8104 200.909 11.2103C201.209 12.5105 201.509 13.8106 202.21 15.1108C203.51 17.7111 206.71 18.6112 208.91 16.711L207.01 18.9113C206.01 20.2115 205.41 22.1117 205.41 23.7119C205.71 27.2123 206.41 33.0131 209.91 37.2136C210.21 37.5137 209.61 47.2149 213.111 47.2149Z" fill="#D16E69"/>
<path d="M251.316 40.114C251.316 40.114 250.316 29.8127 245.515 31.813C245.515 31.813 245.815 33.7132 245.815 36.6136C245.815 41.7142 244.815 49.4152 238.414 52.7156C238.114 53.0157 237.414 53.0157 236.814 53.3157C225.212 56.8161 218.512 51.1154 218.512 51.1154C218.512 51.1154 212.711 50.8154 210.811 47.915C210.811 47.915 228.813 19.6114 245.215 23.2118C245.215 22.8118 257.717 20.8115 251.316 40.114Z" fill="#341841"/>
<path d="M220.812 44.0145C220.812 44.0145 222.112 51.1154 236.214 46.2148C242.915 44.0145 242.615 48.415 238.414 52.6156C238.114 52.9156 237.414 52.9156 236.814 53.2157C225.212 56.7161 218.512 51.0154 218.512 51.0154C218.512 51.0154 212.711 50.7153 210.811 47.815C210.811 47.815 228.813 19.5113 245.215 23.1118C245.215 22.8118 230.413 22.4117 220.812 44.0145Z" fill="#220C2D"/>
<path d="M226.913 85.0198C209.91 71.218 210.21 61.6168 210.811 58.4164C214.711 56.5161 220.112 55.816 220.112 55.816C220.112 55.816 228.113 54.2158 236.514 53.6157C241.615 55.516 246.815 58.1163 246.815 60.7167C246.815 66.4174 226.913 85.0198 226.913 85.0198Z" fill="#D16E69"/>
<path d="M248.115 50.4154C248.115 62.0169 244.215 62.6169 244.215 62.6169C241.615 68.4177 226.513 82.5195 226.513 82.5195C226.513 82.5195 223.912 78.619 221.412 74.8185C219.212 70.918 216.911 67.1175 216.911 66.1174C216.911 63.9171 219.512 61.0167 219.512 61.0167V54.916C218.512 53.9158 218.212 52.3156 218.212 52.3156C212.411 53.9158 210.811 47.815 210.811 47.815C218.812 52.9157 225.212 49.7153 229.113 46.5149L229.413 46.2148C231.313 44.3146 234.214 43.6145 236.814 44.0145C239.714 44.3146 242.315 43.7145 242.315 43.7145C242.315 43.7145 233.013 43.4145 238.814 38.6139C244.615 34.1133 243.315 27.7124 243.015 27.0124C244.615 28.0125 245.615 29.6127 246.215 31.813C247.815 35.9135 248.115 42.3143 248.115 50.4154Z" fill="#DB6D5E"/>
<path d="M208.61 99.5216L200.909 96.6212C200.909 95.021 200.609 93.4208 200.609 92.1207C200.609 91.5206 200.609 91.1205 200.609 90.5204C200.009 81.2193 200.609 75.1185 200.909 72.2181L205.11 69.6178C206.71 72.5182 209.011 74.1184 209.011 74.1184C207.61 82.8195 207.91 91.5206 208.61 99.5216Z" fill="#220C2D"/>
<path d="M166.905 384.358C166.305 386.258 164.305 387.558 162.404 386.958C153.103 384.058 128.4 376.657 124.8 374.457C122.599 372.857 121.599 370.956 121.599 368.656C121.899 368.356 121.899 368.056 122.199 368.056C124.4 366.456 135.701 377.657 146.002 381.258C154.003 383.758 162.704 384.358 166.905 384.358Z" fill="#15051E"/>
<path d="M270.918 205.835L269.318 210.636L261.617 201.035L269.618 205.135L270.918 205.835Z" fill="#BC473B"/>
<path d="M242.015 107.823C242.015 109.123 241.415 110.023 240.715 111.023C239.714 112.023 238.814 112.323 237.514 112.323H217.311C214.711 112.323 212.811 110.423 212.811 107.823C212.811 106.523 213.411 105.622 214.111 104.622C215.111 103.622 216.011 103.322 217.311 103.322H237.514C240.114 103.322 242.015 105.322 242.015 107.823Z" fill="#673D51"/>
<path d="M242.315 63.217C242.315 63.217 235.914 66.7174 226.613 63.217C226.613 63.217 221.112 67.1175 221.512 75.1185C219.312 71.218 217.012 67.4175 217.012 66.4174C217.012 64.2171 219.612 61.3167 219.612 61.3167V55.2159C218.612 54.2158 218.312 52.6156 218.312 52.6156C212.511 54.2158 210.911 48.115 210.911 48.115C218.912 53.2157 225.313 50.0153 229.213 46.8149C227.913 49.0152 226.313 52.3156 227.013 56.4161C227.513 63.517 236.814 64.5171 242.315 63.217Z" fill="#BC473B"/>
<path d="M229.813 21.8113C229.213 21.5113 228.813 21.2113 228.813 20.5113C228.813 19.8113 228.813 19.5113 229.113 19.2113L225.912 21.1113C225.312 21.7113 224.913 22.7113 225.313 23.3113C225.913 23.9113 226.913 24.3113 227.513 23.9113L230.713 22.0113C230.413 22.1113 230.113 22.1113 229.813 21.8113Z" fill="#673D51"/>
<path d="M260.617 183.632C260.617 183.632 260.317 183.632 259.617 183.932C259.017 183.932 258.317 184.232 257.417 184.232C256.816 184.232 256.116 184.533 255.216 184.533C254.616 184.533 253.916 184.833 253.016 184.833C252.416 184.833 251.716 185.133 250.816 185.133C250.216 185.133 249.516 185.433 248.616 185.433C248.015 185.433 247.315 185.433 246.415 185.733C245.815 185.733 245.115 185.733 244.215 186.033C243.915 186.033 243.615 186.033 242.915 186.033C242.615 186.033 242.315 186.033 241.915 186.033C241.315 186.033 240.615 186.033 240.014 186.033C239.414 186.033 238.714 186.033 237.814 186.033C237.214 186.033 236.514 186.033 235.614 186.033C235.014 186.033 234.314 186.033 233.413 186.033C232.813 186.033 232.113 186.033 231.213 186.033C230.613 186.033 229.913 186.033 229.013 186.033C228.413 186.033 227.713 186.033 226.813 186.033C226.213 186.033 225.513 186.033 224.612 186.033C224.012 186.033 223.312 186.033 222.412 186.033C221.812 186.033 221.112 186.033 220.212 186.033C219.612 186.033 218.912 186.033 218.012 186.033C217.412 186.033 216.711 186.033 215.811 186.033C215.211 186.033 214.511 186.033 213.611 185.733C213.011 185.733 212.311 185.733 211.411 185.433C210.811 185.433 210.111 185.133 209.21 185.133C208.61 185.133 207.91 184.833 207.01 184.833C206.41 184.833 205.71 184.533 204.81 184.533C204.51 184.533 204.51 184.533 204.21 184.533C203.61 184.533 203.21 184.232 202.61 184.232C202.31 184.232 201.609 183.932 201.309 183.932C201.009 183.932 200.709 183.932 200.709 183.632C200.109 183.332 199.409 183.332 198.509 183.032C197.909 182.732 197.209 182.732 196.309 182.432C195.709 182.132 195.009 181.832 194.109 181.432C192.808 180.832 191.508 180.132 190.208 179.532L192.808 168.931C193.108 169.231 193.408 169.231 194.109 169.531C194.709 169.831 195.409 170.131 196.309 170.531C196.909 170.831 197.609 171.131 198.509 171.531C199.109 171.831 199.809 171.831 200.709 172.131C201.009 172.131 201.309 172.131 201.309 172.431C201.609 172.431 202.31 172.731 202.61 172.731C203.21 172.731 203.61 173.031 204.21 173.031C204.51 173.031 204.51 173.031 204.81 173.031C205.41 173.031 206.11 173.331 207.01 173.331C207.61 173.331 208.31 173.631 209.21 173.631C209.811 173.631 210.511 173.931 211.411 173.931C212.011 173.931 212.711 174.231 213.611 174.231C214.211 174.231 214.911 174.231 215.811 174.531C216.411 174.531 217.112 174.531 218.012 174.831C218.612 174.831 219.312 174.831 220.212 174.831C220.812 174.831 221.512 174.831 222.412 174.831C223.012 174.831 223.712 174.831 224.612 174.831C225.213 174.831 225.913 174.831 226.813 174.831C227.413 174.831 228.113 174.831 229.013 174.831C229.613 174.831 230.313 174.831 231.213 174.831C231.813 174.831 232.513 174.831 233.413 174.831C234.014 174.831 234.714 174.831 235.614 174.831C236.214 174.831 236.914 174.831 237.814 174.831C238.414 174.831 239.114 174.831 240.014 174.831C240.615 174.831 241.315 174.831 241.915 174.831C242.215 174.831 242.515 174.831 242.915 174.831C243.315 174.831 243.515 174.831 244.215 174.831C244.915 174.831 245.515 174.831 246.415 174.831C247.015 174.831 247.715 174.831 248.616 174.531C249.216 174.531 249.916 174.531 250.816 174.231C251.416 174.231 252.116 174.231 253.016 173.931C253.616 173.931 254.316 173.931 255.216 173.631C255.816 173.631 256.516 173.631 257.417 173.331C258.017 173.331 258.717 173.331 259.617 173.031C259.917 173.031 260.217 173.031 260.917 173.031C260.017 177.532 259.617 181.432 260.617 183.632Z" fill="#673D51"/>
<path d="M260.917 173.731C260.617 173.731 260.317 173.731 259.617 173.731V183.732C260.217 183.732 260.617 183.432 260.617 183.432C259.617 181.432 260.017 177.532 260.917 173.731ZM255.516 184.633C256.116 184.633 257.117 184.332 257.717 184.332V174.031C257.117 174.031 256.416 174.031 255.516 174.331V184.633ZM251.316 185.233C251.916 185.233 252.616 184.933 253.516 184.933V174.331C252.916 174.331 252.216 174.331 251.316 174.631V185.233ZM247.115 185.533C247.715 185.533 248.415 185.533 249.315 185.233V174.631C248.715 174.631 248.015 174.631 247.115 174.931V185.533ZM242.615 185.933C243.215 185.933 243.915 185.933 244.815 185.633V175.031C244.215 175.031 243.515 175.031 242.615 175.031V185.933ZM238.514 186.233C239.114 186.233 239.814 186.233 240.714 186.233V175.331C240.114 175.331 239.414 175.331 238.514 175.331V186.233ZM234.314 186.533C234.914 186.533 235.614 186.533 236.514 186.533V175.631C235.914 175.631 235.214 175.631 234.314 175.631V186.533ZM230.113 186.833C230.713 186.833 231.413 186.833 232.313 186.833V175.931C231.713 175.931 231.013 175.931 230.113 175.931V186.833ZM225.912 186.833C226.513 186.833 227.213 186.833 228.113 186.833V175.931C227.513 175.931 226.813 175.931 225.912 175.931V186.833ZM221.812 186.533C222.412 186.533 223.112 186.533 224.012 186.533V175.331C223.412 175.331 222.712 175.331 221.812 175.331V186.533ZM217.611 186.533C218.212 186.533 218.912 186.533 219.812 186.533V175.331C219.212 175.331 218.512 175.331 217.611 175.031V186.533ZM213.411 185.933C214.011 185.933 214.711 185.933 215.611 186.233V175.031C215.011 175.031 214.311 174.731 213.411 174.731V185.933ZM209.21 185.233C209.81 185.233 210.51 185.533 211.411 185.533V174.331C210.811 174.331 210.11 174.031 209.21 174.031V185.233ZM205.11 184.633C205.71 184.933 206.41 184.933 207.31 184.933V173.731C206.71 173.731 206.01 173.431 205.11 173.131V184.633ZM200.609 183.332C201.209 183.632 201.909 183.632 202.81 183.932V172.331C202.209 172.031 201.209 172.031 200.609 171.731V183.332ZM196.409 181.732C197.009 182.032 197.709 182.332 198.609 182.732V171.131C197.609 170.831 197.009 170.531 196.409 170.131V181.732Z" fill="#FEBEB4"/>
<path d="M206.31 173.331V184.532C205.71 184.532 205.31 184.232 204.71 184.232C204.41 184.232 203.71 183.932 203.41 183.932V172.331C203.71 172.331 204.41 172.631 204.71 172.631C205.41 173.331 206.01 173.331 206.31 173.331Z" fill="#220C2D"/>
<path d="M243.615 175.331V185.933C243.315 185.933 243.015 185.933 242.615 185.933C242.015 185.933 241.315 185.933 240.714 185.933V175.031C241.315 175.031 242.015 175.031 242.615 175.031C242.915 175.331 243.315 175.331 243.615 175.331Z" fill="#220C2D"/>
<path d="M238.114 107.823C238.114 108.423 237.514 109.123 236.814 109.123H216.611C216.011 109.123 215.311 108.523 215.311 107.823C215.311 107.223 215.911 106.523 216.611 106.523H236.814C237.514 106.623 238.114 107.223 238.114 107.823Z" fill="#220C2D"/>
<path d="M251.316 40.114C251.316 40.114 250.316 30.8128 246.215 31.4129C245.615 29.5126 244.315 27.9124 243.015 26.6123C242.915 26.6123 251.916 25.3121 251.316 40.114Z" fill="#220C2D"/>
<path d="M230.713 367.956C230.713 367.656 230.713 367.656 230.713 367.356C232.013 366.756 236.814 364.456 242.315 367.056C242.615 367.056 242.615 367.356 242.615 367.656C242.615 367.956 242.315 367.956 242.015 367.956C236.914 365.356 232.413 367.656 231.413 368.256C231.113 367.956 230.713 367.956 230.713 367.956Z" fill="#341841"/>
<path d="M230.713 370.256C230.713 369.956 230.713 369.956 230.713 369.656C232.013 369.056 236.814 366.756 242.315 369.356C242.615 369.356 242.615 369.656 242.615 369.956C242.615 370.256 242.315 370.256 242.015 370.256C236.914 367.656 232.413 369.956 231.413 370.556C231.113 370.556 230.713 370.556 230.713 370.256Z" fill="#341841"/>
<path d="M230.713 372.757C230.713 372.457 230.713 372.457 230.713 372.157C232.013 371.556 236.814 369.256 242.315 371.856C242.615 371.856 242.615 372.157 242.615 372.457C242.615 372.757 242.315 372.757 242.015 372.757C236.914 370.156 232.413 372.457 231.413 373.057C231.113 372.757 230.713 372.757 230.713 372.757Z" fill="#341841"/>
<path d="M230.713 375.057C230.713 374.757 230.713 374.757 230.713 374.457C232.013 373.857 236.814 371.556 242.315 374.157C242.615 374.157 242.615 374.457 242.615 374.757C242.615 375.057 242.315 375.057 242.015 375.057C236.914 372.457 232.413 374.757 231.413 375.357C231.113 375.357 230.713 375.057 230.713 375.057Z" fill="#341841"/>
<path d="M153.703 362.855C153.403 362.855 153.403 362.855 153.103 362.855C150.503 358.955 147.603 357.355 146.002 356.455C146.302 356.154 146.302 356.154 146.602 355.854C148.503 356.855 151.103 358.755 153.703 362.255C154.003 362.155 153.703 362.555 153.703 362.855Z" fill="#341841"/>
<path d="M151.803 364.456C151.503 364.456 151.503 364.456 151.203 364.456C148.303 360.555 145.702 358.955 143.802 358.055C144.102 357.755 144.402 357.755 144.402 357.455C146.302 358.455 148.903 360.355 151.803 363.855C151.803 363.755 151.803 364.155 151.803 364.456Z" fill="#341841"/>
<path d="M149.503 366.056C149.203 366.056 149.203 366.056 148.903 366.056C146.002 361.855 143.102 360.255 141.202 359.355C141.502 359.355 141.802 359.055 142.202 358.755C144.102 359.755 147.003 361.655 149.603 365.456C149.803 365.756 149.803 365.756 149.503 366.056Z" fill="#341841"/>
<path d="M147.603 367.656C147.303 367.656 147.303 367.656 147.003 367.656C143.502 362.855 140.302 361.255 138.301 360.555C138.601 360.555 138.901 360.255 139.302 360.255C141.202 361.255 144.402 362.855 147.303 367.356C147.903 367.356 147.903 367.356 147.603 367.656Z" fill="#341841"/>
<path d="M206.01 125.824L202.209 121.024L204.409 119.124L206.01 125.824Z" fill="#F9A9A0"/>
<path d="M264.118 189.433C264.118 189.433 261.217 200.335 270.518 205.535L261.517 201.035L256.717 198.434L260.917 183.632C258.317 178.132 264.118 163.43 264.118 163.43C264.118 163.43 266.718 146.728 266.718 141.227C267.018 135.726 266.418 81.5193 266.418 81.5193L270.918 125.525L278.619 110.423L269.918 145.428L268.018 165.33C268.018 165.33 258.417 183.632 277.019 189.133L264.118 189.433Z" fill="#F9A9A0"/>
<path d="M262.517 186.533C262.517 186.533 256.417 198.134 271.218 206.135L270.918 205.835L261.617 201.035L256.817 198.434L261.017 183.632C258.417 178.132 264.217 163.43 264.217 163.43C264.217 163.43 265.818 144.527 266.118 127.425C266.418 110.423 266.418 81.5193 266.418 81.5193L269.318 134.226L276.019 118.124C276.019 118.424 271.518 131.326 267.018 142.227C267.018 142.227 267.018 157.029 263.517 167.93C260.017 178.832 260.317 185.233 273.819 188.433L262.517 186.533Z" fill="#D16E69"/>
<path d="M270.618 67.1175L265.118 66.8175C257.417 71.9181 244.215 122.025 243.915 123.025C249.415 93.8209 260.017 67.8176 261.617 64.2171C261.617 63.9171 261.617 63.9171 261.917 63.9171C264.817 64.2171 267.718 65.5173 270.618 67.1175Z" fill="#220C2D"/>
<path d="M247.115 372.457C247.115 371.856 248.415 363.755 238.814 363.155C228.513 362.555 228.213 368.256 228.213 368.256C228.213 368.256 225.313 362.155 226.013 359.955C226.613 358.055 227.913 358.055 227.913 358.055C227.913 358.055 227.913 352.954 230.513 351.954C230.513 351.954 225.413 350.954 224.712 346.853C224.112 342.653 226.313 311.849 232.413 306.348C232.413 306.348 228.213 301.847 228.913 295.147C229.513 288.446 227.313 250.541 222.812 234.439L217.011 213.236C217.011 213.236 224.412 232.539 224.412 232.139C224.412 231.839 244.615 212.536 244.915 212.236C244.615 212.536 227.613 236.639 227.613 238.239C227.613 239.539 234.714 299.847 235.914 301.547C236.914 303.148 252.016 325.951 252.316 326.251C252.016 325.951 236.214 312.749 235.314 312.749C234.314 312.749 228.213 336.852 229.513 344.253C230.513 351.654 239.514 351.654 245.915 361.955C245.915 361.955 238.214 355.254 228.213 361.355C228.213 360.555 249.716 358.055 247.115 372.457Z" fill="#220C2D"/>
<path d="M261.917 63.517L260.317 66.4174C249.416 71.218 234.614 82.1194 234.314 82.5195C245.515 71.318 257.717 64.8172 261.617 62.917C261.617 63.217 261.617 63.517 261.917 63.517C261.917 63.517 261.617 63.517 261.917 63.517Z" fill="#F9A9A0"/>
<path d="M211.211 72.2181C211.211 72.5181 217.011 81.8193 226.913 87.32C226.913 87.32 217.912 83.1195 211.811 78.0188L211.211 72.2181Z" fill="#F9A9A0"/>
<path d="M216.911 86.72C216.311 88.0202 215.011 89.3204 213.711 89.9204L208.61 99.5216L200.909 96.6213L199.309 96.0212L201.909 90.5205L200.609 84.7198L199.309 77.6188C199.309 77.0188 199.609 76.3187 199.909 76.3187H200.209C200.809 76.3187 201.509 76.6187 201.809 77.3188L202.81 80.8193L209.91 65.1172C210.21 64.5172 210.911 64.1171 211.811 64.5172C212.411 64.8172 212.811 65.1172 212.811 65.5173C212.811 65.8173 212.811 65.8173 212.811 66.1174L211.211 72.8182L212.511 73.4183C214.111 74.0184 215.411 75.3185 216.011 76.6187C218.212 78.919 218.512 83.1195 216.911 86.72Z" fill="#DB6D5E"/>
<path d="M203.51 96.0212L208.61 99.5216L200.909 96.6213L199.309 96.0212L201.909 90.5205L200.609 84.7198L199.309 77.6188C199.309 77.0188 199.609 76.3187 199.909 76.3187H200.209C200.809 76.3187 201.509 76.6187 201.809 77.3188L202.81 80.8193L209.91 65.1172C210.21 64.5172 210.911 64.1171 211.811 64.5172L204.11 84.4197L205.71 91.1206L203.51 96.0212Z" fill="#BC473B"/>
<path d="M231.713 85.7198C231.713 85.7198 231.713 94.4209 231.713 103.022H229.813V90.5205C229.813 87.02 230.813 83.4195 232.413 80.5192L233.413 78.6189L231.713 85.7198Z" fill="#F9A9A0"/>
<path d="M229.113 122.625C229.113 121.324 230.113 120.424 230.113 120.424V112.423H232.313C232.313 116.924 232.613 120.424 232.913 121.424C234.014 124.225 229.113 123.925 229.113 122.625Z" fill="#F9A9A0"/>
<path d="M232.013 106.622H230.113V103.422H232.013C232.013 104.322 232.013 105.622 232.013 106.622Z" fill="#220C2D"/>
<path d="M232.013 112.323H229.813V109.123H231.713C232.013 110.123 232.013 111.123 232.013 112.323Z" fill="#220C2D"/>
<path d="M232.013 108.823H230.113V106.623H232.013C232.013 107.223 232.013 108.223 232.013 108.823Z" fill="#15051E"/>
<path d="M218.212 112.323V119.424C218.212 119.424 217.211 119.724 217.211 121.024C217.211 122.325 218.512 123.225 220.112 122.925V112.023L218.212 112.323Z" fill="#F9A9A0"/>
<path d="M220.112 112.323H217.911V109.123H219.812C220.112 110.123 220.112 111.123 220.112 112.323Z" fill="#220C2D"/>
<path d="M220.112 108.823H218.212V106.623H220.112C220.112 107.223 220.112 108.223 220.112 108.823Z" fill="#15051E"/>
<path d="M218.212 103.322V82.5195L219.812 83.4196L220.112 104.022L218.212 103.322Z" fill="#F9A9A0"/>
<path d="M234.914 79.6191C235.214 79.319 234.914 78.619 234.614 78.619C234.314 78.3189 233.614 78.619 233.614 78.919C232.013 81.8194 231.013 85.0198 231.013 88.5202V120.324C230.413 120.624 230.013 120.924 230.013 121.624C230.013 122.625 230.613 123.525 231.613 123.525C232.613 123.525 233.214 122.925 233.214 121.925C233.214 121.324 232.914 120.624 232.213 120.324V88.5202C232.713 85.0198 233.614 82.2194 234.914 79.6191Z" fill="#341841"/>
<path d="M221.112 119.424V82.2194C221.112 81.9194 220.812 81.6193 220.512 81.6193C220.212 81.6193 219.912 81.9194 219.912 82.2194V119.424C219.312 119.724 218.912 120.424 218.912 120.724C218.912 121.724 219.512 122.325 220.512 122.325C221.512 122.325 222.112 121.724 222.112 120.724C222.112 120.424 221.812 119.724 221.112 119.424Z" fill="#341841"/>
<path d="M220.112 106.622H218.212V103.422H220.112C220.112 104.322 220.112 105.622 220.112 106.622Z" fill="#220C2D"/>
<path d="M200.609 92.1207C198.709 95.021 191.008 106.222 185.207 115.924C178.807 126.825 178.507 134.226 178.507 134.226C178.507 129.125 180.107 123.625 180.107 123.625L175.906 128.125C176.206 127.825 181.407 119.824 183.007 117.524C184.307 115.324 198.709 94.1209 200.709 90.9205C200.609 90.8205 200.609 91.5206 200.609 92.1207Z" fill="#D16E69"/>
<path d="M251.316 40.1141C254.516 23.1119 245.215 22.8119 245.215 22.8119C245.215 22.8119 257.717 20.8116 251.316 40.1141Z" fill="#532B68"/>
<path d="M199.309 96.0212L208.61 99.2216L210.811 100.222L208.91 104.122L205.71 117.624L204.11 118.924L205.41 116.324L208.01 103.522L200.909 100.922C200.909 100.922 207.61 102.522 208.01 102.522C208.31 102.522 209.01 100.622 209.01 100.622L199.309 96.0212Z" fill="#FFD6D2"/>
<path d="M223.012 234.439L176.106 338.452C176.106 338.452 178.006 343.953 177.706 345.853C177.406 347.753 177.406 347.753 177.406 347.753C177.406 347.753 179.307 352.254 177.106 355.154C175.206 357.755 171.606 361.855 170.405 363.155C170.105 363.155 169.805 362.855 169.805 362.855C169.805 362.855 177.206 350.354 176.206 349.354C175.206 348.353 172.006 346.753 172.006 346.753C177.506 345.753 174.206 338.452 174.206 338.452L164.205 335.252L173.806 335.852L223.012 234.439Z" fill="#532B68"/>
<path d="M271.519 206.135C271.519 206.135 267.018 250.441 264.118 260.742C260.917 271.044 262.217 333.652 259.317 338.752C256.717 343.853 248.115 346.453 248.415 349.054C248.716 351.254 253.216 352.554 253.916 355.454C254.516 358.355 252.616 367.356 252.316 368.956C252.616 367.356 253.916 358.955 247.815 352.254C241.415 344.853 254.916 343.553 256.517 336.552C258.117 329.851 260.017 267.543 260.017 267.543L251.716 280.045L259.717 261.142L269.318 210.436L270.918 205.635L271.519 206.135Z" fill="#532B68"/>
<path d="M390.034 267.143C398.335 260.742 393.234 249.841 393.234 249.841C393.234 249.841 393.234 253.341 385.833 259.442C381.933 262.642 380.733 267.143 380.032 271.044V257.842C380.633 256.542 383.233 253.041 390.034 247.841C398.335 241.44 393.234 230.538 393.234 230.538C393.234 230.538 393.234 234.039 385.833 240.14C381.933 243.34 380.733 247.841 380.032 251.741V228.638C387.733 222.837 385.133 214.536 385.133 214.536C377.432 218.737 378.032 224.538 378.732 227.338V245.34C378.132 241.44 376.532 237.039 372.931 234.139C365.531 228.038 365.531 224.538 365.531 224.538C365.531 224.538 360.73 235.439 368.731 241.84C375.132 246.94 377.732 250.541 378.732 251.841V265.043C378.132 261.142 376.532 256.742 372.931 253.841C365.531 247.741 365.531 244.24 365.531 244.24C365.531 244.24 360.73 255.142 368.731 261.542C375.132 266.643 377.732 270.243 378.732 271.544V284.745C378.132 280.845 376.532 276.444 372.931 273.544C365.531 267.443 365.531 263.943 365.531 263.943C365.531 263.943 360.73 274.844 368.731 281.245C375.132 286.346 377.732 289.946 378.732 291.246V304.448C378.132 300.547 376.532 296.147 372.931 293.246C365.531 287.146 365.531 283.645 365.531 283.645C365.531 283.645 360.73 294.547 368.731 300.947C375.132 306.048 377.732 309.649 378.732 310.949V324.15C378.132 320.25 376.532 315.849 372.931 312.949C365.531 306.848 365.531 303.348 365.531 303.348C365.531 303.348 360.73 314.249 368.731 320.65C375.132 325.751 377.732 329.351 378.732 330.651V343.253C378.132 339.352 376.532 334.952 372.931 332.051C365.531 325.951 365.531 322.45 365.531 322.45C365.531 322.45 360.73 333.352 368.731 339.752C375.132 344.853 377.732 348.453 378.732 349.754V362.955C378.132 359.055 376.532 354.654 372.931 351.754C365.531 345.653 365.531 342.153 365.531 342.153C365.531 342.153 360.73 353.054 368.731 359.455C375.132 364.556 377.732 368.156 378.732 369.456V386.458H380.032V375.857C380.633 374.557 383.233 371.056 390.034 365.856C398.335 359.455 393.234 348.553 393.234 348.553C393.234 348.553 393.234 352.054 385.833 358.155C381.933 361.355 380.733 365.856 380.032 369.756V356.554C380.633 355.254 383.233 351.754 390.034 346.553C398.335 340.152 393.234 329.251 393.234 329.251C393.234 329.251 393.234 332.751 385.833 338.852C381.933 342.053 380.733 346.553 380.032 350.454V337.252C380.633 335.952 383.233 332.451 390.034 327.251C398.335 320.85 393.234 309.949 393.234 309.949C393.234 309.949 393.234 313.449 385.833 319.55C381.933 322.75 380.733 327.251 380.032 331.151V317.95C380.633 316.649 383.233 313.149 390.034 307.948C398.335 301.547 393.234 290.646 393.234 290.646C393.234 290.646 393.234 294.147 385.833 300.247C381.933 303.448 380.733 307.948 380.032 311.849V298.647C380.633 297.347 383.233 293.847 390.034 288.646C398.335 282.245 393.234 271.344 393.234 271.344C393.234 271.344 393.234 274.844 385.833 280.945C381.933 284.145 380.733 288.646 380.032 292.546V277.144C381.033 276.144 383.633 272.244 390.034 267.143Z" fill="#481B16"/>
<path d="M345.428 296.647C350.528 292.446 347.328 285.745 347.328 285.745C347.328 285.745 347.328 287.946 342.827 291.546C340.627 293.446 339.627 296.347 339.327 298.647V290.646C339.627 290.046 341.227 287.746 345.428 284.545C350.528 280.345 347.328 273.644 347.328 273.644C347.328 273.644 347.328 275.844 342.827 279.445C340.627 281.345 339.627 284.245 339.327 286.546V272.144C344.128 268.643 342.528 263.443 342.528 263.443C337.727 266.043 338.027 269.543 338.627 271.144V282.245C338.327 280.045 337.327 277.144 335.127 275.144C330.626 271.244 330.626 269.343 330.626 269.343C330.626 269.343 327.426 276.044 332.526 280.245C336.427 283.445 338.027 285.745 338.627 286.345V294.347C338.327 292.146 337.327 289.246 335.127 287.246C330.626 283.345 330.626 281.445 330.626 281.445C330.626 281.445 327.426 288.146 332.526 292.346C336.427 295.547 338.027 297.847 338.627 298.447V306.448C338.327 304.248 337.327 301.347 335.127 299.347C330.626 295.447 330.626 293.546 330.626 293.546C330.626 293.546 327.426 300.247 332.526 304.448C336.427 307.648 338.027 309.949 338.627 310.549V318.55C338.327 316.349 337.327 313.449 335.127 311.449C330.626 307.548 330.626 305.648 330.626 305.648C330.626 305.648 327.426 312.349 332.526 316.549C336.427 319.75 338.027 322.05 338.627 322.65V330.651C338.327 328.451 337.327 325.551 335.127 323.55C330.626 319.65 330.626 317.75 330.626 317.75C330.626 317.75 327.426 324.45 332.526 328.651C336.427 331.851 338.027 334.152 338.627 334.752V342.753C338.327 340.552 337.327 337.652 335.127 335.652C330.626 331.751 330.626 329.851 330.626 329.851C330.626 329.851 327.426 336.552 332.526 340.752C336.427 343.953 338.027 346.253 338.627 346.853V354.854C338.327 352.654 337.327 349.754 335.127 347.753C330.626 343.853 330.626 341.953 330.626 341.953C330.626 341.953 327.426 348.653 332.526 352.854C336.427 356.054 338.027 358.355 338.627 358.955V369.256H339.227V362.555C339.527 361.955 341.127 359.655 345.328 356.454C350.428 352.254 347.228 345.553 347.228 345.553C347.228 345.553 347.228 347.753 342.727 351.354C340.527 353.254 339.527 356.154 339.227 358.455V350.454C339.527 349.854 341.127 347.553 345.328 344.353C350.428 340.152 347.228 333.452 347.228 333.452C347.228 333.452 347.228 335.652 342.727 339.252C340.527 341.153 339.527 344.053 339.227 346.353V338.352C339.527 337.752 341.127 335.452 345.328 332.251C350.428 328.051 347.228 321.35 347.228 321.35C347.228 321.35 347.228 323.55 342.727 327.151C340.527 329.051 339.527 331.951 339.227 334.252V326.251C339.527 325.651 341.127 323.35 345.328 320.15C350.428 315.949 347.228 309.248 347.228 309.248C347.228 309.248 347.228 311.449 342.727 315.049C340.527 316.949 339.527 319.85 339.227 322.15V314.149C339.527 313.549 341.127 311.249 345.328 308.048C350.428 303.848 347.228 297.147 347.228 297.147C347.228 297.147 347.228 299.347 342.727 302.948C340.527 304.848 339.527 307.748 339.227 310.049V302.648C339.627 302.148 341.227 299.947 345.428 296.647Z" fill="#481B16"/>
<path d="M280.219 398.46C280.219 398.46 298.222 397.86 314.624 380.458C331.026 363.155 335.126 352.154 373.431 383.958C373.431 383.958 377.332 377.557 392.734 377.257C410.036 376.657 412.936 398.76 412.936 398.76H280.319V398.46H280.219Z" fill="#D14B34"/>
</svg>
