<svg width="120" height="120" viewBox="0 0 120 120" fill="none" xmlns="http://www.w3.org/2000/svg">
<mask id="mask0_467_19170" style="mask-type:alpha" maskUnits="userSpaceOnUse" x="0" y="0" width="120" height="120">
<circle cx="60" cy="60" r="60" fill="#C4C4C4"/>
</mask>
<g mask="url(#mask0_467_19170)">
<path d="M253.875 -17.437H-212.437V380.438H253.875V-17.437Z" fill="white"/>
<path d="M54.5625 60.5625C54.5625 60.5625 37.3125 61.6875 37.3125 84.1875V110.063C28.6875 106.125 29.625 88.6875 37.6875 72.9375C44.0625 60.75 47.25 51.75 48.375 47.8125C50.8125 55.3125 54.5625 60.5625 54.5625 60.5625Z" fill="#111010"/>
<path d="M86.25 103.5C86.25 103.5 86.25 109.688 81.375 109.688C81.375 109.688 73.6875 82.1252 54.5625 60.5627C54.5625 60.5627 51 55.3127 48.375 47.4377C46.5 41.6252 45.375 34.5002 46.125 27.1877C48.5625 9.3752 73.6875 6.00015 82.3125 17.0627C90.9375 28.5002 83.25 33.7502 83.25 33.7502C83.25 33.7502 83.25 34.8752 82.875 37.3127C82.875 40.3127 82.5 45.0002 82.5 50.2502C82.875 60.9377 83.625 73.8752 87.75 81.0002C95.4375 94.6877 86.25 103.5 86.25 103.5Z" fill="#231F20"/>
<path d="M82.6875 44.2504C81.75 48.9379 80.25 53.438 76.875 55.688C75.75 56.6255 73.875 57.188 72 57.188L69.1875 62.813C69.1875 62.2505 68.625 57.0005 62.0625 48.563C54.9375 39.938 58.5 30.7505 58.5 30.7505C58.5 30.7505 73.5 23.438 83.4375 27.938C83.4375 27.938 83.4375 28.5004 83.8125 30.1879C83.4375 32.6254 83.8125 38.4379 82.6875 44.2504Z" fill="#FF8F6A"/>
<path d="M61.875 33.0004C61.875 33.0004 58.3125 56.063 76.875 55.688C75.75 56.6255 73.875 57.188 72 57.188L69.1875 62.813C69.1875 62.813 69.1875 57.188 62.0625 48.563C54.9375 39.938 58.5 30.7505 58.5 30.7505C58.5 30.7505 73.5 23.438 83.4375 27.938C83.4375 27.938 83.4375 28.5004 83.8125 30.1879C80.4375 29.2504 70.5 28.5004 61.875 33.0004Z" fill="#EA6044"/>
<path d="M84.375 96.7499C86.625 90.9374 79.5 81.375 73.6875 75C67.875 68.25 69.375 62.4374 69.375 62.4374L72.1875 56.8124C74.0625 56.8124 75.75 56.25 77.0625 55.3125C80.4375 53.0625 81.9375 48.9375 82.875 43.875C82.875 45.75 82.875 47.8125 82.875 50.0625C82.3125 60.5625 81.9375 74.2499 84.375 79.8749C88.3125 89.0624 84.5625 96.1874 84.375 96.7499Z" fill="#111010"/>
<path d="M95.4375 191.063L93 191.625L93.9375 196.875L78.375 202.687L66.1875 162.187C65.8125 161.625 65.625 161.062 65.0625 160.687C63.5625 159.75 61.5 161.063 61.5 162.938L61.125 222.562L56.4375 223.125L40.125 225L37.6875 225.375C37.6875 225.375 37.6875 152.625 37.6875 110.25V84.375C37.6875 61.875 54.9375 60.75 54.9375 60.75C71.8125 79.6875 79.875 103.687 81.375 108.937C81.75 109.5 81.75 109.875 81.75 109.875C84 119.625 86.4375 130.125 88.125 139.875C88.6875 142.687 89.25 145.5 89.625 148.125L94.3125 150.937C94.3125 150.937 94.3125 150.937 94.3125 151.312C94.6875 151.875 94.875 152.437 95.25 153.187C96.75 156.187 96.375 160.312 94.875 163.312C94.875 163.687 94.5 163.688 94.5 163.875L94.125 164.25L91.875 163.125C94.6875 179.062 96.5625 190.125 96.5625 190.125L95.4375 191.063Z" fill="#4C9CA3"/>
<path d="M94.6875 163.125C94.6875 163.5 94.3125 163.5 94.3125 163.687L93.9375 164.062L91.875 163.125C86.0625 161.25 55.3125 148.875 51 143.062C46.6875 137.25 46.3125 113.812 46.3125 113.812L67.6875 112.312L70.125 133.687L88.875 147.937L93.5625 150.75C93.5625 150.75 93.5625 150.75 93.5625 151.125C93.9375 151.687 94.125 152.25 94.5 153C96.375 156.375 96.375 160.125 94.6875 163.125Z" fill="#F73C4F"/>
<path d="M92.0625 163.5C91.5 163.125 68.0625 157.687 56.4375 152.812L55.875 223.125L39.5625 225L37.125 225.375C37.125 225.375 37.125 152.625 37.125 110.25V84.375C37.125 61.875 54.375 60.75 54.375 60.75C71.25 79.6875 79.3125 103.687 80.8125 108.937C78.5625 103.312 66.5625 75.5624 54.75 68.6249C54.75 68.6249 45.75 69.5624 47.0625 86.4374C47.0625 86.4374 49.5 130.688 51.9375 139.5C54.375 148.313 73.5 155.625 92.0625 163.5Z" fill="#28878D"/>
<path d="M89.25 148.312C89.25 148.312 71.0625 136.312 69.9375 135.187C68.8125 134.062 65.25 101.062 64.3125 91.4997C63.9375 88.6872 62.8125 85.8747 60.9375 83.8122C58.6875 81.3747 55.125 78.9372 49.3125 80.2497C49.3125 80.2497 57.9375 75.9371 64.3125 86.4371C65.25 87.9371 65.8125 89.8122 66.1875 91.6872C67.3125 100.687 72 131.25 72.9375 132.937C73.875 134.25 89.25 148.312 89.25 148.312Z" fill="#28878D"/>
</g>
</svg>
