<svg width="65" height="64" viewBox="0 0 65 64" fill="none" xmlns="http://www.w3.org/2000/svg">
<path d="M39.1535 40.3647H39.9266C41.1408 40.3711 42.3077 39.8949 43.1708 39.0408C44.0339 38.1868 44.5223 37.025 44.5288 35.8108V23.2752C44.5159 20.8469 43.5389 18.5232 41.8128 16.8152C40.0867 15.1071 37.7528 14.1547 35.3245 14.1675H29.6755C27.2472 14.1547 24.9133 15.1071 23.1871 16.8152C21.461 18.5232 20.4841 20.8469 20.4712 23.2752V35.8108C20.4776 37.025 20.9661 38.1868 21.8292 39.0409C22.6922 39.8949 23.8592 40.3711 25.0733 40.3647H25.8464" fill="#F1F1F2"/>
<path d="M39.1535 40.3647H39.9266C41.1408 40.3711 42.3077 39.8949 43.1708 39.0408C44.0339 38.1868 44.5223 37.025 44.5288 35.8108V23.2752C44.5159 20.8469 43.5389 18.5232 41.8128 16.8152C40.0867 15.1071 37.7528 14.1547 35.3245 14.1675H29.6755C27.2472 14.1547 24.9133 15.1071 23.1871 16.8152C21.461 18.5232 20.4841 20.8469 20.4712 23.2752V35.8108C20.4776 37.025 20.9661 38.1868 21.8292 39.0409C22.6922 39.8949 23.8592 40.3711 25.0733 40.3647H25.8464" stroke="#3C20B1" stroke-linecap="round" stroke-linejoin="round"/>
<path d="M32.5 14.1675C36.1746 14.1675 39.1535 11.2199 39.1535 7.58376C39.1535 3.94765 36.1746 1 32.5 1C28.8253 1 25.8464 3.94765 25.8464 7.58376C25.8464 11.2199 28.8253 14.1675 32.5 14.1675Z" fill="#F1F1F2" stroke="#3C20B1" stroke-linecap="round" stroke-linejoin="round"/>
<path d="M25.8464 21.9094V60.7854C25.8506 61.0804 25.9128 61.3716 26.0295 61.6425C26.1462 61.9134 26.3151 62.1587 26.5266 62.3643C26.7381 62.57 26.9881 62.7319 27.2621 62.8409C27.5362 62.95 27.8291 63.0039 28.1241 62.9997L36.8783 62.9953C37.4735 63.0031 38.0476 62.7743 38.4742 62.3591C38.9009 61.9439 39.1452 61.3763 39.1535 60.781V21.9094" fill="#F1F1F2"/>
<path d="M25.8464 21.9094V60.7854C25.8506 61.0804 25.9128 61.3716 26.0295 61.6425C26.1462 61.9134 26.3151 62.1587 26.5266 62.3643C26.7381 62.57 26.9881 62.7319 27.2621 62.8409C27.5362 62.95 27.8291 63.0039 28.1241 62.9997L36.8783 62.9953C37.4735 63.0031 38.0476 62.7743 38.4742 62.3591C38.9009 61.9439 39.1452 61.3763 39.1535 60.781V21.9094" stroke="#3C20B1" stroke-linecap="round" stroke-linejoin="round"/>
<path d="M32.5 62.9976V42.9568" stroke="#3C20B1" stroke-linecap="round" stroke-linejoin="round"/>
</svg>
