<svg width="160" height="94" viewBox="0 0 160 94" fill="none" xmlns="http://www.w3.org/2000/svg">
<path d="M65.8667 61.1315C65.9776 66.0675 64.9718 70.9647 62.9244 75.4574C61.0624 79.407 58.3206 82.8777 54.9092 85.6032C51.3664 88.3459 47.3194 90.3659 42.998 91.5487C38.2414 92.9117 33.3157 93.5949 28.3677 93.5778C25.9089 93.5801 23.4534 93.397 21.0221 93.03C18.623 92.6827 16.2452 92.2017 13.8998 91.5893C11.5663 90.9602 9.23267 90.25 6.93971 89.5601C4.64675 88.8702 2.31325 87.8962 0 86.9628L2.41471 61.7606C3.98794 62.6389 5.61442 63.4183 7.28469 64.0941C9.02754 64.8274 10.8171 65.4443 12.6417 65.9406C14.4694 66.4502 16.3261 66.85 18.2016 67.1378C20.013 67.4327 21.8451 67.582 23.6803 67.5843C24.9766 67.5641 26.2707 67.4692 27.556 67.3002C29.048 67.1173 30.5127 66.7562 31.9187 66.2247C33.2372 65.7457 34.4501 65.0152 35.4901 64.0738C35.9826 63.6216 36.3717 63.0684 36.6308 62.4521C36.8899 61.8357 37.013 61.1707 36.9916 60.5025C37.0156 59.2005 36.6012 57.9284 35.8147 56.8905C34.9868 55.8486 33.95 54.9916 32.771 54.3744C31.4309 53.6934 30.0138 53.1756 28.5503 52.8322C26.9973 52.4546 25.4261 52.1566 23.8427 51.9394C22.2599 51.7365 20.7584 51.6147 19.3379 51.5539H15.8275C13.9403 51.5539 11.9923 51.6553 10.0443 51.8176C8.10311 51.9792 6.18088 52.3188 4.30182 52.8322L6.83828 1.65667L58.1356 0.276855L59.5357 26.656L27.7386 24.8906L27.1096 36.1525C28.9867 35.6882 30.8911 35.3426 32.8116 35.1176C34.6961 34.8814 36.5939 34.7662 38.4933 34.7727C42.1555 34.7325 45.7939 35.3653 49.2275 36.6395C52.376 37.7785 55.2712 39.5226 57.75 41.7733C60.2456 44.1456 62.2277 47.0048 63.5737 50.174C65.0886 53.6283 65.8695 57.3596 65.8667 61.1315Z" fill="#FDDCA1"/>
<path d="M103.507 16.3689C103.504 17.5797 103.354 18.7857 103.061 19.9605C102.789 21.0977 102.373 22.1955 101.823 23.2275C101.263 24.2337 100.582 25.1674 99.7941 26.0074C99.026 26.8429 98.1449 27.5669 97.1764 28.1583C96.1979 28.7734 95.1396 29.2513 94.0312 29.5788C92.857 29.9162 91.6411 30.0869 90.4193 30.0861C89.2253 30.0921 88.0364 29.9281 86.8885 29.5991C84.7058 29.0002 82.7186 27.8386 81.1257 26.2306C80.3303 25.4345 79.6476 24.5334 79.0965 23.5522C78.5278 22.5652 78.0912 21.5077 77.7979 20.407C77.4869 19.2628 77.33 18.0822 77.3312 16.8965C77.3304 15.7134 77.4734 14.5346 77.7573 13.386C78.0399 12.2621 78.4626 11.1782 79.0154 10.1597C79.5672 9.14199 80.2493 8.20062 81.0446 7.35941C81.8014 6.51658 82.6681 5.77949 83.6216 5.16794C84.5825 4.54223 85.628 4.05707 86.7262 3.72722C87.8571 3.38194 89.034 3.21089 90.2164 3.21993C92.0625 3.19711 93.8977 3.5064 95.6343 4.13304C97.2024 4.71111 98.6329 5.6095 99.8346 6.77096C101.01 7.95366 101.923 9.37115 102.513 10.9308C103.19 12.663 103.528 14.5092 103.507 16.3689ZM94.3762 16.8965C94.3796 16.3113 94.2906 15.7292 94.1124 15.1717C93.9562 14.6395 93.709 14.1384 93.3819 13.6904C93.0427 13.2661 92.6218 12.9142 92.1441 12.6555C91.6327 12.3817 91.0602 12.2421 90.4802 12.2497C89.8874 12.2423 89.2997 12.3598 88.7554 12.5947C88.2602 12.8175 87.8176 13.1425 87.4568 13.5484C87.0876 13.9617 86.8047 14.4446 86.6248 14.9688C86.4204 15.5207 86.3172 16.105 86.3204 16.6936C86.3199 17.2786 86.4089 17.8602 86.5842 18.4184C86.74 18.9759 86.9868 19.5038 87.3147 19.9808C87.6332 20.4382 88.049 20.8193 88.5322 21.0969C89.0499 21.3961 89.6387 21.5503 90.2367 21.5433C90.833 21.543 91.4218 21.4114 91.9614 21.1577C92.461 20.906 92.9032 20.5537 93.2601 20.1229C93.6273 19.6852 93.9095 19.1829 94.0921 18.6416C94.2766 18.0781 94.3724 17.4894 94.3762 16.8965Z" fill="#FDDCA1"/>
<path d="M77.0676 39.7447V34.7529H103.893V39.7447H77.0676Z" fill="#FDDCA1"/>
<path d="M85.1233 84.5481L84.4943 91.1834L71.9338 92.1574C71.9338 88.6876 72.0758 85.238 72.1367 81.8087C72.1976 78.3794 72.2991 74.9298 72.4208 71.46H80.1722C79.949 73.6312 79.7258 75.8227 79.5229 77.9939C79.32 80.1651 79.1576 82.3566 79.0562 84.5481H80.4563H85.1233Z" fill="#FDDCA1"/>
<path d="M103.589 72.0687C103.142 75.5589 102.757 79.0491 102.452 82.4987C102.148 85.9482 101.823 89.4587 101.539 92.9691L95.4519 93.4155L95.736 91.1226C95.535 91.3505 95.3028 91.5486 95.0461 91.7111C94.7787 91.879 94.4927 92.0152 94.1938 92.1169C93.8909 92.2222 93.5782 92.297 93.2604 92.3401H92.3675C91.7111 92.3331 91.0626 92.1952 90.4601 91.9343C89.8585 91.692 89.3027 91.3489 88.8165 90.9197C88.3038 90.4979 87.853 90.006 87.4773 89.4587C87.0808 88.8985 86.7409 88.3003 86.4627 87.673C86.1926 87.0587 85.982 86.42 85.8336 85.7656C85.6971 85.1527 85.629 84.5266 85.6307 83.8988C85.6307 83.0059 85.6307 82.0725 85.6307 81.1188C85.6307 80.1651 85.7322 79.1911 85.8133 78.2374C85.8945 77.2837 86.0366 76.3097 86.1786 75.3763C86.3207 74.4429 86.5032 73.5297 86.7062 72.6572L90.3587 72.8195C91.5965 72.8195 92.814 72.8195 94.0112 72.8195L93.3416 75.4169C93.1184 76.2894 92.9154 77.1619 92.7328 78.0548C92.5502 78.9476 92.4081 79.8201 92.3067 80.6927C92.2021 81.5817 92.1479 82.476 92.1444 83.3712C92.1444 83.5944 92.1444 83.8785 92.1444 84.264C92.1672 84.6533 92.2214 85.0401 92.3067 85.4206C92.3819 85.7703 92.512 86.1059 92.6922 86.4149C92.7681 86.5464 92.8777 86.6552 93.0097 86.7301C93.1416 86.805 93.2913 86.8433 93.443 86.8411C93.6344 86.8382 93.8227 86.793 93.9946 86.7088C94.1665 86.6246 94.3177 86.5035 94.4373 86.3541C94.7786 85.9735 95.0469 85.5332 95.2287 85.0554C95.4871 84.4405 95.6842 83.8016 95.8172 83.148C95.9998 82.4378 96.1215 81.687 96.2433 80.9159C96.365 80.1448 96.4461 79.3534 96.5273 78.5418C96.6085 77.7301 96.6491 76.9996 96.6694 76.3097C96.6897 75.6198 96.6694 74.9704 96.6694 74.4226C96.6694 73.8747 96.6694 73.4283 96.6694 73.1239C96.6795 72.9279 96.6795 72.7315 96.6694 72.5354C96.6794 72.3462 96.6794 72.1565 96.6694 71.9673H98.6985H102.128L103.589 72.0687Z" fill="#FDDCA1"/>
<path d="M122.298 89.7227C121.803 90.3223 121.214 90.8364 120.553 91.2445C119.865 91.6898 119.13 92.0573 118.361 92.3403C117.576 92.6251 116.768 92.8424 115.946 92.9896C115.162 93.1242 114.368 93.1921 113.572 93.1925C112.187 93.2135 110.81 92.9726 109.514 92.4823C108.349 92.0189 107.287 91.3293 106.389 90.4532C105.506 89.5695 104.815 88.5124 104.36 87.3486C103.847 86.1004 103.591 84.7614 103.609 83.412C103.608 82.3462 103.731 81.284 103.974 80.2465C104.226 79.2495 104.587 78.2832 105.05 77.365C105.514 76.4841 106.079 75.6601 106.734 74.9098C107.4 74.1661 108.164 73.5175 109.007 72.9821C109.87 72.4398 110.806 72.023 111.787 71.7443C112.83 71.4498 113.909 71.2996 114.993 71.2979H116.373L117.834 71.4805C118.307 71.5643 118.775 71.6795 119.234 71.8254C119.673 71.9584 120.095 72.1422 120.492 72.3733L120.066 78.0753C119.508 77.8693 118.93 77.7263 118.341 77.6491C117.769 77.5689 117.193 77.5282 116.616 77.5274C115.86 77.5285 115.109 77.6378 114.384 77.852C113.726 78.0498 113.112 78.3737 112.578 78.8058C112.06 79.2283 111.644 79.7624 111.361 80.3682C111.05 81.0489 110.897 81.7912 110.914 82.5394C110.919 83.0464 110.987 83.5509 111.117 84.041C111.25 84.5045 111.471 84.9384 111.766 85.3194C112.043 85.7014 112.404 86.0139 112.822 86.2325C113.273 86.4653 113.775 86.5837 114.283 86.5775C114.68 86.572 115.075 86.5175 115.459 86.4151C115.84 86.3298 116.194 86.156 116.494 85.9078V84.7512H112.903L113.085 80.287L117.529 80.145C119.01 80.145 120.512 80.145 122.014 80.003L122.298 89.7227Z" fill="#FDDCA1"/>
<path d="M142.224 91.7725L134.818 92.7262L133.925 89.3578H130.536L129.785 92.7262L122.176 91.9755L128.121 72.1099L136.4 71.7041L142.224 91.7725ZM133.397 84.7922L132.261 79.5976L131.165 84.7922H133.397Z" fill="#FDDCA1"/>
<path d="M160 78.684C160 79.3645 159.939 80.0437 159.817 80.7132C159.689 81.3177 159.47 81.8993 159.168 82.4379C158.875 82.981 158.498 83.4741 158.051 83.8989C157.554 84.3924 157.003 84.828 156.408 85.1976L159.959 91.5083L153.242 92.8273L150.949 86.476H149.103L148.819 92.665H142.407C142.407 90.4126 142.407 88.1399 142.549 85.9078C142.691 83.6758 142.549 81.4031 142.711 79.1304V75.7417C142.711 74.6054 142.752 73.469 142.833 72.3327C143.495 72.0805 144.173 71.8704 144.862 71.7037C145.53 71.5302 146.208 71.3947 146.891 71.2979C147.563 71.1966 148.241 71.1356 148.92 71.1152C149.61 71.1152 150.341 71.1152 151.071 71.1152C152.183 71.1152 153.29 71.2723 154.358 71.5819C155.37 71.8813 156.319 72.3627 157.159 73.0023C158.009 73.6101 158.704 74.4095 159.188 75.3359C159.734 76.3666 160.013 77.5177 160 78.684ZM153.324 79.1507C153.324 78.7662 153.269 78.3836 153.161 78.0144C153.05 77.6815 152.878 77.3719 152.654 77.1013C152.42 76.8495 152.137 76.6491 151.822 76.5128C151.448 76.3612 151.048 76.2853 150.645 76.2896H150.057C149.87 76.3107 149.687 76.3516 149.509 76.4114L149.265 81.951H149.63C150.068 81.9471 150.504 81.8926 150.929 81.7886C151.352 81.6818 151.756 81.5107 152.126 81.2813C152.479 81.0601 152.778 80.7618 152.999 80.4088C153.22 80.027 153.332 79.5919 153.324 79.1507Z" fill="#FDDCA1"/>
</svg>
