<svg width="25" height="24" viewBox="0 0 25 24" fill="none" xmlns="http://www.w3.org/2000/svg">
<g clip-path="url(#clip0_921_1976)">
<path d="M3.53638 6.96777H0.875V19.4283H12.5134H24.125V6.96777H21.4903" stroke="#020305" stroke-linecap="round" stroke-linejoin="round"/>
<path d="M21.4905 4.57178C21.4905 4.57178 16.3636 4.56454 12.5134 6.96861V19.4275C13.6357 18.2107 15.0464 17.2962 16.6153 16.7683C18.1843 16.2403 19.8608 16.1159 21.4905 16.4066V4.57178Z" stroke="#020305" stroke-linecap="round" stroke-linejoin="round"/>
<path d="M3.53607 4.57178C3.53607 4.57178 8.66291 4.56454 12.5132 6.96861V19.4275C11.3908 18.2107 9.98012 17.2962 8.41121 16.7682C6.8423 16.2403 5.16571 16.1159 3.53607 16.4066V4.57178Z" stroke="#020305" stroke-linecap="round" stroke-linejoin="round"/>
<path d="M19.409 7.87671C17.8114 7.96387 16.2377 8.30385 14.7467 8.88399L14.4125 9.01399" stroke="#020305" stroke-linecap="round" stroke-linejoin="round"/>
<path d="M19.409 10.5552C17.8114 10.6423 16.2377 10.9823 14.7467 11.5625L14.4125 11.6925" stroke="#020305" stroke-linecap="round" stroke-linejoin="round"/>
<path d="M19.409 13.2336C17.8114 13.3208 16.2377 13.6608 14.7467 14.2409L14.4125 14.3709" stroke="#020305" stroke-linecap="round" stroke-linejoin="round"/>
<path d="M5.52643 7.87671C7.1815 7.97694 8.81034 8.33809 10.3527 8.94681L10.5228 9.01398" stroke="#020305" stroke-linecap="round" stroke-linejoin="round"/>
<path d="M5.52643 10.5552C7.1815 10.6554 8.81033 11.0166 10.3527 11.6253L10.5228 11.6924" stroke="#020305" stroke-linecap="round" stroke-linejoin="round"/>
<path d="M5.52643 13.2336C7.1815 13.3339 8.81034 13.695 10.3527 14.3037L10.5228 14.3709" stroke="#020305" stroke-linecap="round" stroke-linejoin="round"/>
</g>
<defs>
<clipPath id="clip0_921_1976">
<rect width="24" height="24" fill="white" transform="translate(0.5)"/>
</clipPath>
</defs>
</svg>
