<svg width="120" height="120" viewBox="0 0 120 120" fill="none" xmlns="http://www.w3.org/2000/svg">
<mask id="mask0_467_19173" style="mask-type:alpha" maskUnits="userSpaceOnUse" x="0" y="0" width="120" height="120">
<circle cx="60" cy="60" r="60" fill="#C4C4C4"/>
</mask>
<g mask="url(#mask0_467_19173)">
<path d="M279.562 -11.4377H-152.812V468.562H279.562V-11.4377Z" fill="white"/>
<path d="M76.3125 117.563L69.75 152.063H64.8751L59.0626 180L57.7502 187.125C57.0002 186.938 17.2501 174.188 -12.9374 195.188C-12.9374 195.188 -15.3749 78.7505 45.0001 66.938C45.0001 66.938 46.3125 67.6879 48.1875 70.5004C49.3125 72.3754 50.6251 75.3754 51.7501 79.8754C51.7501 80.0629 51.75 80.2504 51.9375 80.2504C52.125 81.1879 52.3126 81.9379 52.6876 82.6879C55.5001 90.5629 60.5627 92.4379 60.5627 92.4379L64.6876 87.3754L72.5625 99.5629C73.5 100.875 74.2502 102 74.6252 103.5C76.6877 108 77.25 112.875 76.3125 117.563Z" fill="#FE9329"/>
<path d="M59.4374 180L58.4999 184.875L58.125 187.312V187.5C58.125 187.5 58.125 187.5 57.9375 187.5C54.9375 186.562 16.6875 175.312 -12.375 195.562C-12.375 195.562 -13.3124 156.562 -2.24992 121.5C5.81258 95.8122 20.0624 72.1873 45.3749 67.3123C45.3749 67.3123 46.6875 68.0622 48.5625 70.8747C49.6875 72.7497 51.0001 75.7497 52.1251 80.2497C52.1251 80.4372 52.125 80.6247 52.3125 80.6247C52.5 81.5622 52.6876 82.3122 53.0626 83.0622C51.0001 79.4997 47.25 74.0622 44.8125 73.6872C44.8125 73.6872 23.0625 79.8747 20.4375 93.1872C17.625 106.312 15.3749 124.875 15.3749 124.875C15.3749 124.875 28.8751 129.562 41.8126 135.375L45 159L55.125 177C55.875 178.312 57.5624 179.625 59.4374 180Z" fill="#E06A00"/>
<path d="M98.6248 46.3126C98.6248 46.3126 98.6249 43.8751 97.3124 43.5001C97.3124 43.5001 97.1249 56.0626 87.9374 62.2501C87.9374 62.0626 91.4999 54.1875 89.9999 48C89.9999 48 83.0624 49.6875 77.4374 45.1875C77.6249 45.1875 82.6874 46.125 83.9999 39.9375C83.9999 39.9375 82.8748 41.625 80.8123 42.375C78.3748 43.3125 75.1873 43.6876 71.4373 40.6876C71.2498 40.8751 66.7499 44.6251 62.4374 45.7501C62.4374 45.7501 63.1874 45.375 63.3749 43.3125C63.3749 43.3125 57.5624 45.75 58.1249 55.3125C58.1249 55.3125 55.3123 54.5626 53.6248 47.2501C53.6248 47.2501 49.1249 46.5 48.5624 48.9375C47.8124 51 49.4998 58.3126 55.6873 57.9376C55.6873 57.9376 53.6249 58.8751 51.5624 58.8751C51.5624 58.8751 51.1873 64.6875 45.3748 66.75C45.5623 66.5625 46.3124 64.8751 45.7499 62.2501C45.7499 62.2501 45.3748 63.3751 45.3748 64.1251C45.3748 64.1251 40.3124 54.75 45.5624 41.8125C45.3749 42 45.1873 42.1876 43.4998 42.9376C43.4998 42.9376 46.4999 40.5001 50.6249 33.1876C55.1249 26.0626 75.5623 14.2501 90.1873 29.4376C90.7498 30.1876 101.437 35.8126 98.6248 46.3126Z" fill="#181461"/>
<path d="M87.9375 62.2505C87.9375 62.2505 84.9374 71.0629 80.0624 73.6879C78.9374 74.4379 77.6249 74.6255 76.1249 74.063L65.0624 87.188L60.9375 92.2505C60.9375 92.2505 55.8751 90.3755 53.0626 82.5005C52.8751 81.7505 52.6875 80.813 52.3125 80.063C52.3125 79.8755 52.3126 79.688 52.1251 79.688C51.1876 75.188 49.6875 72.3755 48.5625 70.313C46.875 67.5005 45.3749 66.7504 45.3749 66.7504C51.1874 64.6879 51.5625 58.8755 51.5625 58.8755C53.625 58.8755 55.6874 57.938 55.6874 57.938C49.6874 58.1255 47.8125 51.0004 48.5625 48.9379C49.3125 46.8754 53.6249 47.2505 53.6249 47.2505C54.9374 54.3755 58.125 55.313 58.125 55.313C57.75 45.938 63.1876 43.5004 63.3751 43.3129C63.3751 45.1879 62.4376 45.7505 62.4376 45.7505C66.9376 44.6255 71.4374 40.688 71.4374 40.688C78.5624 46.688 84.0001 39.7505 84.0001 39.7505C82.8751 45.938 77.4376 45.0005 77.4376 45.0005C80.4376 47.438 84.1874 47.8129 86.4374 48.0004C88.4999 48.0004 90 47.813 90 47.813C91.3125 54.188 87.9375 61.8755 87.9375 62.2505Z" fill="#FF8A9C"/>
<path d="M87.9375 62.2505C89.625 55.5005 88.1249 50.8129 86.6249 48.3754C88.6874 48.3754 90.1874 48.188 90.1874 48.188C91.3124 54.188 87.9375 61.8755 87.9375 62.2505Z" fill="#EF5472"/>
<path d="M93.3752 45.188C93.3752 45.188 93.1875 34.5005 87.375 35.438C87.375 35.438 88.3126 38.2505 86.2501 40.688C86.2501 40.688 85.8751 33.938 78.5626 36.7505C71.2501 39.563 70.8752 33.188 70.8752 33.188C70.8752 33.188 68.0626 36.7505 71.0626 40.8755C70.8751 40.8755 63.375 42.938 62.0625 38.813C62.0625 38.813 53.8125 45.563 57.5625 55.688C57.5625 55.688 54.7502 54.938 53.0627 47.6255C53.0627 47.6255 48.5625 46.8755 48 49.313C47.25 51.3755 48.9376 58.688 55.1251 58.313C55.1251 58.313 53.0625 59.2505 51 59.2505C51 59.2505 50.6251 65.063 44.8126 67.1255C45.0001 66.938 45.75 65.2505 45.1875 62.6255C45.1875 62.6255 44.8126 63.7505 44.8126 64.5005C44.8126 64.5005 39.7501 55.1255 45.0001 42.188C44.8126 42.3755 44.6251 42.563 42.9376 43.313C42.9376 43.313 45.9375 40.8755 50.0625 33.563C54.5625 26.438 75.0002 14.6255 89.6252 29.813C90.7502 30.188 96.7502 35.438 93.3752 45.188Z" fill="#04044C"/>
<path d="M60 60.3748C56.8125 48.5623 62.9999 43.8748 63.1874 43.6873C62.9999 43.8748 57.375 46.4998 57.9375 55.6873C57.9375 55.6873 55.125 54.9373 53.4375 47.6248C53.4375 47.6248 47.4374 47.6248 50.9999 56.6248C52.1249 57.5623 53.4374 58.3122 55.4999 58.3122C55.4999 58.3122 53.4375 59.2497 51.375 59.2497C51.375 59.2497 50.9999 65.0623 45.1874 67.1248C45.1874 67.1248 46.5001 67.8748 48.3751 70.6873C48.5626 70.6873 48.5625 70.4997 48.75 70.4997C53.625 68.0622 59.4376 68.0623 64.3126 70.8748C69.3751 73.6873 75.1875 74.4373 75.9375 74.6248C75.1875 74.0623 63.1875 72.1873 60 60.3748Z" fill="#EF5472"/>
<path d="M83.8124 40.3125C82.6874 46.3125 77.6249 45.5625 77.2499 45.5625C78.9374 45.1875 79.6875 43.875 80.4375 42.75C82.6875 41.8125 83.8124 40.3125 83.8124 40.3125Z" fill="#EF5472"/>
<path d="M13.6876 95.2495L9.56248 129L25.8751 137.625L22.3126 141.749L9.74994 133.687C7.87494 132.562 6.93757 130.125 7.31257 127.875L13.6876 95.2495Z" fill="#964000"/>
<path d="M44.0625 104.438L41.25 135.188L40.1251 155.063L44.8126 158.813L44.0625 104.438Z" fill="#E06A00"/>
<path d="M73.125 114L68.0626 152.062H65.2501L73.125 114Z" fill="#E06A00"/>
<path d="M64.8749 87.3752L60.75 92.4378C60.75 92.4378 55.6874 90.5627 52.8749 82.6877C58.3124 93.7503 64.8749 87.7502 64.8749 87.3752Z" fill="#EF5472"/>
<path d="M67.6874 61.6878C69.6549 61.6878 71.25 60.0928 71.25 58.1253C71.25 56.1578 69.6549 54.5627 67.6874 54.5627C65.7199 54.5627 64.1249 56.1578 64.1249 58.1253C64.1249 60.0928 65.7199 61.6878 67.6874 61.6878Z" fill="#EF5472"/>
<path d="M70.3125 62.8128C70.5196 62.8128 70.6874 62.6449 70.6874 62.4378C70.6874 62.2307 70.5196 62.0627 70.3125 62.0627C70.1054 62.0627 69.9376 62.2307 69.9376 62.4378C69.9376 62.6449 70.1054 62.8128 70.3125 62.8128Z" fill="#EF5472"/>
<path d="M86.4375 58.3127C87.9375 58.3127 89.25 59.4377 89.25 61.1252C89.25 62.8127 88.125 63.9377 86.4375 63.9377C84.75 63.9377 83.625 62.8127 83.625 61.1252C83.625 59.4377 84.9375 58.3127 86.4375 58.3127Z" fill="#EF5472"/>
<path d="M84.9375 65.8122C84.9375 65.9997 84.7499 66.1872 84.5624 66.1872C84.3749 66.1872 84.1875 65.9997 84.1875 65.8122C84.1875 65.6247 84.3749 65.4373 84.5624 65.4373C84.9374 65.6248 84.9375 65.8122 84.9375 65.8122Z" fill="#EF5472"/>
<path d="M78.9375 57.7504C80.2837 57.7504 81.3751 56.6592 81.3751 55.313C81.3751 53.9668 80.2837 52.8755 78.9375 52.8755C77.5913 52.8755 76.5001 53.9668 76.5001 55.313C76.5001 56.6592 77.5913 57.7504 78.9375 57.7504Z" fill="#EF5472"/>
<path d="M48.75 119.812C50.4069 119.812 51.75 117.461 51.75 114.562C51.75 111.662 50.4069 109.312 48.75 109.312C47.0932 109.312 45.7501 111.662 45.7501 114.562C45.7501 117.461 47.0932 119.812 48.75 119.812Z" fill="#FFFDF8"/>
</g>
</svg>
