<svg width="448" height="401" viewBox="0 0 448 401" fill="none" xmlns="http://www.w3.org/2000/svg">
<path d="M143.684 381.36V396.26H113.584V381.36C113.584 378.06 114.784 374.76 116.584 372.46C118.084 370.66 119.584 369.16 121.684 367.96C123.784 366.76 126.184 366.16 128.584 366.16C132.784 366.16 136.584 367.96 139.284 370.66C141.884 373.26 143.684 377.16 143.684 381.36Z" fill="#4C9CA3"/>
<path d="M116.284 376.86C116.284 376.86 103.184 358.96 111.484 343.16C111.484 343.16 125.484 352.66 124.284 371.76L116.284 376.86Z" fill="#4C9CA3"/>
<path d="M121.584 367.96C119.484 369.16 117.684 370.66 116.484 372.46C114.084 367.66 109.084 355.76 112.584 348.06C112.984 347.66 120.484 353.36 121.584 367.96Z" fill="#F73C4F"/>
<path d="M140.984 376.86C140.984 376.86 154.084 358.96 145.784 343.16C145.784 343.16 131.784 352.66 132.984 371.76L140.984 376.86Z" fill="#4C9CA3"/>
<path d="M135.584 367.96C137.684 369.16 139.484 370.66 140.684 372.46C143.084 367.66 148.084 355.76 144.584 348.06C144.584 347.66 136.784 353.36 135.584 367.96Z" fill="#F73C4F"/>
<path d="M133.284 383.06C133.284 383.36 133.284 383.66 133.284 384.26C130.584 383.66 127.584 383.36 124.984 383.06C124.984 380.66 127.084 378.86 129.184 378.86C131.284 378.86 133.284 380.76 133.284 383.06Z" fill="#FF8F6A"/>
<path d="M135.584 377.16C135.584 378.06 134.984 378.66 134.084 378.66C133.184 378.66 132.584 378.06 132.584 377.16C132.584 376.26 133.184 375.66 134.084 375.66C134.984 375.66 135.584 376.26 135.584 377.16Z" fill="#111010"/>
<path d="M123.684 378.36C124.512 378.36 125.184 377.689 125.184 376.86C125.184 376.032 124.512 375.36 123.684 375.36C122.855 375.36 122.184 376.032 122.184 376.86C122.184 377.689 122.855 378.36 123.684 378.36Z" fill="#111010"/>
<path d="M115.684 375.66L109.984 378.36L112.684 378.96L109.984 380.46L114.484 381.96L115.684 375.66Z" fill="#4C9CA3"/>
<path d="M140.984 375.66L146.684 378.36L143.984 378.96L146.684 380.46L142.484 381.96L140.984 375.66Z" fill="#4C9CA3"/>
<path d="M366.484 339.06L406.384 399.76H412.884L371.184 335.76L366.484 339.06Z" fill="#323244"/>
<path d="M413.484 339.06L378.684 400.06H371.484L409.384 335.76L413.484 339.06Z" fill="#323244"/>
<path d="M187.784 339.06L227.684 399.76H234.184L192.184 335.76L187.784 339.06Z" fill="#454556"/>
<path d="M234.484 339.06L199.984 400.06H192.484L230.684 335.76L234.484 339.06Z" fill="#454556"/>
<path d="M409.384 295.56V328.26H397.684V288.66L409.384 295.56Z" fill="#F4A422"/>
<path d="M227.084 295.56V328.26H215.484V288.66L227.084 295.56Z" fill="#F4A422"/>
<path d="M351.884 399.46C351.884 399.46 350.984 361.06 358.484 346.16C358.484 346.16 341.784 354.46 350.484 399.46H351.884Z" fill="#323244"/>
<path d="M355.184 398.86C355.184 398.86 358.484 380.96 364.684 373.86C364.684 373.86 351.584 378.06 353.384 399.16L355.184 398.86Z" fill="#323244"/>
<path d="M347.984 399.16C347.984 399.16 339.384 377.76 340.584 364.86C340.584 364.86 332.284 377.66 346.584 399.36L347.984 399.16Z" fill="#323244"/>
<path d="M413.484 244.96H204.384V295.56H413.484V244.96Z" fill="#FCBD4B"/>
<path d="M413.584 328.26H186.284V338.96H413.584V328.26Z" fill="#FCBD4B"/>
<path d="M413.584 328.26H366.484V338.96H413.584V328.26Z" fill="#F4A422"/>
<path d="M413.484 244.96H403.984V295.56H413.484V244.96Z" fill="#F4A422"/>
<path d="M403.984 295.56H204.384V244.96H271.184L403.984 295.56Z" fill="#F4A422"/>
<path d="M25.0838 398.56C25.0838 398.56 38.7838 382.76 71.5838 391.96C104.384 400.86 112.084 364.86 148.984 389.56C185.884 414.26 216.284 375.86 289.884 398.16C289.884 398.16 339.584 390.46 361.384 398.46C361.384 398.46 399.184 393.36 414.384 398.16L25.0838 398.56Z" fill="#F9D8AD"/>
<path d="M34.0838 398.56C34.0838 398.56 44.4838 390.26 53.7838 398.86L34.0838 398.56Z" fill="#FF8F6A"/>
<path d="M101.384 399.46C101.384 399.46 103.184 329.16 89.1838 301.76C89.1838 301.76 119.884 317.26 104.084 399.46H101.384Z" fill="#454556"/>
<path d="M95.3838 398.56C95.3838 398.56 89.3838 366.06 77.7838 352.66C77.7838 352.66 101.884 360.06 98.3838 398.86L95.3838 398.56Z" fill="#454556"/>
<path d="M108.184 398.86C108.184 398.86 124.284 359.86 121.884 335.76C121.884 335.76 137.084 358.96 111.184 398.86H108.184Z" fill="#454556"/>
<path d="M130.284 399.16L146.684 392.96L157.384 399.16H130.284Z" fill="#FF8F6A"/>
<path d="M59.3838 399.46C59.3838 399.46 65.6838 388.46 88.2838 384.86C110.584 381.26 128.484 399.16 128.484 399.16L59.3838 399.46Z" fill="#FF8F6A"/>
<path d="M267.284 398.86L249.384 380.06L240.484 382.46L223.184 355.66H221.684H216.884C213.284 355.66 210.284 358.06 208.884 361.06L197.284 372.66L195.484 376.26L179.084 382.56L175.484 389.96L153.184 398.86L185.084 397.66L184.784 398.56L267.284 398.86Z" fill="#FF8F6A"/>
<path d="M267.284 398.86L185.084 399.16L197.584 373.26L209.184 361.66C210.684 358.36 213.684 356.26 217.184 356.26H221.984L233.284 382.76H240.384L249.284 380.36L247.184 385.76L267.284 398.86Z" fill="#F05E2B"/>
<path d="M392.084 379.16C395.895 379.16 398.984 375.444 398.984 370.86C398.984 366.276 395.895 362.56 392.084 362.56C388.273 362.56 385.184 366.276 385.184 370.86C385.184 375.444 388.273 379.16 392.084 379.16Z" fill="#323244"/>
<path d="M441.784 329.16L441.184 333.96L440.884 336.06L432.884 398.86H389.084L385.484 371.46L383.384 353.66L380.184 329.16H441.784Z" fill="#F73C4F"/>
<path d="M441.184 333.96L440.884 335.76L432.884 398.56H419.184V331.86C428.684 330.36 435.884 331.26 441.184 333.96Z" fill="#DD2641"/>
<path d="M447.184 322.36H374.784V329.26H447.184V322.36Z" fill="#F73C4F"/>
<path d="M441.784 329.16L440.884 336.06L380.184 329.16H441.784Z" fill="#323244"/>
<path d="M447.184 322.36V329.16H412.884L404.584 322.36H447.184Z" fill="#DD2641"/>
<path d="M406.384 361.36C406.384 368.46 400.684 374.16 393.584 374.16C390.584 374.16 387.884 373.26 385.884 371.46L383.484 353.56C385.884 350.56 389.484 348.46 393.584 348.46C400.684 348.56 406.384 354.26 406.384 361.36Z" fill="#FCBD4B"/>
<path d="M273.184 399.16L286.884 389.06L301.184 383.36L314.884 398.56L273.184 399.16Z" fill="#F05E2B"/>
<path d="M444.784 400.06H1.5838C0.983801 400.06 0.383789 399.46 0.383789 398.86C0.383789 398.26 0.983801 397.66 1.5838 397.66H444.784C445.384 397.66 445.984 398.26 445.984 398.86C445.984 399.46 445.384 400.06 444.784 400.06Z" fill="#F9D8AD"/>
<path d="M269.684 341.66L248.284 359.26C248.284 359.26 247.384 358.36 246.184 356.56C244.384 354.46 241.684 351.16 238.784 347.36C230.784 337.56 219.084 323.26 209.284 310.16C202.984 301.86 197.384 293.76 194.084 288.16C192.284 285.16 191.384 282.76 191.084 281.26C191.084 280.36 191.084 278.26 191.084 275.56C191.384 258.86 193.784 213.06 194.684 194.56C194.984 189.76 194.984 187.16 194.984 187.16C213.184 171.36 228.984 189.56 228.984 189.56H254.584C254.584 194.66 253.984 199.06 253.084 202.96C249.184 218.76 238.784 222.06 238.784 222.06C238.784 222.06 221.784 270.36 224.184 274.16C225.084 275.66 231.284 284.86 238.784 295.86C252.084 315.76 269.684 341.66 269.684 341.66Z" fill="#323244"/>
<path d="M269.684 341.66L248.284 359.26C248.284 359.26 247.384 358.36 246.184 356.56L262.584 339.86L217.884 274.96C217.884 267.26 233.084 220.76 233.084 220.76L224.484 210.66L237.284 215.76C241.784 212.76 244.184 206.26 244.184 206.26H214.684L211.384 191.96C198.284 189.56 194.084 195.26 194.084 195.26C194.384 190.46 194.384 187.86 194.384 187.86C212.584 172.06 228.384 190.26 228.384 190.26H253.984C253.984 195.36 253.384 199.76 252.484 203.66C248.584 219.46 238.184 222.76 238.184 222.76C238.184 222.76 221.184 271.06 223.584 274.86C224.484 276.36 230.684 285.56 238.184 296.56C252.084 315.76 269.684 341.66 269.684 341.66Z" fill="#1F1F35"/>
<path d="M232.084 43.8601C221.684 46.2601 212.084 59.36 209.484 63.26L207.984 61.76C207.984 61.76 209.484 55.46 213.684 49.26C215.784 45.96 218.484 42.9602 221.684 40.6602C223.184 39.4602 224.984 38.5602 226.784 37.9602L232.084 43.8601Z" fill="#DDCAE6"/>
<path d="M221.684 40.26C216.584 43.86 213.084 49.1601 210.984 53.3601C208.884 57.8601 207.984 61.3601 207.984 61.3601L204.384 58.6602C204.384 58.6602 200.784 64.6602 196.084 66.9602C195.184 67.2602 194.584 67.5601 193.684 67.5601C188.884 68.1601 182.684 62.46 177.284 56.26C172.484 50.86 168.384 44.9602 166.584 41.6602C167.184 38.6602 168.384 35.9601 170.484 33.3601L171.084 32.76L172.284 31.5601C172.284 31.5601 177.084 39.2601 182.684 33.3601L191.884 40.26C191.584 39.96 187.384 33.66 190.084 30.76C190.084 30.76 188.284 29.26 189.184 26.26C189.184 25.96 189.484 25.6602 189.484 25.6602C189.484 25.3602 189.784 25.3601 189.784 25.0601C189.784 25.0601 189.784 24.76 190.084 24.76C190.084 24.76 190.084 24.4602 190.384 24.4602C191.284 23.8602 192.184 23.26 193.384 23.26C193.684 23.26 193.684 23.26 193.984 23.26H194.284H194.584C194.584 23.26 194.584 23.26 194.884 23.26H195.184C195.184 23.26 195.484 23.2601 195.484 23.5601C195.484 23.5601 195.784 23.5601 195.784 23.8601L196.084 24.1602C196.084 24.1602 201.784 23.56 204.684 31.26C204.684 31.26 208.884 36.0601 212.984 33.3601C213.284 33.0601 213.884 32.7602 214.184 32.4602L221.684 40.26Z" fill="#FF8F6A"/>
<path d="M195.784 24.7599C195.784 24.7599 195.484 24.4599 195.784 24.7599C195.484 24.4599 195.784 24.4599 195.784 24.7599Z" fill="#EA6044"/>
<path d="M196.684 36.4602C196.984 35.5602 198.784 31.9602 195.784 28.1602C195.484 27.5602 194.884 26.9602 194.284 26.6602C191.584 24.8602 190.684 28.1602 190.684 28.4602C190.684 28.4602 190.084 25.4602 193.084 25.1602C195.784 24.7602 200.284 31.6602 196.684 36.4602Z" fill="#1F1F35"/>
<path d="M238.384 222.26V296.16C230.684 284.86 224.384 275.56 223.784 274.46C221.684 270.56 238.384 222.26 238.384 222.26Z" fill="#1F1F35"/>
<path d="M238.384 347.66V366.16H213.084L208.884 310.46C218.684 323.56 230.384 337.86 238.384 347.66Z" fill="#1F1F35"/>
<path d="M239.584 360.46H210.984V366.46H239.584V360.46Z" fill="#1F1F35"/>
<path d="M272.584 343.16L269.984 345.26L252.684 358.66L248.484 361.96L244.684 357.16L268.784 338.46L272.584 343.16Z" fill="#1F1F35"/>
<path d="M241.384 397.96H174.984C174.984 397.96 173.184 381.26 191.684 381.26L213.384 368.76L214.284 370.26L216.984 374.76L216.084 377.16C216.084 377.16 217.284 378.36 219.684 379.56C223.584 381.66 230.384 383.46 237.884 377.16C237.884 377.16 239.384 379.26 240.584 384.56C240.884 385.46 240.884 386.66 241.184 387.56C241.184 388.16 241.484 388.76 241.484 389.36C241.484 390.26 241.784 391.46 241.784 392.36C241.784 392.66 241.784 393.26 241.784 393.56C241.384 394.46 241.384 396.26 241.384 397.96Z" fill="#323244"/>
<path d="M241.384 397.96H174.984C174.984 397.96 173.184 381.26 191.684 381.26V392.86H241.384C241.384 394.46 241.384 396.26 241.384 397.96Z" fill="#DDCAE6"/>
<path d="M237.184 366.46V376.26C225.884 386.06 215.484 376.56 215.484 376.56L216.384 374.16L213.684 369.66C214.884 368.46 215.484 366.96 215.484 366.06H237.184V366.46Z" fill="#DDCAE6"/>
<path d="M291.684 366.76L250.584 397.76H234.484C233.884 393.56 235.384 388.56 241.884 383.76L251.384 360.56L252.884 361.16L257.684 363.26L258.284 365.66C258.284 365.66 259.784 365.66 261.884 365.36C266.384 364.76 273.184 362.06 275.584 352.26C275.584 352.26 278.284 353.16 282.484 356.76C283.084 357.36 283.984 357.96 284.884 358.86C285.184 359.16 285.784 359.76 286.084 360.06C286.684 360.66 287.584 361.56 288.184 362.46C288.484 362.76 288.484 363.06 288.784 363.06C289.584 364.06 290.484 365.56 291.684 366.76Z" fill="#323244"/>
<path d="M275.284 352.16C271.984 366.76 257.984 365.56 257.984 365.56L257.384 363.16L252.584 361.06C252.584 360.16 252.584 359.26 252.584 358.66L269.884 345.26L275.284 352.16Z" fill="#DDCAE6"/>
<path d="M254.484 189.76H228.584L227.384 192.46L226.784 193.96C224.684 193.66 222.584 193.06 220.484 192.46C220.484 192.46 220.484 192.46 220.184 192.46C213.584 189.76 209.484 184.76 209.184 184.46L210.384 180.86C210.084 180.86 209.784 180.86 209.484 180.86H209.184C208.884 180.86 208.584 180.86 208.284 180.86H207.984C207.684 180.86 207.384 180.86 207.084 180.86H206.784C206.484 180.86 206.184 180.86 205.884 181.16H205.584C205.284 181.16 204.984 181.46 204.384 181.46C204.084 181.46 204.084 181.46 203.784 181.46C203.484 181.46 203.484 181.46 203.184 181.76C202.584 182.06 202.284 182.06 201.684 182.36C201.084 182.66 200.784 182.66 200.184 182.96C199.884 183.26 199.284 183.26 198.984 183.56C198.684 183.86 198.384 183.86 198.084 184.16C197.784 184.46 197.484 184.46 197.184 184.76C196.584 185.06 196.284 185.36 195.684 185.96C195.084 186.56 194.784 186.86 194.184 187.16C194.184 187.16 189.984 174.66 196.884 166.36C196.884 166.36 196.884 165.16 197.184 163.06C198.084 153.56 200.784 125.56 202.584 105.86C202.884 101.66 203.484 98.1602 203.784 95.1602C204.084 90.9602 204.384 87.7601 204.684 86.8601C205.584 79.9601 208.284 77.3601 208.284 77.3601L208.584 64.26C208.584 63.96 208.884 63.9602 209.184 63.6602C211.584 60.0602 221.084 46.66 231.784 44.26L240.084 50.8601C240.084 50.8601 256.184 56.8602 258.884 85.9602C262.184 114.76 254.484 189.76 254.484 189.76Z" fill="#4C9CA3"/>
<path d="M219.284 195.76C221.084 203.16 214.784 205.86 214.784 205.86C205.584 196.06 208.184 185.86 208.184 185.86L209.384 184.36C209.684 184.66 213.884 189.76 220.384 192.36L219.284 195.76Z" fill="#F05E2B"/>
<path d="M211.884 92.1602L220.784 98.6602L226.184 133.26L210.684 180.86L209.484 184.46L232.084 133.86L239.884 132.06L231.784 131.16L227.984 108.16L233.884 82.26L226.184 105.56L223.184 96.8601L216.984 73.3601L220.784 95.0601L211.884 92.1602Z" fill="#28878D"/>
<path d="M259.784 115.36C259.484 126.06 258.584 137.96 257.984 148.76C256.484 171.06 254.384 189.86 254.384 189.86H228.484C228.484 189.86 246.984 159.76 254.384 143.66C255.884 140.36 257.084 137.66 257.384 135.96C258.584 130.86 258.284 124.66 257.084 116.26C255.884 107.06 253.484 95.66 251.084 81.76C246.284 55.56 230.284 50.1602 230.284 50.1602C217.184 52.8602 210.284 61.7601 209.184 63.5601C209.184 63.2601 209.484 63.2602 209.484 62.9602C211.884 59.3602 221.384 45.9601 232.084 43.5601L240.384 50.1602C240.384 50.1602 256.484 56.16 259.184 85.26C260.084 93.26 260.084 103.76 259.784 115.36Z" fill="#28878D"/>
<path d="M257.184 202.66C255.684 202.96 254.184 203.26 252.684 203.26C245.584 203.86 240.184 202.06 240.184 202.06C240.184 202.06 243.184 196.36 236.584 196.36C230.884 196.36 227.984 193.66 227.084 192.76L228.284 190.06H253.884L257.184 202.66Z" fill="#C0A1D1"/>
<path d="M209.484 184.46C202.884 184.46 197.884 190.16 194.284 194.86C191.884 198.46 190.384 201.76 190.084 202.26L194.584 187.36C195.184 187.06 195.484 186.46 196.084 186.16C196.684 185.86 196.984 185.26 197.584 184.96C197.884 184.66 198.184 184.66 198.484 184.36C198.784 184.06 199.084 184.06 199.384 183.76C199.684 183.46 200.284 183.16 200.584 183.16C201.184 182.86 201.484 182.56 202.084 182.56C202.684 182.26 202.984 182.26 203.584 181.96C203.884 181.96 203.884 181.96 204.184 181.66C204.484 181.66 204.484 181.66 204.784 181.66C205.084 181.66 205.384 181.36 205.984 181.36H206.284C206.584 181.36 206.884 181.36 207.184 181.06H207.484C207.784 181.06 208.084 181.06 208.384 181.06H208.684C208.984 181.06 209.284 181.06 209.584 181.06H209.884C210.184 181.06 210.484 181.06 210.784 181.06L209.484 184.46Z" fill="#DDCAE6"/>
<path d="M194.884 43.8601L183.284 36.9602C176.384 40.8602 172.284 35.1601 171.084 33.0601L172.284 31.8601C172.284 31.8601 177.084 39.5602 182.684 33.6602L191.884 40.5601C191.584 40.2601 187.384 33.9601 190.084 31.0601C188.984 36.1601 194.884 43.8601 194.884 43.8601Z" fill="#F05E2B"/>
<path d="M221.684 40.2599C216.584 43.8599 213.084 49.16 210.984 53.36L206.784 49.4601C207.684 53.9601 204.384 58.36 204.384 58.36C204.384 58.36 200.784 64.3601 196.084 66.6601C212.784 50.8601 198.784 37.7599 198.784 37.7599C203.884 30.3599 195.784 24.36 195.784 24.36C195.784 24.36 201.484 23.7601 204.384 31.4601C204.384 31.4601 208.584 36.26 212.684 33.56C212.984 33.26 213.584 32.9601 213.884 32.6601L221.684 40.2599Z" fill="#F05E2B"/>
<path d="M207.384 100.76C207.384 102.26 206.784 103.76 205.584 104.96C204.984 105.56 204.084 106.16 203.184 106.46C203.484 102.26 204.084 98.76 204.384 95.76C206.184 96.56 207.384 98.36 207.384 100.76Z" fill="#DDCAE6"/>
<path d="M209.215 369.123L207.402 370.183L210.43 375.363L212.243 374.303L209.215 369.123Z" fill="#DDCAE6"/>
<path d="M206.229 371.21L204.416 372.27L207.443 377.45L209.256 376.391L206.229 371.21Z" fill="#DDCAE6"/>
<path d="M203.042 372.998L201.229 374.058L204.256 379.239L206.07 378.179L203.042 372.998Z" fill="#DDCAE6"/>
<path d="M199.924 374.801L198.111 375.861L201.139 381.041L202.952 379.982L199.924 374.801Z" fill="#DDCAE6"/>
<path d="M196.818 376.824L195.004 377.884L198.032 383.064L199.845 382.004L196.818 376.824Z" fill="#DDCAE6"/>
<path d="M193.709 378.63L191.896 379.689L194.923 384.87L196.736 383.81L193.709 378.63Z" fill="#DDCAE6"/>
<path d="M248.999 362.367L248.192 364.306L253.732 366.611L254.539 364.672L248.999 362.367Z" fill="#DDCAE6"/>
<path d="M247.695 365.819L246.888 367.758L252.428 370.063L253.235 368.124L247.695 365.819Z" fill="#DDCAE6"/>
<path d="M245.96 369.374L245.153 371.312L250.692 373.617L251.499 371.679L245.96 369.374Z" fill="#DDCAE6"/>
<path d="M245.089 372.526L244.282 374.465L249.821 376.771L250.628 374.832L245.089 372.526Z" fill="#DDCAE6"/>
<path d="M243.093 375.986L242.286 377.925L247.825 380.23L248.632 378.291L243.093 375.986Z" fill="#DDCAE6"/>
<path d="M242.147 379.404L241.34 381.343L246.88 383.648L247.686 381.709L242.147 379.404Z" fill="#DDCAE6"/>
<path d="M261.884 365.56L248.184 384.86L258.284 365.76C258.384 365.56 259.784 365.86 261.884 365.56Z" fill="#DDCAE6"/>
<path d="M218.984 378.96L195.184 386.66L215.484 376.56C215.484 376.86 216.984 378.06 218.984 378.96Z" fill="#DDCAE6"/>
<path d="M240.484 387.26H234.784V384.26H239.884C240.184 384.86 240.484 386.06 240.484 387.26Z" fill="#DDCAE6"/>
<path d="M241.084 391.76H234.784V388.76H240.784C241.084 389.66 241.084 390.86 241.084 391.76Z" fill="#111010"/>
<path d="M284.584 358.66L280.984 361.36L279.184 358.96L282.184 356.86C283.084 357.16 283.984 358.06 284.584 358.66Z" fill="#DDCAE6"/>
<path d="M287.784 362.26L283.884 365.26L282.084 362.86L285.684 360.16C286.584 360.76 287.184 361.36 287.784 362.26Z" fill="#DDCAE6"/>
<path d="M291.684 366.76L250.584 397.76H234.484H232.384C232.384 397.76 228.184 386.46 241.884 383.76L248.984 392.96L288.584 362.86C289.584 364.06 290.484 365.56 291.684 366.76Z" fill="#DDCAE6"/>
<path d="M197.884 163.26C197.584 165.36 197.584 166.56 197.584 166.56Z" fill="#FFDEE9"/>
<path d="M208.284 163.26L197.584 166.56C197.584 166.56 197.584 165.36 197.884 163.26H208.284Z" fill="#28878D"/>
<path d="M196.684 36.4601C198.184 32.8601 195.784 28.16 193.384 27.56C191.284 26.96 190.684 28.4599 190.384 28.7599C190.384 28.1599 191.284 25.1601 193.984 26.9601C194.584 27.2601 195.184 27.8601 195.484 28.4601C198.784 31.9601 196.984 35.5601 196.684 36.4601Z" fill="#F05E2B"/>
<path d="M214.284 33.1602L213.084 34.0601C208.584 36.7601 204.784 31.9602 204.784 31.9602C201.784 24.2602 196.184 24.8601 196.184 24.8601L195.884 24.5601L195.584 24.26C195.584 24.26 195.284 24.2602 195.284 23.9602C195.284 23.9602 195.284 23.9602 194.984 23.9602C194.984 23.9602 194.984 23.9602 194.684 23.9602H194.384H194.084C193.784 23.9602 193.784 23.9602 193.484 23.9602C192.584 23.9602 191.384 24.2602 190.484 25.1602C190.484 25.1602 190.184 25.1602 190.184 25.4602C190.184 25.4602 190.184 25.76 189.884 25.76C189.884 26.06 189.584 26.0601 189.584 26.3601C189.584 26.6601 189.284 26.6602 189.284 26.9602C188.384 29.9602 190.184 31.4602 190.184 31.4602C187.784 34.4602 191.684 40.3602 191.984 40.9602L182.784 34.0601C177.084 40.3601 172.384 32.26 172.384 32.26L170.584 34.3601C168.484 36.7601 167.284 39.7602 166.684 42.6602C165.484 49.2602 167.884 56.3601 173.584 60.8601C173.584 60.8601 173.584 60.8601 173.884 60.8601C173.284 60.5601 149.484 53.76 158.684 27.76C158.684 27.46 158.984 27.1601 158.984 26.5601C169.384 -0.539942 188.184 5.16016 188.184 5.16016C188.184 5.16016 189.384 0.960059 193.584 0.0600586C193.584 0.0600586 191.484 1.56011 190.884 4.86011C209.084 4.56011 211.984 30.1602 211.984 30.1602L214.284 33.1602Z" fill="#323244"/>
<path d="M196.384 282.46C196.384 285.16 195.484 287.26 193.984 288.46C192.184 285.46 191.284 283.06 190.984 281.56C190.984 280.66 190.984 278.56 190.984 275.86C191.284 275.86 191.584 275.86 191.884 275.86C194.284 275.56 196.384 278.86 196.384 282.46Z" fill="#FFDEE9"/>
<path d="M230.384 50.4602C230.384 50.4602 219.984 55.2602 211.584 67.4602C211.584 67.4602 227.384 52.56 237.484 52.26L230.384 50.4602Z" fill="#28878D"/>
<path d="M232.084 43.8601C221.684 46.2601 212.084 59.36 209.484 63.26C210.084 57.86 211.884 53.16 213.384 49.26C215.484 45.96 218.184 42.9602 221.384 40.6602C222.884 39.4602 224.684 38.5602 226.484 37.9602L232.084 43.8601Z" fill="#C0A1D1"/>
<path d="M173.484 60.26C172.884 59.96 151.484 48.6602 172.284 31.6602L170.484 33.76C168.384 36.16 167.184 39.1601 166.584 42.0601C165.084 48.6601 167.484 55.76 173.484 60.26Z" fill="#1F1F35"/>
<path d="M214.284 33.1602L213.084 34.0601C208.584 36.7601 204.784 31.9602 204.784 31.9602C201.784 24.2602 196.184 24.8601 196.184 24.8601L195.884 24.5601L195.584 24.26C195.584 24.26 195.284 24.2602 195.284 23.9602C195.284 23.9602 195.284 23.9602 194.984 23.9602C194.984 23.9602 194.984 23.9602 194.684 23.9602H194.384H194.084C193.784 23.9602 193.784 23.9602 193.484 23.9602C192.584 23.9602 191.384 24.2602 190.484 25.1602C190.484 25.1602 190.184 25.1602 190.184 25.4602C190.184 25.4602 190.184 25.76 189.884 25.76C189.884 26.06 189.584 26.0601 189.584 26.3601C189.584 26.6601 189.284 26.6602 189.284 26.9602C188.384 29.9602 190.184 31.4602 190.184 31.4602C187.784 34.4602 191.684 40.3602 191.984 40.9602L183.384 30.26C180.084 26.06 173.884 25.16 169.384 28.76C162.484 34.46 159.584 43.6602 159.584 43.6602C160.784 22.2602 178.984 14.4602 179.584 14.1602C169.184 17.1602 162.584 22.7602 158.484 28.1602C158.484 27.8602 158.784 27.5602 158.784 26.9602C169.184 -0.139795 187.984 5.56006 187.984 5.56006C187.984 5.56006 189.184 1.36021 193.384 0.460205C193.384 0.460205 191.284 1.96001 190.684 5.26001C208.884 4.96001 211.784 30.5601 211.784 30.5601L214.284 33.1602Z" fill="#1F1F35"/>
<path d="M244.884 62.3601C244.884 62.3601 254.684 107.36 253.184 135.06C253.184 135.06 256.484 107.96 249.884 73.6602L244.884 62.3601Z" fill="#28878D"/>
<path d="M177.284 56.6602C172.484 51.2602 168.384 45.3601 166.584 42.0601C167.184 39.0601 168.384 36.36 170.484 33.76L171.084 33.1602C171.084 33.4602 168.684 44.1602 177.284 56.6602Z" fill="#F05E2B"/>
</svg>
