<svg width="258" height="400" viewBox="0 0 258 400" fill="none" xmlns="http://www.w3.org/2000/svg">
<path d="M94.4607 388.196C94.1605 388.196 93.8604 387.896 93.8604 387.596V276.057C93.8604 275.757 94.1605 275.456 94.4607 275.456C94.7608 275.456 95.0609 275.757 95.0609 276.057V387.596C95.0609 387.896 94.7608 388.196 94.4607 388.196Z" fill="#3F100A"/>
<path d="M96.0612 375.491C96.0612 375.491 95.461 368.489 105.364 367.789C105.264 367.789 103.664 376.092 96.0612 375.491Z" fill="#3F100A"/>
<path d="M93.1603 375.491C93.1603 375.491 93.7605 368.489 83.8571 367.789C83.8571 367.789 85.4576 376.092 93.1603 375.491Z" fill="#3F100A"/>
<path d="M96.0612 361.687C96.0612 361.687 95.461 354.684 105.364 353.984C105.264 354.084 103.664 362.387 96.0612 361.687Z" fill="#3F100A"/>
<path d="M93.1603 361.687C93.1603 361.687 93.7605 354.684 83.8571 353.984C83.8571 354.084 85.4576 362.387 93.1603 361.687Z" fill="#3F100A"/>
<path d="M96.0612 348.282C96.0612 348.282 95.461 341.279 105.364 340.579C105.264 340.279 103.664 348.582 96.0612 348.282Z" fill="#3F100A"/>
<path d="M93.1603 348.282C93.1603 348.282 93.7605 341.28 83.8571 340.579C83.8571 340.279 85.4576 348.582 93.1603 348.282Z" fill="#3F100A"/>
<path d="M96.0612 334.577C96.0612 334.577 95.461 327.575 105.364 326.874C105.264 326.874 103.664 334.877 96.0612 334.577Z" fill="#3F100A"/>
<path d="M93.1603 334.577C93.1603 334.577 93.7605 327.575 83.8571 326.874C83.8571 326.874 85.4576 334.877 93.1603 334.577Z" fill="#3F100A"/>
<path d="M96.0612 320.772C96.0612 320.772 95.461 313.77 105.364 313.07C105.264 313.17 103.664 321.072 96.0612 320.772Z" fill="#3F100A"/>
<path d="M93.1603 320.772C93.1603 320.772 93.7605 313.77 83.8571 313.07C83.8571 313.17 85.4576 321.072 93.1603 320.772Z" fill="#3F100A"/>
<path d="M96.0612 307.067C96.0612 307.067 95.461 300.065 105.364 299.365C105.264 299.365 103.664 307.668 96.0612 307.067Z" fill="#3F100A"/>
<path d="M93.1603 307.067C93.1603 307.067 93.7605 300.065 83.8571 299.365C83.8571 299.365 85.4576 307.668 93.1603 307.067Z" fill="#3F100A"/>
<path d="M96.0612 293.663C96.0612 293.663 95.461 286.66 105.364 285.96C105.264 285.66 103.664 293.963 96.0612 293.663Z" fill="#3F100A"/>
<path d="M93.1603 293.663C93.1603 293.663 93.7605 286.66 83.8571 285.96C83.8571 285.66 85.4576 293.963 93.1603 293.663Z" fill="#3F100A"/>
<path d="M96.0612 279.858C96.0612 279.858 95.461 272.856 105.364 272.155C105.264 271.955 103.664 280.258 96.0612 279.858Z" fill="#3F100A"/>
<path d="M93.1601 279.858C93.1601 279.858 93.7603 272.856 83.8569 272.155C83.8569 271.955 85.4574 280.258 93.1601 279.858Z" fill="#3F100A"/>
<path d="M151.981 400C210.046 400 257.118 395.432 257.118 389.796C257.118 384.161 210.046 379.593 151.981 379.593C93.9153 379.593 46.8439 384.161 46.8439 389.796C46.8439 395.432 93.9153 400 151.981 400Z" fill="#3F100A"/>
<path d="M0.127549 313.77C-3.67378 373.491 78.7551 391.697 78.7551 391.697L80.0555 392.297C53.8464 314.77 0.127549 313.77 0.127549 313.77Z" fill="#DCC9E5"/>
<path d="M74.6537 387.296C74.3536 386.995 33.4393 345.081 13.6323 329.775L14.2325 328.775C34.0395 344.08 74.9538 385.995 75.2539 386.295L74.6537 387.296Z" fill="#3F100A"/>
<path d="M32.1388 291.062C7.83029 346.081 79.0552 391.397 79.0552 391.397L80.0556 392.397C82.2564 310.269 32.1388 291.062 32.1388 291.062Z" fill="#A87BFF"/>
<path d="M74.2535 383.394C50.9453 323.273 36.5403 304.166 36.5403 303.866L37.5406 303.266C37.5406 303.566 51.9456 322.773 75.5539 383.194L74.2535 383.394Z" fill="#3F100A"/>
<path d="M132.174 363.987L131.173 350.583H117.068V362.387C117.068 362.387 122.47 375.792 127.972 371.69C133.374 367.489 132.774 367.088 132.174 363.987Z" fill="#502A67"/>
<path d="M100.463 393.298C100.463 394.298 100.463 394.898 100.463 394.898C100.463 394.898 102.663 397.099 110.366 397.099C111.667 397.099 112.967 397.099 114.568 396.799C125.471 395.799 121.27 389.796 126.672 387.196C132.074 384.595 134.675 382.394 134.675 382.394C134.675 379.793 134.374 377.892 134.374 375.992C133.374 362.587 132.174 363.887 132.174 363.887C132.174 369.289 128.672 366.788 128.672 367.089C128.372 367.089 126.072 366.788 126.072 366.788L126.672 363.287C127.272 360.386 125.071 357.585 122.17 357.185H120.87C119.269 357.185 117.969 357.485 116.668 358.485C115.368 359.486 114.067 361.086 113.767 362.687L113.167 366.888C113.167 366.888 104.564 381.293 101.963 384.795C100.463 386.995 100.463 391.097 100.463 393.298Z" fill="#FFF0F6"/>
<path d="M112.667 387.596C112.667 387.596 113.267 391.797 112.367 394.898C122.57 394.898 126.072 382.794 126.072 382.794L134.675 376.092C133.674 362.687 132.474 363.987 132.474 363.987C132.474 369.389 128.973 366.888 128.973 367.189C128.672 367.189 126.372 366.888 126.372 366.888L126.972 363.387C127.572 360.486 125.371 357.685 122.47 357.285H121.17C119.569 357.285 118.269 357.585 116.968 358.586L123.971 360.486L123.371 366.188L114.468 366.788L115.768 367.789L107.465 381.193L115.168 381.794C115.168 381.794 113.567 389.496 107.165 388.496C106.865 388.196 109.766 388.896 112.667 387.596Z" fill="#EFB9CF"/>
<path d="M150.68 357.585V354.084C150.68 354.084 158.983 355.985 160.884 357.885C162.784 359.786 169.487 374.791 161.884 372.891C154.281 370.99 150.08 367.189 149.78 365.888C149.38 364.588 150.68 357.585 150.68 357.585Z" fill="#502A67"/>
<path d="M93.4601 207.333C93.4601 207.333 93.4601 210.234 93.7602 214.635C94.3605 229.34 95.6609 261.652 97.9617 267.354C100.863 274.656 100.162 279.158 99.8624 285.86C99.5623 292.863 102.763 296.764 103.664 308.868C104.664 321.372 110.066 327.075 110.066 327.075V330.276C107.165 330.576 104.964 334.777 104.964 334.777C104.964 334.777 107.565 343.08 109.166 343.68C110.766 344.281 116.468 346.581 116.468 346.581V351.683H133.074V347.482C133.374 347.482 138.176 349.082 140.076 344.28C141.677 339.179 136.875 330.876 136.875 330.876L139.776 321.973C139.776 321.973 140.777 306.667 141.077 304.066C141.077 301.466 137.876 289.061 137.876 289.061C137.876 289.061 142.977 279.458 142.677 275.957C142.377 272.455 139.476 262.252 139.476 262.252L143.678 238.243L142.677 266.053L147.179 289.661C147.179 289.661 142.977 295.764 143.678 301.165C144.278 306.567 145.278 322.273 145.278 322.273L147.179 326.474L146.579 327.775L146.879 335.778L144.678 335.177L141.777 339.979C141.777 339.979 142.777 345.681 143.678 347.282C144.678 348.882 150.68 352.083 150.68 352.083L150.38 355.284C154.882 361.687 165.685 360.386 165.685 360.386L167.886 353.684L175.189 353.084L176.189 344.481L174.288 339.979L178.09 335.477L178.39 330.976C178.69 330.376 186.993 311.469 191.494 279.258C194.696 255.95 192.095 233.242 190.194 222.038C189.594 217.536 188.894 215.035 188.894 215.035L190.194 211.834L187.093 204.131C187.093 204.131 170.787 212.434 133.374 208.933L133.674 205.732C133.674 205.732 113.867 210.534 99.7623 200.03L93.4601 207.333Z" fill="#E4397D"/>
<path d="M149.98 354.084C154.482 360.486 165.285 359.186 165.285 359.186L167.486 352.483L149.88 350.883V354.084H149.98Z" fill="#77064C"/>
<path d="M147.179 380.893C147.179 380.893 148.779 382.794 156.482 385.395C163.184 387.996 160.283 391.797 167.986 393.998C168.987 394.298 170.187 394.298 171.487 394.598C183.992 396.199 184.892 391.997 184.892 391.997C184.892 391.997 185.492 390.097 184.892 387.196C184.292 384.995 183.292 382.094 180.09 378.893C173.388 371.59 169.887 364.788 169.887 364.788L168.886 358.085C168.586 356.485 167.286 355.184 165.385 355.184H159.683C158.683 355.184 158.083 355.484 157.482 356.185C156.882 356.785 156.182 358.085 156.482 359.086L157.482 365.188L154.581 364.187C154.581 364.187 152.381 365.788 151.38 365.788C150.38 365.788 151.08 357.185 151.08 357.185C151.08 357.185 149.78 356.885 148.179 371.59C147.479 374.191 147.479 377.392 147.179 380.893Z" fill="#FFF0F6"/>
<path d="M147.179 380.893C147.179 380.893 148.779 382.794 156.482 385.395C163.184 387.996 160.283 391.797 167.986 393.998C168.286 393.998 168.286 393.998 168.586 394.298H168.886H169.187C169.487 394.298 169.487 394.298 169.787 394.298C170.087 394.298 170.087 394.298 170.387 394.298C170.687 394.298 170.987 394.298 171.387 394.298C183.892 395.899 184.792 391.697 184.792 391.697C184.792 391.697 185.392 389.796 184.792 386.895C184.792 387.896 184.492 390.097 183.192 390.397C182.891 388.796 181.591 387.796 179.99 387.796C178.99 387.796 178.09 388.396 177.389 389.096C176.789 390.097 175.789 390.997 174.789 391.297C173.188 391.897 164.585 390.997 161.984 386.495C160.083 382.694 150.48 373.691 147.579 370.79C147.479 374.191 147.479 377.392 147.179 380.893Z" fill="#131939"/>
<path d="M157.383 365.588L161.184 367.789L169.787 381.493H178.69C178.69 381.493 183.192 384.995 182.892 390.797C184.192 390.497 184.492 388.596 184.492 387.296C183.892 385.095 182.892 382.194 179.69 378.993C172.988 371.69 169.487 364.888 169.487 364.888L168.487 358.185C168.186 356.585 166.886 355.284 164.985 355.284H159.283C158.283 355.284 157.683 355.584 157.083 356.285L163.185 357.285L164.185 364.287L157.383 365.588Z" fill="#EFB9CF"/>
<path d="M167.886 393.998C168.186 393.998 168.186 393.998 168.486 394.298H168.787H169.087C169.387 394.298 169.387 394.298 169.687 394.298C169.987 394.298 169.987 394.298 170.287 394.298C170.587 394.298 170.887 394.298 171.287 394.298C183.792 395.899 184.692 391.697 184.692 391.697C184.692 391.697 185.292 389.796 184.692 386.895C184.692 387.896 184.392 390.097 183.092 390.397C182.891 394.298 174.989 394.598 167.886 393.998Z" fill="#070D28"/>
<path d="M91.2593 196.129L93.4601 207.333L105.564 198.73L103.964 185.625L91.2593 196.129Z" fill="#F27D86"/>
<path d="M190.294 196.129L188.393 208.933C188.393 208.933 179.09 198.029 181.991 192.928C184.892 187.826 189.994 188.826 190.294 196.129Z" fill="#ED5668"/>
<path d="M115.168 207.333C115.168 207.333 109.066 208.933 103.664 208.333C103.664 208.333 119.969 211.534 133.374 208.933C133.374 208.933 141.377 210.534 150.28 209.533L167.186 221.337L158.283 210.434C158.283 210.434 165.585 210.734 171.688 209.833C178.69 214.635 180.991 223.938 177.79 231.541L159.283 272.755L179.39 246.546C179.09 247.547 164.685 318.171 160.184 323.273C155.682 328.075 148.079 319.772 147.679 319.472C148.279 320.072 160.784 337.678 168.086 317.271C168.086 317.271 172.288 326.874 171.287 329.375C170.287 331.576 159.183 334.477 159.183 334.477L170.987 336.678L153.381 337.678L173.488 348.582L163.885 350.483H151.38L168.987 352.083L176.289 351.483L177.29 342.88L175.389 338.378L179.19 333.877L179.49 329.375C179.79 329.075 188.093 310.169 192.595 277.657C195.796 254.349 193.195 231.641 191.294 220.437C190.694 215.936 189.994 213.435 189.994 213.435L191.294 210.234L188.093 202.531C188.093 202.531 171.788 210.834 134.375 207.333L134.675 204.131C134.675 204.131 114.868 208.933 100.763 198.429C99.8624 198.73 103.964 203.831 115.168 207.333Z" fill="#A3206C"/>
<path d="M126.072 20.067V24.8687C127.072 25.1688 127.972 26.1691 127.972 26.1691C127.972 26.1691 127.972 23.2681 128.272 20.4671C128.572 18.5665 128.872 16.2657 129.573 14.7652C130.873 11.564 142.077 5.46187 153.881 13.4647C154.882 14.0649 155.782 14.7651 156.482 15.3653L157.082 19.8669L158.683 21.1674C158.683 21.1674 158.683 25.669 157.683 32.6714C157.683 32.6714 159.283 27.2695 161.184 28.1698C161.184 28.1698 162.484 27.5696 163.785 27.8697C164.385 24.9687 165.085 19.2667 164.385 13.4647C164.085 10.8638 163.385 8.66301 161.784 6.76235C158.583 2.56088 152.181 0.360095 143.878 0.05999C132.074 -0.54022 132.374 3.56122 132.374 3.56122C113.867 11.1639 126.072 20.067 126.072 20.067Z" fill="#6B3FAE"/>
<path d="M146.879 1.56056C147.879 1.56056 156.482 1.26045 153.881 11.464V13.3647C154.882 13.9649 155.782 14.6652 156.482 15.2654L157.082 19.7669L158.683 21.0674C158.683 21.0674 158.683 25.569 157.683 32.5714C157.683 32.5714 159.283 27.1695 161.184 28.0698C161.184 28.0698 162.484 27.4696 163.785 27.7697C164.385 24.8687 165.085 19.1667 164.385 13.3647C164.085 10.7638 163.385 8.56301 161.784 6.66235C158.983 4.16147 153.181 0.960347 146.879 1.56056Z" fill="#502A67"/>
<path d="M83.5568 188.226C87.058 192.027 88.3585 191.127 88.3585 191.127L91.2595 196.229L100.563 190.827L102.463 189.526V195.228C137.276 209.333 184.592 197.829 184.592 197.829V193.628C185.893 193.028 186.793 192.027 186.793 192.027L190.294 196.529L191.895 191.727C191.895 191.727 196.696 181.824 197.297 178.322C197.897 174.821 195.996 170.02 195.996 170.02L198.897 166.218L198.297 162.417C199.597 154.714 195.096 145.511 195.096 145.511C193.195 130.206 188.694 104.597 186.793 94.9933C186.193 92.3923 185.492 89.8915 184.192 87.2906C181.291 81.1884 176.889 76.0866 171.087 72.5854L156.682 63.9824V60.7813C156.682 57.8803 156.082 55.0793 155.082 52.4784C154.782 51.1779 154.081 50.2776 153.481 48.9771C153.481 48.9771 152.481 48.677 150.88 48.3769C146.079 47.3766 135.875 44.8757 132.374 44.8757C131.774 44.8757 131.374 44.8757 131.374 44.8757C131.073 45.1758 130.373 45.4759 130.073 45.8761C129.773 46.1762 129.473 46.4763 128.773 47.1765C126.172 50.0775 124.271 53.8789 123.071 57.6802L122.47 60.2811C122.47 60.2811 105.865 63.7823 98.462 69.8845C90.7593 75.9866 80.8558 116.501 80.5557 122.903C80.2556 129.305 81.8562 167.018 81.8562 167.018C77.8548 179.923 80.0556 184.325 83.5568 188.226Z" fill="#6B3FAE"/>
<path d="M100.463 190.727L102.363 189.426V195.128C137.175 209.233 184.492 197.729 184.492 197.729V193.528C185.792 192.928 186.693 191.927 186.693 191.927L190.194 196.429L191.795 191.627C191.795 191.627 196.596 181.724 197.196 178.222C197.797 174.721 195.896 169.919 195.896 169.919L198.797 166.118L198.197 162.317C199.497 154.614 194.996 145.411 194.996 145.411C193.095 130.106 188.593 104.497 186.693 94.8932C186.093 92.2923 185.392 89.7914 184.092 87.1905C181.191 81.0884 176.789 75.9866 170.987 72.4854L156.582 63.8824V60.6812C156.582 57.7802 155.982 54.9792 154.982 52.3783C154.682 51.0779 153.981 50.1776 153.381 48.8771C153.381 48.8771 152.381 48.577 150.78 48.2769C147.579 51.1779 145.678 54.379 145.678 54.379L142.177 63.6823C142.177 63.6823 134.475 61.7816 130.373 53.1786C130.373 53.1786 131.674 61.1814 142.477 67.2836C141.877 71.7851 136.775 74.286 132.874 71.7851C129.373 69.5844 125.571 66.3833 123.271 61.2815C123.271 61.2815 125.171 72.4854 141.477 77.5872C141.477 77.5872 149.78 78.5875 154.882 69.2843L168.987 124.904L163.885 80.4882L172.488 90.6918C172.488 90.6918 167.386 131.306 182.992 143.41L170.187 135.107L180.391 147.912L179.79 176.322L154.882 156.815C154.882 156.815 162.184 175.621 180.09 186.225C180.09 186.225 175.589 188.126 170.487 188.126C165.385 188.126 150.08 178.823 150.08 178.823L158.383 189.026L141.177 178.122L144.378 184.224C144.378 184.224 128.072 181.023 123.971 179.123C119.769 177.222 112.467 164.718 111.867 164.117L120.47 181.023C120.47 181.023 104.164 168.919 100.663 142.71L100.463 190.727Z" fill="#502A67"/>
<path d="M130.173 45.976C132.074 59.3807 142.277 63.5822 142.277 63.5822C148.679 61.6815 152.781 55.5794 154.782 52.3783C154.481 51.0778 153.781 50.1775 153.181 48.877C153.181 48.877 137.175 45.0757 132.374 45.0757C131.774 45.0757 131.373 45.0757 131.373 45.0757C131.173 45.3758 130.873 45.6759 130.173 45.976Z" fill="#131939"/>
<path d="M124.771 29.3702C125.371 36.6728 128.272 37.073 128.272 37.073C128.873 42.4748 131.474 45.0758 131.474 45.0758C132.474 57.8802 141.977 63.2821 142.377 63.5822C142.677 63.2821 142.978 63.2821 143.678 62.982C151.381 58.4804 153.581 48.8771 153.581 48.8771V45.3759L156.782 39.2737C159.984 43.4752 165.686 33.8718 165.686 30.3706C165.686 28.77 164.685 28.47 164.085 28.1698C162.784 27.8697 161.484 28.4699 161.484 28.4699C159.883 27.4696 157.983 32.9715 157.983 32.9715C158.983 25.9691 158.983 21.4675 158.983 21.4675L157.383 20.167L156.782 15.6655C143.978 4.76165 131.173 11.1639 129.573 14.6651C129.273 15.2653 128.973 16.2657 128.973 17.266C128.372 21.0674 128.372 25.869 128.372 25.869C128.372 25.869 127.372 24.8687 126.472 24.5686C125.071 24.5686 124.471 25.5689 124.771 29.3702Z" fill="#F27D86"/>
<path d="M99.8624 198.73C103.664 201.631 108.165 203.531 112.667 204.432C123.571 207.032 133.474 204.432 133.774 204.432L133.474 207.633C171.187 211.134 187.193 202.831 187.193 202.831L184.592 198.329C184.592 198.329 177.29 200.23 166.086 201.531C165.085 201.531 163.885 201.831 162.884 201.831C154.582 202.831 144.978 203.131 134.775 202.431C134.174 202.431 133.774 202.431 133.174 202.431C127.072 202.131 121.07 201.13 114.968 199.83C110.766 198.83 106.665 197.629 102.863 196.029L99.8624 198.73Z" fill="#FFF0F6"/>
<path d="M102.763 189.826V195.528C137.576 209.633 184.892 198.129 184.892 198.129V193.928C184.892 193.928 129.573 201.631 102.763 189.826Z" fill="#131939"/>
<path d="M192.195 191.727L188.994 188.526C188.994 188.526 187.993 191.127 187.093 192.327L190.594 196.529L192.195 191.727Z" fill="#131939"/>
<path d="M188.994 188.526C188.994 188.526 178.79 185.025 170.487 170.92C170.487 170.92 177.189 179.223 185.192 183.724L182.291 136.708L175.289 122.303L182.591 132.807L177.79 109.498L175.189 89.3913L179.69 109.198L180.991 114L184.492 96.7939L181.891 117.901C181.891 117.901 183.792 133.207 184.492 151.113C184.492 151.113 190.894 150.513 194.696 155.915C194.696 155.915 190.494 153.014 185.092 154.314L185.392 159.716L196.596 165.118L185.692 162.517L186.693 171.42L194.696 183.224L186.693 175.521L188.994 188.526Z" fill="#131939"/>
<path d="M101.163 72.1852L98.9621 86.5903L94.7606 78.5875C94.7606 78.5875 90.259 92.6924 93.4601 108.898L91.2594 109.498L92.2597 115.901L88.4584 104.096L92.6598 130.606L82.7564 133.807L98.762 147.912L86.6577 161.617L97.5616 166.718L85.4573 178.823L96.6612 181.423C96.6612 181.423 90.9593 186.225 87.7581 186.525C84.8571 186.825 81.0558 180.123 81.0558 180.123C81.0558 180.123 83.9568 191.027 88.7585 191.327L92.2597 194.228L101.163 186.925V72.1852Z" fill="#502A67"/>
<path d="M102.763 189.826L99.5623 184.625L88.3584 191.027L91.2594 196.129L102.763 189.826Z" fill="#131939"/>
<path d="M102.763 189.826L101.163 72.1852L99.8624 96.4937L95.0607 87.8907L99.8624 100.695L100.163 110.299L96.9614 106.097L99.8624 111.499L92.1597 114.1L100.163 116.301L91.8596 117.901L99.5623 127.505L95.3609 125.904L100.163 138.408V144.511L94.7606 141.009L100.163 147.412L94.4605 158.115L99.8624 160.016L86.1576 161.617L99.8624 164.217L99.5623 168.419C99.5623 168.419 90.6592 176.422 84.8572 178.923C84.8572 178.923 95.0608 177.322 99.8624 173.221L99.2622 185.025L102.763 189.826Z" fill="#131939"/>
<path d="M156.782 15.2654L157.382 19.7669L158.983 21.0674C158.983 21.0674 158.983 25.5689 157.983 32.5714C157.983 32.5714 159.583 27.1695 161.484 28.0698C161.484 28.0698 162.784 27.4696 164.085 27.7697C164.085 24.2685 163.785 21.0674 163.785 21.0674C161.484 18.1664 156.782 15.2654 156.782 15.2654Z" fill="#070D28"/>
<path d="M126.072 20.067V24.8686C127.072 25.1687 127.972 26.1691 127.972 26.1691C127.972 26.1691 127.972 23.2681 128.272 20.4671L126.072 20.067Z" fill="#070D28"/>
<path d="M131.473 45.0758C131.473 45.0758 136.275 51.478 147.779 49.8774C147.779 49.8774 150.38 57.8802 142.677 63.5822C151.28 59.3808 153.581 48.8771 153.581 48.8771V45.3759L156.782 39.2737C159.983 43.4752 165.685 33.8718 165.685 30.3706C165.685 28.77 164.685 28.47 164.085 28.1698C162.784 27.8697 161.484 28.4699 161.484 28.4699C159.883 27.4696 157.983 32.9715 157.983 32.9715C158.983 25.9691 158.983 21.4675 158.983 21.4675L157.383 20.167L156.782 15.6655C143.978 4.76165 131.173 11.1639 129.573 14.6651C129.273 15.2653 128.973 16.2657 128.973 17.266C132.474 16.2657 145.278 13.4647 153.881 20.167C153.881 20.067 154.782 59.0807 131.473 45.0758Z" fill="#ED5668"/>
<path d="M127.972 28.0698L128.272 34.172C128.272 34.172 126.672 34.172 126.372 29.9705C125.771 25.5689 127.972 28.0698 127.972 28.0698Z" fill="#ED5668"/>
<path d="M123.17 190.127H127.672C129.273 190.127 130.573 188.826 130.573 187.226C130.573 185.625 129.273 184.325 127.672 184.325H123.17C121.57 184.325 120.269 185.625 120.269 187.226C120.269 188.826 121.57 190.127 123.17 190.127Z" fill="#FFF0F6"/>
<path d="M152.581 102.896H164.085C165.685 102.896 166.986 101.596 166.986 99.9949C166.986 98.3944 165.685 97.0939 164.085 97.0939H152.581C150.98 97.0939 149.68 98.3944 149.68 99.9949C149.98 101.596 150.98 102.896 152.581 102.896Z" fill="#FFF0F6"/>
<path d="M136.875 196.829H137.876L142.077 75.0862L143.678 62.982C143.378 63.2821 143.078 63.2821 142.377 63.5822L141.077 75.0862L136.875 196.829Z" fill="#131939"/>
<path d="M142.677 66.7834C143.278 66.7834 143.978 66.4833 143.978 65.783V64.7827C143.978 64.1824 143.678 63.4822 142.977 63.4822C142.377 63.4822 141.677 63.7823 141.677 64.4825V65.4829C141.677 66.0831 142.077 66.7834 142.677 66.7834Z" fill="#131939"/>
<path d="M126.672 101.295L114.868 69.9845L123.871 104.497L110.066 75.6865L125.771 137.108L124.771 98.9946L126.672 101.295Z" fill="#502A67"/>
<path d="M127.972 173.821L119.669 135.507C119.669 135.808 120.67 164.518 127.972 173.821Z" fill="#502A67"/>
<path d="M140.076 5.36183L148.379 5.96205C148.98 5.96205 149.68 5.36185 149.98 4.66161C149.98 4.0614 149.38 3.36114 148.679 3.06104L140.377 2.46082C139.776 2.46082 139.076 3.06105 138.776 3.7613C138.876 4.46154 139.476 5.06173 140.076 5.36183Z" fill="#FFF0F6"/>
<path d="M126.072 20.067H128.272C128.572 18.1663 128.873 15.8655 129.573 14.365C130.873 10.8638 143.978 4.16141 156.782 15.3653C160.284 17.9662 163.485 21.0673 163.785 21.0673C148.479 -1.94072 132.774 3.46117 132.774 3.46117C113.867 11.1639 126.072 20.067 126.072 20.067Z" fill="#391A4F"/>
<path d="M178.49 329.075C178.79 328.475 187.093 309.568 191.595 277.357C194.796 254.049 192.195 231.341 190.294 220.137C188.694 220.137 187.393 221.437 187.393 223.038C187.693 236.743 188.093 292.362 178.49 329.075Z" fill="#C18AA3"/>
<path d="M132.174 345.681C125.471 345.681 116.468 346.281 116.468 346.281L133.074 346.881C133.374 346.881 138.176 348.482 140.077 343.68C141.677 338.579 136.875 330.276 136.875 330.276L139.776 321.372C139.776 321.372 140.777 306.067 141.077 303.466C141.077 300.865 137.876 288.461 137.876 288.461C137.876 288.461 142.978 278.858 142.677 275.356C142.377 271.855 139.476 261.652 139.476 261.652L143.678 237.643L152.281 242.445L145.278 235.142L154.582 223.938L144.978 230.04L128.072 240.544L141.477 237.343L136.075 260.051L127.172 251.148L139.676 271.255C139.676 271.255 142.577 281.759 131.073 291.662L135.875 290.662L137.776 298.665C137.776 298.665 127.872 295.163 117.669 282.059C117.969 282.359 124.371 294.863 138.076 302.866L137.776 320.472L134.575 330.076C134.575 330.076 117.669 311.269 109.666 289.161C109.966 290.162 118.269 322.373 138.076 340.279C137.576 339.979 138.876 345.681 132.174 345.681Z" fill="#A3206C"/>
<path d="M133.374 347.282L116.468 346.681V351.483H133.374V347.282Z" fill="#77064C"/>
<path d="M93.4601 207.333C93.4601 207.333 93.4601 210.234 93.7602 214.635L111.667 232.541L93.4601 207.333Z" fill="#A3206C"/>
<path d="M99.5622 215.035L113.967 218.236C115.268 218.536 116.568 217.636 116.868 216.336C117.168 215.035 116.268 213.735 114.968 213.435L100.563 210.234C99.2621 209.933 97.9617 210.834 97.6616 212.134C97.2614 213.435 98.2618 214.735 99.5622 215.035Z" fill="#FFF0F6"/>
<path d="M174.288 259.751C174.288 259.751 161.484 322.973 156.682 321.473C156.782 321.473 168.586 279.258 174.288 259.751Z" fill="#A3206C"/>
<path d="M133.374 207.333C171.087 210.834 187.093 202.531 187.093 202.531L184.492 198.029C184.492 198.029 177.19 199.93 165.986 201.23C158.983 207.633 133.374 207.333 133.374 207.333Z" fill="#C18AA3"/>
<path d="M112.667 204.532C123.571 207.133 133.474 204.532 133.774 204.532L134.775 202.331C134.174 202.331 133.774 202.331 133.174 202.331C127.972 205.432 119.069 205.132 112.667 204.532Z" fill="#C18AA3"/>
<path d="M100.463 393.298C100.463 394.298 100.463 394.898 100.463 394.898C100.463 394.898 102.663 397.099 110.366 397.099C110.966 397.099 111.967 397.099 112.967 397.099C113.267 397.099 113.567 397.099 113.967 397.099C114.267 397.099 114.267 397.099 114.568 397.099C125.471 396.099 121.27 390.097 126.672 387.496C132.074 384.895 134.675 382.694 134.675 382.694C134.675 380.093 134.374 378.192 134.374 376.292L125.771 382.994C125.771 382.994 122.27 394.798 112.067 395.098L109.166 392.497C108.565 391.897 107.565 391.497 106.965 391.497C105.664 391.497 104.764 392.097 104.064 393.098C103.764 393.398 103.464 394.098 103.064 394.098C102.363 394.298 101.463 393.998 100.463 393.298Z" fill="#131939"/>
<path d="M162.184 371.89H174.689C175.289 371.89 175.989 370.89 175.689 370.29L174.389 368.389C174.088 368.089 173.788 368.089 173.388 368.089H160.884C160.284 368.089 159.583 369.089 159.883 369.689L161.184 371.59C161.484 371.89 161.884 371.89 162.184 371.89Z" fill="#131939"/>
<path d="M122.27 371.89H109.766C109.166 371.89 108.465 370.89 108.766 370.29L110.066 368.389C110.366 368.089 110.666 368.089 111.066 368.089H123.571C124.171 368.089 124.871 369.089 124.571 369.689L123.271 371.59C122.87 371.89 122.57 371.89 122.27 371.89Z" fill="#131939"/>
<path d="M118.069 378.593H105.564C104.964 378.593 104.264 377.592 104.564 376.992L105.864 375.091C106.165 374.791 106.465 374.791 106.865 374.791H119.369C119.969 374.791 120.67 375.792 120.37 376.392L119.069 378.292C119.069 378.592 118.669 378.593 118.069 378.593Z" fill="#131939"/>
<path d="M166.686 378.292H179.09C179.69 378.292 180.391 377.292 180.091 376.692L178.79 374.791C178.49 374.491 178.19 374.491 177.79 374.491H165.685C165.085 374.491 164.385 375.491 164.685 376.092L165.986 377.992C165.986 377.992 166.286 378.292 166.686 378.292Z" fill="#131939"/>
<path d="M161.184 362.987H165.985C166.986 362.987 167.886 361.987 167.586 361.086L167.286 359.186C167.286 358.586 166.286 357.885 165.685 357.885H160.884C159.883 357.885 158.983 358.886 159.283 359.786L159.583 361.687C159.583 362.387 160.284 362.987 161.184 362.987Z" fill="#E4397D"/>
<path d="M122.57 365.188H117.769C116.768 365.188 115.868 364.187 116.168 363.287L116.468 361.387C116.468 360.786 117.469 360.086 118.069 360.086H122.87C123.871 360.086 124.771 361.086 124.471 361.987L124.171 363.887C123.871 364.588 123.171 365.188 122.57 365.188Z" fill="#E4397D"/>
<path d="M110.766 397.199C111.366 397.199 112.367 397.199 113.367 397.199C113.667 397.199 113.967 397.199 114.367 397.199C114.668 397.199 114.668 397.199 114.968 397.199C125.871 396.199 121.67 390.197 127.072 387.596C132.474 384.995 135.075 382.794 135.075 382.794C135.075 380.193 134.775 378.292 134.775 376.392L126.172 383.094C126.172 383.094 122.67 394.898 112.467 395.198C111.967 395.899 111.366 396.499 110.766 397.199Z" fill="#070D28"/>
<path d="M202.098 389.796C201.498 389.796 201.098 389.496 201.098 388.796V211.234C201.098 210.634 201.398 210.234 202.098 210.234C202.698 210.234 203.099 210.534 203.099 211.234V388.896C203.099 389.196 202.398 389.796 202.098 389.796Z" fill="#3F100A"/>
<path d="M204.299 369.389C204.299 369.389 202.999 358.185 219.004 356.885C219.004 356.885 216.503 369.99 204.299 369.389Z" fill="#3F100A"/>
<path d="M199.897 369.389C199.897 369.389 201.198 358.185 185.192 356.885C184.892 356.885 187.393 369.99 199.897 369.389Z" fill="#3F100A"/>
<path d="M204.299 347.682C204.299 347.682 202.999 336.478 219.004 335.177C219.004 335.177 216.503 348.282 204.299 347.682Z" fill="#3F100A"/>
<path d="M199.897 347.682C199.897 347.682 201.198 336.478 185.192 335.177C184.892 335.177 187.393 348.282 199.897 347.682Z" fill="#3F100A"/>
<path d="M204.299 325.874C204.299 325.874 202.999 314.67 219.004 313.37C219.004 313.47 216.503 326.574 204.299 325.874Z" fill="#3F100A"/>
<path d="M199.897 325.874C199.897 325.874 201.198 314.67 185.192 313.37C184.892 313.47 187.393 326.574 199.897 325.874Z" fill="#3F100A"/>
<path d="M204.299 304.166C204.299 304.166 202.999 292.963 219.004 291.662C219.004 291.762 216.503 304.867 204.299 304.166Z" fill="#3F100A"/>
<path d="M199.897 304.166C199.897 304.166 201.198 292.963 185.192 291.662C184.892 291.762 187.393 304.867 199.897 304.166Z" fill="#3F100A"/>
<path d="M204.299 282.459C204.299 282.459 202.999 271.255 219.004 269.954C219.004 269.954 216.503 283.059 204.299 282.459Z" fill="#3F100A"/>
<path d="M199.897 282.459C199.897 282.459 201.198 271.255 185.192 269.954C184.892 269.954 187.393 283.059 199.897 282.459Z" fill="#3F100A"/>
<path d="M204.299 260.751C204.299 260.751 202.999 249.547 219.004 248.247C219.004 248.247 216.503 261.351 204.299 260.751Z" fill="#3F100A"/>
<path d="M199.897 260.751C199.897 260.751 201.198 249.547 185.192 248.247C184.892 248.247 187.393 261.351 199.897 260.751Z" fill="#3F100A"/>
<path d="M204.299 238.644C204.299 238.644 202.999 227.44 219.004 226.139C219.004 226.539 216.503 239.344 204.299 238.644Z" fill="#3F100A"/>
<path d="M199.897 238.644C199.897 238.644 201.198 227.44 185.192 226.139C184.892 226.539 187.393 239.344 199.897 238.644Z" fill="#3F100A"/>
<path d="M204.299 216.936C204.299 216.936 202.999 205.732 219.004 204.432C219.004 204.532 216.503 217.636 204.299 216.936Z" fill="#3F100A"/>
<path d="M199.897 216.936C199.897 216.936 201.198 205.732 185.192 204.432C184.892 204.532 187.393 217.636 199.897 216.936Z" fill="#3F100A"/>
</svg>
