<svg width="36" height="36" viewBox="0 0 36 36" fill="none" xmlns="http://www.w3.org/2000/svg">
<path d="M29.2598 31.3118C28.8737 31.6356 28.469 31.947 28.0517 32.2397C25.1138 34.3221 21.6016 35.4406 18.0006 35.4406C14.3995 35.4406 10.8873 34.3221 7.94943 32.2397C7.53218 31.947 7.13363 31.6419 6.74752 31.318C4.01785 29.0122 2.06244 25.9235 1.1459 22.4698C0.229361 19.0162 0.395946 15.3643 1.62311 12.0084C2.85028 8.65254 5.07878 5.75467 8.00705 3.70696C10.9353 1.65925 14.422 0.560559 17.9952 0.559571C21.5684 0.558583 25.0557 1.65534 27.9851 3.70143C30.9144 5.74752 33.1445 8.64416 34.3736 11.9994C35.6026 15.3546 35.7712 19.0063 34.8566 22.4605C33.9419 25.9147 31.9882 29.0045 29.2598 31.3118Z" fill="#F1F1F2"/>
<path d="M18.0006 19.8162C21.3384 19.8162 24.0442 17.1104 24.0442 13.7726C24.0442 10.4348 21.3384 7.729 18.0006 7.729C14.6628 7.729 11.957 10.4348 11.957 13.7726C11.957 17.1104 14.6628 19.8162 18.0006 19.8162Z" fill="#3C20B1" stroke="#3C20B1" stroke-linecap="round" stroke-linejoin="round"/>
<path d="M29.2598 31.3119C28.8737 31.6357 28.4689 31.9471 28.0517 32.2398C25.1138 34.3222 21.6016 35.4407 18.0005 35.4407C14.3995 35.4407 10.8873 34.3222 7.9494 32.2398C7.53216 31.9471 7.1336 31.642 6.7475 31.3181C8.65933 27.6938 13.7223 25.1841 18.0005 25.1841C22.2664 25.1841 27.3418 27.6938 29.2598 31.3119Z" fill="#3C20B1"/>
</svg>
