<svg width="120" height="120" viewBox="0 0 120 120" fill="none" xmlns="http://www.w3.org/2000/svg">
<mask id="mask0_467_19168" style="mask-type:alpha" maskUnits="userSpaceOnUse" x="0" y="0" width="120" height="120">
<circle cx="60" cy="60" r="60" fill="#C4C4C4"/>
</mask>
<g mask="url(#mask0_467_19168)">
<path d="M261 -28.3125H-52.875V376.688H261V-28.3125Z" fill="white"/>
<path d="M85.1251 74.2498C85.1251 74.2498 72.9375 87.9372 63.9375 110.437C63.75 111 63.5625 111.562 63.375 111.937C59.0625 123 55.6875 135.937 54.75 150.562H51.5625C52.5 129.937 60.375 105.187 62.25 99.5623C62.4375 98.8123 62.6251 98.4372 62.6251 98.4372C62.6251 98.4372 40.8751 103.5 36.3751 102C31.8751 100.5 20.4376 90.1873 20.4376 90.1873C20.8126 89.8123 21.1876 89.2497 21.3751 88.8747C24.3751 84.1872 22.6875 79.4997 22.5 78.7497L36.5625 85.6873C38.625 86.6248 40.8751 86.8122 42.9376 85.8747C49.5001 83.0622 64.6875 76.8748 72.1875 73.3123C79.125 69.9373 82.6875 69.5623 84 69.5623C83.625 71.0623 83.8125 72.5622 84.75 74.0622C85.125 73.8747 85.1251 74.0623 85.1251 74.2498Z" fill="#F9D8AD"/>
<path d="M75.5625 74.4375C75.1875 75 67.6875 85.3125 62.4375 98.8125C62.25 99 62.25 99.375 62.0625 99.5625C62.25 98.8125 62.4375 98.4375 62.4375 98.4375C62.4375 98.4375 40.6875 103.5 36.1875 102C31.6875 100.5 20.25 90.1875 20.25 90.1875C20.625 89.8125 21 89.25 21.1875 88.875C24.1875 84.1875 22.5001 79.5 22.3126 78.75C22.5001 79.125 24.9376 83.0625 24.1876 89.4375C24.1876 89.4375 34.5 97.875 37.5 99.1875C40.5 100.5 62.0625 92.625 62.0625 92.625C62.0625 92.625 66.9375 83.4375 75.5625 74.4375Z" fill="#E8B374"/>
<path d="M111.938 67.6875L105.563 67.5L103.875 52.125C105.563 49.875 106.875 46.875 104.625 45C102.375 43.125 101.25 44.8125 101.25 44.8125C101.25 44.8125 99.9376 46.6875 97.5001 46.3125L96.0001 54.1875L94.6876 43.875C93.5626 42.1875 93 40.125 93 40.125H79.3125C74.0625 24.375 94.3125 25.125 94.3125 25.125C94.5 25.125 94.6875 25.125 94.875 24.9375C115.125 21.375 114 45.5625 114 45.5625C114.375 46.3125 114.75 47.0625 115.125 47.8125C122.25 63.5625 111.938 67.6875 111.938 67.6875Z" fill="#231F20"/>
<path d="M111.937 67.6875L105.562 67.5L103.875 52.125C105.562 49.875 106.875 46.875 104.625 45C102.375 43.125 101.25 44.8125 101.25 44.8125C91.6874 39 94.6874 25.6875 94.6874 25.6875C94.6874 25.6875 94.875 25.5 95.0625 25.3125C115.312 21.75 114.187 45.9375 114.187 45.9375C114.562 46.6875 114.937 47.4375 115.312 48.1875C122.25 63.5625 111.937 67.6875 111.937 67.6875Z" fill="#111010"/>
<path d="M16.6875 73.3125L6.74993 63.9375L0.562447 61.3125C0.562447 61.3125 -0.562484 64.3125 0.750016 65.625C0.750016 65.625 -0.375076 66.1875 0.187424 67.875C0.187424 67.875 -1.50001 69 -0.562507 71.25C0.374993 73.5 4.12492 76.5 8.62493 78.1875C13.1249 79.875 18.1875 81.75 18.1875 81.75L16.6875 73.3125Z" fill="#F05E2B"/>
<path d="M21.3751 88.6875L15.5625 81L16.5 73.5L22.3126 78.5625C22.8751 78.9375 24.5626 83.8125 21.3751 88.6875Z" fill="#28878D"/>
<path d="M117 77.6248C111.938 74.4373 107.625 73.3123 104.25 72.9373C100.5 72.3748 98.4375 72.9373 98.4375 72.9373L96.375 77.0623C89.25 79.6873 84.75 87.3748 83.625 98.6248C83.0625 105 83.4375 112.125 84.9375 120.187C86.4375 127.875 87.375 134.625 88.125 139.687C89.4375 149.625 89.625 155.062 89.625 155.062H85.125C85.125 155.062 81.75 155.062 80.625 157.875C79.5 160.875 77.8125 163.687 67.5 163.125C60.5625 162.75 56.8125 160.5 55.3125 159C54.5625 158.437 54.375 157.875 54.375 157.875C54.375 155.25 54.375 152.812 54.5625 150.375C57.375 105 84.9375 74.2498 84.9375 74.2498C84.75 74.0623 84.75 74.0623 84.5625 73.8748C83.625 72.5623 83.25 70.8748 83.8125 69.3748C84.375 67.1248 86.4375 65.2498 89.0625 65.2498H89.25C89.25 65.6248 89.25 65.8123 89.4375 66.1873C89.4375 66.5623 89.4375 66.9373 89.4375 67.1248C89.4375 67.4998 89.4375 67.6873 89.4375 67.8748C89.4375 68.2498 89.4375 68.8123 89.4375 69.1873C89.4375 69.3748 89.4375 69.5623 89.4375 69.7498C89.4375 69.9373 89.4375 69.9373 89.4375 70.1248C89.4375 70.6873 89.4375 71.0623 89.4375 71.4373C89.4375 71.6248 89.4375 71.8123 89.4375 71.9998V72.1873C89.4375 72.3748 89.4375 72.5623 89.4375 72.7498V72.9373C89.4375 73.1248 89.4375 73.1248 89.4375 73.3123C89.4375 73.4998 89.4375 73.4998 89.4375 73.6873V73.8748C89.4375 74.2498 89.25 74.4373 89.25 74.4373C89.4375 74.2498 89.625 74.0623 89.8125 73.8748C90 73.6873 90.1875 73.6873 90.1875 73.4998C90.375 73.3123 90.75 73.1248 90.9375 72.9373C91.125 72.7498 91.3125 72.5623 91.5 72.5623C91.6875 72.3748 92.0625 72.1873 92.25 71.9998C92.4375 71.8123 92.8125 71.6248 93 71.4373C93.1875 71.2498 93.375 71.2498 93.75 71.0623C93.75 71.0623 93.9375 71.0623 93.9375 70.8748C94.125 70.6873 94.3125 70.6873 94.5 70.4998C94.6875 70.3123 94.875 70.3123 95.0625 70.1248C95.25 69.9373 95.4375 69.9373 95.8125 69.7498C96 69.7498 96 69.5623 96.1875 69.5623C96.5625 69.3748 96.75 69.3748 97.125 69.1873C97.5 68.9998 97.875 68.8123 98.4375 68.8123H98.625C98.8125 68.8123 99.1875 68.6248 99.375 68.6248C99.5625 68.6248 99.5625 68.6248 99.75 68.4373C100.5 68.2498 101.063 68.0623 101.625 67.8748C101.813 67.8748 102 67.8748 102 67.6873C102.188 67.6873 102.375 67.6873 102.563 67.4998C104.625 67.1248 105.938 67.1248 105.938 67.1248L112.313 67.3123L117 77.6248Z" fill="#4C9CA3"/>
<path d="M115.5 48.1873C113.625 49.3123 110.25 50.2497 110.25 50.2497L109.5 47.8122C113.25 46.8747 114.188 46.1248 114.188 46.1248C114.75 46.6873 115.125 47.4373 115.5 48.1873Z" fill="#DD2641"/>
<path d="M121.875 144L124.5 151.5L108.937 171.75L96.1874 165.375V161.812C96.1874 161.812 91.8749 162 89.9999 157.312C89.6249 156.562 89.4374 155.437 89.2499 154.312C89.2499 154.312 89.25 152.625 88.875 149.25C88.875 148.687 88.8749 148.125 88.6874 147.562C88.4999 145.312 88.1249 142.312 87.7499 139.125C86.9999 133.875 86.0624 127.312 84.5624 119.625C84.5624 119.437 84.5624 119.062 84.3749 118.875C84.1874 118.312 84.1874 117.75 83.9999 117C80.6249 95.6249 85.1249 80.2499 95.8124 76.3124L97.875 72.1874C97.875 72.1874 105.375 70.3124 116.25 76.8749L123.75 81.5624C123.75 81.5624 125.812 88.1249 120.375 92.6249C120.375 92.6249 137.437 120.937 137.625 125.437C138.937 130.5 121.875 144 121.875 144Z" fill="#F9D8AD"/>
<path d="M27.1875 99.375L16.6876 97.875C16.6876 97.875 -0.749969 70.875 -7.12497 34.5L1.68755 27.9375C1.68755 27.9375 9.18746 66.1875 21.75 88.6875L27.1875 99.375Z" fill="#454556"/>
<path d="M21.9375 88.4998C7.50003 66.9372 0.375031 34.6872 0.375031 34.6872L-7.12497 34.4997L1.68755 27.9372C1.87505 27.7497 9.37503 65.8122 21.9375 88.4998Z" fill="#C0A1D1"/>
<path d="M103.875 52.5L105.562 67.875C105.562 67.875 104.25 67.875 102.187 68.25C98.6249 68.8125 93.375 70.5 88.875 74.625C88.875 74.625 89.9999 70.5 89.2499 65.4375C89.2499 64.6875 89.0625 64.125 88.875 63.375C88.875 63.1875 88.6874 62.8125 88.6874 62.625C88.6874 62.625 87.375 63.1875 85.6875 63C82.125 62.625 77.2499 59.25 79.3124 40.6875H92.9999C92.9999 40.6875 93.5624 42.75 94.6874 44.4375L96 54.75L97.4999 46.875C99.9374 47.25 101.25 45.375 101.25 45.375C101.25 45.375 102.375 43.6875 104.625 45.5625C106.875 47.25 105.75 50.4375 103.875 52.5Z" fill="#FF8F6A"/>
<path d="M103.875 52.5C100.313 54.9375 98.0625 53.25 98.0625 53.25C100.875 53.4375 105 51 104.438 48C104.063 45.9375 102.562 45.375 101.437 45.1875C101.25 45.375 101.25 45.375 101.25 45.375C101.25 45.375 99.9375 47.25 97.5 46.875L96 54.75L94.6875 44.4375V56.625C94.6875 56.625 92.0625 61.875 85.875 63C87.5625 63.1875 88.8751 62.625 88.8751 62.625C88.8751 62.8125 89.0625 63.1875 89.0625 63.375C91.3125 62.8125 93.75 61.5 96.75 58.875L98.0625 67.6875C98.0625 67.6875 91.5 70.6875 89.0625 74.625C93.5625 70.3125 98.8125 68.8125 102.375 68.25C104.437 67.875 105.75 67.875 105.75 67.875L103.875 52.5Z" fill="#F05E2B"/>
<path d="M89.625 69.1873C89.625 69.3748 89.625 69.5623 89.625 69.7498C89.625 69.9373 89.625 69.9373 89.625 70.1248C89.625 70.6873 89.625 71.0623 89.625 71.4373C89.625 71.6248 89.625 71.8123 89.625 71.9998V72.1873C89.625 72.3748 89.625 72.5623 89.625 72.7498V72.9373C89.625 73.1248 89.625 73.1248 89.625 73.3123C89.625 73.4998 89.625 73.4998 89.625 73.6873V73.8748C89.625 74.2498 89.4376 74.4373 89.4376 74.4373C89.4376 74.4373 85.6875 72.7498 85.875 69.1873C86.25 65.4373 89.625 65.2498 89.625 65.2498C89.625 65.6248 89.6251 65.8123 89.8126 66.1873C89.8126 66.5623 89.8126 66.9373 89.8126 67.1248C89.8126 67.4998 89.8126 67.6873 89.8126 67.8748C89.6251 68.4373 89.625 68.8123 89.625 69.1873Z" fill="#28878D"/>
<path d="M85.1251 119.25C73.6876 116.437 67.125 113.625 63.375 111.75C63.5625 111.187 63.75 110.625 63.9375 110.25C67.3125 112.125 73.5 114.75 84.75 117.375C84.9375 118.125 84.9376 118.687 85.1251 119.25Z" fill="#28878D"/>
<path d="M117 77.625C111.938 74.4375 107.625 73.3125 104.25 72.9375L103.125 69.9375C96.5625 69.1875 89.4375 74.4375 88.875 74.625C89.0625 74.4375 89.25 74.25 89.4375 74.0625C89.625 73.875 89.8125 73.875 89.8125 73.6875C90 73.5 90.375 73.3125 90.5625 73.125C90.75 72.9375 90.9374 72.75 91.1249 72.75C91.3124 72.5625 91.6875 72.375 91.875 72.1875C92.0625 72 92.4375 71.8125 92.625 71.625C92.8125 71.4375 93 71.4375 93.375 71.25C93.375 71.25 93.5625 71.25 93.5625 71.0625C93.75 70.875 93.9375 70.875 94.125 70.6875C94.3125 70.5 94.5 70.5 94.6875 70.3125C94.875 70.125 95.0625 70.125 95.4375 69.9375C95.625 69.9375 95.6249 69.75 95.8124 69.75C96.1874 69.5625 96.3749 69.5625 96.7499 69.375C97.1249 69.1875 97.5 69 98.0625 69H98.25C98.4375 69 98.8125 68.8125 99 68.8125C99.1875 68.8125 99.1875 68.8125 99.375 68.625C100.125 68.4375 100.687 68.25 101.25 68.0625C101.437 68.0625 101.625 68.0625 101.625 67.875C101.813 67.875 102 67.875 102.187 67.6875C104.25 67.3125 105.562 67.3125 105.562 67.3125L111.938 67.5L117 77.625Z" fill="#28878D"/>
<path d="M89.625 154.687H85.1251L83.625 142.5L66.1875 153C66.5625 152.625 76.125 143.813 80.8125 138.938C85.5 134.25 83.2501 129.75 83.2501 129.75L68.0625 139.688L83.8125 124.5C82.3125 111.562 83.0625 103.312 83.8125 98.25C83.25 104.625 83.6251 111.75 85.1251 119.812C86.6251 127.5 87.5625 134.25 88.3125 139.312C89.4375 149.437 89.625 154.687 89.625 154.687Z" fill="#28878D"/>
<path d="M118.875 126C119.438 128.625 98.8125 143.438 98.8125 143.438L97.3125 146.813L89.25 149.813C89.25 149.25 89.25 148.688 89.0625 148.125C94.875 142.875 106.312 132.938 106.125 132C105.937 130.875 102.188 98.6251 102.188 98.6251C101.812 87.3751 113.062 88.8751 113.062 88.8751C104.062 88.5001 102.937 97.6876 105.562 102.563C108.187 107.063 118.313 123.188 118.875 126Z" fill="#E8B374"/>
<path d="M120.937 93.3748C116.812 73.3123 96.375 76.6874 96.375 76.6874L98.4375 72.5624C98.4375 72.5624 105.937 70.6874 116.812 77.2499L124.312 81.9374C124.312 82.3124 126.375 89.0623 120.937 93.3748Z" fill="#28878D"/>
</g>
</svg>
