<svg width="514" height="401" viewBox="0 0 514 401" fill="none" xmlns="http://www.w3.org/2000/svg">
<path d="M165.363 378.571V395.662H130.88V378.571C130.88 374.773 132.28 371.074 134.279 368.376C135.978 366.377 137.677 364.578 140.076 363.278C142.474 361.879 145.173 361.279 147.972 361.279C152.769 361.279 157.167 363.278 160.266 366.377C163.364 369.675 165.363 373.773 165.363 378.571Z" fill="#4C9CA3"/>
<path d="M133.979 373.473C133.979 373.473 118.986 352.984 128.481 334.893C128.481 334.893 144.573 345.787 143.174 367.676L133.979 373.473Z" fill="#4C9CA3"/>
<path d="M140.076 363.278C137.677 364.678 135.678 366.377 134.279 368.376C131.58 362.879 125.783 349.285 129.881 340.39C129.881 340.39 138.376 346.887 140.076 363.278Z" fill="#F73C4F"/>
<path d="M161.965 373.473C161.965 373.473 176.957 352.984 167.462 334.893C167.462 334.893 151.37 345.787 152.769 367.676L161.965 373.473Z" fill="#4C9CA3"/>
<path d="M155.868 363.278C158.267 364.678 160.266 366.377 161.665 368.376C164.364 362.879 170.161 349.285 166.063 340.39C166.063 340.39 157.567 346.887 155.868 363.278Z" fill="#F73C4F"/>
<path d="M153.069 380.67C153.069 380.97 153.069 381.369 153.069 382.069C149.971 381.369 146.572 381.069 143.474 380.67C143.474 377.971 145.873 375.872 148.272 375.872C151.07 375.872 153.069 377.871 153.069 380.67Z" fill="#FF8F6A"/>
<path d="M154.469 375.472C155.407 375.472 156.168 374.712 156.168 373.773C156.168 372.835 155.407 372.074 154.469 372.074C153.53 372.074 152.769 372.835 152.769 373.773C152.769 374.712 153.53 375.472 154.469 375.472Z" fill="#111010"/>
<path d="M143.874 373.473C143.874 374.473 143.174 375.172 142.175 375.172C141.175 375.172 140.475 374.473 140.475 373.473C140.475 372.474 141.175 371.774 142.175 371.774C143.174 371.774 143.874 372.774 143.874 373.473Z" fill="#111010"/>
<path d="M133.279 372.474L126.482 375.472L129.581 376.172L126.482 377.871L131.58 379.27L133.279 372.474Z" fill="#4C9CA3"/>
<path d="M162.265 372.474L168.761 375.472L165.763 376.172L168.761 377.871L163.664 379.27L162.265 372.474Z" fill="#4C9CA3"/>
<path d="M420.735 330.095L466.513 400.06H474.009L425.933 326.697L420.735 330.095Z" fill="#323244"/>
<path d="M474.409 330.095L434.728 400.06H426.233L469.911 326.397L474.409 330.095Z" fill="#323244"/>
<path d="M215.538 330.095L261.315 400.06H268.811L221.035 326.697L215.538 330.095Z" fill="#454556"/>
<path d="M269.511 330.095L229.531 400.06H221.335L264.713 326.397L269.511 330.095Z" fill="#454556"/>
<path d="M469.611 280.62V318.201H456.617V272.424L469.611 280.62Z" fill="#F4A422"/>
<path d="M260.616 280.62V318.201H247.622V272.424L260.616 280.62Z" fill="#F4A422"/>
<path d="M403.744 399.76C403.744 399.76 402.744 355.682 411.24 338.691C411.24 338.691 392.15 348.286 402.045 399.76H403.744Z" fill="#323244"/>
<path d="M407.842 399.061C407.842 399.061 411.64 378.571 418.736 370.375C418.736 370.375 403.744 375.172 405.743 399.36L407.842 399.061Z" fill="#323244"/>
<path d="M399.646 399.061C399.646 399.061 389.751 374.473 391.15 359.78C391.15 359.78 381.555 374.473 397.947 399.36L399.646 399.061Z" fill="#323244"/>
<path d="M474.708 222.549H235.028V280.62H474.708V222.549Z" fill="#FCBD4B"/>
<path d="M474.708 318.201H214.239V330.495H474.708V318.201Z" fill="#FCBD4B"/>
<path d="M474.708 318.201H420.735V330.495H474.708V318.201Z" fill="#F4A422"/>
<path d="M474.309 222.549H463.414V280.62H474.309V222.549Z" fill="#F4A422"/>
<path d="M463.414 280.62H235.028V222.549H311.19L463.414 280.62Z" fill="#F4A422"/>
<path d="M29.531 398.761C29.531 398.761 45.2232 380.67 82.8044 391.264C120.386 401.459 129.281 360.18 171.56 388.566C213.939 416.952 248.721 372.874 333.079 398.461C333.079 398.461 390.051 389.565 415.038 398.761C415.038 398.761 458.417 392.964 475.808 398.461L29.531 398.761Z" fill="#F9D8AD"/>
<path d="M39.726 398.761C39.726 398.761 51.72 389.166 62.2147 399.061L39.726 398.761Z" fill="#FF8F6A"/>
<path d="M116.887 399.76C116.887 399.76 118.886 319.2 102.894 287.816C102.894 287.816 138.077 305.607 119.986 399.76H116.887Z" fill="#454556"/>
<path d="M109.691 398.361C109.691 398.361 102.894 361.179 89.501 345.787C89.501 345.787 117.187 354.283 113.089 398.661L109.691 398.361Z" fill="#454556"/>
<path d="M124.783 399.061C124.783 399.061 143.174 354.383 140.475 326.697C140.475 326.697 157.867 353.283 128.182 399.061H124.783Z" fill="#454556"/>
<path d="M150.071 399.061L168.761 392.264L180.755 399.061H150.071Z" fill="#FF8F6A"/>
<path d="M68.4115 399.46C68.4115 399.46 75.6079 386.867 101.495 382.769C127.082 378.671 147.572 399.16 147.572 399.16L68.4115 399.46Z" fill="#FF8F6A"/>
<path d="M306.692 399.061L286.202 377.571L276.008 380.27L256.218 349.585H254.518H249.021C244.923 349.585 241.525 351.984 239.826 355.682L226.532 368.976L224.533 373.074L205.743 380.27L201.645 388.766L176.058 398.961L212.539 397.561L212.24 398.561L306.692 399.061Z" fill="#FF8F6A"/>
<path d="M306.692 399.061L212.439 399.36L226.732 369.675L240.026 356.382C241.725 352.584 245.123 350.285 249.221 350.285H254.718L267.712 380.67H275.908L286.103 377.971L283.704 384.068L306.692 399.061Z" fill="#F05E2B"/>
<path d="M450.121 376.572C454.481 376.572 458.017 372.276 458.017 366.977C458.017 361.677 454.481 357.381 450.121 357.381C445.76 357.381 442.225 361.677 442.225 366.977C442.225 372.276 445.76 376.572 450.121 376.572Z" fill="#323244"/>
<path d="M507.192 319.2L506.493 324.698L506.093 326.697L496.897 398.761H446.722L442.624 367.376L439.926 346.887L436.427 319.2H507.192Z" fill="#F73C4F"/>
<path d="M506.493 324.698L506.193 326.697L496.997 398.761H480.905V322.299C491.8 320.6 499.996 321.599 506.493 324.698Z" fill="#DD2641"/>
<path d="M513.289 311.304H430.331V319.2H513.289V311.304Z" fill="#F73C4F"/>
<path d="M507.192 319.2L506.093 326.697L436.427 319.2H507.192Z" fill="#323244"/>
<path d="M513.289 311.304V319.2H473.709L464.513 311.304H513.289Z" fill="#DD2641"/>
<path d="M466.213 355.682C466.213 363.878 459.716 370.375 451.52 370.375C448.122 370.375 445.023 369.375 442.624 367.276L439.926 346.787C442.624 343.388 446.722 340.99 451.52 340.99C459.716 341.389 466.213 347.886 466.213 355.682Z" fill="#FCBD4B"/>
<path d="M313.889 399.46L329.581 387.766L345.673 380.97L361.365 398.361L313.889 399.46Z" fill="#F05E2B"/>
<path d="M510.59 400.06H2.24466C1.54501 400.06 0.845337 399.36 0.845337 398.661C0.845337 397.961 1.54501 397.261 2.24466 397.261H510.191C510.89 397.261 511.59 397.961 511.59 398.661C511.59 399.76 511.29 400.06 510.59 400.06Z" fill="#F9D8AD"/>
<path d="M183.154 397.361C183.154 397.361 183.154 397.761 183.154 397.361C183.154 397.761 183.154 397.761 183.154 397.361L255.518 397.661C255.518 395.662 255.518 393.863 255.518 392.164C255.518 391.864 255.518 391.464 255.518 390.765C255.518 389.765 255.218 388.766 255.218 387.666V387.366C255.218 386.667 255.218 385.967 254.918 385.667C254.618 384.268 254.619 383.268 254.219 382.269C252.819 376.472 251.12 374.073 251.12 374.073C242.924 380.87 235.428 378.871 231.33 376.772H231.03C229.031 375.772 227.632 374.373 227.632 374.373L228.632 371.974L225.933 367.176L225.233 365.777L201.645 379.47C192.05 379.47 187.652 383.568 185.253 387.966C183.854 391.065 183.554 394.063 183.554 395.862C183.154 396.662 183.154 397.062 183.154 397.361Z" fill="#323244"/>
<path d="M251.12 363.578V374.473C238.827 385.068 227.532 374.773 227.532 374.773L228.532 372.374L225.833 367.576C227.232 366.177 227.532 364.878 227.832 363.778H251.02V363.578H251.12Z" fill="#DDCAE6"/>
<path d="M218.965 366.424L217.24 367.433L220.317 372.696L222.043 371.687L218.965 366.424Z" fill="#DDCAE6"/>
<path d="M215.761 368.389L214.035 369.397L217.111 374.662L218.837 373.653L215.761 368.389Z" fill="#DDCAE6"/>
<path d="M212.662 370.193L210.936 371.201L214.012 376.465L215.738 375.457L212.662 370.193Z" fill="#DDCAE6"/>
<path d="M209.348 372.398L207.623 373.407L210.699 378.671L212.425 377.662L209.348 372.398Z" fill="#DDCAE6"/>
<path d="M205.851 374.065L204.125 375.074L207.202 380.338L208.928 379.329L205.851 374.065Z" fill="#DDCAE6"/>
<path d="M202.825 376.071L201.099 377.08L204.176 382.344L205.902 381.335L202.825 376.071Z" fill="#DDCAE6"/>
<path d="M230.93 376.872L206.343 385.068L227.532 374.473C227.532 374.873 228.931 375.872 230.93 376.872Z" fill="#DDCAE6"/>
<path d="M183.154 395.962C183.154 396.662 183.154 397.361 183.154 397.361H255.518C255.518 395.362 255.518 393.563 255.518 391.864C255.518 391.564 255.518 391.164 255.518 390.465C255.518 389.465 255.218 388.466 255.218 387.366H185.253C183.454 390.865 183.154 393.963 183.154 395.962Z" fill="#DDCAE6"/>
<path d="M302.595 384.768L270.91 383.668L272.909 362.179H300.896L302.595 384.768Z" fill="#DDCAE6"/>
<path d="M304.993 387.766V397.661H270.211V387.766C270.211 386.367 270.211 385.367 270.51 383.968C270.81 382.569 271.21 381.269 271.91 380.17C274.608 374.373 280.805 370.275 287.602 370.275C292.4 370.275 296.797 372.274 299.896 375.372C301.295 376.772 302.594 378.471 303.294 380.47C303.594 381.469 304.294 382.869 304.294 383.868C304.693 385.467 304.993 386.467 304.993 387.766Z" fill="#323244"/>
<path d="M304.993 388.866H270.211V397.361H304.993V388.866Z" fill="#DDCAE6"/>
<path d="M280.406 47.4364C279.406 53.5333 277.007 55.9321 277.007 55.9321C277.007 55.9321 276.708 56.232 276.308 56.6318C275.608 57.3314 274.609 58.6308 272.909 60.0301C270.211 62.4289 265.713 65.1275 259.916 66.127C259.616 66.127 258.916 66.127 258.517 66.4269C257.817 66.4269 257.117 66.4269 256.518 66.4269C254.818 66.4269 253.419 66.4269 252.42 66.127C250.721 65.8272 249.321 65.1275 248.322 64.7277C248.022 64.4279 247.622 64.4279 247.322 64.0281C246.323 63.3284 245.623 62.6288 245.323 62.3289C245.023 62.0291 245.023 61.6293 245.023 61.6293C240.925 59.9301 237.827 57.2315 235.128 53.7332C229.631 45.8372 227.632 34.6428 228.632 26.0471C230.331 13.7532 237.127 3.15852 248.422 0.759721C249.821 0.459871 251.52 0.459859 252.819 0.0600586C255.918 0.0600586 258.916 0.0600708 261.715 0.759721C268.212 1.75922 273.709 6.55682 275.708 12.7537C277.707 18.8507 280.106 27.0466 280.806 34.9426C281.105 40.6398 281.105 44.3379 280.406 47.4364Z" fill="#DDCAE6"/>
<path d="M252.42 64.8277C249.021 64.8277 246.623 62.4289 245.623 60.7297C237.127 58.7307 230.231 47.4364 229.531 33.7432C228.831 18.3509 236.328 5.35742 246.623 4.75772C250.721 4.75772 254.519 6.45686 257.517 9.55531C260.616 12.6538 263.014 17.4514 264.714 22.8487C265.413 25.5473 266.113 28.6458 266.113 31.7442C266.113 32.4439 266.113 32.7437 266.113 33.4434V33.7432C266.813 54.9326 252.42 64.5278 252.42 64.8277Z" fill="#C0A1D1"/>
<path d="M261.715 53.5333C261.715 53.8331 261.415 53.8332 261.415 54.233C257.617 61.4294 252.52 64.8276 252.22 64.8276L246.723 57.3314C246.723 57.3314 246.023 57.3314 245.323 57.0315C243.324 56.032 239.226 52.9336 237.827 42.3389C237.827 41.6392 237.827 40.9396 237.527 40.6398C237.527 39.2405 237.227 37.9411 237.227 36.5418C237.227 35.5423 237.227 34.143 237.227 32.7437C237.227 30.7447 237.227 28.9456 237.527 27.2465C238.227 22.149 240.226 18.3509 242.625 15.9521C249.121 9.45533 259.316 11.5543 264.514 23.4483C265.213 26.147 265.913 29.2454 265.913 32.3439C265.913 33.0435 265.913 33.7432 265.913 34.3429C266.113 42.3389 264.414 48.7357 261.715 53.5333Z" fill="#FF8F6A"/>
<path d="M264.413 22.8486C257.217 6.15699 240.525 8.55581 237.427 26.6468C237.427 26.9466 237.427 26.9466 237.427 27.3464C237.427 27.7462 237.427 27.6463 237.427 28.0461C237.427 28.4459 237.427 28.3459 237.427 28.7457C237.427 29.1455 237.427 29.0456 237.427 29.4454V29.7452C237.427 30.0451 237.427 30.4449 237.427 30.4449C237.427 30.7447 237.427 30.7447 237.427 31.1445C237.427 31.5443 237.427 31.4443 237.427 31.8442C237.427 32.2439 237.427 32.144 237.427 32.5438C237.427 33.9431 237.427 35.2425 237.427 36.3419C237.127 33.9431 237.127 31.5443 237.127 28.4459C237.127 28.146 237.127 28.146 237.127 27.7462C237.427 10.3549 248.721 3.45836 257.617 9.65526C260.316 12.9536 263.014 17.3514 264.413 22.8486Z" fill="#1F1F35"/>
<path d="M290.7 198.661H214.539C214.539 198.661 236.428 89.4154 238.127 78.121C239.826 66.5268 244.624 62.0291 244.624 62.0291C244.624 62.0291 244.624 62.3289 244.923 62.7287C245.223 63.0286 245.923 63.7282 246.922 64.4279C247.222 64.7277 247.622 64.7277 247.922 65.1275C249.921 66.127 252.32 66.8267 256.118 66.8267C256.818 66.8267 257.517 66.8267 258.117 66.8267C258.417 66.8267 259.116 66.8267 259.516 66.5268C264.314 65.8272 267.712 63.8282 270.81 62.129C271.51 61.8292 272.21 61.1295 272.809 60.7297C274.509 59.3304 275.908 58.0311 276.208 57.3314L277.207 69.9251C259.116 100.31 273.809 153.583 283.304 181.269C285.003 186.067 286.702 190.165 287.702 193.263C289.701 196.262 290.7 198.361 290.7 198.661Z" fill="#DDCAE6"/>
<path d="M317.987 196.262C317.987 196.262 331.68 220.15 323.784 244.738H300.895C300.895 244.738 301.595 236.842 297.797 221.15C296.397 215.053 293.999 207.456 291 198.661C291 198.361 290.001 196.262 288.601 192.564C287.902 190.865 287.202 189.166 286.602 187.067C285.903 185.068 285.203 182.969 284.203 180.57C274.308 152.884 259.916 99.6103 278.107 69.2255L277.107 56.6318C277.407 56.332 277.807 55.9321 277.807 55.9321C277.807 55.9321 280.205 53.2335 281.205 47.4364C282.904 48.8357 287.002 52.5339 290.101 57.6313C290.101 57.6313 292.5 58.3309 295.898 60.3299C296.198 60.6298 296.897 61.0296 297.297 61.0296C311.59 69.2255 321.885 82.9187 326.283 98.6108C331.28 121.2 337.077 147.087 317.987 196.262Z" fill="#4C9CA3"/>
<path d="M302.994 364.578H268.811L258.617 272.724L250.421 288.416L254.219 364.178H220.735L208.741 285.018L211.44 241.339L214.139 198.661H290.301C293.399 207.157 295.798 214.753 297.097 221.15C300.895 236.842 300.196 244.738 300.196 244.738L302.994 364.578Z" fill="#323244"/>
<path d="M250.72 288.416L254.518 364.578H251.42L243.224 288.116L250.021 254.333L238.427 231.444L256.517 252.634L258.616 272.724L250.72 288.416Z" fill="#1F1F35"/>
<path d="M244.624 62.129C244.624 62.129 239.826 66.9266 238.127 78.221C236.428 89.8152 214.538 198.761 214.538 198.761L211.84 241.439H187.552L208.342 122.599C208.342 122.599 198.746 128.396 189.951 124.598C181.055 120.8 184.853 87.4164 209.441 60.0301V59.7302C209.741 59.4304 210.141 59.0306 210.441 59.0306C210.441 59.0306 212.14 58.7307 214.239 59.0306C214.938 59.0306 215.938 59.3304 216.638 59.7302H216.937C217.937 60.0301 219.336 60.7297 220.336 61.1295C221.335 61.4294 222.035 62.129 223.034 62.8287C224.434 61.4294 229.131 57.3314 234.629 54.3329C236.028 56.3319 237.727 58.131 239.726 59.8302C241.525 60.4299 242.924 61.4294 244.624 62.129Z" fill="#4C9CA3"/>
<path d="M228.232 69.2255C227.932 70.225 226.532 70.6248 224.833 70.225C222.834 70.225 220.036 69.2255 216.937 67.8262C214.538 66.8267 212.839 65.1275 211.44 64.0281C209.741 62.3289 209.041 60.6298 209.441 59.6303C209.741 58.9306 210.441 58.6308 211.14 58.6308C213.139 58.3309 216.937 59.3304 220.735 61.0296C224.533 63.0286 226.832 65.4274 227.932 67.1265C228.232 68.226 228.232 68.9256 228.232 69.2255Z" fill="#1F1F35"/>
<path d="M233.329 58.0311C233.329 58.0311 230.93 63.1286 227.832 67.2265C226.832 68.6258 225.833 69.6253 224.734 70.3249C222.735 70.3249 219.936 69.3254 216.837 67.9261C214.439 66.9266 212.739 65.2275 211.34 64.1281C211.34 62.7288 211.04 60.7298 211.04 58.6308C211.04 56.9317 211.04 55.5323 211.04 54.5328C211.34 51.4344 215.138 47.7363 215.138 47.7363H217.137C217.137 47.7363 222.235 39.5403 223.634 38.141C224.334 37.4414 227.032 37.8412 229.131 38.4409C230.531 38.7407 231.83 39.4404 232.23 40.14C233.229 41.8392 234.229 45.2375 233.929 46.237C233.629 46.5369 232.929 46.9366 231.93 46.5368C230.93 46.237 229.531 45.1375 228.831 43.4384L226.433 42.4389C225.733 43.4384 225.433 44.4379 225.433 45.5373V45.8372C225.433 45.8372 227.132 46.5368 228.532 47.8362C229.231 48.5358 229.531 48.8357 229.931 49.5353L230.231 50.9346V51.6343L235.028 44.8377L235.728 44.138C236.028 44.3379 241.225 49.1355 233.329 58.0311Z" fill="#FF8F6A"/>
<path d="M303.294 87.7162C303.294 87.7162 307.692 113.703 304.693 138.591C302.295 157.381 293.099 182.269 288.302 192.564C287.602 190.865 286.902 189.166 286.303 187.067C315.688 128.296 295.898 72.0241 295.898 72.0241C299.696 77.8212 301.695 87.7162 301.695 87.7162C305.093 77.1215 310.891 73.7232 310.891 73.7232C306.393 77.1215 303.294 87.7162 303.294 87.7162Z" fill="#28878D"/>
<path d="M222.735 77.4214L208.442 122.499C208.442 122.499 198.846 128.296 190.051 124.498C204.643 125.897 222.435 78.1211 222.735 77.4214Z" fill="#28878D"/>
<path d="M290.7 198.661H283.904C267.212 148.786 265.513 116.702 267.212 98.311C268.911 79.5203 273.709 70.6248 273.709 70.6248L271.01 61.7293C271.71 61.4294 272.409 60.7297 273.009 60.3299C274.708 58.9306 276.108 57.6313 276.408 56.9316L277.407 69.5254C259.316 99.9102 274.009 153.184 283.504 180.87C287.602 191.464 290.7 198.361 290.7 198.661Z" fill="#C0A1D1"/>
<path d="M276.308 195.262L233.629 198.661H214.539C214.539 198.661 236.428 89.4154 238.127 78.121C239.826 66.5268 244.624 62.0291 244.624 62.0291C244.624 62.0291 244.624 62.3289 244.923 62.7287C245.223 63.0286 245.923 63.7282 246.922 64.4279C246.922 64.7277 251.02 72.6238 264.014 70.9246C264.014 70.9246 253.119 74.0231 241.125 69.5253L231.93 195.462H276.308V195.262Z" fill="#C0A1D1"/>
<path d="M246.322 114.703C245.623 114.703 245.323 114.403 245.323 113.703V62.129C246.322 62.129 247.322 62.8286 247.322 64.128V114.003C247.322 114.303 246.622 114.703 246.322 114.703Z" fill="#C0A1D1"/>
<path d="M231.23 198.661L211.84 241.339L214.538 198.661H231.23Z" fill="#1F1F35"/>
<path d="M261.715 53.5334C261.715 53.8332 261.415 53.8332 261.415 54.233C257.617 61.4294 252.52 64.8277 252.22 64.8277L246.723 57.3314C246.723 57.3314 246.023 57.3315 245.323 57.0316C243.324 56.0321 239.226 52.9336 237.827 42.3389C237.827 41.6393 237.827 40.9397 237.527 40.6398C237.527 39.2405 237.227 37.9411 237.227 36.5418C237.227 35.5423 237.227 34.1431 237.227 32.7438C237.227 30.7448 237.227 28.9457 237.527 27.2465C238.227 22.1491 240.226 18.3509 242.625 15.9521V53.5334H261.715Z" fill="#F05E2B"/>
<path d="M261.315 54.233C258.617 55.9321 253.119 58.3309 246.623 56.9316C246.323 56.9316 245.623 56.6318 245.223 56.6318C242.824 55.6323 238.726 52.234 237.327 39.9401L243.124 35.5423H249.621L256.418 39.9401C256.418 39.9401 263.614 41.3394 266.013 33.8432C266.113 42.6388 264.014 49.4354 261.315 54.233Z" fill="#1F1F35"/>
<path d="M280.406 47.4364C279.406 53.5333 277.007 55.9322 277.007 55.9322C277.007 55.9322 276.707 56.232 276.308 56.6318C275.608 57.3315 274.608 58.6308 272.909 60.0301C270.211 62.4289 265.713 65.1276 259.916 66.1271C259.616 66.1271 258.916 66.1271 258.516 66.4269C257.817 66.4269 257.117 66.4269 256.517 66.4269C255.518 66.4269 254.518 66.4269 253.419 66.4269C252.719 66.4269 252.02 65.4274 252.419 64.7278C252.419 64.7278 274.908 63.7282 272.909 28.8457C271.51 8.05608 260.915 1.85918 252.719 0.459883C255.818 0.459883 258.816 0.459895 261.615 1.15955C268.112 2.15905 273.609 6.95665 275.608 13.1535C277.607 19.2505 280.006 27.4464 280.705 35.3424C281.105 40.6398 281.105 44.3379 280.406 47.4364Z" fill="#C0A1D1"/>
<path d="M257.617 114.703C256.917 114.703 256.617 114.403 256.617 113.703V62.129H258.616V113.703C258.616 114.303 258.217 114.703 257.617 114.703Z" fill="#C0A1D1"/>
<path d="M305.693 209.555L297.797 221.149C296.398 215.053 293.999 207.456 291 198.661C291 198.361 290.001 196.262 288.602 192.564L305.693 209.555Z" fill="#F05E2B"/>
<path d="M323.784 244.738H300.895C300.895 244.738 301.595 236.842 297.797 221.15L305.693 209.555C305.693 209.555 313.589 206.857 318.287 196.262C317.987 196.262 331.98 220.15 323.784 244.738Z" fill="#28878D"/>
<path d="M295.798 68.226L279.106 69.2255L292.4 65.4274C291.7 61.6293 289.701 57.2315 289.701 57.2315C289.701 57.2315 292.1 57.9311 295.498 59.9301C295.798 64.8277 295.798 68.226 295.798 68.226Z" fill="#28878D"/>
<path d="M302.994 364.578H296.497L292.4 242.039L276.707 199.061H290.7C293.799 207.556 296.198 215.153 297.497 221.549C301.295 237.241 300.595 245.138 300.595 245.138L302.994 364.578Z" fill="#1F1F35"/>
<path d="M232.33 46.7367C231.33 46.4369 229.931 45.3374 229.231 43.6383L226.832 42.6388C226.133 43.6383 225.833 44.6378 225.833 45.7372V46.0371C225.833 46.0371 227.532 46.7367 228.931 48.0361L227.932 48.3359L222.135 46.6368L225.533 40.8397L229.931 42.239L232.33 46.7367Z" fill="#F05E2B"/>
<path d="M233.329 58.0311C233.329 58.0311 230.93 63.1285 227.832 67.2265C226.832 68.6258 225.833 69.6253 224.733 70.3249C222.734 70.3249 219.936 69.3254 216.837 67.9261C214.439 66.9266 212.739 65.2275 211.34 64.128C221.235 70.9246 225.633 64.4279 225.633 64.4279C221.835 64.7277 219.836 57.6313 219.836 57.6313L215.038 56.232H219.836L217.437 52.8337C217.437 52.8337 220.535 55.5323 220.835 55.2325C221.535 54.9326 222.235 52.8337 222.235 52.8337C222.235 52.8337 222.235 53.5333 222.235 55.2325C222.235 56.6318 223.234 56.9316 223.234 56.9316C223.534 62.0291 225.933 63.0286 226.632 62.0291C227.332 61.0296 227.332 55.9321 227.332 55.9321L228.332 54.5328L228.631 59.3304C228.631 59.3304 231.33 60.3299 231.73 58.3309C232.03 56.3319 231.03 52.234 231.03 52.234L235.828 45.4374L236.527 44.7377C236.028 44.3379 241.225 49.1355 233.329 58.0311Z" fill="#F05E2B"/>
<path d="M237.427 40.24C237.427 38.8407 237.127 37.5413 237.127 36.142C236.828 33.7432 236.828 31.3444 236.828 28.246C236.828 27.9461 236.828 27.9461 236.828 27.5463L230.031 38.141C231.43 38.4409 232.73 39.1405 233.129 39.8402C234.129 41.5393 235.128 44.9376 234.829 45.9371C234.129 46.9366 231.03 46.237 229.731 42.8387L227.332 41.8392L227.032 42.5388C226.733 43.2385 226.333 43.5383 226.333 44.238V54.8327C226.333 56.232 228.032 56.5318 228.732 55.5323L236.228 44.238L238.227 41.1395C237.427 41.2395 237.427 40.6398 237.427 40.24Z" fill="#1F1F35"/>
<path d="M244.624 62.1291C244.624 62.1291 239.826 66.9267 238.127 78.221C236.428 89.8152 214.539 198.761 214.539 198.761L211.84 241.439H187.552L201.845 237.341L228.132 74.1231L240.126 59.4304C241.525 60.4299 242.924 61.4294 244.624 62.1291Z" fill="#28878D"/>
</svg>
