<svg width="150" height="122" viewBox="0 0 150 122" fill="none" xmlns="http://www.w3.org/2000/svg">
<path d="M48.0988 115.688V120.69H38.0033V115.688C38.0033 114.59 38.3998 113.492 39.0098 112.7C39.4978 112.09 40.0163 111.602 40.7178 111.205C41.4193 110.809 42.2123 110.595 43.0053 110.595C44.4083 110.595 45.7198 111.205 46.6043 112.09C47.4888 113.005 48.0988 114.285 48.0988 115.688Z" fill="#4C9CA3"/>
<path d="M38.8878 114.194C38.8878 114.194 34.4958 108.186 37.3018 102.91C37.3018 102.91 41.9988 106.112 41.6023 112.516L38.8878 114.194Z" fill="#4C9CA3"/>
<path d="M40.6874 111.205C39.9859 111.601 39.3759 112.12 38.9794 112.699C38.1864 111.113 36.4784 107.088 37.6679 104.495C37.7899 104.404 40.2909 106.295 40.6874 111.205Z" fill="#F73C4F"/>
<path d="M47.2143 114.194C47.2143 114.194 51.6063 108.186 48.8003 102.91C48.8003 102.91 44.1033 106.112 44.4998 112.516L47.2143 114.194Z" fill="#4C9CA3"/>
<path d="M45.4149 111.205C46.1164 111.601 46.7264 112.12 47.1229 112.699C47.9159 111.113 49.6239 107.088 48.4344 104.495C48.4039 104.404 45.8114 106.295 45.4149 111.205Z" fill="#F73C4F"/>
<path d="M44.5913 116.298C44.5913 116.39 44.5913 116.512 44.5913 116.695C43.6763 116.481 42.7003 116.39 41.7853 116.298C41.7853 115.505 42.4868 114.895 43.1883 114.895C43.8898 114.895 44.5913 115.505 44.5913 116.298Z" fill="#FF8F6A"/>
<path d="M45.4149 114.285C45.4149 114.59 45.2014 114.773 44.9269 114.773C44.6219 114.773 44.4388 114.56 44.4388 114.285C44.4388 114.011 44.6524 113.797 44.9269 113.797C45.2014 113.797 45.4149 114.011 45.4149 114.285Z" fill="#111010"/>
<path d="M41.8158 114.194C41.8158 114.499 41.6023 114.682 41.3278 114.682C41.0228 114.682 40.8398 114.468 40.8398 114.194C40.8398 113.919 41.0533 113.706 41.3278 113.706C41.6023 113.706 41.8158 113.889 41.8158 114.194Z" fill="#111010"/>
<path d="M38.7048 113.889L36.8137 114.712L37.6983 114.895L36.8137 115.414L38.3083 115.902L38.7048 113.889Z" fill="#4C9CA3"/>
<path d="M47.2144 113.889L49.1054 114.712L48.1903 114.895L49.1054 115.414L47.7024 115.902L47.2144 113.889Z" fill="#4C9CA3"/>
<path d="M122.885 101.507L136.275 121.909H138.471L124.471 100.409L122.885 101.507Z" fill="#323244"/>
<path d="M138.684 101.507L126.972 122.001H124.471L137.281 100.409L138.684 101.507Z" fill="#323244"/>
<path d="M62.8914 101.507L76.281 121.909H78.5075L64.3859 100.409L62.8914 101.507Z" fill="#454556"/>
<path d="M78.599 101.507L67.0089 122.001H64.5079L77.2876 100.409L78.599 101.507Z" fill="#454556"/>
<path d="M137.281 86.8982V97.9078H133.377V84.6108L137.281 86.8982Z" fill="#F4A422"/>
<path d="M76.098 86.8982V97.9078H72.194V84.6108L76.098 86.8982Z" fill="#F4A422"/>
<path d="M117.975 121.787C117.975 121.787 117.67 108.887 120.171 103.885C120.171 103.885 114.559 106.691 117.456 121.787H117.975Z" fill="#323244"/>
<path d="M119.073 121.604C119.073 121.604 120.171 115.596 122.275 113.217C122.275 113.217 117.883 114.62 118.463 121.726L119.073 121.604Z" fill="#323244"/>
<path d="M116.694 121.696C116.694 121.696 113.796 114.498 114.193 110.198C114.193 110.198 111.387 114.498 116.206 121.787L116.694 121.696Z" fill="#323244"/>
<path d="M138.684 69.9111H68.5035V86.8983H138.684V69.9111Z" fill="#FCBD4B"/>
<path d="M138.684 97.9077H62.4034V101.506H138.684V97.9077Z" fill="#FCBD4B"/>
<path d="M138.684 97.9077H122.885V101.506H138.684V97.9077Z" fill="#F4A422"/>
<path d="M138.684 69.9111H135.482V86.8983H138.684V69.9111Z" fill="#F4A422"/>
<path d="M135.482 86.8983H68.5034V69.9111H90.8905L135.482 86.8983Z" fill="#F4A422"/>
<path d="M8.29602 121.482C8.29602 121.482 12.9016 116.176 23.8817 119.287C34.8922 122.275 37.4847 110.198 49.8678 118.494C62.2509 126.789 72.4685 113.888 97.1431 121.391C97.1431 121.391 113.827 118.799 121.147 121.482C121.147 121.482 133.835 119.775 138.928 121.391L8.29602 121.482Z" fill="#F9D8AD"/>
<path d="M11.3156 121.483C11.3156 121.483 14.823 118.677 17.9036 121.574L11.3156 121.483Z" fill="#FF8F6A"/>
<path d="M33.9162 121.787C33.9162 121.787 34.5263 98.1822 29.8292 89.0024C29.8292 89.0024 40.1383 94.187 34.8312 121.787H33.9162Z" fill="#454556"/>
<path d="M31.8117 121.482C31.8117 121.482 29.7987 110.595 25.9252 106.081C25.9252 106.081 34.0383 108.582 32.8182 121.574L31.8117 121.482Z" fill="#454556"/>
<path d="M36.2037 121.604C36.2037 121.604 41.6023 108.521 40.8093 100.409C40.8093 100.409 45.9028 108.216 37.2103 121.604H36.2037Z" fill="#454556"/>
<path d="M43.6152 121.696L49.1053 119.592L52.7043 121.696H43.6152Z" fill="#FF8F6A"/>
<path d="M19.7947 121.787C19.7947 121.787 21.8991 118.097 29.4937 116.877C36.9967 115.688 43.0053 121.665 43.0053 121.665L19.7947 121.787Z" fill="#FF8F6A"/>
<path d="M89.579 121.604L83.5705 115.291L80.5815 116.084L74.7864 107.087H74.2985H72.7125C71.523 107.087 70.5164 107.789 69.9979 108.887L66.0939 112.79L65.4839 113.98L59.9938 116.084L58.8044 118.585L51.3013 121.574L62.0069 121.177L61.9154 121.482L89.579 121.604Z" fill="#FF8F6A"/>
<path d="M89.5791 121.605L61.9764 121.696L66.1855 113.004L70.0895 109.101C70.5775 108.003 71.584 107.301 72.804 107.301H74.3901L78.2026 116.207H80.6121L83.6011 115.414L82.8996 117.213L89.5791 121.605Z" fill="#F05E2B"/>
<path d="M131.486 115.017C132.75 115.017 133.774 113.761 133.774 112.211C133.774 110.661 132.75 109.405 131.486 109.405C130.223 109.405 129.199 110.661 129.199 112.211C129.199 113.761 130.223 115.017 131.486 115.017Z" fill="#323244"/>
<path d="M148.17 98.2129L147.987 99.7987L147.865 100.5L145.181 121.605H130.48L129.29 112.394L128.589 106.417L127.491 98.2129H148.17Z" fill="#F73C4F"/>
<path d="M147.987 99.799L147.895 100.409L145.181 121.513H140.484V99.128C143.778 98.6096 146.187 98.9145 147.987 99.799Z" fill="#DD2641"/>
<path d="M150 95.895H125.691V98.1825H150V95.895Z" fill="#F73C4F"/>
<path d="M148.17 98.2129L147.865 100.5L127.491 98.2129H148.17Z" fill="#323244"/>
<path d="M149.969 95.895V98.213H138.471L135.665 95.895H149.969Z" fill="#DD2641"/>
<path d="M136.275 109.009C136.275 111.418 134.384 113.309 131.974 113.309C130.968 113.309 130.083 113.004 129.382 112.394L128.589 106.386C129.382 105.38 130.602 104.678 131.974 104.678C134.292 104.709 136.275 106.6 136.275 109.009Z" fill="#FCBD4B"/>
<path d="M91.5922 121.696L96.1977 118.311L100.986 116.389L105.592 121.482L91.5922 121.696Z" fill="#F05E2B"/>
<path d="M149.177 122.001H0.396517C0.183016 122.001 0 121.788 0 121.605C0 121.391 0.213516 121.208 0.396517 121.208H149.177C149.39 121.208 149.573 121.422 149.573 121.605C149.573 121.788 149.39 122.001 149.177 122.001Z" fill="#F9D8AD"/>
<path d="M92.3852 121.208H72.377C72.377 121.208 72.2855 120.506 72.2855 119.408C72.2855 119.195 72.2855 119.012 72.2855 118.798C72.2855 117.304 72.5905 115.413 73.292 113.888C73.292 113.888 73.9935 115.291 75.3965 115.687C76.1895 115.901 77.2876 115.687 78.5076 114.681L78.294 113.98L79.4836 113.583L80.0936 113.37L87.5966 117.273C88.6946 117.273 89.7011 117.67 90.5856 118.28C91.0736 118.585 91.5007 119.073 91.7752 119.591C91.9887 119.988 92.2632 120.384 92.3852 120.903V121.208Z" fill="#323244"/>
<path d="M92.3852 121.208H72.377C72.377 121.208 72.2855 120.506 72.2855 119.408H91.5922C91.8057 119.805 92.0802 120.201 92.2022 120.72L92.3852 121.208Z" fill="#DDCAE6"/>
<path d="M73.109 118.89H72.4076C72.4076 117.395 72.7125 115.504 73.414 113.979C73.414 113.979 74.1156 115.382 75.5186 115.779C72.8956 116.084 73.109 118.89 73.109 118.89Z" fill="#231F20"/>
<path d="M87.2002 119.5H80.3071L79.6056 118.707H86.3766L87.2002 119.5Z" fill="#DDCAE6"/>
<path d="M81.1916 113.614L79.8801 114.712C79.7886 114.803 79.7886 114.925 79.8801 114.925C79.9717 115.017 80.0936 115.017 80.0936 114.925L81.4052 113.827C81.4967 113.736 81.4967 113.614 81.4052 113.614C81.4052 113.492 81.2831 113.492 81.1916 113.614Z" fill="#DDCAE6"/>
<path d="M82.3811 114.193L81.0696 115.291C80.9781 115.383 80.9781 115.505 81.0696 115.505C81.1611 115.596 81.2831 115.596 81.2831 115.505L82.5946 114.407C82.6861 114.315 82.6861 114.193 82.5946 114.193C82.5946 114.193 82.5031 114.193 82.3811 114.193Z" fill="#231F20"/>
<path d="M83.6011 114.895L82.2896 115.993C82.1981 116.084 82.1981 116.206 82.2896 116.206C82.3811 116.298 82.5031 116.298 82.5031 116.206L83.8146 115.108C83.9061 115.017 83.9061 114.895 83.8146 114.895C83.6926 114.803 83.6011 114.803 83.6011 114.895Z" fill="#231F20"/>
<path d="M84.7907 115.505L83.4791 116.603C83.3876 116.694 83.3876 116.816 83.4791 116.816C83.5706 116.908 83.6927 116.908 83.6927 116.816L85.0041 115.718C85.0956 115.627 85.0956 115.505 85.0041 115.505C84.8821 115.413 84.7907 115.413 84.7907 115.505Z" fill="#231F20"/>
<path d="M85.8887 116.084L84.5772 117.182C84.4857 117.274 84.4857 117.396 84.5772 117.396C84.6687 117.487 84.7907 117.487 84.7907 117.396L86.1022 116.298C86.1937 116.206 86.1937 116.084 86.1022 116.084C86.1022 116.084 85.9802 116.084 85.8887 116.084Z" fill="#231F20"/>
<path d="M78.2941 114.01L78.5076 114.712C77.3181 115.81 76.2201 116.023 75.3966 115.718C73.9936 115.322 73.2921 113.919 73.2921 113.919L73.2006 111.021V110.808V110.503V110.29V109.893H78.9956L79.0871 110.29V110.503L79.1786 110.808V111.021L79.3921 113.522L78.2941 114.01Z" fill="#DDCAE6"/>
<path d="M79.0871 110.595H73.2006V110.412H79.0871V110.595Z" fill="white"/>
<path d="M79.3005 111.113H73.292V110.899H79.1785L79.3005 111.113Z" fill="white"/>
<path d="M87.9931 114.315C89.1048 114.315 90.0061 113.414 90.0061 112.302C90.0061 111.191 89.1048 110.29 87.9931 110.29C86.8813 110.29 85.9801 111.191 85.9801 112.302C85.9801 113.414 86.8813 114.315 87.9931 114.315Z" fill="#231F20"/>
<path d="M91.7335 111.683L87.3416 111.712L87.349 112.81L91.741 112.781L91.7335 111.683Z" fill="#111010"/>
<path d="M92.2021 114.224C93.3139 114.224 94.2152 113.323 94.2152 112.211C94.2152 111.099 93.3139 110.198 92.2021 110.198C91.0904 110.198 90.1891 111.099 90.1891 112.211C90.1891 113.323 91.0904 114.224 92.2021 114.224Z" fill="#231F20"/>
<path d="M92.4765 113.126C92.9819 113.126 93.3915 112.716 93.3915 112.211C93.3915 111.706 92.9819 111.296 92.4765 111.296C91.9712 111.296 91.5615 111.706 91.5615 112.211C91.5615 112.716 91.9712 113.126 92.4765 113.126Z" fill="#EDAA15"/>
<path d="M99.4916 83.8177C100.603 83.8177 101.505 82.9165 101.505 81.8048C101.505 80.6932 100.603 79.792 99.4916 79.792C98.3798 79.792 97.4786 80.6932 97.4786 81.8048C97.4786 82.9165 98.3798 83.8177 99.4916 83.8177Z" fill="#231F20"/>
<path d="M103.324 81.2154L98.9321 81.2451L98.9396 82.3431L103.332 82.3134L103.324 81.2154Z" fill="#111010"/>
<path d="M50.9964 55.1199C50.9049 54.5099 50.7829 54.1135 50.7829 54.1135L45.5979 54.022C45.5979 54.022 44.9879 55.7298 44.6829 56.9192C44.4694 58.1086 44.3779 61.4329 45.2929 61.5244C45.2929 61.5244 45.2929 62.6223 46.4824 62.5308C46.4824 62.5308 46.4824 63.1407 47.3974 63.1407H47.4889C47.4889 63.1407 47.8854 63.7507 48.4954 63.8422C49.1054 63.8422 49.6849 63.4457 49.8069 62.8358C49.8069 62.8358 50.1119 62.7443 50.4169 62.4393C50.6304 62.2258 50.7219 61.8293 50.7219 61.2499C50.7219 59.9385 51.3319 58.6576 51.3319 57.2547C51.2099 56.3093 51.0879 55.6078 50.9964 55.1199ZM49.5019 57.4072C49.5019 57.4987 48.8919 60.5179 49.1969 61.2194C49.1969 61.2194 48.8004 61.6159 48.4039 61.5244C48.3124 61.5244 48.3124 61.3109 48.1904 60.9144C48.1904 60.03 48.4954 58.1086 49.5019 57.4072Z" fill="#FF8F6A"/>
<path d="M90.0976 9.34285C90.0061 13.7345 89.1825 16.2353 88.0845 17.5467C87.383 18.4616 86.59 18.8581 85.797 18.9496C84.4855 19.2545 83.5095 18.7361 83.5095 18.7361V18.8276L82.4115 22.3348L78.3245 28.2208C78.3245 28.2208 78.3245 28.2208 78.3245 28.1293C78.233 27.3364 77.4095 22.2433 77.5315 21.1454C77.623 19.834 79.2395 15.8388 79.2395 15.8388L78.3245 15.1374L77.8365 12.5451C77.8365 12.5451 77.135 11.5387 77.135 10.6542C77.135 10.3493 77.2265 10.0443 77.44 9.73931C78.355 8.82439 79.453 9.73931 79.453 9.73931C79.8495 9.64782 80.246 9.52583 80.551 9.43434C80.6425 9.43434 80.7645 9.34285 80.856 9.34285C81.0695 9.25136 81.2525 9.25135 81.466 9.12936C81.6795 9.12936 81.771 9.03787 81.954 9.03787C82.1675 8.94638 82.3505 8.94638 82.564 8.82439C82.9605 8.73289 83.2655 8.6109 83.662 8.51941C83.7535 8.51941 83.967 8.42792 84.0585 8.42792C84.272 8.42792 84.455 8.33643 84.5465 8.33643C84.638 8.33643 84.76 8.33643 84.8515 8.24493C84.943 8.24493 85.065 8.24494 85.1565 8.15345C85.37 8.15345 85.553 8.06195 85.7665 8.06195C85.858 8.06195 85.98 8.06195 86.0715 8.06195H86.163C86.2545 8.06195 86.2545 8.06195 86.3765 8.06195C86.59 8.06195 86.6815 8.06195 86.773 7.97046C86.8645 7.97046 86.9865 7.97046 86.9865 7.97046C87.2 7.97046 87.2915 7.97046 87.4745 7.97046C87.566 7.97046 87.566 7.97046 87.688 7.97046C87.7795 7.97046 87.9015 7.97046 87.993 7.97046H88.0845C89.6706 7.97046 90.189 8.27543 90.189 8.27543C90.0975 8.6414 90.0976 9.03787 90.0976 9.34285Z" fill="#FF8F6A"/>
<path d="M90.0976 9.34292C90.0976 8.94645 90.0976 8.64148 90.0976 8.24501C90.0976 8.24501 89.7011 7.94003 87.9931 7.94003H87.9016C87.8101 7.94003 87.6881 7.94003 87.5966 7.94003C87.5966 7.94003 87.5051 7.94003 87.3831 7.94003C87.1696 7.94003 87.0781 7.94003 86.8951 7.94003C86.8036 7.94003 86.6816 7.94003 86.6816 7.94003C86.5901 7.94003 86.3766 7.94004 86.2851 8.03153C86.1936 8.03153 86.1936 8.03153 86.0716 8.03153H85.9801C85.8886 8.03153 85.7666 8.03153 85.6751 8.03153C85.4616 8.03153 85.2786 8.12302 85.0651 8.12302C84.9736 8.12302 84.8516 8.12302 84.7601 8.21451C84.6686 8.21451 84.5466 8.21452 84.4551 8.30601C84.2416 8.30601 84.1501 8.3975 83.9671 8.3975C83.8756 8.3975 83.6621 8.48899 83.5706 8.48899C83.2656 8.58049 82.8691 8.70248 82.4726 8.79397C82.2591 8.88546 82.0761 8.88546 81.8626 9.00745C81.6491 9.00745 81.5576 9.09895 81.3746 9.09895C81.1916 9.09895 80.9781 9.19043 80.7646 9.31242C80.6731 9.31242 80.551 9.40392 80.368 9.40392C79.9715 9.49541 79.6666 9.6174 79.2701 9.7089C79.2701 9.7089 78.172 8.79397 77.257 9.7089C77.0435 9.92238 76.952 10.3188 76.952 10.6238C76.952 10.6238 76.952 10.6238 76.8605 10.6238C76.5555 10.6238 76.2506 10.4103 76.0676 10.2273C75.9761 10.1359 75.976 9.92238 75.976 9.83088L75.8845 6.72013C75.8845 6.41516 76.0981 6.01869 76.3726 5.92719C76.3726 5.92719 76.3725 5.92719 76.464 5.92719C76.464 5.92719 76.5555 4.7378 77.379 3.4264C78.0805 2.11501 79.4835 0.712117 81.9846 0.132664C82.0761 0.132664 82.076 0.132664 82.198 0.132664C86.9866 -0.782262 88.9996 3.33491 88.9996 3.33491C89.7926 3.24341 90.0976 3.73138 90.0976 3.73138C90.0976 3.73138 90.7991 6.23218 90.8906 7.54357C90.9821 8.64148 90.4027 9.12944 90.0976 9.34292Z" fill="#DDCAE6"/>
<path d="M99.8882 62.7135L98.3937 63.11L95.2827 63.9029L93.7881 64.2994L93.3002 64.3909L90.7076 60.5787C88.1151 56.7665 86.0106 52.6798 84.3026 48.3797C84.2111 48.0747 83.9976 47.7697 83.9061 47.3733C83.8146 50.2705 83.2045 53.0763 82.503 55.3636C81.8015 57.6509 80.9171 59.5723 80.3986 60.6702C80.3986 60.7617 80.3071 60.8837 80.1851 60.9752C79.8801 61.3716 79.4835 61.6766 78.9955 61.7681C78.904 61.7681 78.782 61.7681 78.6905 61.7681C66.4904 61.9816 54.3819 56.7665 54.3819 56.7665C53.6804 56.0651 52.6738 55.4551 53.6804 50.4535C54.2904 47.4648 55.5714 44.049 56.6694 41.7617C57.2794 40.3588 57.7674 39.3524 57.8589 39.1694C56.1509 41.4567 54.8699 43.9576 53.8634 46.2754C53.6499 46.7633 53.4669 47.2818 53.2534 47.7697C53.0399 48.1662 52.9484 48.5627 52.8569 48.9591C52.6434 49.4471 52.4603 50.0571 52.3688 50.4535C51.6673 52.7408 51.3624 54.2657 51.3624 54.2657H44.6523C44.3473 53.0763 44.1643 51.7649 44.1643 50.4535C44.1643 49.9656 44.1643 49.4471 44.1643 48.9591C44.1643 48.5627 44.1643 48.1662 44.2558 47.7697C44.2558 47.2818 44.3473 46.7633 44.4693 46.2754C46.3603 33.9849 56.9744 20.383 60.4514 17.6992C64.7519 14.4054 73.536 13.1855 73.536 13.1855L75.9455 10.1968C76.159 10.5018 76.4335 10.5933 76.7385 10.5933C76.7385 10.5933 76.7385 10.5933 76.83 10.5933C76.83 11.5082 77.5315 12.4841 77.5315 12.4841L78.0195 15.0764L78.9345 15.7778C78.9345 15.7778 78.721 16.2658 78.538 16.9672C78.05 18.2786 77.44 20.261 77.3485 21.1759C77.257 22.4873 78.1415 28.3733 78.1415 28.3733L80.9476 24.2866L82.259 22.3958L83.4486 18.7971C83.4486 18.7971 86.041 19.9865 88.0541 17.4857C88.2676 18.0956 88.3591 18.7971 88.3591 19.3765C88.3591 20.1695 88.2676 20.8709 88.2676 20.8709C88.2676 20.8709 91.2566 24.1647 92.3546 28.4648C92.8426 30.4776 93.5442 35.1743 94.0627 39.7489C94.9777 47.1598 96.6551 54.3572 99.3697 61.2497L99.8882 62.7135Z" fill="#4C9CA3"/>
<path d="M82.2895 22.4264L78.2025 28.3124C78.2025 28.3124 78.2025 28.3124 78.2025 28.2209V28.1294V28.0379C78.2025 28.0379 78.2025 28.0379 78.2025 27.9464C78.2025 27.9464 78.2025 27.9464 78.2025 27.8549C78.2025 27.7634 78.2025 27.6414 78.2025 27.5499V27.4584C78.111 27.062 78.111 26.5435 77.989 25.9641C77.989 25.8726 77.989 25.8726 77.989 25.7506C77.989 25.4456 77.8975 25.1406 77.8975 24.8357C77.8975 24.7442 77.8975 24.7442 77.8975 24.6222C77.8975 24.2257 77.806 23.9207 77.806 23.5243V23.4328V23.3413V23.2498V23.1583V23.0668C77.806 22.9753 77.806 22.8533 77.806 22.8533C77.806 22.7618 77.806 22.7618 77.806 22.6398C77.806 22.4264 77.806 22.3349 77.806 22.1519V22.0604C77.806 21.9689 77.806 21.9689 77.806 21.8469C77.806 21.7554 77.806 21.6334 77.806 21.5419C77.806 21.4504 77.806 21.4504 77.806 21.4504C77.806 21.4504 78.2025 21.8469 78.904 22.1519C79.392 22.4264 80.7035 22.8228 82.2895 22.4264Z" fill="#C0A1D1"/>
<path d="M80.1851 66.6173C79.8801 66.6173 79.697 66.7088 79.392 66.7088C77.196 67.1053 75.0915 67.1968 72.987 67.1053C65.1789 67.0138 58.3774 64.513 54.9919 63.0186C53.4974 62.3172 52.5824 61.8292 52.5824 61.8292C53.4974 59.0234 54.4734 56.8276 54.4734 56.8276C54.4734 56.8276 61.458 59.8164 70.2725 61.2193C70.8825 61.3108 71.584 61.4328 72.1635 61.5242C74.268 61.8292 76.5555 61.9207 78.7515 61.9207C78.7515 61.9207 78.7515 61.9207 78.843 61.9207C78.9345 61.9207 79.0565 61.9207 79.0565 61.9207L80.1851 66.6173Z" fill="#DDCAE6"/>
<path d="M100.681 78.5114C98.8817 83.2995 95.1912 93.3027 92.2937 101.507C91.9887 102.422 91.6837 103.306 91.3787 104.099C91.2872 104.312 91.1652 104.495 91.1652 104.8C91.0737 105.105 90.9517 105.288 90.8602 105.593C90.6467 105.99 90.5552 106.508 90.4637 106.905C90.2502 107.393 90.1586 107.82 89.9756 108.308C89.4876 109.802 89.0606 111.113 88.6641 111.998C87.0781 116.999 83.8756 119.592 81.6796 120.903C80.2766 121.696 78.5686 120.415 79.0871 118.799C80.1851 115.505 83.3876 110.9 83.3876 110.9L84.3026 108.308L85.2176 105.715L85.3091 105.41L85.7056 104.221L86.0106 103.306L86.6206 101.598L95.0082 78.2064C95.4047 77.017 95.7097 75.7972 95.9232 74.5163C96.0147 73.9063 96.0147 73.4183 96.0147 72.8084C96.1062 70.6126 96.4112 69.2097 96.9297 68.2033C96.9297 68.1118 97.0212 68.1118 97.0212 67.9898C97.9362 66.1904 99.2172 66.1904 99.2172 66.1904C99.5222 66.1904 99.8272 66.2819 100.132 66.4954C101.047 67.1054 101.535 68.6912 101.718 70.3076C101.993 73.1134 101.688 75.9191 100.681 78.5114Z" fill="#1F1F35"/>
<path d="M103.701 83.7264C104.812 83.7264 105.714 82.8252 105.714 81.7135C105.714 80.6019 104.812 79.7007 103.701 79.7007C102.589 79.7007 101.688 80.6019 101.688 81.7135C101.688 82.8252 102.589 83.7264 103.701 83.7264Z" fill="#231F20"/>
<path d="M103.975 82.537C104.481 82.537 104.89 82.1274 104.89 81.622C104.89 81.1167 104.481 80.707 103.975 80.707C103.47 80.707 103.06 81.1167 103.06 81.622C103.06 82.1274 103.47 82.537 103.975 82.537Z" fill="#EDAA15"/>
<path d="M100.193 66.5256C99.8882 66.3121 99.7052 66.2206 99.2782 66.2206C99.2782 66.2206 98.9732 66.2206 98.5767 66.4341C98.1802 66.6476 97.7837 66.922 97.3872 67.6235L97.4787 68.4164C97.4787 68.4164 98.6682 68.7214 98.6682 69.3314C98.6682 69.9413 97.9667 70.0328 97.9667 70.0328C97.9667 70.0328 98.6682 70.3378 98.8817 71.1307C99.0952 71.9236 98.3937 72.6251 98.2717 72.2286C98.0582 71.7407 97.6617 71.5272 97.6617 71.5272C97.6617 71.5272 98.2717 72.4421 98.2717 73.3265C98.2717 74.2415 97.6617 74.7294 97.3567 74.5159C97.0517 74.3025 97.2652 73.906 97.0517 72.9301C96.8382 72.2286 96.5637 71.8322 96.3502 71.6187C96.3502 72.0151 96.2587 72.4116 96.2587 72.8081C96.2587 73.418 96.1672 73.906 96.1672 74.5159C95.6792 74.5159 95.2522 74.1195 95.3742 73.601L95.7707 69.7888C95.7707 69.7888 94.3677 68.4774 94.1847 67.9895C93.9712 67.593 93.9712 65.0007 93.9712 64.2993L98.5767 63.1099L98.8817 64.0248C99.7967 64.6042 100.102 66.4036 100.193 66.5256Z" fill="#FF8F6A"/>
<path d="M97.3872 67.6236L97.4787 68.4166L95.8927 66.9222C95.8927 66.9222 96.8992 65.8243 96.8077 64.0249C96.8077 64.0249 96.8992 66.4342 98.5157 66.4342C98.1802 66.6172 97.7837 67.0137 97.3872 67.6236Z" fill="#EA6044"/>
<path d="M85.7971 19.0412C84.4856 19.3462 83.5096 18.8277 83.5096 18.8277V18.9192C82.4116 18.6142 81.2221 17.9128 80.1241 16.7234C80.1241 16.7234 78.5381 19.8341 78.5381 21.908C77.8366 21.5115 77.4401 21.2065 77.4401 21.2065C77.5316 19.8951 79.1481 15.8999 79.1481 15.8999L78.2331 15.1985L77.7451 12.6062C77.7451 12.6062 77.0436 11.5998 77.0436 10.7154C77.0436 10.4104 77.1351 10.1054 77.3486 9.80043C78.2636 8.88551 79.3616 9.80043 79.3616 9.80043C79.7581 9.70894 80.1546 9.58695 80.4596 9.49546C80.5511 9.49546 80.6731 9.40397 80.7646 9.40397C80.6731 10.5019 80.3681 13.7041 80.7646 15.29C81.4051 17.0283 83.3876 18.8277 85.7971 19.0412Z" fill="#EA6044"/>
<path d="M84.4855 8.42798C80.5815 10.4408 80.2765 13.2161 80.2765 13.2161L79.3615 9.83087C81.405 9.12942 83.0825 8.64146 84.4855 8.42798Z" fill="#323244"/>
<path d="M88.9996 3.33481C78.416 3.63978 76.4945 5.9271 76.4945 5.9271C76.4945 5.9271 76.586 4.7377 77.4095 3.42631C78.111 2.11491 79.5141 0.712021 82.0151 0.132568C82.1066 0.132568 82.1066 0.132568 82.2286 0.132568C80.3375 1.44396 81.039 3.24332 81.039 3.24332C85.187 2.54188 88.9996 3.33481 88.9996 3.33481Z" fill="#C0A1D1"/>
<path d="M84.394 121.208H64.3859C64.3859 121.208 64.2944 120.507 64.2944 119.409C64.2944 119.195 64.2944 119.012 64.2944 118.799C64.2944 117.304 64.5995 115.413 65.301 113.889C65.301 113.889 66.0024 115.291 67.4054 115.688C68.1984 115.901 69.2964 115.688 70.5164 114.682L70.303 113.98L71.4925 113.584L72.1025 113.37L79.6055 117.274C80.7035 117.274 81.7101 117.67 82.5946 118.28C83.0826 118.585 83.5095 119.073 83.784 119.592C83.9975 119.988 84.272 120.385 84.394 120.903V121.208Z" fill="#323244"/>
<path d="M84.394 121.208H64.3859C64.3859 121.208 64.2944 120.507 64.2944 119.409H83.6011C83.8146 119.805 84.0891 120.202 84.2111 120.72L84.394 121.208Z" fill="#DDCAE6"/>
<path d="M64.996 118.89H64.2944C64.2944 117.396 64.5995 115.505 65.301 113.98C65.301 113.98 66.0024 115.383 67.4054 115.779C64.9044 116.084 64.996 118.89 64.996 118.89Z" fill="#DDCAE6"/>
<path d="M79.1786 119.5H72.2855L71.4926 118.707H78.3856L79.1786 119.5Z" fill="#DDCAE6"/>
<path d="M73.2005 113.614L71.8889 114.712C71.7974 114.803 71.7974 114.925 71.8889 114.925C71.9804 115.017 72.1025 115.017 72.1025 114.925L73.4139 113.827C73.5054 113.736 73.5054 113.614 73.4139 113.614C73.3834 113.492 73.292 113.492 73.2005 113.614Z" fill="#DDCAE6"/>
<path d="M74.39 114.193L73.0785 115.291C72.987 115.383 72.987 115.505 73.0785 115.505C73.17 115.596 73.292 115.596 73.292 115.505L74.6035 114.407C74.695 114.315 74.695 114.193 74.6035 114.193C74.4815 114.193 74.39 114.193 74.39 114.193Z" fill="#DDCAE6"/>
<path d="M75.5795 114.895L74.268 115.993C74.1765 116.084 74.1765 116.206 74.268 116.206C74.3595 116.298 74.4815 116.298 74.4815 116.206L75.793 115.108C75.8845 115.017 75.8845 114.895 75.793 114.895C75.7015 114.803 75.5795 114.803 75.5795 114.895Z" fill="#DDCAE6"/>
<path d="M76.708 115.505L75.3965 116.603C75.305 116.694 75.305 116.816 75.3965 116.816C75.488 116.908 75.6101 116.908 75.6101 116.816L76.9215 115.718C77.013 115.627 77.013 115.505 76.9215 115.505C76.891 115.413 76.7995 115.413 76.708 115.505Z" fill="#DDCAE6"/>
<path d="M77.8975 116.084L76.586 117.182C76.4945 117.274 76.4945 117.396 76.586 117.396C76.6775 117.487 76.7994 117.487 76.7994 117.396L78.111 116.298C78.2025 116.206 78.2025 116.084 78.111 116.084C78.0805 116.084 77.989 116.084 77.8975 116.084Z" fill="#DDCAE6"/>
<path d="M70.303 114.011L70.5165 114.712C69.327 115.81 68.229 116.023 67.4055 115.718C66.0025 115.322 65.301 113.919 65.301 113.919L65.2095 112.608V112.394V112.089V111.876V111.51H71.0045L71.096 111.906V112.12L71.1875 112.425V112.638L71.401 113.431L70.303 114.011Z" fill="#DDCAE6"/>
<path d="M71.096 112.211H65.2095V112.089H71.096V112.211Z" fill="white"/>
<path d="M71.1875 112.699H65.301L65.2095 112.486H71.1875V112.699Z" fill="white"/>
<path d="M79.392 66.7087V111.083C79.392 111.083 75.7015 112.669 75 114.986L72.8954 113.797C72.8954 113.797 67.9849 113.492 65.6059 116.298C64.8129 117.213 64.2944 118.494 64.2944 120.11L54.9918 63.0186C55.9983 63.415 57.1879 63.9335 58.6824 64.5129C60.4819 65.1229 62.5863 65.7023 64.8739 66.2208C69.2049 67.1052 74.2069 67.6237 79.392 66.7087Z" fill="#323244"/>
<path d="M71.5839 68.5082L74.9695 114.986L69.7845 93.1807L68.8695 69.7891C68.8695 69.7891 66.8564 67.9898 64.8739 66.1904C69.1744 67.1054 74.1765 67.5018 79.3615 66.6784C79.392 66.7089 76.098 67.9288 71.5839 68.5082Z" fill="#1F1F35"/>
<path d="M65.6059 116.298C64.8129 117.213 64.2944 118.494 64.2944 120.11L54.9918 63.0186C55.9983 63.415 57.1879 63.9335 58.6824 64.5129L65.6059 116.298Z" fill="#1F1F35"/>
<path d="M73.5054 19.0412C72.5904 21.7554 70.5164 25.4457 66.0939 29.8373L56.8828 41.8228C57.4928 40.4199 57.9809 39.4135 58.0724 39.2305L64.6604 29.1359C64.6604 29.1359 67.5579 23.0363 68.7474 18.4312C69.2354 16.6319 69.5404 15.1375 69.2354 14.2226C69.1439 14.0091 69.3269 13.7346 69.6319 13.7346L73.6275 13.3381C73.6885 13.3381 74.6949 15.229 73.5054 19.0412Z" fill="#323244"/>
<path d="M87.3831 33.314C86.8951 34.8084 86.3765 35.9063 86.0715 36.6077C85.858 37.0042 85.6751 37.3092 85.6751 37.3092L84.3636 48.5018C84.2721 48.1968 84.0585 47.8918 83.967 47.4954L84.3636 37.1872L85.1565 23.4023L88.2676 21.115C89.0911 26.2386 88.2981 30.4167 87.3831 33.314Z" fill="#323244"/>
<path d="M88.3896 19.5292C87.3831 20.7186 82.7775 23.3414 80.978 24.3173L82.2896 22.4265L83.479 18.8278C83.479 18.8278 86.0716 20.0172 88.0846 17.5164C88.2981 18.1263 88.3896 18.9192 88.3896 19.5292Z" fill="#28878D"/>
<path d="M85.1871 23.3413L79.8801 26.635L84.3027 25.3236L83.9976 47.4344L85.1871 23.3413Z" fill="#28878D"/>
<path d="M78.2026 28.3125C77.9891 29.0139 76.403 37.0958 75.915 48.3189C75.5185 57.1022 73.3225 60.4264 72.2245 61.5243C71.6145 61.4328 70.913 61.3108 70.3335 61.2193C71.4315 60.4264 74.5425 57.2242 75.244 48.0139C76.098 37.4313 78.0806 29.0139 78.2026 28.3125Z" fill="#28878D"/>
<path d="M94.4896 62.6221L95.2827 63.8115L93.7881 64.208L93.3002 64.2995L90.7077 60.4873C88.1151 56.6751 86.0106 52.5885 84.3026 48.2883L85.6141 37.0957L86.1021 45.391C86.1021 45.391 88.6031 54.8758 93.9102 61.6767L98.8207 60.6703L94.4896 62.6221Z" fill="#28878D"/>
<path d="M68.8084 18.3398C66.6124 18.2483 64.1114 18.4312 62.4034 19.8341C58.5909 22.6399 42.7002 40.6334 46.4212 54.4183H44.9268C41.3277 40.7249 56.4254 21.0235 60.7259 17.7298C63.0134 15.9305 66.6124 14.8325 69.4184 14.1311C69.6014 15.046 69.2964 16.5404 68.8084 18.3398Z" fill="#28878D"/>
<path d="M79.087 15.9304C79.087 15.9304 78.8735 16.4184 78.6905 17.1198L76.4945 15.9304L73.5055 19.1327C74.695 15.4425 73.8105 13.3381 73.8105 13.3381L76.2201 10.3494C76.4336 10.6543 76.708 10.7458 77.013 10.7458C77.013 10.7458 77.013 10.7458 77.1045 10.7458C77.1045 11.6608 77.8061 12.6367 77.8061 12.6367L78.294 15.229L79.087 15.9304Z" fill="#28878D"/>
<path d="M80.3985 61.0056C80.0935 61.4021 79.697 61.7071 79.209 61.7985C79.1175 61.7985 78.9955 61.7985 78.904 61.7985C66.7039 62.012 54.5953 56.7969 54.5953 56.7969C53.8938 56.0955 52.8873 55.4856 53.8938 50.484C54.5038 47.4952 55.7849 44.0795 56.8829 41.7922L66.0939 29.8066C66.0024 30.1116 55.9069 50.5145 59.2009 56.7969C59.1094 56.8274 68.1985 60.5177 80.3985 61.0056Z" fill="#28878D"/>
<path d="M75.0914 19.3157L76.7995 20.3221C76.7995 20.3221 76.3115 24.3173 78.2025 28.4344C78.2025 28.4344 76.1894 26.0251 76.0064 20.8405L75.0914 19.3157Z" fill="#28878D"/>
<path d="M46.5127 62.3169C45.3232 62.4084 45.3233 61.3105 45.3233 61.3105C44.4083 61.3105 44.5303 58.0168 44.7133 56.7054C44.9268 55.9125 45.2013 54.8145 45.4148 54.2046H50.9048C50.9048 54.4181 50.9963 54.6011 51.1183 54.906L49.0138 54.9975C47.4277 55.089 46.2078 56.3089 46.0248 57.8948C45.8113 59.9076 45.8112 62.012 46.5127 62.3169Z" fill="#EA6044"/>
<path d="M50.2948 62.2257C50.0813 62.5307 49.6848 62.6222 49.6848 62.6222C49.5933 63.2321 48.9833 63.6286 48.3733 63.6286C47.7633 63.6286 47.3668 62.9272 47.3668 62.9272H47.2753C46.8788 61.7377 46.9703 60.0299 47.0618 59.3284C47.0618 59.3284 47.1533 61.7377 47.5498 62.4392C47.9463 63.1406 48.6478 63.3541 49.0443 62.8357C49.0443 62.8357 48.0378 62.2257 48.0378 60.9448C48.0378 61.2498 48.1293 61.4328 48.2513 61.5548C48.5563 61.6463 49.0443 61.2498 49.0443 61.2498C48.7393 60.5483 49.3493 57.5596 49.3493 57.4376L49.8373 56.8276C49.9898 56.8276 48.8918 61.7073 50.2948 62.2257Z" fill="#EA6044"/>
<path d="M62.0984 41.7312C62.0984 41.7312 58.1944 50.6365 59.1094 56.919L60.8174 57.8339C60.7869 57.8034 58.2859 51.5209 62.0984 41.7312Z" fill="#28878D"/>
<path d="M87.9015 47.7087C86.59 43.5001 86.1936 38.4985 86.1021 36.5161C86.4071 35.8147 87.0171 34.7168 87.4136 33.2224C87.0781 37.8275 87.9015 47.7087 87.9015 47.7087Z" fill="#28878D"/>
<path d="M79.392 7.8486C80.002 7.6351 81.1915 7.2386 83.0825 6.93359C83.3875 6.93359 83.5705 7.02509 83.6925 7.33009C83.784 7.6351 83.601 7.9401 83.296 8.0316C82.503 8.2451 81.0085 8.51961 79.7885 8.94661C79.4835 9.03811 79.1785 8.8551 79.087 8.5501V8.4281C78.9955 8.2451 79.087 7.9401 79.392 7.8486Z" fill="#FFDEE9"/>
<path d="M53.1009 49.02C52.8874 49.508 52.7043 50.118 52.6128 50.5145H44.4083C44.4083 50.0265 44.4083 49.508 44.4083 49.02H53.1009Z" fill="#323244"/>
<path d="M54.1074 46.3364C53.8939 46.8244 53.7109 47.3429 53.4974 47.8309H44.4083C44.4083 47.3429 44.4998 46.8244 44.6218 46.3364H54.1074Z" fill="#323244"/>
<path d="M90.7991 105.593C90.5856 105.99 90.4942 106.508 90.4027 106.905C90.1892 107.393 90.0976 107.82 89.9146 108.308H84.3026L85.2176 105.715L90.7991 105.593Z" fill="#DDCAE6"/>
<path d="M92.2937 101.507C91.9887 102.422 91.6837 103.306 91.3787 104.099H85.7971L86.1021 103.184L86.7121 101.476L92.2937 101.507Z" fill="#DDCAE6"/>
<path d="M66.582 63.2014C66.3685 64.1164 66.7955 65.0008 67.68 65.3058C68.9915 65.9157 70.974 66.7087 73.1701 67.1966C65.362 67.1051 58.5605 64.6043 55.1749 63.1099C53.6804 62.4085 52.7654 61.9206 52.7654 61.9206C53.6804 59.1148 54.6564 56.9189 54.6564 56.9189C54.6564 56.9189 61.6409 59.9077 70.4555 61.3106C71.0655 61.4021 71.767 61.5241 72.3465 61.6156C74.451 61.9206 76.7386 62.012 78.9346 62.012C78.9346 62.012 78.9346 62.012 79.0261 62.012C77.9281 62.1035 73.6275 62.5 68.839 61.9206C67.7105 61.6156 66.7955 62.2255 66.582 63.2014Z" fill="#C0A1D1"/>
</svg>
