<svg width="179" height="401" viewBox="0 0 179 401" fill="none" xmlns="http://www.w3.org/2000/svg">
<path d="M89.4114 400.06C138.411 400.06 178.134 395.895 178.134 390.758C178.134 385.62 138.411 381.455 89.4114 381.455C40.4113 381.455 0.688965 385.62 0.688965 390.758C0.688965 395.895 40.4113 400.06 89.4114 400.06Z" fill="#B2A4A3"/>
<path d="M81.1092 385.156C69.9063 386.757 67.2057 390.458 63.2047 391.858C60.8041 392.358 53.6024 392.158 48.3011 391.558C44.6001 391.258 41.5992 390.758 41.5992 390.758C41.5992 390.758 41.2991 387.857 41.8993 384.656C41.8993 384.156 42.1994 383.856 42.1994 383.356C43.2997 379.855 64.605 363.051 64.605 363.051C64.9051 363.051 70.7067 360.65 71.5069 360.65C72.3071 360.65 71.5069 367.352 71.5069 367.352C71.5069 367.352 71.807 367.052 72.007 367.052C72.5071 366.752 73.9074 366.251 75.2078 367.552C77.1083 369.452 79.2089 372.653 80.3092 372.353C81.4094 372.053 81.1092 366.252 81.1092 366.252C82.4095 366.552 84.0099 374.554 84.6101 378.555C84.9101 379.355 84.9102 380.155 84.9102 380.655C84.9102 382.756 84.31 384.956 81.1092 385.156Z" fill="#DBD2D1"/>
<path d="M71.5068 367.352L59.5038 380.155C59.5038 380.155 51.8019 378.555 48.8011 379.655C48.8011 379.655 47.7008 382.356 47.2006 385.256C44.8 384.956 42.6994 384.756 41.5991 384.456C41.5991 383.956 41.8992 383.656 41.8992 383.156C42.9995 379.655 64.3051 362.851 64.3051 362.851C64.6051 362.851 70.4065 360.45 71.2067 360.45C72.307 360.65 71.5068 367.352 71.5068 367.352Z" fill="#B2A4A3"/>
<path d="M139.824 385.756V386.056C139.524 392.958 114.018 396.959 106.216 397.559C98.4138 398.16 92.1121 397.859 92.1121 397.859C92.1121 397.859 92.1121 395.459 92.1121 392.258C92.1121 389.557 92.1121 386.657 92.1121 383.756C92.1121 378.955 93.7126 377.654 94.5128 377.054L94.8129 379.755C95.9132 381.055 97.7137 378.955 99.3141 375.454C99.6142 375.154 99.6142 374.654 99.8142 374.354C101.415 370.052 104.115 370.052 104.115 370.052C104.115 370.052 100.914 366.352 103.015 364.751C104.915 363.451 109.917 366.852 110.217 366.852L127.821 376.754C132.122 376.254 136.323 377.254 138.524 380.255C139.024 381.755 139.824 383.356 139.824 385.756C139.824 385.456 139.824 385.456 139.824 385.756Z" fill="#DBD2D1"/>
<path d="M139.824 385.756V386.056C139.524 392.958 114.018 396.959 106.216 397.559C98.4138 398.16 92.1121 397.86 92.1121 397.86C92.1121 397.86 92.1121 395.459 92.1121 392.258C95.0128 391.958 102.215 391.158 110.217 387.757C112.917 386.657 115.518 385.356 118.519 384.256C125.721 381.555 133.223 379.455 138.024 380.555C139.024 381.755 139.824 383.356 139.824 385.756C139.824 385.456 139.824 385.456 139.824 385.756Z" fill="#35052C"/>
<path d="M104.015 370.253C104.015 370.253 101.315 370.252 99.7141 374.554C98.1137 378.855 95.713 381.455 94.6127 379.855L94.3128 377.154L93.0125 359.05L108.716 357.449L110.017 367.552C109.717 367.252 104.715 363.851 102.815 365.451C100.814 366.552 104.015 370.253 104.015 370.253Z" fill="#DB6D5E"/>
<path d="M80.109 372.153C79.0087 372.453 76.9083 369.252 75.0078 367.352C73.1074 365.451 71.507 367.352 71.507 367.352C71.507 367.352 72.3072 360.65 71.507 360.65C70.7068 360.65 64.6051 362.751 64.6051 363.051L61.4043 350.547L76.9082 348.147L81.2094 366.051C80.9093 365.951 81.1092 372.153 80.109 372.153Z" fill="#DB6D5E"/>
<path d="M109.116 132.492C109.116 132.492 120.619 135.693 135.223 122.09C135.023 122.09 114.718 112.787 109.116 132.492Z" fill="#260121"/>
<path d="M119.519 167.701C114.418 183.705 105.916 195.708 102.715 199.709C101.915 200.81 101.614 201.31 101.614 201.31L97.1133 192.808C97.1133 192.808 99.8141 190.107 103.215 179.504C106.916 168.801 111.517 141.395 111.217 138.194C110.917 134.993 109.317 129.892 109.317 129.892C109.317 129.892 115.718 117.088 120.519 118.689C120.819 118.689 121.02 118.989 121.32 118.989C122.12 119.489 122.92 120.889 123.72 122.69C124.02 123.79 124.52 125.09 124.82 126.191C127.821 138.094 125.421 149.797 119.519 167.701Z" fill="#DB6D5E"/>
<path d="M124.821 126.391C122.12 128.291 116.818 132.292 114.918 136.793C114.918 136.793 113.318 164 101.815 188.506L102.615 200.009C101.814 201.11 101.515 201.61 101.515 201.61L97.0134 193.108C97.0134 193.108 99.714 190.407 103.115 179.804C106.816 169.102 111.417 141.695 111.117 138.494C110.817 135.293 109.216 130.192 109.216 130.192C109.216 130.192 115.618 117.388 120.419 118.989C120.719 118.989 120.919 119.289 121.22 119.289C122.02 119.789 122.82 121.189 123.62 122.99C124.32 123.99 124.62 125.09 124.821 126.391Z" fill="#BC473B"/>
<path d="M135.023 122.09C135.023 122.09 116.318 121.59 108.916 132.492L103.615 121.79L105.716 162.8L102.515 173.503H106.516L100.114 189.807L98.2137 194.308C97.9136 194.308 97.4136 194.608 95.8132 195.108C89.9117 197.009 72.1071 200.71 29.9965 200.71C29.9965 200.71 25.9954 198.809 21.6943 196.408C18.1934 194.508 14.7926 192.107 13.1922 190.007C13.1922 190.007 17.6933 173.203 27.8959 173.203V143.595H6.29053C6.29053 143.595 10.7915 94.7827 15.8928 84.9802C20.9941 74.8777 43.2997 64.6752 43.5998 64.6752C43.5998 64.9752 42.2996 71.0767 54.0026 71.0767C54.5027 71.0767 54.8028 71.0767 55.3029 71.0767C66.0056 70.5766 75.0078 63.5748 78.2086 59.0736C78.5087 58.5735 78.7088 58.2735 79.0089 57.9734C79.0089 57.9734 96.6133 59.2738 106.716 66.7757C116.318 73.8775 135.023 122.09 135.023 122.09Z" fill="#DBD2D1"/>
<path d="M112.017 77.8784L103.515 88.5811L114.218 121.089C114.218 121.089 122.52 117.388 133.122 119.989C133.122 119.989 114.418 119.689 109.116 132.792L102.715 118.689V135.493L105.615 162.7L102.415 173.403L96.3132 192.307L101.914 159.499L101.114 130.692L88.8113 171.702L98.1134 85.8804L112.017 77.8784Z" fill="#B2A4A3"/>
<path d="M32.397 173.803L16.0928 187.106C15.7927 186.006 15.5929 185.006 15.2928 183.605C13.6924 174.303 14.7925 158.299 15.5927 149.497C15.8928 145.496 16.0928 142.795 16.0928 142.795L30.4966 137.694L32.397 173.803Z" fill="#DB6D5E"/>
<path d="M32.3969 173.803L16.0927 187.106C15.7927 186.006 15.5928 185.006 15.2927 183.605C18.4935 174.303 22.9946 170.302 22.9946 170.302L24.0948 149.197H15.2927C15.5928 145.196 15.7929 142.495 15.7929 142.495L30.1964 137.394L32.3969 173.803Z" fill="#BC473B"/>
<path d="M98.2137 194.108C97.9136 194.108 97.4136 194.608 95.8132 194.908C89.9117 196.809 72.1071 200.51 29.9965 200.51C29.9965 200.51 25.9954 198.609 21.6943 196.209C18.1934 194.308 14.7926 191.907 13.1922 189.807C13.1922 189.807 17.6933 173.003 27.8959 173.003V143.395H6.29053C6.29053 143.395 10.7915 94.5828 15.8928 84.7803C20.9941 74.6777 43.2997 64.4751 43.5998 64.4751C43.5998 64.7752 42.2996 70.8767 54.0026 70.8767C54.5027 70.8767 54.8028 70.8767 55.3029 70.8767C57.7035 72.4771 65.2054 75.1779 78.5088 65.7755C78.2087 66.0756 66.0056 79.3789 37.6984 75.3779C26.7956 80.6792 21.1942 92.9824 24.395 104.685L29.9965 125.791L33.1972 94.8828L36.0979 174.803C36.0979 174.803 53.4023 179.904 80.6092 174.803C80.6092 174.803 67.0059 185.506 30.9967 185.506C30.9967 185.606 56.3031 201.81 98.2137 194.108Z" fill="#B2A4A3"/>
<path d="M111.217 356.949L108.516 357.249L92.8124 358.85L88.3113 359.35L69.7065 231.417L70.8068 291.933L78.0086 348.147L76.4081 348.447L60.9042 350.848L55.3029 351.648L20.894 196.809C25.1951 199.209 29.1962 201.11 29.1962 201.11C84.4102 201.11 97.7136 194.708 97.7136 194.708L99.6139 190.207L102.515 199.309L111.217 356.949Z" fill="#35052C"/>
<path d="M111.217 356.949L92.3123 354.048L70.7067 225.316C70.7067 225.316 77.4085 222.115 83.51 216.514C83.51 216.514 66.4057 228.017 55.5029 216.814C55.5029 216.814 60.8042 222.915 66.4056 225.916L69.9065 231.217L88.6112 359.15L111.217 356.949Z" fill="#260121"/>
<path d="M61.9043 344.146L78.2085 347.847L55.8029 351.048L21.394 196.208C25.6951 198.609 29.6962 200.509 29.6962 200.509C72.1069 200.509 89.7114 196.809 95.5129 194.908C88.3111 197.309 65.9054 204.51 33.6972 209.012L61.9043 344.146Z" fill="#260121"/>
<path d="M69.7062 50.9717L69.4061 51.2718V51.5718C70.2063 57.4733 76.3079 58.7736 77.9083 59.0737C75.2076 63.0747 67.5056 68.9762 58.4033 70.5766C56.8029 70.8767 55.2025 71.0767 53.6021 71.0767C41.8991 71.0767 42.8995 64.9753 43.1995 64.6752C49.3011 61.4744 48.501 52.372 48.3009 49.4713C43.9998 44.6701 43.7998 37.7684 43.7998 37.7684C43.7998 37.7684 39.2985 36.9681 38.6984 30.8666C38.3983 26.5655 40.2987 25.5652 41.599 24.9651C41.8991 25.2652 42.0992 25.4652 42.3993 25.4652C42.3993 25.4652 42.3994 29.1661 43.4997 32.9671C43.4997 32.9671 43.9998 22.5644 48.0008 18.5634C48.0008 18.5634 48.5009 19.8638 48.0008 22.2644C48.0008 22.2644 51.2015 21.1641 50.9014 15.3627C50.6014 10.8615 52.802 8.96102 56.0028 8.46089C56.803 8.16082 57.9032 8.16089 58.9035 8.16089C63.7047 8.16089 65.0051 11.3617 64.8051 16.1629C64.505 20.9641 71.7068 23.3646 75.2076 23.0646C75.2076 23.0646 75.7078 28.9661 74.7075 35.3677C74.7075 35.3677 75.5078 34.0675 76.0079 32.6671C76.508 31.8669 76.8079 30.7666 77.108 29.7663C77.108 29.7663 77.4081 29.7663 77.9083 29.2662C78.7085 29.7663 79.8089 31.3668 79.0086 35.1677C77.7083 41.5694 73.4071 41.5693 73.4071 41.5693C73.4071 41.5693 73.7073 47.2707 69.7062 50.9717Z" fill="#DB6D5E"/>
<path d="M78.5087 29.6663C78.0086 29.9664 77.7084 30.1665 77.7084 30.1665C76.9082 32.8671 75.0078 35.7679 75.0078 35.7679C76.1081 29.6663 75.5079 23.4647 75.5079 23.4647C72.3071 23.7648 65.6053 21.5642 65.1052 17.3632C65.1052 17.0631 65.1052 16.863 65.1052 16.5629C65.4052 11.7617 64.305 8.56089 59.2038 8.56089C58.1035 8.56089 57.1033 8.56094 56.3031 8.86102C53.1023 9.36115 51.0017 11.2617 51.2017 15.7628C51.5018 21.3642 48.5011 22.4645 48.3011 22.6646C48.8012 19.9639 48.3011 18.9636 48.3011 18.9636C44.6002 22.6645 44 32.2669 43.8 33.3672C43.2998 31.7668 42.9997 30.1664 42.9997 28.8661C42.6996 26.9656 42.6996 25.6653 42.6996 25.6653C42.3995 25.6653 42.1994 25.3652 41.8993 25.1652C39.7988 23.2647 35.4977 15.8628 42.3995 6.26038C50.1014 -4.44233 60.8043 1.95925 60.8043 1.95925C65.3054 -2.54189 77.3082 0.858967 81.6093 13.9623C85.4103 24.2649 80.6092 28.266 78.5087 29.6663Z" fill="#260121"/>
<path d="M74.4299 91.7664L38.428 92.5652L39.2911 131.467L75.293 130.669L74.4299 91.7664Z" fill="#260121"/>
<path d="M47.801 91.9821L38.1985 102.085V97.0833L42.7997 92.2822L47.801 91.9821Z" fill="#DB6D5E"/>
<path d="M58.2035 91.9821L38.4985 112.487V107.186L52.9021 91.9821H58.2035Z" fill="#DB6D5E"/>
<path d="M68.3061 91.7821L38.7987 122.69L38.4985 117.289L63.0047 91.7821H68.3061Z" fill="#DB6D5E"/>
<path d="M74.2075 91.4819V95.9831L40.3988 131.192H38.9986L38.7986 127.691L73.4072 91.4819H74.2075Z" fill="#DB6D5E"/>
<path d="M74.2077 100.784L74.5079 106.086L50.5018 131.192H45.4004L74.2077 100.784Z" fill="#DB6D5E"/>
<path d="M74.5077 111.187L74.7077 116.288L60.604 130.892H55.6028L74.5077 111.187Z" fill="#DB6D5E"/>
<path d="M74.7078 121.29L75.008 126.391L71.007 130.692H65.7056L74.7078 121.29Z" fill="#DB6D5E"/>
<path d="M52.1019 55.1728C52.1019 55.1728 48.6012 66.8757 58.5037 70.3766C56.9033 70.6767 55.3028 70.8767 53.7024 70.8767C41.9994 70.8767 42.9998 64.7751 43.2999 64.4751C49.4014 61.2742 48.6011 52.172 48.401 49.2713C44.0999 44.47 43.8999 37.5682 43.8999 37.5682C43.8999 37.5682 39.3989 36.7681 38.7987 30.6666C38.4987 26.3655 40.399 25.3652 41.6994 24.765C41.9994 25.0651 42.1995 25.2652 42.4996 25.2652C42.4996 25.2652 42.4995 28.9661 43.5998 32.7671C43.5998 32.7671 44.0999 22.3644 48.1009 18.3634C48.1009 18.3634 40.8991 48.9711 57.4033 51.9719C62.2045 52.7721 66.2055 51.972 69.4063 50.6716L69.1062 50.9716V51.2718C65.1052 54.1725 59.5038 55.7729 52.1019 55.1728Z" fill="#BC473B"/>
<path d="M74.2075 39.4688C74.2075 39.4688 74.7077 37.3683 75.0078 35.7679C75.0078 35.7679 75.808 34.4675 76.3081 33.0671C76.9083 34.6675 77.4083 38.9687 74.2075 39.4688Z" fill="#BC473B"/>
<path d="M43.8001 33.3672V36.0678C40.2992 31.5666 42.1997 29.6663 42.9999 29.1661C43.3 30.1664 43.6001 31.7667 43.8001 33.3672Z" fill="#99231D"/>
<path d="M75.508 23.4646C75.0079 23.7647 63.8051 26.1653 63.8051 17.5631C63.8051 11.4616 59.304 9.56114 56.3032 8.76094C57.1034 8.46086 58.2036 8.46082 59.2039 8.46082C64.0051 8.46082 65.3053 11.6616 65.1053 16.4628C64.9052 21.6642 72.3072 23.7647 75.508 23.4646Z" fill="#BC473B"/>
<path d="M50.0015 15.7628C50.8017 20.8641 48.401 22.6646 48.1009 22.6646C48.601 19.9639 48.1009 18.9636 48.1009 18.9636C44.4 22.6645 43.7998 32.267 43.5998 33.3672C43.0996 31.7668 42.7997 30.1664 42.7997 28.8661C42.4997 26.9656 42.4996 25.6653 42.4996 25.6653C42.1995 25.6653 41.9994 25.3652 41.6994 25.1652C39.5988 23.2647 35.2978 15.8628 42.1995 6.26039C49.9015 -4.44233 60.6041 1.95925 60.6041 1.95925C50.2014 2.1593 49.4014 10.4614 50.0015 15.7628Z" fill="#11000F"/>
<path d="M109.116 132.492L103.515 115.688L100.314 86.6807L112.017 77.8784L98.5139 85.8804L101.114 122.09L89.1113 171.702L101.414 130.692L105.616 162.6L103.515 121.89L109.116 132.492Z" fill="#7F6C6B"/>
<path d="M27.5956 173.303V143.695H25.3951L19.2937 102.085L13.3921 94.1826L19.5936 100.284L18.7936 84.5801L27.2958 141.094L33.1972 94.9827L27.5956 173.303Z" fill="#7F6C6B"/>
<path d="M81.1093 385.156C69.9065 386.757 67.2059 390.458 63.2049 391.858C60.8043 392.358 53.6026 392.158 48.3012 391.558C48.0011 391.558 47.801 391.558 47.501 391.558C47.2009 391.558 47.0008 391.558 46.7007 391.558C44.8002 391.258 43.4998 391.258 42.3996 391.058C42.0995 391.058 42.0995 391.058 41.8994 391.058H41.5993C41.5993 391.058 41.5995 391.058 41.2994 391.058C40.9994 391.058 40.9993 391.058 40.9993 391.058C40.9993 391.058 40.6993 388.157 41.2994 384.956C42.3997 385.256 44.5001 385.456 46.9007 385.756C51.7019 386.257 57.6034 387.057 59.4039 387.057C62.6047 387.057 69.3063 381.755 83.61 379.055C83.91 379.855 83.9101 380.655 83.9101 381.155C84.9103 382.756 84.3101 384.956 81.1093 385.156Z" fill="#35052C"/>
<path d="M80.109 372.153C79.0087 372.453 76.9083 369.252 75.0078 367.352C73.1074 365.451 71.507 367.352 71.507 367.352C71.507 367.352 72.3072 360.65 71.507 360.65C70.7068 360.65 64.6051 362.751 64.6051 363.051L61.4043 350.547L76.9082 348.147L66.2056 353.748L67.8061 360.45L72.9072 359.95C72.9072 359.95 78.5086 370.653 79.6089 370.853C80.7091 371.053 81.2094 366.051 81.2094 366.051C81.2094 366.051 81.1092 372.153 80.109 372.153Z" fill="#BC473B"/>
<path d="M104.015 370.253C104.015 370.253 101.315 370.252 99.7141 374.554C98.1137 378.855 95.713 381.455 94.6127 379.855L94.3128 377.154L93.0125 359.05L108.716 357.449L97.8137 361.95L98.1136 369.152L101.014 368.652C101.014 368.652 101.515 365.751 102.915 364.951C100.814 366.552 104.015 370.253 104.015 370.253Z" fill="#BC473B"/>
<path d="M103.015 375.554L105.716 376.654C106.016 376.954 106.516 376.654 106.816 376.354C108.116 375.254 112.117 371.853 117.219 371.053C117.719 371.053 117.719 370.553 117.519 370.253L114.318 368.352H114.018C113.218 368.352 108.716 368.652 103.115 373.953C102.215 374.554 102.415 375.354 103.015 375.554Z" fill="#260121"/>
<path d="M69.9066 370.753L67.8062 372.653C67.5061 372.953 67.306 372.953 66.7058 372.653C65.1054 371.853 60.6043 369.752 55.2029 370.553C54.7028 370.553 54.4026 370.053 54.9028 369.753L57.6034 367.052C57.6034 367.052 57.6034 367.052 57.9035 367.052C58.7037 366.752 63.0048 365.751 69.9066 369.452C70.2066 369.452 70.5067 370.253 69.9066 370.753Z" fill="#260121"/>
<path d="M63.3048 376.954L61.2042 378.855C60.9041 379.155 60.704 379.155 60.1038 378.855C58.5034 378.055 54.0023 375.954 48.6009 376.754C48.1008 376.754 47.8009 376.254 48.301 375.954L51.0017 373.253C51.0017 373.253 51.0017 373.253 51.3018 373.253C52.102 372.953 56.4031 371.953 63.3048 375.654C63.5049 375.854 63.805 376.654 63.3048 376.954Z" fill="#260121"/>
<path d="M111.017 379.855L113.718 380.955C114.018 381.255 114.518 380.955 114.818 380.655C116.118 379.555 120.119 376.154 125.221 375.354C125.721 375.354 125.721 374.854 125.521 374.554L122.32 372.653H122.02C121.22 372.653 116.718 372.953 111.117 378.255C110.217 378.755 110.417 379.555 111.017 379.855Z" fill="#260121"/>
<path d="M118.419 384.156C115.518 385.256 112.517 386.257 110.117 387.657C102.415 390.858 95.213 391.958 92.0122 392.158C92.0122 389.457 92.0122 386.557 92.0122 383.656C92.0122 378.855 93.6125 377.554 94.4127 376.954L94.7128 379.655C95.8131 380.955 97.6136 378.855 99.214 375.354C102.715 377.454 111.717 383.056 118.419 382.856C118.219 383.056 118.219 383.556 118.419 384.156Z" fill="#B2A4A3"/>
<path d="M139.824 385.756V386.056C139.524 392.958 114.018 396.959 106.216 397.559C98.4138 398.16 92.1121 397.86 92.1121 397.86C92.1121 397.86 92.1121 395.459 92.1121 392.258C95.0128 391.958 102.215 391.158 110.217 387.757C112.917 386.657 115.518 385.356 118.519 384.256C119.319 386.357 122.22 390.658 133.223 386.357C136.023 385.156 138.424 385.156 139.824 385.756Z" fill="#260121"/>
<path d="M139.824 385.456V385.757C139.524 392.658 114.018 396.659 106.216 397.259C98.4138 397.86 92.1121 397.559 92.1121 397.559C92.1121 397.559 99.8141 397.259 113.418 391.658C124.62 387.357 136.023 383.356 139.824 385.456Z" fill="#260121"/>
<path d="M48.4011 391.358C48.101 391.358 47.9009 391.358 47.6008 391.358C47.3007 391.358 47.1009 391.358 46.8008 391.358C44.9003 391.058 43.5999 391.058 42.4997 390.858C42.1996 390.858 42.1996 390.858 41.9995 390.858H41.6994C41.6994 390.858 41.6994 390.858 41.3993 390.858C41.0992 390.858 41.0992 390.858 41.0992 390.858C41.0992 390.858 40.7991 387.957 41.3993 384.756C42.4996 385.056 44.6002 385.256 47.0008 385.556C47.3009 387.357 47.3008 389.757 48.4011 391.358Z" fill="#260121"/>
<path d="M72.1067 367.052C72.1067 367.352 71.8069 367.352 71.8069 367.552L71.5068 367.252C71.5068 367.352 71.8067 367.352 72.1067 367.052Z" fill="#260121"/>
<path d="M75.508 23.4647C72.3072 23.7647 65.6054 21.5642 65.1053 17.3631C65.1053 17.0631 65.1053 16.863 65.1053 16.5629C65.4053 11.7617 64.3052 8.56086 59.2039 8.56086C58.1036 8.56086 57.1034 8.56091 56.3032 8.86098C56.3032 8.86098 66.4056 5.9602 66.4056 11.5616C66.7057 17.063 68.3062 22.6645 75.508 23.4647Z" fill="#11000F"/>
</svg>
