<svg width="31" height="21" viewBox="0 0 31 21" fill="none" xmlns="http://www.w3.org/2000/svg">
<path fill-rule="evenodd" clip-rule="evenodd" d="M30.8125 10.5C30.8125 10.2099 30.6973 9.93171 30.4922 9.7266C30.287 9.52148 30.0088 9.40624 29.7188 9.40624H3.92156L10.8056 2.52437C10.9073 2.42268 10.988 2.30195 11.043 2.16908C11.0981 2.03621 11.1264 1.89381 11.1264 1.74999C11.1264 1.60618 11.0981 1.46377 11.043 1.3309C10.988 1.19804 10.9073 1.07731 10.8056 0.975618C10.7039 0.873925 10.5832 0.793259 10.4503 0.738223C10.3175 0.683188 10.1751 0.654861 10.0313 0.654861C9.88744 0.654861 9.74503 0.683188 9.61216 0.738223C9.47929 0.793259 9.35857 0.873925 9.25688 0.975618L0.506877 9.72562C0.40502 9.82722 0.324207 9.94791 0.269068 10.0808C0.213929 10.2137 0.185547 10.3561 0.185547 10.5C0.185547 10.6439 0.213929 10.7863 0.269068 10.9192C0.324207 11.0521 0.40502 11.1728 0.506877 11.2744L9.25688 20.0244C9.35857 20.1261 9.47929 20.2067 9.61216 20.2618C9.74503 20.3168 9.88744 20.3451 10.0313 20.3451C10.1751 20.3451 10.3175 20.3168 10.4503 20.2618C10.5832 20.2067 10.7039 20.1261 10.8056 20.0244C10.9073 19.9227 10.988 19.8019 11.043 19.6691C11.0981 19.5362 11.1264 19.3938 11.1264 19.25C11.1264 19.1062 11.0981 18.9638 11.043 18.8309C10.988 18.698 10.9073 18.5773 10.8056 18.4756L3.92156 11.5937H29.7188C30.0088 11.5937 30.287 11.4785 30.4922 11.2734C30.6973 11.0683 30.8125 10.7901 30.8125 10.5Z" fill="#272727"/>
</svg>
