<svg width="120" height="120" viewBox="0 0 120 120" fill="none" xmlns="http://www.w3.org/2000/svg">
<mask id="mask0_467_19169" style="mask-type:alpha" maskUnits="userSpaceOnUse" x="0" y="0" width="120" height="120">
<circle cx="60" cy="60" r="60" fill="#C4C4C4"/>
</mask>
<g mask="url(#mask0_467_19169)">
<path d="M350.25 -19.125H-193.312V524.438H350.25V-19.125Z" fill="white"/>
<path d="M80.8124 52.6875C79.8749 58.125 77.8124 60.375 77.8124 60.375C77.8124 60.375 77.625 60.5625 77.25 60.9375C76.6875 61.5 75.7499 62.8125 74.2499 63.9375C71.8124 66 67.875 68.4375 62.625 69.375C62.4375 69.375 62.2499 69.375 61.8749 69.375C61.1249 69.375 59.8125 69.5625 58.875 69.5625C57.5625 69.5625 56.6249 69.5625 55.8749 69.375C54.3749 69.1875 53.0624 68.4375 52.1249 68.0625C51.9374 67.875 51.5624 67.875 51.1874 67.5C50.2499 66.9375 49.6874 66.1875 49.3124 66C49.1249 65.8125 49.125 65.4375 49.125 65.4375C45.375 63.9375 42.7499 61.5 40.3125 58.3125C35.4375 51.1875 33.5625 41.25 34.5 33.5625C36 22.5 42.1875 12.9375 52.3125 10.875C53.625 10.6875 55.1249 10.6875 56.2499 10.3125C59.0624 10.3125 61.6874 10.3125 64.3124 10.875C70.1249 11.8125 74.9999 16.125 76.8749 21.5625C78.7499 27 80.8125 34.3125 81.375 41.4375C81.375 46.5 81.3749 50.0625 80.8124 52.6875Z" fill="#DDCAE6"/>
<path d="M55.875 68.625C52.875 68.625 50.625 66.5625 49.6875 64.875C42 63 35.8125 52.875 35.25 40.6875C34.6875 26.8125 41.4375 15.375 50.625 14.625C54.375 14.625 57.7501 16.125 60.3751 18.9375C63.1876 21.75 65.25 26.0625 66.75 30.9375C67.3125 33.375 68.0625 36.1875 68.0625 39C68.0625 39.5625 68.0625 39.9375 68.0625 40.5V40.6875C68.8125 59.625 55.875 68.25 55.875 68.625Z" fill="#C0A1D1"/>
<path d="M64.5001 58.6876C64.5001 58.8751 64.3125 58.8751 64.3125 59.2501C60.9375 65.6251 56.2501 68.8126 56.0626 68.8126L51.1875 62.0626C51.1875 62.0626 50.625 62.0626 49.875 61.8751C48 60.9376 44.25 58.1251 43.125 48.5626C43.125 48.0001 43.1251 47.2501 42.9376 47.0626C42.9376 45.7501 42.75 44.6251 42.75 43.3126C42.75 42.3751 42.75 41.2501 42.75 39.9376C42.75 38.0626 42.7501 36.5626 42.9376 35.0626C43.5001 30.3751 45.3751 27.0001 47.6251 24.7501C53.6251 18.7501 62.8125 20.6251 67.5 31.5001C68.0625 33.9376 68.8125 36.7501 68.8125 39.5626C68.8125 40.1251 68.8125 40.8751 68.8125 41.4376C68.4375 48.3751 66.9376 54.3751 64.5001 58.6876Z" fill="#FF8F6A"/>
<path d="M66.375 30.9376C60 15.9376 45 18.1876 41.25 34.3126V34.8751V35.4375V36.0001V36.5626V36.7501V37.3125V37.8751V38.4376V39.0001V42.3751C42 40.3126 42 38.0626 42.1875 35.2501V34.6876C42.1875 19.1251 52.5 12.9376 60.375 18.3751C62.8125 21.9376 65.25 26.0626 66.375 30.9376Z" fill="#1F1F35"/>
<path d="M90.0001 188.25H21.75C21.75 188.25 41.4376 90.1875 42.9376 80.0625C44.4376 69.75 48.75 65.625 48.75 65.625C48.75 65.625 48.75 65.8125 48.9375 66.1875C49.125 66.375 49.875 67.125 50.8125 67.6875C51 67.875 51.375 67.875 51.75 68.25C53.625 69.1875 55.6876 69.75 59.0626 69.75C59.6251 69.75 60.3751 69.75 60.9376 69.75C61.1251 69.75 61.8751 69.75 62.2501 69.5625C66.5626 69 69.5625 67.125 72.375 65.625C72.9375 65.4375 73.6875 64.6875 74.25 64.3125C75.75 63 77.0626 61.875 77.2501 61.3125L78.1876 72.5625C61.8751 99.75 75.1876 147.563 83.8126 172.5C85.3126 176.813 86.8125 180.563 87.75 183.188C89.0625 186 90.0001 187.875 90.0001 188.25Z" fill="#DDCAE6"/>
<path d="M114.562 186.75C114.562 186.75 126.938 208.125 119.813 230.25H99.1875C99.1875 230.25 99.75 223.125 96.375 209.063C95.0625 203.625 92.9999 196.688 90.1874 188.813C90.1874 188.625 89.25 186.75 88.125 183.375C87.5625 181.875 86.8125 180.375 86.25 178.5C85.6875 176.625 84.9375 174.75 84.1875 172.688C75.375 147.938 62.4375 100.125 78.75 72.9375L77.8125 61.6875C78 61.5 78.375 61.125 78.375 61.125C78.375 61.125 80.4375 58.6875 81.375 53.4375C82.875 54.75 86.625 57.9375 89.4375 62.625C89.4375 62.625 91.5 63.1875 94.6875 65.0625C94.875 65.25 95.625 65.625 96 65.625C108.75 72.9375 118.125 85.125 122.062 99.1875C126.375 119.437 131.625 142.688 114.562 186.75Z" fill="#4C9CA3"/>
<path d="M48.5626 65.8123C48.5626 65.8123 44.25 70.1248 42.75 80.2498C41.25 90.5623 21.5625 188.437 21.5625 188.437L19.1251 226.687H-2.62502L16.125 120C16.125 120 7.50001 125.25 -0.374995 121.875C-8.25 118.5 -4.87502 88.4998 17.0625 63.9373V63.7498C17.25 63.5623 17.625 63.1873 18 63.1873C18 63.1873 19.5001 62.9998 21.3751 63.1873C21.9376 63.1873 22.875 63.3748 23.4375 63.7498H23.625C24.5625 63.9373 25.6876 64.6873 26.6251 65.0623C27.5626 65.2498 28.125 65.9998 29.0625 66.5623C30.375 65.2498 34.6875 61.6873 39.375 58.8748C40.6875 60.7498 42.1876 62.2498 43.8751 63.7498C45.9376 64.3123 47.0626 65.0623 48.5626 65.8123Z" fill="#4C9CA3"/>
<path d="M33.9375 72.5622C33.75 73.4997 32.4376 73.8747 30.9376 73.4997C29.0626 73.4997 26.6251 72.5623 23.8126 71.4373C21.7501 70.4998 20.0625 68.9998 18.9375 68.0623C17.4375 66.5623 16.875 65.0622 17.0625 64.1248C17.25 63.5623 18.0001 63.1873 18.5626 63.1873C20.4376 62.9998 23.8126 63.7498 27.1876 65.2498C30.5626 67.1248 32.6251 69.1872 33.5626 70.6872C33.9376 71.6247 33.9375 72.1872 33.9375 72.5622Z" fill="#1F1F35"/>
<path d="M38.625 62.0625C38.625 62.0625 36.5625 66.5625 33.75 70.3125C32.8125 71.625 31.875 72.375 30.9375 73.125C29.0625 73.125 26.8125 72.1875 24 71.0625C21.9375 70.125 20.2501 68.625 19.1251 67.6875C19.1251 66.375 18.9375 64.6875 18.9375 62.8125C18.9375 61.3125 18.9375 60 18.9375 59.0625C19.125 56.25 22.6875 52.875 22.6875 52.875H24C24 52.875 28.875 45.5625 30.1875 44.25C30.75 43.6875 33.375 44.0625 35.25 44.4375C36.5625 44.625 37.875 45.375 38.0625 45.9375C39 47.4375 39.9376 50.4375 39.7501 51.375C39.3751 51.5625 38.8126 51.9375 37.8751 51.5625C36.9376 51.375 35.6251 50.25 35.0626 48.75L32.8125 47.8125C32.25 48.75 31.875 49.6875 31.875 50.625V50.8125C31.875 50.8125 33.5625 51.375 34.6875 52.6875C35.25 53.25 35.6251 53.625 36.0001 54.1875L36.3751 55.5V56.0625L40.5 49.875L41.0626 49.3125C41.0626 49.875 45.5625 54 38.625 62.0625Z" fill="#FF8F6A"/>
<path d="M101.25 89.0625C101.25 89.0625 105.188 112.313 102.563 134.625C100.5 151.5 92.2501 173.812 87.9376 183C87.3751 181.5 86.6251 180 86.0626 178.125C112.5 125.437 94.6875 75 94.6875 75C98.0625 80.25 99.9375 89.0625 99.9375 89.0625C102.937 79.5 108.188 76.5 108.188 76.5C104.063 79.5 101.25 89.0625 101.25 89.0625Z" fill="#28878D"/>
<path d="M29.0625 79.8752L16.3125 120.375C16.3125 120.375 7.68756 125.625 -0.187439 122.25C12.7501 123.375 28.6875 80.4377 29.0625 79.8752Z" fill="#28878D"/>
<path d="M90 188.25H83.8126C68.8126 143.625 67.3126 114.75 68.8126 98.2502C70.3126 81.3752 74.625 73.5002 74.625 73.5002L72.1875 65.4377C72.75 65.2502 73.5 64.5002 74.0625 64.1252C75.5625 62.8127 76.875 61.6877 77.0625 61.1252L78 72.3752C61.6875 99.5627 75 147.375 83.4375 172.125C87.1875 181.688 90 187.875 90 188.25Z" fill="#C0A1D1"/>
<path d="M77.0625 185.437L38.8126 188.063H21.75C21.75 188.438 41.2501 90.5625 42.9376 80.4375C44.4376 70.125 48.75 66 48.75 66C48.75 66 48.75 66.1875 48.9375 66.5625C49.125 66.75 49.875 67.5 50.8125 68.0625C50.8125 68.25 54.5625 75.375 66.1875 73.875C66.1875 73.875 56.4375 76.6875 45.5625 72.5625L37.3126 185.25L77.0625 185.437Z" fill="#C0A1D1"/>
<path d="M50.25 112.688C49.6875 112.688 49.3125 112.5 49.3125 111.75V66.5625C50.25 66.5625 51.1875 67.125 51.1875 68.4375V111.937C51.1875 112.312 50.4375 112.688 50.25 112.688Z" fill="#C0A1D1"/>
<path d="M62.2501 58.3125C62.2501 58.5 62.0625 58.5 62.0625 58.875C59.0625 65.25 54.75 68.4375 54.5625 68.4375L50.0626 61.6875C50.0626 61.6875 49.5 61.6875 48.9375 61.5C47.25 60.5625 43.875 57.75 42.75 48.375C42.75 47.8125 42.7501 47.0625 42.5626 46.875C42.5626 45.5625 42.375 44.4375 42.375 43.125C42.375 42.1875 42.375 41.0625 42.375 39.75C42.375 37.875 42.3751 36.375 42.5626 34.875C43.1251 30.375 44.8126 26.8125 46.6876 24.75V58.125L62.2501 58.3125Z" fill="#F05E2B"/>
<path d="M63.5626 58.875C61.1251 60.375 56.2501 62.625 50.4376 61.3125C50.2501 61.3125 49.5 61.125 49.125 61.125C47.0625 60.1875 43.3126 57.1875 42.0001 46.125L47.25 42.1875H53.0625L59.25 46.125C59.25 46.125 65.625 47.4375 67.875 40.6875C67.875 48.5625 66.0001 54.75 63.5626 58.875Z" fill="#1F1F35"/>
<path d="M80.8125 52.6875C79.875 58.125 77.8125 60.375 77.8125 60.375C77.8125 60.375 77.625 60.5625 77.25 60.9375C76.6875 61.5 75.75 62.8125 74.25 63.9375C71.8125 66 67.8751 68.4375 62.6251 69.375C62.4376 69.375 61.6875 69.375 61.3125 69.5625C60.75 69.5625 60 69.5625 59.4375 69.5625C58.5 69.5625 57.5625 69.5625 56.625 69.5625C56.0625 69.5625 55.3125 68.625 55.6875 68.0625C55.6875 68.0625 75.9375 67.125 74.0625 36C72.75 17.4375 63.3751 11.8125 56.0626 10.6875C58.8751 10.6875 61.5 10.6875 64.125 11.25C69.9375 12.1875 74.8126 16.5 76.6876 21.9375C78.5626 27.375 80.625 34.6875 81.1875 41.8125C81.375 46.5 81.375 50.0625 80.8125 52.6875Z" fill="#C0A1D1"/>
<path d="M60 113.437C59.4375 113.437 59.0625 113.25 59.0625 112.5V66.3748H60.9375V112.5C60.9375 113.062 60.75 113.437 60 113.437Z" fill="#C0A1D1"/>
<path d="M94.5001 71.625L79.5001 72.5625L91.5 69.1875C90.9375 65.8125 89.0625 61.875 89.0625 61.875C89.0625 61.875 91.125 62.4375 94.3125 64.3125C94.5 68.625 94.5001 71.625 94.5001 71.625Z" fill="#28878D"/>
<path d="M37.125 52.3125C36.1875 52.125 35.0625 51 34.3125 49.5L32.25 48.5625C31.6875 49.5 31.3125 50.4375 31.3125 51.375V51.5625C31.3125 51.5625 32.8125 52.125 34.125 53.4375L33.1875 53.625L27.9376 52.125L30.9375 46.875L34.875 48.1875L37.125 52.3125Z" fill="#F05E2B"/>
<path d="M38.4375 62.4375C38.4375 62.4375 36.375 66.9375 33.5625 70.6875C32.625 72 31.6875 72.75 30.75 73.5C28.875 73.5 26.4375 72.5625 23.625 71.4375C21.5625 70.5 19.875 69 18.75 68.0625C27.5625 74.25 31.5 68.25 31.5 68.25C28.125 68.4375 26.25 62.0625 26.25 62.0625L21.9375 60.75H26.25L24.1875 57.75C24.1875 57.75 27 60.1875 27.1875 59.8125C27.75 59.625 28.5 57.75 28.5 57.75C28.5 57.75 28.5 58.3125 28.5 59.8125C28.5 61.125 29.4375 61.3125 29.4375 61.3125C29.625 65.8125 31.875 66.75 32.4375 65.8125C33 64.875 33 60.375 33 60.375L33.9375 59.0625L34.125 63.375C34.125 63.375 36.5625 64.3125 36.9375 62.4375C37.125 60.5625 36.375 57 36.375 57L40.6875 50.8125L41.25 50.25C41.0625 50.25 45.5625 54.5625 38.4375 62.4375Z" fill="#F05E2B"/>
<path d="M42.75 46.5C42.75 45.1875 42.3749 44.0625 42.3749 42.5625C41.9999 40.3125 42 38.0625 42 35.25C42 34.875 42 34.875 42 34.6875L35.625 44.625C36.9375 45 38.0625 45.5625 38.4375 46.3125C39.375 48 40.3125 51 40.125 52.125C39.5625 53.0625 36.5625 52.5 35.4375 49.3125L33.1875 48.375L32.8125 48.9375C32.4375 49.5 32.25 49.875 32.25 50.625V60.5625C32.25 61.875 33.9375 62.25 34.5 61.125L41.4374 50.625L43.3124 47.8125C42.7499 47.4375 42.75 46.6875 42.75 46.5Z" fill="#1F1F35"/>
<path d="M48.75 65.9998C48.75 65.9998 44.4375 70.3123 42.9375 80.4373C41.4375 90.7498 21.7499 188.437 21.7499 188.437L19.3125 226.687H-2.4375L10.3125 222.937L33.9374 76.6873L44.625 63.5623C45.9375 64.4998 47.25 65.4373 48.75 65.9998Z" fill="#28878D"/>
</g>
</svg>
