<svg width="293" height="401" viewBox="0 0 293 401" fill="none" xmlns="http://www.w3.org/2000/svg">
<path d="M142.469 400.06C190.016 400.06 228.56 395.986 228.56 390.961C228.56 385.936 190.016 381.862 142.469 381.862C94.9224 381.862 56.3781 385.936 56.3781 390.961C56.3781 395.986 94.9224 400.06 142.469 400.06Z" fill="#181461"/>
<path d="M193.165 9.20007H185.965V18.5001H193.165V9.20007Z" fill="#181461"/>
<path d="M204.863 13.4997C204.863 14.2996 204.563 15.0995 204.363 15.5995C204.063 15.8994 203.863 16.3994 203.563 16.6993C203.263 16.9993 203.063 17.1993 202.763 17.4993C202.263 17.7993 201.463 17.9992 200.663 17.9992H193.164V9.70005H194.764V6.80032C194.764 5.70043 195.564 4.70056 196.864 4.70056C197.364 4.70056 197.964 5.00053 198.164 5.20051C198.464 5.50048 198.664 6.00048 198.664 6.50043V8.9002H200.263C203.063 9.00019 204.863 11.1 204.863 13.4997Z" fill="#FF8A9C"/>
<path d="M217.816 8.55446L215.391 13.2672L219.214 15.2349L221.64 10.5222L217.816 8.55446Z" fill="#181461"/>
<path d="M226.461 15.9002C226.161 16.4002 225.661 17.0001 224.861 17.2001C224.361 17.5001 223.561 17.5002 222.961 16.9002L219.261 15.0002L221.361 10.7001L222.161 11.2001L222.961 9.60016C223.261 9.10016 224.061 8.80016 224.561 9.10016C224.861 9.40016 225.061 9.40021 225.061 9.90021C225.061 10.2002 225.061 10.4001 225.061 10.7001L224.561 12.0002L225.361 12.5002C226.461 13.0002 227.061 14.6002 226.461 15.9002Z" fill="#FF8A9C"/>
<path d="M204.274 29.3919L199.49 31.6736L202.374 37.7211L207.158 35.4394L204.274 29.3919Z" fill="#181461"/>
<path d="M213.162 28.6982C213.462 29.4981 213.462 30.2981 213.162 31.098C212.862 31.8979 212.362 32.3979 211.562 32.9978L206.763 35.3976L204.363 30.0981L205.463 29.5981L204.663 27.6983C204.363 26.8984 204.663 26.0984 205.463 25.7985C205.763 25.4985 206.263 25.4985 206.563 25.7985C206.863 25.7985 207.063 26.0985 207.363 26.5984L208.163 28.1982L209.262 27.6983C210.462 26.5984 212.362 27.0984 213.162 28.6982Z" fill="#FF8A9C"/>
<path d="M226.966 22.9036L222.182 25.1853L225.067 31.2328L229.851 28.9511L226.966 22.9036Z" fill="#181461"/>
<path d="M235.56 21.9988C235.86 22.7988 235.86 23.5987 235.56 24.3986C235.26 25.1985 234.76 25.6984 233.96 26.2983L229.16 28.6981L226.761 23.3987L227.86 22.8988L227.061 20.999C226.761 20.199 227.061 19.3991 227.86 19.0991C228.16 18.7992 228.66 18.7992 228.96 19.0991C229.26 19.0991 229.46 19.3991 229.76 19.8991L230.56 21.4989L231.66 20.999C233.16 19.8991 235.06 20.399 235.56 21.9988Z" fill="#FF8A9C"/>
<path d="M212.362 4.20063L208.362 11.0999L204.363 3.90073C203.063 1.50098 205.963 -1.19882 208.063 0.700985L208.362 1.001C210.462 -0.898802 213.662 1.5009 212.362 4.20063Z" fill="#DBD2D1"/>
<path d="M240.059 6.80026L233.96 11.8998L232.66 3.90065C232.16 1.00095 236.16 -0.399002 237.46 2.30072L237.76 2.80067C240.359 1.5008 242.259 5.20042 240.059 6.80026Z" fill="#DBD2D1"/>
<path d="M193.165 29.7983L189.465 32.9984L188.665 27.8984C188.365 25.9984 190.764 25.1983 191.564 26.7983L191.864 27.0983C193.164 26.5983 194.465 28.6983 193.165 29.7983Z" fill="#DBD2D1"/>
<path d="M204.363 15.6C204.063 15.9 203.863 16.4 203.563 16.7C203.263 17 203.064 17.2 202.764 17.5L199.264 15.9001C197.964 15.1001 197.664 13.5001 198.464 12.4001C198.964 11.6001 200.064 11.1 201.664 11.3L204.563 15C204.363 14.8 204.363 15.1 204.363 15.6Z" fill="#EF5472"/>
<path d="M205.663 11.6001V18.0002L199.763 14.5002C197.663 13.4002 198.963 10.2001 201.363 10.8001H201.663C202.263 8.70009 205.663 9.20014 205.663 11.6001Z" fill="#DBD2D1"/>
<path d="M125.971 163.284C125.971 163.284 138.77 128.888 138.77 105.99C138.77 104.39 138.77 103.091 138.47 101.491C136.57 79.0931 126.971 53.1957 126.971 53.1957L127.271 52.6957L129.671 48.3962H133.67H133.97L152.668 53.6956L155.568 56.5954L154.768 60.2949L154.468 62.1948C154.468 62.1948 160.867 112.59 162.767 129.388C163.267 135.787 164.667 142.187 165.667 147.486C166.167 149.386 166.467 150.986 166.967 152.586C168.567 158.485 169.866 162.485 169.866 162.485H125.871V163.284H125.971Z" fill="#DBD2D1"/>
<path d="M135.87 76.1933C135.87 76.1933 139.57 91.3918 138.77 106.29C138.77 104.69 138.77 103.391 138.47 101.791C136.57 79.393 126.971 53.4957 126.971 53.4957L127.271 52.9958L129.671 48.6962H132.57C137.37 53.1957 145.369 61.4949 146.169 64.3946L135.47 73.6936L135.87 76.1933Z" fill="#B2A4A3"/>
<path d="M134.271 48.9962L132.07 50.7961L129.971 48.6962H133.971L134.271 48.9962Z" fill="#260121"/>
<path d="M195.264 386.661C195.264 386.961 194.164 387.461 193.164 387.761C192.864 387.761 192.664 388.061 192.064 388.061C188.865 389.161 185.365 389.361 182.165 389.361H166.467L160.367 386.962V389.661H143.569V383.762C142.769 380.862 142.469 374.163 143.569 370.963C144.669 367.763 147.869 369.363 147.869 369.363L152.668 366.664L161.467 366.364H164.167L177.266 378.662C177.266 378.662 186.865 380.262 190.864 380.562C195.164 380.862 194.364 384.562 194.364 384.562C194.364 384.562 195.564 385.362 195.264 386.661Z" fill="#35052C"/>
<path d="M192.864 385.362C187.265 388.261 168.867 387.461 167.767 387.461C166.467 387.461 160.267 383.762 160.267 383.762H143.169C142.369 380.862 142.069 374.163 143.169 370.963C144.269 367.763 147.469 369.363 147.469 369.363L152.268 366.664L161.067 366.364C160.567 367.164 158.668 370.663 159.168 373.863L169.267 383.462C169.267 383.462 172.166 379.962 175.666 379.462C175.366 379.462 172.466 380.562 171.966 383.162C171.966 383.162 184.465 385.562 191.964 381.862C192.064 382.162 192.664 383.762 192.864 385.362Z" fill="#260121"/>
<path d="M122.571 394.161C121.771 394.161 120.672 394.161 119.672 394.161C109.273 394.161 106.373 393.661 106.373 393.661H104.273L101.073 393.361V387.261C101.073 377.662 103.973 373.663 103.973 373.663C103.973 373.663 109.873 368.363 113.272 366.964C113.772 366.664 114.572 366.664 114.872 366.664C116.972 366.964 118.072 369.063 118.572 370.163C118.572 370.463 118.572 370.463 118.872 370.663C118.872 370.663 118.872 370.663 118.872 370.963C123.171 378.462 127.971 383.462 130.37 384.862C132.77 386.162 131.97 389.161 131.97 389.161C134.27 391.761 131.07 393.861 122.571 394.161Z" fill="#35052C"/>
<path d="M122.571 394.161C122.271 394.161 122.071 394.161 121.771 394.161C121.471 394.161 121.271 394.161 121.271 394.161C120.771 394.161 120.172 394.161 119.672 394.161C109.273 394.161 106.373 393.661 106.373 393.661H104.273L101.073 393.361V387.761L104.573 388.061C104.573 388.061 106.973 391.761 108.873 392.061C109.973 392.361 115.772 390.961 121.671 390.161C126.471 389.361 130.97 388.861 132.57 389.061C134.27 391.761 131.07 393.861 122.571 394.161Z" fill="#DBD2D1"/>
<path d="M120.971 390.161C115.072 390.961 109.273 392.261 108.173 392.061C106.273 391.761 103.873 388.061 103.873 388.061L100.374 387.761V387.261C100.374 377.662 103.273 373.663 103.273 373.663C103.273 373.663 109.173 368.363 112.572 366.964C115.272 367.263 117.072 368.263 117.872 370.163C117.872 370.463 117.872 370.463 118.172 370.663C118.172 370.663 118.172 370.663 118.172 370.963C118.172 370.963 111.472 369.663 108.873 375.463C109.173 375.463 113.172 388.861 120.971 390.161C120.971 390.161 120.971 389.861 120.971 390.161Z" fill="#260121"/>
<path d="M122.571 394.161C122.271 394.161 122.071 394.161 121.771 394.161C121.471 394.161 121.271 394.161 121.271 394.161C120.771 394.161 120.172 394.161 119.672 394.161C109.273 394.161 106.373 393.661 106.373 393.661H104.273L101.073 393.361V387.761L104.573 388.061C104.573 388.061 106.973 391.761 108.873 392.061C109.973 392.361 115.772 390.961 121.671 390.161C120.971 390.961 121.171 392.861 122.571 394.161Z" fill="#7F6C6B"/>
<path d="M118.772 370.963C116.372 369.063 114.272 369.063 112.372 369.863C108.373 371.163 105.473 375.962 104.673 376.262C103.573 376.562 103.373 375.163 103.373 375.163V374.863L104.673 363.664L117.972 363.164V363.664L118.772 370.963Z" fill="#DBD2D1"/>
<path d="M117.972 363.564L112.072 369.663C108.073 370.963 105.173 375.763 104.373 376.063C103.273 376.363 103.073 374.963 103.073 374.963V374.663L104.373 363.464L117.672 362.964L117.972 363.564Z" fill="#7F6C6B"/>
<path d="M163.867 363.264L163.567 366.464H161.167C151.568 376.363 146.769 371.263 146.769 371.263L147.069 364.564L163.867 363.264Z" fill="#DBD2D1"/>
<path d="M163.867 363.264L161.167 366.164C151.568 376.063 146.769 370.963 146.769 370.963L147.069 364.264L163.867 363.264Z" fill="#7F6C6B"/>
<path d="M184.665 151.886C186.265 152.986 188.664 153.985 191.864 153.985C192.164 153.985 192.364 153.985 192.664 153.985C200.363 152.886 205.463 134.787 205.463 119.889C205.463 119.889 205.463 114.589 200.363 113.19C195.264 111.79 193.164 116.689 193.164 116.689L185.665 84.1925C184.065 77.2932 178.965 71.6938 172.366 69.4941L157.168 64.6945L155.268 61.1949L154.968 63.0947C154.968 63.0947 155.768 69.7941 157.068 79.3931C159.168 95.6914 162.167 119.889 163.167 130.588C163.667 134.887 164.267 138.887 165.067 142.887C167.167 154.585 170.366 163.684 170.366 163.684H126.371C126.371 163.684 140.769 124.488 139.17 102.091C138.37 92.1917 136.27 81.7928 133.87 72.9937C130.97 61.7949 127.971 53.7956 127.971 53.7956L128.271 53.2957H127.171L120.472 60.195L102.073 63.0947C95.674 64.1946 90.0746 68.3942 87.6749 74.5935C80.4756 92.1917 66.377 128.188 66.377 135.387C66.377 144.986 89.2747 170.584 89.2747 170.584L87.9748 176.183L81.5755 204.98C82.0754 205.28 92.7744 207.88 115.172 209.78C120.272 210.28 125.871 210.58 132.27 210.88C149.069 211.68 170.166 211.979 195.964 210.88L189.264 177.783L184.165 164.984L183.365 158.585L182.065 148.186C181.665 148.086 182.465 150.286 184.665 151.886ZM98.5737 112.39L99.8736 115.089L101.173 117.789L96.074 144.986L89.1747 135.687L98.5737 112.39Z" fill="#4D297C"/>
<path d="M121.471 80.9929L101.973 109.49L97.4739 144.986L115.572 165.484C115.572 165.484 129.671 138.587 133.47 127.388C137.17 116.089 134.47 109.49 121.471 80.9929Z" fill="#2F0D63"/>
<path d="M167.067 153.485L164.167 152.686L155.068 85.1924L147.869 72.0938L146.769 68.0942L151.868 71.2938L154.568 62.9948C154.568 62.9948 160.967 113.39 162.867 130.188C163.367 136.587 164.767 142.986 165.767 148.286C166.267 150.286 166.767 152.086 167.067 153.485Z" fill="#B2A4A3"/>
<path d="M112.672 172.683L122.771 183.882L114.472 209.48C92.0744 207.58 81.3755 204.68 80.8755 204.68L87.2749 175.883L88.5747 170.284C88.5747 170.284 65.6771 144.686 65.6771 135.087C65.6771 127.888 79.7757 91.8917 86.9749 74.2935C89.3747 68.1941 94.9741 63.8945 101.373 62.7946L119.772 59.895L126.471 52.9957H127.571L127.271 53.4957C127.271 53.4957 130.171 61.4948 133.17 72.6937L104.373 75.8934C104.373 75.8934 107.073 92.6917 101.673 108.99C101.173 111.09 100.374 112.99 99.7736 115.089C96.074 129.788 95.774 144.686 95.774 144.686C95.774 144.686 88.5747 147.386 84.8751 152.685L103.773 176.383L112.672 172.683Z" fill="#2F0D63"/>
<path d="M188.364 211.08L164.367 364.864H146.469L149.669 238.777V238.477C128.571 296.071 119.572 364.064 119.572 364.064H101.973C101.973 305.67 108.873 275.073 108.873 275.073L113.972 209.48L114.772 197.981L115.072 196.881L115.872 194.481L124.171 169.384L125.271 166.484L126.371 162.984H170.366C170.866 164.584 171.466 166.184 171.966 167.784C172.266 168.284 172.266 168.884 172.466 169.384C184.065 204.88 188.065 210.78 188.364 211.08Z" fill="#35052C"/>
<path d="M172.066 169.684L114.772 197.181L123.871 169.684H172.066Z" fill="#260121"/>
<path d="M213.962 84.8925L208.662 96.0913L207.563 98.4911L199.063 111.29L191.064 106.49L195.564 97.9912L204.063 82.2927C204.863 80.9928 206.163 80.3929 207.763 80.6929L212.862 81.9928C213.662 82.5927 214.462 83.8926 213.962 84.8925Z" fill="#260121"/>
<path d="M208.362 96.0913L207.263 98.4911L198.763 111.29L190.764 106.49L195.264 97.9912H204.563L206.463 95.5914L206.163 94.7914C205.363 93.1916 205.663 91.5917 206.463 90.2919H208.362C208.362 90.2919 208.662 92.6917 208.362 96.0913Z" fill="#11000F"/>
<path d="M205.663 119.889C205.663 119.889 200.863 147.386 192.864 153.985C192.564 153.985 192.364 153.985 192.064 153.985C188.565 153.985 186.465 152.886 184.865 151.886C182.465 150.286 181.665 148.186 181.665 148.186L182.965 158.585L162.667 169.284L162.367 163.384H169.566C169.566 163.384 166.367 154.285 164.267 142.587L182.365 132.687L183.465 83.8926L187.965 123.389L192.764 116.689L205.663 119.889Z" fill="#2F0D63"/>
<path d="M160.067 156.885L150.168 151.786L144.069 70.7939L135.77 75.8934L132.87 69.194L136.07 73.6936L143.269 67.2942L145.669 65.1945H148.069L150.468 66.7943L154.768 74.4936V62.7947C154.768 62.7947 155.568 69.494 156.868 79.0931L147.569 68.6941L160.067 156.885Z" fill="#7F6C6B"/>
<path d="M181.165 26.5984C179.565 34.2976 177.166 36.6973 175.066 37.2973C174.266 37.5973 173.466 37.2973 172.966 37.2973C175.866 27.9982 175.366 23.1988 172.466 19.3992C172.466 19.3992 171.166 22.5988 168.467 25.2985C165.267 28.4982 159.967 30.898 152.168 26.5984L146.869 33.2977L148.169 26.8984L144.469 24.7986C144.469 24.7986 144.169 21.899 140.969 21.899C137.77 21.899 138.07 28.7982 138.57 31.9979C138.87 34.0977 137.77 38.6971 135.67 44.2966C134.87 43.4966 134.57 42.3969 134.87 41.397L136.77 25.3986C133.87 21.399 132.77 10.2001 142.369 4.60069C143.169 4.10074 144.269 3.50075 145.069 3.30077C157.368 -1.7987 165.067 7.00047 165.067 7.00047C174.466 7.10046 184.065 12.1999 181.165 26.5984Z" fill="#260121"/>
<path d="M175.066 37.1973C174.266 37.4972 173.466 37.1973 172.966 37.1973C175.866 27.8982 175.366 23.0987 172.466 19.2991C172.466 12.8997 167.367 7.80028 164.767 6.20044C164.667 6.00046 185.165 12.1998 175.066 37.1973Z" fill="#11000F"/>
<path d="M173.166 36.9974C173.166 37.1974 173.166 37.1974 173.166 36.9974C172.366 39.6971 171.266 42.8967 169.666 46.2964C166.467 54.2956 162.767 56.6953 159.767 57.1953C157.068 57.6952 154.968 56.3954 154.968 56.3954L146.469 64.3946L141.969 59.8951L132.07 50.596C133.37 48.1962 134.47 45.7965 135.57 43.6967C137.97 38.0973 139.07 33.5978 138.47 31.398C137.97 28.4983 137.37 21.2989 140.869 21.2989C144.369 21.2989 144.369 24.1987 144.369 24.1987L148.069 26.2984L146.769 32.6978L152.068 25.9985C159.567 30.4981 164.867 27.8983 168.367 24.6986C169.466 23.5987 170.266 22.7988 170.766 21.7989C171.866 20.1991 172.366 18.8993 172.366 18.8993C175.566 23.0989 176.066 27.8983 173.166 36.9974Z" fill="#DB6D5E"/>
<path d="M159.867 57.4952C157.168 57.9952 155.068 56.6952 155.068 56.6952C155.068 56.6952 154.768 56.6953 154.568 56.3953C150.068 53.4956 143.869 55.2954 141.769 60.0949L131.87 50.7958C136.37 42.4967 138.77 34.4975 138.27 31.5978C137.77 28.6981 137.17 21.4989 140.669 21.4989C144.169 21.4989 144.169 24.3986 144.169 24.3986L147.869 26.4984L146.569 32.8978L151.868 26.1984L146.569 37.8972C144.669 41.8968 145.469 46.3964 148.669 49.3961C152.068 52.6957 156.068 56.1953 159.867 57.4952Z" fill="#BC473B"/>
<path d="M165.167 150.286L160.067 156.885L155.268 153.185L152.068 150.786L145.169 70.2939L143.269 67.3943L145.669 65.1945H148.069L150.268 67.0943L148.669 70.2939L164.867 148.886L165.167 150.286Z" fill="#260121"/>
<path d="M192.864 118.789C192.864 118.789 194.164 129.688 194.964 131.888C195.764 133.987 202.663 137.187 205.663 119.589L192.864 118.789Z" fill="#7F6C6B"/>
<path d="M205.463 118.789C205.463 120.889 204.363 122.789 202.763 123.889C201.663 124.688 200.363 125.188 199.063 125.188C196.364 125.188 194.264 123.589 193.164 121.489C192.864 120.689 192.664 119.889 192.664 119.089C192.664 117.189 193.464 115.589 194.764 114.289C195.864 113.189 197.464 112.69 199.063 112.69C201.163 112.69 203.363 113.789 204.363 115.589C205.163 116.389 205.463 117.489 205.463 118.789Z" fill="#11000F"/>
<path d="M211.862 96.0913C211.062 98.791 209.462 103.29 209.462 103.29C209.462 103.29 208.163 110.19 204.663 114.989C204.663 115.289 204.363 115.289 204.363 115.489L203.563 121.889L203.263 123.788C202.163 124.588 200.863 125.088 199.563 125.088C196.864 125.088 194.764 123.488 193.664 121.389C193.964 119.789 194.764 116.089 195.264 114.189C195.564 113.389 195.564 112.89 195.564 112.89C195.564 112.89 190.264 110.19 189.964 108.59C189.664 106.99 190.764 106.69 190.764 106.69H191.264L198.464 107.99C199.263 108.29 200.363 107.69 200.563 106.89C200.563 106.89 200.563 106.89 200.263 106.59C199.963 106.29 199.763 106.09 198.964 105.79C197.864 105.29 194.164 103.691 192.264 102.891C191.164 102.391 190.964 100.991 191.764 100.191C192.064 99.8908 192.264 99.8908 192.864 99.6909C194.164 99.6909 197.364 100.791 199.763 101.591C200.863 102.091 201.863 102.391 201.863 102.391H202.163C202.163 102.391 202.163 102.391 202.463 102.391C202.963 102.391 203.563 102.091 203.563 101.291V100.991L196.664 99.0909C195.864 98.791 195.364 97.991 195.864 97.1911C196.164 96.6912 196.664 96.0913 197.764 96.0913C198.064 96.0913 198.264 96.0913 198.564 96.0913C200.963 96.0913 203.063 96.5913 204.463 96.8912C204.963 96.8912 205.563 97.1911 205.763 97.1911L206.563 97.4911L207.863 95.0914L206.263 92.1916C205.963 91.3917 205.963 90.5918 206.563 90.0919C207.063 89.7919 207.663 89.5919 208.463 90.0919C210.262 91.5917 212.662 93.4915 211.862 96.0913Z" fill="#DB6D5E"/>
<path d="M115.572 165.484C115.572 165.484 115.572 165.984 115.072 167.084C114.272 169.184 112.372 173.183 107.873 177.783C105.773 179.883 103.073 182.282 99.5736 184.482C99.5736 184.482 100.873 179.183 104.873 174.083C106.973 171.184 110.173 168.184 114.172 166.384C114.572 165.984 115.072 165.684 115.572 165.484Z" fill="#260121"/>
<path d="M143.27 31.5987L143.77 25.6987C143.77 25.6987 142.469 22.1986 140.569 23.2986C139.069 24.9986 139.27 29.9987 143.27 31.5987Z" fill="#99231D"/>
<path d="M168.367 24.9986C165.167 28.1983 159.868 30.598 152.068 26.2984L146.769 32.9978L148.069 26.5984L144.369 24.4987C144.369 24.4987 144.069 21.5989 140.869 21.5989C137.67 21.5989 137.97 28.4982 138.47 31.6979C138.77 33.7977 137.67 38.3972 135.57 43.9967C134.77 43.1967 134.47 42.0968 134.77 41.0969L136.67 25.0986C133.77 21.099 132.67 9.90008 142.269 4.30066C138.57 7.50033 137.97 12.2999 148.669 18.6992C159.568 24.6986 165.167 25.4986 168.367 24.9986Z" fill="#11000F"/>
<path d="M173.166 36.9973C175.066 30.098 172.666 24.4986 171.066 22.0988C172.166 20.499 172.666 19.1991 172.666 19.1991C175.566 23.0987 176.066 27.8983 173.166 36.9973Z" fill="#BC473B"/>
<path d="M184.665 151.886C182.265 150.286 181.465 148.186 181.465 148.186L183.565 83.8926L184.665 151.886Z" fill="#260121"/>
<path d="M98.5737 112.39C98.5737 112.39 105.473 97.9911 103.873 76.8933C103.873 76.8933 107.373 89.692 101.973 120.389C98.7738 139.087 97.9738 144.686 97.9738 144.686L115.272 165.784L95.774 144.986L100.874 117.789L98.5737 112.39Z" fill="#260121"/>
<path d="M99.3736 184.382L87.3749 176.083L88.6748 170.484L99.3736 184.382Z" fill="#260121"/>
<path d="M114.572 198.281L113.772 209.78C92.1744 207.88 81.7755 205.28 80.9756 204.98C99.0737 208.18 112.172 204.98 112.172 204.98L114.572 198.281Z" fill="#11000F"/>
<path d="M172.066 169.684H123.771L124.871 166.784L125.971 163.284H169.966C170.466 165.684 171.266 167.884 172.066 169.684Z" fill="#260121"/>
<path d="M156.868 64.6945L164.367 69.7939L161.667 72.1937L168.567 74.2934C168.567 74.2934 170.666 98.791 163.767 129.488C163.767 129.488 170.966 109.49 169.666 73.7935L162.467 71.8938L165.167 69.7939L156.868 64.6945Z" fill="#260121"/>
<path d="M119.872 59.895L117.172 64.1945L122.771 67.6941L117.172 69.7939C117.172 69.7939 135.57 105.79 135.87 117.789C136.17 129.788 115.372 165.784 115.372 165.784C115.372 165.784 134.07 130.588 134.27 117.789C134.27 109.49 115.572 69.294 115.572 69.294L120.672 67.9942L115.572 64.7944L119.872 59.895Z" fill="#260121"/>
<path d="M199.863 101.991C200.963 102.491 201.963 102.791 201.963 102.791C201.463 102.491 200.863 102.291 199.863 101.991Z" fill="#BC473B"/>
<path d="M191.864 100.391C192.164 100.091 192.364 100.091 192.964 99.891C192.664 100.691 192.664 101.991 195.664 103.091C200.163 104.69 202.363 106.59 202.363 106.59C202.363 106.59 202.063 108.69 198.664 107.89C199.463 108.19 200.563 107.59 200.763 106.79C200.763 106.79 200.763 106.79 200.463 106.49C200.163 106.19 199.963 105.99 199.164 105.69C198.064 105.19 194.364 103.591 192.464 102.791C191.264 102.491 191.064 101.191 191.864 100.391Z" fill="#BC473B"/>
<path d="M203.263 121.989L202.963 123.889C201.863 124.688 200.563 125.188 199.263 125.188C196.564 125.188 194.464 123.589 193.364 121.489C193.664 119.889 194.464 116.189 194.964 114.289C195.264 113.489 195.264 112.99 195.264 112.99C195.264 112.99 189.964 110.29 189.665 108.69C189.365 107.09 190.464 106.79 190.464 106.79H190.964C190.664 107.89 190.664 109.99 196.864 111.89L196.564 122.289C196.664 121.989 200.863 123.888 203.263 121.989Z" fill="#BC473B"/>
<path d="M198.764 99.0912L205.164 101.191C205.164 101.191 204.664 103.591 202.264 102.791C202.264 102.791 202.264 102.791 202.564 102.791C203.064 102.791 203.664 102.491 203.664 101.691V101.391L196.764 99.4912C195.964 99.1912 195.464 98.3912 195.964 97.5912C196.264 97.0912 196.764 96.4912 197.864 96.4912C197.464 97.4912 197.964 98.4912 198.764 99.0912Z" fill="#BC473B"/>
<path d="M208.863 95.892L207.263 98.5919C207.263 98.5919 207.263 98.0919 206.463 97.7919L207.763 95.392L206.163 92.4919C205.863 91.6919 205.863 90.892 206.463 90.392C206.963 90.092 207.563 89.892 208.363 90.392C207.563 91.192 207.263 92.2919 208.063 93.2919L209.163 94.5919C209.163 95.0919 209.163 95.592 208.863 95.892Z" fill="#BC473B"/>
<path d="M212.183 85.2244C212.64 84.8244 212.775 84.2305 212.484 83.898C212.193 83.5656 211.586 83.6204 211.129 84.0204C210.672 84.4205 210.537 85.0142 210.828 85.3467C211.119 85.6792 211.726 85.6244 212.183 85.2244Z" fill="#DBD2D1"/>
<path d="M169.966 163.284H132.37L155.268 153.185L160.067 156.885L165.367 149.986L165.067 148.686L165.867 148.386C167.867 157.185 169.966 163.284 169.966 163.284Z" fill="#7F6C6B"/>
<path d="M165.167 150.286L160.067 156.885L155.268 153.185L164.867 148.886L165.167 150.286Z" fill="#11000F"/>
<path d="M188.365 211.079C177.666 198.581 165.467 171.084 165.467 171.084L171.566 168.184C171.866 168.684 171.866 169.284 172.066 169.784C184.065 204.88 188.065 210.779 188.365 211.079Z" fill="#260121"/>
<path d="M172.066 169.684H123.771L124.871 166.784L132.37 163.284H169.966C170.466 165.684 171.266 167.884 172.066 169.684Z" fill="#11000F"/>
<path d="M166.267 210.28L156.368 359.864L164.067 364.964H146.169L149.369 238.877C155.468 219.179 164.567 205.28 164.567 205.28L178.666 207.98L166.267 210.28Z" fill="#260121"/>
<path d="M122.271 281.372C115.072 299.47 111.072 360.564 111.072 360.564L119.072 364.064H101.473C101.473 305.67 108.373 275.073 108.373 275.073L113.472 209.48L114.272 197.981L114.572 196.881L115.372 194.481L135.87 185.382L122.271 281.372Z" fill="#260121"/>
<path d="M129.671 177.683C129.671 177.983 129.671 178.783 129.371 179.283C128.571 183.782 125.671 193.981 125.671 193.981C125.671 193.981 122.471 192.081 115.572 186.782C108.873 181.482 107.873 177.683 107.873 177.683L107.573 177.383L104.673 173.383C106.773 170.484 109.973 167.484 113.972 165.684L115.072 166.484L116.172 167.284C116.172 167.284 119.372 167.584 124.471 169.684C129.571 171.783 128.771 175.583 128.771 175.583L129.671 177.683Z" fill="#DB6D5E"/>
<path d="M129.671 177.683L129.371 179.283C128.571 183.782 125.671 193.981 125.671 193.981C125.671 193.981 122.471 192.081 115.572 186.782C108.873 181.482 107.873 177.683 107.873 177.683L107.573 177.383L104.673 173.383C106.773 170.484 109.973 167.484 113.972 165.684L115.072 166.484L116.172 167.284L112.172 174.183L124.671 185.382L129.671 177.683Z" fill="#BC473B"/>
<path d="M195.264 386.661C195.264 386.961 194.164 387.461 193.164 387.761C192.864 387.761 192.664 388.061 192.064 388.061C188.864 389.161 185.365 389.361 182.165 389.361H166.467L160.367 386.961V389.661H143.569V383.762H160.667C160.667 383.762 166.767 387.461 168.167 387.461C169.266 387.461 187.865 388.261 193.264 385.362C193.564 385.062 194.064 384.862 194.364 384.562C193.964 384.562 195.564 385.362 195.264 386.661Z" fill="#DBD2D1"/>
<path d="M109.473 377.063C111.372 375.963 115.372 374.363 121.471 374.963C121.971 374.963 122.271 375.263 122.571 375.463L123.371 376.762C123.671 377.062 123.371 377.562 122.871 377.562C120.771 377.262 114.872 377.263 110.372 379.962C109.573 380.462 108.773 379.962 108.473 379.162C108.673 378.462 108.973 377.662 109.473 377.063Z" fill="#DBD2D1"/>
<path d="M160.367 373.363C161.167 372.063 163.567 369.863 168.067 369.363C168.367 369.363 168.867 369.363 169.167 369.863L170.266 370.963C170.566 371.263 170.566 371.763 170.266 371.763C168.667 372.063 164.667 372.863 162.267 375.763C161.967 376.262 160.967 376.062 160.667 375.263C160.068 374.663 160.067 373.863 160.367 373.363Z" fill="#DBD2D1"/>
<path d="M163.867 377.363C164.667 376.063 167.067 373.863 171.566 373.363C171.866 373.363 172.366 373.363 172.666 373.863L173.766 374.963C174.066 375.263 174.066 375.763 173.766 375.763C172.166 376.063 168.167 376.862 165.767 379.762C165.467 380.262 164.467 380.062 164.167 379.262C163.567 378.662 163.567 377.862 163.867 377.363Z" fill="#DBD2D1"/>
<path d="M112.972 381.362C114.872 380.262 118.872 378.662 124.971 379.262C125.471 379.262 125.771 379.562 126.071 379.762L126.871 381.062C127.171 381.362 126.871 381.862 126.371 381.862C124.271 381.562 118.372 381.562 113.872 384.262C113.072 384.762 112.272 384.262 111.972 383.462C111.872 382.662 112.172 381.862 112.972 381.362Z" fill="#DBD2D1"/>
<path d="M193.164 388.061C192.864 388.061 192.664 388.361 192.064 388.361C188.864 389.461 185.365 389.661 182.165 389.661H166.467L160.367 387.261V389.961H143.569V384.062H160.667C160.667 384.062 166.767 387.761 168.167 387.761C169.266 387.761 187.865 388.561 193.264 385.662C193.164 386.162 193.164 386.961 193.164 388.061Z" fill="#7F6C6B"/>
<path d="M184.865 77.1931H142.169C138.17 77.1931 136.57 73.9935 138.47 69.9939L148.069 51.0958C150.168 47.0962 154.968 43.8966 158.968 43.8966H201.663C205.663 43.8966 207.263 47.0962 205.363 51.0958L195.764 69.9939C193.664 73.9935 188.864 77.1931 184.865 77.1931ZM158.268 44.9965C155.068 44.9965 151.068 47.6962 149.469 50.8959L139.869 69.7939C138.27 72.9935 139.57 75.6933 142.769 75.6933H185.465C188.664 75.6933 192.664 72.9935 194.264 69.7939L203.863 50.8959C205.463 47.6962 204.163 44.9965 200.963 44.9965H158.268Z" fill="#F9F3E3"/>
<path d="M157.668 58.595H153.368C151.768 58.595 150.968 57.2951 151.768 55.6953L153.868 51.3958C154.668 49.796 156.768 48.4961 158.368 48.4961H162.667C164.267 48.4961 165.067 49.796 164.267 51.3958L162.167 55.6953C161.467 57.1952 159.268 58.595 157.668 58.595Z" fill="#F9F3E3"/>
<path d="M195.064 52.6957H171.066C169.966 52.6957 169.766 51.8957 170.266 50.7958C170.766 49.6959 171.866 48.8961 172.966 48.8961H196.964C198.064 48.8961 198.264 49.6959 197.764 50.7958C197.164 51.8957 196.064 52.6957 195.064 52.6957Z" fill="#F9F3E3"/>
<path d="M195.564 57.7951H165.667C165.167 57.7951 164.867 57.2951 165.167 56.6952C165.467 56.1953 166.267 55.5953 166.767 55.5953H196.664C197.164 55.5953 197.464 56.0953 197.164 56.6952C196.864 57.1951 196.364 57.7951 195.564 57.7951Z" fill="#F9F3E3"/>
<path d="M193.464 62.2947H149.768C149.269 62.2947 148.969 61.7948 149.269 61.1948C149.569 60.6949 150.368 60.095 150.868 60.095H194.564C195.064 60.095 195.364 60.5949 195.064 61.1948C194.764 61.7948 193.964 62.2947 193.464 62.2947Z" fill="#F9F3E3"/>
<path d="M191.064 66.7942H147.369C146.869 66.7942 146.569 66.2943 146.869 65.6943C147.169 65.1944 147.969 64.5945 148.469 64.5945H192.164C192.664 64.5945 192.964 65.0944 192.664 65.6943C192.364 66.2943 191.564 66.7942 191.064 66.7942Z" fill="#F9F3E3"/>
<path d="M188.665 71.3938H144.969C144.469 71.3938 144.169 70.8938 144.469 70.2938C144.769 69.7939 145.569 69.194 146.069 69.194H189.764C190.264 69.194 190.564 69.6939 190.264 70.2938C190.264 71.0938 189.464 71.3938 188.665 71.3938Z" fill="#F9F3E3"/>
<path d="M64.9772 276.073H24.6813C11.3827 276.073 0.383789 265.174 0.383789 251.775C0.383789 238.477 11.2827 227.478 24.6813 227.478H64.9772C78.2758 227.478 89.2747 238.377 89.2747 251.775C89.1747 265.374 78.2758 276.073 64.9772 276.073Z" fill="#FFE1D7"/>
<path d="M31.8806 288.572H4.18346C2.08367 288.572 0.483826 286.972 0.483826 284.872C0.483826 282.772 2.08367 281.172 4.18346 281.172H31.8806C33.9804 281.172 35.5802 282.772 35.5802 284.872C35.5802 286.772 33.9804 288.572 31.8806 288.572Z" fill="#FFE1D7"/>
<path d="M87.0749 296.071H2.58359C1.4837 296.071 0.483826 294.971 0.483826 293.971C0.483826 292.871 1.58369 291.871 2.58359 291.871H87.0749C88.1748 291.871 89.1747 292.971 89.1747 293.971C89.1747 294.971 88.1748 296.071 87.0749 296.071Z" fill="#FFE1D7"/>
<path d="M87.0749 302.77H2.58359C1.4837 302.77 0.483826 301.67 0.483826 300.67C0.483826 299.57 1.58369 298.57 2.58359 298.57H87.0749C88.1748 298.57 89.1747 299.67 89.1747 300.67C89.1747 301.67 88.1748 302.77 87.0749 302.77Z" fill="#FFE1D7"/>
<path d="M87.0749 309.369H2.58359C1.4837 309.369 0.483826 308.269 0.483826 307.27C0.483826 306.17 1.58369 305.17 2.58359 305.17H87.0749C88.1748 305.17 89.1747 306.27 89.1747 307.27C89.1747 308.369 88.1748 309.369 87.0749 309.369Z" fill="#FFE1D7"/>
<path d="M87.0749 315.769H2.58359C1.4837 315.769 0.483826 314.669 0.483826 313.669C0.483826 312.569 1.58369 311.569 2.58359 311.569H87.0749C88.1748 311.569 89.1747 312.669 89.1747 313.669C89.1747 314.969 88.1748 315.769 87.0749 315.769Z" fill="#FFE1D7"/>
<path d="M87.0749 322.468H2.58359C1.4837 322.468 0.483826 321.368 0.483826 320.368C0.483826 319.268 1.58369 318.268 2.58359 318.268H87.0749C88.1748 318.268 89.1747 319.368 89.1747 320.368C89.1747 321.668 88.1748 322.468 87.0749 322.468Z" fill="#FFE1D7"/>
<path d="M87.0749 329.167H2.58359C1.4837 329.167 0.483826 328.067 0.483826 327.068C0.483826 325.968 1.58369 324.968 2.58359 324.968H87.0749C88.1748 324.968 89.1747 326.068 89.1747 327.068C89.1747 328.067 88.1748 329.167 87.0749 329.167Z" fill="#FFE1D7"/>
<path d="M17.7821 250.475C12.9825 250.475 8.98297 246.476 8.98297 241.676C8.98297 236.877 12.9825 232.877 17.7821 232.877C22.5816 232.877 26.5811 236.877 26.5811 241.676C26.5811 246.476 22.5816 250.475 17.7821 250.475Z" fill="#181461"/>
<path d="M79.0757 235.777H31.3806C30.8806 235.777 30.5807 235.477 30.5807 234.977C30.5807 234.477 30.8806 234.177 31.3806 234.177H79.0757C79.5757 234.177 79.8756 234.477 79.8756 234.977C79.8756 235.277 79.5757 235.777 79.0757 235.777Z" fill="#181461"/>
<path d="M79.0757 240.576H31.3806C30.8806 240.576 30.5807 240.276 30.5807 239.776C30.5807 239.276 30.8806 238.977 31.3806 238.977H79.0757C79.5757 238.977 79.8756 239.276 79.8756 239.776C79.8756 240.376 79.5757 240.576 79.0757 240.576Z" fill="#181461"/>
<path d="M79.0757 245.676H31.3806C30.8806 245.676 30.5807 245.376 30.5807 244.876C30.5807 244.376 30.8806 244.076 31.3806 244.076H79.0757C79.5757 244.076 79.8756 244.376 79.8756 244.876C79.8756 245.176 79.5757 245.676 79.0757 245.676Z" fill="#181461"/>
<path d="M79.0757 250.475H31.3806C30.8806 250.475 30.5807 250.175 30.5807 249.675C30.5807 249.176 30.8806 248.876 31.3806 248.876H79.0757C79.5757 248.876 79.8756 249.176 79.8756 249.675C79.8756 250.175 79.5757 250.475 79.0757 250.475Z" fill="#181461"/>
<path d="M79.0757 255.575H11.0827C10.5827 255.575 10.2828 255.275 10.2828 254.775C10.2828 254.275 10.5827 253.975 11.0827 253.975H79.0757C79.5757 253.975 79.8756 254.275 79.8756 254.775C79.8756 254.975 79.5757 255.575 79.0757 255.575Z" fill="#181461"/>
<path d="M79.0757 260.374H11.0827C10.5827 260.374 10.2828 260.074 10.2828 259.575C10.2828 259.075 10.5827 258.775 11.0827 258.775H79.0757C79.5757 258.775 79.8756 259.075 79.8756 259.575C79.8756 260.074 79.5757 260.374 79.0757 260.374Z" fill="#181461"/>
<path d="M79.0757 265.374H11.0827C10.5827 265.374 10.2828 265.074 10.2828 264.574C10.2828 264.074 10.5827 263.774 11.0827 263.774H79.0757C79.5757 263.774 79.8756 264.074 79.8756 264.574C79.8756 265.174 79.5757 265.374 79.0757 265.374Z" fill="#181461"/>
<path d="M79.3757 270.173H11.0827C10.7827 270.173 10.2828 269.873 10.2828 269.373C10.2828 269.073 10.5827 268.573 11.0827 268.573H79.3757C79.6756 268.573 80.1756 268.874 80.1756 269.373C79.8757 269.973 79.5757 270.173 79.3757 270.173Z" fill="#181461"/>
<path d="M268.056 200.881H227.761C214.462 200.881 203.463 189.982 203.463 176.583C203.463 163.284 214.362 152.285 227.761 152.285H268.056C281.355 152.285 292.354 163.184 292.354 176.583C292.354 190.282 281.355 200.881 268.056 200.881Z" fill="#FFE1D7"/>
<path d="M220.861 175.283C216.062 175.283 212.062 171.284 212.062 166.484C212.062 161.685 216.062 157.685 220.861 157.685C225.661 157.685 229.66 161.685 229.66 166.484C229.66 171.284 225.661 175.283 220.861 175.283Z" fill="#181461"/>
<path d="M282.155 160.685H234.46C233.96 160.685 233.66 160.385 233.66 159.885C233.66 159.385 233.96 159.085 234.46 159.085H282.155C282.655 159.085 282.955 159.385 282.955 159.885C282.955 160.085 282.755 160.685 282.155 160.685Z" fill="#181461"/>
<path d="M282.155 165.484H234.46C233.96 165.484 233.66 165.184 233.66 164.684C233.66 164.184 233.96 163.884 234.46 163.884H282.155C282.655 163.884 282.955 164.184 282.955 164.684C282.955 165.184 282.755 165.484 282.155 165.484Z" fill="#181461"/>
<path d="M282.155 170.484H234.46C233.96 170.484 233.66 170.184 233.66 169.684C233.66 169.184 233.96 168.884 234.46 168.884H282.155C282.655 168.884 282.955 169.184 282.955 169.684C282.955 169.984 282.755 170.484 282.155 170.484Z" fill="#181461"/>
<path d="M282.155 175.283H234.46C233.96 175.283 233.66 174.983 233.66 174.483C233.66 173.983 233.96 173.683 234.46 173.683H282.155C282.655 173.683 282.955 173.983 282.955 174.483C282.955 175.083 282.755 175.283 282.155 175.283Z" fill="#181461"/>
<path d="M282.155 180.383H214.162C213.662 180.383 213.362 180.083 213.362 179.583C213.362 179.083 213.662 178.783 214.162 178.783H282.155C282.655 178.783 282.955 179.083 282.955 179.583C282.955 179.883 282.755 180.383 282.155 180.383Z" fill="#181461"/>
<path d="M282.155 185.182H214.162C213.662 185.182 213.362 184.882 213.362 184.382C213.362 183.882 213.662 183.582 214.162 183.582H282.155C282.655 183.582 282.955 183.882 282.955 184.382C282.955 184.882 282.755 185.182 282.155 185.182Z" fill="#181461"/>
<path d="M282.155 190.281H214.162C213.662 190.281 213.362 189.982 213.362 189.482C213.362 188.982 213.662 188.682 214.162 188.682H282.155C282.655 188.682 282.955 188.982 282.955 189.482C282.955 189.682 282.755 190.281 282.155 190.281Z" fill="#181461"/>
<path d="M282.155 195.081H213.862C213.562 195.081 213.062 194.781 213.062 194.281C213.062 193.981 213.362 193.481 213.862 193.481H282.155C282.455 193.481 282.955 193.781 282.955 194.281C282.955 194.781 282.755 195.081 282.155 195.081Z" fill="#181461"/>
<path d="M268.056 260.374H227.761C214.462 260.374 203.463 249.475 203.463 236.077C203.463 222.778 214.362 211.779 227.761 211.779H268.056C281.355 211.779 292.354 222.678 292.354 236.077C292.354 249.375 281.355 260.374 268.056 260.374Z" fill="#FFE1D7"/>
<path d="M220.861 234.477C216.062 234.477 212.062 230.477 212.062 225.678C212.062 220.878 216.062 216.879 220.861 216.879C225.661 216.879 229.66 220.878 229.66 225.678C229.66 230.477 225.661 234.477 220.861 234.477Z" fill="#2F0D63"/>
<path d="M282.155 219.879H234.46C233.96 219.879 233.66 219.579 233.66 219.079C233.66 218.579 233.96 218.279 234.46 218.279H282.155C282.655 218.279 282.955 218.579 282.955 219.079C282.955 219.279 282.755 219.879 282.155 219.879Z" fill="#11000F"/>
<path d="M282.155 224.678H234.46C233.96 224.678 233.66 224.378 233.66 223.878C233.66 223.378 233.96 223.078 234.46 223.078H282.155C282.655 223.078 282.955 223.378 282.955 223.878C282.955 224.378 282.755 224.678 282.155 224.678Z" fill="#11000F"/>
<path d="M282.155 229.677H234.46C233.96 229.677 233.66 229.378 233.66 228.878C233.66 228.378 233.96 228.078 234.46 228.078H282.155C282.655 228.078 282.955 228.378 282.955 228.878C282.955 229.378 282.755 229.677 282.155 229.677Z" fill="#11000F"/>
<path d="M282.155 234.477H234.46C233.96 234.477 233.66 234.177 233.66 233.677C233.66 233.177 233.96 232.877 234.46 232.877H282.155C282.655 232.877 282.955 233.177 282.955 233.677C282.955 234.177 282.755 234.477 282.155 234.477Z" fill="#11000F"/>
<path d="M282.155 239.576H214.162C213.662 239.576 213.362 239.276 213.362 238.777C213.362 238.277 213.662 237.977 214.162 237.977H282.155C282.655 237.977 282.955 238.277 282.955 238.777C282.955 239.276 282.755 239.576 282.155 239.576Z" fill="#11000F"/>
<path d="M282.155 244.576H214.162C213.662 244.576 213.362 244.276 213.362 243.776C213.362 243.276 213.662 242.976 214.162 242.976H282.155C282.655 242.976 282.955 243.276 282.955 243.776C282.955 244.076 282.755 244.576 282.155 244.576Z" fill="#11000F"/>
<path d="M282.155 249.376H214.162C213.662 249.376 213.362 249.076 213.362 248.576C213.362 248.076 213.662 247.776 214.162 247.776H282.155C282.655 247.776 282.955 248.076 282.955 248.576C282.955 249.176 282.755 249.376 282.155 249.376Z" fill="#11000F"/>
<path d="M282.155 254.175H213.862C213.562 254.175 213.062 253.875 213.062 253.375C213.062 253.075 213.362 252.575 213.862 252.575H282.155C282.455 252.575 282.955 252.875 282.955 253.375C282.955 253.975 282.755 254.175 282.155 254.175Z" fill="#11000F"/>
</svg>
