<svg width="531" height="400" viewBox="0 0 531 400" fill="none" xmlns="http://www.w3.org/2000/svg">
<path d="M102.529 396.899C102.529 396.899 116.333 354.487 192.354 371.792C268.376 389.097 243.269 347.385 310.087 369.992C376.906 392.598 449.427 396.499 449.427 396.499C449.427 396.499 472.733 381.295 503.542 397.599L102.529 396.899Z" fill="#F9D8AD"/>
<path d="M72.5204 379.194C72.1203 387.296 61.5173 397.199 61.5173 397.199H23.7066C23.7066 397.199 13.1037 387.296 12.7035 379.194C12.3034 371.392 20.5057 378.494 20.8058 378.794C20.4057 378.394 14.1039 364.99 17.3048 358.988C20.5057 353.287 32.109 369.291 32.5091 369.991C32.109 369.291 23.0064 345.284 30.0084 340.983C33.9095 338.483 38.8109 345.885 42.712 353.387C46.213 345.985 51.2144 338.583 55.4156 340.983C62.5176 345.184 53.315 369.291 52.9149 369.991C53.315 369.291 64.9183 353.387 68.1192 358.988C71.3201 364.99 64.9183 378.394 64.6182 378.794C64.7182 378.494 73.2206 371.092 72.5204 379.194Z" fill="#FCBD4B"/>
<path d="M42.8121 353.087V396.899H24.0068C24.0068 396.899 13.4038 386.996 13.0037 378.894C12.6036 371.092 20.8059 378.194 21.106 378.494C20.7058 378.094 14.4041 364.69 17.605 358.688C20.8059 352.987 32.4091 368.991 32.8093 369.691C32.4091 368.991 23.3066 344.984 30.3086 340.683C34.3097 338.183 39.2111 345.585 42.8121 353.087Z" fill="#EFA42B"/>
<path d="M483.336 365.09C482.636 379.894 463.231 398.3 463.231 398.3H393.611C393.611 398.3 374.206 379.894 373.105 365.09C372.405 350.586 387.609 363.99 388.31 364.39C387.909 363.69 375.906 338.583 381.608 327.98C387.609 317.377 408.815 346.685 409.515 348.085C409.115 346.685 391.51 302.172 404.914 294.37C412.316 290.169 421.519 303.873 428.221 316.977C434.923 303.573 444.125 289.769 451.527 294.37C464.931 302.172 447.326 346.685 446.926 348.085C447.626 346.985 468.832 317.277 474.834 327.98C480.836 338.983 468.832 363.69 468.132 364.39C468.832 363.99 484.036 350.586 483.336 365.09Z" fill="#FCBD4B"/>
<path d="M428.121 316.977V398.3H393.111C393.111 398.3 373.705 379.894 372.605 365.09C371.905 350.586 387.109 363.99 387.809 364.39C387.409 363.69 375.406 338.583 381.107 327.98C387.109 317.377 408.315 346.685 409.015 348.085C408.615 346.685 391.01 302.172 404.414 294.37C412.216 289.769 421.119 303.573 428.121 316.977Z" fill="#EFA42B"/>
<path d="M440.924 324.779C442.025 325.879 444.125 325.179 444.125 323.378C444.125 316.676 442.725 309.975 440.224 304.273C439.824 303.173 438.123 302.872 437.023 303.573C436.623 303.973 436.623 303.973 436.323 304.273C435.623 304.973 435.623 305.673 435.923 306.374C438.023 311.275 439.124 316.976 439.124 322.978C439.124 323.378 439.524 324.079 439.824 324.379C440.224 324.379 440.524 324.379 440.924 324.779Z" fill="#E2B47D"/>
<path d="M347.198 331.881C347.598 331.481 347.598 330.78 347.598 330.48C347.198 328.38 346.898 325.879 346.898 323.378C346.898 300.372 363.903 281.266 386.109 277.765C387.209 277.765 387.509 276.665 387.509 275.965V275.265C387.509 274.164 386.409 273.164 385.409 273.464C361.002 276.965 342.296 298.171 342.296 323.678C342.296 326.479 342.697 329.38 342.997 332.181C343.397 333.981 345.497 334.281 346.198 332.881C346.798 332.581 347.198 332.181 347.198 331.881Z" fill="#E2B47D"/>
<path d="M412.916 366.491C412.216 365.79 411.516 365.79 410.416 366.09C405.114 368.191 399.112 369.591 393.111 369.591C389.61 369.591 386.009 369.191 382.808 368.491C382.108 368.091 381.007 368.491 380.707 369.191C379.607 370.592 380.307 372.392 382.108 372.692C385.609 373.392 389.51 374.093 393.411 374.093C400.113 374.093 406.514 372.692 412.516 370.192C414.017 369.691 414.417 367.891 412.916 366.491Z" fill="#E2B47D"/>
<path d="M432.022 294.67C432.422 294.27 432.422 294.27 432.722 293.97C433.422 293.27 433.422 292.17 432.722 291.469C424.62 281.567 413.317 274.865 399.813 273.064C398.712 273.064 397.712 273.764 397.712 274.865V275.565C397.712 276.665 398.412 277.365 399.513 277.365C411.516 279.166 422.119 285.168 429.521 294.37C429.921 295.371 431.322 295.771 432.022 294.67Z" fill="#E2B47D"/>
<path d="M168.247 361.189C168.247 362.99 170.048 363.69 171.048 362.99C176.35 358.788 180.551 353.487 183.452 347.785C184.152 346.685 183.452 345.285 182.051 344.984C181.651 344.984 181.351 344.984 181.351 344.984C180.651 344.984 179.951 345.385 179.551 346.085C177.05 350.986 173.549 355.287 168.948 359.188C168.548 359.589 168.247 359.889 168.247 360.589C168.247 360.089 168.247 360.789 168.247 361.189Z" fill="#E2B47D"/>
<path d="M103.629 293.27C104.029 293.27 104.73 292.87 105.03 292.57C106.43 290.769 108.231 289.369 109.931 287.668C127.636 273.164 153.443 274.264 170.048 289.069C170.748 289.769 171.849 289.769 172.549 289.069L173.249 288.669C174.349 287.968 174.349 286.568 173.249 285.868C154.844 269.263 126.936 268.163 107.13 284.067C105.03 285.868 102.929 287.968 101.129 290.069C100.028 291.169 101.129 293.27 102.529 293.27C102.929 293.27 103.229 293.27 103.629 293.27Z" fill="#E2B47D"/>
<path d="M118.433 366.09C118.433 365.39 118.033 364.29 117.333 363.99C112.432 361.189 107.83 357.588 103.929 352.687C101.829 349.886 99.7281 346.985 98.2277 344.184C97.8276 343.484 97.1274 342.784 96.1271 342.784C94.3266 342.784 93.6264 344.584 94.3266 345.985C96.1271 349.186 98.2277 352.687 100.328 355.487C104.529 360.789 109.831 364.69 115.132 367.891C116.633 368.991 118.133 367.891 118.433 366.09Z" fill="#E2B47D"/>
<path d="M185.952 335.382C186.353 335.382 186.353 335.382 186.653 335.382C187.753 335.382 188.453 334.682 188.753 333.981C191.254 321.578 189.153 308.174 182.351 296.871C181.651 295.771 180.551 295.771 179.551 296.471L178.85 296.871C178.15 297.571 177.75 298.671 178.45 299.372C184.852 309.675 186.553 321.978 184.452 333.281C184.252 334.282 184.952 335.382 185.952 335.382Z" fill="#E2B47D"/>
<path d="M393.111 249.057C378.607 249.057 364.803 253.259 353.5 260.761C332.594 273.864 318.89 297.171 318.89 323.678C318.89 364.69 352.099 397.899 393.111 397.899C409.716 397.899 424.92 392.198 437.623 383.095C443.325 378.894 447.926 374.293 452.128 368.591C460.23 357.988 465.531 345.285 466.932 331.481C467.332 328.98 467.332 326.179 467.332 323.678C467.732 282.367 434.122 249.057 393.111 249.057ZM439.124 354.787C435.923 359.689 431.722 363.99 427.121 367.491C417.918 374.593 406.215 378.794 393.511 378.794C363.102 378.794 337.995 354.087 337.995 323.278C337.995 303.473 348.598 285.768 364.503 275.865C373.005 270.563 382.908 267.763 393.511 267.763C423.92 267.763 449.027 292.47 449.027 323.278C449.027 325.379 449.027 327.479 448.627 329.68C447.226 338.883 444.025 347.385 439.124 354.787Z" fill="#4C9CA3"/>
<path d="M393.111 260.461C381.107 260.461 369.404 263.962 359.901 269.963C342.196 280.966 330.193 300.772 330.193 323.378C330.193 357.988 358.501 386.296 393.111 386.296C407.215 386.296 420.318 381.695 430.921 373.593C435.823 369.691 440.424 365.09 444.025 360.189C450.427 351.686 454.328 341.483 455.728 330.18C456.129 328.08 456.129 325.579 456.129 323.478C456.129 288.669 428.121 260.461 393.111 260.461ZM448.326 331.481C448.326 332.181 448.326 332.581 447.926 333.281C447.526 334.382 447.526 335.382 447.226 336.482C446.826 337.582 446.526 338.583 446.126 339.683C446.126 340.083 445.726 340.783 445.726 341.083C445.726 341.484 445.326 341.784 445.326 342.484C445.326 342.884 444.925 343.184 444.925 343.584C444.925 343.584 444.925 343.984 444.525 343.984C444.525 344.384 444.125 344.684 444.125 344.684C444.125 345.085 443.725 345.385 443.725 345.385V345.785C443.725 346.185 443.325 346.485 443.025 346.885C443.025 346.885 443.025 347.285 442.625 347.285C442.225 347.685 442.225 347.985 441.925 348.386C441.524 348.786 441.524 349.486 441.224 349.786C440.824 350.186 440.524 350.886 440.524 351.186C440.124 351.586 439.824 352.287 439.824 352.587C439.424 352.987 439.124 353.687 438.724 353.987C435.523 358.888 431.322 363.19 426.72 366.691C426.32 367.091 426.02 367.091 426.02 367.391C425.62 367.791 425.32 367.791 424.92 368.091C423.819 368.791 423.119 369.491 422.119 369.892C421.019 370.592 420.319 370.992 419.318 371.692C418.618 372.092 417.918 372.392 417.218 372.792C416.818 372.792 416.517 373.192 416.117 373.192C415.717 373.192 415.417 373.593 415.017 373.593C413.617 374.293 411.816 374.993 410.116 375.393C409.716 375.393 409.715 375.393 409.415 375.793C409.015 375.793 408.715 375.793 408.715 376.193C408.315 376.193 408.015 376.593 407.615 376.593C407.215 376.593 406.915 376.994 406.515 376.994C406.114 376.994 405.814 377.394 405.114 377.394C404.714 377.394 404.014 377.794 403.714 377.794C403.314 377.794 403.014 377.794 402.613 378.194C402.613 378.194 402.614 378.194 402.213 378.194C401.813 378.194 401.513 378.194 400.813 378.594C400.413 378.594 399.713 378.594 399.413 378.994C398.712 378.994 397.612 379.394 396.912 379.394C396.512 379.394 396.212 379.394 396.212 379.394C395.812 379.394 395.111 379.394 394.811 379.394C394.411 379.394 394.111 379.394 393.711 379.394C393.311 379.394 393.011 379.394 392.611 379.394C362.202 379.394 337.095 354.687 337.095 323.879C337.095 323.478 337.095 323.178 337.095 322.778C337.095 322.378 337.095 322.378 337.095 322.078C337.095 322.078 337.095 322.078 337.095 321.678C337.095 320.978 337.095 320.278 337.095 319.577C337.095 318.877 337.095 318.477 337.095 317.777C337.095 317.377 337.095 316.677 337.095 316.376C337.095 315.976 337.095 315.276 337.495 314.976C337.495 314.576 337.495 314.276 337.895 313.876V313.476C337.895 313.076 337.895 312.775 338.295 312.375C338.295 311.975 338.695 311.275 338.695 310.975C338.695 310.575 339.096 309.875 339.096 309.575C339.096 309.174 339.496 308.874 339.496 308.474C339.896 307.074 340.196 305.673 340.896 304.573C341.296 303.873 341.596 302.773 341.996 302.072C341.996 301.672 342.397 301.372 342.697 300.972C343.097 300.572 343.097 300.272 343.397 299.872C343.797 299.172 344.097 298.071 344.497 297.371C344.897 296.971 344.897 296.671 345.197 296.271C345.597 295.871 345.597 295.571 345.897 295.17C346.298 294.77 346.298 294.47 346.598 294.07C346.598 294.07 346.598 294.07 346.598 293.67C346.998 293.27 346.998 292.97 347.298 292.57C347.698 292.17 347.698 291.87 347.998 291.469C349.398 289.369 351.199 287.268 353.3 285.068C353.3 284.667 353.7 284.667 353.7 284.667C354.1 284.267 354.1 284.267 354.4 283.967C354.8 283.567 355.5 282.867 356.2 282.567C356.601 282.167 356.901 281.867 357.301 281.467C357.701 281.067 358.001 280.766 358.701 280.366C359.101 279.966 359.401 279.666 359.801 279.266C360.202 278.866 360.902 278.566 361.202 278.166C361.602 277.766 362.302 277.465 362.602 277.065C362.602 277.065 362.602 277.065 363.002 277.065C363.402 276.665 364.103 276.365 364.403 276.365C372.905 271.064 382.808 268.263 393.411 268.263C423.819 268.263 448.927 292.97 448.927 323.779C448.927 325.879 448.927 327.98 448.526 330.18C448.326 330.38 448.326 330.781 448.326 331.481Z" fill="#231F20"/>
<path d="M437.723 383.095C425.32 392.298 409.816 397.899 393.211 397.899C352.199 397.899 318.99 364.69 318.99 323.678C318.99 297.171 332.794 274.165 353.6 260.761L360.002 269.963C342.297 280.966 330.293 300.772 330.293 323.378C330.293 357.988 358.601 386.296 393.211 386.296C407.315 386.296 420.419 381.695 431.022 373.592L437.723 383.095Z" fill="#28878D"/>
<path d="M431.322 373.593C420.719 381.695 407.615 386.296 393.511 386.296C358.901 386.296 330.593 357.988 330.593 323.378C330.593 300.772 342.597 280.966 360.302 269.963L364.503 275.965C364.103 276.365 363.402 276.665 363.102 276.665C363.102 276.665 363.102 276.665 362.702 276.665C362.302 277.065 361.602 277.366 361.302 277.766C360.902 278.166 360.202 278.466 359.901 278.866C359.501 279.266 359.201 279.566 358.801 279.966C358.401 280.366 358.101 280.666 357.401 281.066C357.001 281.467 356.701 281.767 356.3 282.167C355.6 282.567 355.2 283.267 354.5 283.567C354.1 283.967 354.1 283.967 353.8 284.267L353.4 284.667C351.599 286.768 349.899 288.569 348.098 291.069C347.698 291.469 347.698 291.769 347.398 292.17C346.998 292.57 346.998 292.87 346.698 293.27C346.698 293.27 346.698 293.27 346.698 293.67C346.298 294.07 346.298 294.37 345.998 294.77C345.597 295.171 345.597 295.471 345.297 295.871C344.897 296.271 344.897 296.571 344.597 296.971C344.197 297.671 343.897 298.371 343.497 299.472C343.097 299.872 343.097 300.172 342.797 300.572C342.397 300.972 342.397 301.272 342.096 301.672C341.696 302.372 341.396 303.473 340.996 304.173C340.596 305.573 339.896 306.974 339.596 308.074C339.596 308.474 339.196 308.774 339.196 309.174C339.196 309.574 338.796 310.275 338.796 310.575C338.796 310.975 338.395 311.675 338.395 311.975C338.395 312.375 338.395 312.675 337.995 313.076V313.476C337.995 313.876 337.995 314.176 337.595 314.576C337.595 314.976 337.595 315.676 337.195 315.976C337.195 316.376 337.195 317.077 337.195 317.377C337.195 317.777 337.195 318.477 337.195 319.177C337.195 319.877 337.195 320.578 337.195 321.278C337.195 321.278 337.195 321.278 337.195 321.678C337.195 322.078 337.195 322.078 337.195 322.378C337.195 322.778 337.195 323.078 337.195 323.478C337.195 353.887 361.902 378.994 392.711 378.994C393.111 378.994 393.411 378.994 393.811 378.994C394.211 378.994 394.511 378.994 394.911 378.994C395.311 378.994 396.012 378.994 396.312 378.994C396.712 378.994 397.012 378.994 397.012 378.994C397.712 378.994 398.812 378.994 399.513 378.594C399.913 378.594 400.613 378.594 400.913 378.194C401.313 378.194 401.613 378.194 402.313 377.794C402.313 377.794 402.313 377.794 402.714 377.794C403.114 377.794 403.414 377.794 403.814 377.394C404.214 377.394 404.914 376.994 405.214 376.994C405.614 376.994 405.914 376.593 406.615 376.593C407.015 376.593 407.315 376.193 407.715 376.193C408.115 376.193 408.415 376.193 408.815 375.793C409.215 375.793 409.515 375.793 409.515 375.393C409.916 375.393 409.916 375.393 410.216 374.993C412.016 374.293 413.417 373.893 415.117 373.192C415.517 373.192 415.817 372.792 416.217 372.792C416.617 372.792 416.918 372.392 417.318 372.392C418.018 371.992 418.718 371.692 419.418 371.292C420.519 370.892 421.219 370.192 422.219 369.491C423.319 368.791 424.02 368.391 425.02 367.691C425.42 367.291 425.72 367.291 426.12 366.991C426.52 366.591 426.82 366.591 426.82 366.291L431.322 373.593Z" fill="#111010"/>
<path d="M181.351 262.161C171.848 255.759 160.845 251.558 149.142 249.758C145.941 249.358 142.74 249.057 139.639 249.057C123.035 249.057 107.43 254.759 95.1268 263.862C77.1218 277.265 65.4185 298.871 65.4185 323.278C65.4185 364.29 98.6278 397.499 139.639 397.499C155.944 397.499 171.148 392.198 183.152 383.395C201.857 369.992 213.96 348.085 213.96 323.278C213.86 297.871 200.857 275.665 181.351 262.161ZM171.848 368.291C162.646 374.993 151.743 378.894 139.339 378.894C108.931 378.894 83.8237 354.187 83.8237 323.378C83.8237 305.373 92.6261 289.069 106.13 279.166C115.333 272.064 127.036 267.863 139.339 267.863C141.44 267.863 143.54 267.863 145.741 268.263C154.544 269.363 163.046 272.464 170.148 277.065C184.952 286.968 194.855 303.973 194.855 323.378C194.855 342.084 185.952 358.388 171.848 368.291Z" fill="#4C9CA3"/>
<path d="M172.549 269.963C165.147 265.362 156.244 262.161 147.142 260.761C144.641 260.361 142.24 260.361 139.339 260.361C125.235 260.361 112.132 264.962 101.529 273.064C86.3244 284.767 76.4216 302.773 76.4216 323.278C76.4216 357.888 104.73 386.196 139.339 386.196C153.143 386.196 165.847 381.595 176.15 374.193C192.054 362.889 202.357 344.184 202.357 323.278C202.257 301.072 190.554 281.266 172.549 269.963ZM171.848 368.291C171.448 368.691 171.148 368.691 171.148 368.991C170.748 369.391 170.448 369.391 170.448 369.691C169.748 370.392 168.648 370.792 167.947 371.492C167.547 371.492 167.247 371.892 167.247 371.892C166.847 371.892 166.547 372.292 166.147 372.292C165.747 372.292 165.447 372.692 165.047 372.692C164.346 373.092 163.646 373.392 163.246 373.793C162.846 373.793 162.846 374.193 162.546 374.193C162.146 374.193 161.846 374.593 161.446 374.593C160.345 374.993 159.345 375.693 157.945 375.993C157.544 375.993 157.544 376.393 157.244 376.393C156.544 376.793 155.844 376.793 155.144 377.093C154.744 377.093 154.744 377.093 154.444 377.093C154.043 377.093 154.043 377.093 153.743 377.494C152.343 377.894 150.943 378.194 149.542 378.594C149.142 378.594 148.842 378.594 148.142 378.994C147.742 378.994 147.041 378.994 146.741 379.394C146.341 379.394 145.641 379.394 145.341 379.394C144.941 379.394 144.641 379.394 144.241 379.394C143.841 379.394 143.841 379.394 143.54 379.394C143.14 379.394 142.84 379.394 142.44 379.394C142.04 379.394 141.74 379.394 141.34 379.394C140.94 379.394 140.64 379.394 140.64 379.394C140.24 379.394 139.939 379.394 139.539 379.394C109.131 379.394 84.0237 354.687 84.0237 323.879C84.0237 323.478 84.0237 322.778 84.0237 322.478C84.0237 322.078 84.0237 321.778 84.0237 321.078C84.0237 320.678 84.0237 320.377 84.0237 319.977C84.0237 319.577 84.0237 319.277 84.0237 318.877C84.0237 318.877 84.0237 318.877 84.0237 318.477C84.0237 318.077 84.0237 317.777 84.0237 317.077V316.676C84.0237 316.276 84.0237 315.976 84.0237 315.976C84.0237 315.576 84.0237 315.576 84.0237 315.276C84.0237 314.176 84.4238 313.476 84.4238 312.475C84.4238 312.075 84.4238 311.775 84.8239 311.775C84.8239 311.375 84.8239 311.375 84.8239 311.075C84.8239 310.675 84.8239 310.675 84.8239 310.375C84.8239 309.975 85.224 309.675 85.224 309.274C85.224 308.874 85.6242 308.574 85.6242 308.174C85.6242 307.774 85.6242 307.774 86.0243 307.474C86.4244 306.774 86.7245 305.673 86.7245 304.973C86.7245 304.573 87.1246 304.273 87.1246 303.873V303.473C87.1246 303.073 87.5247 302.773 87.5247 302.372C87.5247 301.972 87.9248 301.672 87.9248 301.272C88.3249 300.572 88.3249 300.172 88.625 299.472C88.625 299.071 89.0251 299.072 89.0251 298.771C89.4252 298.371 89.4252 298.071 89.7253 297.671C90.1254 297.271 90.1254 296.971 90.4255 296.571C90.4255 296.571 90.4255 296.571 90.4255 296.171C90.4255 295.771 90.8256 295.47 90.8256 295.47C90.8256 295.47 90.8256 295.07 91.2257 295.07C91.2257 294.67 91.6259 294.67 91.6259 294.37C92.026 293.97 92.026 293.67 92.3261 293.27C92.7262 292.87 92.7262 292.57 93.0263 292.169C93.0263 291.769 93.4264 291.769 93.4264 291.469C93.8265 290.769 94.5267 290.069 95.2269 289.369C95.2269 288.969 95.627 288.969 95.627 288.669C96.0271 288.268 96.0271 287.968 96.3272 287.568C96.7273 287.168 97.0274 286.868 97.4275 286.468C97.8276 286.068 98.1277 285.768 98.5278 285.368C99.228 284.267 100.328 283.567 101.029 282.867C101.429 282.467 101.429 282.467 101.729 282.167C102.129 281.767 102.429 281.466 102.829 281.066C103.229 280.666 103.529 280.366 103.929 279.966C104.329 279.566 104.63 279.266 105.03 279.266C114.232 272.164 125.936 267.963 138.239 267.963C140.34 267.963 142.44 267.963 144.641 268.363C144.641 268.363 144.641 268.363 145.041 268.363C145.441 268.363 145.741 268.363 146.141 268.363C146.541 268.363 146.841 268.363 147.242 268.763C147.642 268.763 147.942 268.763 147.942 268.763H148.342C148.742 268.763 149.042 268.763 149.442 269.163C150.542 269.563 151.243 269.563 152.243 269.863C153.343 270.263 154.043 270.263 155.044 270.563C155.444 270.563 156.144 270.964 156.444 270.964C156.844 270.964 157.144 271.364 157.544 271.364H157.945C158.345 271.364 158.645 271.764 159.045 271.764C159.445 272.164 160.145 272.164 160.445 272.464C160.845 272.864 161.546 272.864 161.846 273.164C162.246 273.564 162.946 273.564 163.246 273.864C164.646 274.565 165.747 275.265 167.147 275.965C183.052 285.868 193.655 303.173 193.655 323.378C194.855 342.084 185.952 358.388 171.848 368.291Z" fill="#231F20"/>
<path d="M347.198 228.252L333.794 184.739L326.692 186.84L329.893 197.443L213.26 216.548L209.059 202.044L205.558 203.144L202.057 204.245L207.359 221.95L179.751 260.861L168.748 276.465L136.939 320.978L139.739 323.078V323.779V327.68L221.062 324.479L242.969 323.779L244.069 324.879L245.169 323.779L254.672 313.476L337.795 223.35L339.896 230.752C340.996 234.954 352.599 288.069 391.21 326.879L396.512 321.578C359.201 282.667 347.498 228.952 347.198 228.252ZM235.066 316.276L146.641 319.477L209.559 231.052L235.066 316.276ZM241.168 309.875L216.761 228.252L333.794 209.146V209.546L241.168 309.875Z" fill="#093B60"/>
<path d="M139.639 327.28L220.962 324.079C229.465 321.278 235.066 319.477 235.066 319.477L139.239 323.378L139.639 327.28Z" fill="#062C44"/>
<path d="M333.394 209.146L331.593 202.744L214.96 222.25L216.761 228.252L333.394 209.146Z" fill="#062C44"/>
<path d="M335.495 214.147L251.671 308.874C251.671 308.874 252.771 310.675 254.472 312.775L337.595 222.65L335.495 214.147Z" fill="#062C44"/>
<path d="M201.557 204.245L206.858 221.85L208.559 227.851L141.74 320.177L146.741 319.477L209.659 231.052L235.066 316.276L240.768 320.478L205.058 203.144L201.557 204.245Z" fill="#062C44"/>
<path d="M292.082 292.57L291.282 304.973L290.282 322.978L287.781 359.389V362.589H267.976L268.376 322.978V318.777L292.082 292.57Z" fill="#FF8F6A"/>
<path d="M290.282 322.978L287.781 359.389V362.589H267.976L268.376 322.978H290.282Z" fill="white"/>
<path d="M292.082 292.57L291.282 304.973L276.078 322.978H268.376V318.777L292.082 292.57Z" fill="#EA6044"/>
<path d="M287.781 359.389V362.589H267.976L268.376 322.978H276.078L274.677 324.779L273.677 357.988L287.781 359.389Z" fill="#F9D8AD"/>
<path d="M273.977 57.5033C273.977 57.5033 254.172 58.9038 254.172 84.7111V114.419C244.269 109.818 245.369 89.7124 254.572 71.6073C261.974 57.5033 265.575 47.2004 266.975 42.5991C269.776 51.5016 273.977 57.5033 273.977 57.5033Z" fill="#111010"/>
<path d="M139.339 329.08C142.488 329.08 145.041 326.527 145.041 323.378C145.041 320.23 142.488 317.677 139.339 317.677C136.19 317.677 133.638 320.23 133.638 323.378C133.638 326.527 136.19 329.08 139.339 329.08Z" fill="#231F20"/>
<path d="M393.111 329.08C396.26 329.08 398.813 326.527 398.813 323.378C398.813 320.23 396.26 317.677 393.111 317.677C389.962 317.677 387.409 320.23 387.409 323.378C387.409 326.527 389.962 329.08 393.111 329.08Z" fill="#231F20"/>
<path d="M320.99 207.746V243.056H317.489V250.858H256.672V246.657L280.679 244.156L281.079 175.537C281.079 173.436 283.58 172.036 285.28 173.036C285.981 173.436 286.381 174.136 286.681 174.837L300.785 221.55L318.79 214.848L317.69 208.846L320.99 207.746Z" fill="#F73C4F"/>
<path d="M302.685 250.858L301.985 256.159L297.384 283.367C296.284 290.469 293.183 296.771 288.581 302.072L260.273 334.982L238.667 360.089L237.567 361.489L222.363 349.086L230.465 338.483L233.666 334.581L243.969 321.178L254.972 306.674L258.473 302.072L261.274 298.171C265.875 291.769 268.376 284.067 268.376 276.265V251.958H302.685V250.858Z" fill="#FF8F6A"/>
<path d="M310.387 107.017C310.387 107.017 310.388 114.119 304.686 114.119C304.686 114.119 295.883 82.3104 273.877 57.5034C273.877 57.5034 269.676 51.5017 266.775 42.2991C264.675 35.5973 263.274 27.4949 264.275 18.9925C267.075 -1.51326 296.083 -5.41431 305.986 7.28927C315.889 20.393 307.087 26.3946 307.087 26.3946C307.087 26.3946 307.087 27.795 306.686 30.5958C306.686 34.0968 306.286 39.3983 306.286 45.4C306.686 57.8035 307.687 72.6077 312.288 80.71C320.991 96.7145 310.387 107.017 310.387 107.017Z" fill="#231F20"/>
<path d="M306.486 38.6982C305.386 43.9997 303.686 49.3011 299.785 51.8018C298.384 52.9021 296.284 53.6023 294.083 53.6023L290.882 60.0041C290.882 59.3039 290.182 53.3023 282.78 43.6996C274.678 33.7968 278.579 23.1938 278.579 23.1938C278.579 23.1938 295.884 14.6913 307.187 19.9928C307.187 19.9928 307.187 20.693 307.587 22.4935C307.287 25.2943 307.587 31.9963 306.486 38.6982Z" fill="#FF8F6A"/>
<path d="M327.392 396.899H261.274L262.674 389.497L267.975 362.589H287.781C287.781 362.589 289.882 382.395 309.687 382.395C319.59 382.395 324.191 385.896 325.992 389.797C328.092 393.398 327.392 396.899 327.392 396.899Z" fill="#FCBD4B"/>
<path d="M250.671 396.499H226.264L194.755 370.292L201.857 364.59L221.662 347.985L236.867 360.389C236.867 360.389 229.465 370.992 238.667 381.595C244.369 381.595 247.17 385.496 248.97 388.997C250.271 392.998 250.671 396.499 250.671 396.499Z" fill="#FCBD4B"/>
<path d="M282.48 25.6945C282.48 25.6945 278.279 52.2019 299.785 51.9018C298.384 53.0021 296.284 53.7024 294.083 53.7024L290.882 60.1041C290.882 60.1041 290.882 53.7023 282.78 43.7996C274.678 33.8968 278.579 23.2938 278.579 23.2938C278.579 23.2938 295.884 14.7913 307.187 20.0928C307.187 20.0928 307.187 20.793 307.587 22.5935C303.686 21.3932 292.383 20.6931 282.48 25.6945Z" fill="#EA6044"/>
<path d="M248.87 389.497C250.271 392.998 250.671 396.599 250.671 396.599H226.264L194.755 370.392L201.857 364.69L232.666 389.397H248.87V389.497Z" fill="white"/>
<path d="M327.392 396.899H261.274L262.674 389.497H325.992C328.092 393.398 327.392 396.899 327.392 396.899Z" fill="white"/>
<path d="M308.287 99.2152C310.788 92.5133 302.585 81.5101 295.884 74.108C289.182 66.3058 290.982 59.6039 290.982 59.6039L294.183 53.2022C296.284 53.2022 298.384 52.502 299.885 51.4016C303.786 48.9009 305.586 43.9996 306.587 38.298C306.587 40.3986 306.587 42.8992 306.587 45.4C305.886 57.4033 305.486 73.3079 308.387 79.7097C312.888 90.3127 308.687 98.515 308.287 99.2152Z" fill="#111010"/>
<path d="M320.991 207.746L318.19 208.446L319.29 214.448L301.285 221.15L287.181 174.436C286.781 173.736 286.481 173.036 285.781 172.636C283.98 171.536 281.579 173.036 281.579 175.137L281.179 243.756L275.878 244.456L257.173 246.557L254.372 246.957C254.372 246.957 254.372 163.133 254.372 114.419V84.7112C254.372 58.9039 274.177 57.5034 274.177 57.5034C293.583 79.4096 302.785 107.017 304.586 113.019C304.986 113.719 304.986 114.119 304.986 114.119C307.487 125.423 310.288 137.426 312.388 148.729C313.088 151.93 313.789 155.131 314.189 158.232L319.49 161.433C319.49 161.433 319.49 161.433 319.49 161.833C319.89 162.533 320.19 163.233 320.59 163.933C322.391 167.434 321.991 172.036 320.19 175.637C320.19 176.037 319.79 176.037 319.79 176.337L319.39 176.737L316.889 175.637C320.09 194.042 322.191 206.746 322.191 206.746L320.991 207.746Z" fill="#4C9CA3"/>
<path d="M337.995 181.238C337.995 181.238 336.895 181.939 335.195 181.939C334.494 179.138 331.694 177.337 328.793 177.337C326.692 177.337 324.892 178.037 323.891 179.438L321.391 176.237L319.99 175.537C321.791 172.036 322.091 167.735 320.39 163.833L324.291 166.334C324.291 166.334 332.394 168.135 334.194 170.235C336.195 172.336 337.995 181.238 337.995 181.238Z" fill="#FF8F6A"/>
<path d="M335.495 184.039C335.495 187.54 332.694 190.741 328.793 190.741C325.292 190.741 322.091 187.94 322.091 184.039C322.091 182.239 322.791 180.838 323.891 179.438C324.992 178.037 326.692 177.337 328.793 177.337C331.594 177.337 334.494 179.438 335.195 181.939C335.495 182.639 335.495 183.339 335.495 184.039Z" fill="#111010"/>
<path d="M321.691 152.93C321.691 152.93 321.291 157.532 319.89 161.433C319.89 161.833 319.49 162.133 319.49 162.533C319.49 162.533 319.49 162.533 319.49 162.133L314.189 158.932C313.488 155.731 313.088 152.53 312.388 149.429L321.691 152.93Z" fill="#DD2641"/>
<path d="M259.873 334.282L237.967 359.389L236.867 360.789L221.662 348.486L242.868 320.177L247.17 323.678L259.873 334.282Z" fill="white"/>
<path d="M301.585 255.859L276.878 257.26C276.878 257.26 277.978 285.868 268.376 297.571C264.175 302.873 255.272 313.476 247.17 323.779L242.969 320.278L260.273 297.271C264.875 290.869 267.375 283.167 267.375 275.365V250.958H302.385L301.585 255.859Z" fill="#EA6044"/>
<path d="M227.664 347.385L238.267 359.389L237.167 360.789L221.963 348.385L243.569 320.077L247.77 323.578C237.267 336.082 227.664 347.385 227.664 347.385Z" fill="#F9D8AD"/>
<path d="M257.373 301.072L242.869 320.177L229.765 337.482C223.063 333.581 218.462 326.179 218.462 317.677C218.462 304.973 228.765 294.67 241.468 294.67C247.87 294.67 253.471 297.171 257.373 301.072Z" fill="#F9D8AD"/>
<path d="M234.766 194.642C234.766 195.342 234.366 196.042 234.066 196.443C233.666 196.843 233.666 196.843 233.366 197.143C232.966 197.143 232.666 197.543 232.266 197.543C226.964 197.943 214.961 199.343 207.859 203.945C199.056 209.946 185.952 208.146 172.849 191.941H231.865C233.366 191.841 234.766 192.842 234.766 194.642Z" fill="#4C9CA3"/>
<path d="M218.461 373.592C218.461 374.292 218.061 374.692 217.361 374.692C216.661 374.692 216.261 374.292 216.261 373.592C216.261 372.892 216.661 372.492 217.361 372.492C218.161 372.492 218.461 373.192 218.461 373.592Z" fill="#33022D"/>
<path d="M220.262 377.093C220.869 377.093 221.362 376.6 221.362 375.993C221.362 375.385 220.869 374.893 220.262 374.893C219.654 374.893 219.162 375.385 219.162 375.993C219.162 376.6 219.654 377.093 220.262 377.093Z" fill="#33022D"/>
<path d="M285.28 386.996C285.68 387.396 285.68 388.096 284.88 388.396C284.48 388.796 283.78 388.796 283.48 387.996C283.08 387.596 283.08 386.896 283.88 386.596C284.28 386.596 284.98 386.596 285.28 386.996Z" fill="#33022D"/>
<path d="M289.181 387.296C289.581 387.696 289.581 388.396 288.781 388.696C288.381 389.096 287.681 389.096 287.381 388.296C286.981 387.596 286.981 387.196 287.781 386.896C288.181 386.596 288.881 386.596 289.181 387.296Z" fill="#33022D"/>
<path d="M320.99 207.746L318.19 208.446L319.29 214.448L301.285 221.15L287.181 174.436C286.781 173.736 286.481 173.036 285.781 172.636C283.98 171.536 281.579 173.036 281.579 175.137L281.179 243.756L257.172 246.257V250.458H285.08V206.245C285.08 201.644 291.782 200.544 293.183 205.145L298.084 221.05L303.786 250.358H307.687L299.885 224.15L305.886 221.65L312.588 249.958H316.489L305.886 221.35L321.491 214.948V207.546H320.99V207.746Z" fill="#DD2641"/>
<path d="M286.781 250.858H290.282L287.481 213.047L286.781 250.858Z" fill="#DD2641"/>
<path d="M295.883 250.858H299.084L292.082 217.949L295.883 250.858Z" fill="#DD2641"/>
<path d="M179.251 260.761L172.549 269.963C165.147 265.362 156.244 262.161 147.141 260.761L149.242 249.458C160.145 251.258 170.448 255.159 179.251 260.761Z" fill="#28878D"/>
<path d="M172.549 269.963L168.348 275.965C166.947 275.265 165.847 274.565 164.446 273.864C164.046 273.464 163.746 273.464 163.046 273.164C162.646 272.764 162.346 272.764 161.646 272.464C161.246 272.064 160.545 272.064 160.245 271.764C159.845 271.764 159.545 271.364 159.145 271.364H158.745C158.345 271.364 158.045 270.964 157.645 270.964C157.244 270.964 156.544 270.563 156.244 270.563C155.144 270.163 154.444 269.863 153.443 269.863C152.343 269.463 151.643 269.463 150.643 269.163C150.242 269.163 149.942 269.163 149.542 268.763H149.142C148.742 268.763 148.442 268.763 148.442 268.763C148.042 268.763 147.742 268.763 147.342 268.363C146.941 268.363 146.641 268.363 146.241 268.363C146.241 268.363 146.241 268.363 145.841 268.363L147.242 260.961C156.244 262.161 165.147 265.362 172.549 269.963Z" fill="#111010"/>
<path d="M183.152 383.495C170.748 392.298 155.944 397.599 139.639 397.599C98.6278 397.599 65.4185 364.39 65.4185 323.378C65.4185 298.972 77.1218 277.465 95.1268 263.962L101.829 273.164C86.6245 284.868 76.7217 302.873 76.7217 323.378C76.7217 357.988 105.03 386.296 139.639 386.296C153.443 386.296 166.147 381.695 176.45 374.293L183.152 383.495Z" fill="#28878D"/>
<path d="M176.45 374.593C166.147 381.995 153.443 386.596 139.639 386.596C105.03 386.596 76.7216 358.288 76.7216 323.678C76.7216 303.173 86.6244 284.768 101.829 273.464L106.43 279.466C106.03 279.866 105.73 280.166 105.33 280.166C104.93 280.566 104.629 280.866 104.229 281.267C103.829 281.667 103.529 281.967 103.129 282.367C102.729 282.767 102.729 282.767 102.429 283.067C101.329 283.767 100.628 284.868 99.9281 285.568C99.528 285.968 99.2279 286.268 98.8278 286.668C98.4277 287.068 98.1276 287.368 97.7275 287.768C97.3274 288.169 97.3274 288.469 97.0273 288.869C97.0273 289.269 96.6272 289.269 96.6272 289.569C95.927 290.269 95.5269 290.969 94.8267 291.669C94.8267 292.07 94.4266 292.07 94.4266 292.37C94.0265 292.77 94.0265 293.07 93.7264 293.47C93.3263 293.87 93.3263 294.17 93.0262 294.57C93.0262 294.97 92.6261 294.97 92.6261 295.271C92.6261 295.271 92.6261 295.671 92.226 295.671C91.8258 296.071 91.8259 296.371 91.8259 296.371C91.8259 296.371 91.8259 296.371 91.8259 296.771C91.4257 297.171 91.4257 297.471 91.1257 297.871C90.7255 298.271 90.7255 298.571 90.4255 298.972C90.4255 299.372 90.0253 299.372 90.0253 299.672C89.6252 300.372 89.3251 300.772 89.3251 301.472C88.925 301.872 88.925 302.172 88.925 302.573C88.925 302.973 88.5249 303.273 88.5249 303.673V304.073C88.5249 304.473 88.1248 304.773 88.1248 305.173C87.7247 305.873 87.4246 306.974 87.4246 307.674C87.4246 308.074 87.4246 308.074 87.0245 308.374C87.0245 308.774 86.6244 309.074 86.6244 309.475C86.6244 309.875 86.2243 310.175 86.2243 310.575C86.2243 310.975 86.2243 310.975 86.2243 311.275C86.2243 311.675 86.2243 311.675 86.2243 311.975C86.2243 312.375 86.2243 312.675 85.8242 312.675C85.424 313.776 85.424 314.476 85.424 315.476C85.424 315.876 85.424 315.876 85.424 316.176C85.424 316.576 85.424 316.877 85.424 316.877V317.277C85.424 317.677 85.424 317.977 85.424 318.677C85.424 318.677 85.424 318.677 85.424 319.077C85.424 319.477 85.424 319.777 85.424 320.177C85.424 320.578 85.424 320.878 85.424 321.278C85.424 321.678 85.424 321.978 85.424 322.678C85.424 323.078 85.424 323.779 85.424 324.079C85.424 354.487 110.131 379.594 140.94 379.594C141.34 379.594 141.64 379.594 142.04 379.594C142.44 379.594 142.74 379.594 142.74 379.594C143.14 379.594 143.44 379.594 143.841 379.594C144.241 379.594 144.541 379.594 144.941 379.594C145.341 379.594 145.341 379.594 145.641 379.594C146.041 379.594 146.341 379.594 146.741 379.594C147.141 379.594 147.842 379.594 148.142 379.594C148.542 379.594 149.242 379.594 149.542 379.194C149.942 379.194 150.242 379.194 150.943 378.794C152.343 378.394 153.743 378.094 155.144 377.694C155.544 377.694 155.544 377.694 155.844 377.294C156.244 377.294 156.244 377.294 156.544 377.294C157.244 376.894 157.944 376.893 158.645 376.593C159.045 376.593 159.045 376.593 159.345 376.193C160.445 375.793 161.846 375.493 162.846 374.793C163.246 374.793 163.546 374.393 163.946 374.393C164.346 374.393 164.346 373.993 164.646 373.993C165.347 373.593 166.047 373.293 166.447 372.892C166.847 372.892 167.147 372.492 167.547 372.492C167.947 372.492 168.247 372.092 168.648 372.092C169.048 372.092 169.348 371.692 169.348 371.692C170.448 371.292 171.148 370.592 171.848 369.892C172.249 369.491 172.549 369.491 172.549 369.191C172.949 368.791 173.249 368.791 173.249 368.491L176.45 374.593Z" fill="#111010"/>
<path d="M467.032 331.481C465.631 345.285 460.33 358.388 452.228 368.591L444.425 360.089C450.827 351.586 454.728 341.384 456.129 330.08L467.032 331.481Z" fill="#28878D"/>
<path d="M455.728 330.38C454.628 341.383 450.427 351.586 444.025 360.389L438.724 354.687C439.124 354.287 439.424 353.587 439.824 353.287C440.224 352.887 440.524 352.187 440.524 351.886C440.924 351.486 441.224 350.786 441.224 350.486C441.625 350.086 441.624 349.386 441.925 349.086C442.325 348.685 442.325 348.385 442.625 347.985C442.625 347.985 442.625 347.585 443.025 347.585C443.425 347.185 443.425 346.885 443.725 346.485V346.085C443.725 345.685 444.125 345.385 444.125 345.385C444.125 344.984 444.525 344.684 444.525 344.684C444.525 344.684 444.525 344.284 444.925 344.284C444.925 343.884 445.326 343.584 445.326 343.184C445.326 342.784 445.726 342.484 445.726 341.784C446.126 341.383 446.126 340.683 446.126 340.383C446.526 339.283 446.826 338.283 447.226 337.182C447.626 336.082 447.626 335.082 447.926 333.981C447.926 333.281 448.326 332.881 448.326 332.181C448.326 331.481 448.326 331.081 448.727 330.38H455.728Z" fill="#111010"/>
<path d="M277.878 378.194C281.027 378.194 283.58 375.641 283.58 372.492C283.58 369.343 281.027 366.791 277.878 366.791C274.729 366.791 272.177 369.343 272.177 372.492C272.177 375.641 274.729 378.194 277.878 378.194Z" fill="#F9D8AD"/>
<path d="M222.363 366.891C225.512 366.891 228.064 364.338 228.064 361.189C228.064 358.04 225.512 355.487 222.363 355.487C219.214 355.487 216.661 358.04 216.661 361.189C216.661 364.338 219.214 366.891 222.363 366.891Z" fill="#F9D8AD"/>
<path d="M320.29 175.537C320.29 175.937 319.89 175.937 319.89 176.237L319.49 176.637L316.989 175.537C310.287 173.436 274.877 159.232 269.976 152.53C265.075 145.828 264.675 118.921 264.675 118.921L289.382 117.12L292.182 141.827L313.788 158.132L319.09 161.333C319.09 161.333 319.09 161.333 319.09 161.733C319.49 162.433 319.79 163.133 320.19 163.833C322.091 167.735 322.091 172.036 320.29 175.537Z" fill="#F73C4F"/>
<path d="M317.189 175.937C316.489 175.537 289.582 169.235 276.178 163.533L275.478 244.456L256.772 246.557L253.972 246.957C253.972 246.957 253.972 163.133 253.972 114.419V84.7112C253.972 58.9039 273.777 57.5034 273.777 57.5034C293.183 79.4096 302.385 107.017 304.186 113.019C301.685 106.617 287.881 74.5083 274.177 66.7061C274.177 66.7061 263.874 67.8064 265.375 87.2119C265.375 87.2119 268.176 138.126 271.076 148.329C273.977 158.532 295.883 167.034 317.189 175.937Z" fill="#28878D"/>
<path d="M313.989 158.632C313.989 158.632 293.083 144.828 291.682 143.428C290.282 142.027 286.381 104.217 285.28 93.2135C284.88 90.0126 283.48 86.8117 281.379 84.411C278.879 81.6102 274.677 78.7095 267.976 80.2099C267.976 80.2099 277.878 75.3085 285.28 87.3119C286.381 89.1124 287.081 91.213 287.381 93.3135C288.781 103.616 294.083 138.926 295.183 140.727C296.284 142.327 313.989 158.632 313.989 158.632Z" fill="#28878D"/>
<path d="M253.171 304.573C249.97 301.372 245.769 299.672 240.768 299.672C230.865 299.672 223.063 307.474 223.063 317.377C223.063 323.779 226.564 329.78 231.865 332.581L232.966 333.681L243.269 320.278L254.272 305.773L253.171 304.573Z" fill="#E2B47D"/>
<path d="M232.966 197.143C232.566 197.143 232.266 197.543 231.865 197.543C226.564 197.943 214.561 199.343 207.459 203.945C198.656 209.946 185.552 208.146 172.449 191.941C173.849 193.342 186.253 206.045 203.958 201.144C216.361 197.443 227.364 197.143 232.966 197.143Z" fill="#28878D"/>
<path d="M289.182 366.791C289.882 366.791 290.582 367.191 290.982 367.891C292.382 370.692 297.384 379.594 306.887 380.594C307.587 380.594 308.287 381.295 308.287 382.395C308.287 383.495 307.587 384.195 306.486 384.195C302.585 383.795 292.683 381.695 287.781 369.691C287.081 368.291 288.181 366.791 289.182 366.791Z" fill="#4A0B40"/>
<path d="M235.866 362.99C236.567 363.39 236.967 364.09 236.567 364.79C235.866 367.291 234.466 373.292 237.967 378.594C238.667 379.294 238.367 380.695 237.267 381.095C236.567 381.495 235.866 381.095 235.466 380.695C233.666 378.594 230.565 372.592 233.366 363.69C233.666 362.589 234.766 362.289 235.866 362.99Z" fill="#4A0B40"/>
<path d="M530.35 396.499H0V400H530.35V396.499Z" fill="#F9D8AD"/>
</svg>
