<svg width="100" height="100" viewBox="0 0 100 100" fill="none" xmlns="http://www.w3.org/2000/svg">
<path d="M50 60.9375C49.0729 60.9375 48.1666 60.6626 47.3958 60.1475C46.6249 59.6324 46.0241 58.9004 45.6693 58.0438C45.3145 57.1873 45.2217 56.2448 45.4026 55.3355C45.5834 54.4262 46.0299 53.591 46.6854 52.9354C47.341 52.2799 48.1762 51.8334 49.0855 51.6526C49.9948 51.4717 50.9373 51.5645 51.7938 51.9193C52.6504 52.2741 53.3825 52.8749 53.8975 53.6458C54.4126 54.4166 54.6875 55.3229 54.6875 56.25C54.6875 57.4932 54.1936 58.6855 53.3146 59.5646C52.4355 60.4436 51.2432 60.9375 50 60.9375ZM50 54.6875C49.691 54.6875 49.3889 54.7791 49.1319 54.9508C48.875 55.1225 48.6747 55.3665 48.5564 55.6521C48.4382 55.9376 48.4072 56.2517 48.4675 56.5548C48.5278 56.8579 48.6766 57.1363 48.8951 57.3549C49.1137 57.5734 49.3921 57.7222 49.6952 57.7825C49.9983 57.8428 50.3124 57.8118 50.5979 57.6936C50.8835 57.5753 51.1275 57.375 51.2992 57.1181C51.4709 56.8611 51.5625 56.559 51.5625 56.25C51.5625 55.8356 51.3979 55.4382 51.1049 55.1451C50.8118 54.8521 50.4144 54.6875 50 54.6875Z" fill="#D6E4E8"/>
<path d="M82.8125 1.5625H17.1875C15.4616 1.5625 14.0625 2.96161 14.0625 4.6875V10.9375C14.0625 12.6634 15.4616 14.0625 17.1875 14.0625H82.8125C84.5384 14.0625 85.9375 12.6634 85.9375 10.9375V4.6875C85.9375 2.96161 84.5384 1.5625 82.8125 1.5625Z" fill="#D6E4E8"/>
<path d="M50 57.8125L54.6875 73.4375H70.3125L59.375 82.8125L64.0625 98.4375L50 89.0625L35.9375 98.4375L40.625 82.8125L29.6875 73.4375H45.3125L50 57.8125Z" fill="#F8C460"/>
<path d="M50 84.375L37.6953 92.5781L35.9375 98.4375L50 89.0625L64.0625 98.4375L62.3047 92.5781L50 84.375Z" fill="#FAAF42"/>
<path d="M79.6875 34.375L50 51.5625L20.3125 34.375V7.8125H79.6875V34.375Z" fill="#62B5E8"/>
<path d="M25 22.0016V7.8125H20.3125V34.375L50 51.5625L53.6937 49.425L34.3563 38.2281C31.5111 36.5811 29.1489 34.2149 27.5068 31.3669C25.8646 28.5188 25.0001 25.2891 25 22.0016V22.0016Z" fill="#44A7D8"/>
<path d="M50 51.5625L65.625 42.5172V7.8125H34.375V42.5172L50 51.5625Z" fill="#F96464"/>
<path d="M34.375 38.2407V42.5173L50 51.5626L53.6937 49.4251L34.375 38.2407Z" fill="#D34444"/>
</svg>
