<svg width="36" height="36" viewBox="0 0 36 36" fill="none" xmlns="http://www.w3.org/2000/svg">
<path d="M22.7537 27.1466V33.8901H13.3979V27.1466C13.3986 26.2313 13.7626 25.3536 14.4098 24.7063C15.0571 24.059 15.9348 23.6951 16.8502 23.6943H19.3013C20.2167 23.695 21.0944 24.059 21.7417 24.7063C22.389 25.3536 22.7529 26.2313 22.7537 27.1466V27.1466Z" stroke="#F1F1F2" stroke-miterlimit="10" stroke-linecap="round"/>
<path d="M4.09967 16.0072V31.8607C4.09967 32.399 4.31349 32.9152 4.69409 33.2958C5.07469 33.6764 5.59089 33.8902 6.12914 33.8902H29.8613C30.3996 33.8902 30.9158 33.6764 31.2964 33.2958C31.677 32.9152 31.8908 32.399 31.8908 31.8607V16.0072" stroke="#F1F1F2" stroke-linecap="round" stroke-linejoin="round"/>
<path d="M35.4375 19.547L17.9997 2.10986L0.5625 19.547" stroke="#F1F1F2" stroke-linecap="round" stroke-linejoin="round"/>
</svg>
