<svg width="64" height="58" viewBox="0 0 64 58" fill="none" xmlns="http://www.w3.org/2000/svg">
<path d="M40.451 45.2607V57.2492H23.8185V45.2607C23.8198 43.6334 24.4668 42.073 25.6175 40.9223C26.7682 39.7716 28.3286 39.1246 29.9559 39.1233H34.3135C35.9409 39.1246 37.5012 39.7716 38.6519 40.9223C39.8027 42.073 40.4497 43.6334 40.451 45.2607V45.2607Z" stroke="#F1F1F2" stroke-miterlimit="10" stroke-linecap="round"/>
<path d="M7.28833 25.4572V53.6412C7.28833 54.598 7.66845 55.5157 8.34507 56.1924C9.02169 56.869 9.93938 57.2491 10.8963 57.2491H53.0868C54.0437 57.2491 54.9614 56.869 55.638 56.1924C56.3146 55.5157 56.6947 54.598 56.6947 53.6412V25.4572" stroke="#F1F1F2" stroke-linecap="round" stroke-linejoin="round"/>
<path d="M63 31.7502L31.9994 0.750793L1 31.7502" stroke="#F1F1F2" stroke-linecap="round" stroke-linejoin="round"/>
</svg>
