<svg width="120" height="120" viewBox="0 0 120 120" fill="none" xmlns="http://www.w3.org/2000/svg">
<mask id="mask0_467_19171" style="mask-type:alpha" maskUnits="userSpaceOnUse" x="0" y="0" width="120" height="120">
<circle cx="60" cy="60" r="60" fill="#C4C4C4"/>
</mask>
<g mask="url(#mask0_467_19171)">
<path d="M174.75 -12.75H-146.437V378H174.75V-12.75Z" fill="white"/>
<path d="M75.1875 33.75C75.1875 33.75 68.2501 34.5 64.6876 28.5C64.6876 28.5 70.3125 33.1875 76.3125 32.8125L75.1875 33.75Z" fill="#04044C"/>
<path d="M98.625 54.1873C98.625 54.3748 98.625 54.3748 98.625 54.1873C97.6875 63.9373 95.625 72.5623 92.0625 76.4998C91.6875 76.8748 91.5 77.2498 91.125 77.4373C90.375 78.1873 89.4375 78.7498 88.5 79.1248C88.125 79.3123 87.5626 79.3123 87.1876 79.4998C86.2501 79.6873 85.1251 79.4998 84.1876 79.3123C79.6876 78.1873 76.3125 73.6873 76.3125 73.6873L72.1876 77.4373L71.8127 77.0623L64.875 70.8748L60.7501 67.1248L66.3751 64.4998L74.0626 60.7498C74.0626 60.7498 71.625 54.9373 76.3125 53.6248C76.875 53.4373 77.4376 53.4373 77.8126 53.4373C81.0001 53.4373 82.5001 57.5623 82.5001 58.1248C86.2501 53.6248 92.25 51.9373 97.875 53.9998H98.625V54.1873Z" fill="#FF8A9C"/>
<path d="M86.8126 79.5C85.8751 79.6875 84.7499 79.5 83.8124 79.3125C79.3124 78.1875 75.9375 73.6875 75.9375 73.6875C73.6875 71.0625 74.0625 67.875 74.0625 67.875L71.4375 77.0625L64.5001 70.875L60.3749 67.125L65.9999 64.5L73.6876 60.75C73.5001 60.1875 71.4375 54.9375 75.9375 53.625C76.5 53.4375 77.0626 53.4375 77.4376 53.4375C80.6251 53.4375 82.1251 57.5625 82.1251 58.125C78.9376 62.8125 76.875 66.5625 77.8125 71.4375C79.6875 77.4375 84.9376 78.9375 86.8126 79.5Z" fill="#EF5472"/>
<path d="M137.062 82.5002C136.125 88.8752 132.562 99.5627 128.625 102.375C128.625 102.375 114.938 126.563 106.5 135C105 136.313 103.875 137.438 102.75 137.813C100.5 138.563 97.6875 137.625 94.875 135.75C90.5625 132.938 86.0625 128.063 82.5 123.75C79.6875 120.375 77.8126 117.563 76.6876 116.25C76.3126 115.875 76.125 115.5 76.125 115.5L90.375 108.563L97.3126 117C99.1876 119.25 102.375 119.625 104.437 117.75C109.125 114 117 107.063 120.938 99.0002C120.938 99.0002 117.75 94.6877 119.813 89.4377C121.875 83.8127 121.875 79.5002 123.187 79.1252C124.312 78.7502 125.25 81.0002 124.688 84.3752C124.5 85.1252 124.312 86.0627 123.938 87.0002C123.938 87.0002 125.25 87.1877 126.937 82.8752C128.437 78.5627 130.125 71.4377 132.562 71.2502C133.687 71.0627 135.187 72.1877 136.312 74.2502C136.875 76.1252 137.438 79.1252 137.062 82.5002Z" fill="#FF8A9C"/>
<path d="M90.375 108.937L82.5001 124.125C79.6876 120.75 77.8126 117.937 76.6876 116.625L90.375 108.937Z" fill="#EF5472"/>
<path d="M98.625 54.375L98.0627 53.9999C97.1252 53.6249 96.1877 53.4375 95.2502 53.25C90.5627 52.6875 85.875 54.375 82.6875 57.9375C82.6875 57.9375 81.1876 53.25 77.6251 53.25C77.0626 53.25 76.6875 53.25 76.125 53.4375C71.4375 55.125 73.8751 60.5624 73.8751 60.5624L66.1877 64.3124C65.6252 63.7499 64.6876 63.1875 63.5626 62.8125C59.0626 61.3125 57.75 57 59.25 52.6875C59.8125 51.1875 60.9375 49.6874 62.25 48.3749C62.25 48.3749 61.5 46.875 61.125 44.8125C60.75 42 61.1252 37.875 65.2502 34.6875C67.5002 33 71.0626 31.875 74.8126 31.5C84.1876 30.75 95.8125 34.6875 96.75 45.1875C96.75 45.1875 97.125 36.5625 91.125 32.625C93.9375 34.875 105.188 42.5625 98.625 54.375Z" fill="#181461"/>
<path d="M91.3125 33.1873C91.125 33.1873 91.1251 32.9998 90.9376 32.9998C91.1251 33.1873 91.125 33.1873 91.3125 33.1873Z" fill="#601212"/>
<path d="M63.75 52.8748C63.75 52.8748 61.875 53.2497 59.25 53.0622C56.25 52.8747 52.3125 51.7498 48.9375 47.9998C48.9375 47.9998 55.875 51.5623 62.25 48.5623C62.25 48.5623 59.4375 46.4998 58.125 41.0623C58.125 41.0623 59.4375 43.1248 61.125 44.8123C62.4375 46.1248 64.125 47.4373 65.625 47.0623C69 47.0623 63.75 52.8748 63.75 52.8748Z" fill="#601212"/>
<path d="M-5.81231 119.813C-5.81231 119.813 -17.4374 130.125 38.4376 132.938C38.4376 132.938 46.8751 117.938 35.8126 114.188C24.5626 110.438 -5.81231 119.813 -5.81231 119.813Z" fill="#04044C"/>
<path d="M90.375 108.938L74.25 122.625L73.5 121.313L67.1251 111.563C66.9376 111.938 63.9376 118.688 55.1251 125.063C50.8126 128.063 45.5625 130.875 38.4375 132.75C38.25 132.375 31.875 122.625 11.25 120H11.0626C6.37509 119.438 1.12495 119.25 -5.25005 119.625C-5.43755 119.625 -5.62491 119.625 -5.81241 119.625C-5.81241 119.625 -5.62505 119.625 -5.25005 119.438C-4.12505 118.875 -1.31255 117.75 2.24995 115.688C10.6875 110.625 23.8126 101.25 28.6876 87.375C24.1876 86.25 19.6875 85.6875 15 85.6875C12.9375 85.6875 10.8751 85.875 9.18759 86.0625L8.25009 86.25H7.87495L5.06245 72.5625L4.68755 70.875L3.56259 65.625C3.56259 65.625 36.1876 62.8125 56.0626 68.0625L60.7501 65.625L73.3125 77.625L70.1251 82.3125L90.375 108.938Z" fill="#FE9329"/>
<path d="M90.3749 108.938L74.25 122.625L73.4999 121.313L67.1251 111.563C69.3751 105.75 70.3125 99.75 70.5 94.6875C70.6875 90.75 70.5 87.75 70.5 85.5C70.3125 83.8125 70.3126 82.6875 70.1251 82.5L90.3749 108.938Z" fill="#E06A00"/>
<path d="M70.5 94.6871C70.125 99.7496 69.3752 105.75 67.1252 111.562C66.9377 111.937 63.9376 118.687 55.1251 125.062C51.5626 120.937 51.0001 113.625 54.1876 106.312C57.7501 98.4372 64.5 93.5621 70.5 94.6871Z" fill="#FFFDF8"/>
<path d="M38.0626 132.187C38.0626 132.375 38.2501 132.562 38.2501 132.75C38.0626 132.375 31.6876 122.625 11.0626 120H10.8751C6.18762 119.437 0.937485 119.25 -5.43752 119.625C-5.62502 119.625 -5.81238 119.625 -5.99988 119.625C-5.99988 119.625 -5.81247 119.625 -5.62497 119.438C-4.49997 118.875 -1.68747 117.75 1.87503 115.688C10.3125 110.625 23.4375 101.25 28.3125 87.375C23.8125 86.25 19.3126 85.6875 14.6251 85.6875C12.5626 85.6875 10.4999 85.875 8.81244 86.0625L7.87494 86.25H7.50003L4.31262 70.875L3.18744 65.625L16.125 82.3125C16.125 82.3125 32.625 83.4375 43.125 89.4375C43.125 89.4375 30.7501 111 13.6876 117.75C13.6876 117.75 17.4376 118.5 22.1251 120.375C28.1251 122.438 35.6251 126.187 38.0626 132.187Z" fill="#E06A00"/>
<path d="M62.4376 72.7497L69.9376 82.3122L60.1875 73.6872C36.375 66.1872 6.37509 73.6872 6.37509 73.6872L4.50009 72.3748L4.12495 70.6873L3 65.4372C3 65.4372 35.625 62.6248 55.5 67.8748L60.1875 65.4372L72.7501 77.4372L62.4376 72.7497Z" fill="#E06A00"/>
<path d="M82.5001 58.1246C82.1251 57.7496 79.8751 54.9371 76.6876 55.8746C73.1251 56.9996 73.6876 61.1246 73.6876 61.1246C73.5001 60.5621 71.4376 55.3121 75.9376 53.9996C76.5001 53.8121 77.0626 53.8121 77.4376 53.8121C80.8126 53.4371 82.3126 57.5621 82.5001 58.1246Z" fill="#F47356"/>
<path d="M91.875 50.2497C90.375 48.1872 89.6251 45.5623 89.6251 42.5623C89.4376 36.1873 80.625 34.8748 80.625 34.8748C85.875 36.9373 85.8751 39.5623 85.8751 39.5623C77.8126 39.9373 74.8125 35.0623 75.1875 32.0623C71.25 32.4373 67.6875 33.5622 65.625 35.2497C61.3125 38.6247 60.9376 42.7498 61.5001 45.3748C59.8126 43.6873 58.4999 41.6248 58.4999 41.6248C59.8124 46.8748 62.6251 49.1248 62.6251 49.1248C56.2501 52.1248 49.3126 48.5622 49.3126 48.5622C52.8751 52.1247 56.8126 53.2498 59.6251 53.6248C57.9376 57.9373 59.4375 62.0622 63.9375 63.7497C65.0625 64.1247 66 64.6872 66.5625 65.2497L74.25 61.4997C74.25 61.4997 71.8126 55.6872 76.5001 54.3747C77.0626 54.1872 77.625 54.1872 78 54.1872C81.5625 54.1872 83.0626 58.8747 83.0626 58.8747H82.8749C82.6874 58.8747 86.0625 52.4997 91.875 50.2497ZM74.0625 39.7498C74.0625 39.7498 76.6875 44.0623 83.4375 44.4373C83.625 44.4373 76.6875 47.8123 74.0625 39.7498Z" fill="#04044C"/>
<path d="M38.4375 132.75C38.4375 132.75 30.1876 129.75 20.2501 128.625C13.3126 127.875 5.25 128.062 -0.75 131.062C-0.5625 130.875 -0.374908 130.5 -0.187408 130.312C9.15527e-05 130.125 0.1875 129.937 0.1875 129.75C0.1875 129.75 0.1875 129.75 0.1875 129.562C0.375 129.375 0.562592 129 0.750092 128.812C0.937592 128.625 1.12495 128.437 1.31245 128.25C1.49995 128.062 1.68755 127.875 1.87505 127.5C2.06255 127.312 2.25009 126.937 2.62509 126.75C2.81259 126.562 3.00014 126.187 3.37514 126C3.56264 125.812 3.93745 125.437 4.12495 125.25C4.31245 125.062 4.6875 124.687 4.875 124.5C5.0625 124.312 5.06264 124.312 5.25014 124.125C5.43764 123.937 5.43755 123.937 5.62505 123.75C7.31255 122.25 9.18755 120.937 11.25 119.625C31.875 122.625 38.0625 132.375 38.4375 132.75Z" fill="#01425E"/>
<path d="M87.375 71.0625C89.6532 71.0625 91.5002 69.2157 91.5002 66.9375C91.5002 64.6593 89.6532 62.8125 87.375 62.8125C85.0969 62.8125 83.2501 64.6593 83.2501 66.9375C83.2501 69.2157 85.0969 71.0625 87.375 71.0625Z" fill="#EF5472"/>
<path d="M91.5001 70.875C91.5001 71.25 91.3125 71.4375 90.9375 71.4375C90.5625 71.4375 90.3749 71.25 90.3749 70.875C90.3749 70.5 90.5625 70.3125 90.9375 70.3125C91.3125 70.3125 91.5001 70.6875 91.5001 70.875Z" fill="#601212"/>
<path d="M96.3751 63.5623C97.6876 63.5623 98.8125 64.6873 98.8125 65.9998C98.8125 67.3123 97.6876 68.4373 96.3751 68.4373C95.0626 68.4373 93.9375 67.3123 93.9375 65.9998C93.9375 64.6873 95.0626 63.5623 96.3751 63.5623Z" fill="#EF5472"/>
<path d="M74.0625 122.625L73.3125 121.312L66.9374 111.562C69.1874 105.75 70.125 99.7497 70.3125 94.6872C70.5 90.7497 70.3125 87.7498 70.3125 85.4998L74.0625 122.625Z" fill="#04044C"/>
<path d="M39.0001 89.9999C39.0001 89.9999 18.5624 114.75 -5.25006 119.625C-4.12506 119.062 -1.31256 117.937 2.24994 115.875C10.6874 110.812 23.8126 101.437 28.6876 87.5624C28.3126 87.3749 34.8751 88.6874 39.0001 89.9999Z" fill="#04044C"/>
<path d="M77.4376 49.6875C82.1251 49.6875 85.8751 54 85.8751 59.0625C85.8751 64.3125 82.1251 68.4375 77.4376 68.4375C72.7501 68.4375 69.0001 64.125 69.0001 59.0625C69.0001 54 72.7501 49.6875 77.4376 49.6875Z" fill="#FFD1B3"/>
<path d="M78.9375 55.8752H75.9376V41.8127C75.9376 37.6877 78.0002 33.9377 81.1877 31.6877C82.6877 30.5627 84.7501 31.3128 85.3126 33.1878C81.3751 34.5003 78.9375 37.8752 78.9375 41.8127V55.8752Z" fill="#FFD1B3"/>
<path d="M21.3752 140.812C21.1877 141.187 21.0001 141.562 20.6251 141.75C18.5626 143.062 13.6876 142.875 9.37514 139.312C4.12514 135.187 -2.99986 126.937 -3.74986 121.875C-3.74986 121.875 -4.31227 120.937 -5.06226 119.437C-5.06226 119.437 -5.06245 119.25 -5.24995 119.25C-9.18745 112.312 -19.4999 93.7497 -21.1874 84.9372C-21.3749 83.6247 -21.5624 82.4998 -21.3749 81.7498C-20.9999 80.0623 -19.6874 78.3748 -17.6249 77.0623C-14.0624 74.6248 -8.43731 72.9372 -2.99981 71.8122C-2.06231 71.6247 -1.12481 71.4372 -0.187311 71.2497C1.50019 70.8747 3.00019 70.6873 4.50019 70.4998L7.6876 85.8747H8.06273L-0.562449 87.1872C-3.37495 87.5622 -5.24981 90.3748 -4.87481 92.9998C-4.12481 98.8123 -2.06245 108.187 2.25005 115.312C2.43755 115.687 2.8126 116.062 3.0001 116.625C3.0001 116.625 7.68764 116.062 11.2501 119.812C11.4376 120 11.8127 120.375 12.0002 120.562C15.7502 125.062 19.5 127.5 19.125 128.625C18.75 129.937 15.1877 129.187 12.0002 125.25C12.0002 125.25 11.0626 126.375 14.0626 129.937C16.8751 133.687 22.3127 138.562 21.3752 140.812Z" fill="#FF8A9C"/>
<path d="M7.50005 86.0625L-2.99991 72C-0.374908 71.4375 2.25009 71.0625 4.50009 70.6875L7.50005 86.0625Z" fill="#EF5472"/>
<path d="M74.0626 59.2499C73.6876 66.1874 71.4375 73.4999 66 78.3748C60.1875 83.0623 53.4376 83.0624 46.6876 80.9999C40.8751 79.3124 35.4375 76.6874 30.375 73.3124C30 73.1249 29.625 72.7499 29.25 72.5624C28.875 72.3749 28.5001 71.9999 28.1251 71.8124C23.4376 68.0624 19.8751 63.9374 15.9376 59.4374C11.2501 54.1874 5.8125 50.2499 -1.5 52.3124C-9 54.3749 -13.5 61.4999 -15.5625 68.6249C-19.875 82.6874 -14.8124 97.6874 -4.68741 107.812C9.15527e-05 112.5 5.81264 116.062 12.0001 118.875C15.0001 120.375 17.8127 121.875 20.2502 124.125C22.5002 126.562 24 129.375 25.5 132.187C25.875 132.937 24.7501 133.687 24.3751 132.937C22.3126 129 20.0627 125.25 16.5002 122.812C13.3127 120.75 9.56264 119.437 6.37514 117.562C0.187637 114.187 -5.24986 109.687 -9.56236 103.875C-17.6249 93.1874 -20.6249 78.7499 -15.9374 65.9999C-13.6874 60.1874 -10.125 54.7499 -4.49995 51.9374C1.12505 49.3124 6.93768 49.8749 11.8127 53.4374C16.5002 56.9999 19.8751 62.2499 24.1876 66.3749C25.1251 67.1249 25.8752 68.0624 26.8127 68.8124C27.5627 69.3749 28.3126 69.9374 29.0626 70.6874C33.0001 73.8749 37.3126 76.3124 42.0001 78.1874C48.5626 80.8124 56.625 83.2499 63 79.1249C69.5625 74.9999 72.1875 67.1249 72.5625 59.8124C72.9375 58.3124 74.0626 58.3124 74.0626 59.2499Z" fill="#FFD1B3"/>
<path d="M90.5626 93.9373C82.3126 106.5 64.875 109.687 51.75 103.312C44.25 99.7498 39.5625 93.1872 35.625 86.0622C33.1875 81.5622 30.9376 77.2497 28.6876 72.7497C28.5001 72.3747 28.3126 71.8123 27.9376 71.4373C28.3126 71.6248 28.6875 71.9997 29.0625 72.1872C29.4375 72.3747 29.8125 72.7497 30.1875 72.9372C30.5625 73.8747 31.1251 74.6248 31.5001 75.3748C33.7501 79.6873 36 83.9998 38.4375 88.3123C42.5625 95.2498 47.8125 100.687 55.5 103.5C62.4375 105.937 69.7501 105.937 76.5001 103.312C83.4376 100.687 90 95.0623 92.25 87.5623C93 85.3123 93.1876 82.8747 92.4376 80.6247C92.0626 79.4997 91.5 78.5622 90.9375 77.6247C91.3125 77.2497 91.5 77.0622 91.875 76.6872C92.8125 78.3747 93.75 79.8748 94.125 81.9373C94.6875 86.0623 93.0001 90.3748 90.5626 93.9373Z" fill="#FFD1B3"/>
</g>
</svg>
