<svg width="120" height="120" viewBox="0 0 120 120" fill="none" xmlns="http://www.w3.org/2000/svg">
<mask id="mask0_467_19165" style="mask-type:alpha" maskUnits="userSpaceOnUse" x="0" y="0" width="120" height="120">
<circle cx="60" cy="60" r="60" fill="#C4C4C4"/>
</mask>
<g mask="url(#mask0_467_19165)">
<path d="M213 -33.75H-53.625V390.938H213V-33.75Z" fill="white"/>
<path d="M81.75 58.1245C80.0625 59.812 78.3749 59.6245 78.3749 59.6245L74.0625 68.812H72.5624C70.8749 64.8745 68.0625 61.687 65.625 59.2495C63.75 57.562 61.6874 56.2495 60.3749 55.1245L60.9375 53.9995L62.4374 51.562L61.125 48.937C57.75 48.3745 57.5624 42.562 59.4374 41.9995C61.3124 41.437 62.4374 42.3745 62.4374 42.3745C63.9374 46.687 66.3749 49.4995 66.3749 49.4995C65.8124 45.3745 66.5625 41.9995 66.5625 41.812L85.3125 37.1245C85.5 38.6245 85.5 40.1245 85.5 41.437C86.0625 51.7495 83.8125 56.2495 81.75 58.1245Z" fill="#FF8F6A"/>
<path d="M81.75 58.1245C80.0625 59.812 78.375 59.6246 78.375 59.6246C78.375 59.6246 71.4375 61.6871 68.0625 55.8746L65.625 59.437C63.75 57.7495 61.6875 56.437 60.375 55.312L60.9375 54.187L62.4375 51.7495L61.125 49.1245C57.75 48.562 57.5625 42.7495 59.4375 42.187C61.3125 41.6245 62.4375 42.562 62.4375 42.562C63.9375 46.8745 66.375 49.687 66.375 49.687C65.8125 45.562 66.5625 42.187 66.5625 41.9995C66.5625 43.1245 68.0625 62.2495 81.75 58.1245Z" fill="#E13146"/>
<path d="M84.375 162.375C84.375 162.375 83.4375 161.625 81.75 160.875C80.625 160.312 79.3125 159.75 77.8125 159.187C76.875 158.812 75.75 158.625 74.625 158.25C73.6875 158.062 72.9375 157.875 72 157.687C71.8125 157.687 71.4375 157.687 71.25 157.687C70.5 157.687 69.9375 157.5 69.1875 157.5C67.3125 157.5 65.25 157.5 63.375 157.687C62.8125 157.687 62.25 157.875 61.6875 157.875C61.5 157.875 61.5 157.875 61.3125 157.875C61.125 157.875 61.125 157.875 60.9375 157.875C60.75 157.875 60.75 157.875 60.5625 157.875C60 158.062 59.625 158.062 59.0625 158.25C55.5 159.187 52.6875 159.562 50.625 159.75C42.9375 160.125 41.25 157.125 41.25 157.125V69.9373L39 65.9998C38.4375 64.8748 38.625 63.7498 39.375 62.8123C39.9375 62.2498 40.5 62.0623 41.25 62.0623C41.625 62.0623 42 62.0623 42.375 62.2498C43.125 62.6248 44.25 62.9998 45.1875 62.9998V57.7498L53.25 57.3748C53.25 57.3748 53.4375 56.8123 54 55.6873C54.5625 54.9373 55.3125 53.8123 56.4375 52.4998C56.4375 52.4998 57.75 53.0622 59.625 54.1872C59.8125 54.3747 60 54.3748 60.1875 54.5623C64.125 56.9998 69.9375 61.4997 72.75 68.2497H78L84.375 162.375Z" fill="#4C9CA3"/>
<path d="M77.9999 68.8128L72.1874 70.5002C72.1874 70.5002 71.2499 92.8127 63.7499 107.625L62.4374 134.438L61.1249 129.375L62.4374 107.25C62.4374 107.25 74.4374 71.4378 60.9374 68.0628C47.4374 64.6878 45.3749 83.0627 45.3749 92.0627C45.3749 97.8752 45.1874 109.5 45.1874 116.813C45.1874 120.75 45.1874 123.375 45.1874 123.75C45.1874 124.313 46.6874 126.938 47.9999 129C49.1249 130.875 50.2499 132.75 50.2499 132.75L62.0624 153.75L61.3124 158.063L61.1249 159.188L60.7499 158.063L50.2499 134.25L43.6874 144.188C43.6874 144.188 43.3124 157.125 51.1874 159.938C43.4999 160.313 41.8124 157.313 41.8124 157.313V69.9378L39.5624 66.0003C39.5624 66.0003 41.0624 67.5002 46.4999 67.5002C46.4999 67.5002 56.4374 61.6877 64.4999 64.8752C72.3749 68.2502 73.4999 68.4377 73.4999 68.4377H78.1874L77.9999 68.8128Z" fill="#28878D"/>
<path d="M72.75 68.8125C69.9375 62.25 64.125 57.5625 60.1875 55.125C60 54.9375 59.8125 54.9375 59.625 54.75L60.1875 53.625C60.1875 53.625 60.375 53.8125 60.75 54C63 55.6875 71.4375 61.5 72.75 68.8125Z" fill="#FCBD4B"/>
<path d="M85.5 41.4373C85.5 40.1248 85.3125 38.6248 85.3125 37.1248L66.5625 41.8123C66.5625 41.8123 65.8125 45.3748 66.375 49.6873C66.375 49.6873 63.9375 46.6873 62.4375 42.5623C62.4375 42.5623 61.3124 41.6248 59.4374 42.1873C57.5624 42.7498 57.9375 48.5623 61.125 49.1248L62.4375 51.7498L60.9375 54.1873C60.5625 53.9998 60.3749 53.8123 60.3749 53.8123L59.8125 54.9373C59.8125 54.9373 59.0625 51.7498 57.375 49.6873C55.6875 47.6248 51 39.7498 55.5 29.8123C60 19.6873 67.5 22.1248 67.5 22.1248C67.5 22.1248 70.6875 19.1248 78.75 22.1248C86.25 24.7498 88.3125 38.8123 85.5 41.4373Z" fill="#231F20"/>
<path d="M41.2499 70.312V144.187H16.4999C16.4999 144.187 16.4999 137.062 16.4999 126.749V115.687C16.4999 99.7495 22.3124 96.562 22.3124 96.562C22.3124 96.562 18.5624 92.437 15.9374 89.437C13.3124 86.2495 15.7499 84.7495 15.7499 84.7495C15.7499 84.7495 15.1874 78.562 17.4374 75.3745C19.6874 72.187 24.3749 69.562 24.3749 69.562C24.3749 69.562 27.1874 63.3745 31.8749 63.3745C32.4374 63.3745 33.1874 63.3745 33.7499 63.562C37.3124 64.312 38.9999 66.7495 38.9999 66.937L41.2499 70.312Z" fill="#5C5B68"/>
<path d="M67.875 85.3124C68.0625 82.8749 68.0625 80.6249 67.875 78.1874C67.3125 68.9999 58.875 64.4999 51.1875 70.6874C47.25 73.8749 43.6875 79.4999 41.25 89.0624V70.4999C41.25 70.4999 47.0625 66.1874 54.1875 65.2499C57.1875 64.8749 60.375 64.8749 63.1875 66.1874C73.5 70.3124 72 95.9999 63.75 108C63.75 107.625 67.125 96.9374 67.875 85.3124Z" fill="#5C5B68"/>
<path d="M45.1874 63.75C45.1874 63.75 49.3124 64.3125 56.2499 63.5625C56.2499 63.5625 49.1249 62.625 45.1874 58.3125V63.75Z" fill="#28878D"/>
<path d="M41.25 70.312V126.562H37.1249V97.4995C37.1249 88.4995 23.8125 87.1871 22.3125 96.1871C22.3125 96.3746 22.3125 96.3745 22.3125 96.3745C22.3125 96.3745 18.5625 92.2495 15.9375 89.2495C13.3125 86.062 15.75 84.562 15.75 84.562C17.25 89.062 24.1875 86.8121 24.1875 86.8121C30 79.8746 38.8124 81.562 38.8124 81.562V66.3745L41.25 70.312Z" fill="#454556"/>
<path d="M54.1875 65.0627C52.875 66.1877 51.75 68.0627 51.1875 70.6877C47.25 73.8752 43.6875 79.5002 41.25 89.0627V70.5002C41.25 70.3127 47.25 66.1877 54.1875 65.0627Z" fill="#454556"/>
<path d="M33.75 63.187C27.9375 65.6245 18.1875 83.437 17.8125 83.812L24.1875 68.812C24.1875 68.812 27 62.6245 31.6875 62.6245C32.4375 63.187 33.1875 63.187 33.75 63.187Z" fill="#454556"/>
<path d="M22.3125 96.5623V126.75H16.5V115.687C16.5 99.7498 22.3125 96.5623 22.3125 96.5623Z" fill="#454556"/>
<path d="M84.375 32.062C84.1875 31.4995 80.4375 20.8121 68.4375 23.9996C68.4375 23.9996 61.5 24.562 64.6875 42.3745C64.5 41.812 60 29.4371 65.625 23.8121C65.625 23.8121 58.1249 28.8745 62.2499 42.937C62.2499 42.937 61.125 41.9996 59.25 42.5621C57.375 43.1246 57.75 48.937 60.9375 49.4995L62.2499 52.1246L60.75 54.562C60.375 54.3745 60.1875 54.187 60.1875 54.187L59.6249 55.312C59.6249 55.312 58.875 52.1246 57.1875 50.0621C55.5 47.8121 50.8125 40.1245 55.3125 30.187C59.8125 20.062 67.3125 22.4995 67.3125 22.4995C67.3125 22.4995 81.375 18.562 84.375 32.062Z" fill="#111010"/>
<path d="M61.6875 43.6875L61.125 47.8124C61.125 47.8124 59.25 47.0624 59.4375 44.8124C59.8125 42.5624 61.3125 43.125 61.6875 43.6875Z" fill="#111010"/>
<path d="M67.875 85.3123C67.3125 90.5623 66 95.0623 66 95.2498C66.1875 94.6873 70.6875 68.9998 60.375 68.8123C50.0625 68.6248 47.4375 92.0623 47.4375 92.0623C47.4375 76.8748 51 70.6873 51.1875 70.4998C58.875 64.3123 67.3125 68.8123 67.875 77.9998C68.0625 80.6248 67.875 83.0623 67.875 85.3123Z" fill="#28878D"/>
<path d="M69.75 68.9998C65.4375 63.1873 53.0625 57.9372 53.0625 57.9372C53.0625 57.9372 53.25 57.3748 53.8125 56.2498C64.875 60.7498 69.75 68.6248 69.75 68.9998Z" fill="#28878D"/>
<path d="M47.9999 129C46.6874 126.75 45.1874 124.312 45.1874 123.749C45.1874 123.374 45.1874 120.562 45.1874 116.812C47.0624 117 48.7499 119.437 49.4999 122.624C50.0624 125.437 49.3124 128.062 47.9999 129Z" fill="#FCBD4B"/>
<path d="M18 121.5H13.5V116.25C13.5 113.625 15.5625 111.562 18.1875 111.562L18 121.5Z" fill="#454556"/>
<path d="M29.8126 116.063C27.1876 116.063 25.1251 114 25.1251 111.375V104.438C25.1251 101.813 27.1876 99.7502 29.8126 99.7502C32.4376 99.7502 34.5001 101.813 34.5001 104.438V111.375C34.5001 113.813 32.4376 116.063 29.8126 116.063Z" fill="#454556"/>
<path d="M38.25 103.875H21.375C21.1875 103.875 21 103.687 21 103.5C21 103.312 21.1875 103.125 21.375 103.125H38.25C38.4375 103.125 38.625 103.312 38.625 103.5C38.625 103.875 38.4375 103.875 38.25 103.875Z" fill="#F4A422"/>
<path d="M38.25 105.75H21.375C21.1875 105.75 21 105.562 21 105.375C21 105.187 21.1875 105 21.375 105H38.25C38.4375 105 38.625 105.187 38.625 105.375C38.625 105.562 38.4375 105.75 38.25 105.75Z" fill="#F4A422"/>
<path d="M38.25 107.625H21.375C21.1875 107.625 21 107.437 21 107.25C21 107.062 21.1875 106.875 21.375 106.875H38.25C38.4375 106.875 38.625 107.062 38.625 107.25C38.625 107.437 38.4375 107.625 38.25 107.625Z" fill="#F4A422"/>
<path d="M38.2499 109.687H21.3749C21.1874 109.687 20.9999 109.5 20.9999 109.313C20.9999 109.125 21.1874 108.938 21.3749 108.938H38.2499C38.4374 108.938 38.625 109.125 38.625 109.313C38.625 109.5 38.4374 109.687 38.2499 109.687Z" fill="#F4A422"/>
<path d="M38.2499 111.562H21.3749C21.1874 111.562 20.9999 111.375 20.9999 111.188C20.9999 111 21.1874 110.812 21.3749 110.812H38.2499C38.4374 110.812 38.625 111 38.625 111.188C38.625 111.375 38.4374 111.562 38.2499 111.562Z" fill="#F4A422"/>
<path d="M38.2499 113.437H21.3749C21.1874 113.437 20.9999 113.25 20.9999 113.063C20.9999 112.875 21.1874 112.688 21.3749 112.688H38.2499C38.4374 112.688 38.625 112.875 38.625 113.063C38.625 113.25 38.4374 113.437 38.2499 113.437Z" fill="#F4A422"/>
<path d="M85.5 41.437L84.1875 39.187L66.375 41.9995L85.125 37.312C85.5 38.812 85.5 40.1245 85.5 41.437Z" fill="#E13146"/>
<path d="M35.8125 78C26.4375 79.875 24 85.5 24 85.5C28.6875 79.125 37.6875 79.6875 37.6875 79.6875V67.875V67.6875L35.8125 78Z" fill="#454556"/>
<path d="M64.875 108.188L63.375 132L69.5625 148.875L65.25 131.25L64.875 108.188Z" fill="#28878D"/>
</g>
</svg>
