<svg width="444" height="401" viewBox="0 0 444 401" fill="none" xmlns="http://www.w3.org/2000/svg">
<path d="M118.189 359.559L101.589 367.259C101.589 367.259 62.8892 330.559 80.2892 313.159C97.6892 296.059 108.689 362.259 108.689 362.259L113.389 359.559C113.389 359.559 113.089 322.659 94.1891 309.059C90.0891 306.059 93.5891 299.859 97.9891 301.659C99.7891 302.259 101.289 303.159 103.289 304.659C104.789 305.859 106.589 307.359 107.989 309.359C121.789 325.259 118.189 359.559 118.189 359.559Z" fill="#F73C4F"/>
<path d="M101.689 366.96C101.689 366.96 92.7891 373.76 92.7891 391.46C92.7891 408.86 140.989 396.46 118.189 359.56L101.689 366.96Z" fill="#F73C4F"/>
<path d="M114.989 367.16C114.989 368.06 114.389 368.66 113.489 368.66C112.589 368.66 111.989 368.06 111.989 367.16C111.989 366.26 112.589 365.66 113.489 365.66C114.389 365.76 114.989 366.36 114.989 367.16Z" fill="#454556"/>
<path d="M119.389 364.26C119.389 365.16 118.789 365.76 117.889 365.76C116.989 365.76 116.389 365.16 116.389 364.26C116.389 363.36 116.989 362.76 117.889 362.76C118.489 362.76 119.389 363.66 119.389 364.26Z" fill="#454556"/>
<path d="M122.089 373.66C124.022 373.66 125.589 372.093 125.589 370.16C125.589 368.227 124.022 366.66 122.089 366.66C120.156 366.66 118.589 368.227 118.589 370.16C118.589 372.093 120.156 373.66 122.089 373.66Z" fill="#454556"/>
<path d="M103.389 362.759C103.389 362.759 82.3891 337.059 82.3891 325.859C82.0891 314.559 94.5891 311.659 103.389 362.759Z" fill="#4C9CA3"/>
<path d="M118.189 359.559C118.189 359.559 115.489 324.059 100.789 310.459C98.3891 308.359 99.8891 304.559 103.189 304.559C104.689 305.759 106.489 307.259 107.889 309.259C121.789 325.259 118.189 359.559 118.189 359.559Z" fill="#4C9CA3"/>
<path d="M398.089 397.96L18.2891 398.26C18.2891 398.26 54.689 357.76 103.689 380.86C147.189 401.56 178.189 378.16 224.289 383.56C227.289 383.86 230.189 384.46 233.489 385.06C236.789 385.66 239.689 386.56 243.289 387.46C299.989 402.96 353.789 387.06 398.089 397.96Z" fill="#F9D8AD"/>
<path d="M367.689 398.26C367.689 398.26 368.889 355.96 360.289 339.46C360.289 339.46 378.589 348.66 369.189 397.96L367.689 398.26Z" fill="#454556"/>
<path d="M363.789 397.36C363.789 397.36 360.289 377.86 353.189 369.86C353.189 369.86 367.689 374.26 365.589 397.66L363.789 397.36Z" fill="#454556"/>
<path d="M371.489 397.66C371.489 397.66 381.289 374.06 379.789 359.86C379.789 359.86 388.989 373.76 373.289 397.96L371.489 397.66Z" fill="#454556"/>
<path d="M71.489 398.26C71.489 398.26 73.589 314.359 56.989 281.459C56.989 281.459 93.689 299.759 74.689 398.26H71.489Z" fill="#454556"/>
<path d="M64.0891 396.76C64.0891 396.76 56.9891 357.76 42.7891 342.06C42.7891 342.06 71.7891 350.96 67.2891 397.36L64.0891 396.76Z" fill="#454556"/>
<path d="M79.7891 397.359C79.7891 397.359 98.9892 350.659 96.3892 321.959C96.3892 321.959 114.689 349.759 83.3892 397.659L79.7891 397.359Z" fill="#454556"/>
<path d="M164.889 397.96H97.489L120.589 375.16L131.489 380.26L148.089 368.96L164.889 397.96Z" fill="#FFA38A"/>
<path d="M153.689 397.96H97.489L120.589 375.16L126.489 384.66L131.489 380.26L148.089 368.96L153.689 397.96Z" fill="#FF8F6A"/>
<path d="M88.8892 398.56L84.7891 391.46L63.7891 394.36L33.3892 392.36L22.3892 398.56H88.8892Z" fill="#FFA38A"/>
<path d="M277.189 397.66L286.689 391.46L297.289 392.96L303.189 398.26H359.689L364.389 394.36L376.789 394.06L388.089 386.76L398.089 397.96L423.489 394.06L427.689 398.56L277.189 397.66Z" fill="#FFA38A"/>
<path d="M443.689 396.76H0.289062V400.06H443.689V396.76Z" fill="#F9D8AD"/>
<path d="M296.689 146.358L284.289 150.758L276.589 153.758L273.589 154.958V216.458C273.589 216.458 270.289 216.458 264.989 215.858C260.289 215.558 254.089 214.958 246.989 213.758C244.589 213.458 242.289 212.858 239.589 212.258C222.189 208.758 201.789 201.958 188.489 189.458C186.689 187.958 185.189 186.158 183.789 184.458L185.889 179.758L188.589 172.958L185.889 170.258L192.089 142.458L182.289 139.158L166.589 133.858L168.089 128.858L184.089 77.7573C186.189 71.5572 191.189 66.8572 197.689 65.6572L203.889 64.4572L208.889 63.5571L212.189 62.9571L216.289 58.5571V60.0571L214.789 61.8571C214.789 61.8571 215.689 70.7572 230.489 72.4572C245.589 74.2572 250.589 65.9572 250.589 65.9572L249.389 65.3572L247.289 64.4572L251.089 63.8572L263.489 69.1572C268.189 71.2572 271.789 75.0572 273.489 79.7573L294.789 141.258L296.689 146.358Z" fill="#F9D8AD"/>
<path d="M257.089 114.757C257.089 126.857 248.489 136.657 237.289 138.957C235.789 139.257 233.989 139.557 232.289 139.557C229.589 139.557 227.289 139.257 224.889 138.357C214.889 135.057 207.489 125.957 207.489 114.757C207.489 108.557 209.889 102.957 213.389 98.4574C214.889 96.6574 216.889 94.9574 218.989 93.7574C222.789 91.3574 227.289 89.9574 232.289 89.9574C246.189 89.9574 257.089 101.157 257.089 114.757Z" fill="#F73C4F"/>
<path d="M221.689 355.96H205.089V364.26H221.689V355.96Z" fill="#E8B374"/>
<path d="M256.589 355.96H239.989V364.26H256.589V355.96Z" fill="#E8B374"/>
<path d="M296.689 146.358L284.289 150.858L276.589 153.758L273.389 154.958V192.258L265.089 206.458L240.289 138.158L263.889 140.458L266.289 80.7573L268.689 132.258L276.089 147.858L294.989 141.358L296.689 146.358Z" fill="#E8B374"/>
<path d="M273.389 194.558V216.458C273.389 216.458 270.089 216.458 264.789 215.858C260.089 215.558 253.889 214.958 246.789 213.758C244.389 213.458 242.089 212.858 239.389 212.258L224.889 138.358C227.289 138.958 229.589 139.558 232.289 139.558C234.089 139.558 235.589 139.258 237.289 138.958L258.289 185.058C257.989 185.458 265.689 188.658 273.389 194.558Z" fill="#E8B374"/>
<path d="M219.289 93.7571C217.189 94.9571 215.489 96.7572 213.689 98.4572L203.889 64.4572L208.889 63.5571L219.289 93.7571Z" fill="#E8B374"/>
<path d="M237.289 139.057C235.789 139.357 233.989 139.657 232.289 139.657C229.589 139.657 227.289 139.357 224.889 138.457V138.157L213.389 98.8574C214.889 97.0574 216.889 95.3574 218.989 94.1574L226.389 115.457L237.289 139.057Z" fill="#DD2641"/>
<path d="M273.389 210.258V216.458C273.389 216.458 270.089 216.458 264.789 215.858C260.089 215.558 253.889 214.958 246.789 213.758C227.889 210.758 203.289 203.958 188.289 189.558C186.489 188.058 184.989 186.258 183.589 184.558L185.689 179.858C186.889 180.758 188.989 182.558 191.289 184.258C191.889 184.558 192.489 185.158 193.089 185.458C202.889 191.958 220.289 201.758 245.089 206.758C250.989 207.958 257.189 208.858 263.989 209.458C266.089 209.758 268.389 209.758 270.489 210.058C271.589 209.958 272.489 209.958 273.389 210.258Z" fill="#FCBD4B"/>
<path d="M244.689 35.8567C244.689 38.2567 242.889 40.2567 240.289 40.8567C239.989 42.3567 239.689 43.5567 239.089 44.6567C238.489 45.8567 237.889 47.0567 236.989 47.9567C236.689 48.2567 236.389 48.8567 235.789 49.1567C235.489 49.4567 235.489 49.4567 235.189 49.7567C232.489 52.1567 229.289 53.2567 225.389 53.2567C223.889 53.2567 222.389 52.9567 220.989 52.6567C218.589 52.0567 216.589 50.5567 215.089 49.1567C212.989 47.0567 211.589 44.1567 210.989 41.1567C208.289 41.1567 205.989 39.0567 205.989 36.1567C205.989 34.6567 206.589 33.4567 207.489 32.6567C208.389 31.7567 209.589 31.4567 210.789 31.4567V24.3567C210.789 19.0567 215.189 14.5567 220.589 14.5567H230.589C232.989 14.5567 234.989 15.4567 236.489 16.6567C238.889 18.4567 240.289 21.0567 240.289 24.3567V31.4567C241.189 31.7567 242.089 32.0567 242.689 32.6567C244.089 33.1567 244.689 34.3567 244.689 35.8567Z" fill="#FF8F6A"/>
<path d="M250.589 65.9571C250.589 65.9571 247.289 71.5571 237.589 72.4571C235.489 72.757 233.189 72.757 230.489 72.4571C215.389 70.6571 214.789 61.857 214.789 61.857L216.289 60.057V58.557L215.089 48.757C216.289 49.957 217.789 51.157 219.189 51.757C219.789 52.057 220.389 52.357 220.989 52.357C222.489 52.957 223.989 52.9571 225.389 52.9571C228.889 52.9571 232.489 51.4571 235.189 49.4571C235.789 48.8571 236.389 48.257 236.989 47.657L238.189 54.757C238.789 58.257 241.189 61.557 244.389 63.057L247.689 64.557L249.789 65.4571L250.589 65.9571Z" fill="#FF8F6A"/>
<path d="M247.689 9.25663L242.989 32.0566C242.389 31.4566 241.489 30.8566 240.589 30.8566V23.7566C240.589 20.4566 239.089 17.8566 236.789 16.0566C234.989 14.8566 232.989 13.9566 230.889 13.9566H220.889C215.589 13.9566 211.089 18.3566 211.089 23.7566V30.8566C209.889 30.8566 208.689 31.4566 207.789 32.0566L202.789 11.9566C202.789 11.9566 208.689 1.05662 221.389 0.156624C234.089 -0.743376 237.089 6.35664 237.089 6.35664C243.789 4.85664 247.689 9.25663 247.689 9.25663Z" fill="#231F20"/>
<path d="M296.189 194.858C296.189 194.858 293.789 200.458 289.389 206.958C286.389 211.358 282.289 215.858 277.589 219.359C274.089 221.759 270.189 223.759 265.489 224.359L246.889 213.458L246.589 213.158L245.089 206.358L240.389 185.358L229.189 136.858L203.789 64.4572L205.589 64.1571L212.389 62.9571L237.489 131.558C237.489 131.558 243.389 142.158 251.689 141.858C259.989 141.858 274.489 144.258 274.489 144.258L275.389 148.058L276.589 153.058L280.389 169.658L287.789 180.858L296.189 194.858Z" fill="#4C9CA3"/>
<path d="M237.889 72.557C235.789 72.857 233.489 72.857 230.789 72.557C215.689 70.757 215.089 61.957 215.089 61.957L216.589 60.157V58.657L215.389 48.857C216.589 50.057 218.089 51.257 219.489 51.857L221.589 66.057C221.389 65.957 225.489 71.357 237.889 72.557Z" fill="#F05E2B"/>
<path d="M236.089 48.8568C235.789 49.1568 235.789 49.1568 235.489 49.4568C232.789 51.8568 229.589 52.9568 225.689 52.9568C224.189 52.9568 222.689 52.6568 221.289 52.3568C218.889 51.7568 216.889 50.2568 215.389 48.8568C213.289 46.7568 211.889 43.8568 211.289 40.8568C209.189 40.8568 207.489 39.6567 206.589 37.5567C205.989 35.4567 206.589 33.4567 207.789 32.2567C208.689 31.3567 209.889 31.0567 211.089 31.0567V23.9568C211.089 18.6568 215.489 14.1567 220.889 14.1567H230.889C233.289 14.1567 235.289 15.0567 236.789 16.2567L224.389 18.0567C218.789 18.9567 214.589 23.6567 214.589 29.2567C214.889 37.5567 216.389 48.1568 223.789 50.8568C228.789 52.6568 232.889 51.2568 236.089 48.8568Z" fill="#F05E2B"/>
<path d="M240.589 33.1569V38.7569C240.589 38.7569 242.689 38.4569 242.689 35.7569C242.689 33.0569 240.589 33.1569 240.589 33.1569Z" fill="#F05E2B"/>
<path d="M265.389 224.759L261.289 350.66C261.289 354.76 257.789 358.06 253.589 358.06H243.289C242.389 358.06 241.489 358.06 240.889 357.76C238.189 356.86 235.889 354.26 235.889 351.26L230.289 278.559L227.289 350.96C226.989 355.06 223.789 358.36 219.589 358.36H206.889C206.289 358.36 205.989 358.36 205.389 358.36C202.089 357.76 199.489 355.06 199.189 351.86L180.889 190.458L183.589 184.858C185.089 186.658 186.589 188.158 188.289 189.858C203.389 204.358 227.889 210.858 246.789 214.058L265.389 224.759Z" fill="#F73C4F"/>
<path d="M185.889 170.658L188.589 173.358L185.889 180.158L183.789 184.858L181.089 190.458C180.189 183.358 178.989 154.658 179.889 150.858C180.489 148.158 181.389 142.558 181.989 139.958L191.789 143.258L185.889 170.658Z" fill="#F05E2B"/>
<path d="M204.189 88.4574L191.789 142.857L182.089 139.557L166.089 134.257L167.889 129.257L188.889 135.757L204.189 88.4574Z" fill="#E8B374"/>
<path d="M191.189 203.758L205.389 358.36C202.089 357.76 199.489 355.06 199.189 351.86L180.889 190.458L183.589 184.858C185.089 186.658 186.589 188.158 188.289 189.858C203.389 204.358 227.889 210.858 246.789 214.058L265.389 224.959C265.389 224.759 229.289 225.659 191.189 203.758Z" fill="#DD2641"/>
<path d="M275.189 157.658L260.989 158.258L267.489 188.358L282.289 207.258L290.789 194.258L279.289 178.658L275.189 157.658Z" fill="#FCBD4B"/>
<path d="M289.589 211.758C289.589 210.258 289.289 208.758 289.289 207.358C288.689 197.558 288.089 189.058 287.489 181.958C285.989 164.558 284.489 153.558 284.189 151.258L276.489 154.258L280.289 170.858L280.889 209.258C279.389 212.758 278.489 216.658 277.589 220.158C275.789 228.158 275.189 234.658 275.189 234.658C278.989 234.958 280.489 223.458 280.489 223.458C282.589 224.058 280.789 230.258 280.789 230.258L280.189 236.458L283.189 234.058C285.589 235.258 286.989 232.558 286.989 232.558C292.589 229.758 289.589 211.758 289.589 211.758Z" fill="#FF8F6A"/>
<path d="M234.989 269.359L240.889 357.76C238.189 356.86 235.889 354.26 235.889 351.26L230.289 278.559L229.689 267.359L245.089 230.459L234.989 269.359Z" fill="#DD2641"/>
<path d="M277.489 219.759C273.989 222.159 270.089 224.159 265.389 224.759L246.789 213.758L246.489 213.458L244.989 206.658L240.289 185.658L229.089 137.158L203.689 64.7572L205.489 64.4572L233.889 140.458L248.689 149.358L240.989 149.658L256.989 206.158L277.489 219.759Z" fill="#28878D"/>
<path d="M236.989 6.25658L236.689 16.0566C234.889 14.8566 232.889 13.9566 230.789 13.9566H220.789C215.489 13.9566 210.989 18.3566 210.989 23.7566V30.8566C209.789 30.8566 208.589 31.4566 207.689 32.0566L202.689 11.9566C202.689 11.9566 208.589 1.05658 221.289 0.156579C233.789 -0.843421 236.989 6.25658 236.989 6.25658Z" fill="#111010"/>
<path d="M226.389 393.56L219.289 396.86C216.289 398.06 213.089 398.96 209.789 398.96H190.289C190.289 398.96 190.289 395.66 191.189 392.46C191.789 390.66 192.689 388.66 193.889 387.46C197.389 383.96 202.489 375.36 202.489 375.36L206.589 370.66C206.589 370.66 206.889 370.06 208.089 369.46C208.989 368.86 210.189 368.56 211.889 368.56C216.289 368.56 216.889 371.56 216.889 371.56C216.889 371.56 218.989 372.76 218.989 370.36C218.989 370.36 221.089 369.16 222.489 376.86C223.089 380.36 223.989 384.56 224.589 387.76C225.789 390.86 226.389 393.56 226.389 393.56Z" fill="#DDCAE6"/>
<path d="M226.389 393.56L219.289 396.86C216.289 398.06 213.089 398.96 209.789 398.96H190.289C190.289 398.96 190.289 395.66 191.189 392.46H208.889C212.189 392.46 215.089 391.86 218.089 390.66L224.889 387.66C225.789 390.86 226.389 393.56 226.389 393.56Z" fill="#231F20"/>
<path d="M219.289 364.26V369.56C219.289 371.96 217.189 370.76 217.189 370.76C217.189 370.76 216.289 367.76 212.189 367.76C210.389 367.76 208.889 368.06 208.389 368.66V364.26H219.289Z" fill="#231F20"/>
<path d="M214.589 379.66C214.889 379.36 214.889 379.06 214.589 378.76C209.289 373.16 201.289 375.76 199.189 376.66C198.889 376.96 198.589 377.26 198.889 377.56C199.189 377.86 199.489 377.86 199.789 377.86C201.889 376.96 208.989 374.56 213.689 379.66C213.989 379.96 214.289 379.96 214.589 379.66Z" fill="#231F20"/>
<path d="M197.989 379.66C198.289 379.96 198.589 380.26 198.889 379.96C200.989 379.06 208.089 376.66 212.789 381.76C213.089 382.06 213.389 382.06 213.689 381.76C213.989 381.46 213.989 381.16 213.689 380.86C208.389 375.26 200.389 377.86 198.289 378.76C197.989 378.76 197.689 379.36 197.989 379.66Z" fill="#231F20"/>
<path d="M197.089 381.66C197.389 381.96 197.689 382.26 197.989 381.96C200.089 381.06 207.189 378.66 211.889 383.76C212.189 384.06 212.489 384.06 212.789 383.76C213.089 383.46 213.089 383.16 212.789 382.86C207.489 377.26 199.489 379.86 197.389 380.76C197.089 380.76 196.789 381.36 197.089 381.66Z" fill="#231F20"/>
<path d="M195.889 383.76C196.189 384.06 196.489 384.36 196.789 384.06C198.889 383.16 205.989 380.56 210.989 385.86C211.289 386.16 211.589 386.16 211.889 385.86C212.189 385.56 212.189 385.26 211.889 384.96C206.589 379.36 198.589 381.96 196.189 382.86C195.889 382.86 195.689 383.46 195.889 383.76Z" fill="#231F20"/>
<path d="M234.989 393.56L242.089 396.86C245.089 398.06 248.289 398.96 251.589 398.96H271.089C271.089 398.96 271.089 395.66 270.189 392.46C269.589 390.66 268.689 388.66 267.489 387.46C263.989 383.96 258.889 375.36 258.889 375.36L254.789 370.66C254.789 370.66 254.489 370.06 253.289 369.46C252.389 368.86 251.189 368.56 249.489 368.56C245.089 368.56 244.489 371.56 244.489 371.56C244.489 371.56 242.389 372.76 242.389 370.36C242.389 370.36 240.289 369.16 238.889 376.86C238.289 380.36 237.389 384.56 236.789 387.76C235.289 390.86 234.989 393.56 234.989 393.56Z" fill="#DDCAE6"/>
<path d="M234.989 393.56L242.089 396.86C245.089 398.06 248.289 398.96 251.589 398.96H271.089C271.089 398.96 271.089 395.66 270.189 392.46H252.489C249.189 392.46 246.289 391.86 243.289 390.66L236.489 387.66C235.289 390.86 234.989 393.56 234.989 393.56Z" fill="#231F20"/>
<path d="M242.089 364.26V369.56C242.089 371.96 244.189 370.76 244.189 370.76C244.189 370.76 245.089 367.76 249.189 367.76C250.989 367.76 252.489 368.06 252.989 368.66V364.26H242.089Z" fill="#231F20"/>
<path d="M246.789 379.66C246.489 379.36 246.489 379.06 246.789 378.76C252.089 373.16 260.089 375.76 262.189 376.66C262.489 376.96 262.789 377.26 262.489 377.56C262.189 377.86 261.889 377.86 261.589 377.86C259.489 376.96 252.389 374.56 247.689 379.66C247.389 379.96 246.789 379.96 246.789 379.66Z" fill="#231F20"/>
<path d="M263.289 379.66C262.989 379.96 262.689 380.26 262.389 379.96C260.289 379.06 253.189 376.66 248.489 381.76C248.189 382.06 247.889 382.06 247.589 381.76C247.289 381.46 247.289 381.16 247.589 380.86C252.889 375.26 260.889 377.86 262.989 378.76C263.289 378.76 263.289 379.36 263.289 379.66Z" fill="#231F20"/>
<path d="M264.189 381.66C263.889 381.96 263.589 382.26 263.289 381.96C261.189 381.06 254.089 378.66 249.389 383.76C249.089 384.06 248.789 384.06 248.489 383.76C248.189 383.46 248.189 383.16 248.489 382.86C253.789 377.26 261.789 379.86 263.889 380.76C264.189 380.76 264.489 381.36 264.189 381.66Z" fill="#231F20"/>
<path d="M265.389 383.76C265.089 384.06 264.789 384.36 264.489 384.06C262.389 383.16 255.289 380.56 250.289 385.86C249.989 386.16 249.689 386.16 249.389 385.86C249.089 385.56 249.089 385.26 249.389 384.96C254.689 379.36 262.689 381.96 265.089 382.86C265.389 382.86 265.689 383.46 265.389 383.76Z" fill="#231F20"/>
</svg>
