<svg width="474" height="401" viewBox="0 0 474 401" fill="none" xmlns="http://www.w3.org/2000/svg">
<path d="M90.5889 181.86H89.2888V395.56H90.5889V181.86Z" fill="#AFC24E"/>
<path d="M87.9888 373.56C70.2888 373.26 64.3889 359.36 64.3889 359.36C87.6889 359.06 87.9888 373.56 87.9888 373.56Z" fill="#AFC24E"/>
<path d="M115.789 359.06C115.789 359.06 109.489 372.96 92.189 373.26C91.789 373.56 91.7889 359.06 115.789 359.06Z" fill="#AFC24E"/>
<path d="M87.9888 353.06C70.2888 352.76 64.3889 338.86 64.3889 338.86C87.6889 338.86 87.9888 353.06 87.9888 353.06Z" fill="#AFC24E"/>
<path d="M115.789 338.86C115.789 338.86 109.489 352.76 92.189 353.06C91.789 353.06 91.7889 338.86 115.789 338.86Z" fill="#AFC24E"/>
<path d="M87.9888 332.56C70.2888 332.26 64.3889 318.36 64.3889 318.36C87.6889 318.36 87.9888 332.56 87.9888 332.56Z" fill="#AFC24E"/>
<path d="M115.789 318.36C115.789 318.36 109.489 332.26 92.189 332.56C91.789 332.56 91.7889 318.36 115.789 318.36Z" fill="#AFC24E"/>
<path d="M87.9888 312.06C70.2888 311.76 64.3889 297.86 64.3889 297.86C87.6889 297.86 87.9888 312.06 87.9888 312.06Z" fill="#AFC24E"/>
<path d="M115.789 297.86C115.789 297.86 109.489 311.76 92.189 312.06C91.789 312.06 91.7889 297.86 115.789 297.86Z" fill="#AFC24E"/>
<path d="M87.9888 291.96C70.2888 291.66 64.3889 277.76 64.3889 277.76C87.6889 277.46 87.9888 291.96 87.9888 291.96Z" fill="#AFC24E"/>
<path d="M115.789 277.46C115.789 277.46 109.489 291.36 92.189 291.66C91.789 291.96 91.7889 277.46 115.789 277.46Z" fill="#AFC24E"/>
<path d="M87.9888 271.46C70.2888 271.16 64.3889 257.26 64.3889 257.26C87.6889 257.26 87.9888 271.46 87.9888 271.46Z" fill="#AFC24E"/>
<path d="M115.789 257.26C115.789 257.26 109.489 271.16 92.189 271.46C91.789 271.46 91.7889 257.26 115.789 257.26Z" fill="#AFC24E"/>
<path d="M87.9888 250.96C70.2888 250.66 64.3889 236.76 64.3889 236.76C87.6889 236.76 87.9888 250.96 87.9888 250.96Z" fill="#AFC24E"/>
<path d="M115.789 236.76C115.789 236.76 109.489 250.66 92.189 250.96C91.789 250.96 91.7889 236.76 115.789 236.76Z" fill="#AFC24E"/>
<path d="M87.9888 230.76C70.2888 230.46 64.3889 216.56 64.3889 216.56C87.6889 216.26 87.9888 230.76 87.9888 230.76Z" fill="#AFC24E"/>
<path d="M115.789 216.26C115.789 216.26 109.489 230.16 92.189 230.46C91.789 230.76 91.7889 216.26 115.789 216.26Z" fill="#AFC24E"/>
<path d="M87.9888 210.26C70.2888 209.96 64.3889 196.06 64.3889 196.06C87.6889 196.06 87.9888 210.26 87.9888 210.26Z" fill="#AFC24E"/>
<path d="M115.789 196.06C115.789 196.06 109.489 209.96 92.189 210.26C91.789 210.26 91.7889 196.06 115.789 196.06Z" fill="#AFC24E"/>
<path d="M87.9888 189.76C70.2888 189.46 64.3889 175.56 64.3889 175.56C87.6889 175.56 87.9888 189.76 87.9888 189.76Z" fill="#AFC24E"/>
<path d="M90.189 179.06C79.189 165.46 85.4888 151.66 85.4888 151.66C100.889 169.96 90.189 179.06 90.189 179.06Z" fill="#AFC24E"/>
<path d="M115.789 175.56C115.789 175.56 109.489 189.46 92.189 189.76C91.789 189.76 91.7889 175.56 115.789 175.56Z" fill="#AFC24E"/>
<path d="M164.589 262.26H163.989V399.06H164.589V262.26Z" fill="#728536"/>
<path d="M162.989 385.26C151.689 384.96 147.889 376.16 147.889 376.16C162.989 376.06 162.989 385.26 162.989 385.26Z" fill="#728536"/>
<path d="M180.989 376.06C180.989 376.06 176.889 384.86 165.889 385.16C165.589 385.26 165.889 376.06 180.989 376.06Z" fill="#728536"/>
<path d="M162.989 371.96C151.689 371.66 147.889 362.86 147.889 362.86C162.989 362.86 162.989 371.96 162.989 371.96Z" fill="#728536"/>
<path d="M180.989 362.86C180.989 362.86 176.889 371.66 165.889 371.96C165.589 371.96 165.889 362.86 180.989 362.86Z" fill="#728536"/>
<path d="M162.989 359.06C151.689 358.76 147.889 349.96 147.889 349.96C162.989 349.96 162.989 359.06 162.989 359.06Z" fill="#728536"/>
<path d="M180.989 349.96C180.989 349.96 176.889 358.76 165.889 359.06C165.589 359.06 165.889 349.96 180.989 349.96Z" fill="#728536"/>
<path d="M162.989 345.86C151.689 345.56 147.889 336.76 147.889 336.76C162.989 336.66 162.989 345.86 162.989 345.86Z" fill="#728536"/>
<path d="M180.989 336.66C180.989 336.66 176.889 345.46 165.889 345.76C165.589 345.86 165.889 336.66 180.989 336.66Z" fill="#728536"/>
<path d="M162.989 332.86C151.689 332.56 147.889 323.76 147.889 323.76C162.989 323.76 162.989 332.86 162.989 332.86Z" fill="#728536"/>
<path d="M180.989 323.76C180.989 323.76 176.889 332.56 165.889 332.86C165.589 332.86 165.889 323.76 180.989 323.76Z" fill="#728536"/>
<path d="M162.989 319.66C151.689 319.36 147.889 310.56 147.889 310.56C162.989 310.56 162.989 319.66 162.989 319.66Z" fill="#728536"/>
<path d="M180.989 310.56C180.989 310.56 176.889 319.36 165.889 319.66C165.589 319.66 165.889 310.56 180.989 310.56Z" fill="#728536"/>
<path d="M162.989 306.76C151.689 306.46 147.889 297.66 147.889 297.66C162.989 297.56 162.989 306.76 162.989 306.76Z" fill="#728536"/>
<path d="M180.989 297.56C180.989 297.56 176.889 306.36 165.889 306.66C165.589 306.76 165.889 297.56 180.989 297.56Z" fill="#728536"/>
<path d="M162.989 293.76C151.689 293.46 147.889 284.66 147.889 284.66C162.989 284.66 162.989 293.76 162.989 293.76Z" fill="#728536"/>
<path d="M180.989 284.66C180.989 284.66 176.889 293.46 165.889 293.76C165.589 293.76 165.889 284.66 180.989 284.66Z" fill="#728536"/>
<path d="M162.989 280.56C151.689 280.26 147.889 271.46 147.889 271.46C162.989 271.46 162.989 280.56 162.989 280.56Z" fill="#728536"/>
<path d="M180.989 271.46C180.989 271.46 176.889 280.26 165.889 280.56C165.589 280.56 165.889 271.46 180.989 271.46Z" fill="#728536"/>
<path d="M162.989 267.66C151.689 267.36 147.889 258.56 147.889 258.56C162.989 258.46 162.989 267.66 162.989 267.66Z" fill="#728536"/>
<path d="M164.589 260.66C157.389 252.16 161.389 242.96 161.389 242.96C171.589 254.76 164.589 260.66 164.589 260.66Z" fill="#728536"/>
<path d="M180.989 258.46C180.989 258.46 176.889 267.26 165.889 267.56C165.589 267.66 165.889 258.46 180.989 258.46Z" fill="#728536"/>
<path d="M302.589 234.56H301.689V398.76H302.589V234.56Z" fill="#728536"/>
<path d="M300.789 381.76C287.189 381.46 282.489 370.76 282.489 370.76C300.489 370.76 300.789 381.76 300.789 381.76Z" fill="#728536"/>
<path d="M321.889 370.76C321.889 370.76 317.189 381.46 303.589 381.76C303.589 381.76 303.589 370.76 321.889 370.76Z" fill="#728536"/>
<path d="M300.789 365.96C287.189 365.66 282.489 354.96 282.489 354.96C300.489 354.96 300.789 365.96 300.789 365.96Z" fill="#728536"/>
<path d="M321.889 354.96C321.889 354.96 317.189 365.66 303.589 365.96C303.589 365.96 303.589 354.96 321.889 354.96Z" fill="#728536"/>
<path d="M300.789 350.26C287.189 349.96 282.489 339.26 282.489 339.26C300.489 339.16 300.789 350.26 300.789 350.26Z" fill="#728536"/>
<path d="M321.889 339.16C321.889 339.16 317.189 349.86 303.589 350.16C303.589 350.26 303.589 339.16 321.889 339.16Z" fill="#728536"/>
<path d="M300.789 334.46C287.189 334.16 282.489 323.46 282.489 323.46C300.489 323.76 300.789 334.46 300.789 334.46Z" fill="#728536"/>
<path d="M321.889 323.76C321.889 323.76 317.189 334.46 303.589 334.76C303.589 334.46 303.589 323.76 321.889 323.76Z" fill="#728536"/>
<path d="M300.789 319.06C287.189 318.76 282.489 308.06 282.489 308.06C300.489 307.96 300.789 319.06 300.789 319.06Z" fill="#728536"/>
<path d="M321.889 307.96C321.889 307.96 317.189 318.66 303.589 318.96C303.589 319.06 303.589 307.96 321.889 307.96Z" fill="#728536"/>
<path d="M300.789 303.26C287.189 302.96 282.489 292.26 282.489 292.26C300.489 292.26 300.789 303.26 300.789 303.26Z" fill="#728536"/>
<path d="M321.889 292.26C321.889 292.26 317.189 302.96 303.589 303.26C303.589 303.26 303.589 292.26 321.889 292.26Z" fill="#728536"/>
<path d="M300.789 287.46C287.189 287.16 282.489 276.46 282.489 276.46C300.489 276.46 300.789 287.46 300.789 287.46Z" fill="#728536"/>
<path d="M321.889 276.46C321.889 276.46 317.189 287.16 303.589 287.46C303.589 287.46 303.589 276.46 321.889 276.46Z" fill="#728536"/>
<path d="M300.789 272.06C287.189 271.76 282.489 261.06 282.489 261.06C300.489 261.06 300.789 272.06 300.789 272.06Z" fill="#728536"/>
<path d="M321.889 261.06C321.889 261.06 317.189 271.76 303.589 272.06C303.589 272.06 303.589 261.06 321.889 261.06Z" fill="#728536"/>
<path d="M300.789 256.26C287.189 255.96 282.489 245.26 282.489 245.26C300.489 245.26 300.789 256.26 300.789 256.26Z" fill="#728536"/>
<path d="M321.889 245.26C321.889 245.26 317.189 255.96 303.589 256.26C303.589 256.26 303.589 245.26 321.889 245.26Z" fill="#728536"/>
<path d="M300.789 240.56C287.189 240.26 282.489 229.56 282.489 229.56C300.489 229.46 300.789 240.56 300.789 240.56Z" fill="#728536"/>
<path d="M302.389 232.36C293.889 221.96 298.889 211.26 298.889 211.26C310.589 225.06 302.389 232.36 302.389 232.36Z" fill="#728536"/>
<path d="M321.889 229.46C321.889 229.46 317.189 240.16 303.589 240.46C303.589 240.56 303.589 229.46 321.889 229.46Z" fill="#728536"/>
<path d="M63.7888 399.76C63.7888 399.76 76.9889 392.56 99.0889 393.76C121.189 395.36 137.589 374.26 171.889 399.46L63.7888 399.76Z" fill="#AFC24E"/>
<path d="M271.789 365.06L270.489 351.86L251.289 362.56L255.089 379.26C255.389 379.26 270.189 384.26 271.789 365.06Z" fill="#191E23"/>
<path d="M311.789 375.46L307.989 376.76L257.889 394.76C257.889 394.76 257.289 393.16 256.589 390.96C254.989 386.56 252.789 379.26 253.389 377.06C253.389 377.06 268.789 381.16 271.389 365.06H272.689L290.989 367.26L296.989 367.86C297.289 367.86 297.289 367.86 297.589 367.86C298.489 367.86 299.489 367.86 300.389 367.56C302.289 366.96 304.489 366.96 306.089 367.86C307.689 368.46 308.889 369.76 309.589 371.36C309.589 371.66 309.889 371.96 309.889 371.96L311.789 375.46Z" fill="#D63A21"/>
<path d="M290.989 370.36L272.689 368.16L273.089 365.36L291.289 367.56L290.989 370.36Z" fill="#293949"/>
<path d="M202.089 375.46L205.589 362.56L183.889 366.06L181.689 383.06C181.989 382.96 194.189 393.06 202.089 375.46Z" fill="#191E23"/>
<path d="M236.189 395.66V398.86H179.089C179.089 398.86 179.089 397.26 179.089 394.76C179.089 390.06 179.689 382.46 180.989 380.56C180.989 380.56 194.189 389.66 202.089 375.16L204.289 376.46L220.989 384.96L225.089 386.86C225.089 386.86 225.389 386.86 225.389 387.16C226.289 387.46 227.589 387.76 228.589 387.76C230.789 387.76 232.689 388.66 233.989 389.96C235.289 391.26 235.889 392.76 236.189 394.66C236.189 394.96 236.189 395.26 236.189 395.66Z" fill="#D63A21"/>
<path d="M220.989 385.26L219.789 387.76L203.089 378.96L204.289 376.66L220.989 385.26Z" fill="#293949"/>
<path d="M273.389 362.86L248.189 373.26L238.389 344.56L230.789 322.16L226.989 310.86L204.589 373.86L179.089 367.86C179.089 307.96 191.089 275.86 191.089 275.86L192.389 237.76L195.189 235.26L192.389 211.66C192.389 211.66 188.889 203.16 209.089 190.86C229.289 178.56 245.989 202.56 245.989 202.56L263.989 308.76L268.089 333.66L273.389 362.86Z" fill="#0864E3"/>
<path d="M273.389 362.86L248.189 373.26L238.389 344.56L230.789 322.16L226.989 310.86L247.189 238.36L241.489 278.06C239.589 290.96 240.189 304.26 243.389 316.86L249.089 340.46L255.389 366.26L273.389 362.86Z" fill="#293949"/>
<path d="M246.289 202.06C241.289 197.36 235.289 196.06 235.289 196.06C232.089 205.86 224.589 213.76 224.589 213.76L187.089 363.46L205.089 373.86L179.589 367.86C179.589 307.96 191.589 275.86 191.589 275.86L192.889 237.76L195.689 235.26L192.889 211.66C192.889 211.66 189.389 203.16 209.589 190.86C229.589 178.16 246.289 202.06 246.289 202.06Z" fill="#293949"/>
<path d="M257.889 42.86C257.289 46.36 256.589 49.16 255.689 51.96C255.389 52.86 255.089 53.8601 254.789 54.7601C248.489 72.4601 239.989 67.0601 239.689 66.7601L230.189 81.5601C225.189 71.1601 212.189 66.7601 211.889 66.7601L216.289 56.36L220.089 47.5601C216.289 44.0601 214.089 35.56 218.189 33.96C222.289 32.36 224.789 36.7601 224.789 36.7601L227.589 41.7601L229.189 44.96C229.489 43.06 229.789 41.7601 230.489 40.2601C232.689 34.8601 237.389 32.66 237.389 32.66C237.089 35.16 235.489 37.36 235.489 37.36C239.589 34.16 240.189 30.46 240.189 30.46C240.789 33.66 243.689 37.06 243.989 37.36C243.389 35.46 243.389 33.26 243.689 31.36C243.989 29.16 244.589 27.2601 244.589 27.2601C245.489 34.1601 251.489 38.2601 251.489 38.2601C248.289 33.8601 249.589 30.36 249.589 30.36C252.589 39.16 257.889 42.86 257.889 42.86Z" fill="#FFAD95"/>
<path d="M232.689 42.86C232.689 42.86 228.589 55.1601 237.389 59.5601C245.889 63.6601 239.889 66.7601 239.889 66.7601L230.089 62.0601C227.289 60.7601 223.789 61.7601 222.489 64.5601L220.589 68.36C220.589 68.36 217.089 68.96 213.989 68.36L212.089 66.46L216.489 56.0601L220.289 47.2601C216.489 43.7601 214.289 35.26 218.389 33.66C222.489 32.06 224.989 36.46 224.989 36.46L227.789 41.46L229.389 44.66C229.689 42.76 229.989 41.46 230.689 39.96C232.889 34.56 237.589 32.36 237.589 32.36C237.289 34.86 235.689 37.0601 235.689 37.0601C239.789 33.8601 240.389 30.16 240.389 30.16C240.989 33.36 243.889 36.7601 244.189 37.0601C244.189 37.0601 241.389 35.7601 240.089 33.5601C240.289 34.3601 238.089 38.16 232.689 42.86Z" fill="#CD634B"/>
<path d="M236.489 73.46L231.089 82.96C229.489 79.16 226.989 76.36 224.489 73.86C218.789 68.86 212.489 66.66 212.489 66.66C212.189 66.66 211.889 66.66 211.589 66.96L214.089 60.96L236.489 73.46Z" fill="#FFF2FA"/>
<path d="M281.889 172.76H280.589H263.889H262.589V180.06H264.189L264.889 196.76H279.389L280.289 180.06H281.889V172.76Z" fill="#30353B"/>
<path d="M252.589 168.96V181.26H242.789L243.089 164.26L252.589 168.96Z" fill="#D63A21"/>
<path d="M233.989 194.56C216.689 196.76 189.889 215.06 189.889 215.06V201.86C210.589 191.36 224.789 191.66 233.989 194.56Z" fill="#B79FB1"/>
<path d="M230.489 13.5601C230.489 13.5601 231.089 5.96002 236.489 0.960022L234.889 0.0600586C234.889 0.0600586 229.589 6.06006 230.489 13.5601Z" fill="#191E23"/>
<path d="M229.889 13.8601C229.889 13.8601 221.089 6.6601 212.189 15.7601C212.189 15.4601 219.489 9.76007 229.889 13.8601Z" fill="#191E23"/>
<path d="M229.589 11.66C229.589 11.66 227.989 7.26003 229.289 2.16003C229.189 2.26003 225.489 7.96003 229.589 11.66Z" fill="#191E23"/>
<path d="M246.289 185.96V202.06C246.289 202.06 242.489 197.06 233.989 194.46C229.889 193.16 225.189 192.56 218.889 192.86C210.989 193.46 201.589 196.06 189.889 201.96C188.589 202.56 187.389 203.26 186.089 204.16C186.089 204.16 187.389 199.76 189.289 194.66C190.189 192.16 191.189 189.66 192.489 187.46C192.489 187.46 192.189 187.16 191.589 186.56C189.989 184.96 187.789 180.56 187.789 169.86C187.789 155.06 177.989 74.9601 211.389 67.0601C211.689 67.0601 211.989 67.0601 212.289 66.7601C212.589 66.7601 225.489 71.1601 230.589 81.5601C230.889 81.8601 230.889 82.46 231.189 82.86C231.189 83.16 231.489 83.16 231.489 83.46C231.489 83.46 233.689 90.6601 236.189 102.06C236.789 105.26 237.789 108.66 238.389 112.76C241.589 129.16 244.989 150.86 244.989 172.06C244.989 172.06 249.689 178.06 250.689 180.56C250.989 183.16 246.289 185.96 246.289 185.96Z" fill="#FA6142"/>
<path d="M281.889 172.76L266.689 177.76L281.889 180.06H267.089L279.389 196.76H264.889L264.189 180.06H262.589V172.76H281.889Z" fill="#191E23"/>
<path d="M281.789 172.76H262.589V179.96H281.789V172.76Z" fill="#FFF2FA"/>
<path d="M272.689 192.26C275.119 192.26 277.089 190.29 277.089 187.86C277.089 185.43 275.119 183.46 272.689 183.46C270.259 183.46 268.289 185.43 268.289 187.86C268.289 190.29 270.259 192.26 272.689 192.26Z" fill="#B79FB1"/>
<path d="M252.889 55.46C252.289 57.06 250.389 60.8601 250.389 60.8601L240.889 55.46C246.589 48.86 252.889 55.46 252.889 55.46ZM261.989 27.7601C261.989 27.7601 264.789 26.4601 265.789 27.1601C265.789 27.1601 251.889 2.86009 230.189 14.2601C230.189 14.2601 210.289 13.6601 207.189 36.6601C207.189 36.6601 207.789 35.7601 209.689 33.8601C209.689 33.8601 208.389 42.9601 212.889 43.6601C212.889 43.6601 212.289 49.0601 216.689 50.2601C216.689 50.2601 215.789 53.7601 216.689 56.5601L220.489 47.7601C216.689 44.2601 214.489 35.7601 218.589 34.1601C222.689 32.5601 225.189 36.96 225.189 36.96C227.089 40.16 227.689 43.8601 227.389 47.6601L226.789 54.5601C226.789 55.4601 227.089 56.4601 227.689 56.7601L239.689 66.5601C239.989 66.5601 241.589 67.86 244.089 67.46C247.289 67.16 251.289 64.2601 254.789 54.5601C253.489 53.2601 251.989 52.3601 250.689 51.3601C246.289 49.1601 241.189 50.7601 238.989 55.1601L232.389 54.2601C231.089 53.9601 229.889 52.66 230.189 51.46L230.489 44.2601C230.489 43.3601 230.789 42.6601 230.789 41.7601C231.689 38.2601 233.589 35.4601 236.489 33.5601C237.089 33.2601 237.389 32.96 237.389 32.96C237.089 35.46 235.489 37.6601 235.489 37.6601C239.589 34.4601 240.189 30.7601 240.189 30.7601C240.789 33.9601 243.689 37.3601 243.989 37.6601C242.389 33.2601 244.589 27.8601 244.589 27.8601C245.489 34.7601 251.489 38.8601 251.489 38.8601C248.289 34.4601 249.589 30.96 249.589 30.96C252.389 39.46 257.789 42.96 257.789 42.96C257.189 46.46 256.489 49.2601 255.589 52.0601C256.489 50.7601 258.089 48.5601 258.789 46.3601C258.789 46.3601 259.689 49.16 259.689 50.46C259.689 50.46 262.889 45.7601 263.189 40.6601C263.189 40.6601 264.489 41.2601 265.089 42.5601C265.189 42.5601 266.689 31.2601 261.989 27.7601Z" fill="#30353B"/>
<path d="M221.389 46.0601C221.389 46.0601 220.089 42.5601 221.089 39.7601C221.689 36.9601 223.889 37.5601 223.889 37.5601C223.889 37.5601 221.089 34.7601 219.489 36.6601C217.589 38.4601 219.789 44.4601 221.389 46.0601Z" fill="#BC4531"/>
<path d="M223.589 37.5601C223.589 37.5601 221.689 34.3601 219.189 35.6601C216.389 36.5601 218.889 44.1601 221.389 46.0601C221.389 46.0601 218.889 41.36 219.489 38.46C220.389 35.36 223.589 37.5601 223.589 37.5601Z" fill="#191E23"/>
<path d="M251.589 38.46C251.589 38.46 246.889 37.8601 243.689 31.5601C243.989 29.3601 244.589 27.46 244.589 27.46C245.589 34.66 251.589 38.46 251.589 38.46Z" fill="#CD634B"/>
<path d="M244.389 67.7601C241.889 68.0601 240.289 67.16 239.989 66.86L227.989 57.0601C227.389 56.4601 227.089 55.46 227.089 54.86L227.689 47.96C227.989 44.16 227.089 40.3601 225.489 37.2601C225.489 37.2601 222.989 32.86 218.889 34.46C214.789 36.06 216.989 44.5601 220.789 48.0601L216.989 56.86C216.089 54.36 216.989 50.5601 216.989 50.5601C212.589 49.2601 213.189 43.96 213.189 43.96C208.789 43.36 209.989 34.16 209.989 34.16C207.789 36.06 207.489 36.96 207.489 36.96C210.689 13.96 230.489 14.5601 230.489 14.5601C230.489 14.5601 244.089 10.46 253.789 22.16C253.789 22.16 246.189 17.16 238.389 18.66C238.389 18.66 241.889 21.86 242.789 29.36C242.789 29.36 241.489 24.6601 237.089 21.7601C237.089 21.7601 235.489 25.26 235.789 30.86C235.789 30.86 234.189 28.0601 233.889 24.2601C233.889 24.2601 232.289 33.3601 231.389 41.5601C231.089 42.4601 231.089 43.1601 231.089 44.0601L230.789 51.2601C230.789 52.5601 231.689 53.7601 232.989 54.0601C232.389 54.2601 234.889 63.0601 244.389 67.7601Z" fill="#191E23"/>
<path d="M236.489 73.46L225.489 70.96L224.189 73.7601C218.489 68.7601 212.189 66.5601 212.189 66.5601C211.889 66.5601 211.589 66.56 211.289 66.86L213.789 60.86L236.489 73.46Z" fill="#DDCEDA"/>
<path d="M268.289 333.56L249.089 340.76L243.389 317.16L263.889 308.66L268.289 333.56Z" fill="#FA6142"/>
<path d="M249.089 340.76L238.389 344.56L231.089 322.16L243.389 317.16L249.089 340.76Z" fill="#D63A21"/>
<path d="M238.389 112.86L235.189 113.16C232.389 113.46 229.489 111.26 229.189 108.46C228.889 105.66 231.089 102.76 233.889 102.46L235.789 102.16C236.789 105.36 237.389 109.06 238.389 112.86Z" fill="white"/>
<path d="M224.789 174.36L208.089 180.36L218.789 192.96C210.889 193.56 201.489 196.16 189.789 202.06C188.489 202.66 187.289 203.36 185.989 204.26C185.989 204.26 187.289 199.86 189.189 194.76C190.089 192.26 191.089 189.76 192.389 187.56C192.389 187.56 192.089 187.26 191.489 186.66C189.889 185.06 187.689 180.66 187.689 169.96C187.689 155.16 177.889 75.06 211.289 67.16C211.589 67.16 211.889 67.16 212.189 66.86C212.489 66.86 225.389 71.26 230.489 81.66C230.489 81.66 209.389 72.5601 203.389 95.5601L212.189 85.7601L200.889 107.86C200.889 107.86 198.389 128.66 198.989 143.46C199.289 158.26 208.489 177.16 208.489 177.16L224.789 174.36Z" fill="#D63A21"/>
<path d="M223.589 211.56C223.589 211.56 220.389 209.36 221.689 200.86L207.789 180.36L224.489 174.36L225.089 176.56L231.089 193.56C231.089 193.56 232.689 192.96 233.289 193.56C234.289 194.16 235.189 199.26 223.589 211.56Z" fill="#FFAD95"/>
<path d="M231.389 193.56L225.089 86.36C225.089 86.36 211.889 127.96 224.789 174.26L231.389 193.56Z" fill="#D63A21"/>
<path d="M223.589 211.56C223.589 211.56 220.389 209.36 221.689 200.86L207.789 180.36L224.489 174.36L225.089 176.56C220.089 180.36 218.789 187.26 221.589 192.96L224.089 197.96C224.089 197.96 228.489 196.66 230.689 193.86C230.689 193.86 232.289 193.26 232.889 193.86C234.289 194.16 235.189 199.26 223.589 211.56Z" fill="#CD634B"/>
<path d="M281.889 172.76L268.289 177.76L281.889 180.06H262.589V172.76H281.889Z" fill="#B79FB1"/>
<path d="M283.489 171.16C283.489 172.06 282.889 172.76 281.889 172.76H262.689V177.46C265.189 178.76 267.089 181.26 266.489 182.46C266.489 182.46 266.489 182.76 266.189 182.76C264.889 183.66 258.289 179.96 258.289 179.96H252.589V169.26H256.989C256.989 169.26 258.289 166.06 261.089 166.06C261.389 166.06 261.389 166.06 261.689 166.06C265.489 166.36 277.789 168.56 281.889 169.26C282.189 169.26 282.489 169.56 282.789 169.86C283.489 170.56 283.489 170.86 283.489 171.16Z" fill="#FFAD95"/>
<path d="M281.889 172.76H262.589V177.76L259.189 175.26L263.889 170.56L281.889 172.76Z" fill="#CD634B"/>
<path d="M266.089 182.86C266.089 182.86 266.089 183.16 266.089 182.86C264.489 184.16 258.189 180.36 258.189 180.36H252.489V169.66H256.889C256.889 169.66 258.189 166.46 260.989 166.46C261.289 166.46 261.289 166.46 261.589 166.46C259.089 167.06 257.789 170.26 257.189 172.76C256.589 175.56 258.089 178.46 260.389 179.66L266.089 182.86Z" fill="#CD634B"/>
<path d="M203.989 380.76C203.689 380.46 203.689 380.16 203.689 379.86L205.589 376.06C205.889 375.76 206.189 375.76 206.489 375.76C206.789 376.06 206.789 376.36 206.789 376.66L204.889 380.46C204.689 381.16 204.289 381.16 203.989 380.76Z" fill="#FFF2FA"/>
<path d="M206.489 382.36C206.189 382.06 206.189 381.76 206.189 381.46L208.089 377.66C208.389 377.36 208.689 377.36 208.989 377.36C209.289 377.66 209.289 377.96 209.289 378.26L207.389 382.06C207.489 382.36 206.889 382.66 206.489 382.36Z" fill="#FFF2FA"/>
<path d="M209.389 383.96C209.089 383.66 209.089 383.36 209.089 383.06L210.989 379.26C211.289 378.96 211.589 378.96 211.889 378.96C212.189 379.26 212.189 379.56 212.189 379.86L210.289 383.66C209.989 383.96 209.689 383.96 209.389 383.96Z" fill="#FFF2FA"/>
<path d="M212.189 385.26C211.889 384.96 211.889 384.66 211.889 384.36L213.789 380.56C214.089 380.26 214.389 380.26 214.689 380.26C214.989 380.56 214.989 380.86 214.989 381.16L213.089 384.96C212.789 385.26 212.489 385.56 212.189 385.26Z" fill="#FFF2FA"/>
<path d="M214.689 386.76C214.389 386.46 214.389 386.16 214.389 385.86L216.289 382.06C216.589 381.76 216.889 381.76 217.189 381.76C217.489 382.06 217.489 382.36 217.489 382.66L215.589 386.46C215.389 386.76 215.089 386.76 214.689 386.76Z" fill="#FFF2FA"/>
<path d="M217.589 388.06C217.289 387.76 217.289 387.46 217.289 387.16L219.189 383.36C219.489 383.06 219.789 383.06 220.089 383.06C220.389 383.36 220.389 383.66 220.389 383.96L218.489 387.76C218.189 388.06 217.889 388.36 217.589 388.06Z" fill="#FFF2FA"/>
<path d="M273.989 369.46C273.689 369.46 273.389 369.16 273.389 368.86L273.989 364.76C273.989 364.46 274.289 364.16 274.589 364.16C274.889 364.16 275.189 364.46 275.189 364.76L274.589 368.86C274.589 369.46 274.289 369.76 273.989 369.46Z" fill="#FFF2FA"/>
<path d="M277.089 370.06C276.789 370.06 276.489 369.76 276.489 369.46L277.089 365.36C277.089 365.06 277.389 364.76 277.689 364.76C277.989 364.76 278.289 365.06 278.289 365.36L277.689 369.46C277.789 369.76 277.489 370.06 277.089 370.06Z" fill="#FFF2FA"/>
<path d="M280.289 370.36C279.989 370.36 279.689 370.06 279.689 369.76L280.289 365.66C280.289 365.36 280.589 365.06 280.889 365.06C281.189 365.06 281.489 365.36 281.489 365.66L280.889 369.76C280.889 370.06 280.589 370.36 280.289 370.36Z" fill="#FFF2FA"/>
<path d="M283.089 370.76C282.789 370.76 282.489 370.46 282.489 370.16L283.089 366.06C283.089 365.76 283.389 365.46 283.689 365.46C283.989 365.46 284.289 365.76 284.289 366.06L283.689 370.16C283.789 370.36 283.489 370.76 283.089 370.76Z" fill="#FFF2FA"/>
<path d="M286.289 371.06C285.989 371.06 285.689 370.76 285.689 370.46L286.289 366.36C286.289 366.06 286.589 365.76 286.889 365.76C287.189 365.76 287.489 366.06 287.489 366.36L286.889 370.46C286.889 370.76 286.589 371.06 286.289 371.06Z" fill="#FFF2FA"/>
<path d="M289.389 371.36C289.089 371.36 288.789 371.06 288.789 370.76L289.389 366.66C289.389 366.36 289.689 366.06 289.989 366.06C290.289 366.06 290.589 366.36 290.589 366.66L289.989 370.76C290.089 371.36 289.789 371.36 289.389 371.36Z" fill="#FFF2FA"/>
<path d="M311.489 374.16L310.889 372.26C310.889 371.96 310.589 371.66 310.589 371.66C309.989 370.06 308.389 368.86 307.089 368.16C305.189 367.26 303.289 367.26 301.389 367.86C300.489 368.16 299.489 368.46 298.589 368.16L301.089 375.06L257.289 390.86C257.889 393.06 258.589 394.66 258.589 394.66L312.189 375.16L311.489 374.16Z" fill="#B79FB1"/>
<path d="M236.189 394.96C235.889 393.06 235.289 391.46 233.989 390.26C232.689 388.96 230.789 388.06 228.589 388.06C227.689 388.06 226.389 387.76 225.389 387.46C225.389 389.06 225.389 392.46 225.389 395.06H179.089C179.089 397.56 179.089 399.16 179.089 399.16H236.189V398.86V396.06C236.189 395.26 236.189 394.96 236.189 394.96Z" fill="#B79FB1"/>
<path d="M190.189 385.86C186.389 385.86 183.289 384.56 181.989 384.26C181.689 384.26 181.689 383.66 181.689 383.36C181.689 383.06 181.989 383.06 182.289 383.06C184.489 383.96 193.289 387.16 199.989 380.56C200.289 380.26 200.589 380.26 200.889 380.56C201.189 380.86 201.189 381.16 200.889 381.46C197.389 384.86 193.589 385.86 190.189 385.86Z" fill="#FFF2FA"/>
<path d="M255.389 379.86H255.089C254.789 379.86 254.489 379.56 254.489 379.26C254.489 378.96 254.789 378.66 255.089 378.96C257.589 379.26 267.089 380.26 271.489 372.36C271.789 372.06 272.089 372.06 272.389 372.06C272.689 372.06 272.689 372.66 272.689 372.96C267.989 380.46 258.589 380.16 255.389 379.86Z" fill="#FFF2FA"/>
<path d="M236.189 399.06C236.189 399.06 270.589 396.26 284.389 397.46C298.289 398.76 341.489 391.46 360.089 399.36L236.189 399.06Z" fill="#AFC24E"/>
<path d="M364.489 399.76C364.489 399.76 352.189 383.06 366.389 361.66C378.689 343.66 361.389 326.66 361.389 326.66C361.389 326.66 380.889 341.16 367.689 364.46C354.489 387.76 374.289 399.16 374.289 399.16L364.489 399.76Z" fill="#AFC24E"/>
<path d="M375.189 399.36C375.189 399.36 396.589 320.86 355.689 298.76C355.689 298.76 397.589 311.06 379.689 399.36H375.189Z" fill="#AFC24E"/>
<path d="M387.189 399.76C387.189 399.76 404.489 322.56 340.189 311.86C340.189 311.86 402.889 314.06 390.889 399.76H387.189Z" fill="#AFC24E"/>
<path d="M397.189 399.76C397.189 399.76 393.689 389.06 404.389 383.06C415.089 377.06 408.189 365.76 396.789 365.36C396.789 365.36 409.089 364.46 411.889 374.16C414.389 383.96 397.689 386.16 400.889 399.66H397.189V399.76Z" fill="#AFC24E"/>
<path d="M352.189 296.66C352.189 296.66 341.489 300.76 329.189 296.96C316.889 293.16 309.689 300.76 309.689 300.76C309.689 300.76 316.289 290.36 329.889 294.46C343.289 298.56 352.189 296.66 352.189 296.66Z" fill="#AFC24E"/>
<path d="M473.489 398.76H0.688965V400.06H473.489V398.76Z" fill="#AFC24E"/>
<path d="M54.8889 399.36C54.8889 399.36 55.489 355.56 26.189 353.36C26.189 353.36 55.789 351.16 57.689 399.36H54.8889Z" fill="#AFC24E"/>
<path d="M202.789 109.76C202.789 109.76 196.489 150.46 209.689 174.36C209.389 174.06 200.189 146.56 202.789 109.76Z" fill="#D63A21"/>
<path d="M233.689 43.2601C233.689 43.2601 232.389 49.26 233.389 53.66L233.689 43.2601Z" fill="#CD634B"/>
<path d="M228.289 115.76L232.389 188.86C232.389 188.86 232.389 132.06 228.289 115.76Z" fill="#D63A21"/>
<path d="M189.189 361.56L221.389 233.26C221.389 232.96 203.689 327.86 189.189 361.56Z" fill="#293949"/>
<path d="M248.489 244.36L242.789 283.76C242.789 283.76 250.389 255.06 248.489 244.36Z" fill="#293949"/>
<path d="M41.689 399.36C41.689 399.36 40.389 389.86 44.189 380.16C44.189 380.16 38.7889 386.16 37.8889 399.66L41.689 399.36Z" fill="#AFC24E"/>
<path d="M44.4888 399.36C44.4888 399.36 43.1889 388.66 30.8889 386.76C30.8889 386.76 44.0889 385.16 47.5889 399.36H44.4888Z" fill="#AFC24E"/>
</svg>
