<svg width="160" height="103" viewBox="0 0 160 103" fill="none" xmlns="http://www.w3.org/2000/svg">
<path d="M54.5205 1.38877L50.4661 100.798L20.0028 99.3867L21.6827 33.2633L10.483 40.9463L0 17.046L22.8027 0L54.5205 1.38877Z" fill="#FDDCA1"/>
<path d="M97.6174 17.2477C97.6223 18.5909 97.4643 19.9297 97.147 21.2348C96.8365 22.4798 96.3778 23.6831 95.7806 24.8188C95.1672 25.9326 94.4145 26.9638 93.5407 27.8875C92.6969 28.8115 91.7325 29.6177 90.6735 30.2842C88.4235 31.667 85.833 32.3961 83.1921 32.3898C81.8825 32.4022 80.5778 32.2288 79.317 31.8746C76.8978 31.2211 74.6951 29.9381 72.9331 28.1563C72.0602 27.2731 71.3071 26.279 70.6931 25.1996C70.0839 24.101 69.6029 22.936 69.2596 21.7276C68.9237 20.4559 68.758 19.1454 68.7668 17.8301C68.7657 16.5315 68.9237 15.2376 69.2372 13.9774C69.5376 12.7364 69.9969 11.5394 70.6035 10.4159C71.2215 9.29809 71.9737 8.26003 72.8435 7.32473C73.6745 6.38989 74.632 5.57565 75.6882 4.90557C76.7203 4.22091 77.8439 3.6855 79.0258 3.31521C80.2805 2.92593 81.5871 2.72956 82.9009 2.73282C84.9474 2.71504 86.9805 3.06401 88.904 3.7632C90.6333 4.39078 92.2068 5.38402 93.5172 6.67514C94.8277 7.96626 95.8442 9.52488 96.4974 11.2446C97.2398 13.1589 97.6196 15.1945 97.6174 17.2477ZM87.56 17.8301C87.5527 17.1923 87.4547 16.5587 87.2688 15.9486C87.0934 15.358 86.8126 14.804 86.44 14.3134C86.0792 13.8406 85.6208 13.4509 85.096 13.171C84.5275 12.8581 83.8855 12.7034 83.2369 12.723C82.5827 12.7168 81.9344 12.8465 81.3329 13.1038C80.7852 13.3481 80.2963 13.7071 79.8994 14.1566C79.4893 14.611 79.1768 15.1446 78.981 15.7245C78.7753 16.3306 78.6694 16.9661 78.6674 17.6061C78.6671 18.2502 78.7576 18.8912 78.9362 19.5101C79.1037 20.1271 79.3765 20.7106 79.7426 21.2348C80.1055 21.7437 80.571 22.171 81.1089 22.4892C81.6744 22.812 82.3172 22.9746 82.9681 22.9596C83.6322 22.9697 84.2902 22.8319 84.8945 22.5564C85.442 22.2723 85.9289 21.8843 86.328 21.414C86.7299 20.9322 87.0342 20.3769 87.224 19.7789C87.4476 19.1535 87.5612 18.4942 87.56 17.8301Z" fill="#FDDCA1"/>
<path d="M68.4307 45.27V39.7373H98.0428V45.27H68.4307Z" fill="#FDDCA1"/>
<path d="M77.3232 92.5331L76.6289 99.8354L62.7859 100.933C62.7859 97.1026 62.9203 93.2947 63.0099 89.5092C63.0995 85.7237 63.1891 81.9158 63.3011 78.0854H71.8578C71.6114 80.4822 71.365 82.8789 71.141 85.2757C70.917 87.6724 70.7378 90.0916 70.6482 92.5331H77.3681H77.3232Z" fill="#FDDCA1"/>
<path d="M97.7292 78.7128C97.2364 82.588 96.8108 86.4183 96.4524 90.2486C96.094 94.0789 95.758 97.9092 95.4444 101.784L88.7245 102.277L89.0157 99.746C88.7944 100.004 88.5381 100.231 88.2542 100.418C87.9642 100.598 87.6565 100.749 87.3358 100.866C87.0014 100.982 86.6562 101.065 86.3054 101.112C85.9702 101.145 85.6326 101.145 85.2974 101.112C84.5747 101.108 83.8597 100.963 83.1919 100.687C82.5332 100.409 81.9212 100.031 81.3775 99.5668C80.8228 99.0811 80.3266 98.5324 79.8991 97.9316C79.4692 97.3203 79.1015 96.6675 78.8016 95.9829C78.4966 95.3074 78.2639 94.6016 78.1072 93.8773C77.9519 93.2011 77.8693 92.5103 77.8608 91.8166C77.8608 90.831 77.8608 89.8006 77.8608 88.7478C77.8608 87.6951 77.8608 86.5079 78.0624 85.5447C78.264 84.5815 78.2864 83.4391 78.4432 82.3864C78.5876 81.4064 78.782 80.4345 79.0255 79.4744L83.0575 79.6536C84.4014 79.6536 85.7454 79.6536 87.0894 79.6536C86.843 80.5944 86.5966 81.5576 86.3278 82.5207C86.059 83.4839 85.8798 84.4471 85.6782 85.4103C85.4766 86.3735 85.3198 87.3591 85.1854 88.3446C85.0686 89.3259 85.0087 90.3132 85.0062 91.3014C85.0062 91.5254 85.0062 91.8614 85.0062 92.2869C85.0219 92.7176 85.082 93.1454 85.1854 93.5637C85.2625 93.9515 85.4065 94.3229 85.611 94.6613C85.6872 94.808 85.8034 94.93 85.9461 95.0132C86.0888 95.0965 86.2523 95.1376 86.4174 95.1317C86.6319 95.1287 86.8432 95.0791 87.0366 94.9862C87.23 94.8934 87.4009 94.7596 87.5374 94.5941C87.9141 94.1655 88.21 93.6722 88.411 93.1381C88.6836 92.4625 88.9008 91.7658 89.0605 91.055C89.2397 90.271 89.3965 89.4422 89.5085 88.5686C89.6205 87.6951 89.7549 86.8439 89.8221 85.9703C89.8893 85.0967 89.9565 84.2679 90.0013 83.4839C90.0461 82.6999 90.0013 82.028 90.0013 81.4232C90.0013 80.8184 90.0013 80.3256 90.0013 79.9896C90.0013 79.6536 90.0013 79.5416 90.0013 79.34C90.0013 79.1384 90.0013 78.9144 90.0013 78.6904H92.1069H96.0492C96.6465 78.7054 97.2065 78.7128 97.7292 78.7128Z" fill="#FDDCA1"/>
<path d="M118.359 98.2219C117.823 98.8905 117.18 99.4657 116.455 99.9243C115.681 100.403 114.864 100.808 114.014 101.134C113.148 101.444 112.256 101.676 111.348 101.828C110.492 101.994 109.622 102.077 108.75 102.075C107.218 102.104 105.695 101.83 104.27 101.268C102.972 100.766 101.79 100.004 100.798 99.0283C99.8376 98.041 99.0769 96.8772 98.5582 95.6012C98.0118 94.2182 97.738 92.7426 97.7518 91.2556C97.7554 90.0473 97.9059 88.8438 98.1998 87.6717C98.4626 86.5697 98.8535 85.5021 99.3646 84.491C99.8781 83.5137 100.51 82.6034 101.246 81.7807C101.973 80.9202 102.818 80.1662 103.755 79.5407C104.706 78.9379 105.74 78.4776 106.824 78.1743C107.972 77.8354 109.165 77.6693 110.363 77.6815H111.886C112.419 77.708 112.95 77.7679 113.476 77.8607C114.007 77.9608 114.531 78.0955 115.044 78.2639C115.522 78.4108 115.981 78.6138 116.411 78.8687L115.963 85.163C115.352 84.9199 114.712 84.7617 114.059 84.6926C113.42 84.6041 112.777 84.5592 112.132 84.5582C111.297 84.5483 110.466 84.6692 109.668 84.9166C108.945 85.1256 108.273 85.4842 107.697 85.9694C107.114 86.4244 106.652 87.017 106.353 87.6941C105.98 88.5303 105.826 89.4475 105.905 90.3597C105.901 90.92 105.976 91.4781 106.129 92.0172C106.269 92.5274 106.505 93.0064 106.824 93.4284C107.141 93.8381 107.537 94.1807 107.988 94.4364C108.496 94.6883 109.057 94.8114 109.624 94.7948C110.054 94.7965 110.483 94.7438 110.9 94.638C111.32 94.5438 111.711 94.3519 112.043 94.078V92.8012H108.1L108.302 87.8509L113.207 87.7165L118.135 87.5597L118.359 98.2219Z" fill="#FDDCA1"/>
<path d="M140.356 100.507L132.202 101.559L131.217 97.8411H127.453L126.647 101.559L118.247 100.731L124.788 78.7119L133.949 78.2639L140.356 100.507ZM130.545 92.8012L129.313 87.0669L128.081 92.8012H130.545Z" fill="#FDDCA1"/>
<path d="M160 86.0588C160.003 86.8112 159.928 87.562 159.776 88.2988C159.633 88.9622 159.399 89.6029 159.081 90.2027C158.751 90.7972 158.336 91.3405 157.85 91.8155C157.288 92.3481 156.672 92.8211 156.013 93.2267L159.933 100.215L152.518 101.649L149.987 94.6379H147.949L147.658 101.492H140.579C140.579 98.9834 140.579 96.497 140.736 94.0107C140.893 91.5243 140.736 89.0604 140.915 86.5516V82.7885C140.915 81.5565 140.915 80.3022 140.915 79.0478C141.699 78.7566 142.461 78.5326 143.155 78.331C143.893 78.146 144.641 78.0039 145.395 77.9054C146.157 77.9054 146.919 77.7262 147.635 77.6814H150.01C151.238 77.6702 152.461 77.8439 153.638 78.1966C154.767 78.5036 155.825 79.0287 156.752 79.7422C157.674 80.4401 158.437 81.3257 158.992 82.3405C159.64 83.4735 159.987 84.7536 160 86.0588ZM152.63 86.574C152.634 86.1402 152.566 85.7088 152.429 85.2973C152.32 84.9303 152.128 84.5932 151.869 84.3117C151.623 84.0206 151.307 83.797 150.95 83.6621C150.547 83.4923 150.112 83.4084 149.674 83.4157H149.024H148.419L148.151 89.5532H148.464C148.947 89.5475 149.428 89.4874 149.898 89.374C150.363 89.2519 150.808 89.0633 151.219 88.814C151.598 88.5546 151.919 88.2189 152.16 87.8284C152.426 87.4596 152.588 87.0266 152.63 86.574Z" fill="#FDDCA1"/>
</svg>
