<svg width="35" height="36" viewBox="0 0 35 36" fill="none" xmlns="http://www.w3.org/2000/svg">
<path d="M5.73901 24.4348H20.3584" stroke="black" stroke-linecap="round" stroke-linejoin="round"/>
<path d="M5.73901 27.6975H20.3584" stroke="black" stroke-linecap="round" stroke-linejoin="round"/>
<path d="M5.73901 31.2407H20.3584" stroke="black" stroke-linecap="round" stroke-linejoin="round"/>
<path d="M10.2921 15.7192C11.6986 15.7192 12.8388 14.579 12.8388 13.1725C12.8388 11.7659 11.6986 10.6257 10.2921 10.6257C8.88557 10.6257 7.74536 11.7659 7.74536 13.1725C7.74536 14.579 8.88557 15.7192 10.2921 15.7192Z" stroke="black" stroke-linecap="round" stroke-linejoin="round"/>
<path d="M5.73901 20.2721C5.73901 19.0646 6.21872 17.9065 7.07259 17.0526C7.92647 16.1987 9.08458 15.719 10.2921 15.719C11.4997 15.719 12.6578 16.1987 13.5117 17.0526C14.3656 17.9065 14.8453 19.0646 14.8453 20.2721H5.73901Z" stroke="black" stroke-linecap="round" stroke-linejoin="round"/>
<path d="M34.1258 5.06383L31.8383 3.0752L20.253 16.4028L17.4602 21.9262L22.5405 18.3914L34.1258 5.06383Z" stroke="black" stroke-linecap="round" stroke-linejoin="round"/>
<path d="M20.2529 16.4028L22.5408 18.3916" stroke="black" stroke-linecap="round" stroke-linejoin="round"/>
<path d="M18.4546 5.46924H22.6685C23.0051 5.46958 23.3383 5.53622 23.6491 5.66536C23.9599 5.7945 24.2422 5.9836 24.4799 6.22187C24.7176 6.46013 24.9061 6.7429 25.0345 7.054C25.1629 7.36511 25.2287 7.69846 25.2283 8.03503V10.6793" stroke="black" stroke-linecap="round" stroke-linejoin="round"/>
<path d="M25.2284 15.2977V32.8779C25.228 33.5567 24.9582 34.2076 24.4783 34.6875C23.9983 35.1675 23.3474 35.4373 22.6686 35.4376H3.4403C3.10374 35.4381 2.77038 35.3722 2.45928 35.2438C2.14817 35.1154 1.86541 34.927 1.62714 34.6893C1.38887 34.4516 1.19977 34.1693 1.07063 33.8585C0.941496 33.5477 0.874853 33.2145 0.874513 32.8779V8.03503C0.874229 7.698 0.940402 7.36423 1.06924 7.05281C1.19809 6.74138 1.38707 6.45842 1.62538 6.22011C1.86369 5.9818 2.14666 5.79281 2.45808 5.66397C2.76951 5.53513 3.10328 5.46896 3.4403 5.46924H7.63612" stroke="black" stroke-linecap="round" stroke-linejoin="round"/>
<path d="M18.4518 5.46633V2.91262H15.5902C15.566 2.26579 15.286 1.65504 14.8116 1.21464C14.3373 0.774249 13.7074 0.540274 13.0606 0.564165C12.4147 0.541471 11.7861 0.77603 11.313 1.21634C10.8399 1.65665 10.5608 2.26673 10.5371 2.91262H7.64526V7.95364H18.4518V5.46633Z" stroke="black" stroke-linecap="round" stroke-linejoin="round"/>
</svg>
